<svg width="42" height="57" viewBox="0 0 42 57" fill="none" xmlns="http://www.w3.org/2000/svg">
<path d="M17.8129 38.5987L13.5136 34.2993L10.8623 36.9506L17.8129 43.9012L30.3886 31.3256L27.7373 28.6743L17.8129 38.5987Z" fill="#FFC700"/>
<path d="M35.625 21.4987V15C35.625 11.0218 34.0446 7.20644 31.2316 4.3934C28.4186 1.58035 24.6032 0 20.625 0C16.6468 0 12.8314 1.58035 10.0184 4.3934C7.20535 7.20644 5.625 11.0218 5.625 15V21.5006C2.01169 25.3155 -0.00146723 30.3705 8.02327e-07 35.625C8.02327e-07 47.0137 9.23625 56.25 20.625 56.25C32.0175 56.25 41.25 47.0137 41.25 35.625C41.25 30.1519 39.1031 25.1925 35.625 21.4987ZM9.375 15C9.375 8.79562 14.4206 3.75 20.625 3.75C26.8294 3.75 31.875 8.79562 31.875 15V18.3525C28.5317 16.1629 24.6215 14.9977 20.625 15C16.6285 14.9977 12.7183 16.1629 9.375 18.3525V15ZM20.625 52.5C11.3044 52.5 3.75 44.9456 3.75 35.625C3.75 26.3044 11.3044 18.75 20.625 18.75C29.9456 18.75 37.5 26.3044 37.5 35.625C37.5 44.9456 29.9456 52.5 20.625 52.5Z" fill="#00ADEE"/>
</svg>
