<svg width="60" height="60" viewBox="0 0 60 60" fill="none" xmlns="http://www.w3.org/2000/svg">
<path d="M59 25.045C57.6046 25.0448 56.2406 24.6309 55.0804 23.8556C53.9201 23.0804 53.0158 21.9785 52.4816 20.6894C51.9475 19.4003 51.8075 17.9818 52.0793 16.6131C52.3512 15.2444 53.0227 13.9871 54.009 13C54.1965 12.8125 54.3018 12.5582 54.3018 12.293C54.3018 12.0278 54.1965 11.7735 54.009 11.586L48.417 5.991C48.2295 5.80353 47.9752 5.69821 47.71 5.69821C47.4448 5.69821 47.1905 5.80353 47.003 5.991C46.024 6.99086 44.7659 7.67185 43.3935 7.94484C42.021 8.21783 40.5981 8.07011 39.311 7.521C38.0129 6.99885 36.9026 6.09704 36.1254 4.93356C35.3482 3.77008 34.9403 2.39911 34.955 1C34.955 0.734784 34.8496 0.48043 34.6621 0.292893C34.4746 0.105357 34.2202 0 33.955 0H26.045C25.7798 0 25.5254 0.105357 25.3379 0.292893C25.1504 0.48043 25.045 0.734784 25.045 1C25.0597 2.39911 24.6518 3.77008 23.8746 4.93356C23.0974 6.09704 21.9871 6.99885 20.689 7.521C19.4022 8.06917 17.98 8.21639 16.6082 7.94342C15.2364 7.67046 13.9789 6.99001 13 5.991C12.8125 5.80353 12.5582 5.69821 12.293 5.69821C12.0278 5.69821 11.7735 5.80353 11.586 5.991L5.991 11.583C5.80353 11.7705 5.69821 12.0248 5.69821 12.29C5.69821 12.5552 5.80353 12.8095 5.991 12.997C6.99062 13.9762 7.67145 15.2342 7.94443 16.6066C8.21741 17.979 8.06983 19.4018 7.521 20.689C6.99885 21.9871 6.09704 23.0974 4.93356 23.8746C3.77008 24.6518 2.39911 25.0597 1 25.045C0.734784 25.045 0.48043 25.1504 0.292893 25.3379C0.105357 25.5254 0 25.7798 0 26.045V33.955C0 34.2202 0.105357 34.4746 0.292893 34.6621C0.48043 34.8496 0.734784 34.955 1 34.955C2.39911 34.9403 3.77008 35.3482 4.93356 36.1254C6.09704 36.9026 6.99885 38.0129 7.521 39.311C8.06917 40.5978 8.21639 42.02 7.94342 43.3918C7.67046 44.7636 6.99001 46.0211 5.991 47C5.80353 47.1875 5.69821 47.4418 5.69821 47.707C5.69821 47.9722 5.80353 48.2265 5.991 48.414L11.583 54.006C11.7705 54.1935 12.0248 54.2988 12.29 54.2988C12.5552 54.2988 12.8095 54.1935 12.997 54.006C13.9841 53.0185 15.242 52.346 16.6115 52.0737C17.9809 51.8013 19.4004 51.9413 20.6902 52.476C21.9801 53.0106 23.0824 53.9159 23.8575 55.0772C24.6327 56.2385 25.046 57.6037 25.045 59C25.045 59.2652 25.1504 59.5196 25.3379 59.7071C25.5254 59.8946 25.7798 60 26.045 60H33.955C34.2202 60 34.4746 59.8946 34.6621 59.7071C34.8496 59.5196 34.955 59.2652 34.955 59C34.9552 57.6046 35.3691 56.2406 36.1444 55.0804C36.9196 53.9201 38.0215 53.0158 39.3106 52.4816C40.5997 51.9475 42.0182 51.8075 43.3869 52.0793C44.7556 52.3512 46.0129 53.0227 47 54.009C47.1875 54.1965 47.4418 54.3018 47.707 54.3018C47.9722 54.3018 48.2265 54.1965 48.414 54.009L54.006 48.417C54.1935 48.2295 54.2988 47.9752 54.2988 47.71C54.2988 47.4448 54.1935 47.1905 54.006 47.003C53.0185 46.0159 52.346 44.758 52.0737 43.3885C51.8013 42.0191 51.9413 40.5996 52.476 39.3098C53.0106 38.0199 53.9159 36.9176 55.0772 36.1425C56.2385 35.3673 57.6037 34.954 59 34.955C59.2652 34.955 59.5196 34.8496 59.7071 34.6621C59.8946 34.4746 60 34.2202 60 33.955V26.045C60 25.7798 59.8946 25.5254 59.7071 25.3379C59.5196 25.1504 59.2652 25.045 59 25.045ZM58 33.007C56.3887 33.187 54.8552 33.7958 53.5593 34.7701C52.2635 35.7444 51.2526 37.0484 50.6322 38.5463C50.0117 40.0441 49.8044 41.681 50.0318 43.2863C50.2592 44.8915 50.9129 46.4064 51.925 47.673L47.673 51.925C46.4064 50.9129 44.8915 50.2592 43.2863 50.0318C41.681 49.8044 40.0441 50.0117 38.5463 50.6322C37.0484 51.2526 35.7444 52.2635 34.7701 53.5593C33.7958 54.8552 33.187 56.3887 33.007 58H26.993C26.813 56.3887 26.2042 54.8552 25.2299 53.5593C24.2556 52.2635 22.9516 51.2526 21.4537 50.6322C19.9559 50.0117 18.319 49.8044 16.7137 50.0318C15.1085 50.2592 13.5936 50.9129 12.327 51.925L8.075 47.673C9.1032 46.4147 9.76728 44.8989 9.99521 43.2899C10.2231 41.681 10.0062 40.0404 9.368 38.546C8.76309 37.0377 7.75651 35.724 6.45757 34.7475C5.15862 33.771 3.61696 33.169 2 33.007V26.993C3.61696 26.831 5.15862 26.229 6.45757 25.2525C7.75651 24.276 8.76309 22.9623 9.368 21.454C10.0062 19.9596 10.2231 18.319 9.99521 16.7101C9.76728 15.1011 9.1032 13.5853 8.075 12.327L12.327 8.075C13.5853 9.1032 15.1011 9.76728 16.7101 9.99521C18.319 10.2231 19.9596 10.0062 21.454 9.368C22.9623 8.76309 24.276 7.75651 25.2525 6.45757C26.229 5.15862 26.831 3.61696 26.993 2H33.007C33.169 3.61696 33.771 5.15862 34.7475 6.45757C35.724 7.75651 37.0377 8.76309 38.546 9.368C40.0403 10.0069 41.681 10.2242 43.2901 9.99621C44.8991 9.76826 46.415 9.1038 47.673 8.075L51.925 12.327C50.9129 13.5936 50.2592 15.1085 50.0318 16.7137C49.8044 18.319 50.0117 19.9559 50.6322 21.4537C51.2526 22.9516 52.2635 24.2556 53.5593 25.2299C54.8552 26.2042 56.3887 26.813 58 26.993V33.007Z" fill="#00ADEE"/>
<path d="M30 10C26.0444 10 22.1776 11.173 18.8886 13.3706C15.5996 15.5682 13.0362 18.6918 11.5224 22.3463C10.0087 26.0009 9.6126 30.0222 10.3843 33.9018C11.156 37.7814 13.0608 41.3451 15.8579 44.1421C18.6549 46.9392 22.2186 48.844 26.0982 49.6157C29.9778 50.3874 33.9992 49.9913 37.6537 48.4776C41.3082 46.9638 44.4318 44.4004 46.6294 41.1114C48.827 37.8224 50 33.9556 50 30C49.9939 24.6975 47.8848 19.614 44.1354 15.8646C40.386 12.1152 35.3025 10.0061 30 10ZM30 48C26.4399 48 22.9598 46.9443 19.9997 44.9665C17.0397 42.9886 14.7326 40.1774 13.3702 36.8883C12.0078 33.5992 11.6513 29.98 12.3459 26.4884C13.0404 22.9967 14.7547 19.7894 17.2721 17.2721C19.7894 14.7547 22.9967 13.0404 26.4884 12.3459C29.98 11.6513 33.5992 12.0078 36.8883 13.3702C40.1774 14.7325 42.9886 17.0396 44.9665 19.9997C46.9443 22.9598 48 26.4399 48 30C47.9944 34.7722 46.0962 39.3473 42.7218 42.7218C39.3473 46.0962 34.7722 47.9944 30 48Z" fill="#00ADEE"/>
<path d="M39.5564 34.9779V24.0249C39.5564 20.1509 36.0774 16.9999 31.8004 16.9999H21.5754C20.7727 16.9596 19.9812 17.201 19.3375 17.6823C18.6939 18.1636 18.2386 18.8546 18.0504 19.6359C17.9568 20.16 18.0021 20.6993 18.1818 21.2004C18.3614 21.7015 18.6692 22.1468 19.0744 22.4919C19.4672 22.7944 19.7921 23.176 20.0281 23.612C20.2641 24.048 20.4059 24.5287 20.4444 25.0229V37.0999C20.4444 40.3539 23.3584 42.9999 26.9444 42.9999H38.3684C39.1901 43.0415 40.0004 42.793 40.6575 42.2979C41.3146 41.8027 41.7768 41.0923 41.9634 40.2909C42.0409 39.7772 41.9864 39.2521 41.805 38.7653C41.6236 38.2784 41.3212 37.8457 40.9264 37.5079C40.5337 37.2056 40.2088 36.8242 39.9728 36.3884C39.7369 35.9525 39.595 35.472 39.5564 34.9779ZM38.3684 40.9999H26.9404C24.4614 40.9999 22.4404 39.2499 22.4404 37.0999V25.0229C22.412 24.2415 22.2137 23.4757 21.8594 22.7787C21.505 22.0817 21.003 21.4703 20.3884 20.9869C20.2451 20.8697 20.1354 20.7166 20.0704 20.5433C20.0054 20.3699 19.9875 20.1825 20.0184 19.9999C20.1305 19.6844 20.3442 19.4149 20.626 19.2339C20.9078 19.053 21.2418 18.9707 21.5754 18.9999H31.8004C34.9734 18.9999 37.5554 21.2539 37.5554 24.0249V34.9779C37.5839 35.7593 37.7823 36.525 38.1369 37.2219C38.4914 37.9187 38.9936 38.5299 39.6084 39.0129C39.7492 39.1278 39.858 39.2771 39.9242 39.4463C39.9904 39.6156 40.0118 39.799 39.9864 39.9789C39.867 40.3037 39.6436 40.5799 39.351 40.7646C39.0584 40.9493 38.7129 41.032 38.3684 40.9999Z" fill="#FFC700"/>
<path d="M32 21H24V23H32V21Z" fill="#FB4B00"/>
<path d="M35 33H33V35H35V33Z" fill="#FB4B00"/>
<path d="M33 25H29V27H33V25Z" fill="#FB4B00"/>
<path d="M33 29H25V31H33V29Z" fill="#FB4B00"/>
<path d="M31 33H27V35H31V33Z" fill="#FB4B00"/>
<path d="M36 37H28V39H36V37Z" fill="#FB4B00"/>
</svg>
