<svg width="57" height="58" viewBox="0 0 57 58" fill="none" xmlns="http://www.w3.org/2000/svg">
<path d="M44.3213 47.6995C43.8179 47.8787 43.284 47.9568 42.7503 47.9292C42.2166 47.9017 41.6936 47.7691 41.2113 47.5391C40.7289 47.3091 40.2967 46.9861 39.9394 46.5887C39.5821 46.1914 39.3067 45.7274 39.129 45.2234C38.9499 44.7207 38.8719 44.1876 38.8995 43.6547C38.9271 43.1218 39.0597 42.5996 39.2899 42.1181C39.52 41.6366 39.843 41.2054 40.2403 40.8492C40.6377 40.493 41.1015 40.2189 41.6052 40.0426C42.1078 39.8635 42.641 39.7854 43.1739 39.813C43.7068 39.8406 44.229 39.9733 44.7105 40.2034C45.1919 40.4335 45.6231 40.7566 45.9793 41.1539C46.3355 41.5513 46.6097 42.0151 46.786 42.5188C46.9651 43.0207 47.0434 43.5531 47.0164 44.0853C46.9894 44.6176 46.8577 45.1393 46.6287 45.6206C46.3998 46.1019 46.0781 46.5332 45.6822 46.89C45.2862 47.2467 44.8238 47.5218 44.3213 47.6995V47.6995Z" stroke="#FB4B00" stroke-width="2" stroke-miterlimit="10" stroke-linecap="round" stroke-linejoin="round"/>
<path d="M25.2848 19.4651C25.2848 22.6844 22.6713 25.3082 19.4417 25.3082C16.2121 25.3082 13.5986 22.6844 13.5986 19.4651C13.5986 16.2355 16.2121 13.6221 19.4417 13.6221C22.6713 13.6221 25.2848 16.2355 25.2848 19.4651Z" stroke="#FB4B00" stroke-width="2" stroke-miterlimit="10" stroke-linecap="round" stroke-linejoin="round"/>
<path d="M33.7646 31.2308L31.8019 26.4158C32.3615 25.4465 32.7942 24.385 33.1023 23.2658L37.885 21.2581V17.65L33.1023 15.6412C32.7999 14.5417 32.3631 13.4838 31.8019 12.4912L33.7646 7.69808L31.2088 5.14115L26.3927 7.105C25.4223 6.54538 24.3723 6.11269 23.2658 5.80346L21.2454 1.02308L17.65 1L15.6192 5.80462C14.5231 6.11269 13.4615 6.55808 12.4923 7.10615L7.67615 5.14231L5.11923 7.69923L7.08192 12.4923C6.52346 13.4846 6.08962 14.5231 5.78154 15.6423L1 17.65V21.2569L5.78154 23.2658C6.08962 24.385 6.52346 25.4465 7.08192 26.4158L5.12038 31.2319L7.67615 33.7646L12.4692 31.8031C13.4385 32.3615 14.5 32.8185 15.6192 33.115L17.6385 37.9081H21.2338L23.2415 33.115C24.3608 32.8185 25.4338 32.3615 26.4031 31.8019L31.2088 33.7646L33.7646 31.2319V31.2308ZM19.4431 25.3092C17.8937 25.3083 16.408 24.6924 15.3124 23.5968C14.2168 22.5012 13.6009 21.0156 13.6 19.4662C13.6 16.2365 16.2135 13.6231 19.4431 13.6231C22.6727 13.6231 25.2862 16.2365 25.2862 19.4662C25.2852 21.0156 24.6693 22.5012 23.5737 23.5968C22.4782 24.6924 20.9925 25.3083 19.4431 25.3092V25.3092Z" stroke="#00ADEE" stroke-width="2" stroke-miterlimit="10" stroke-linecap="round" stroke-linejoin="round"/>
<path d="M52.801 43.2032L55.471 40.772L54.6379 38.4216L51.0321 38.2047C50.5732 37.5524 50.0365 36.9584 49.434 36.4359L49.6048 32.8405L47.3571 31.7443L44.6525 34.1535C43.8736 34.012 43.0795 33.9732 42.2906 34.0382L39.8594 31.3682L37.4963 32.2012L37.291 35.8082C36.6392 36.259 36.0452 36.7879 35.5221 37.3832L31.9163 37.2112L30.8433 39.4832L33.2398 42.1878C33.0984 42.9628 33.0599 43.7531 33.1256 44.5382L30.4556 46.9693L31.2771 49.3312L34.8944 49.5482C35.3513 50.1874 35.8867 50.7816 36.4694 51.2951L36.2986 54.9124L38.5694 55.997L41.2625 53.5889C42.042 53.7281 42.8357 53.7703 43.6256 53.7147L46.0556 56.3847L48.4186 55.5516L48.624 51.9459C49.2772 51.4968 49.8681 50.9633 50.3813 50.3593L53.9986 50.5301L55.0717 48.2709L52.6752 45.5766C52.8149 44.7937 52.8571 43.9965 52.801 43.2032V43.2032ZM44.3213 47.6997C43.8179 47.8789 43.284 47.9569 42.7503 47.9294C42.2166 47.9019 41.6936 47.7693 41.2113 47.5393C40.7289 47.3092 40.2967 46.9863 39.9394 46.5889C39.5821 46.1915 39.3067 45.7275 39.129 45.2235C38.9499 44.7209 38.8719 44.1878 38.8995 43.6549C38.9271 43.1219 39.0597 42.5997 39.2898 42.1183C39.52 41.6368 39.843 41.2056 40.2403 40.8494C40.6377 40.4932 41.1015 40.2191 41.6052 40.0428C42.1078 39.8636 42.641 39.7856 43.1739 39.8132C43.7068 39.8408 44.229 39.9735 44.7104 40.2036C45.1919 40.4337 45.6231 40.7567 45.9793 41.1541C46.3355 41.5514 46.6096 42.0153 46.786 42.5189C46.9651 43.0209 47.0434 43.5532 47.0164 44.0855C46.9894 44.6178 46.8577 45.1395 46.6287 45.6208C46.3998 46.102 46.0781 46.5334 45.6822 46.8901C45.2862 47.2469 44.8238 47.522 44.3213 47.6997V47.6997Z" stroke="#FB4B00" stroke-width="2" stroke-miterlimit="10" stroke-linecap="round" stroke-linejoin="round"/>
<path d="M44.3213 47.6995C43.8179 47.8787 43.284 47.9568 42.7503 47.9292C42.2166 47.9017 41.6936 47.7691 41.2113 47.5391C40.7289 47.3091 40.2967 46.9861 39.9394 46.5887C39.5821 46.1914 39.3067 45.7274 39.129 45.2234C38.9499 44.7207 38.8719 44.1876 38.8995 43.6547C38.9271 43.1218 39.0597 42.5996 39.2899 42.1181C39.52 41.6366 39.843 41.2054 40.2403 40.8492C40.6377 40.493 41.1015 40.2189 41.6052 40.0426C42.1078 39.8635 42.641 39.7854 43.1739 39.813C43.7068 39.8406 44.229 39.9733 44.7105 40.2034C45.1919 40.4335 45.6231 40.7566 45.9793 41.1539C46.3355 41.5513 46.6097 42.0151 46.786 42.5188C46.9651 43.0207 47.0434 43.5531 47.0164 44.0853C46.9894 44.6176 46.8577 45.1393 46.6287 45.6206C46.3998 46.1019 46.0781 46.5332 45.6822 46.89C45.2862 47.2467 44.8238 47.5218 44.3213 47.6995V47.6995Z" stroke="#FB4B00" stroke-width="2" stroke-miterlimit="10" stroke-linecap="round" stroke-linejoin="round"/>
</svg>
