<svg width="60" height="65" viewBox="0 0 60 65" fill="none" xmlns="http://www.w3.org/2000/svg">
<path d="M42.9667 46H41.1143V48H44.8191V44H42.9667V46Z" fill="#00ADEE"/>
<path d="M37.4093 46H31.8521V48H37.4093V46Z" fill="#00ADEE"/>
<path d="M28.1471 46H22.5898V48H28.1471V46Z" fill="#00ADEE"/>
<path d="M17.0326 44H15.1802V48H18.885V46H17.0326V44Z" fill="#00ADEE"/>
<path d="M17.0326 24.8301H15.1802V30.5801H17.0326V24.8301Z" fill="#00ADEE"/>
<path d="M17.0326 34.4199H15.1802V40.1699H17.0326V34.4199Z" fill="#00ADEE"/>
<path d="M15.1802 21H17.0326V19H18.885V17H15.1802V21Z" fill="#00ADEE"/>
<path d="M37.4093 17H31.8521V19H37.4093V17Z" fill="#00ADEE"/>
<path d="M28.1471 17H22.5898V19H28.1471V17Z" fill="#00ADEE"/>
<path d="M41.1143 19H42.9667V21H44.8191V17H41.1143V19Z" fill="#00ADEE"/>
<path d="M44.8192 34.4199H42.9668V40.1699H44.8192V34.4199Z" fill="#00ADEE"/>
<path d="M44.8192 24.8301H42.9668V30.5801H44.8192V24.8301Z" fill="#00ADEE"/>
<path d="M49.1824 12.71L57.7869 3.41V8H59.6394V0H52.2297V2H56.481L47.8765 11.29L49.1824 12.71Z" fill="#FB4B00"/>
<path d="M1.85242 3.81014L10.4569 13.1001L11.7722 11.6901L3.15838 2.39014H7.40969V0.390137H0V8.39014H1.85242V3.81014Z" fill="#FB4B00"/>
<path d="M10.827 52.0801L2.21326 61.3701V56.7801H0.36084V64.7801H7.77053V62.7801H3.52848L12.133 53.4901L10.827 52.0801Z" fill="#FB4B00"/>
<path d="M58.1478 56.3899V60.9799L49.5433 51.6899L48.2373 53.0999L56.8418 62.3899H52.5905V64.3899H60.0002V56.3899H58.1478Z" fill="#FB4B00"/>
</svg>
