<svg width="61" height="55" viewBox="0 0 61 55" fill="none" xmlns="http://www.w3.org/2000/svg">
<path d="M27.4344 9.72663C27.2077 9.55462 26.9465 9.43379 26.6686 9.37245C26.3908 9.31111 26.103 9.31072 25.825 9.37131C25.547 9.4319 25.2854 9.55203 25.0583 9.72342C24.8312 9.89482 24.6439 10.1134 24.5094 10.3641C24.2883 10.8092 24.253 11.3239 24.4113 11.795C24.5695 12.2661 24.9082 12.6552 25.3531 12.8766L29.1031 14.7516C29.4955 14.9468 29.9439 14.9983 30.3704 14.8973C30.7968 14.7962 31.1744 14.549 31.4375 14.1985L34.25 10.4485C34.3977 10.2515 34.5052 10.0274 34.5663 9.78885C34.6275 9.55032 34.641 9.30209 34.6062 9.05834C34.5713 8.81459 34.4888 8.58008 34.3634 8.36821C34.2379 8.15633 34.072 7.97124 33.875 7.82351C33.6445 7.65975 33.3812 7.54784 33.1033 7.49546C32.8254 7.44308 32.5395 7.45148 32.2652 7.52006C31.9908 7.58864 31.7346 7.7158 31.514 7.89279C31.2935 8.06977 31.1139 8.2924 30.9875 8.54538C29.9153 5.66552 27.8665 3.25319 25.1983 1.72878C22.53 0.204374 19.4115 -0.33546 16.3861 0.203355C13.3607 0.742169 10.6203 2.32547 8.6424 4.67734C6.66451 7.02921 5.57457 10.0005 5.56251 13.0735C5.56251 13.5708 5.76005 14.0477 6.11168 14.3993C6.46331 14.751 6.94023 14.9485 7.43751 14.9485C7.93479 14.9485 8.4117 14.751 8.76333 14.3993C9.11496 14.0477 9.31251 13.5708 9.31251 13.0735C9.31877 10.8871 10.089 8.77161 11.4901 7.09304C12.8911 5.41447 14.8348 4.27837 16.9848 3.88128C19.1349 3.48419 21.3561 3.85108 23.2643 4.91849C25.1725 5.9859 26.6476 7.68668 27.4344 9.72663ZM53 40.0735C52.7369 39.723 52.3593 39.4758 51.9329 39.3747C51.5064 39.2737 51.058 39.3252 50.6656 39.5204L46.9156 41.3954C46.4707 41.6168 46.132 42.0059 45.9738 42.477C45.8155 42.9481 45.8508 43.4628 46.0719 43.9079C46.2064 44.1586 46.3937 44.3772 46.6208 44.5486C46.8479 44.72 47.1095 44.8401 47.3875 44.9007C47.6655 44.9613 47.9533 44.9609 48.2311 44.8996C48.509 44.8382 48.7702 44.7174 48.9969 44.5454C48.2101 46.5853 46.735 48.2861 44.8268 49.3535C42.9186 50.4209 40.6974 50.7878 38.5473 50.3907C36.3973 49.9936 34.4536 48.8575 33.0526 47.179C31.6515 45.5004 30.8813 43.3849 30.875 41.1985C30.875 40.7012 30.6775 40.2243 30.3258 39.8727C29.9742 39.521 29.4973 39.3235 29 39.3235C28.5027 39.3235 28.0258 39.521 27.6742 39.8727C27.3226 40.2243 27.125 40.7012 27.125 41.1985C27.1371 44.2715 28.227 47.2428 30.2049 49.5947C32.1828 51.9465 34.9232 53.5298 37.9486 54.0687C40.974 54.6075 44.0925 54.0676 46.7608 52.5432C49.429 51.0188 51.4778 48.6065 52.55 45.7266C52.6764 45.9796 52.856 46.2022 53.0765 46.3792C53.2971 46.5562 53.5533 46.6834 53.8277 46.7519C54.102 46.8205 54.3879 46.8289 54.6658 46.7765C54.9437 46.7242 55.207 46.6123 55.4375 46.4485C55.6345 46.3008 55.8004 46.1157 55.9259 45.9038C56.0513 45.6919 56.1338 45.4574 56.1687 45.2137C56.2035 44.9699 56.19 44.7217 56.1288 44.4832C56.0677 44.2446 55.9602 44.0205 55.8125 43.8235L53 40.0735ZM48.3031 14.3954C48.6216 14.7141 49.0441 14.9075 49.4934 14.9402C49.9427 14.9729 50.3888 14.8427 50.75 14.5735L58.25 8.94851C58.447 8.80077 58.6129 8.61568 58.7384 8.40381C58.8638 8.19193 58.9463 7.95743 58.9812 7.71367C59.016 7.46992 59.0025 7.22169 58.9413 6.98317C58.8802 6.74464 58.7727 6.52049 58.625 6.32351C58.4773 6.12652 58.2922 5.96057 58.0803 5.83512C57.8684 5.70966 57.6339 5.62717 57.3902 5.59235C57.1464 5.55753 56.8982 5.57106 56.6597 5.63217C56.4211 5.69328 56.197 5.80077 56 5.94851L49.8031 10.636L48.1344 8.93913C47.7757 8.63196 47.3143 8.47145 46.8424 8.48967C46.3705 8.5079 45.9229 8.70352 45.589 9.03745C45.255 9.37138 45.0594 9.81901 45.0412 10.2909C45.0229 10.7628 45.1835 11.2242 45.4906 11.5829L48.3031 14.3954ZM12.3125 42.511L8.56251 39.6985C8.23795 39.4551 7.8432 39.3235 7.43751 39.3235C7.03181 39.3235 6.63706 39.4551 6.31251 39.6985L2.56251 42.511C2.16468 42.8094 1.90168 43.2536 1.83135 43.7458C1.76103 44.2381 1.88914 44.7382 2.18751 45.136C3.09688 46.3735 4.62501 45.886 5.56251 44.9485V50.5735C5.56251 51.0708 5.76005 51.5477 6.11168 51.8993C6.46331 52.251 6.94023 52.4485 7.43751 52.4485C7.93479 52.4485 8.4117 52.251 8.76333 51.8993C9.11496 51.5477 9.31251 51.0708 9.31251 50.5735V44.9485C10.25 45.886 11.7781 46.3735 12.6875 45.136C12.8352 44.939 12.9427 44.7149 13.0038 44.4763C13.065 44.2378 13.0785 43.9896 13.0437 43.7458C13.0088 43.5021 12.9263 43.2676 12.8009 43.0557C12.6754 42.8438 12.5095 42.6587 12.3125 42.511Z" fill="#00ADEE"/>
<path d="M3.75 20.5H13.125C13.7217 20.5 14.294 20.7371 14.716 21.159L15.7766 20.0984L14.716 21.159C15.1379 21.581 15.375 22.1533 15.375 22.75V32.125C15.375 32.7217 15.1379 33.294 14.716 33.716C14.294 34.1379 13.7217 34.375 13.125 34.375H3.75C3.15326 34.375 2.58097 34.1379 2.15901 33.716C1.73705 33.294 1.5 32.7217 1.5 32.125V22.75C1.5 22.1533 1.73705 21.581 2.15901 21.159C2.58097 20.7371 3.15326 20.5 3.75 20.5ZM36.9375 22.75V32.125C36.9375 32.7217 36.7004 33.294 36.2785 33.716C35.8565 34.1379 35.2842 34.375 34.6875 34.375H25.3125C24.7158 34.375 24.1435 34.1379 23.7215 33.716C23.2996 33.294 23.0625 32.7217 23.0625 32.125V22.75C23.0625 22.1533 23.2996 21.581 23.7215 21.159C24.1435 20.7371 24.7158 20.5 25.3125 20.5H34.6875C35.2842 20.5 35.8565 20.7371 36.2785 21.159C36.7004 21.581 36.9375 22.1533 36.9375 22.75Z" stroke="#FFC700" stroke-width="3"/>
<path d="M47.875 20.5H57.25C57.8467 20.5 58.419 20.7371 58.841 21.159L59.9016 20.0984L58.841 21.159C59.2629 21.581 59.5 22.1533 59.5 22.75V32.125C59.5 32.7217 59.2629 33.294 58.841 33.716C58.419 34.1379 57.8467 34.375 57.25 34.375H47.875C47.2783 34.375 46.706 34.1379 46.284 33.716C45.8621 33.294 45.625 32.7217 45.625 32.125V22.75C45.625 22.1533 45.8621 21.581 46.284 21.159C46.706 20.7371 47.2783 20.5 47.875 20.5Z" stroke="#FB4B00" stroke-width="3"/>
</svg>
