<svg width="53" height="57" viewBox="0 0 53 57" fill="none" xmlns="http://www.w3.org/2000/svg">
<path d="M9.60205 0L3.479 14.3921L18.9917 16.2598L17.1167 13.0078L15.5054 10.2173C24.2501 5.45476 35.0849 6.95966 42.1582 14.0332C49.3655 21.2403 50.8361 32.3643 45.7397 41.1914C40.6434 50.0185 30.2726 54.3178 20.4272 51.6797C10.5819 49.0416 3.75003 40.1343 3.75 29.9414H0C3.2625e-05 41.8135 7.99316 52.2251 19.4604 55.2978C30.9277 58.3702 43.0484 53.3478 48.9844 43.0664C54.9203 32.7854 53.2042 19.7766 44.8096 11.3818C40.6123 7.18446 35.2649 4.66153 29.6777 3.92578C24.2688 3.21386 18.6484 4.21878 13.6304 6.97266L9.60205 0ZM26.25 18.6914V29.9561H15V33.7061H30V18.6914H26.25Z" fill="#FFC700"/>
<path d="M9.60205 0L3.479 14.3921L18.9917 16.2598L17.1167 13.0078L15.5054 10.2173C24.2501 5.45476 35.0849 6.95966 42.1582 14.0332C49.3655 21.2403 50.8361 32.3643 45.7397 41.1914C40.6434 50.0185 30.2726 54.3178 20.4272 51.6797C10.5819 49.0416 3.75003 40.1343 3.75 29.9414H0C3.2625e-05 41.8135 7.99316 52.2251 19.4604 55.2978C30.9277 58.3702 43.0484 53.3478 48.9844 43.0664C54.9203 32.7854 53.2042 19.7766 44.8096 11.3818C40.6123 7.18446 35.2649 4.66153 29.6777 3.92578C24.2688 3.21386 18.6484 4.21878 13.6304 6.97266L9.60205 0Z" fill="#00ADEE"/>
</svg>
