<svg width="60" height="60" viewBox="0 0 60 60" fill="none" xmlns="http://www.w3.org/2000/svg">
<path fill-rule="evenodd" clip-rule="evenodd" d="M12.5588 18.75H9.375C7.8825 18.75 6.45187 19.3425 5.39812 20.3981C4.3425 21.4537 3.75 22.8844 3.75 24.375C3.75 29.7581 3.75 39.6169 3.75 45C3.75 48.1069 6.26813 50.625 9.375 50.625C18.4556 50.625 41.5444 50.625 50.625 50.625C53.7319 50.625 56.25 48.1069 56.25 45C56.25 39.6169 56.25 29.7581 56.25 24.375C56.25 21.2681 53.7319 18.75 50.625 18.75C44.3344 18.75 32.3344 18.75 32.3344 18.75C31.2994 18.75 30.4594 19.59 30.4594 20.625C30.4594 21.66 31.2994 22.5 32.3344 22.5C32.3344 22.5 44.3344 22.5 50.625 22.5C51.66 22.5 52.5 23.34 52.5 24.375C52.5 29.7581 52.5 39.6169 52.5 45C52.5 46.0369 51.66 46.875 50.625 46.875C41.5444 46.875 18.4556 46.875 9.375 46.875C8.34 46.875 7.5 46.0369 7.5 45C7.5 39.6169 7.5 29.7581 7.5 24.375C7.5 23.8781 7.69688 23.4019 8.04938 23.0494C8.4 22.6987 8.87813 22.5 9.375 22.5H12.5588C13.5938 22.5 14.4338 21.66 14.4338 20.625C14.4338 19.59 13.5938 18.75 12.5588 18.75Z" fill="#00ADEE"/>
<path d="M47.25 38.25H37.875C36.84 38.25 36 37.41 36 36.375C36 35.34 36.84 34.5 37.875 34.5H47.25C48.285 34.5 49.125 35.34 49.125 36.375C49.125 37.41 48.285 38.25 47.25 38.25Z" fill="#FFC700"/>
<path d="M45.375 30.75H37.875C36.84 30.75 36 29.91 36 28.875C36 27.84 36.84 27 37.875 27H45.375C46.41 27 47.25 27.84 47.25 28.875C47.25 29.91 46.41 30.75 45.375 30.75Z" fill="#FFC700"/>
<path d="M22.7279 25C27.2429 25 31.0848 28.2888 31.7823 32.7494L32.8248 39.4225C32.9935 40.5044 32.6804 41.6069 31.9679 42.4394C31.2554 43.2719 30.2148 43.75 29.1198 43.75H14.7498C13.6548 43.75 12.6142 43.2719 11.9017 42.4394C11.1892 41.6069 10.876 40.5044 11.0448 39.4206C11.3185 37.6713 11.7179 35.1175 12.0873 32.7494C12.7848 28.2888 16.6267 25 21.1417 25H22.7279Z" fill="#FB4B00"/>
<path d="M15.3723 16.5625C15.3723 12.9419 18.3123 10 21.9348 10C25.5573 10 28.4973 12.9419 28.4973 16.5625C28.4973 20.185 25.5573 23.125 21.9348 23.125C18.3123 23.125 15.3723 20.185 15.3723 16.5625Z" fill="#FB4B00"/>
</svg>
