<svg width="56" height="64" viewBox="0 0 56 64" fill="none" xmlns="http://www.w3.org/2000/svg">
<rect x="1.5" y="1.5" width="46" height="55" rx="3.5" stroke="#00ADEE" stroke-width="3"/>
<path d="M10.8004 47.9971C10.1425 47.9971 9.62305 48.528 9.62305 49.1744C9.62305 49.8323 10.154 50.3517 10.8004 50.3517H12.4278C13.0857 50.3517 13.6051 49.8208 13.6051 49.1744C13.6051 48.5165 13.0742 47.9971 12.4278 47.9971H10.8004ZM16.5138 50.3633H18.1413C18.7992 50.3633 19.3186 49.8323 19.3186 49.1859C19.3186 48.528 18.7876 48.0086 18.1413 48.0086H16.5138C15.8559 48.0086 15.3365 48.5396 15.3365 49.1859C15.325 49.8323 15.8559 50.3633 16.5138 50.3633ZM22.2273 47.9971C21.5693 47.9971 21.0499 48.528 21.0499 49.1744C21.0499 49.8323 21.5809 50.3517 22.2273 50.3517H23.8547C24.5126 50.3517 25.032 49.8208 25.032 49.1744C25.032 48.5165 24.5011 47.9971 23.8547 47.9971H22.2273Z" fill="#FFC700"/>
<circle cx="43" cy="50" r="9" fill="white"/>
<path d="M10.1889 17.9065H15.7523C16.3986 17.9065 16.9296 17.3871 16.9296 16.7292V11.1773C16.9296 10.5309 16.3986 10 15.7523 10H10.1889C9.54249 10 9.01154 10.5309 9.01154 11.1773V16.7292C9 17.3871 9.53095 17.9065 10.1889 17.9065ZM11.3662 12.3546H14.5634V15.5403H11.3662V12.3546ZM9 27.7982C9 28.4446 9.53095 28.9756 10.1773 28.9756H15.7407C16.3871 28.9756 16.918 28.4446 16.918 27.7982V22.2464C16.918 21.6 16.3871 21.0691 15.7407 21.0691H10.1773C9.53095 21.0691 9 21.6 9 22.2464V27.7982ZM11.3662 23.4237H14.5634V26.6094H11.3662V23.4237ZM16.9296 38.8789V33.327C16.9296 32.6806 16.3986 32.1497 15.7523 32.1497H10.1889C9.54249 32.1497 9.01154 32.6806 9.01154 33.327V38.8789C9.01154 39.5252 9.54249 40.0562 10.1889 40.0562H15.7523C16.3986 40.0562 16.9296 39.5252 16.9296 38.8789ZM14.5634 37.69H11.3662V34.5043H14.5634V37.69ZM34.901 12.7702H20.046C19.3881 12.7702 18.8687 13.3011 18.8687 13.9475C18.8687 14.6054 19.3996 15.1248 20.046 15.1248H34.9125C35.5704 15.1248 36.0898 14.5938 36.0898 13.9475C36.0898 13.3011 35.5589 12.7702 34.901 12.7702ZM34.901 23.8392H20.046C19.3881 23.8392 18.8687 24.3702 18.8687 25.0166C18.8687 25.6745 19.3996 26.1939 20.046 26.1939H34.9125C35.5704 26.1939 36.0898 25.6629 36.0898 25.0166C36.0898 24.3702 35.5589 23.8392 34.901 23.8392ZM36.0898 36.0972C36.0898 35.4393 35.5589 34.9199 34.9125 34.9199H20.046C19.3881 34.9199 18.8687 35.4508 18.8687 36.0972C18.8687 36.7551 19.3996 37.2745 20.046 37.2745H34.9125C35.5589 37.2745 36.0898 36.7435 36.0898 36.0972ZM47.459 39.6868C47.4359 39.6868 47.4128 39.6753 47.3782 39.6638C46.0855 39.2021 44.7004 38.9481 43.246 38.9481C42.8652 38.9481 42.4958 38.9597 42.138 38.9943C35.9513 39.5599 31.1035 44.777 31.1035 51.0906C31.1035 52.2564 31.2651 53.3991 31.5768 54.4725C31.5999 54.5533 31.6229 54.6226 31.646 54.6918C32.1539 56.3193 32.9965 57.8083 34.093 59.0664C36.3091 61.6403 39.5871 63.2562 43.2345 63.2562C49.9406 63.2562 55.4001 57.7967 55.4001 51.0906C55.4001 45.8851 52.0875 41.4182 47.459 39.6868ZM50.4023 47.6049L41.7802 56.2501C41.5493 56.4809 41.2377 56.5963 40.9376 56.5963C40.6375 56.5963 40.3605 56.504 40.1296 56.2847L36.1129 52.6142C35.6281 52.1641 35.605 51.4254 36.0436 50.9406C36.4823 50.4674 37.2325 50.4327 37.7057 50.8713L40.8914 53.7915L48.7286 45.9312C49.1903 45.4695 49.9291 45.4695 50.3907 45.9312C50.864 46.3929 50.864 47.1432 50.4023 47.6049Z" fill="#FB4B00"/>
</svg>
