<svg width="57" height="63" viewBox="0 0 57 63" fill="none" xmlns="http://www.w3.org/2000/svg">
<path d="M46.9179 7.7805C46.6646 7.7805 46.4112 7.7175 46.1895 7.5915C40.1082 4.473 34.8505 3.15 28.5475 3.15C22.2762 3.15 16.3217 4.6305 10.9056 7.5915C10.1454 8.001 9.19522 7.7175 8.75179 6.9615C8.34004 6.2055 8.6251 5.229 9.38526 4.8195C15.2765 1.638 21.7378 0 28.5475 0C35.2939 0 41.1851 1.4805 47.6464 4.788C48.4382 5.1975 48.7233 6.1425 48.3116 6.8985C48.0265 7.4655 47.4881 7.7805 46.9179 7.7805ZM1.59366 24.318C1.27693 24.318 0.9602 24.2235 0.675141 24.0345C-0.0533412 23.5305 -0.211707 22.554 0.295063 21.8295C3.4307 17.4195 7.42152 13.9545 12.1725 11.529C22.1179 6.426 34.8505 6.3945 44.8275 11.4975C49.5785 13.923 53.5693 17.3565 56.7049 21.735C57.2117 22.428 57.0533 23.436 56.3249 23.94C55.5964 24.444 54.6145 24.2865 54.1077 23.562C51.2572 19.593 47.6464 16.4745 43.3705 14.301C34.2803 9.6705 22.6563 9.6705 13.5978 14.3325C9.29024 16.5375 5.6795 19.6875 2.82892 23.6565C2.57553 24.0975 2.10043 24.318 1.59366 24.318ZM21.3894 62.3385C20.9776 62.3385 20.5659 62.181 20.2808 61.866C17.5253 59.1255 16.0366 57.3615 13.9145 53.55C11.7291 49.6755 10.5888 44.9505 10.5888 39.879C10.5888 30.5235 18.6338 22.9005 28.5158 22.9005C38.3979 22.9005 46.4428 30.5235 46.4428 39.879C46.4428 40.761 45.746 41.454 44.8592 41.454C43.9723 41.454 43.2755 40.761 43.2755 39.879C43.2755 32.256 36.6558 26.0505 28.5158 26.0505C20.3758 26.0505 13.7562 32.256 13.7562 39.879C13.7562 44.415 14.7697 48.6045 16.7018 52.0065C18.7288 55.629 20.1225 57.1725 22.5613 59.6295C23.1631 60.2595 23.1631 61.236 22.5613 61.866C22.2129 62.181 21.8011 62.3385 21.3894 62.3385ZM44.099 56.511C40.3299 56.511 37.0042 55.566 34.2803 53.7075C29.5611 50.526 26.7421 45.36 26.7421 39.879C26.7421 38.997 27.4389 38.304 28.3258 38.304C29.2126 38.304 29.9095 38.997 29.9095 39.879C29.9095 44.3205 32.1899 48.51 36.054 51.093C38.3028 52.605 40.9317 53.3295 44.099 53.3295C44.8592 53.3295 46.1261 53.235 47.393 53.0145C48.2482 52.857 49.0717 53.424 49.2301 54.306C49.3884 55.1565 48.8183 55.9755 47.9315 56.133C46.1261 56.4795 44.5424 56.511 44.099 56.511ZM37.7327 63C37.606 63 37.4477 62.9685 37.321 62.937C32.2849 61.551 28.9909 59.6925 25.5386 56.322C21.1043 51.9435 18.6655 46.116 18.6655 39.879C18.6655 34.776 23.0364 30.618 28.4208 30.618C33.8053 30.618 38.1761 34.776 38.1761 39.879C38.1761 43.2495 41.1217 45.99 44.7642 45.99C48.4066 45.99 51.3522 43.2495 51.3522 39.879C51.3522 28.0035 41.0584 18.3645 28.3891 18.3645C19.394 18.3645 11.159 23.3415 7.45319 31.059C6.21794 33.6105 5.58448 36.603 5.58448 39.879C5.58448 42.336 5.80619 46.2105 7.70658 51.2505C8.02331 52.0695 7.61156 52.983 6.78806 53.2665C5.96456 53.5815 5.04604 53.1405 4.76098 52.353C3.20899 48.2265 2.44884 44.1315 2.44884 39.879C2.44884 36.099 3.17732 32.6655 4.60261 29.673C8.81514 20.8845 18.1587 15.183 28.3891 15.183C42.8004 15.183 54.5195 26.2395 54.5195 39.8475C54.5195 44.9505 50.1486 49.1085 44.7642 49.1085C39.3797 49.1085 35.0088 44.9505 35.0088 39.8475C35.0088 36.477 32.0632 33.7365 28.4208 33.7365C24.7784 33.7365 21.8328 36.477 21.8328 39.8475C21.8328 45.234 23.9232 50.274 27.7557 54.054C30.7646 57.015 33.6469 58.653 38.1128 59.8815C38.968 60.102 39.4431 60.984 39.2214 61.803C39.063 62.5275 38.3979 63 37.7327 63Z" fill="#00ADEE"/>
</svg>
