<svg width="61" height="61" viewBox="0 0 61 61" fill="none" xmlns="http://www.w3.org/2000/svg">
<path d="M45.8462 44.9994H43.4391C43.0135 44.9994 42.6054 44.83 42.3044 44.5286C42.0035 44.2271 41.8344 43.8182 41.8344 43.3919V30.5317C41.8344 29.5994 37.9029 27.3167 30.6015 27.3167C23.3001 27.3167 19.3685 29.5994 19.3685 30.5317V43.3919C19.3685 43.8182 19.1995 44.2271 18.8985 44.5286C18.5976 44.83 18.1894 44.9994 17.7638 44.9994H13.7521C10.3258 45.0317 7.01324 43.7695 4.4745 41.4644C1.93575 39.1593 0.35727 35.9805 0.0536298 32.5616C-0.25001 29.1427 0.743489 25.7347 2.83613 23.0168C4.92877 20.299 7.96689 18.4708 11.345 17.8966C11.6776 13.2975 13.6437 8.96992 16.8871 5.69794C20.1305 2.42596 24.4366 0.426087 29.0252 0.0606892C33.6138 -0.304709 38.1812 0.988545 41.8999 3.70611C45.6186 6.42368 48.2426 10.3858 49.2963 14.8745C52.921 15.7416 56.103 17.9087 58.2412 20.9663C60.3793 24.0238 61.3254 27.7601 60.9006 31.4689C60.4759 35.1777 58.7097 38.6022 55.9359 41.0952C53.162 43.5883 49.5727 44.9771 45.8462 44.9994ZM45.0438 41.7844H45.8462C48.8612 41.7644 51.7589 40.6114 53.966 38.5536C56.1731 36.4959 57.5288 33.6832 57.7648 30.672C58.0009 27.6609 57.1001 24.6707 55.2406 22.293C53.3812 19.9154 50.6986 18.3235 47.7237 17.8323C47.3919 17.7799 47.0849 17.6245 46.8459 17.388C46.607 17.1515 46.4481 16.8458 46.3918 16.5141C45.6796 12.5719 43.5237 9.03815 40.3464 6.6052C37.1691 4.17224 33.1995 3.01544 29.2152 3.36146C25.2309 3.70748 21.5192 5.53137 18.8073 8.47578C16.0954 11.4202 14.5787 15.2729 14.5544 19.2791C14.5552 19.6892 14.3994 20.0841 14.1189 20.383C13.8385 20.6818 13.4547 20.862 13.046 20.8866C10.2796 20.9804 7.66376 22.1712 5.77385 24.1971C3.88395 26.2229 2.87481 28.9179 2.96844 31.6891C3.06207 34.4603 4.2508 37.0808 6.27312 38.974C8.29544 40.8672 10.9857 41.8782 13.7521 41.7844H16.1591V30.5317C16.1591 26.3039 23.4284 24.1016 30.6015 24.1016C37.7745 24.1016 45.0438 26.3039 45.0438 30.5317V41.7844Z" fill="#00ADEE"/>
<path d="M30.5 52.9995C27.967 53.0141 25.4413 52.7295 22.9761 52.1515C18.4811 51.0315 16 49.0636 16 46.5997V38.5999C16 38.1756 16.1697 37.7687 16.4719 37.4686C16.774 37.1686 17.1838 37 17.6111 37C18.0384 37 18.4482 37.1686 18.7503 37.4686C19.0525 37.7687 19.2222 38.1756 19.2222 38.5999C19.2222 39.0159 20.3661 40.1999 23.7494 41.0479C28.1953 42.0319 32.8047 42.0319 37.2506 41.0479C40.6339 40.1999 41.7778 39.0159 41.7778 38.5999C41.7778 38.1756 41.9475 37.7687 42.2497 37.4686C42.5518 37.1686 42.9616 37 43.3889 37C43.8162 37 44.226 37.1686 44.5281 37.4686C44.8303 37.7687 45 38.1756 45 38.5999V46.5997C45 49.0636 42.5189 51.0315 38.0239 52.1515C35.5587 52.7295 33.033 53.0141 30.5 52.9995ZM19.2222 42.7918V46.5997C19.2222 47.0157 20.3661 48.1996 23.7494 49.0476C28.1953 50.0316 32.8047 50.0316 37.2506 49.0476C40.6339 48.1996 41.7778 47.0157 41.7778 46.5997V42.7918C40.5844 43.3896 39.3245 43.846 38.0239 44.1518C33.0705 45.2637 27.9295 45.2637 22.9761 44.1518C21.6772 43.8404 20.4179 43.3842 19.2222 42.7918Z" fill="#00ADEE"/>
<path d="M30.5 36.9995C27.967 37.0144 25.4413 36.7253 22.9761 36.1382C18.4811 35.0008 16 33.0021 16 30.4997C16 26.2262 23.2983 24 30.5 24C37.7017 24 45 26.2262 45 30.4997C45 33.0021 42.5189 35.0008 38.0239 36.1382C35.5587 36.7253 33.033 37.0144 30.5 36.9995ZM30.5 27.2499C23.1694 27.2499 19.2222 29.5573 19.2222 30.4997C19.2222 30.9222 20.3661 32.1247 23.7494 32.9859C28.1953 33.9853 32.8047 33.9853 37.2506 32.9859C40.6339 32.1247 41.7778 30.9222 41.7778 30.4997C41.7778 29.5573 37.8306 27.2499 30.5 27.2499Z" fill="#FFC700"/>
<path d="M30.5 44.9995C27.967 45.0141 25.4413 44.7295 22.9761 44.1515C18.4811 43.0315 16 41.0636 16 38.5997V30.5999C16 30.1756 16.1697 29.7687 16.4719 29.4686C16.774 29.1686 17.1838 29 17.6111 29C18.0384 29 18.4482 29.1686 18.7503 29.4686C19.0525 29.7687 19.2222 30.1756 19.2222 30.5999C19.2222 31.0159 20.3661 32.1999 23.7494 33.0479C28.1953 34.0319 32.8047 34.0319 37.2506 33.0479C40.6339 32.1999 41.7778 31.0159 41.7778 30.5999C41.7778 30.1756 41.9475 29.7687 42.2497 29.4686C42.5518 29.1686 42.9616 29 43.3889 29C43.8162 29 44.226 29.1686 44.5281 29.4686C44.8303 29.7687 45 30.1756 45 30.5999V38.5997C45 41.0636 42.5189 43.0315 38.0239 44.1515C35.5587 44.7295 33.033 45.0141 30.5 44.9995ZM19.2222 34.7918V38.5997C19.2222 39.0157 20.3661 40.1996 23.7494 41.0476C28.1953 42.0316 32.8047 42.0316 37.2506 41.0476C40.6339 40.1996 41.7778 39.0157 41.7778 38.5997V34.7918C40.5844 35.3896 39.3245 35.846 38.0239 36.1518C33.0705 37.2637 27.9295 37.2637 22.9761 36.1518C21.6772 35.8404 20.4179 35.3842 19.2222 34.7918Z" fill="#FFC700"/>
<path d="M30.5 61C23.2983 61 16 58.808 16 54.6V46.6C16 46.1757 16.1697 45.7687 16.4719 45.4686C16.774 45.1686 17.1838 45 17.6111 45C18.0384 45 18.4482 45.1686 18.7503 45.4686C19.0525 45.7687 19.2222 46.1757 19.2222 46.6C19.2222 47.016 20.3661 48.2 23.7494 49.048C28.1953 50.0321 32.8047 50.0321 37.2506 49.048C40.6339 48.2 41.7778 47.016 41.7778 46.6C41.7778 46.1757 41.9475 45.7687 42.2497 45.4686C42.5518 45.1686 42.9616 45 43.3889 45C43.8162 45 44.226 45.1686 44.5281 45.4686C44.8303 45.7687 45 46.1757 45 46.6V54.6C45 58.808 37.7017 61 30.5 61ZM19.2222 50.792V54.6C19.2222 55.528 23.1694 57.8 30.5 57.8C37.8306 57.8 41.7778 55.528 41.7778 54.6V50.792C40.5844 51.3898 39.3245 51.8463 38.0239 52.152C33.0705 53.264 27.9295 53.264 22.9761 52.152C21.6772 51.8407 20.4179 51.3844 19.2222 50.792Z" fill="#FFC700"/>
</svg>
