<svg width="59" height="59" viewBox="0 0 59 59" fill="none" xmlns="http://www.w3.org/2000/svg">
<path fill-rule="evenodd" clip-rule="evenodd" d="M54.8245 26.6342L25.7996 55.6591L2.7853 32.6449L31.8103 3.61985L56.0717 2.37702L54.8245 26.6342ZM58.0967 0.345598C57.8739 0.112027 57.5482 -0.0444143 57.2267 0.0113L31.2489 1.34202C30.9631 1.35431 30.6923 1.47365 30.4903 1.67632L0.340315 31.8306C0.232505 31.937 0.146837 32.0638 0.0884138 32.2036C0.0299903 32.3434 0 32.4934 0 32.6449C0 32.7964 0.0299903 32.9464 0.0884138 33.0862C0.146837 33.2259 0.232505 33.3527 0.340315 33.4592L24.9789 58.1063C25.1965 58.3206 25.4897 58.4408 25.7952 58.4408C26.1007 58.4408 26.3941 58.3206 26.6118 58.1063L56.766 27.952C56.9683 27.7494 57.0889 27.4793 57.1046 27.1934L58.4331 1.21986C58.4425 1.05859 58.4173 0.897169 58.3592 0.746403C58.3012 0.595638 58.2118 0.459018 58.0967 0.345598Z" fill="#00ADEE"/>
<mask id="path-2-inside-1" fill="white">
<path d="M49.016 15.0072C49.0154 15.0072 49.0147 15.0072 49.0141 15.0072H49.0162C49.0161 15.0072 49.0161 15.0072 49.016 15.0072Z"/>
<path d="M49.0141 15.0072C49.0147 15.0072 49.0154 15.0072 49.016 15.0072C48.0232 15.0046 47.0533 14.7081 46.2286 14.1552C45.4039 13.6022 44.7614 12.8176 44.3819 11.9C44.0024 10.9825 43.9029 9.97319 44.0961 8.99925C44.2893 8.02532 44.7666 7.13033 45.4676 6.42714C47.3704 4.52643 50.6661 4.52214 52.5732 6.42714C53.5204 7.37214 54.0476 8.63216 54.0476 9.97573C54.0488 10.6368 53.9189 11.2916 53.6655 11.9021C53.412 12.5127 53.0401 13.067 52.5711 13.5329C51.6287 14.4796 50.3653 15.0067 49.016 15.0072C49.0161 15.0072 49.0161 15.0072 49.0162 15.0072H49.0141Z"/>
</mask>
<path d="M47.0983 8.05574V8.85574H47.4298L47.6642 8.62118L47.0983 8.05574ZM51.7376 9.97789L50.9376 9.9774V9.97789H51.7376ZM50.9426 11.9022L50.3792 11.3341L50.3745 11.3389L50.9426 11.9022ZM47.0962 11.9022L47.6642 11.3389L47.6635 11.3382L47.0962 11.9022ZM47.0962 8.05574V7.25574H46.7634L46.5288 7.49171L47.0962 8.05574ZM49.0141 15.8072C49.0141 15.8072 49.0141 15.8072 49.0141 15.8072C49.0141 15.8072 49.0141 15.8072 49.0141 15.8072C49.0141 15.8072 49.0141 15.8072 49.0141 15.8072C49.0141 15.8072 49.0141 15.8072 49.0141 15.8072C49.0141 15.8072 49.0141 15.8072 49.0141 15.8072C49.0141 15.8072 49.0141 15.8072 49.0141 15.8072C49.0141 15.8072 49.0141 15.8072 49.0141 15.8072C49.0141 15.8072 49.0141 15.8072 49.0141 15.8072C49.0141 15.8072 49.0141 15.8072 49.0141 15.8072C49.0141 15.8072 49.0141 15.8072 49.0141 15.8072C49.0141 15.8072 49.0141 15.8072 49.0141 15.8072C49.0141 15.8072 49.0141 15.8072 49.0141 15.8072C49.0141 15.8072 49.0141 15.8072 49.0141 15.8072C49.0141 15.8072 49.0141 15.8072 49.0141 15.8072C49.0141 15.8072 49.0141 15.8072 49.0141 15.8072C49.0141 15.8072 49.0141 15.8072 49.0141 15.8072C49.0141 15.8072 49.0141 15.8072 49.0141 15.8072C49.0141 15.8072 49.0141 15.8072 49.0141 15.8072C49.0141 15.8072 49.0141 15.8072 49.0141 15.8072C49.0141 15.8072 49.0141 15.8072 49.0141 15.8072C49.0141 15.8072 49.0141 15.8072 49.0141 15.8072C49.0141 15.8072 49.0141 15.8072 49.0141 15.8072C49.0141 15.8072 49.0141 15.8072 49.0142 15.8072C49.0142 15.8072 49.0142 15.8072 49.0142 15.8072C49.0142 15.8072 49.0142 15.8072 49.0142 15.8072C49.0142 15.8072 49.0142 15.8072 49.0142 15.8072C49.0142 15.8072 49.0142 15.8072 49.0142 15.8072C49.0142 15.8072 49.0142 15.8072 49.0142 15.8072C49.0142 15.8072 49.0142 15.8072 49.0142 15.8072C49.0142 15.8072 49.0142 15.8072 49.0142 15.8072C49.0142 15.8072 49.0142 15.8072 49.0142 15.8072C49.0142 15.8072 49.0142 15.8072 49.0142 15.8072C49.0142 15.8072 49.0142 15.8072 49.0142 15.8072C49.0142 15.8072 49.0142 15.8072 49.0142 15.8072C49.0142 15.8072 49.0142 15.8072 49.0142 15.8072C49.0142 15.8072 49.0142 15.8072 49.0142 15.8072C49.0142 15.8072 49.0142 15.8072 49.0142 15.8072C49.0142 15.8072 49.0142 15.8072 49.0142 15.8072C49.0142 15.8072 49.0142 15.8072 49.0142 15.8072C49.0142 15.8072 49.0142 15.8072 49.0142 15.8072C49.0142 15.8072 49.0142 15.8072 49.0142 15.8072C49.0142 15.8072 49.0142 15.8072 49.0142 15.8072C49.0142 15.8072 49.0142 15.8072 49.0142 15.8072C49.0142 15.8072 49.0142 15.8072 49.0142 15.8072C49.0142 15.8072 49.0142 15.8072 49.0142 15.8072C49.0142 15.8072 49.0142 15.8072 49.0142 15.8072C49.0142 15.8072 49.0142 15.8072 49.0142 15.8072C49.0142 15.8072 49.0142 15.8072 49.0142 15.8072C49.0142 15.8072 49.0142 15.8072 49.0142 15.8072C49.0143 15.8072 49.0143 15.8072 49.0143 15.8072C49.0143 15.8072 49.0143 15.8072 49.0143 15.8072C49.0143 15.8072 49.0143 15.8072 49.0143 15.8072C49.0143 15.8072 49.0143 15.8072 49.0143 15.8072C49.0143 15.8072 49.0143 15.8072 49.0143 15.8072C49.0143 15.8072 49.0143 15.8072 49.0143 15.8072C49.0143 15.8072 49.0143 15.8072 49.0143 15.8072C49.0143 15.8072 49.0143 15.8072 49.0143 15.8072C49.0143 15.8072 49.0143 15.8072 49.0143 15.8072C49.0143 15.8072 49.0143 15.8072 49.0143 15.8072C49.0143 15.8072 49.0143 15.8072 49.0143 15.8072C49.0143 15.8072 49.0143 15.8072 49.0143 15.8072C49.0143 15.8072 49.0143 15.8072 49.0143 15.8072C49.0143 15.8072 49.0143 15.8072 49.0143 15.8072C49.0143 15.8072 49.0143 15.8072 49.0143 15.8072C49.0143 15.8072 49.0143 15.8072 49.0143 15.8072C49.0143 15.8072 49.0143 15.8072 49.0143 15.8072C49.0143 15.8072 49.0143 15.8072 49.0143 15.8072C49.0143 15.8072 49.0143 15.8072 49.0143 15.8072C49.0143 15.8072 49.0143 15.8072 49.0143 15.8072C49.0143 15.8072 49.0143 15.8072 49.0143 15.8072C49.0143 15.8072 49.0143 15.8072 49.0143 15.8072C49.0143 15.8072 49.0143 15.8072 49.0143 15.8072C49.0143 15.8072 49.0143 15.8072 49.0143 15.8072C49.0143 15.8072 49.0143 15.8072 49.0143 15.8072C49.0143 15.8072 49.0143 15.8072 49.0143 15.8072C49.0144 15.8072 49.0144 15.8072 49.0144 15.8072C49.0144 15.8072 49.0144 15.8072 49.0144 15.8072C49.0144 15.8072 49.0144 15.8072 49.0144 15.8072C49.0144 15.8072 49.0144 15.8072 49.0144 15.8072C49.0144 15.8072 49.0144 15.8072 49.0144 15.8072C49.0144 15.8072 49.0144 15.8072 49.0144 15.8072C49.0144 15.8072 49.0144 15.8072 49.0144 15.8072C49.0144 15.8072 49.0144 15.8072 49.0144 15.8072C49.0144 15.8072 49.0144 15.8072 49.0144 15.8072C49.0144 15.8072 49.0144 15.8072 49.0144 15.8072C49.0144 15.8072 49.0144 15.8072 49.0144 15.8072C49.0144 15.8072 49.0144 15.8072 49.0144 15.8072C49.0144 15.8072 49.0144 15.8072 49.0144 15.8072C49.0144 15.8072 49.0144 15.8072 49.0144 15.8072C49.0144 15.8072 49.0144 15.8072 49.0144 15.8072C49.0144 15.8072 49.0144 15.8072 49.0144 15.8072C49.0144 15.8072 49.0144 15.8072 49.0144 15.8072C49.0144 15.8072 49.0144 15.8072 49.0144 15.8072C49.0144 15.8072 49.0144 15.8072 49.0144 15.8072C49.0144 15.8072 49.0144 15.8072 49.0144 15.8072C49.0144 15.8072 49.0144 15.8072 49.0144 15.8072C49.0144 15.8072 49.0144 15.8072 49.0144 15.8072C49.0144 15.8072 49.0144 15.8072 49.0144 15.8072C49.0144 15.8072 49.0144 15.8072 49.0144 15.8072C49.0144 15.8072 49.0144 15.8072 49.0144 15.8072C49.0144 15.8072 49.0144 15.8072 49.0144 15.8072C49.0144 15.8072 49.0145 15.8072 49.0145 15.8072C49.0145 15.8072 49.0145 15.8072 49.0145 15.8072C49.0145 15.8072 49.0145 15.8072 49.0145 15.8072C49.0145 15.8072 49.0145 15.8072 49.0145 15.8072C49.0145 15.8072 49.0145 15.8072 49.0145 15.8072C49.0145 15.8072 49.0145 15.8072 49.0145 15.8072C49.0145 15.8072 49.0145 15.8072 49.0145 15.8072C49.0145 15.8072 49.0145 15.8072 49.0145 15.8072C49.0145 15.8072 49.0145 15.8072 49.0145 15.8072C49.0145 15.8072 49.0145 15.8072 49.0145 15.8072C49.0145 15.8072 49.0145 15.8072 49.0145 15.8072C49.0145 15.8072 49.0145 15.8072 49.0145 15.8072C49.0145 15.8072 49.0145 15.8072 49.0145 15.8072C49.0145 15.8072 49.0145 15.8072 49.0145 15.8072C49.0145 15.8072 49.0145 15.8072 49.0145 15.8072C49.0145 15.8072 49.0145 15.8072 49.0145 15.8072C49.0145 15.8072 49.0145 15.8072 49.0145 15.8072C49.0145 15.8072 49.0145 15.8072 49.0145 15.8072C49.0145 15.8072 49.0145 15.8072 49.0145 15.8072C49.0145 15.8072 49.0145 15.8072 49.0145 15.8072C49.0145 15.8072 49.0145 15.8072 49.0145 15.8072C49.0145 15.8072 49.0145 15.8072 49.0145 15.8072C49.0145 15.8072 49.0145 15.8072 49.0145 15.8072C49.0145 15.8072 49.0145 15.8072 49.0145 15.8072C49.0145 15.8072 49.0145 15.8072 49.0145 15.8072C49.0145 15.8072 49.0145 15.8072 49.0145 15.8072C49.0145 15.8072 49.0146 15.8072 49.0146 15.8072C49.0146 15.8072 49.0146 15.8072 49.0146 15.8072C49.0146 15.8072 49.0146 15.8072 49.0146 15.8072C49.0146 15.8072 49.0146 15.8072 49.0146 15.8072C49.0146 15.8072 49.0146 15.8072 49.0146 15.8072C49.0146 15.8072 49.0146 15.8072 49.0146 15.8072C49.0146 15.8072 49.0146 15.8072 49.0146 15.8072C49.0146 15.8072 49.0146 15.8072 49.0146 15.8072C49.0146 15.8072 49.0146 15.8072 49.0146 15.8072C49.0146 15.8072 49.0146 15.8072 49.0146 15.8072C49.0146 15.8072 49.0146 15.8072 49.0146 15.8072C49.0146 15.8072 49.0146 15.8072 49.0146 15.8072C49.0146 15.8072 49.0146 15.8072 49.0146 15.8072C49.0146 15.8072 49.0146 15.8072 49.0146 15.8072C49.0146 15.8072 49.0146 15.8072 49.0146 15.8072C49.0146 15.8072 49.0146 15.8072 49.0146 15.8072C49.0146 15.8072 49.0146 15.8072 49.0146 15.8072C49.0146 15.8072 49.0146 15.8072 49.0146 15.8072C49.0146 15.8072 49.0146 15.8072 49.0146 15.8072C49.0146 15.8072 49.0146 15.8072 49.0146 15.8072C49.0146 15.8072 49.0146 15.8072 49.0146 15.8072C49.0146 15.8072 49.0146 15.8072 49.0146 15.8072C49.0146 15.8072 49.0146 15.8072 49.0146 15.8072C49.0146 15.8072 49.0146 15.8072 49.0146 15.8072C49.0146 15.8072 49.0146 15.8072 49.0146 15.8072C49.0146 15.8072 49.0146 15.8072 49.0146 15.8072C49.0146 15.8072 49.0146 15.8072 49.0147 15.8072C49.0147 15.8072 49.0147 15.8072 49.0147 15.8072C49.0147 15.8072 49.0147 15.8072 49.0147 15.8072C49.0147 15.8072 49.0147 15.8072 49.0147 15.8072C49.0147 15.8072 49.0147 15.8072 49.0147 15.8072C49.0147 15.8072 49.0147 15.8072 49.0147 15.8072C49.0147 15.8072 49.0147 15.8072 49.0147 15.8072C49.0147 15.8072 49.0147 15.8072 49.0147 15.8072C49.0147 15.8072 49.0147 15.8072 49.0147 15.8072C49.0147 15.8072 49.0147 15.8072 49.0147 15.8072C49.0147 15.8072 49.0147 15.8072 49.0147 15.8072C49.0147 15.8072 49.0147 15.8072 49.0147 15.8072C49.0147 15.8072 49.0147 15.8072 49.0147 15.8072C49.0147 15.8072 49.0147 15.8072 49.0147 15.8072C49.0147 15.8072 49.0147 15.8072 49.0147 15.8072C49.0147 15.8072 49.0147 15.8072 49.0147 15.8072C49.0147 15.8072 49.0147 15.8072 49.0147 15.8072C49.0147 15.8072 49.0147 15.8072 49.0147 15.8072C49.0147 15.8072 49.0147 15.8072 49.0147 15.8072C49.0147 15.8072 49.0147 15.8072 49.0147 15.8072C49.0147 15.8072 49.0147 15.8072 49.0147 15.8072C49.0147 15.8072 49.0147 15.8072 49.0147 15.8072C49.0147 15.8072 49.0147 15.8072 49.0147 15.8072C49.0147 15.8072 49.0147 15.8072 49.0147 15.8072C49.0147 15.8072 49.0147 15.8072 49.0147 15.8072C49.0147 15.8072 49.0147 15.8072 49.0147 15.8072C49.0147 15.8072 49.0147 15.8072 49.0148 15.8072C49.0148 15.8072 49.0148 15.8072 49.0148 15.8072C49.0148 15.8072 49.0148 15.8072 49.0148 15.8072C49.0148 15.8072 49.0148 15.8072 49.0148 15.8072C49.0148 15.8072 49.0148 15.8072 49.0148 15.8072C49.0148 15.8072 49.0148 15.8072 49.0148 15.8072C49.0148 15.8072 49.0148 15.8072 49.0148 15.8072C49.0148 15.8072 49.0148 15.8072 49.0148 15.8072C49.0148 15.8072 49.0148 15.8072 49.0148 15.8072C49.0148 15.8072 49.0148 15.8072 49.0148 15.8072C49.0148 15.8072 49.0148 15.8072 49.0148 15.8072C49.0148 15.8072 49.0148 15.8072 49.0148 15.8072C49.0148 15.8072 49.0148 15.8072 49.0148 15.8072C49.0148 15.8072 49.0148 15.8072 49.0148 15.8072C49.0148 15.8072 49.0148 15.8072 49.0148 15.8072C49.0148 15.8072 49.0148 15.8072 49.0148 15.8072C49.0148 15.8072 49.0148 15.8072 49.0148 15.8072C49.0148 15.8072 49.0148 15.8072 49.0148 15.8072C49.0148 15.8072 49.0148 15.8072 49.0148 15.8072C49.0148 15.8072 49.0148 15.8072 49.0148 15.8072C49.0148 15.8072 49.0148 15.8072 49.0148 15.8072C49.0148 15.8072 49.0148 15.8072 49.0148 15.8072C49.0148 15.8072 49.0148 15.8072 49.0148 15.8072C49.0148 15.8072 49.0148 15.8072 49.0148 15.8072C49.0148 15.8072 49.0148 15.8072 49.0148 15.8072C49.0148 15.8072 49.0148 15.8072 49.0148 15.8072C49.0148 15.8072 49.0148 15.8072 49.0148 15.8072C49.0149 15.8072 49.0149 15.8072 49.0149 15.8072C49.0149 15.8072 49.0149 15.8072 49.0149 15.8072C49.0149 15.8072 49.0149 15.8072 49.0149 15.8072C49.0149 15.8072 49.0149 15.8072 49.0149 15.8072C49.0149 15.8072 49.0149 15.8072 49.0149 15.8072C49.0149 15.8072 49.0149 15.8072 49.0149 15.8072C49.0149 15.8072 49.0149 15.8072 49.0149 15.8072C49.0149 15.8072 49.0149 15.8072 49.0149 15.8072C49.0149 15.8072 49.0149 15.8072 49.0149 15.8072C49.0149 15.8072 49.0149 15.8072 49.0149 15.8072C49.0149 15.8072 49.0149 15.8072 49.0149 15.8072C49.0149 15.8072 49.0149 15.8072 49.0149 15.8072C49.0149 15.8072 49.0149 15.8072 49.0149 15.8072C49.0149 15.8072 49.0149 15.8072 49.0149 15.8072C49.0149 15.8072 49.0149 15.8072 49.0149 15.8072C49.0149 15.8072 49.0149 15.8072 49.0149 15.8072C49.0149 15.8072 49.0149 15.8072 49.0149 15.8072C49.0149 15.8072 49.0149 15.8072 49.0149 15.8072C49.0149 15.8072 49.0149 15.8072 49.0149 15.8072C49.0149 15.8072 49.0149 15.8072 49.0149 15.8072C49.0149 15.8072 49.0149 15.8072 49.0149 15.8072C49.0149 15.8072 49.0149 15.8072 49.0149 15.8072C49.0149 15.8072 49.0149 15.8072 49.0149 15.8072C49.0149 15.8072 49.0149 15.8072 49.0149 15.8072C49.0149 15.8072 49.0149 15.8072 49.0149 15.8072C49.0149 15.8072 49.0149 15.8072 49.0149 15.8072C49.0149 15.8072 49.015 15.8072 49.015 15.8072C49.015 15.8072 49.015 15.8072 49.015 15.8072C49.015 15.8072 49.015 15.8072 49.015 15.8072C49.015 15.8072 49.015 15.8072 49.015 15.8072C49.015 15.8072 49.015 15.8072 49.015 15.8072C49.015 15.8072 49.015 15.8072 49.015 15.8072C49.015 15.8072 49.015 15.8072 49.015 15.8072C49.015 15.8072 49.015 15.8072 49.015 15.8072C49.015 15.8072 49.015 15.8072 49.015 15.8072C49.015 15.8072 49.015 15.8072 49.015 15.8072C49.015 15.8072 49.015 15.8072 49.015 15.8072C49.015 15.8072 49.015 15.8072 49.015 15.8072C49.015 15.8072 49.015 15.8072 49.015 15.8072C49.015 15.8072 49.015 15.8072 49.015 15.8072C49.015 15.8072 49.015 15.8072 49.015 15.8072C49.015 15.8072 49.015 15.8072 49.015 15.8072C49.015 15.8072 49.015 15.8072 49.015 15.8072C49.015 15.8072 49.015 15.8072 49.015 15.8072C49.015 15.8072 49.015 15.8072 49.015 15.8072C49.015 15.8072 49.015 15.8072 49.015 15.8072C49.015 15.8072 49.015 15.8072 49.015 15.8072C49.015 15.8072 49.015 15.8072 49.015 15.8072C49.015 15.8072 49.015 15.8072 49.015 15.8072C49.015 15.8072 49.015 15.8072 49.015 15.8072C49.015 15.8072 49.015 15.8072 49.015 15.8072C49.015 15.8072 49.015 15.8072 49.015 15.8072C49.015 15.8072 49.0151 15.8072 49.0151 15.8072C49.0151 15.8072 49.0151 15.8072 49.0151 15.8072C49.0151 15.8072 49.0151 15.8072 49.0151 15.8072C49.0151 15.8072 49.0151 15.8072 49.0151 15.8072C49.0151 15.8072 49.0151 15.8072 49.0151 15.8072C49.0151 15.8072 49.0151 15.8072 49.0151 15.8072C49.0151 15.8072 49.0151 15.8072 49.0151 15.8072C49.0151 15.8072 49.0151 15.8072 49.0151 15.8072C49.0151 15.8072 49.0151 15.8072 49.0151 15.8072C49.0151 15.8072 49.0151 15.8072 49.0151 15.8072C49.0151 15.8072 49.0151 15.8072 49.0151 15.8072C49.0151 15.8072 49.0151 15.8072 49.0151 15.8072C49.0151 15.8072 49.0151 15.8072 49.0151 15.8072C49.0151 15.8072 49.0151 15.8072 49.0151 15.8072C49.0151 15.8072 49.0151 15.8072 49.0151 15.8072C49.0151 15.8072 49.0151 15.8072 49.0151 15.8072C49.0151 15.8072 49.0151 15.8072 49.0151 15.8072C49.0151 15.8072 49.0151 15.8072 49.0151 15.8072C49.0151 15.8072 49.0151 15.8072 49.0151 15.8072C49.0151 15.8072 49.0151 15.8072 49.0151 15.8072C49.0151 15.8072 49.0151 15.8072 49.0151 15.8072C49.0151 15.8072 49.0151 15.8072 49.0151 15.8072C49.0151 15.8072 49.0151 15.8072 49.0151 15.8072C49.0151 15.8072 49.0151 15.8072 49.0151 15.8072C49.0151 15.8072 49.0151 15.8072 49.0151 15.8072C49.0151 15.8072 49.0151 15.8072 49.0151 15.8072C49.0151 15.8072 49.0151 15.8072 49.0152 15.8072C49.0152 15.8072 49.0152 15.8072 49.0152 15.8072C49.0152 15.8072 49.0152 15.8072 49.0152 15.8072C49.0152 15.8072 49.0152 15.8072 49.0152 15.8072C49.0152 15.8072 49.0152 15.8072 49.0152 15.8072C49.0152 15.8072 49.0152 15.8072 49.0152 15.8072C49.0152 15.8072 49.0152 15.8072 49.0152 15.8072C49.0152 15.8072 49.0152 15.8072 49.0152 15.8072C49.0152 15.8072 49.0152 15.8072 49.0152 15.8072C49.0152 15.8072 49.0152 15.8072 49.0152 15.8072C49.0152 15.8072 49.0152 15.8072 49.0152 15.8072C49.0152 15.8072 49.0152 15.8072 49.0152 15.8072C49.0152 15.8072 49.0152 15.8072 49.0152 15.8072C49.0152 15.8072 49.0152 15.8072 49.0152 15.8072C49.0152 15.8072 49.0152 15.8072 49.0152 15.8072C49.0152 15.8072 49.0152 15.8072 49.0152 15.8072C49.0152 15.8072 49.0152 15.8072 49.0152 15.8072C49.0152 15.8072 49.0152 15.8072 49.0152 15.8072C49.0152 15.8072 49.0152 15.8072 49.0152 15.8072C49.0152 15.8072 49.0152 15.8072 49.0152 15.8072C49.0152 15.8072 49.0152 15.8072 49.0152 15.8072C49.0152 15.8072 49.0152 15.8072 49.0152 15.8072C49.0152 15.8072 49.0152 15.8072 49.0152 15.8072C49.0152 15.8072 49.0152 15.8072 49.0152 15.8072C49.0152 15.8072 49.0152 15.8072 49.0152 15.8072C49.0152 15.8072 49.0152 15.8072 49.0152 15.8072C49.0152 15.8072 49.0152 15.8072 49.0153 15.8072C49.0153 15.8072 49.0153 15.8072 49.0153 15.8072C49.0153 15.8072 49.0153 15.8072 49.0153 15.8072C49.0153 15.8072 49.0153 15.8072 49.0153 15.8072C49.0153 15.8072 49.0153 15.8072 49.0153 15.8072C49.0153 15.8072 49.0153 15.8072 49.0153 15.8072C49.0153 15.8072 49.0153 15.8072 49.0153 15.8072C49.0153 15.8072 49.0153 15.8072 49.0153 15.8072C49.0153 15.8072 49.0153 15.8072 49.0153 15.8072C49.0153 15.8072 49.0153 15.8072 49.0153 15.8072C49.0153 15.8072 49.0153 15.8072 49.0153 15.8072C49.0153 15.8072 49.0153 15.8072 49.0153 15.8072C49.0153 15.8072 49.0153 15.8072 49.0153 15.8072C49.0153 15.8072 49.0153 15.8072 49.0153 15.8072C49.0153 15.8072 49.0153 15.8072 49.0153 15.8072C49.0153 15.8072 49.0153 15.8072 49.0153 15.8072C49.0153 15.8072 49.0153 15.8072 49.0153 15.8072C49.0153 15.8072 49.0153 15.8072 49.0153 15.8072C49.0153 15.8072 49.0153 15.8072 49.0153 15.8072C49.0153 15.8072 49.0153 15.8072 49.0153 15.8072C49.0153 15.8072 49.0153 15.8072 49.0153 15.8072C49.0153 15.8072 49.0153 15.8072 49.0153 15.8072C49.0153 15.8072 49.0153 15.8072 49.0153 15.8072C49.0153 15.8072 49.0153 15.8072 49.0153 15.8072C49.0153 15.8072 49.0153 15.8072 49.0153 15.8072C49.0153 15.8072 49.0153 15.8072 49.0153 15.8072C49.0153 15.8072 49.0153 15.8072 49.0153 15.8072C49.0154 15.8072 49.0154 15.8072 49.0154 15.8072C49.0154 15.8072 49.0154 15.8072 49.0154 15.8072C49.0154 15.8072 49.0154 15.8072 49.0154 15.8072C49.0154 15.8072 49.0154 15.8072 49.0154 15.8072C49.0154 15.8072 49.0154 15.8072 49.0154 15.8072C49.0154 15.8072 49.0154 15.8072 49.0154 15.8072C49.0154 15.8072 49.0154 15.8072 49.0154 15.8072C49.0154 15.8072 49.0154 15.8072 49.0154 15.8072C49.0154 15.8072 49.0154 15.8072 49.0154 15.8072C49.0154 15.8072 49.0154 15.8072 49.0154 15.8072C49.0154 15.8072 49.0154 15.8072 49.0154 15.8072C49.0154 15.8072 49.0154 15.8072 49.0154 15.8072C49.0154 15.8072 49.0154 15.8072 49.0154 15.8072C49.0154 15.8072 49.0154 15.8072 49.0154 15.8072C49.0154 15.8072 49.0154 15.8072 49.0154 15.8072C49.0154 15.8072 49.0154 15.8072 49.0154 15.8072C49.0154 15.8072 49.0154 15.8072 49.0154 15.8072C49.0154 15.8072 49.0154 15.8072 49.0154 15.8072C49.0154 15.8072 49.0154 15.8072 49.0154 15.8072C49.0154 15.8072 49.0154 15.8072 49.0154 15.8072C49.0154 15.8072 49.0154 15.8072 49.0154 15.8072C49.0154 15.8072 49.0154 15.8072 49.0154 15.8072C49.0154 15.8072 49.0154 15.8072 49.0154 15.8072C49.0154 15.8072 49.0154 15.8072 49.0154 15.8072C49.0154 15.8072 49.0154 15.8072 49.0154 15.8072C49.0154 15.8072 49.0154 15.8072 49.0154 15.8072C49.0155 15.8072 49.0155 15.8072 49.0155 15.8072C49.0155 15.8072 49.0155 15.8072 49.0155 15.8072C49.0155 15.8072 49.0155 15.8072 49.0155 15.8072C49.0155 15.8072 49.0155 15.8072 49.0155 15.8072C49.0155 15.8072 49.0155 15.8072 49.0155 15.8072C49.0155 15.8072 49.0155 15.8072 49.0155 15.8072C49.0155 15.8072 49.0155 15.8072 49.0155 15.8072C49.0155 15.8072 49.0155 15.8072 49.0155 15.8072C49.0155 15.8072 49.0155 15.8072 49.0155 15.8072C49.0155 15.8072 49.0155 15.8072 49.0155 15.8072C49.0155 15.8072 49.0155 15.8072 49.0155 15.8072C49.0155 15.8072 49.0155 15.8072 49.0155 15.8072C49.0155 15.8072 49.0155 15.8072 49.0155 15.8072C49.0155 15.8072 49.0155 15.8072 49.0155 15.8072C49.0155 15.8072 49.0155 15.8072 49.0155 15.8072C49.0155 15.8072 49.0155 15.8072 49.0155 15.8072C49.0155 15.8072 49.0155 15.8072 49.0155 15.8072C49.0155 15.8072 49.0155 15.8072 49.0155 15.8072C49.0155 15.8072 49.0155 15.8072 49.0155 15.8072C49.0155 15.8072 49.0155 15.8072 49.0155 15.8072C49.0155 15.8072 49.0155 15.8072 49.0155 15.8072C49.0155 15.8072 49.0155 15.8072 49.0155 15.8072C49.0155 15.8072 49.0155 15.8072 49.0155 15.8072C49.0155 15.8072 49.0155 15.8072 49.0155 15.8072C49.0155 15.8072 49.0155 15.8072 49.0155 15.8072C49.0155 15.8072 49.0155 15.8072 49.0155 15.8072C49.0155 15.8072 49.0156 15.8072 49.0156 15.8072C49.0156 15.8072 49.0156 15.8072 49.0156 15.8072C49.0156 15.8072 49.0156 15.8072 49.0156 15.8072C49.0156 15.8072 49.0156 15.8072 49.0156 15.8072C49.0156 15.8072 49.0156 15.8072 49.0156 15.8072C49.0156 15.8072 49.0156 15.8072 49.0156 15.8072C49.0156 15.8072 49.0156 15.8072 49.0156 15.8072C49.0156 15.8072 49.0156 15.8072 49.0156 15.8072C49.0156 15.8072 49.0156 15.8072 49.0156 15.8072C49.0156 15.8072 49.0156 15.8072 49.0156 15.8072C49.0156 15.8072 49.0156 15.8072 49.0156 15.8072C49.0156 15.8072 49.0156 15.8072 49.0156 15.8072C49.0156 15.8072 49.0156 15.8072 49.0156 15.8072C49.0156 15.8072 49.0156 15.8072 49.0156 15.8072C49.0156 15.8072 49.0156 15.8072 49.0156 15.8072C49.0156 15.8072 49.0156 15.8072 49.0156 15.8072C49.0156 15.8072 49.0156 15.8072 49.0156 15.8072C49.0156 15.8072 49.0156 15.8072 49.0156 15.8072C49.0156 15.8072 49.0156 15.8072 49.0156 15.8072C49.0156 15.8072 49.0156 15.8072 49.0156 15.8072C49.0156 15.8072 49.0156 15.8072 49.0156 15.8072C49.0156 15.8072 49.0156 15.8072 49.0156 15.8072C49.0156 15.8072 49.0156 15.8072 49.0156 15.8072C49.0156 15.8072 49.0156 15.8072 49.0156 15.8072C49.0156 15.8072 49.0156 15.8072 49.0156 15.8072C49.0156 15.8072 49.0156 15.8072 49.0156 15.8072C49.0156 15.8072 49.0156 15.8072 49.0157 15.8072C49.0157 15.8072 49.0157 15.8072 49.0157 15.8072C49.0157 15.8072 49.0157 15.8072 49.0157 15.8072C49.0157 15.8072 49.0157 15.8072 49.0157 15.8072C49.0157 15.8072 49.0157 15.8072 49.0157 15.8072C49.0157 15.8072 49.0157 15.8072 49.0157 15.8072C49.0157 15.8072 49.0157 15.8072 49.0157 15.8072C49.0157 15.8072 49.0157 15.8072 49.0157 15.8072C49.0157 15.8072 49.0157 15.8072 49.0157 15.8072C49.0157 15.8072 49.0157 15.8072 49.0157 15.8072C49.0157 15.8072 49.0157 15.8072 49.0157 15.8072C49.0157 15.8072 49.0157 15.8072 49.0157 15.8072C49.0157 15.8072 49.0157 15.8072 49.0157 15.8072C49.0157 15.8072 49.0157 15.8072 49.0157 15.8072C49.0157 15.8072 49.0157 15.8072 49.0157 15.8072C49.0157 15.8072 49.0157 15.8072 49.0157 15.8072C49.0157 15.8072 49.0157 15.8072 49.0157 15.8072C49.0157 15.8072 49.0157 15.8072 49.0157 15.8072C49.0157 15.8072 49.0157 15.8072 49.0157 15.8072C49.0157 15.8072 49.0157 15.8072 49.0157 15.8072C49.0157 15.8072 49.0157 15.8072 49.0157 15.8072C49.0157 15.8072 49.0157 15.8072 49.0157 15.8072C49.0157 15.8072 49.0157 15.8072 49.0157 15.8072C49.0157 15.8072 49.0157 15.8072 49.0157 15.8072C49.0157 15.8072 49.0157 15.8072 49.0157 15.8072C49.0157 15.8072 49.0157 15.8072 49.0157 15.8072C49.0157 15.8072 49.0157 15.8072 49.0158 15.8072C49.0158 15.8072 49.0158 15.8072 49.0158 15.8072C49.0158 15.8072 49.0158 15.8072 49.0158 15.8072C49.0158 15.8072 49.0158 15.8072 49.0158 15.8072C49.0158 15.8072 49.0158 15.8072 49.0158 15.8072C49.0158 15.8072 49.0158 15.8072 49.0158 15.8072C49.0158 15.8072 49.0158 15.8072 49.0158 15.8072C49.0158 15.8072 49.0158 15.8072 49.0158 15.8072C49.0158 15.8072 49.0158 15.8072 49.0158 15.8072C49.0158 15.8072 49.0158 15.8072 49.0158 15.8072C49.0158 15.8072 49.0158 15.8072 49.0158 15.8072C49.0158 15.8072 49.0158 15.8072 49.0158 15.8072C49.0158 15.8072 49.0158 15.8072 49.0158 15.8072C49.0158 15.8072 49.0158 15.8072 49.0158 15.8072C49.0158 15.8072 49.0158 15.8072 49.0158 15.8072C49.0158 15.8072 49.0158 15.8072 49.0158 15.8072C49.0158 15.8072 49.0158 15.8072 49.0158 15.8072C49.0158 15.8072 49.0158 15.8072 49.0158 15.8072C49.0158 15.8072 49.0158 15.8072 49.0158 15.8072C49.0158 15.8072 49.0158 15.8072 49.0158 15.8072C49.0158 15.8072 49.0158 15.8072 49.0158 15.8072C49.0158 15.8072 49.0158 15.8072 49.0158 15.8072C49.0158 15.8072 49.0158 15.8072 49.0158 15.8072C49.0158 15.8072 49.0158 15.8072 49.0158 15.8072C49.0158 15.8072 49.0158 15.8072 49.0158 15.8072C49.0158 15.8072 49.0158 15.8072 49.0158 15.8072C49.0158 15.8072 49.0158 15.8072 49.0158 15.8072C49.0159 15.8072 49.0159 15.8072 49.0159 15.8072C49.0159 15.8072 49.0159 15.8072 49.0159 15.8072C49.0159 15.8072 49.0159 15.8072 49.0159 15.8072C49.0159 15.8072 49.0159 15.8072 49.0159 15.8072C49.0159 15.8072 49.0159 15.8072 49.0159 15.8072C49.0159 15.8072 49.0159 15.8072 49.0159 15.8072C49.0159 15.8072 49.0159 15.8072 49.0159 15.8072C49.0159 15.8072 49.0159 15.8072 49.0159 15.8072C49.0159 15.8072 49.0159 15.8072 49.0159 15.8072C49.0159 15.8072 49.0159 15.8072 49.0159 15.8072C49.0159 15.8072 49.0159 15.8072 49.0159 15.8072C49.0159 15.8072 49.0159 15.8072 49.0159 15.8072C49.0159 15.8072 49.0159 15.8072 49.0159 15.8072C49.0159 15.8072 49.0159 15.8072 49.0159 15.8072C49.0159 15.8072 49.0159 15.8072 49.0159 15.8072C49.0159 15.8072 49.0159 15.8072 49.0159 15.8072C49.0159 15.8072 49.0159 15.8072 49.0159 15.8072C49.0159 15.8072 49.0159 15.8072 49.0159 15.8072C49.0159 15.8072 49.0159 15.8072 49.0159 15.8072C49.0159 15.8072 49.0159 15.8072 49.0159 15.8072C49.0159 15.8072 49.0159 15.8072 49.0159 15.8072C49.0159 15.8072 49.0159 15.8072 49.0159 15.8072C49.0159 15.8072 49.0159 15.8072 49.0159 15.8072C49.0159 15.8072 49.0159 15.8072 49.0159 15.8072C49.0159 15.8072 49.0159 15.8072 49.0159 15.8072C49.0159 15.8072 49.0159 15.8072 49.0159 15.8072C49.016 15.8072 49.016 15.8072 49.016 15.8072C49.016 15.8072 49.016 15.8072 49.016 15.8072C49.016 15.8072 49.016 15.8072 49.016 15.8072C49.016 15.8072 49.016 15.8072 49.016 15.8072C49.016 15.8072 49.016 15.8072 49.016 15.8072C49.016 15.8072 49.016 15.8072 49.016 15.8072C49.016 15.8072 49.016 15.8072 49.016 15.8072C49.016 15.8072 49.016 15.8072 49.016 15.8072C49.016 15.8072 49.016 15.8072 49.016 15.8072C49.016 15.8072 49.016 15.8072 49.016 15.8072C49.016 15.8072 49.016 15.8072 49.016 15.8072C49.016 15.8072 49.016 15.8072 49.016 15.8072C49.016 15.8072 49.016 15.8072 49.016 15.8072C49.016 15.8072 49.016 15.8072 49.016 15.8072C49.016 15.8072 49.016 15.8072 49.016 15.8072C49.016 15.8072 49.016 15.8072 49.016 15.8072C49.016 15.8072 49.016 15.8072 49.016 15.8072C49.016 15.8072 49.016 15.8072 49.016 15.8072V14.2072C49.016 14.2072 49.016 14.2072 49.016 14.2072C49.016 14.2072 49.016 14.2072 49.016 14.2072C49.016 14.2072 49.016 14.2072 49.016 14.2072C49.016 14.2072 49.016 14.2072 49.016 14.2072C49.016 14.2072 49.016 14.2072 49.016 14.2072C49.016 14.2072 49.016 14.2072 49.016 14.2072C49.016 14.2072 49.016 14.2072 49.016 14.2072C49.016 14.2072 49.016 14.2072 49.016 14.2072C49.016 14.2072 49.016 14.2072 49.016 14.2072C49.016 14.2072 49.016 14.2072 49.016 14.2072C49.016 14.2072 49.016 14.2072 49.016 14.2072C49.016 14.2072 49.016 14.2072 49.016 14.2072C49.016 14.2072 49.016 14.2072 49.016 14.2072C49.016 14.2072 49.016 14.2072 49.016 14.2072C49.016 14.2072 49.016 14.2072 49.016 14.2072C49.016 14.2072 49.016 14.2072 49.016 14.2072C49.016 14.2072 49.016 14.2072 49.016 14.2072C49.016 14.2072 49.016 14.2072 49.0159 14.2072C49.0159 14.2072 49.0159 14.2072 49.0159 14.2072C49.0159 14.2072 49.0159 14.2072 49.0159 14.2072C49.0159 14.2072 49.0159 14.2072 49.0159 14.2072C49.0159 14.2072 49.0159 14.2072 49.0159 14.2072C49.0159 14.2072 49.0159 14.2072 49.0159 14.2072C49.0159 14.2072 49.0159 14.2072 49.0159 14.2072C49.0159 14.2072 49.0159 14.2072 49.0159 14.2072C49.0159 14.2072 49.0159 14.2072 49.0159 14.2072C49.0159 14.2072 49.0159 14.2072 49.0159 14.2072C49.0159 14.2072 49.0159 14.2072 49.0159 14.2072C49.0159 14.2072 49.0159 14.2072 49.0159 14.2072C49.0159 14.2072 49.0159 14.2072 49.0159 14.2072C49.0159 14.2072 49.0159 14.2072 49.0159 14.2072C49.0159 14.2072 49.0159 14.2072 49.0159 14.2072C49.0159 14.2072 49.0159 14.2072 49.0159 14.2072C49.0159 14.2072 49.0159 14.2072 49.0159 14.2072C49.0159 14.2072 49.0159 14.2072 49.0159 14.2072C49.0159 14.2072 49.0159 14.2072 49.0159 14.2072C49.0159 14.2072 49.0159 14.2072 49.0159 14.2072C49.0159 14.2072 49.0159 14.2072 49.0159 14.2072C49.0159 14.2072 49.0159 14.2072 49.0159 14.2072C49.0159 14.2072 49.0159 14.2072 49.0159 14.2072C49.0159 14.2072 49.0159 14.2072 49.0159 14.2072C49.0159 14.2072 49.0159 14.2072 49.0159 14.2072C49.0159 14.2072 49.0159 14.2072 49.0159 14.2072C49.0159 14.2072 49.0159 14.2072 49.0158 14.2072C49.0158 14.2072 49.0158 14.2072 49.0158 14.2072C49.0158 14.2072 49.0158 14.2072 49.0158 14.2072C49.0158 14.2072 49.0158 14.2072 49.0158 14.2072C49.0158 14.2072 49.0158 14.2072 49.0158 14.2072C49.0158 14.2072 49.0158 14.2072 49.0158 14.2072C49.0158 14.2072 49.0158 14.2072 49.0158 14.2072C49.0158 14.2072 49.0158 14.2072 49.0158 14.2072C49.0158 14.2072 49.0158 14.2072 49.0158 14.2072C49.0158 14.2072 49.0158 14.2072 49.0158 14.2072C49.0158 14.2072 49.0158 14.2072 49.0158 14.2072C49.0158 14.2072 49.0158 14.2072 49.0158 14.2072C49.0158 14.2072 49.0158 14.2072 49.0158 14.2072C49.0158 14.2072 49.0158 14.2072 49.0158 14.2072C49.0158 14.2072 49.0158 14.2072 49.0158 14.2072C49.0158 14.2072 49.0158 14.2072 49.0158 14.2072C49.0158 14.2072 49.0158 14.2072 49.0158 14.2072C49.0158 14.2072 49.0158 14.2072 49.0158 14.2072C49.0158 14.2072 49.0158 14.2072 49.0158 14.2072C49.0158 14.2072 49.0158 14.2072 49.0158 14.2072C49.0158 14.2072 49.0158 14.2072 49.0158 14.2072C49.0158 14.2072 49.0158 14.2072 49.0158 14.2072C49.0158 14.2072 49.0158 14.2072 49.0158 14.2072C49.0158 14.2072 49.0158 14.2072 49.0158 14.2072C49.0158 14.2072 49.0158 14.2072 49.0158 14.2072C49.0158 14.2072 49.0158 14.2072 49.0158 14.2072C49.0158 14.2072 49.0158 14.2072 49.0158 14.2072C49.0157 14.2072 49.0157 14.2072 49.0157 14.2072C49.0157 14.2072 49.0157 14.2072 49.0157 14.2072C49.0157 14.2072 49.0157 14.2072 49.0157 14.2072C49.0157 14.2072 49.0157 14.2072 49.0157 14.2072C49.0157 14.2072 49.0157 14.2072 49.0157 14.2072C49.0157 14.2072 49.0157 14.2072 49.0157 14.2072C49.0157 14.2072 49.0157 14.2072 49.0157 14.2072C49.0157 14.2072 49.0157 14.2072 49.0157 14.2072C49.0157 14.2072 49.0157 14.2072 49.0157 14.2072C49.0157 14.2072 49.0157 14.2072 49.0157 14.2072C49.0157 14.2072 49.0157 14.2072 49.0157 14.2072C49.0157 14.2072 49.0157 14.2072 49.0157 14.2072C49.0157 14.2072 49.0157 14.2072 49.0157 14.2072C49.0157 14.2072 49.0157 14.2072 49.0157 14.2072C49.0157 14.2072 49.0157 14.2072 49.0157 14.2072C49.0157 14.2072 49.0157 14.2072 49.0157 14.2072C49.0157 14.2072 49.0157 14.2072 49.0157 14.2072C49.0157 14.2072 49.0157 14.2072 49.0157 14.2072C49.0157 14.2072 49.0157 14.2072 49.0157 14.2072C49.0157 14.2072 49.0157 14.2072 49.0157 14.2072C49.0157 14.2072 49.0157 14.2072 49.0157 14.2072C49.0157 14.2072 49.0157 14.2072 49.0157 14.2072C49.0157 14.2072 49.0157 14.2072 49.0157 14.2072C49.0157 14.2072 49.0157 14.2072 49.0157 14.2072C49.0157 14.2072 49.0157 14.2072 49.0157 14.2072C49.0157 14.2072 49.0157 14.2072 49.0157 14.2072C49.0156 14.2072 49.0156 14.2072 49.0156 14.2072C49.0156 14.2072 49.0156 14.2072 49.0156 14.2072C49.0156 14.2072 49.0156 14.2072 49.0156 14.2072C49.0156 14.2072 49.0156 14.2072 49.0156 14.2072C49.0156 14.2072 49.0156 14.2072 49.0156 14.2072C49.0156 14.2072 49.0156 14.2072 49.0156 14.2072C49.0156 14.2072 49.0156 14.2072 49.0156 14.2072C49.0156 14.2072 49.0156 14.2072 49.0156 14.2072C49.0156 14.2072 49.0156 14.2072 49.0156 14.2072C49.0156 14.2072 49.0156 14.2072 49.0156 14.2072C49.0156 14.2072 49.0156 14.2072 49.0156 14.2072C49.0156 14.2072 49.0156 14.2072 49.0156 14.2072C49.0156 14.2072 49.0156 14.2072 49.0156 14.2072C49.0156 14.2072 49.0156 14.2072 49.0156 14.2072C49.0156 14.2072 49.0156 14.2072 49.0156 14.2072C49.0156 14.2072 49.0156 14.2072 49.0156 14.2072C49.0156 14.2072 49.0156 14.2072 49.0156 14.2072C49.0156 14.2072 49.0156 14.2072 49.0156 14.2072C49.0156 14.2072 49.0156 14.2072 49.0156 14.2072C49.0156 14.2072 49.0156 14.2072 49.0156 14.2072C49.0156 14.2072 49.0156 14.2072 49.0156 14.2072C49.0156 14.2072 49.0156 14.2072 49.0156 14.2072C49.0156 14.2072 49.0156 14.2072 49.0156 14.2072C49.0156 14.2072 49.0156 14.2072 49.0156 14.2072C49.0156 14.2072 49.0156 14.2072 49.0156 14.2072C49.0156 14.2072 49.0156 14.2072 49.0156 14.2072C49.0156 14.2072 49.0155 14.2072 49.0155 14.2072C49.0155 14.2072 49.0155 14.2072 49.0155 14.2072C49.0155 14.2072 49.0155 14.2072 49.0155 14.2072C49.0155 14.2072 49.0155 14.2072 49.0155 14.2072C49.0155 14.2072 49.0155 14.2072 49.0155 14.2072C49.0155 14.2072 49.0155 14.2072 49.0155 14.2072C49.0155 14.2072 49.0155 14.2072 49.0155 14.2072C49.0155 14.2072 49.0155 14.2072 49.0155 14.2072C49.0155 14.2072 49.0155 14.2072 49.0155 14.2072C49.0155 14.2072 49.0155 14.2072 49.0155 14.2072C49.0155 14.2072 49.0155 14.2072 49.0155 14.2072C49.0155 14.2072 49.0155 14.2072 49.0155 14.2072C49.0155 14.2072 49.0155 14.2072 49.0155 14.2072C49.0155 14.2072 49.0155 14.2072 49.0155 14.2072C49.0155 14.2072 49.0155 14.2072 49.0155 14.2072C49.0155 14.2072 49.0155 14.2072 49.0155 14.2072C49.0155 14.2072 49.0155 14.2072 49.0155 14.2072C49.0155 14.2072 49.0155 14.2072 49.0155 14.2072C49.0155 14.2072 49.0155 14.2072 49.0155 14.2072C49.0155 14.2072 49.0155 14.2072 49.0155 14.2072C49.0155 14.2072 49.0155 14.2072 49.0155 14.2072C49.0155 14.2072 49.0155 14.2072 49.0155 14.2072C49.0155 14.2072 49.0155 14.2072 49.0155 14.2072C49.0155 14.2072 49.0155 14.2072 49.0155 14.2072C49.0155 14.2072 49.0155 14.2072 49.0155 14.2072C49.0155 14.2072 49.0155 14.2072 49.0155 14.2072C49.0155 14.2072 49.0155 14.2072 49.0154 14.2072C49.0154 14.2072 49.0154 14.2072 49.0154 14.2072C49.0154 14.2072 49.0154 14.2072 49.0154 14.2072C49.0154 14.2072 49.0154 14.2072 49.0154 14.2072C49.0154 14.2072 49.0154 14.2072 49.0154 14.2072C49.0154 14.2072 49.0154 14.2072 49.0154 14.2072C49.0154 14.2072 49.0154 14.2072 49.0154 14.2072C49.0154 14.2072 49.0154 14.2072 49.0154 14.2072C49.0154 14.2072 49.0154 14.2072 49.0154 14.2072C49.0154 14.2072 49.0154 14.2072 49.0154 14.2072C49.0154 14.2072 49.0154 14.2072 49.0154 14.2072C49.0154 14.2072 49.0154 14.2072 49.0154 14.2072C49.0154 14.2072 49.0154 14.2072 49.0154 14.2072C49.0154 14.2072 49.0154 14.2072 49.0154 14.2072C49.0154 14.2072 49.0154 14.2072 49.0154 14.2072C49.0154 14.2072 49.0154 14.2072 49.0154 14.2072C49.0154 14.2072 49.0154 14.2072 49.0154 14.2072C49.0154 14.2072 49.0154 14.2072 49.0154 14.2072C49.0154 14.2072 49.0154 14.2072 49.0154 14.2072C49.0154 14.2072 49.0154 14.2072 49.0154 14.2072C49.0154 14.2072 49.0154 14.2072 49.0154 14.2072C49.0154 14.2072 49.0154 14.2072 49.0154 14.2072C49.0154 14.2072 49.0154 14.2072 49.0154 14.2072C49.0154 14.2072 49.0154 14.2072 49.0154 14.2072C49.0154 14.2072 49.0154 14.2072 49.0154 14.2072C49.0154 14.2072 49.0154 14.2072 49.0154 14.2072C49.0154 14.2072 49.0154 14.2072 49.0153 14.2072C49.0153 14.2072 49.0153 14.2072 49.0153 14.2072C49.0153 14.2072 49.0153 14.2072 49.0153 14.2072C49.0153 14.2072 49.0153 14.2072 49.0153 14.2072C49.0153 14.2072 49.0153 14.2072 49.0153 14.2072C49.0153 14.2072 49.0153 14.2072 49.0153 14.2072C49.0153 14.2072 49.0153 14.2072 49.0153 14.2072C49.0153 14.2072 49.0153 14.2072 49.0153 14.2072C49.0153 14.2072 49.0153 14.2072 49.0153 14.2072C49.0153 14.2072 49.0153 14.2072 49.0153 14.2072C49.0153 14.2072 49.0153 14.2072 49.0153 14.2072C49.0153 14.2072 49.0153 14.2072 49.0153 14.2072C49.0153 14.2072 49.0153 14.2072 49.0153 14.2072C49.0153 14.2072 49.0153 14.2072 49.0153 14.2072C49.0153 14.2072 49.0153 14.2072 49.0153 14.2072C49.0153 14.2072 49.0153 14.2072 49.0153 14.2072C49.0153 14.2072 49.0153 14.2072 49.0153 14.2072C49.0153 14.2072 49.0153 14.2072 49.0153 14.2072C49.0153 14.2072 49.0153 14.2072 49.0153 14.2072C49.0153 14.2072 49.0153 14.2072 49.0153 14.2072C49.0153 14.2072 49.0153 14.2072 49.0153 14.2072C49.0153 14.2072 49.0153 14.2072 49.0153 14.2072C49.0153 14.2072 49.0153 14.2072 49.0153 14.2072C49.0153 14.2072 49.0153 14.2072 49.0153 14.2072C49.0153 14.2072 49.0153 14.2072 49.0153 14.2072C49.0153 14.2072 49.0153 14.2072 49.0153 14.2072C49.0153 14.2072 49.0153 14.2072 49.0153 14.2072C49.0152 14.2072 49.0152 14.2072 49.0152 14.2072C49.0152 14.2072 49.0152 14.2072 49.0152 14.2072C49.0152 14.2072 49.0152 14.2072 49.0152 14.2072C49.0152 14.2072 49.0152 14.2072 49.0152 14.2072C49.0152 14.2072 49.0152 14.2072 49.0152 14.2072C49.0152 14.2072 49.0152 14.2072 49.0152 14.2072C49.0152 14.2072 49.0152 14.2072 49.0152 14.2072C49.0152 14.2072 49.0152 14.2072 49.0152 14.2072C49.0152 14.2072 49.0152 14.2072 49.0152 14.2072C49.0152 14.2072 49.0152 14.2072 49.0152 14.2072C49.0152 14.2072 49.0152 14.2072 49.0152 14.2072C49.0152 14.2072 49.0152 14.2072 49.0152 14.2072C49.0152 14.2072 49.0152 14.2072 49.0152 14.2072C49.0152 14.2072 49.0152 14.2072 49.0152 14.2072C49.0152 14.2072 49.0152 14.2072 49.0152 14.2072C49.0152 14.2072 49.0152 14.2072 49.0152 14.2072C49.0152 14.2072 49.0152 14.2072 49.0152 14.2072C49.0152 14.2072 49.0152 14.2072 49.0152 14.2072C49.0152 14.2072 49.0152 14.2072 49.0152 14.2072C49.0152 14.2072 49.0152 14.2072 49.0152 14.2072C49.0152 14.2072 49.0152 14.2072 49.0152 14.2072C49.0152 14.2072 49.0152 14.2072 49.0152 14.2072C49.0152 14.2072 49.0152 14.2072 49.0152 14.2072C49.0152 14.2072 49.0152 14.2072 49.0152 14.2072C49.0152 14.2072 49.0152 14.2072 49.0152 14.2072C49.0152 14.2072 49.0152 14.2072 49.0152 14.2072C49.0151 14.2072 49.0151 14.2072 49.0151 14.2072C49.0151 14.2072 49.0151 14.2072 49.0151 14.2072C49.0151 14.2072 49.0151 14.2072 49.0151 14.2072C49.0151 14.2072 49.0151 14.2072 49.0151 14.2072C49.0151 14.2072 49.0151 14.2072 49.0151 14.2072C49.0151 14.2072 49.0151 14.2072 49.0151 14.2072C49.0151 14.2072 49.0151 14.2072 49.0151 14.2072C49.0151 14.2072 49.0151 14.2072 49.0151 14.2072C49.0151 14.2072 49.0151 14.2072 49.0151 14.2072C49.0151 14.2072 49.0151 14.2072 49.0151 14.2072C49.0151 14.2072 49.0151 14.2072 49.0151 14.2072C49.0151 14.2072 49.0151 14.2072 49.0151 14.2072C49.0151 14.2072 49.0151 14.2072 49.0151 14.2072C49.0151 14.2072 49.0151 14.2072 49.0151 14.2072C49.0151 14.2072 49.0151 14.2072 49.0151 14.2072C49.0151 14.2072 49.0151 14.2072 49.0151 14.2072C49.0151 14.2072 49.0151 14.2072 49.0151 14.2072C49.0151 14.2072 49.0151 14.2072 49.0151 14.2072C49.0151 14.2072 49.0151 14.2072 49.0151 14.2072C49.0151 14.2072 49.0151 14.2072 49.0151 14.2072C49.0151 14.2072 49.0151 14.2072 49.0151 14.2072C49.0151 14.2072 49.0151 14.2072 49.0151 14.2072C49.0151 14.2072 49.0151 14.2072 49.0151 14.2072C49.0151 14.2072 49.0151 14.2072 49.0151 14.2072C49.0151 14.2072 49.0151 14.2072 49.0151 14.2072C49.0151 14.2072 49.0151 14.2072 49.0151 14.2072C49.0151 14.2072 49.015 14.2072 49.015 14.2072C49.015 14.2072 49.015 14.2072 49.015 14.2072C49.015 14.2072 49.015 14.2072 49.015 14.2072C49.015 14.2072 49.015 14.2072 49.015 14.2072C49.015 14.2072 49.015 14.2072 49.015 14.2072C49.015 14.2072 49.015 14.2072 49.015 14.2072C49.015 14.2072 49.015 14.2072 49.015 14.2072C49.015 14.2072 49.015 14.2072 49.015 14.2072C49.015 14.2072 49.015 14.2072 49.015 14.2072C49.015 14.2072 49.015 14.2072 49.015 14.2072C49.015 14.2072 49.015 14.2072 49.015 14.2072C49.015 14.2072 49.015 14.2072 49.015 14.2072C49.015 14.2072 49.015 14.2072 49.015 14.2072C49.015 14.2072 49.015 14.2072 49.015 14.2072C49.015 14.2072 49.015 14.2072 49.015 14.2072C49.015 14.2072 49.015 14.2072 49.015 14.2072C49.015 14.2072 49.015 14.2072 49.015 14.2072C49.015 14.2072 49.015 14.2072 49.015 14.2072C49.015 14.2072 49.015 14.2072 49.015 14.2072C49.015 14.2072 49.015 14.2072 49.015 14.2072C49.015 14.2072 49.015 14.2072 49.015 14.2072C49.015 14.2072 49.015 14.2072 49.015 14.2072C49.015 14.2072 49.015 14.2072 49.015 14.2072C49.015 14.2072 49.015 14.2072 49.015 14.2072C49.015 14.2072 49.015 14.2072 49.015 14.2072C49.015 14.2072 49.015 14.2072 49.015 14.2072C49.015 14.2072 49.0149 14.2072 49.0149 14.2072C49.0149 14.2072 49.0149 14.2072 49.0149 14.2072C49.0149 14.2072 49.0149 14.2072 49.0149 14.2072C49.0149 14.2072 49.0149 14.2072 49.0149 14.2072C49.0149 14.2072 49.0149 14.2072 49.0149 14.2072C49.0149 14.2072 49.0149 14.2072 49.0149 14.2072C49.0149 14.2072 49.0149 14.2072 49.0149 14.2072C49.0149 14.2072 49.0149 14.2072 49.0149 14.2072C49.0149 14.2072 49.0149 14.2072 49.0149 14.2072C49.0149 14.2072 49.0149 14.2072 49.0149 14.2072C49.0149 14.2072 49.0149 14.2072 49.0149 14.2072C49.0149 14.2072 49.0149 14.2072 49.0149 14.2072C49.0149 14.2072 49.0149 14.2072 49.0149 14.2072C49.0149 14.2072 49.0149 14.2072 49.0149 14.2072C49.0149 14.2072 49.0149 14.2072 49.0149 14.2072C49.0149 14.2072 49.0149 14.2072 49.0149 14.2072C49.0149 14.2072 49.0149 14.2072 49.0149 14.2072C49.0149 14.2072 49.0149 14.2072 49.0149 14.2072C49.0149 14.2072 49.0149 14.2072 49.0149 14.2072C49.0149 14.2072 49.0149 14.2072 49.0149 14.2072C49.0149 14.2072 49.0149 14.2072 49.0149 14.2072C49.0149 14.2072 49.0149 14.2072 49.0149 14.2072C49.0149 14.2072 49.0149 14.2072 49.0149 14.2072C49.0149 14.2072 49.0149 14.2072 49.0149 14.2072C49.0149 14.2072 49.0149 14.2072 49.0149 14.2072C49.0149 14.2072 49.0149 14.2072 49.0149 14.2072C49.0149 14.2072 49.0149 14.2072 49.0148 14.2072C49.0148 14.2072 49.0148 14.2072 49.0148 14.2072C49.0148 14.2072 49.0148 14.2072 49.0148 14.2072C49.0148 14.2072 49.0148 14.2072 49.0148 14.2072C49.0148 14.2072 49.0148 14.2072 49.0148 14.2072C49.0148 14.2072 49.0148 14.2072 49.0148 14.2072C49.0148 14.2072 49.0148 14.2072 49.0148 14.2072C49.0148 14.2072 49.0148 14.2072 49.0148 14.2072C49.0148 14.2072 49.0148 14.2072 49.0148 14.2072C49.0148 14.2072 49.0148 14.2072 49.0148 14.2072C49.0148 14.2072 49.0148 14.2072 49.0148 14.2072C49.0148 14.2072 49.0148 14.2072 49.0148 14.2072C49.0148 14.2072 49.0148 14.2072 49.0148 14.2072C49.0148 14.2072 49.0148 14.2072 49.0148 14.2072C49.0148 14.2072 49.0148 14.2072 49.0148 14.2072C49.0148 14.2072 49.0148 14.2072 49.0148 14.2072C49.0148 14.2072 49.0148 14.2072 49.0148 14.2072C49.0148 14.2072 49.0148 14.2072 49.0148 14.2072C49.0148 14.2072 49.0148 14.2072 49.0148 14.2072C49.0148 14.2072 49.0148 14.2072 49.0148 14.2072C49.0148 14.2072 49.0148 14.2072 49.0148 14.2072C49.0148 14.2072 49.0148 14.2072 49.0148 14.2072C49.0148 14.2072 49.0148 14.2072 49.0148 14.2072C49.0148 14.2072 49.0148 14.2072 49.0148 14.2072C49.0148 14.2072 49.0148 14.2072 49.0148 14.2072C49.0148 14.2072 49.0148 14.2072 49.0148 14.2072C49.0148 14.2072 49.0148 14.2072 49.0148 14.2072C49.0147 14.2072 49.0147 14.2072 49.0147 14.2072C49.0147 14.2072 49.0147 14.2072 49.0147 14.2072C49.0147 14.2072 49.0147 14.2072 49.0147 14.2072C49.0147 14.2072 49.0147 14.2072 49.0147 14.2072C49.0147 14.2072 49.0147 14.2072 49.0147 14.2072C49.0147 14.2072 49.0147 14.2072 49.0147 14.2072C49.0147 14.2072 49.0147 14.2072 49.0147 14.2072C49.0147 14.2072 49.0147 14.2072 49.0147 14.2072C49.0147 14.2072 49.0147 14.2072 49.0147 14.2072C49.0147 14.2072 49.0147 14.2072 49.0147 14.2072C49.0147 14.2072 49.0147 14.2072 49.0147 14.2072C49.0147 14.2072 49.0147 14.2072 49.0147 14.2072C49.0147 14.2072 49.0147 14.2072 49.0147 14.2072C49.0147 14.2072 49.0147 14.2072 49.0147 14.2072C49.0147 14.2072 49.0147 14.2072 49.0147 14.2072C49.0147 14.2072 49.0147 14.2072 49.0147 14.2072C49.0147 14.2072 49.0147 14.2072 49.0147 14.2072C49.0147 14.2072 49.0147 14.2072 49.0147 14.2072C49.0147 14.2072 49.0147 14.2072 49.0147 14.2072C49.0147 14.2072 49.0147 14.2072 49.0147 14.2072C49.0147 14.2072 49.0147 14.2072 49.0147 14.2072C49.0147 14.2072 49.0147 14.2072 49.0147 14.2072C49.0147 14.2072 49.0147 14.2072 49.0147 14.2072C49.0147 14.2072 49.0147 14.2072 49.0147 14.2072C49.0147 14.2072 49.0147 14.2072 49.0147 14.2072C49.0147 14.2072 49.0147 14.2072 49.0147 14.2072C49.0146 14.2072 49.0146 14.2072 49.0146 14.2072C49.0146 14.2072 49.0146 14.2072 49.0146 14.2072C49.0146 14.2072 49.0146 14.2072 49.0146 14.2072C49.0146 14.2072 49.0146 14.2072 49.0146 14.2072C49.0146 14.2072 49.0146 14.2072 49.0146 14.2072C49.0146 14.2072 49.0146 14.2072 49.0146 14.2072C49.0146 14.2072 49.0146 14.2072 49.0146 14.2072C49.0146 14.2072 49.0146 14.2072 49.0146 14.2072C49.0146 14.2072 49.0146 14.2072 49.0146 14.2072C49.0146 14.2072 49.0146 14.2072 49.0146 14.2072C49.0146 14.2072 49.0146 14.2072 49.0146 14.2072C49.0146 14.2072 49.0146 14.2072 49.0146 14.2072C49.0146 14.2072 49.0146 14.2072 49.0146 14.2072C49.0146 14.2072 49.0146 14.2072 49.0146 14.2072C49.0146 14.2072 49.0146 14.2072 49.0146 14.2072C49.0146 14.2072 49.0146 14.2072 49.0146 14.2072C49.0146 14.2072 49.0146 14.2072 49.0146 14.2072C49.0146 14.2072 49.0146 14.2072 49.0146 14.2072C49.0146 14.2072 49.0146 14.2072 49.0146 14.2072C49.0146 14.2072 49.0146 14.2072 49.0146 14.2072C49.0146 14.2072 49.0146 14.2072 49.0146 14.2072C49.0146 14.2072 49.0146 14.2072 49.0146 14.2072C49.0146 14.2072 49.0146 14.2072 49.0146 14.2072C49.0146 14.2072 49.0146 14.2072 49.0146 14.2072C49.0146 14.2072 49.0146 14.2072 49.0146 14.2072C49.0146 14.2072 49.0146 14.2072 49.0146 14.2072C49.0146 14.2072 49.0145 14.2072 49.0145 14.2072C49.0145 14.2072 49.0145 14.2072 49.0145 14.2072C49.0145 14.2072 49.0145 14.2072 49.0145 14.2072C49.0145 14.2072 49.0145 14.2072 49.0145 14.2072C49.0145 14.2072 49.0145 14.2072 49.0145 14.2072C49.0145 14.2072 49.0145 14.2072 49.0145 14.2072C49.0145 14.2072 49.0145 14.2072 49.0145 14.2072C49.0145 14.2072 49.0145 14.2072 49.0145 14.2072C49.0145 14.2072 49.0145 14.2072 49.0145 14.2072C49.0145 14.2072 49.0145 14.2072 49.0145 14.2072C49.0145 14.2072 49.0145 14.2072 49.0145 14.2072C49.0145 14.2072 49.0145 14.2072 49.0145 14.2072C49.0145 14.2072 49.0145 14.2072 49.0145 14.2072C49.0145 14.2072 49.0145 14.2072 49.0145 14.2072C49.0145 14.2072 49.0145 14.2072 49.0145 14.2072C49.0145 14.2072 49.0145 14.2072 49.0145 14.2072C49.0145 14.2072 49.0145 14.2072 49.0145 14.2072C49.0145 14.2072 49.0145 14.2072 49.0145 14.2072C49.0145 14.2072 49.0145 14.2072 49.0145 14.2072C49.0145 14.2072 49.0145 14.2072 49.0145 14.2072C49.0145 14.2072 49.0145 14.2072 49.0145 14.2072C49.0145 14.2072 49.0145 14.2072 49.0145 14.2072C49.0145 14.2072 49.0145 14.2072 49.0145 14.2072C49.0145 14.2072 49.0145 14.2072 49.0145 14.2072C49.0145 14.2072 49.0145 14.2072 49.0145 14.2072C49.0145 14.2072 49.0145 14.2072 49.0145 14.2072C49.0145 14.2072 49.0144 14.2072 49.0144 14.2072C49.0144 14.2072 49.0144 14.2072 49.0144 14.2072C49.0144 14.2072 49.0144 14.2072 49.0144 14.2072C49.0144 14.2072 49.0144 14.2072 49.0144 14.2072C49.0144 14.2072 49.0144 14.2072 49.0144 14.2072C49.0144 14.2072 49.0144 14.2072 49.0144 14.2072C49.0144 14.2072 49.0144 14.2072 49.0144 14.2072C49.0144 14.2072 49.0144 14.2072 49.0144 14.2072C49.0144 14.2072 49.0144 14.2072 49.0144 14.2072C49.0144 14.2072 49.0144 14.2072 49.0144 14.2072C49.0144 14.2072 49.0144 14.2072 49.0144 14.2072C49.0144 14.2072 49.0144 14.2072 49.0144 14.2072C49.0144 14.2072 49.0144 14.2072 49.0144 14.2072C49.0144 14.2072 49.0144 14.2072 49.0144 14.2072C49.0144 14.2072 49.0144 14.2072 49.0144 14.2072C49.0144 14.2072 49.0144 14.2072 49.0144 14.2072C49.0144 14.2072 49.0144 14.2072 49.0144 14.2072C49.0144 14.2072 49.0144 14.2072 49.0144 14.2072C49.0144 14.2072 49.0144 14.2072 49.0144 14.2072C49.0144 14.2072 49.0144 14.2072 49.0144 14.2072C49.0144 14.2072 49.0144 14.2072 49.0144 14.2072C49.0144 14.2072 49.0144 14.2072 49.0144 14.2072C49.0144 14.2072 49.0144 14.2072 49.0144 14.2072C49.0144 14.2072 49.0144 14.2072 49.0144 14.2072C49.0144 14.2072 49.0144 14.2072 49.0144 14.2072C49.0144 14.2072 49.0144 14.2072 49.0144 14.2072C49.0144 14.2072 49.0144 14.2072 49.0143 14.2072C49.0143 14.2072 49.0143 14.2072 49.0143 14.2072C49.0143 14.2072 49.0143 14.2072 49.0143 14.2072C49.0143 14.2072 49.0143 14.2072 49.0143 14.2072C49.0143 14.2072 49.0143 14.2072 49.0143 14.2072C49.0143 14.2072 49.0143 14.2072 49.0143 14.2072C49.0143 14.2072 49.0143 14.2072 49.0143 14.2072C49.0143 14.2072 49.0143 14.2072 49.0143 14.2072C49.0143 14.2072 49.0143 14.2072 49.0143 14.2072C49.0143 14.2072 49.0143 14.2072 49.0143 14.2072C49.0143 14.2072 49.0143 14.2072 49.0143 14.2072C49.0143 14.2072 49.0143 14.2072 49.0143 14.2072C49.0143 14.2072 49.0143 14.2072 49.0143 14.2072C49.0143 14.2072 49.0143 14.2072 49.0143 14.2072C49.0143 14.2072 49.0143 14.2072 49.0143 14.2072C49.0143 14.2072 49.0143 14.2072 49.0143 14.2072C49.0143 14.2072 49.0143 14.2072 49.0143 14.2072C49.0143 14.2072 49.0143 14.2072 49.0143 14.2072C49.0143 14.2072 49.0143 14.2072 49.0143 14.2072C49.0143 14.2072 49.0143 14.2072 49.0143 14.2072C49.0143 14.2072 49.0143 14.2072 49.0143 14.2072C49.0143 14.2072 49.0143 14.2072 49.0143 14.2072C49.0143 14.2072 49.0143 14.2072 49.0143 14.2072C49.0143 14.2072 49.0143 14.2072 49.0143 14.2072C49.0143 14.2072 49.0143 14.2072 49.0143 14.2072C49.0143 14.2072 49.0143 14.2072 49.0143 14.2072C49.0143 14.2072 49.0143 14.2072 49.0142 14.2072C49.0142 14.2072 49.0142 14.2072 49.0142 14.2072C49.0142 14.2072 49.0142 14.2072 49.0142 14.2072C49.0142 14.2072 49.0142 14.2072 49.0142 14.2072C49.0142 14.2072 49.0142 14.2072 49.0142 14.2072C49.0142 14.2072 49.0142 14.2072 49.0142 14.2072C49.0142 14.2072 49.0142 14.2072 49.0142 14.2072C49.0142 14.2072 49.0142 14.2072 49.0142 14.2072C49.0142 14.2072 49.0142 14.2072 49.0142 14.2072C49.0142 14.2072 49.0142 14.2072 49.0142 14.2072C49.0142 14.2072 49.0142 14.2072 49.0142 14.2072C49.0142 14.2072 49.0142 14.2072 49.0142 14.2072C49.0142 14.2072 49.0142 14.2072 49.0142 14.2072C49.0142 14.2072 49.0142 14.2072 49.0142 14.2072C49.0142 14.2072 49.0142 14.2072 49.0142 14.2072C49.0142 14.2072 49.0142 14.2072 49.0142 14.2072C49.0142 14.2072 49.0142 14.2072 49.0142 14.2072C49.0142 14.2072 49.0142 14.2072 49.0142 14.2072C49.0142 14.2072 49.0142 14.2072 49.0142 14.2072C49.0142 14.2072 49.0142 14.2072 49.0142 14.2072C49.0142 14.2072 49.0142 14.2072 49.0142 14.2072C49.0142 14.2072 49.0142 14.2072 49.0142 14.2072C49.0142 14.2072 49.0142 14.2072 49.0142 14.2072C49.0142 14.2072 49.0142 14.2072 49.0142 14.2072C49.0142 14.2072 49.0142 14.2072 49.0142 14.2072C49.0142 14.2072 49.0142 14.2072 49.0142 14.2072C49.0142 14.2072 49.0142 14.2072 49.0142 14.2072C49.0141 14.2072 49.0141 14.2072 49.0141 14.2072C49.0141 14.2072 49.0141 14.2072 49.0141 14.2072C49.0141 14.2072 49.0141 14.2072 49.0141 14.2072C49.0141 14.2072 49.0141 14.2072 49.0141 14.2072C49.0141 14.2072 49.0141 14.2072 49.0141 14.2072C49.0141 14.2072 49.0141 14.2072 49.0141 14.2072C49.0141 14.2072 49.0141 14.2072 49.0141 14.2072C49.0141 14.2072 49.0141 14.2072 49.0141 14.2072C49.0141 14.2072 49.0141 14.2072 49.0141 14.2072C49.0141 14.2072 49.0141 14.2072 49.0141 14.2072C49.0141 14.2072 49.0141 14.2072 49.0141 14.2072C49.0141 14.2072 49.0141 14.2072 49.0141 14.2072C49.0141 14.2072 49.0141 14.2072 49.0141 14.2072C49.0141 14.2072 49.0141 14.2072 49.0141 14.2072C49.0141 14.2072 49.0141 14.2072 49.0141 14.2072C49.0141 14.2072 49.0141 14.2072 49.0141 14.2072C49.0141 14.2072 49.0141 14.2072 49.0141 14.2072C49.0141 14.2072 49.0141 14.2072 49.0141 14.2072C49.0141 14.2072 49.0141 14.2072 49.0141 14.2072C49.0141 14.2072 49.0141 14.2072 49.0141 14.2072C49.0141 14.2072 49.0141 14.2072 49.0141 14.2072C49.0141 14.2072 49.0141 14.2072 49.0141 14.2072C49.0141 14.2072 49.0141 14.2072 49.0141 14.2072V15.8072ZM49.016 15.8072C49.016 15.8072 49.016 15.8072 49.016 15.8072H49.016H49.016C49.016 15.8072 49.016 15.8072 49.016 15.8072C49.016 15.8072 49.016 15.8072 49.016 15.8072H49.016C49.016 15.8072 49.016 15.8072 49.016 15.8072C49.016 15.8072 49.016 15.8072 49.016 15.8072C49.016 15.8072 49.016 15.8072 49.016 15.8072H49.016C49.016 15.8072 49.016 15.8072 49.016 15.8072C49.016 15.8072 49.016 15.8072 49.016 15.8072C49.016 15.8072 49.016 15.8072 49.016 15.8072H49.016C49.016 15.8072 49.016 15.8072 49.016 15.8072C49.016 15.8072 49.016 15.8072 49.016 15.8072C49.016 15.8072 49.016 15.8072 49.016 15.8072H49.016C49.016 15.8072 49.016 15.8072 49.016 15.8072C49.016 15.8072 49.016 15.8072 49.016 15.8072C49.016 15.8072 49.016 15.8072 49.016 15.8072H49.016C49.016 15.8072 49.016 15.8072 49.016 15.8072C49.016 15.8072 49.016 15.8072 49.016 15.8072C49.016 15.8072 49.016 15.8072 49.016 15.8072H49.016C49.016 15.8072 49.016 15.8072 49.016 15.8072C49.016 15.8072 49.016 15.8072 49.016 15.8072C49.016 15.8072 49.016 15.8072 49.016 15.8072H49.016C49.016 15.8072 49.016 15.8072 49.016 15.8072C49.016 15.8072 49.016 15.8072 49.016 15.8072H49.016H49.016C49.016 15.8072 49.016 15.8072 49.016 15.8072C49.016 15.8072 49.016 15.8072 49.016 15.8072H49.016H49.016C49.016 15.8072 49.016 15.8072 49.016 15.8072C49.016 15.8072 49.016 15.8072 49.016 15.8072H49.016H49.016C49.016 15.8072 49.016 15.8072 49.016 15.8072C49.016 15.8072 49.016 15.8072 49.016 15.8072H49.016H49.016C49.016 15.8072 49.016 15.8072 49.016 15.8072C49.016 15.8072 49.016 15.8072 49.016 15.8072H49.016H49.016C49.016 15.8072 49.016 15.8072 49.016 15.8072C49.016 15.8072 49.016 15.8072 49.016 15.8072H49.016C49.016 15.8072 49.016 15.8072 49.016 15.8072C49.016 15.8072 49.016 15.8072 49.016 15.8072C49.016 15.8072 49.016 15.8072 49.016 15.8072H49.016C49.016 15.8072 49.016 15.8072 49.016 15.8072C49.016 15.8072 49.016 15.8072 49.016 15.8072C49.016 15.8072 49.016 15.8072 49.016 15.8072H49.016C49.016 15.8072 49.016 15.8072 49.016 15.8072C49.016 15.8072 49.016 15.8072 49.016 15.8072C49.016 15.8072 49.016 15.8072 49.016 15.8072H49.016C49.016 15.8072 49.016 15.8072 49.016 15.8072C49.016 15.8072 49.016 15.8072 49.016 15.8072C49.016 15.8072 49.016 15.8072 49.016 15.8072H49.0161C49.0161 15.8072 49.0161 15.8072 49.0161 15.8072C49.0161 15.8072 49.0161 15.8072 49.0161 15.8072C49.0161 15.8072 49.0161 15.8072 49.0161 15.8072H49.0161C49.0161 15.8072 49.0161 15.8072 49.0161 15.8072C49.0161 15.8072 49.0161 15.8072 49.0161 15.8072C49.0161 15.8072 49.0161 15.8072 49.0161 15.8072H49.0161C49.0161 15.8072 49.0161 15.8072 49.0161 15.8072C49.0161 15.8072 49.0161 15.8072 49.0161 15.8072C49.0161 15.8072 49.0161 15.8072 49.0161 15.8072H49.0161C49.0161 15.8072 49.0161 15.8072 49.0161 15.8072C49.0161 15.8072 49.0161 15.8072 49.0161 15.8072C49.0161 15.8072 49.0161 15.8072 49.0161 15.8072H49.0161C49.0161 15.8072 49.0161 15.8072 49.0161 15.8072C49.0161 15.8072 49.0161 15.8072 49.0161 15.8072C49.0161 15.8072 49.0161 15.8072 49.0161 15.8072H49.0161C49.0161 15.8072 49.0161 15.8072 49.0161 15.8072C49.0161 15.8072 49.0161 15.8072 49.0161 15.8072C49.0161 15.8072 49.0161 15.8072 49.0161 15.8072H49.0161C49.0161 15.8072 49.0161 15.8072 49.0161 15.8072C49.0161 15.8072 49.0161 15.8072 49.0161 15.8072C49.0161 15.8072 49.0161 15.8072 49.0161 15.8072H49.0161C49.0161 15.8072 49.0161 15.8072 49.0161 15.8072C49.0161 15.8072 49.0161 15.8072 49.0161 15.8072C49.0161 15.8072 49.0161 15.8072 49.0161 15.8072H49.0161C49.0161 15.8072 49.0161 15.8072 49.0161 15.8072C49.0161 15.8072 49.0161 15.8072 49.0161 15.8072C49.0161 15.8072 49.0161 15.8072 49.0161 15.8072H49.0161C49.0161 15.8072 49.0161 15.8072 49.0161 15.8072C49.0161 15.8072 49.0161 15.8072 49.0161 15.8072C49.0161 15.8072 49.0161 15.8072 49.0161 15.8072H49.0161C49.0161 15.8072 49.0161 15.8072 49.0161 15.8072C49.0161 15.8072 49.0161 15.8072 49.0161 15.8072C49.0161 15.8072 49.0161 15.8072 49.0161 15.8072H49.0161C49.0161 15.8072 49.0161 15.8072 49.0161 15.8072C49.0161 15.8072 49.0161 15.8072 49.0161 15.8072C49.0161 15.8072 49.0161 15.8072 49.0161 15.8072H49.0161C49.0161 15.8072 49.0161 15.8072 49.0161 15.8072C49.0161 15.8072 49.0161 15.8072 49.0161 15.8072C49.0161 15.8072 49.0161 15.8072 49.0161 15.8072H49.0161C49.0161 15.8072 49.0161 15.8072 49.0161 15.8072C49.0161 15.8072 49.0161 15.8072 49.0161 15.8072C49.0161 15.8072 49.0161 15.8072 49.0161 15.8072H49.0161C49.0161 15.8072 49.0161 15.8072 49.0161 15.8072C49.0161 15.8072 49.0161 15.8072 49.0161 15.8072C49.0161 15.8072 49.0161 15.8072 49.0161 15.8072H49.0161C49.0161 15.8072 49.0161 15.8072 49.0161 15.8072C49.0161 15.8072 49.0161 15.8072 49.0161 15.8072C49.0161 15.8072 49.0161 15.8072 49.0161 15.8072H49.0161C49.0161 15.8072 49.0161 15.8072 49.0161 15.8072C49.0161 15.8072 49.0161 15.8072 49.0161 15.8072C49.0161 15.8072 49.0161 15.8072 49.0161 15.8072H49.0161C49.0161 15.8072 49.0161 15.8072 49.0161 15.8072C49.0161 15.8072 49.0161 15.8072 49.0161 15.8072C49.0161 15.8072 49.0161 15.8072 49.0161 15.8072H49.0161C49.0161 15.8072 49.0161 15.8072 49.0161 15.8072C49.0161 15.8072 49.0161 15.8072 49.0161 15.8072C49.0161 15.8072 49.0161 15.8072 49.0161 15.8072H49.0161C49.0161 15.8072 49.0161 15.8072 49.0161 15.8072C49.0161 15.8072 49.0161 15.8072 49.0161 15.8072C49.0161 15.8072 49.0161 15.8072 49.0161 15.8072H49.0161C49.0161 15.8072 49.0161 15.8072 49.0161 15.8072C49.0161 15.8072 49.0161 15.8072 49.0161 15.8072C49.0161 15.8072 49.0161 15.8072 49.0161 15.8072H49.0161C49.0161 15.8072 49.0161 15.8072 49.0161 15.8072C49.0161 15.8072 49.0161 15.8072 49.0161 15.8072C49.0161 15.8072 49.0161 15.8072 49.0161 15.8072H49.0161C49.0161 15.8072 49.0161 15.8072 49.0161 15.8072C49.0161 15.8072 49.0161 15.8072 49.0161 15.8072C49.0161 15.8072 49.0161 15.8072 49.0161 15.8072H49.0161C49.0161 15.8072 49.0161 15.8072 49.0161 15.8072C49.0161 15.8072 49.0161 15.8072 49.0161 15.8072C49.0161 15.8072 49.0161 15.8072 49.0161 15.8072H49.0161C49.0161 15.8072 49.0161 15.8072 49.0161 15.8072C49.0161 15.8072 49.0161 15.8072 49.0161 15.8072C49.0161 15.8072 49.0161 15.8072 49.0161 15.8072H49.0161C49.0161 15.8072 49.0161 15.8072 49.0161 15.8072C49.0161 15.8072 49.0161 15.8072 49.0161 15.8072C49.0161 15.8072 49.0161 15.8072 49.0161 15.8072H49.0161C49.0161 15.8072 49.0161 15.8072 49.0161 15.8072C49.0161 15.8072 49.0161 15.8072 49.0161 15.8072C49.0161 15.8072 49.0161 15.8072 49.0161 15.8072H49.0161C49.0161 15.8072 49.0161 15.8072 49.0161 15.8072C49.0161 15.8072 49.0161 15.8072 49.0161 15.8072C49.0161 15.8072 49.0161 15.8072 49.0161 15.8072H49.0161C49.0161 15.8072 49.0161 15.8072 49.0161 15.8072C49.0161 15.8072 49.0161 15.8072 49.0161 15.8072C49.0161 15.8072 49.0161 15.8072 49.0161 15.8072H49.0161C49.0161 15.8072 49.0161 15.8072 49.0161 15.8072C49.0161 15.8072 49.0161 15.8072 49.0161 15.8072C49.0161 15.8072 49.0161 15.8072 49.0161 15.8072H49.0161C49.0161 15.8072 49.0161 15.8072 49.0161 15.8072C49.0161 15.8072 49.0161 15.8072 49.0161 15.8072C49.0161 15.8072 49.0161 15.8072 49.0161 15.8072H49.0161C49.0161 15.8072 49.0161 15.8072 49.0161 15.8072C49.0161 15.8072 49.0161 15.8072 49.0161 15.8072C49.0161 15.8072 49.0161 15.8072 49.0161 15.8072H49.0161C49.0161 15.8072 49.0161 15.8072 49.0161 15.8072C49.0161 15.8072 49.0161 15.8072 49.0161 15.8072C49.0161 15.8072 49.0161 15.8072 49.0161 15.8072H49.0161C49.0161 15.8072 49.0161 15.8072 49.0161 15.8072C49.0161 15.8072 49.0161 15.8072 49.0161 15.8072C49.0161 15.8072 49.0161 15.8072 49.0161 15.8072H49.0161C49.0161 15.8072 49.0161 15.8072 49.0161 15.8072C49.0161 15.8072 49.0161 15.8072 49.0161 15.8072C49.0161 15.8072 49.0161 15.8072 49.0161 15.8072H49.0161C49.0161 15.8072 49.0161 15.8072 49.0161 15.8072C49.0161 15.8072 49.0161 15.8072 49.0161 15.8072C49.0161 15.8072 49.0161 15.8072 49.0161 15.8072H49.0161C49.0161 15.8072 49.0161 15.8072 49.0161 15.8072C49.0161 15.8072 49.0161 15.8072 49.0161 15.8072C49.0161 15.8072 49.0161 15.8072 49.0161 15.8072H49.0161C49.0161 15.8072 49.0161 15.8072 49.0161 15.8072C49.0161 15.8072 49.0161 15.8072 49.0161 15.8072C49.0161 15.8072 49.0161 15.8072 49.0161 15.8072H49.0161C49.0161 15.8072 49.0161 15.8072 49.0161 15.8072C49.0161 15.8072 49.0161 15.8072 49.0161 15.8072C49.0161 15.8072 49.0161 15.8072 49.0161 15.8072H49.0161C49.0161 15.8072 49.0161 15.8072 49.0161 15.8072C49.0161 15.8072 49.0161 15.8072 49.0161 15.8072C49.0161 15.8072 49.0161 15.8072 49.0161 15.8072H49.0161C49.0161 15.8072 49.0161 15.8072 49.0161 15.8072C49.0161 15.8072 49.0161 15.8072 49.0161 15.8072C49.0161 15.8072 49.0161 15.8072 49.0161 15.8072H49.0161C49.0161 15.8072 49.0161 15.8072 49.0161 15.8072C49.0161 15.8072 49.0161 15.8072 49.0161 15.8072C49.0161 15.8072 49.0161 15.8072 49.0161 15.8072H49.0161C49.0161 15.8072 49.0161 15.8072 49.0161 15.8072C49.0161 15.8072 49.0161 15.8072 49.0161 15.8072C49.0161 15.8072 49.0161 15.8072 49.0161 15.8072H49.0161C49.0161 15.8072 49.0161 15.8072 49.0161 15.8072C49.0161 15.8072 49.0161 15.8072 49.0161 15.8072H49.0161H49.0161C49.0161 15.8072 49.0161 15.8072 49.0161 15.8072C49.0161 15.8072 49.0161 15.8072 49.0161 15.8072H49.0161H49.0161C49.0161 15.8072 49.0161 15.8072 49.0161 15.8072C49.0161 15.8072 49.0161 15.8072 49.0161 15.8072H49.0161H49.0161C49.0161 15.8072 49.0161 15.8072 49.0161 15.8072C49.0161 15.8072 49.0161 15.8072 49.0161 15.8072H49.0161H49.0161C49.0161 15.8072 49.0161 15.8072 49.0161 15.8072C49.0161 15.8072 49.0161 15.8072 49.0161 15.8072H49.0161H49.0161C49.0161 15.8072 49.0161 15.8072 49.0161 15.8072C49.0161 15.8072 49.0161 15.8072 49.0161 15.8072H49.0161C49.0161 15.8072 49.0161 15.8072 49.0161 15.8072C49.0161 15.8072 49.0161 15.8072 49.0161 15.8072C49.0161 15.8072 49.0161 15.8072 49.0161 15.8072H49.0161C49.0161 15.8072 49.0161 15.8072 49.0161 15.8072C49.0161 15.8072 49.0161 15.8072 49.0161 15.8072C49.0161 15.8072 49.0161 15.8072 49.0161 15.8072H49.0161C49.0161 15.8072 49.0161 15.8072 49.0161 15.8072C49.0161 15.8072 49.0161 15.8072 49.0161 15.8072C49.0161 15.8072 49.0161 15.8072 49.0161 15.8072H49.0161C49.0161 15.8072 49.0161 15.8072 49.0161 15.8072C49.0161 15.8072 49.0161 15.8072 49.0161 15.8072C49.0161 15.8072 49.0161 15.8072 49.0162 15.8072H49.0162C49.0162 15.8072 49.0162 15.8072 49.0162 15.8072C49.0162 15.8072 49.0162 15.8072 49.0162 15.8072C49.0162 15.8072 49.0162 15.8072 49.0162 15.8072H49.0162C49.0162 15.8072 49.0162 15.8072 49.0162 15.8072C49.0162 15.8072 49.0162 15.8072 49.0162 15.8072C49.0162 15.8072 49.0162 15.8072 49.0162 15.8072H49.0162C49.0162 15.8072 49.0162 15.8072 49.0162 15.8072C49.0162 15.8072 49.0162 15.8072 49.0162 15.8072H49.0162H49.0162C49.0162 15.8072 49.0162 15.8072 49.0162 15.8072V14.2072C49.0162 14.2072 49.0162 14.2072 49.0162 14.2072H49.0162H49.0162C49.0162 14.2072 49.0162 14.2072 49.0162 14.2072C49.0162 14.2072 49.0162 14.2072 49.0162 14.2072H49.0162C49.0162 14.2072 49.0162 14.2072 49.0162 14.2072C49.0162 14.2072 49.0162 14.2072 49.0162 14.2072C49.0162 14.2072 49.0162 14.2072 49.0162 14.2072H49.0162C49.0162 14.2072 49.0162 14.2072 49.0162 14.2072C49.0162 14.2072 49.0162 14.2072 49.0162 14.2072C49.0162 14.2072 49.0162 14.2072 49.0162 14.2072H49.0162C49.0161 14.2072 49.0161 14.2072 49.0161 14.2072C49.0161 14.2072 49.0161 14.2072 49.0161 14.2072C49.0161 14.2072 49.0161 14.2072 49.0161 14.2072H49.0161C49.0161 14.2072 49.0161 14.2072 49.0161 14.2072C49.0161 14.2072 49.0161 14.2072 49.0161 14.2072C49.0161 14.2072 49.0161 14.2072 49.0161 14.2072H49.0161C49.0161 14.2072 49.0161 14.2072 49.0161 14.2072C49.0161 14.2072 49.0161 14.2072 49.0161 14.2072C49.0161 14.2072 49.0161 14.2072 49.0161 14.2072H49.0161C49.0161 14.2072 49.0161 14.2072 49.0161 14.2072C49.0161 14.2072 49.0161 14.2072 49.0161 14.2072C49.0161 14.2072 49.0161 14.2072 49.0161 14.2072H49.0161C49.0161 14.2072 49.0161 14.2072 49.0161 14.2072C49.0161 14.2072 49.0161 14.2072 49.0161 14.2072H49.0161H49.0161C49.0161 14.2072 49.0161 14.2072 49.0161 14.2072C49.0161 14.2072 49.0161 14.2072 49.0161 14.2072H49.0161H49.0161C49.0161 14.2072 49.0161 14.2072 49.0161 14.2072C49.0161 14.2072 49.0161 14.2072 49.0161 14.2072H49.0161H49.0161C49.0161 14.2072 49.0161 14.2072 49.0161 14.2072C49.0161 14.2072 49.0161 14.2072 49.0161 14.2072H49.0161H49.0161C49.0161 14.2072 49.0161 14.2072 49.0161 14.2072C49.0161 14.2072 49.0161 14.2072 49.0161 14.2072H49.0161H49.0161C49.0161 14.2072 49.0161 14.2072 49.0161 14.2072C49.0161 14.2072 49.0161 14.2072 49.0161 14.2072H49.0161C49.0161 14.2072 49.0161 14.2072 49.0161 14.2072C49.0161 14.2072 49.0161 14.2072 49.0161 14.2072C49.0161 14.2072 49.0161 14.2072 49.0161 14.2072H49.0161C49.0161 14.2072 49.0161 14.2072 49.0161 14.2072C49.0161 14.2072 49.0161 14.2072 49.0161 14.2072C49.0161 14.2072 49.0161 14.2072 49.0161 14.2072H49.0161C49.0161 14.2072 49.0161 14.2072 49.0161 14.2072C49.0161 14.2072 49.0161 14.2072 49.0161 14.2072C49.0161 14.2072 49.0161 14.2072 49.0161 14.2072H49.0161C49.0161 14.2072 49.0161 14.2072 49.0161 14.2072C49.0161 14.2072 49.0161 14.2072 49.0161 14.2072C49.0161 14.2072 49.0161 14.2072 49.0161 14.2072H49.0161C49.0161 14.2072 49.0161 14.2072 49.0161 14.2072C49.0161 14.2072 49.0161 14.2072 49.0161 14.2072C49.0161 14.2072 49.0161 14.2072 49.0161 14.2072H49.0161C49.0161 14.2072 49.0161 14.2072 49.0161 14.2072C49.0161 14.2072 49.0161 14.2072 49.0161 14.2072C49.0161 14.2072 49.0161 14.2072 49.0161 14.2072H49.0161C49.0161 14.2072 49.0161 14.2072 49.0161 14.2072C49.0161 14.2072 49.0161 14.2072 49.0161 14.2072C49.0161 14.2072 49.0161 14.2072 49.0161 14.2072H49.0161C49.0161 14.2072 49.0161 14.2072 49.0161 14.2072C49.0161 14.2072 49.0161 14.2072 49.0161 14.2072C49.0161 14.2072 49.0161 14.2072 49.0161 14.2072H49.0161C49.0161 14.2072 49.0161 14.2072 49.0161 14.2072C49.0161 14.2072 49.0161 14.2072 49.0161 14.2072C49.0161 14.2072 49.0161 14.2072 49.0161 14.2072H49.0161C49.0161 14.2072 49.0161 14.2072 49.0161 14.2072C49.0161 14.2072 49.0161 14.2072 49.0161 14.2072C49.0161 14.2072 49.0161 14.2072 49.0161 14.2072H49.0161C49.0161 14.2072 49.0161 14.2072 49.0161 14.2072C49.0161 14.2072 49.0161 14.2072 49.0161 14.2072C49.0161 14.2072 49.0161 14.2072 49.0161 14.2072H49.0161C49.0161 14.2072 49.0161 14.2072 49.0161 14.2072C49.0161 14.2072 49.0161 14.2072 49.0161 14.2072C49.0161 14.2072 49.0161 14.2072 49.0161 14.2072H49.0161C49.0161 14.2072 49.0161 14.2072 49.0161 14.2072C49.0161 14.2072 49.0161 14.2072 49.0161 14.2072C49.0161 14.2072 49.0161 14.2072 49.0161 14.2072H49.0161C49.0161 14.2072 49.0161 14.2072 49.0161 14.2072C49.0161 14.2072 49.0161 14.2072 49.0161 14.2072C49.0161 14.2072 49.0161 14.2072 49.0161 14.2072H49.0161C49.0161 14.2072 49.0161 14.2072 49.0161 14.2072C49.0161 14.2072 49.0161 14.2072 49.0161 14.2072C49.0161 14.2072 49.0161 14.2072 49.0161 14.2072H49.0161C49.0161 14.2072 49.0161 14.2072 49.0161 14.2072C49.0161 14.2072 49.0161 14.2072 49.0161 14.2072C49.0161 14.2072 49.0161 14.2072 49.0161 14.2072H49.0161C49.0161 14.2072 49.0161 14.2072 49.0161 14.2072C49.0161 14.2072 49.0161 14.2072 49.0161 14.2072C49.0161 14.2072 49.0161 14.2072 49.0161 14.2072H49.0161C49.0161 14.2072 49.0161 14.2072 49.0161 14.2072C49.0161 14.2072 49.0161 14.2072 49.0161 14.2072C49.0161 14.2072 49.0161 14.2072 49.0161 14.2072H49.0161C49.0161 14.2072 49.0161 14.2072 49.0161 14.2072C49.0161 14.2072 49.0161 14.2072 49.0161 14.2072C49.0161 14.2072 49.0161 14.2072 49.0161 14.2072H49.0161C49.0161 14.2072 49.0161 14.2072 49.0161 14.2072C49.0161 14.2072 49.0161 14.2072 49.0161 14.2072C49.0161 14.2072 49.0161 14.2072 49.0161 14.2072H49.0161C49.0161 14.2072 49.0161 14.2072 49.0161 14.2072C49.0161 14.2072 49.0161 14.2072 49.0161 14.2072C49.0161 14.2072 49.0161 14.2072 49.0161 14.2072H49.0161C49.0161 14.2072 49.0161 14.2072 49.0161 14.2072C49.0161 14.2072 49.0161 14.2072 49.0161 14.2072C49.0161 14.2072 49.0161 14.2072 49.0161 14.2072H49.0161C49.0161 14.2072 49.0161 14.2072 49.0161 14.2072C49.0161 14.2072 49.0161 14.2072 49.0161 14.2072C49.0161 14.2072 49.0161 14.2072 49.0161 14.2072H49.0161C49.0161 14.2072 49.0161 14.2072 49.0161 14.2072C49.0161 14.2072 49.0161 14.2072 49.0161 14.2072C49.0161 14.2072 49.0161 14.2072 49.0161 14.2072H49.0161C49.0161 14.2072 49.0161 14.2072 49.0161 14.2072C49.0161 14.2072 49.0161 14.2072 49.0161 14.2072C49.0161 14.2072 49.0161 14.2072 49.0161 14.2072H49.0161C49.0161 14.2072 49.0161 14.2072 49.0161 14.2072C49.0161 14.2072 49.0161 14.2072 49.0161 14.2072C49.0161 14.2072 49.0161 14.2072 49.0161 14.2072H49.0161C49.0161 14.2072 49.0161 14.2072 49.0161 14.2072C49.0161 14.2072 49.0161 14.2072 49.0161 14.2072C49.0161 14.2072 49.0161 14.2072 49.0161 14.2072H49.0161C49.0161 14.2072 49.0161 14.2072 49.0161 14.2072C49.0161 14.2072 49.0161 14.2072 49.0161 14.2072C49.0161 14.2072 49.0161 14.2072 49.0161 14.2072H49.0161C49.0161 14.2072 49.0161 14.2072 49.0161 14.2072C49.0161 14.2072 49.0161 14.2072 49.0161 14.2072C49.0161 14.2072 49.0161 14.2072 49.0161 14.2072H49.0161C49.0161 14.2072 49.0161 14.2072 49.0161 14.2072C49.0161 14.2072 49.0161 14.2072 49.0161 14.2072C49.0161 14.2072 49.0161 14.2072 49.0161 14.2072H49.0161C49.0161 14.2072 49.0161 14.2072 49.0161 14.2072C49.0161 14.2072 49.0161 14.2072 49.0161 14.2072C49.0161 14.2072 49.0161 14.2072 49.0161 14.2072H49.0161C49.0161 14.2072 49.0161 14.2072 49.0161 14.2072C49.0161 14.2072 49.0161 14.2072 49.0161 14.2072C49.0161 14.2072 49.0161 14.2072 49.0161 14.2072H49.0161C49.0161 14.2072 49.0161 14.2072 49.0161 14.2072C49.0161 14.2072 49.0161 14.2072 49.0161 14.2072C49.0161 14.2072 49.0161 14.2072 49.0161 14.2072H49.0161C49.0161 14.2072 49.0161 14.2072 49.0161 14.2072C49.0161 14.2072 49.0161 14.2072 49.0161 14.2072C49.0161 14.2072 49.0161 14.2072 49.0161 14.2072H49.0161C49.0161 14.2072 49.0161 14.2072 49.0161 14.2072C49.0161 14.2072 49.0161 14.2072 49.0161 14.2072C49.0161 14.2072 49.0161 14.2072 49.0161 14.2072H49.0161C49.0161 14.2072 49.0161 14.2072 49.0161 14.2072C49.0161 14.2072 49.0161 14.2072 49.0161 14.2072C49.0161 14.2072 49.0161 14.2072 49.0161 14.2072H49.0161C49.0161 14.2072 49.0161 14.2072 49.0161 14.2072C49.0161 14.2072 49.0161 14.2072 49.0161 14.2072C49.0161 14.2072 49.0161 14.2072 49.0161 14.2072H49.0161C49.0161 14.2072 49.0161 14.2072 49.0161 14.2072C49.0161 14.2072 49.0161 14.2072 49.0161 14.2072C49.0161 14.2072 49.0161 14.2072 49.0161 14.2072H49.0161C49.0161 14.2072 49.0161 14.2072 49.0161 14.2072C49.0161 14.2072 49.0161 14.2072 49.0161 14.2072C49.0161 14.2072 49.0161 14.2072 49.0161 14.2072H49.0161C49.0161 14.2072 49.0161 14.2072 49.0161 14.2072C49.0161 14.2072 49.0161 14.2072 49.0161 14.2072C49.0161 14.2072 49.0161 14.2072 49.0161 14.2072H49.0161C49.0161 14.2072 49.0161 14.2072 49.0161 14.2072C49.0161 14.2072 49.0161 14.2072 49.0161 14.2072C49.0161 14.2072 49.0161 14.2072 49.0161 14.2072H49.0161C49.0161 14.2072 49.0161 14.2072 49.0161 14.2072C49.0161 14.2072 49.0161 14.2072 49.0161 14.2072C49.0161 14.2072 49.0161 14.2072 49.0161 14.2072H49.0161C49.0161 14.2072 49.0161 14.2072 49.0161 14.2072C49.0161 14.2072 49.0161 14.2072 49.0161 14.2072C49.0161 14.2072 49.0161 14.2072 49.0161 14.2072H49.016C49.016 14.2072 49.016 14.2072 49.016 14.2072C49.016 14.2072 49.016 14.2072 49.016 14.2072C49.016 14.2072 49.016 14.2072 49.016 14.2072H49.016C49.016 14.2072 49.016 14.2072 49.016 14.2072C49.016 14.2072 49.016 14.2072 49.016 14.2072C49.016 14.2072 49.016 14.2072 49.016 14.2072H49.016C49.016 14.2072 49.016 14.2072 49.016 14.2072C49.016 14.2072 49.016 14.2072 49.016 14.2072C49.016 14.2072 49.016 14.2072 49.016 14.2072H49.016C49.016 14.2072 49.016 14.2072 49.016 14.2072C49.016 14.2072 49.016 14.2072 49.016 14.2072C49.016 14.2072 49.016 14.2072 49.016 14.2072H49.016C49.016 14.2072 49.016 14.2072 49.016 14.2072C49.016 14.2072 49.016 14.2072 49.016 14.2072H49.016H49.016C49.016 14.2072 49.016 14.2072 49.016 14.2072C49.016 14.2072 49.016 14.2072 49.016 14.2072H49.016H49.016C49.016 14.2072 49.016 14.2072 49.016 14.2072C49.016 14.2072 49.016 14.2072 49.016 14.2072H49.016H49.016C49.016 14.2072 49.016 14.2072 49.016 14.2072C49.016 14.2072 49.016 14.2072 49.016 14.2072H49.016H49.016C49.016 14.2072 49.016 14.2072 49.016 14.2072C49.016 14.2072 49.016 14.2072 49.016 14.2072H49.016H49.016C49.016 14.2072 49.016 14.2072 49.016 14.2072C49.016 14.2072 49.016 14.2072 49.016 14.2072H49.016C49.016 14.2072 49.016 14.2072 49.016 14.2072C49.016 14.2072 49.016 14.2072 49.016 14.2072C49.016 14.2072 49.016 14.2072 49.016 14.2072H49.016C49.016 14.2072 49.016 14.2072 49.016 14.2072C49.016 14.2072 49.016 14.2072 49.016 14.2072C49.016 14.2072 49.016 14.2072 49.016 14.2072H49.016C49.016 14.2072 49.016 14.2072 49.016 14.2072C49.016 14.2072 49.016 14.2072 49.016 14.2072C49.016 14.2072 49.016 14.2072 49.016 14.2072H49.016C49.016 14.2072 49.016 14.2072 49.016 14.2072C49.016 14.2072 49.016 14.2072 49.016 14.2072C49.016 14.2072 49.016 14.2072 49.016 14.2072H49.016C49.016 14.2072 49.016 14.2072 49.016 14.2072C49.016 14.2072 49.016 14.2072 49.016 14.2072C49.016 14.2072 49.016 14.2072 49.016 14.2072H49.016C49.016 14.2072 49.016 14.2072 49.016 14.2072C49.016 14.2072 49.016 14.2072 49.016 14.2072C49.016 14.2072 49.016 14.2072 49.016 14.2072H49.016C49.016 14.2072 49.016 14.2072 49.016 14.2072C49.016 14.2072 49.016 14.2072 49.016 14.2072H49.016H49.016C49.016 14.2072 49.016 14.2072 49.016 14.2072V15.8072ZM49.0162 14.2072H49.0141V15.8072H49.0162V14.2072ZM47.6642 8.62118C47.9323 8.35285 48.274 8.17009 48.6461 8.09601L48.3337 6.52681C47.6511 6.66269 47.0242 6.99795 46.5323 7.4903L47.6642 8.62118ZM48.6461 8.09601C49.0181 8.02194 49.4039 8.0599 49.7543 8.20508L50.3667 6.72693C49.7237 6.46053 49.0162 6.39093 48.3337 6.52681L48.6461 8.09601ZM49.7543 8.20508C50.1047 8.35025 50.4041 8.59613 50.6148 8.91168L51.9455 8.02324C51.5591 7.44451 51.0097 6.99334 50.3667 6.72693L49.7543 8.20508ZM50.6148 8.91168C50.8255 9.22727 50.9379 9.59816 50.9376 9.9774L52.5376 9.97838C52.5381 9.28232 52.3318 8.60193 51.9455 8.02324L50.6148 8.91168ZM50.9376 9.97789C50.9376 10.4976 50.7389 10.9775 50.3792 11.3341L51.5059 12.4702C52.1747 11.8069 52.5376 10.9154 52.5376 9.97789H50.9376ZM50.3745 11.3389C50.1971 11.5178 49.9861 11.6598 49.7535 11.7567L50.3689 13.2336C50.7965 13.0554 51.1844 12.7944 51.5106 12.4655L50.3745 11.3389ZM49.7535 11.7567C49.5209 11.8536 49.2714 11.9035 49.0194 11.9035V13.5035C49.4826 13.5035 49.9413 13.4117 50.3689 13.2336L49.7535 11.7567ZM49.0194 11.9035C48.7675 11.9035 48.518 11.8536 48.2854 11.7567L47.67 13.2336C48.0976 13.4117 48.5562 13.5035 49.0194 13.5035V11.9035ZM48.2854 11.7567C48.0527 11.6597 47.8416 11.5177 47.6642 11.3389L46.5281 12.4655C46.8544 12.7945 47.2425 13.0555 47.67 13.2336L48.2854 11.7567ZM47.6635 11.3382C47.3044 10.9769 47.1028 10.4882 47.1028 9.97893H45.5028C45.5028 10.911 45.8717 11.8052 46.5288 12.4662L47.6635 11.3382ZM47.1028 9.97893C47.1028 9.46964 47.3044 8.98101 47.6635 8.61976L46.5288 7.49171C45.8717 8.15267 45.5028 9.04683 45.5028 9.97893H47.1028ZM47.0962 8.85574H47.0983V7.25574H47.0962V8.85574ZM49.016 15.0072L49.0118 16.6072L49.0166 16.6072L49.016 15.0072ZM52.5711 13.5329L51.4435 12.3978L51.4372 12.4041L52.5711 13.5329ZM54.0476 9.97573H52.4476L52.4476 9.97863L54.0476 9.97573ZM52.5732 6.42714L51.4425 7.55915L51.4432 7.55979L52.5732 6.42714ZM45.4676 6.42714L44.3368 5.29513L44.3345 5.29753L45.4676 6.42714ZM44.0961 8.99925L42.5267 8.6879L44.0961 8.99925ZM44.3819 11.9L42.9034 12.5115L44.3819 11.9ZM46.2286 14.1552L47.1196 12.8262L46.2286 14.1552ZM49.0166 16.6072C50.7905 16.6065 52.462 15.9104 53.7051 14.6617L51.4372 12.4041C50.7955 13.0487 49.9401 13.4069 49.0154 13.4072L49.0166 16.6072ZM53.6988 14.6679C54.3178 14.0529 54.8087 13.3214 55.1432 12.5155L52.1877 11.2888C52.0153 11.704 51.7624 12.081 51.4435 12.3978L53.6988 14.6679ZM55.1432 12.5155C55.4777 11.7097 55.6492 10.8455 55.6476 9.97282L52.4476 9.97863C52.4485 10.4281 52.3601 10.8734 52.1877 11.2888L55.1432 12.5155ZM55.6476 9.97573C55.6476 8.20446 54.9494 6.53772 53.7033 5.29449L51.4432 7.55979C52.0914 8.20656 52.4476 9.05986 52.4476 9.97573H55.6476ZM53.704 5.29514C51.1713 2.76527 46.8635 2.77131 44.3368 5.29514L46.5983 7.55915C47.8774 6.28155 50.1609 6.27902 51.4425 7.55915L53.704 5.29514ZM44.3345 5.29753C43.4105 6.22439 42.7814 7.40409 42.5267 8.6879L45.6655 9.3106C45.7973 8.64655 46.1227 8.03626 46.6007 7.55676L44.3345 5.29753ZM42.5267 8.6879C42.272 9.97181 42.4032 11.3022 42.9034 12.5115L45.8604 11.2885C45.6016 10.6628 45.5338 9.97456 45.6655 9.3106L42.5267 8.6879ZM42.9034 12.5115C43.4036 13.721 44.2505 14.7553 45.3376 15.4841L47.1196 12.8262C46.5573 12.4492 46.1192 11.9142 45.8604 11.2885L42.9034 12.5115ZM45.3376 15.4841C46.4246 16.2129 47.703 16.6037 49.0118 16.6072L49.0203 13.4072C48.3433 13.4054 47.682 13.2033 47.1196 12.8262L45.3376 15.4841Z" fill="#FB4B00" mask="url(#path-2-inside-1)"/>
<path d="M33.5749 18.5098C33.8808 18.5098 34.1743 18.6306 34.3914 18.846C34.6068 19.0632 34.7277 19.3566 34.7277 19.6625C34.7277 19.9683 34.6068 20.2617 34.3914 20.4789L20.6643 34.2018C20.4482 34.4174 20.1553 34.5385 19.85 34.5385C19.5447 34.5385 19.2518 34.4174 19.0357 34.2018C18.9281 34.0952 18.8427 33.9683 18.7844 33.8286C18.7262 33.6888 18.6963 33.5389 18.6963 33.3875C18.6963 33.2361 18.7262 33.0862 18.7844 32.9464C18.8427 32.8066 18.9281 32.6798 19.0357 32.5732L32.7585 18.846C32.9757 18.6306 33.2691 18.5098 33.5749 18.5098Z" fill="#FFC700"/>
<path d="M25.3229 40.016C25.0169 40.016 24.7232 39.8948 24.5064 39.6789C24.3989 39.5718 24.3138 39.4446 24.2556 39.3045C24.1975 39.1644 24.1675 39.0142 24.1675 38.8625C24.1675 38.7108 24.1975 38.5606 24.2556 38.4205C24.3138 38.2804 24.3989 38.1532 24.5064 38.0461L38.2378 24.3189C38.345 24.212 38.4723 24.1272 38.6123 24.0694C38.7523 24.0117 38.9021 23.9821 39.0536 23.9823C39.205 23.9825 39.3549 24.0125 39.4947 24.0706C39.6345 24.1287 39.7616 24.2138 39.8685 24.321C39.9754 24.4282 40.0603 24.5555 40.1181 24.6955C40.1758 24.8354 40.2054 24.9854 40.2052 25.1369C40.205 25.2883 40.175 25.4381 40.1169 25.578C40.0588 25.7178 39.9736 25.8448 39.8664 25.9518L26.1393 39.6789C25.9224 39.8948 25.6289 40.016 25.3229 40.016Z" fill="#FFC700"/>
</svg>
