<svg width="60" height="60" viewBox="0 0 60 60" fill="none" xmlns="http://www.w3.org/2000/svg">
<path d="M11.5857 9.03125C11.8661 9.0318 12.1378 8.9341 12.3536 8.7551C12.9536 8.26282 13.5535 7.79456 14.1894 7.35031C14.319 7.26004 14.4296 7.14511 14.5148 7.01208C14.6 6.87905 14.6582 6.73053 14.686 6.575C14.7139 6.41947 14.7109 6.25997 14.6771 6.10561C14.6434 5.95125 14.5796 5.80505 14.4894 5.67536C14.3992 5.54567 14.2843 5.43504 14.1514 5.34976C14.0184 5.26449 13.87 5.20626 13.7146 5.17838C13.5592 5.15051 13.3998 5.15355 13.2455 5.18731C13.0913 5.22108 12.9452 5.28492 12.8156 5.37519C12.1317 5.85546 11.4597 6.36575 10.8238 6.90005C10.6336 7.0578 10.4966 7.27047 10.4317 7.50901C10.3668 7.74756 10.377 8.00035 10.461 8.23285C10.545 8.46535 10.6987 8.66624 10.9011 8.80806C11.1035 8.94988 11.3446 9.02573 11.5917 9.02525L11.5857 9.03125ZM5.95238 14.0801C6.08207 14.1716 6.22862 14.2365 6.38353 14.271C6.53845 14.3055 6.69867 14.3088 6.8549 14.2809C7.01113 14.253 7.16028 14.1944 7.2937 14.1084C7.42712 14.0224 7.54217 13.9107 7.63218 13.7799C8.08213 13.1796 8.56207 12.5492 9.06601 11.9789C9.23479 11.7359 9.30795 11.4391 9.27147 11.1455C9.23498 10.8518 9.09142 10.582 8.86832 10.3878C8.64522 10.1936 8.35831 10.0886 8.06264 10.0931C7.76696 10.0976 7.48335 10.2111 7.26623 10.412C6.72029 11.0484 6.19835 11.7088 5.71241 12.3811C5.61506 12.5078 5.54396 12.6527 5.50328 12.8072C5.4626 12.9618 5.45316 13.1229 5.47551 13.2811C5.49786 13.4393 5.55155 13.5915 5.63344 13.7287C5.71532 13.8659 5.82376 13.9854 5.95238 14.0801ZM2.75476 20.5578C3.05073 20.6737 3.38057 20.6673 3.67188 20.5402C3.9632 20.413 4.19218 20.1753 4.30858 19.8794C4.59054 19.165 4.9085 18.4566 5.24446 17.7662C5.31419 17.6247 5.35538 17.4708 5.36567 17.3134C5.37597 17.1559 5.35518 16.998 5.30449 16.8486C5.25379 16.6992 5.17419 16.5612 5.07022 16.4426C4.96625 16.324 4.83995 16.227 4.69853 16.1573C4.55711 16.0875 4.40335 16.0463 4.24601 16.036C4.08868 16.0257 3.93086 16.0465 3.78156 16.0972C3.63226 16.1479 3.49441 16.2276 3.37587 16.3316C3.25734 16.4357 3.16044 16.5621 3.09072 16.7036C2.71876 17.454 2.3768 18.2284 2.07084 19.0029C2.01364 19.1499 1.98596 19.3068 1.98938 19.4645C1.9928 19.6222 2.02726 19.7778 2.09077 19.9222C2.15429 20.0666 2.24562 20.197 2.35956 20.3061C2.47349 20.4151 2.60778 20.5007 2.75476 20.5578ZM1.27293 27.6297H1.42292C1.7177 27.6319 2.00294 27.5253 2.22424 27.3305C2.44554 27.1356 2.58741 26.866 2.62278 26.5731C2.71876 25.8107 2.84475 25.0483 3.00073 24.2919C3.06597 23.9798 3.00464 23.6546 2.83026 23.3877C2.65587 23.1209 2.3827 22.9343 2.07084 22.8691C1.75898 22.8038 1.43398 22.8651 1.16734 23.0396C0.900692 23.2142 0.714243 23.4875 0.649008 23.7996C0.481028 24.616 0.343044 25.4505 0.241056 26.279C0.219966 26.4355 0.229944 26.5947 0.270417 26.7473C0.31089 26.9 0.381063 27.0431 0.476917 27.1686C0.572771 27.2941 0.692422 27.3994 0.829016 27.4785C0.96561 27.5577 1.11646 27.609 1.27293 27.6297ZM17.663 5.14106C17.8413 5.14188 18.0176 5.10291 18.1789 5.027C18.8689 4.69681 19.5828 4.39664 20.3027 4.12649C20.4504 4.07091 20.5857 3.98676 20.701 3.87884C20.8162 3.77092 20.909 3.64135 20.9742 3.49752C21.0394 3.3537 21.0756 3.19843 21.0808 3.04059C21.0861 2.88276 21.0601 2.72543 21.0046 2.57761C20.9491 2.42979 20.865 2.29437 20.7571 2.17907C20.6493 2.06377 20.5198 1.97086 20.3761 1.90563C20.2323 1.84041 20.0772 1.80415 19.9194 1.79894C19.7617 1.79372 19.6045 1.81964 19.4568 1.87522C18.6769 2.16938 17.897 2.47556 17.1471 2.85377C16.8998 2.97009 16.6995 3.1674 16.5795 3.41306C16.4595 3.65873 16.4269 3.93803 16.4871 4.20476C16.5472 4.4715 16.6966 4.70969 16.9104 4.87995C17.1242 5.05021 17.3897 5.14232 17.663 5.14106ZM51.565 12.7594C51.7639 13.0085 52.0535 13.1684 52.3703 13.2039C52.687 13.2394 53.0048 13.1475 53.2538 12.9485C53.5028 12.7494 53.6626 12.4596 53.698 12.1427C53.7335 11.8257 53.6417 11.5077 53.4428 11.2585C52.9208 10.6101 52.3689 9.96778 51.793 9.36144C51.5742 9.12978 51.2724 8.99457 50.954 8.98556C50.6356 8.97655 50.3267 9.09449 50.0952 9.31341C49.8637 9.53234 49.7285 9.83433 49.7195 10.1529C49.7105 10.4716 49.8284 10.7807 50.0472 11.0124C50.5751 11.5707 51.085 12.159 51.565 12.7594ZM1.5849 34.8458C1.74132 34.8258 1.89228 34.7751 2.02912 34.6967C2.16597 34.6183 2.28602 34.5136 2.38241 34.3887C2.47881 34.2638 2.54965 34.1212 2.59089 33.9688C2.63214 33.8165 2.64297 33.6576 2.62278 33.5011C2.52679 32.7446 2.46079 31.9702 2.4008 31.1898C2.38728 30.8713 2.24789 30.5713 2.01331 30.3557C1.77873 30.1401 1.46817 30.0266 1.14995 30.0401C0.831726 30.0536 0.53191 30.1931 0.316456 30.4279C0.101003 30.6626 -0.0124402 30.9734 0.00108426 31.2918C0.03708 32.1263 0.109072 32.9668 0.21106 33.7952C0.247785 34.087 0.390237 34.3551 0.611399 34.5488C0.832562 34.7424 1.11705 34.8481 1.41092 34.8458H1.5849ZM56.7064 23.0131C56.8984 23.7516 57.0603 24.514 57.1923 25.2704C57.2149 25.4295 57.2692 25.5824 57.352 25.7201C57.4347 25.8578 57.5442 25.9774 57.674 26.072C57.8038 26.1665 57.9513 26.2341 58.1076 26.2706C58.264 26.3071 58.4261 26.3118 58.5843 26.2845C58.7425 26.2572 58.8936 26.1983 59.0287 26.1115C59.1638 26.0247 59.2801 25.9116 59.3707 25.779C59.4613 25.6463 59.5244 25.4968 59.5563 25.3394C59.5881 25.1819 59.588 25.0196 59.556 24.8622C59.4121 24.0397 59.2381 23.2113 59.0281 22.4068C58.9937 22.249 58.9278 22.0998 58.8344 21.968C58.741 21.8363 58.622 21.7248 58.4846 21.6402C58.3471 21.5555 58.194 21.4995 58.0344 21.4755C57.8747 21.4515 57.7119 21.4599 57.5557 21.5003C57.3994 21.5407 57.2529 21.6123 57.1249 21.7107C56.9969 21.809 56.89 21.9323 56.8107 22.073C56.7315 22.2136 56.6813 22.3689 56.6634 22.5294C56.6455 22.6899 56.6601 22.8524 56.7064 23.0071V23.0131ZM24.5142 2.89579C24.59 2.90303 24.6663 2.90303 24.7422 2.89579C25.4921 2.75171 26.266 2.63765 27.0279 2.5536C27.3461 2.51937 27.6377 2.36004 27.8385 2.11066C28.0394 1.86129 28.133 1.54229 28.0988 1.22385C28.0646 0.90541 27.9053 0.613613 27.6561 0.412648C27.4069 0.211683 27.0881 0.118014 26.7699 0.152246C25.942 0.242297 25.1021 0.368368 24.2862 0.524456C23.968 0.554708 23.6748 0.71022 23.4712 0.956782C23.2675 1.20334 23.1701 1.52076 23.2003 1.8392C23.2306 2.15764 23.386 2.45102 23.6324 2.6548C23.8788 2.85857 24.196 2.95606 24.5142 2.92581V2.89579ZM44.7078 6.61789C45.3557 7.02612 45.9977 7.47037 46.6096 7.93263C46.8641 8.11274 47.1786 8.18668 47.4866 8.1388C47.7946 8.09092 48.0719 7.92498 48.2598 7.67612C48.4477 7.42725 48.5314 7.11498 48.4932 6.80542C48.4551 6.49586 48.2981 6.2133 48.0554 6.01755C47.3895 5.51327 46.6936 5.033 45.9917 4.58875C45.7233 4.43745 45.4071 4.3952 45.1085 4.47077C44.8099 4.54633 44.5518 4.73391 44.3875 4.99467C44.2233 5.25543 44.1656 5.56939 44.2264 5.87156C44.2871 6.17372 44.4616 6.44094 44.7138 6.61789H44.7078ZM31.6473 2.42153C32.4153 2.46955 33.1892 2.5476 33.9451 2.65566H34.1191C34.4373 2.67795 34.7513 2.57283 34.9921 2.36342C35.2329 2.15401 35.3806 1.85747 35.4029 1.53903C35.4252 1.22059 35.3201 0.906337 35.1109 0.665404C34.9016 0.424471 34.6053 0.276594 34.287 0.254303C33.4651 0.134236 32.6252 0.0501883 31.7913 0.00216122C31.4731 -0.0169451 31.1603 0.0912306 30.9218 0.302891C30.6833 0.514551 30.5386 0.812358 30.5195 1.1308C30.5004 1.44924 30.6085 1.76222 30.82 2.0009C31.0315 2.23959 31.3291 2.38441 31.6473 2.40352V2.42153ZM55.7945 42.8123C55.6563 42.736 55.5044 42.6877 55.3475 42.6703C55.1906 42.6528 55.0318 42.6665 54.8802 42.7106C54.7287 42.7546 54.5872 42.8282 54.4641 42.927C54.341 43.0259 54.2385 43.1481 54.1627 43.2866C53.7907 43.959 53.3888 44.6253 52.9628 45.2617C52.7862 45.5268 52.7221 45.8512 52.7845 46.1637C52.847 46.4761 53.0309 46.7509 53.2958 46.9276C53.5607 47.1044 53.8849 47.1685 54.1971 47.1061C54.5094 47.0436 54.784 46.8595 54.9606 46.5944C55.4225 45.8981 55.8605 45.1776 56.2624 44.4452C56.3389 44.3073 56.3875 44.1556 56.4054 43.9989C56.4233 43.8421 56.4101 43.6834 56.3666 43.5317C56.3232 43.3801 56.2503 43.2385 56.1521 43.115C56.0539 42.9916 55.9324 42.8887 55.7945 42.8123ZM50.1252 48.8817C49.5972 49.44 49.0453 49.9864 48.4754 50.5026C48.2367 50.716 48.0925 51.0155 48.0745 51.3352C48.0565 51.655 48.1662 51.9688 48.3794 52.2076C48.5926 52.4464 48.8919 52.5907 49.2114 52.6087C49.5309 52.6268 49.8445 52.517 50.0832 52.3037C50.6831 51.7453 51.283 51.157 51.883 50.5447C52.1009 50.3122 52.2177 50.0026 52.2076 49.684C52.1975 49.3654 52.0613 49.0638 51.829 48.8457C51.5967 48.6276 51.2873 48.5107 50.9689 48.5209C50.6505 48.531 50.3491 48.6673 50.1312 48.8997L50.1252 48.8817ZM6.40833 44.3312C6.24047 44.0597 5.97171 43.8661 5.66119 43.7929C5.35066 43.7197 5.02381 43.773 4.75252 43.9409C4.48124 44.1089 4.28775 44.3779 4.21462 44.6886C4.14149 44.9993 4.19471 45.3264 4.36257 45.5979C4.79452 46.3063 5.26246 47.0087 5.75441 47.6871C5.94216 47.9442 6.2243 48.1162 6.53876 48.1651C6.85322 48.2141 7.17424 48.1361 7.43121 47.9482C7.68817 47.7603 7.86003 47.478 7.90897 47.1633C7.95791 46.8486 7.87993 46.5274 7.69218 46.2703C7.24223 45.6339 6.81028 44.9975 6.40833 44.3312ZM58.1942 35.9925C57.8864 35.9141 57.56 35.9611 57.2867 36.1231C57.0134 36.2852 56.8155 36.5491 56.7364 36.8569C56.5444 37.6014 56.3224 38.3458 56.0705 39.0662C55.9662 39.3671 55.9858 39.6972 56.1247 39.9837C56.2637 40.2702 56.5107 40.4898 56.8114 40.5941C57.1121 40.6983 57.4419 40.6788 57.7282 40.5398C58.0146 40.4007 58.234 40.1536 58.3382 39.8526C58.6142 39.0662 58.8541 38.2557 59.0641 37.4513C59.1028 37.2983 59.111 37.1393 59.0882 36.9832C59.0654 36.827 59.0121 36.677 58.9313 36.5415C58.8505 36.406 58.7438 36.2878 58.6173 36.1936C58.4909 36.0994 58.3471 36.031 58.1942 35.9925ZM44.7978 53.3002C44.1499 53.7145 43.4779 54.0987 42.8 54.4589C42.5261 54.6112 42.3227 54.8647 42.2331 55.1652C42.1435 55.4656 42.175 55.7893 42.3207 56.0668C42.4665 56.3444 42.7149 56.5539 43.013 56.6506C43.3111 56.7472 43.6352 56.7234 43.9159 56.5841C44.6538 56.1999 45.3857 55.7736 46.0876 55.3234C46.2266 55.2415 46.3476 55.1326 46.4435 55.0029C46.5394 54.8732 46.6082 54.7256 46.6458 54.5687C46.6834 54.4119 46.689 54.2491 46.6623 54.09C46.6357 53.9309 46.5772 53.7788 46.4905 53.6428C46.4039 53.5069 46.2907 53.3898 46.1577 53.2985C46.0248 53.2073 45.8749 53.1438 45.7169 53.1118C45.5589 53.0798 45.3961 53.08 45.2382 53.1124C45.0803 53.1448 44.9305 53.2086 44.7978 53.3002ZM57.5943 29.869V29.9891C57.5943 30.7635 57.5643 31.5379 57.4983 32.3004C57.4734 32.6171 57.575 32.9308 57.7808 33.1727C57.9865 33.4146 58.2798 33.5651 58.5962 33.5911H58.6982C58.9995 33.5922 59.2902 33.4798 59.5125 33.2763C59.7348 33.0727 59.8724 32.7929 59.898 32.4925C59.964 31.664 60 30.8235 60 29.9831V29.863C60 29.5446 59.8736 29.2392 59.6486 29.014C59.4236 28.7888 59.1184 28.6623 58.8001 28.6623C58.4819 28.6623 58.1767 28.7888 57.9517 29.014C57.7267 29.2392 57.6003 29.5446 57.6003 29.863L57.5943 29.869ZM38.5465 56.2539C37.8206 56.494 37.0707 56.6981 36.3208 56.8542C36.1608 56.8833 36.0084 56.9447 35.8729 57.0346C35.7373 57.1244 35.6214 57.2409 35.5322 57.377C35.443 57.513 35.3824 57.6658 35.354 57.826C35.3257 57.9863 35.3301 58.1506 35.3672 58.309C35.4042 58.4675 35.4731 58.6167 35.5695 58.7477C35.666 58.8787 35.788 58.9887 35.9283 59.0711C36.0685 59.1534 36.224 59.2064 36.3853 59.2268C36.5467 59.2471 36.7104 59.2345 36.8667 59.1895C37.6766 58.9974 38.4925 58.7693 39.2664 58.5112C39.5578 58.4038 39.7962 58.1876 39.9316 57.9081C40.067 57.6285 40.0888 57.3073 39.9925 57.012C39.8962 56.7167 39.6892 56.4702 39.4151 56.3243C39.141 56.1785 38.8211 56.1446 38.5225 56.2299L38.5465 56.2539ZM10.7158 49.7462C10.6051 49.6273 10.4715 49.5322 10.3229 49.4665C10.1744 49.4008 10.0141 49.366 9.85173 49.3642C9.68936 49.3623 9.5283 49.3935 9.37831 49.4557C9.22832 49.518 9.09252 49.61 8.97914 49.7263C8.86575 49.8427 8.77713 49.9808 8.71865 50.1324C8.66018 50.284 8.63306 50.4459 8.63894 50.6082C8.64482 50.7706 8.68357 50.9301 8.75286 51.0771C8.82214 51.224 8.92051 51.3554 9.04202 51.4632C9.64195 52.0635 10.2419 52.6098 10.9078 53.1441C11.1539 53.3373 11.4656 53.4267 11.7765 53.3933C12.0875 53.3598 12.3731 53.2062 12.5726 52.9651C12.772 52.7241 12.8695 52.4146 12.8443 52.1027C12.8191 51.7907 12.6732 51.501 12.4376 51.2951C11.8437 50.8028 11.2678 50.2865 10.7158 49.7462ZM24.8561 57.1244C24.1002 56.9803 23.3443 56.8062 22.6064 56.6021C22.4523 56.5516 22.2896 56.533 22.1281 56.5472C21.9666 56.5614 21.8097 56.6082 21.6667 56.6848C21.5238 56.7614 21.3979 56.8662 21.2966 56.9929C21.1953 57.1195 21.1206 57.2654 21.0772 57.4217C21.0338 57.578 21.0225 57.7415 21.044 57.9023C21.0655 58.0631 21.1193 58.2179 21.2022 58.3573C21.2852 58.4967 21.3955 58.6179 21.5265 58.7135C21.6575 58.809 21.8065 58.877 21.9645 58.9134C22.7624 59.1355 23.5903 59.3276 24.4122 59.4837C24.486 59.4908 24.5604 59.4908 24.6342 59.4837C24.7917 59.4983 24.9506 59.4817 25.1018 59.4348C25.2529 59.388 25.3934 59.3118 25.5151 59.2106C25.6368 59.1094 25.7374 58.9852 25.8112 58.8451C25.885 58.705 25.9304 58.5518 25.945 58.3941C25.9596 58.2364 25.943 58.0774 25.8962 57.9262C25.8493 57.7749 25.7732 57.6344 25.6721 57.5126C25.571 57.3908 25.4469 57.2901 25.3069 57.2163C25.1669 57.1424 25.0137 57.0969 24.8561 57.0824V57.1244ZM31.7613 57.5506C30.9994 57.5987 30.2195 57.6167 29.4516 57.5986C29.1334 57.5915 28.8254 57.7111 28.5953 57.9312C28.3652 58.1513 28.2319 58.4539 28.2248 58.7723C28.2176 59.0908 28.3371 59.399 28.5571 59.6292C28.777 59.8595 29.0794 59.9928 29.3976 60H29.9975C30.6335 60 31.2754 60 31.9113 59.94C32.2295 59.9201 32.5268 59.7745 32.7378 59.5352C32.9487 59.296 33.0561 58.9827 33.0362 58.6642C33.0163 58.3458 32.8708 58.0483 32.6317 57.8372C32.3926 57.6261 32.0796 57.5187 31.7613 57.5386V57.5506Z" fill="#00ADEE"/>
<path d="M54.4062 15.0001C54.2492 15.0904 54.1146 15.2155 54.0128 15.3658L38.8104 31.0161L37.4691 29.7329L39.973 27.1545C40.3017 26.8164 40.5609 26.4165 40.7358 25.9776C40.9107 25.5387 40.9979 25.0695 40.9924 24.5966C40.9868 24.1238 40.8887 23.6568 40.7035 23.2221C40.5184 22.7875 40.2499 22.3938 39.9133 22.0637L36.6225 18.8377C35.9568 18.1861 35.0653 17.8206 34.1365 17.8183H34.0769C33.1283 17.8302 32.2234 18.2206 31.561 18.9036L29.0571 21.482L27.7515 20.1568L42.4113 5.05827C42.5222 4.94689 42.6101 4.81463 42.6701 4.66904C42.7301 4.52345 42.761 4.3674 42.761 4.2098C42.761 4.0522 42.7301 3.89614 42.6701 3.75056C42.6101 3.60497 42.5222 3.47271 42.4113 3.36133C42.3344 3.2882 42.2482 3.22569 42.1549 3.17544C42.1164 2.98323 42.0315 2.80345 41.9079 2.65187C41.7842 2.50029 41.6254 2.38153 41.4455 2.30599C40.6824 1.98819 39.8955 1.70636 39.1026 1.43653C38.8014 1.33952 38.4742 1.36683 38.193 1.51246C37.9118 1.65808 37.6996 1.91009 37.6032 2.21304C37.5067 2.516 37.5339 2.84508 37.6787 3.1279C37.8235 3.41071 38.074 3.6241 38.3752 3.7211C38.876 3.883 39.3768 4.06889 39.8716 4.26077L25.2535 19.2934C25.0354 19.5177 24.9135 19.8191 24.9137 20.1329C24.9137 20.6785 24.9137 20.7325 27.3878 23.1969L23.8108 26.8966C21.3188 24.4981 21.2592 24.4981 20.7405 24.4981C20.5818 24.498 20.4246 24.5298 20.2782 24.5915C20.1318 24.6533 19.9991 24.7439 19.888 24.8579L4.55454 40.6161C4.55269 40.4702 4.5244 40.326 4.47107 40.1903C4.19087 39.4828 3.93452 38.7452 3.71394 38.0137C3.66853 37.8629 3.59404 37.7226 3.49471 37.6007C3.39538 37.4789 3.27317 37.3779 3.13505 37.3036C2.99693 37.2293 2.8456 37.183 2.68971 37.1675C2.53382 37.152 2.37642 37.1675 2.2265 37.2132C2.07657 37.2589 1.93706 37.3338 1.81592 37.4337C1.69478 37.5336 1.5944 37.6565 1.52049 37.7954C1.44659 37.9344 1.40061 38.0866 1.38519 38.2434C1.36977 38.4002 1.3852 38.5585 1.43061 38.7093C1.66908 39.5068 1.94928 40.3043 2.25332 41.1078C2.34168 41.3309 2.49462 41.5222 2.69232 41.6569C2.89003 41.7916 3.1234 41.8635 3.3622 41.8633H3.52316C3.42804 42.1206 3.42356 42.4029 3.51045 42.6631C3.59734 42.9233 3.77035 43.1457 4.0006 43.293C4.23085 43.4404 4.50439 43.5039 4.77555 43.4728C5.04671 43.4418 5.29908 43.3182 5.49052 43.1225L20.7823 27.3344L22.1237 28.6176L19.6257 31.19C18.9637 31.8725 18.5981 32.7914 18.6093 33.7448C18.6205 34.6982 19.0075 35.6082 19.6853 36.2748L22.9762 39.5068C23.6547 40.1726 24.5683 40.5403 25.5163 40.5291C26.4642 40.5178 27.3689 40.1286 28.0317 39.4468L30.5356 36.8684C31.1318 37.4381 31.5372 37.8758 31.8412 38.1936L16.4779 54.0117L16.2812 53.9038C16.1455 53.817 15.9937 53.7588 15.835 53.7325C15.6764 53.7063 15.5141 53.7126 15.3579 53.751C15.2017 53.7895 15.0548 53.8594 14.9262 53.9564C14.7975 54.0535 14.6897 54.1757 14.6092 54.3157C14.5288 54.4557 14.4773 54.6107 14.4579 54.7712C14.4385 54.9318 14.4516 55.0947 14.4964 55.25C14.5412 55.4053 14.6168 55.5499 14.7186 55.6751C14.8204 55.8003 14.9464 55.9035 15.0889 55.9785C15.8102 56.3982 16.5495 56.788 17.3006 57.1418C17.5534 57.2525 17.8365 57.2716 18.1017 57.196C18.367 57.1204 18.598 56.9547 18.7554 56.7271C18.9128 56.4994 18.987 56.224 18.9652 55.9476C18.9435 55.6711 18.8271 55.4108 18.6361 55.211L34.3392 39.0571C34.5573 38.8327 34.6793 38.5313 34.679 38.2176C34.679 37.6719 34.679 37.618 32.2049 35.1535L35.7819 31.4538C38.2739 33.8523 38.3335 33.8523 38.8522 33.8523C39.0109 33.8524 39.1681 33.8207 39.3145 33.7589C39.4609 33.6971 39.5936 33.6066 39.7047 33.4925L54.6805 18.0642C54.7759 18.262 54.8712 18.4599 54.9607 18.6638C55.0903 18.954 55.3293 19.1806 55.625 19.2936C55.9207 19.4066 56.249 19.3968 56.5375 19.2664C56.8261 19.136 57.0513 18.8956 57.1637 18.5982C57.2761 18.3008 57.2663 17.9706 57.1367 17.6804C56.7969 16.9249 56.4213 16.1693 56.0159 15.4378L55.9861 15.3898L55.9503 15.3419C55.7789 15.105 55.5272 14.9395 55.2427 14.8765C54.9582 14.8136 54.6607 14.8575 54.4062 15.0001ZM26.3266 37.7858C26.2159 37.8973 26.0844 37.9858 25.9397 38.0462C25.7949 38.1065 25.6398 38.1376 25.4831 38.1376C25.3264 38.1376 25.1712 38.1065 25.0265 38.0462C24.8817 37.9858 24.7502 37.8973 24.6395 37.7858L21.3546 34.5539C21.2437 34.4425 21.1558 34.3102 21.0958 34.1646C21.0358 34.0191 21.0049 33.863 21.0049 33.7054C21.0049 33.5478 21.0358 33.3917 21.0958 33.2462C21.1558 33.1006 21.2437 32.9683 21.3546 32.8569L33.278 20.5646C33.3877 20.452 33.5184 20.3623 33.6627 20.3005C33.8069 20.2388 33.9618 20.2063 34.1186 20.2048C34.4337 20.2064 34.7364 20.3286 34.9651 20.5466L38.256 23.7786C38.3669 23.89 38.4548 24.0222 38.5148 24.1678C38.5748 24.3134 38.6057 24.4695 38.6057 24.6271C38.6057 24.7847 38.5748 24.9407 38.5148 25.0863C38.4548 25.2319 38.3669 25.3642 38.256 25.4755L26.3266 37.7858Z" fill="#FB4B00"/>
</svg>
