<svg width="67" height="60" viewBox="0 0 67 60" fill="none" xmlns="http://www.w3.org/2000/svg">
<path d="M65.6547 0H1.60134C1.17663 0 0.769329 0.168569 0.46902 0.468624C0.168712 0.768678 0 1.17564 0 1.59998V45.4394C0.00819907 45.8612 0.179543 46.2634 0.478093 46.5617C0.776642 46.86 1.1792 47.0312 1.60134 47.0394H33.1156L29.9129 52.3514C29.7724 52.5946 29.6984 52.8705 29.6984 53.1514C29.6984 53.4322 29.7724 53.7081 29.9129 53.9513C30.0527 54.1932 30.2533 54.3942 30.4949 54.5346C30.7365 54.6749 31.0106 54.7497 31.2901 54.7513H36.4784L39.1046 59.2313C39.2483 59.4671 39.4507 59.6618 39.692 59.7964C39.9333 59.931 40.2054 60.0009 40.4818 59.9993C40.7632 60.008 41.0415 59.9376 41.2849 59.7962C41.5284 59.6548 41.7272 59.448 41.8589 59.1993L46.3106 51.5514L50.7303 59.1993C50.862 59.448 51.0608 59.6548 51.3043 59.7962C51.5477 59.9376 51.826 60.008 52.1074 59.9993C52.3838 60.0009 52.6559 59.931 52.8972 59.7964C53.1385 59.6618 53.3409 59.4671 53.4846 59.2313L56.1108 54.7513H61.2991C61.5786 54.7497 61.8527 54.6749 62.0943 54.5346C62.3359 54.3942 62.5365 54.1932 62.6763 53.9513C62.8168 53.7081 62.8908 53.4322 62.8908 53.1514C62.8908 52.8705 62.8168 52.5946 62.6763 52.3514L59.4736 47.0394H65.3985C65.8232 47.0394 66.2305 46.8709 66.5308 46.5708C66.8311 46.2708 66.9999 45.8638 66.9999 45.4394V1.59998C67.0048 1.21648 66.8717 0.843967 66.6248 0.550295C66.3779 0.256623 66.0337 0.0613333 65.6547 0ZM40.4818 55.2633L38.7843 52.3834C38.6378 52.1476 38.4356 51.9514 38.1955 51.8119C37.9554 51.6725 37.6847 51.594 37.4072 51.5834H34.0764L38.1118 44.5435C38.1569 44.4897 38.2132 44.4464 38.2768 44.4167C38.3405 44.387 38.4099 44.3716 38.4801 44.3716C38.5503 44.3716 38.6197 44.387 38.6833 44.4167C38.747 44.4464 38.8033 44.4897 38.8484 44.5435C40.2133 46.0184 41.9333 47.12 43.8446 47.7434C43.9515 47.7774 44.0498 47.8343 44.1324 47.9102C44.2149 47.9862 44.2799 48.0793 44.3226 48.183C44.3654 48.2867 44.3848 48.3984 44.3797 48.5105C44.3746 48.6225 44.345 48.732 44.2929 48.8314L40.4818 55.2633ZM46.3106 44.8315C45.0438 44.8315 43.8054 44.4561 42.752 43.7529C41.6986 43.0496 40.8777 42.0501 40.3929 40.8807C39.908 39.7112 39.7812 38.4244 40.0284 37.183C40.2755 35.9415 40.8856 34.8012 41.7814 33.9061C42.6772 33.0111 43.8185 32.4015 45.061 32.1546C46.3035 31.9076 47.5914 32.0344 48.7618 32.5188C49.9323 33.0032 50.9326 33.8235 51.6365 34.8759C52.3403 35.9284 52.716 37.1657 52.716 38.4315C52.7163 40.107 52.0591 41.7157 50.8854 42.9123C49.7117 44.1089 48.1152 44.7979 46.4387 44.8315H46.3106ZM55.182 51.5834C54.9045 51.594 54.6338 51.6725 54.3937 51.8119C54.1536 51.9514 53.9514 52.1476 53.8049 52.3834L52.1074 55.2633L48.3603 48.8634C48.3022 48.7631 48.2686 48.6505 48.2622 48.5348C48.2559 48.4191 48.277 48.3035 48.3238 48.1974C48.3706 48.0914 48.4418 47.9979 48.5317 47.9246C48.6215 47.8512 48.7274 47.8001 48.8407 47.7754C50.7631 47.2344 52.4733 46.1175 53.7408 44.5755C53.7821 44.516 53.8371 44.4675 53.9013 44.434C53.9654 44.4005 54.0367 44.383 54.1091 44.383C54.1815 44.383 54.2528 44.4005 54.3169 44.434C54.3811 44.4675 54.4361 44.516 54.4774 44.5755L58.5128 51.6154L55.182 51.5834ZM63.9253 43.8395H57.8723L55.8866 40.3835C56.0155 39.7301 56.0798 39.0655 56.0788 38.3995C56.0788 35.8535 55.0665 33.4117 53.2646 31.6114C51.4628 29.8111 49.019 28.7997 46.4707 28.7997C43.9225 28.7997 41.4787 29.8111 39.6769 31.6114C37.875 33.4117 36.8627 35.8535 36.8627 38.3995C36.8617 39.0655 36.926 39.7301 37.0549 40.3835L35.0692 43.8395H3.20267V3.19996H64.0534L63.9253 43.8395Z" fill="#FB4B00"/>
<path d="M26.3537 39.0376L26.3054 39.0339H26.2569H11.6089H11.5604L11.512 39.0376C10.9669 39.08 10.419 39.0102 9.90286 38.833C9.38677 38.6557 8.91416 38.375 8.51443 38.0091C8.11473 37.6432 7.79658 37.2002 7.57927 36.7083C7.36197 36.2164 7.25 35.6858 7.25 35.1498C7.25 34.6138 7.36197 34.0833 7.57927 33.5914C7.79658 33.0995 8.11473 32.6564 8.51443 32.2906C8.91416 31.9247 9.38677 31.644 9.90286 31.4667C10.419 31.2894 10.9669 31.2197 11.512 31.262L11.5604 31.2658H11.6089H26.2569H26.3054L26.3537 31.262C26.8989 31.2197 27.4468 31.2894 27.9629 31.4667C28.479 31.644 28.9516 31.9247 29.3514 32.2906C29.7511 32.6564 30.0692 33.0995 30.2865 33.5914C30.5038 34.0833 30.6158 34.6138 30.6158 35.1498C30.6158 35.6858 30.5038 36.2164 30.2865 36.7083C30.0692 37.2002 29.7511 37.6432 29.3514 38.0091C28.9516 38.375 28.479 38.6557 27.9629 38.833C27.4468 39.0102 26.8989 39.08 26.3537 39.0376Z" stroke="#00ADEE" stroke-width="2.5"/>
<path d="M47.4046 36.8138H44.3729C43.9497 36.8138 43.5438 36.9802 43.2446 37.2765C42.9453 37.5727 42.7772 37.9745 42.7772 38.3935C42.7772 38.8125 42.9453 39.2143 43.2446 39.5105C43.5438 39.8068 43.9497 39.9732 44.3729 39.9732H47.4046C47.8278 39.9732 48.2336 39.8068 48.5329 39.5105C48.8321 39.2143 49.0002 38.8125 49.0002 38.3935C49.0002 37.9745 48.8321 37.5727 48.5329 37.2765C48.2336 36.9802 47.8278 36.8138 47.4046 36.8138ZM28.7356 11.1594H37.5435C37.9667 11.1594 38.3726 10.993 38.6718 10.6967C38.9711 10.4005 39.1392 9.99867 39.1392 9.5797C39.1392 9.16074 38.9711 8.75894 38.6718 8.46268C38.3726 8.16643 37.9667 8 37.5435 8H28.7356C28.3124 8 27.9066 8.16643 27.6073 8.46268C27.3081 8.75894 27.14 9.16074 27.14 9.5797C27.1481 9.99613 27.3189 10.3933 27.6164 10.6878C27.9138 10.9823 28.315 11.1513 28.7356 11.1594ZM20.8212 17.0991H45.2026C45.6258 17.0991 46.0316 16.9327 46.3309 16.6364C46.6301 16.3402 46.7982 15.9384 46.7982 15.5194C46.7982 15.1004 46.6301 14.6986 46.3309 14.4024C46.0316 14.1061 45.6258 13.9397 45.2026 13.9397H20.8212C20.398 13.9397 19.9922 14.1061 19.6929 14.4024C19.3937 14.6986 19.2256 15.1004 19.2256 15.5194C19.2256 15.9384 19.3937 16.3402 19.6929 16.6364C19.9922 16.9327 20.398 17.0991 20.8212 17.0991ZM20.8212 23.1967H45.2026C45.6258 23.1967 46.0316 23.0303 46.3309 22.7341C46.6301 22.4378 46.7982 22.036 46.7982 21.617C46.7982 21.1981 46.6301 20.7963 46.3309 20.5C46.0316 20.2038 45.6258 20.0373 45.2026 20.0373H20.8212C20.398 20.0373 19.9922 20.2038 19.6929 20.5C19.3937 20.7963 19.2256 21.1981 19.2256 21.617C19.2256 22.036 19.3937 22.4378 19.6929 22.7341C19.9922 23.0303 20.398 23.1967 20.8212 23.1967Z" fill="#00ADEE"/>
</svg>
