<svg width="60" height="60" viewBox="0 0 60 60" fill="none" xmlns="http://www.w3.org/2000/svg">
<path d="M29.9737 43.8323C29.3612 43.8323 28.7737 43.589 28.3406 43.1559C27.9074 42.7227 27.6641 42.1352 27.6641 41.5227V18.4259C27.6641 17.8133 27.9074 17.2258 28.3406 16.7927C28.7737 16.3596 29.3612 16.1162 29.9737 16.1162C30.5863 16.1162 31.1738 16.3596 31.6069 16.7927C32.0401 17.2258 32.2834 17.8133 32.2834 18.4259V41.5227C32.2834 42.1352 32.0401 42.7227 31.6069 43.1559C31.1738 43.589 30.5863 43.8323 29.9737 43.8323Z" fill="#FFC700"/>
<path d="M19.5799 31.1288C19.1232 31.1288 18.6767 30.9933 18.2969 30.7395C17.9171 30.4857 17.6211 30.125 17.4463 29.703C17.2715 29.281 17.2258 28.8166 17.3149 28.3686C17.404 27.9206 17.6239 27.5091 17.9469 27.1861L28.3404 16.7925C28.5539 16.5736 28.8087 16.3992 29.0901 16.2795C29.3715 16.1598 29.6738 16.0972 29.9796 16.0953C30.2853 16.0933 30.5884 16.1521 30.8713 16.2682C31.1542 16.3844 31.4112 16.5555 31.6274 16.7717C31.8436 16.9879 32.0147 17.2449 32.1309 17.5278C32.247 17.8106 32.3058 18.1138 32.3038 18.4195C32.3019 18.7253 32.2393 19.0276 32.1196 19.309C31.9999 19.5904 31.8255 19.8452 31.6066 20.0586L21.213 30.4522C20.9988 30.667 20.7442 30.8373 20.464 30.9535C20.1837 31.0696 19.8833 31.1292 19.5799 31.1288Z" fill="#FFC700"/>
<path d="M40.3671 31.1289C40.0638 31.1293 39.7633 31.0697 39.4831 30.9536C39.2028 30.8375 38.9483 30.6671 38.7341 30.4523L28.3405 20.0588C27.9164 19.6238 27.6808 19.0392 27.6846 18.4318C27.6885 17.8243 27.9315 17.2428 28.3611 16.8132C28.7906 16.3836 29.3721 16.1406 29.9796 16.1368C30.5871 16.1329 31.1716 16.3686 31.6066 16.7926L42.0002 27.1862C42.3231 27.5092 42.5431 27.9207 42.6322 28.3687C42.7213 28.8167 42.6755 29.2811 42.5007 29.7031C42.326 30.1251 42.03 30.4858 41.6502 30.7396C41.2704 30.9934 40.8239 31.1289 40.3671 31.1289Z" fill="#FFC700"/>
<path d="M29.9741 59.9999C23.6121 59.9944 17.4165 57.9665 12.2825 54.2092C7.14845 50.4519 3.34184 45.1597 1.4126 39.0972C-0.516646 33.0347 -0.468623 26.5159 1.54973 20.4825C3.56808 14.4491 7.45224 9.21359 12.6411 5.53232C17.8299 1.85104 24.0547 -0.0853531 30.4161 0.00288726C36.7775 0.0911276 42.9462 2.19944 48.0309 6.02322C53.1156 9.84699 56.8531 15.1882 58.7033 21.2753C60.5535 27.3623 60.4207 33.88 58.3241 39.8866C58.2275 40.1774 58.0741 40.446 57.8727 40.6769C57.6713 40.9078 57.426 41.0963 57.1511 41.2315C56.8761 41.3666 56.5771 41.4457 56.2712 41.4642C55.9654 41.4827 55.659 41.4401 55.3698 41.339C55.0806 41.2379 54.8144 41.0802 54.5867 40.8752C54.359 40.6702 54.1744 40.422 54.0436 40.145C53.9128 39.8679 53.8383 39.5677 53.8247 39.2616C53.8111 38.9555 53.8584 38.6498 53.9641 38.3622C56.078 32.3331 55.8454 25.7292 53.3125 19.8638C50.7795 13.9984 46.1318 9.30108 40.2936 6.70602C34.4554 4.11096 27.8543 3.80824 21.8031 5.85806C15.7519 7.90787 10.6938 12.1601 7.63461 17.769C4.57546 23.378 3.73938 29.9329 5.29263 36.1302C6.84587 42.3275 10.6747 47.7132 16.0176 51.2164C21.3606 54.7195 27.8263 56.0835 34.129 55.037C40.4317 53.9905 46.1096 50.6103 50.0338 45.5684C50.4119 45.0903 50.9636 44.781 51.5687 44.708C52.1739 44.6349 52.7833 44.804 53.2643 45.1784C53.7453 45.5528 54.0588 46.1022 54.1364 46.7068C54.2141 47.3113 54.0496 47.9221 53.6788 48.4059C50.8803 52.0257 47.2871 54.9538 43.177 56.964C39.0668 58.9743 34.5496 60.013 29.9741 59.9999Z" fill="#00ADEE"/>
</svg>
