<svg width="60" height="60" viewBox="0 0 60 60" fill="none" xmlns="http://www.w3.org/2000/svg">
<path fill-rule="evenodd" clip-rule="evenodd" d="M30.0064 41.9867C25.592 41.9737 21.2399 40.945 17.287 38.98C13.3341 37.0149 9.88649 34.1669 7.21119 30.6555C9.88572 27.1429 13.333 24.2928 17.286 22.3267C21.239 20.3606 25.5915 19.3305 30.0064 19.3171C34.4218 19.3301 38.7749 20.3606 42.7285 22.3267C46.682 24.2928 50.1298 27.1425 52.8046 30.6555C50.1293 34.1669 46.6817 37.0149 42.7288 38.98C38.7759 40.945 34.4237 41.9737 30.0094 41.9867H30.0064ZM60.0001 30.6555C54.0014 20.2987 42.8317 13.3184 30.0064 13.3184C17.1811 13.3184 6.01143 20.3017 0.0126953 30.6555C6.01143 41.0034 17.1811 47.9854 30.0064 47.9854C42.8317 47.9854 54.0014 41.0064 60.0001 30.6555Z" fill="#00ADEE"/>
<path d="M59.7713 55.8401C59.6206 55.4762 59.3997 55.1446 59.1212 54.8661L51.8267 47.5728C50.0632 48.6979 48.2162 49.6861 46.3019 50.5296L54.8801 59.1074C55.1586 59.3859 55.4892 59.607 55.853 59.7577C56.2169 59.9084 56.6068 59.9862 57.0006 59.9862C57.3945 59.9862 57.7844 59.9084 58.1483 59.7577C58.5121 59.607 58.8427 59.3859 59.1212 59.1074C59.3997 58.829 59.6206 58.4988 59.7713 58.135C59.922 57.7711 59.9996 57.3806 59.9996 56.9868C59.9996 56.593 59.922 56.2039 59.7713 55.8401Z" fill="#FB4B00"/>
<path d="M13.6957 50.5209C11.7791 49.675 9.93453 48.6843 8.1709 47.5625L0.879431 54.8515C0.600759 55.13 0.379657 55.46 0.228765 55.8239C0.0778736 56.1879 0.000139446 56.5782 0 56.9721C-0.000139071 57.3661 0.0773301 57.7563 0.227964 58.1203C0.378599 58.4844 0.599469 58.8156 0.877944 59.0943C1.15642 59.3729 1.48705 59.5936 1.85097 59.7445C2.21489 59.8954 2.60497 59.9728 2.99893 59.973C3.3929 59.9731 3.78301 59.8966 4.14704 59.746C4.51107 59.5953 4.84187 59.3742 5.12054 59.0957L13.6957 50.5209Z" fill="#FB4B00"/>
<path d="M0.0126953 2.99791C0.0126953 3.79327 0.328645 4.55615 0.891051 5.11855L9.00135 13.2292C10.8007 12.134 12.6819 11.1789 14.6282 10.3733L5.13216 0.877257C4.56976 0.314851 3.80697 0 3.01161 0C2.21625 0 1.45346 0.314851 0.891051 0.877257C0.328645 1.43966 0.0126953 2.20254 0.0126953 2.99791Z" fill="#FB4B00"/>
<path d="M45.3657 10.3674C47.3125 11.1717 49.1946 12.1249 50.9955 13.2174V13.2204L59.1088 5.10391C59.6552 4.53822 59.9575 3.77994 59.9507 2.99351C59.9438 2.20709 59.6284 1.45533 59.0723 0.899225C58.5162 0.343118 57.7639 0.0273373 56.9775 0.0205035C56.191 0.0136697 55.4334 0.316252 54.8677 0.862612L45.3657 10.3674Z" fill="#FB4B00"/>
<path d="M35.5475 31.9519C35.8494 31.224 36.005 30.4434 36.0054 29.6555C36.0062 28.0641 35.3748 26.5371 34.2501 25.4113C33.1254 24.2854 31.5995 23.6531 30.0081 23.6523C28.4168 23.6515 26.8903 24.2822 25.7644 25.4069C24.6386 26.5316 24.0057 28.0583 24.0049 29.6496C24.0045 30.4376 24.1593 31.2179 24.4605 31.946C24.7617 32.6741 25.2033 33.3349 25.7602 33.8924C26.3171 34.4498 26.9783 34.8924 27.7062 35.1944C28.434 35.4963 29.2142 35.6524 30.0021 35.6528C30.7901 35.6531 31.5704 35.4985 32.2986 35.1973C33.0267 34.8961 33.6884 34.4537 34.2458 33.8968C34.8033 33.3399 35.2456 32.6797 35.5475 31.9519Z" fill="#FFC700"/>
</svg>
