<svg width="55" height="56" viewBox="0 0 55 56" fill="none" xmlns="http://www.w3.org/2000/svg">
<path fill-rule="evenodd" clip-rule="evenodd" d="M24.8843 19.501L23.5586 20.8267L46.0989 43.3633L47.4246 42.0376L24.8843 19.501ZM22.2329 22.1523L20.9072 23.478L43.4475 46.0146L44.7732 44.689L22.2329 22.1523Z" fill="#00ADEE"/>
<path d="M42.6087 1.46484C41.0512 1.88032 39.6021 2.70249 38.4229 3.88183C36.152 6.15335 35.464 9.29616 36.0242 12.2278L29.0186 19.2334C28.9286 19.3198 28.8567 19.4233 28.8073 19.5378C28.7578 19.6522 28.7316 19.7755 28.7304 19.9002C28.7291 20.0249 28.7528 20.1487 28.7999 20.2641C28.8471 20.3796 28.9168 20.4845 29.005 20.5727C29.0932 20.6609 29.1981 20.7307 29.3135 20.7778C29.429 20.8249 29.5527 20.8486 29.6775 20.8473C29.8022 20.846 29.9254 20.8199 30.0399 20.7704C30.1544 20.7209 30.2579 20.6491 30.3443 20.5591L37.5989 13.3044C37.715 13.1881 37.7983 13.0433 37.8408 12.8845C37.8832 12.7257 37.8832 12.5586 37.8406 12.3999C37.181 9.90386 37.7945 7.16214 39.7486 5.20752C41.1502 3.80464 43.0437 3.28954 44.9744 3.27392L41.4039 6.84448C41.2807 6.96755 41.1942 7.1225 41.1541 7.29197C41.114 7.46143 41.1218 7.63872 41.1768 7.80395L42.6636 12.2681C42.7097 12.4062 42.7873 12.5318 42.8902 12.6348C42.9932 12.7377 43.1187 12.8153 43.2569 12.8613L47.7174 14.3481C47.8826 14.4031 48.0599 14.411 48.2294 14.3709C48.3988 14.3308 48.5538 14.2443 48.6768 14.1211L52.2474 10.5542C52.2305 12.483 51.718 14.3759 50.3175 15.7764C48.3633 17.7293 45.6165 18.3437 43.1214 17.6843C42.9632 17.6425 42.7969 17.6428 42.6388 17.6852C42.4808 17.7276 42.3365 17.8106 42.2205 17.926L34.9366 25.21C34.8466 25.2963 34.7747 25.3998 34.7252 25.5143C34.6757 25.6288 34.6496 25.752 34.6483 25.8768C34.647 26.0015 34.6708 26.1252 34.7179 26.2407C34.765 26.3562 34.8348 26.4611 34.923 26.5493C35.0112 26.6375 35.116 26.7072 35.2315 26.7544C35.347 26.8015 35.4707 26.8251 35.5954 26.8239C35.7202 26.8226 35.8434 26.7964 35.9579 26.747C36.0724 26.6975 36.1759 26.6256 36.2623 26.5356L43.2972 19.5007C46.2286 20.0607 49.3722 19.3716 51.6431 17.102C54.0022 14.7432 54.9192 11.299 54.0565 8.07861C54.0139 7.91981 53.9302 7.77501 53.814 7.65873C53.6977 7.54245 53.553 7.45878 53.3942 7.41612C53.2354 7.37346 53.0682 7.37329 52.9093 7.41565C52.7504 7.45802 52.6055 7.54141 52.4891 7.65747L47.7613 12.3853L44.2969 11.228L43.1397 7.76367L47.8638 3.03589C47.9799 2.91967 48.0634 2.77501 48.106 2.61637C48.1486 2.45773 48.1487 2.29069 48.1065 2.13197C48.0642 1.97325 47.981 1.82841 47.8651 1.71198C47.7492 1.59554 47.6049 1.51158 47.4464 1.4685C45.8365 1.03698 44.1673 1.04909 42.6087 1.46476V1.46484ZM21.4893 27.1216C21.2455 27.1293 21.0143 27.2318 20.8448 27.4072L11.0742 37.1741C8.14374 36.6155 5.00177 37.301 2.73189 39.5691C0.373142 41.9281 -0.544199 45.3719 0.318676 48.5925C0.361275 48.7513 0.444813 48.8962 0.561062 49.0125C0.67731 49.1288 0.822143 49.2124 0.980946 49.2551C1.13975 49.2978 1.30695 49.2979 1.46583 49.2556C1.62471 49.2132 1.76971 49.1298 1.88617 49.0137L6.61373 44.2895L10.082 45.4431L11.2354 48.9111L6.51142 53.6353C6.39441 53.7514 6.31 53.8963 6.26686 54.0554C6.22372 54.2145 6.22339 54.3822 6.26571 54.5415C6.30804 54.7008 6.39157 54.8462 6.50798 54.9629C6.6244 55.0796 6.76957 55.1636 6.92878 55.2063C10.15 56.0695 13.5914 55.1467 15.9522 52.793C18.2222 50.5226 18.9099 47.3777 18.3509 44.447C21.7531 41.0448 28.0921 34.7058 28.0921 34.7058C28.1821 34.6194 28.2539 34.5159 28.3034 34.4015C28.3529 34.287 28.379 34.1637 28.3803 34.039C28.3815 33.9143 28.358 33.7905 28.3108 33.6751C28.2637 33.5596 28.1939 33.4547 28.1057 33.3665C28.0175 33.2783 27.9127 33.2086 27.7972 33.1614C27.6817 33.1143 27.558 33.0906 27.4333 33.0919C27.3085 33.0932 27.1852 33.1193 27.0707 33.1688C26.9562 33.2183 26.8528 33.2901 26.7664 33.3801C26.7664 33.3801 20.1057 40.041 16.7763 43.3704C16.6609 43.4864 16.5778 43.6306 16.5354 43.7886C16.493 43.9467 16.4928 44.113 16.5346 44.2712C17.1943 46.7675 16.5814 49.5128 14.6265 51.4673C13.2235 52.8648 11.3317 53.3753 9.40437 53.3936L12.9714 49.8267C13.0946 49.7036 13.1811 49.5486 13.2212 49.3792C13.2613 49.2097 13.2534 49.0324 13.1984 48.8672L11.7115 44.4067C11.6655 44.2686 11.5879 44.143 11.4849 44.04C11.3819 43.9371 11.2564 43.8595 11.1182 43.8135L6.65779 42.3267C6.49256 42.2717 6.31535 42.2638 6.14589 42.3039C5.97643 42.344 5.82149 42.4305 5.69843 42.5537L2.12787 46.1206C2.14662 44.191 2.6568 42.2959 4.0578 40.8948C6.01155 38.9424 8.75841 38.3311 11.2538 38.9905C11.4123 39.0318 11.5789 39.0309 11.7369 38.9879C11.8949 38.9448 12.039 38.8611 12.1546 38.7451L22.1705 28.7329C22.3066 28.6013 22.3997 28.4316 22.4376 28.2461C22.4754 28.0606 22.4563 27.868 22.3825 27.6936C22.3088 27.5193 22.184 27.3713 22.0246 27.2692C21.8651 27.1671 21.6786 27.1156 21.4893 27.1216Z" fill="#00ADEE"/>
<path d="M28.1993 17.5094C28.0235 17.3336 27.7851 17.2349 27.5364 17.2349C27.2878 17.2349 27.0493 17.3336 26.8735 17.5094L18.9186 25.4644C18.7428 25.6402 18.644 25.8786 18.644 26.1273C18.644 26.3759 18.7428 26.6144 18.9186 26.7902L40.1318 48.0034C40.3076 48.1792 40.546 48.2779 40.7947 48.2779C41.0433 48.2779 41.2818 48.1792 41.4576 48.0034L49.4125 40.0484C49.5883 39.8726 49.6871 39.6342 49.6871 39.3855C49.6871 39.1369 49.5883 38.8984 49.4125 38.7226L28.1993 17.5094ZM27.5364 19.4981L47.4238 39.3855L40.7947 46.0147L20.9073 26.1273L27.5364 19.4981Z" fill="#FB4B00"/>
<path d="M24.2228 16.1834C24.0469 16.0076 23.8084 15.9088 23.5598 15.9088C23.3112 15.9088 23.0728 16.0076 22.897 16.1834L17.5937 21.4867C17.4179 21.6625 17.3191 21.901 17.3191 22.1496C17.3191 22.3982 17.4179 22.6367 17.5937 22.8125L20.2453 25.4642C20.4211 25.64 20.6596 25.7387 20.9082 25.7387C21.1568 25.7387 21.3952 25.64 21.5711 25.4642L26.8744 20.1609C27.0502 19.985 27.1489 19.7466 27.1489 19.498C27.1489 19.2493 27.0502 19.0109 26.8744 18.835L24.2228 16.1834ZM23.5598 18.1721L24.8856 19.498L20.9082 23.4754L19.5823 22.1496L23.5598 18.1721ZM5.01752 0.000172698C4.89133 -0.00224934 4.76595 0.0208267 4.6489 0.0680218C4.53185 0.115217 4.42558 0.18556 4.33637 0.274831L1.68488 2.9262C1.52733 3.08277 1.43049 3.29021 1.4116 3.51153C1.39271 3.73285 1.45302 3.95369 1.58177 4.13469L4.89587 8.77459C4.97506 8.88571 5.07752 8.97821 5.19616 9.04562C5.3148 9.11304 5.44674 9.15375 5.58274 9.16491C5.71874 9.17607 5.85547 9.15741 5.98351 9.11023C6.11155 9.06306 6.22784 8.9885 6.32409 8.89177L10.3011 4.91472C10.3973 4.81857 10.4714 4.70265 10.5182 4.57501C10.5651 4.44737 10.5837 4.31107 10.5726 4.17555C10.5615 4.04003 10.5211 3.90853 10.4541 3.79018C10.3872 3.67183 10.2953 3.56946 10.1849 3.49016L5.54498 0.175954C5.39103 0.0654197 5.20722 0.00413276 5.01775 0.000172698H5.01752ZM5.0982 2.16448L8.19245 4.37273L5.77912 6.78606L3.57099 3.69158L5.0982 2.16448Z" fill="#FB4B00"/>
<path fill-rule="evenodd" clip-rule="evenodd" d="M8.97961 6.18555L7.64648 7.50391L19.6948 19.7024L21.0278 18.384L8.97961 6.18555Z" fill="#FB4B00"/>
</svg>
