<svg width="73" height="73" viewBox="0 0 73 73" fill="none" xmlns="http://www.w3.org/2000/svg">
<path d="M17.252 2.00098C17.252 0.896407 18.1474 0.000976562 19.252 0.000976562H53.748C54.8526 0.000976562 55.748 0.896407 55.748 2.00098V17.2529H17.252V2.00098Z" fill="#A7D2E3"/>
<path d="M73 47.1943L67.9101 60.0264H6.28736L0 47.1943L7.87092 23.5816C8.27926 22.3566 9.42567 21.5303 10.717 21.5303H62.283C63.5743 21.5303 64.7207 22.3566 65.1291 23.5816L73 47.1943Z" fill="#164600"/>
<path d="M73 47.1943L67.9101 60.0264H36.5V21.5303H62.283C63.5743 21.5303 64.7207 22.3566 65.1291 23.5816L73 47.1943Z" fill="#164600"/>
<path d="M8.95202 55.749L4.6084 46.8852L11.6343 25.8076H61.3595L68.4455 47.0674L65.0019 55.749H8.95202Z" fill="white"/>
<path d="M36.5 25.8076V55.749H65.005L68.4486 47.0674L61.3626 25.8076H36.5Z" fill="white"/>
<path d="M12.9746 14.9756C12.9746 13.871 13.87 12.9756 14.9746 12.9756H58.0254C59.13 12.9756 60.0254 13.871 60.0254 14.9756V60.0264H12.9746V14.9756Z" fill="#BCDEEC"/>
<path d="M21.5293 21.5303H51.4707V24.6861H21.5293V21.5303Z" fill="#B73235"/>
<path d="M21.5293 30.0853H51.4707V33.2412H21.5293V30.0853Z" fill="#B73235"/>
<path d="M21.5293 38.64H51.4707V41.7958H21.5293V38.64Z" fill="#B73235"/>
<path d="M73 47.1702V69.9768C73 71.6337 71.6569 72.9768 70 72.9768H3C1.34315 72.9768 0 71.6337 0 69.9768V47.1702H22.3419L26.6192 55.7249H46.3808L50.6581 47.1702H73Z" fill="#26640A"/>
<rect x="26.9976" y="59.9978" width="19" height="5" rx="2" fill="#FFC700"/>
</svg>
