<svg width="65" height="65" viewBox="0 0 65 65" fill="none" xmlns="http://www.w3.org/2000/svg">
<path d="M15.3613 2C15.3613 0.89543 16.2568 0 17.3613 0H47.6387C48.7432 0 49.6387 0.895431 49.6387 2V15.3613H15.3613V2Z" fill="#D2C5C2"/>
<path d="M32.5 2C32.5 0.89543 33.3954 0 34.5 0H47.6387C48.7432 0 49.6387 0.895431 49.6387 2V13.3613C49.6387 14.4659 48.7432 15.3613 47.6387 15.3613H34.5C33.3954 15.3613 32.5 14.4659 32.5 13.3613V2Z" fill="#C4B3AF"/>
<path d="M65 42.0215L60.4679 53.4473H5.59834L0 42.0215L6.93341 21.2212C7.34176 19.9962 8.48817 19.1699 9.77947 19.1699H55.2205C56.5118 19.1699 57.6582 19.9962 58.0666 21.2212L65 42.0215Z" fill="#164600"/>
<path d="M65 42.0215L60.4679 53.4473H32.5V19.1699H55.2205C56.5118 19.1699 57.6582 19.9962 58.0666 21.2212L65 42.0215Z" fill="#164600"/>
<path d="M7.97137 49.6387L4.10376 41.7463L10.3597 22.9785H54.6356L60.945 41.9084L57.8788 49.6387H7.97137Z" fill="#00ADEE"/>
<path d="M32.5 22.9785V49.6387H57.8812L60.9474 41.9084L54.6379 22.9785H32.5Z" fill="#00ADEE"/>
<path d="M11.5527 13.5527C11.5527 12.4482 12.4482 11.5527 13.5527 11.5527H51.4473C52.5518 11.5527 53.4473 12.4482 53.4473 13.5527V53.4473H11.5527V13.5527Z" fill="#EDE9E8"/>
<path d="M32.5 13.5527C32.5 12.4482 33.3954 11.5527 34.5 11.5527H51.4473C52.5518 11.5527 53.4473 12.4482 53.4473 13.5527V51.4473C53.4473 52.5518 52.5518 53.4473 51.4473 53.4473H34.5C33.3954 53.4473 32.5 52.5518 32.5 51.4473V13.5527Z" fill="#DFD7D5"/>
<path d="M19.1699 19.1699H45.8301V22.9785H19.1699V19.1699Z" fill="#D2C5C2"/>
<path d="M19.1699 26.7871H45.8301V30.5957H19.1699V26.7871Z" fill="#D2C5C2"/>
<path d="M19.1699 34.4043H45.8301V38.2129H19.1699V34.4043Z" fill="#D2C5C2"/>
<path d="M32.5 19.1699H45.8301V22.9785H32.5V19.1699Z" fill="#C4B3AF"/>
<path d="M32.5 26.7871H45.8301V30.5957H32.5V26.7871Z" fill="#C4B3AF"/>
<path d="M32.5 34.4043H45.8301V38.2129H32.5V34.4043Z" fill="#C4B3AF"/>
<path d="M65 42.0215V62C65 63.6569 63.6569 65 62 65H3C1.34315 65 0 63.6569 0 62V42.0215H19.8935L23.702 49.6387H41.298L45.1065 42.0215H65Z" fill="#26640A"/>
<path d="M65 42.0215V65H32.5V49.6387H41.298L45.1065 42.0215H65Z" fill="#164600"/>
<rect x="24.0393" y="53.4223" width="16.9178" height="4.45205" rx="2" fill="#FB4B00"/>
<path d="M32.5002 53.4226H38.9591C40.0637 53.4226 40.9591 54.3181 40.9591 55.4226V55.8747C40.9591 56.9793 40.0637 57.8747 38.9591 57.8747H32.5002V53.4226Z" fill="#B73235"/>
</svg>
