<svg width="48" height="48" viewBox="0 0 48 48" fill="none" xmlns="http://www.w3.org/2000/svg">
<path d="M37.4933 47.92C37.0743 43.5606 34.8702 40.2568 31.3254 37.8478C27.6012 35.3182 23.7941 32.912 20.0267 30.4448C15.702 27.609 11.661 24.4683 8.82513 20.0281C7.28527 17.6176 6.46996 14.9704 6.30974 12.0076H0L9.51069 0L19.0746 11.9687H12.3472C12.3543 14.0246 13.237 15.6148 14.3089 17.1093C17.3653 21.368 21.4481 24.4251 25.8501 27.1843C29.9025 29.7253 33.7862 32.537 37.7159 35.2665C42.1193 38.3292 43.9789 42.6219 43.684 47.9164L37.4933 47.92Z" fill="#00ADEE"/>
<path d="M47.5264 12.0573H41.518C40.7261 18.1182 37.3748 22.4513 32.7013 25.9699L28.0222 22.8228C31.9215 20.238 35.2791 17.2965 35.5095 12.0466H29.0318C32.2122 7.90562 35.2111 4.00067 38.2809 0.00497437C39.9207 2.07797 41.5017 4.07015 43.0848 6.06445C44.4299 7.7565 45.7781 9.44642 47.1294 11.1342C47.2265 11.2562 47.3917 11.3242 47.525 11.4178L47.5264 12.0573Z" fill="#FFC700"/>
</svg>
