<svg width="111" height="57" viewBox="0 0 111 57" fill="none" xmlns="http://www.w3.org/2000/svg">
<path d="M42.0398 16.7748C42.0398 17.755 42.8363 18.5493 43.8176 18.5493H54.4445C55.4244 18.5493 56.2223 19.3457 56.2223 20.3458L56.2265 27.4255C56.2265 28.0473 56.3392 28.6417 56.5373 29.1957H43.7778C42.7964 29.1957 42 29.99 42 30.9702C42 31.9504 42.7964 32.7447 43.7778 32.7447H56.5366C56.3389 33.2951 56.2265 33.8849 56.2265 34.501L56.223 41.6766C56.223 42.6554 55.4251 43.4511 54.4452 43.4511H43.8368C42.8555 43.4511 42.059 44.2453 42.059 45.2255C42.059 46.2057 42.8555 47 43.8368 47H54.4452C57.386 47 59.7785 44.6119 59.7778 41.6986L59.7821 34.523C59.7821 33.5449 60.4648 32.8628 61.4454 32.8628H67.93L67.1933 33.5982C66.4996 34.2913 66.4996 35.4149 67.194 36.108C67.5414 36.454 67.9962 36.6272 68.4509 36.6272C68.9057 36.6272 69.3608 36.454 69.7078 36.1073L73.4792 32.3429C74.1736 31.6498 74.1736 30.5262 73.4792 29.8331L69.7078 26.0691C69.0141 25.3767 67.8877 25.3767 67.194 26.0691C66.4996 26.7622 66.4996 27.8858 67.194 28.5789L67.9307 29.3143H61.4454C60.4648 29.3143 59.7821 28.4043 59.7821 27.4032L59.7778 20.3234C59.7778 17.3881 57.3853 15 54.4445 15H43.8176C42.8366 15.0004 42.0398 15.7946 42.0398 16.7748Z" fill="white" stroke="#164600" stroke-width="0.3"/>
<path d="M104.771 30.4622H85.3469C84.3867 30.4622 83.6086 29.684 83.6086 28.7239C83.6086 27.7638 84.3869 26.9855 85.3469 26.9855H104.771C105.732 26.9855 106.51 27.7638 106.51 28.7239C106.51 29.684 105.732 30.4622 104.771 30.4622Z" fill="#164600" stroke="white" stroke-width="0.6"/>
<path d="M95.4297 43.8701V43.5701V37.1663C95.4297 36.2062 94.6514 35.4279 93.6913 35.4279H83.6772C82.6991 35.4279 81.91 36.2352 81.9395 37.22L95.4297 43.8701ZM95.4297 43.8701H95.7297M95.4297 43.8701H95.7297M95.7297 43.8701H104.686C105.656 43.8701 106.481 44.6172 106.509 45.5547C106.539 46.5393 105.75 47.3468 104.771 47.3468H93.6913M95.7297 43.8701L93.6913 47.3468M93.6913 47.3468C92.7313 47.3468 91.953 46.5685 91.953 45.6085M93.6913 47.3468L91.953 45.6085M91.953 45.6085V40.5234M91.953 45.6085V40.5234M91.953 40.5234C91.953 39.6295 91.2281 38.9046 90.3342 38.9046M91.953 40.5234L90.3342 38.9046M90.3342 38.9046H83.7626M90.3342 38.9046H83.7626M83.7626 38.9046C82.7922 38.9046 81.9676 38.1576 81.9395 37.2201L83.7626 38.9046Z" fill="#164600" stroke="white" stroke-width="0.6"/>
<path d="M84.499 22.018H93.6922C94.6523 22.018 95.4306 21.2397 95.4306 20.2796V15.1943C95.4306 14.3004 96.1554 13.5755 97.0494 13.5755H104.772C105.75 13.5755 106.539 12.7683 106.51 11.7834C106.482 10.8459 105.657 10.0988 104.687 10.0988H93.6922C92.7322 10.0988 91.9539 10.8771 91.9539 11.8372V16.9225C91.9539 17.8164 91.229 18.5413 90.3351 18.5413H84.4135C83.4354 18.5413 82.6463 19.3485 82.6758 20.3334L84.499 22.018ZM84.499 22.018C83.5286 22.018 82.704 21.2709 82.6758 20.3334L84.499 22.018Z" fill="#164600" stroke="white" stroke-width="0.6"/>
<path d="M27.0143 30.4622H6.65554C5.69525 30.4622 4.91719 29.684 4.91719 28.7239C4.91719 27.7638 5.69549 26.9855 6.65554 26.9855H27.0143C27.9746 26.9855 28.7527 27.7638 28.7527 28.7239C28.7527 29.684 27.9746 30.4622 27.0143 30.4622Z" fill="#164600" stroke="white" stroke-width="0.6"/>
<path d="M6.74114 47.3468H17.7358C18.6958 47.3468 19.4741 46.5686 19.4744 45.6085C19.4744 45.6085 19.4744 45.6084 19.4744 45.6084V40.5234C19.4744 39.6295 20.1993 38.9046 21.0932 38.9046H27.7499C28.728 38.9046 29.5171 38.0974 29.4876 37.1125C29.4595 36.175 28.6349 35.4279 27.6645 35.4279H17.7358C16.7757 35.4279 15.9974 36.2062 15.9974 37.1663V42.2513C15.9974 43.1453 15.2725 43.8701 14.3786 43.8701H6.65568C5.67758 43.8701 4.88853 44.6774 4.91799 45.6623L6.74114 47.3468ZM6.74114 47.3468C5.77075 47.3468 4.94616 46.5998 4.91799 45.6623L6.74114 47.3468Z" fill="#164600" stroke="white" stroke-width="0.6"/>
<path d="M17.7338 22.018H28.8814C29.8595 22.018 30.6486 21.2107 30.6191 20.2258C30.5909 19.2884 29.7663 18.5413 28.7959 18.5413H21.091C20.197 18.5413 19.4722 17.8164 19.4722 16.9225V11.8372C19.4722 10.8771 18.6939 10.0988 17.7338 10.0988H6.65373C5.67563 10.0988 4.88658 10.9061 4.91604 11.8909L17.7338 22.018ZM17.7338 22.018C16.7738 22.018 15.9955 21.2397 15.9955 20.2796M17.7338 22.018L15.9955 20.2796M15.9955 20.2796V15.1943M15.9955 20.2796V15.1943M15.9955 15.1943C15.9955 14.3004 15.2706 13.5755 14.3767 13.5755M15.9955 15.1943L14.3767 13.5755M14.3767 13.5755H6.73919M14.3767 13.5755H6.73919M6.73919 13.5755C5.7688 13.5755 4.94421 12.8284 4.91604 11.891L6.73919 13.5755Z" fill="#164600" stroke="white" stroke-width="0.6"/>
<path d="M5.07084 32.9444C7.40217 32.9444 9.29208 31.0545 9.29208 28.7232C9.29208 26.3919 7.40217 24.502 5.07084 24.502C2.73952 24.502 0.849609 26.3919 0.849609 28.7232C0.849609 31.0545 2.73952 32.9444 5.07084 32.9444Z" fill="#FB4B00"/>
<path d="M5.07084 16.0597C7.40217 16.0597 9.29208 14.1697 9.29208 11.8384C9.29208 9.5071 7.40217 7.61719 5.07084 7.61719C2.73952 7.61719 0.849609 9.5071 0.849609 11.8384C0.849609 14.1697 2.73952 16.0597 5.07084 16.0597Z" fill="#FB4B00"/>
<path d="M5.07084 49.8292C7.40217 49.8292 9.29208 47.9393 9.29208 45.608C9.29208 43.2766 7.40217 41.3867 5.07084 41.3867C2.73952 41.3867 0.849609 43.2766 0.849609 45.608C0.849609 47.9393 2.73952 49.8292 5.07084 49.8292Z" fill="#FB4B00"/>
<path d="M106.356 32.9444C108.687 32.9444 110.577 31.0545 110.577 28.7232C110.577 26.3919 108.687 24.502 106.356 24.502C104.025 24.502 102.135 26.3919 102.135 28.7232C102.135 31.0545 104.025 32.9444 106.356 32.9444Z" fill="#FB4B00"/>
<path d="M106.356 16.0597C108.687 16.0597 110.577 14.1697 110.577 11.8384C110.577 9.5071 108.687 7.61719 106.356 7.61719C104.025 7.61719 102.135 9.5071 102.135 11.8384C102.135 14.1697 104.025 16.0597 106.356 16.0597Z" fill="#FB4B00"/>
<path d="M106.356 49.8292C108.687 49.8292 110.577 47.9393 110.577 45.608C110.577 43.2766 108.687 41.3867 106.356 41.3867C104.025 41.3867 102.135 43.2766 102.135 45.608C102.135 47.9393 104.025 49.8292 106.356 49.8292Z" fill="#FB4B00"/>
<path d="M54.5941 25.0537V37.7193H51.0045C49.9848 37.7193 49.1582 36.8926 49.1582 35.8729V26.9C49.1582 25.8803 49.9848 25.0537 51.0045 25.0537H54.5941Z" fill="#D8ECFE"/>
<circle cx="55.9969" cy="28.7108" r="24.3895" fill="white"/>
<path d="M70.6443 24.9421H66.3102C66.1837 24.5992 66.0381 24.2611 65.8758 23.9298L68.9426 20.952C69.4177 20.4908 69.4217 19.74 68.9426 19.2749L65.4844 15.9208C65.0071 15.4575 64.2338 15.4575 63.7565 15.9208L60.6897 18.8973C60.3485 18.7386 60 18.5973 59.6468 18.4745V14.268C59.6468 13.6125 59.1002 13.082 58.4248 13.082H53.5371C52.8617 13.082 52.3151 13.6125 52.3151 14.268V18.4746C51.9619 18.5974 51.6135 18.7387 51.2722 18.8974L48.2054 15.9208C47.7281 15.4576 46.9548 15.4576 46.4775 15.9208L43.0193 19.275C42.5404 19.7399 42.544 20.4908 43.0193 20.9521L46.0861 23.9298C45.9238 24.2611 45.7782 24.5993 45.6517 24.9421H41.3176C40.6422 24.9421 40.0957 25.4726 40.0957 26.1281V30.8721C40.0957 31.5277 40.6422 32.0582 41.3176 32.0582H45.6517C45.7782 32.401 45.9238 32.7392 46.0861 33.0704L43.0193 36.0482C42.5441 36.5094 42.5402 37.2602 43.0193 37.7253L46.4775 41.0794C46.9548 41.5427 47.7281 41.5427 48.2054 41.0794L51.2722 38.1029C51.6134 38.2616 51.9619 38.4029 52.3151 38.5257V42.7321C52.3151 43.3876 52.8617 43.9181 53.5371 43.9181H58.4248C59.1002 43.9181 59.6468 43.3876 59.6468 42.7321V38.5255C60 38.4027 60.3484 38.2614 60.6897 38.1027L63.7565 41.0793C64.2338 41.5425 65.0071 41.5425 65.4844 41.0793L68.9426 37.7251C69.4215 37.2603 69.4179 36.5094 68.9426 36.048L65.8758 33.0703C66.0381 32.7391 66.1837 32.4008 66.3102 32.058H70.6443C71.3197 32.058 71.8662 31.5275 71.8662 30.872V26.128C71.8662 25.4725 71.3197 24.9421 70.6443 24.9421V24.9421Z" fill="#00ADEE"/>
<path d="M55.8677 53.6602C49.0686 53.6602 42.6738 51.0542 37.8638 46.3233C33.057 41.5907 30.4083 35.3008 30.4083 28.6113C30.4083 20.6596 34.1542 13.3276 40.6848 8.49233C41.3512 7.99982 41.5534 7.10452 41.1655 6.37888C40.7743 5.6499 39.9025 5.31558 39.1202 5.57654L31.3265 8.13519L32.4006 11.3021L33.1995 11.0412C29.2116 16.0021 27.0137 22.1241 27.0137 28.6113C27.0137 36.1929 30.0138 43.3227 35.4637 48.6847C40.9169 54.0467 48.1603 57 55.8677 57C56.8059 57 57.565 56.2531 57.565 55.3301C57.565 54.4071 56.8059 53.6602 55.8677 53.6602ZM79.5612 45.6979C79.296 45.7842 79.0275 45.8723 78.7557 45.9604C82.7469 40.9913 84.9481 34.8564 84.9481 28.3887C84.9481 20.8071 81.9479 13.6773 76.498 8.31532C71.0448 2.95331 63.8015 0 56.094 0C55.1559 0 54.3967 0.7469 54.3967 1.66992C54.3967 2.59294 55.1559 3.33984 56.094 3.33984C62.8932 3.33984 69.2879 5.94581 74.0979 10.6767C78.9048 15.4093 81.5535 21.6992 81.5535 28.3887C81.5535 36.1332 77.9699 43.3446 71.7211 48.1717C70.9779 48.7438 70.8528 49.8054 71.4459 50.5314C71.7807 50.9391 71.9862 51.1919 72.5829 51.1919C73.5443 51.1919 75.5134 50.5461 80.6351 48.8648C81.5236 48.5746 82.0043 47.6286 81.7092 46.7529C81.4109 45.8772 80.4496 45.4092 79.5612 45.6979Z" fill="#FFC700"/>
<circle cx="56" cy="29" r="5" fill="#FFC700"/>
</svg>
