<svg width="102" height="53" viewBox="0 0 102 53" fill="none" xmlns="http://www.w3.org/2000/svg">
<path d="M96.0617 28.2918H78.1066C77.2315 28.2918 76.5224 27.5826 76.5224 26.7076C76.5224 25.8327 77.2317 25.1235 78.1066 25.1235H96.0617C96.9368 25.1235 97.6459 25.8327 97.6459 26.7076C97.6459 27.5826 96.9368 28.2918 96.0617 28.2918Z" fill="#164600" stroke="white" stroke-width="0.6"/>
<path d="M87.4041 40.7308V40.4308V34.5113C87.4041 33.6364 86.6949 32.9271 85.82 32.9271H76.5633C75.6719 32.9271 74.9528 33.6628 74.9797 34.5603L87.4041 40.7308ZM87.4041 40.7308H87.7041M87.4041 40.7308H87.7041M87.7041 40.7308H95.983C96.8689 40.7308 97.6199 41.4128 97.6455 42.2659C97.6724 43.1632 96.9533 43.8991 96.0619 43.8991H85.82M87.7041 40.7308L85.82 43.8991M85.82 43.8991C84.9451 43.8991 84.2358 43.1898 84.2358 42.3149M85.82 43.8991L84.2358 42.3149M84.2358 42.3149V37.6145M84.2358 42.3149V37.6145M84.2358 37.6145C84.2358 36.7757 83.5556 36.0955 82.7167 36.0955M84.2358 37.6145L82.7167 36.0955M82.7167 36.0955H76.6422M82.7167 36.0955H76.6422M76.6422 36.0955C75.7563 36.0955 75.0053 35.4135 74.9797 34.5604L76.6422 36.0955Z" fill="#164600" stroke="white" stroke-width="0.6"/>
<path d="M77.3219 20.4868H85.8198C86.6947 20.4868 87.404 19.7775 87.404 18.9026V14.202C87.404 13.3631 88.0842 12.6829 88.923 12.6829H96.0618C96.9532 12.6829 97.6722 11.9473 97.6454 11.0497C97.6198 10.1966 96.8688 9.51457 95.9828 9.51457H85.8198C84.9449 9.51457 84.2357 10.2238 84.2357 11.0987V15.7994C84.2357 16.6382 83.5555 17.3185 82.7166 17.3185H77.2429C76.3516 17.3185 75.6325 18.0541 75.6594 18.9516L77.3219 20.4868ZM77.3219 20.4868C76.436 20.4868 75.685 19.8048 75.6594 18.9517L77.3219 20.4868Z" fill="#164600" stroke="white" stroke-width="0.6"/>
<path d="M24.1857 28.2918H5.36683C4.49172 28.2918 3.78267 27.5826 3.78267 26.7076C3.78267 25.8327 4.49194 25.1235 5.36683 25.1235H24.1857C25.0608 25.1235 25.7699 25.8327 25.7699 26.7076C25.7699 27.5826 25.0608 28.2918 24.1857 28.2918Z" fill="#164600" stroke="white" stroke-width="0.6"/>
<path d="M5.4445 43.8992H15.6075C16.4824 43.8992 17.1917 43.19 17.1919 42.3151C17.1919 42.315 17.1919 42.315 17.1919 42.315V37.6146C17.1919 36.7758 17.8721 36.0956 18.711 36.0956H24.8642C25.7556 36.0956 26.4746 35.3599 26.4478 34.4624C26.4221 33.6093 25.6712 32.9273 24.7852 32.9273H15.6075C14.7326 32.9273 14.0233 33.6365 14.0233 34.5114V39.2118C14.0233 40.0507 13.3431 40.7309 12.5043 40.7309H5.3655C4.47415 40.7309 3.75509 41.4665 3.78193 42.3641L5.4445 43.8992ZM5.4445 43.8992C4.55854 43.8992 3.80757 43.2172 3.78193 42.3641L5.4445 43.8992Z" fill="#164600" stroke="white" stroke-width="0.6"/>
<path d="M15.6075 20.4868H25.9119C26.8032 20.4868 27.5223 19.7511 27.4954 18.8536C27.4698 18.0005 26.7188 17.3185 25.8329 17.3185H18.7107C17.8719 17.3185 17.1917 16.6382 17.1917 15.7994V11.0987C17.1917 10.2238 16.4824 9.51457 15.6075 9.51457H5.3655C4.47415 9.51457 3.75509 10.2502 3.78193 11.1478L15.6075 20.4868ZM15.6075 20.4868C14.7326 20.4868 14.0233 19.7775 14.0233 18.9026M15.6075 20.4868L14.0233 18.9026M14.0233 18.9026V14.202M14.0233 18.9026V14.202M14.0233 14.202C14.0233 13.3631 13.3431 12.6829 12.5043 12.6829M14.0233 14.202L12.5043 12.6829M12.5043 12.6829H5.4445M12.5043 12.6829H5.4445M5.4445 12.6829C4.55854 12.6829 3.80757 12.0009 3.78193 11.1478L5.4445 12.6829Z" fill="#164600" stroke="white" stroke-width="0.6"/>
<path d="M3.90194 30.6097C6.05692 30.6097 7.80388 28.8628 7.80388 26.7078C7.80388 24.5528 6.05692 22.8058 3.90194 22.8058C1.74696 22.8058 0 24.5528 0 26.7078C0 28.8628 1.74696 30.6097 3.90194 30.6097Z" fill="#FB4B00"/>
<path d="M3.90292 15.0016C6.0579 15.0016 7.80486 13.2546 7.80486 11.0997C7.80486 8.94468 6.0579 7.19772 3.90292 7.19772C1.74793 7.19772 0.000976562 8.94468 0.000976562 11.0997C0.000976562 13.2546 1.74793 15.0016 3.90292 15.0016Z" fill="#FB4B00"/>
<path d="M3.90194 46.2171C6.05692 46.2171 7.80388 44.4701 7.80388 42.3151C7.80388 40.1601 6.05692 38.4132 3.90194 38.4132C1.74696 38.4132 0 40.1601 0 42.3151C0 44.4701 1.74696 46.2171 3.90194 46.2171Z" fill="#FB4B00"/>
<path d="M97.526 30.6094C99.6809 30.6094 101.428 28.8624 101.428 26.7075C101.428 24.5525 99.6809 22.8055 97.526 22.8055C95.371 22.8055 93.624 24.5525 93.624 26.7075C93.624 28.8624 95.371 30.6094 97.526 30.6094Z" fill="#FB4B00"/>
<path d="M97.526 15.0012C99.6809 15.0012 101.428 13.2543 101.428 11.0993C101.428 8.94431 99.6809 7.19735 97.526 7.19735C95.371 7.19735 93.624 8.94431 93.624 11.0993C93.624 13.2543 95.371 15.0012 97.526 15.0012Z" fill="#FB4B00"/>
<path d="M97.526 46.2167C99.6809 46.2167 101.428 44.4698 101.428 42.3148C101.428 40.1598 99.6809 38.4128 97.526 38.4128C95.371 38.4128 93.624 40.1598 93.624 42.3148C93.624 44.4698 95.371 46.2167 97.526 46.2167Z" fill="#FB4B00"/>
<path d="M49.6802 23.3151V35.0227H46.3622C45.4196 35.0227 44.6555 34.2586 44.6555 33.316V25.0218C44.6555 24.0792 45.4196 23.3151 46.3622 23.3151H49.6802Z" fill="#D8ECFE"/>
<circle cx="50.9763" cy="26.6955" r="22.5447" fill="white"/>
<path d="M64.5154 23.2117H60.5092C60.3923 22.8948 60.2577 22.5822 60.1077 22.2759L62.9425 19.5234C63.3817 19.0971 63.3854 18.4031 62.9425 17.9732L59.7459 14.8727C59.3047 14.4445 58.5899 14.4445 58.1487 14.8727L55.3139 17.6242C54.9985 17.4775 54.6763 17.3469 54.3498 17.2334V13.345C54.3498 12.7391 53.8446 12.2487 53.2203 12.2487H48.7022C48.0779 12.2487 47.5727 12.7391 47.5727 13.345V17.2334C47.2462 17.3469 46.9242 17.4775 46.6087 17.6242L43.7739 14.8728C43.3327 14.4446 42.6179 14.4446 42.1767 14.8728L38.9801 17.9733C38.5374 18.403 38.5407 19.0971 38.9801 19.5235L41.8148 22.276C41.6648 22.5822 41.5303 22.8948 41.4133 23.2117H37.4071C36.7828 23.2117 36.2776 23.7021 36.2776 24.308V28.6932C36.2776 29.2992 36.7828 29.7895 37.4071 29.7895H41.4133C41.5303 30.1064 41.6648 30.419 41.8148 30.7252L38.9801 33.4777C38.5408 33.904 38.5371 34.5981 38.9801 35.028L42.1767 38.1284C42.6179 38.5566 43.3327 38.5566 43.7739 38.1284L46.6087 35.377C46.9241 35.5237 47.2462 35.6543 47.5727 35.7678V39.6561C47.5727 40.262 48.0779 40.7524 48.7022 40.7524H53.2203C53.8446 40.7524 54.3498 40.262 54.3498 39.6561V35.7677C54.6763 35.6542 54.9984 35.5236 55.3139 35.3769L58.1487 38.1283C58.5899 38.5565 59.3047 38.5565 59.7459 38.1283L62.9425 35.0278C63.3852 34.5981 63.3819 33.904 62.9425 33.4776L60.1077 30.7251C60.2577 30.4189 60.3923 30.1063 60.5092 29.7894H64.5154C65.1398 29.7894 65.645 29.299 65.645 28.6931V24.3079C65.645 23.702 65.1398 23.2117 64.5154 23.2117Z" fill="#00ADEE"/>
<path d="M50.8564 49.7573C44.5715 49.7573 38.6605 47.3485 34.2143 42.9754C29.771 38.6008 27.3226 32.7867 27.3226 26.6032C27.3226 19.2529 30.7852 12.4755 36.8219 8.00598C37.4378 7.55072 37.6248 6.72314 37.2662 6.05239C36.9046 5.37855 36.0987 5.06952 35.3756 5.31073L28.1714 7.67585L29.1642 10.6033L29.9028 10.362C26.2165 14.9477 24.1848 20.6067 24.1848 26.6032C24.1848 33.6113 26.958 40.2018 31.9957 45.1582C37.0364 50.1146 43.7319 52.8445 50.8564 52.8445C51.7235 52.8445 52.4253 52.1541 52.4253 51.3009C52.4253 50.4477 51.7235 49.7573 50.8564 49.7573ZM72.7577 42.3973C72.5125 42.4771 72.2643 42.5585 72.0131 42.6399C75.7024 38.0468 77.7371 32.3759 77.7371 26.3974C77.7371 19.3893 74.9639 12.7988 69.9262 7.84236C64.8855 2.88593 58.19 0.156006 51.0655 0.156006C50.1984 0.156006 49.4966 0.846411 49.4966 1.69961C49.4966 2.55282 50.1984 3.24322 51.0655 3.24322C57.3504 3.24322 63.2614 5.65208 67.7076 10.0251C72.1509 14.3997 74.5993 20.2139 74.5993 26.3974C74.5993 33.5561 71.2868 40.222 65.5105 44.684C64.8236 45.2128 64.708 46.1941 65.2562 46.8652C65.5657 47.242 65.7556 47.4758 66.3072 47.4758C67.1959 47.4758 69.016 46.8788 73.7504 45.3247C74.5716 45.0564 75.016 44.182 74.7432 43.3725C74.4675 42.5631 73.5788 42.1304 72.7577 42.3973Z" fill="#FFC700"/>
</svg>
