<svg width="76" height="74" viewBox="0 0 76 74" fill="none" xmlns="http://www.w3.org/2000/svg">
<path d="M64.3966 39.1764H43.7927C42.5907 39.1764 41.6162 38.2019 41.6162 37C41.6162 35.798 42.5907 34.8235 43.7927 34.8235H64.3966C65.5986 34.8235 66.5731 35.798 66.5731 37C66.5731 38.2019 65.5986 39.1764 64.3966 39.1764Z" fill="#26640A"/>
<path d="M54.2397 69.647H43.7927C42.5907 69.647 41.6162 68.6725 41.6162 67.4705C41.6162 66.2685 42.5907 65.2941 43.7927 65.2941H54.2397C55.4417 65.2941 56.4162 66.2685 56.4162 67.4705C56.4162 68.6725 55.4417 69.647 54.2397 69.647Z" fill="#26640A"/>
<path d="M54.2397 8.70585H43.7927C42.5907 8.70585 41.6162 7.73137 41.6162 6.52938C41.6162 5.32738 42.5907 4.35291 43.7927 4.35291H54.2397C55.4417 4.35291 56.4162 5.32738 56.4162 6.52938C56.4162 7.73137 55.4417 8.70585 54.2397 8.70585Z" fill="#26640A"/>
<path d="M60.0437 29.0195H43.7927C42.5907 29.0195 41.6162 28.045 41.6162 26.843C41.6162 25.6411 42.5907 24.6666 43.7927 24.6666H59.2556L64.0273 20.6902C64.9509 19.9204 66.3232 20.0454 67.0927 20.9689C67.8621 21.8923 67.7373 23.2646 66.8141 24.0342L61.437 28.5152C61.0459 28.841 60.5528 29.0195 60.0437 29.0195Z" fill="#26640A"/>
<path d="M65.4195 53.8138C64.9282 53.8138 64.4343 53.6484 64.0273 53.3093L59.2556 49.3329H43.7927C42.5907 49.3329 41.6162 48.3584 41.6162 47.1565C41.6162 45.9545 42.5907 44.98 43.7927 44.98H60.0437C60.5528 44.98 61.0459 45.1584 61.437 45.4845L66.8141 49.9654C67.7375 50.735 67.8623 52.1073 67.0927 53.0307C66.6623 53.5471 66.0432 53.8138 65.4195 53.8138Z" fill="#26640A"/>
<path d="M58.5909 73.9997C54.9906 73.9997 52.0615 71.0706 52.0615 67.4703C52.0615 63.87 54.9906 60.9409 58.5909 60.9409C62.1913 60.9409 65.1203 63.87 65.1203 67.4703C65.1203 71.0706 62.1913 73.9997 58.5909 73.9997Z" fill="#FFC700"/>
<path d="M68.7501 60.9411C65.1498 60.9411 62.2207 58.0121 62.2207 54.4117C62.2207 50.8114 65.1498 47.8823 68.7501 47.8823C72.3504 47.8823 75.2795 50.8114 75.2795 54.4117C75.2795 58.0121 72.3504 60.9411 68.7501 60.9411Z" fill="#00ADEE"/>
<path d="M68.7501 43.5294C65.1498 43.5294 62.2207 40.6003 62.2207 37C62.2207 33.3997 65.1498 30.4706 68.7501 30.4706C72.3504 30.4706 75.2795 33.3997 75.2795 37C75.2795 40.6003 72.3504 43.5294 68.7501 43.5294Z" fill="#FFC700"/>
<path d="M68.7501 26.1177C65.1498 26.1177 62.2207 23.1886 62.2207 19.5883C62.2207 15.9879 65.1498 13.0588 68.7501 13.0588C72.3504 13.0588 75.2795 15.9879 75.2795 19.5883C75.2795 23.1886 72.3504 26.1177 68.7501 26.1177Z" fill="#00ADEE"/>
<path d="M58.5909 13.0588C54.9906 13.0588 52.0615 10.1297 52.0615 6.52941C52.0615 2.92909 54.9906 0 58.5909 0C62.1913 0 65.1203 2.92909 65.1203 6.52941C65.1203 10.1297 62.1913 13.0588 58.5909 13.0588Z" fill="#FFC700"/>
<path d="M37.7272 54.4099C28.5087 54.2745 20.9277 46.8707 20.5886 37.6574C20.2236 27.7416 28.1538 19.5882 37.9883 19.5882L44.5177 18.5322V2.17647C44.5177 0.974478 43.5432 0 42.3412 0H33.6353C32.4333 0 31.4589 0.974478 31.4589 2.17647V5.00951C27.3748 5.8415 23.4664 7.46065 19.9851 9.76278L17.9813 7.75912C17.1313 6.90913 15.7533 6.90913 14.9033 7.75912L8.7474 13.915C7.89741 14.7649 7.89741 16.143 8.7474 16.993L10.7511 18.9968C8.44893 22.4782 6.82978 26.3865 5.99779 30.4706H3.16475C1.96276 30.4706 0.988281 31.4451 0.988281 32.6471V41.3529C0.988281 42.5549 1.96276 43.5294 3.16475 43.5294H5.99779C6.82978 47.6135 8.44893 51.5219 10.7511 55.0033L8.7474 57.007C8.33924 57.4151 8.10998 57.9687 8.10998 58.5459C8.10998 59.1231 8.33924 59.6766 8.7474 60.0847L14.9035 66.2407C15.7535 67.0907 17.1315 67.0907 17.9814 66.2407L19.9852 64.2371C23.4666 66.5392 27.3749 68.1582 31.459 68.9903V71.8235C31.459 73.0255 32.4335 74 33.6355 74H42.3414C43.5434 74 44.5178 73.0255 44.5178 71.8235V55.4678L37.7272 54.4099Z" fill="#4596B4"/>
<path d="M44.518 55.4678V18.5322C42.4748 17.8076 40.2771 17.4117 37.9886 17.4117C27.1877 17.4117 18.4004 26.199 18.4004 37C18.4004 47.8009 27.1877 56.5882 37.9886 56.5882C40.2771 56.5882 42.4748 56.1924 44.518 55.4678Z" fill="#A7D2E3"/>
</svg>
