<svg width="541" height="595" viewBox="0 0 541 595" fill="none" xmlns="http://www.w3.org/2000/svg">
<circle cx="165.379" cy="519.96" r="75" fill="#FFC700"/>
<path d="M-0.494652 303.5C0.237103 389.241 136.968 470.2 205.242 499.961C445.618 620.834 507.945 499.602 528.239 412.343C538.272 369.204 553.142 328.369 519.234 154.732C485.326 -18.9051 351.997 -10.2176 289.571 15.8308C164.935 60.4649 -1.40935 196.324 -0.494652 303.5Z" fill="url(#paint0_linear)"/>
<path opacity="0.3" d="M564.439 402.36C564.374 402.468 564.266 402.511 564.157 402.511C564.092 402.511 564.049 402.49 564.006 402.468L541.544 389.493C540.807 389.71 539.919 389.71 539.183 389.515L517.068 402.273C517.739 402.793 517.761 403.486 517.133 404.006L539.118 416.72C539.269 416.807 539.313 417.002 539.226 417.154C539.161 417.262 539.053 417.305 538.945 417.305C538.88 417.305 538.836 417.284 538.793 417.262L516.461 404.396C515.551 404.764 514.317 404.764 513.429 404.374L490.49 417.609C490.858 418.107 490.75 418.692 490.165 419.125L512.779 432.186C512.93 432.273 512.974 432.468 512.887 432.619C512.822 432.728 512.714 432.771 512.606 432.771C512.541 432.771 512.497 432.749 512.454 432.728L489.494 419.45C488.757 419.71 487.869 419.753 487.09 419.558L465.559 431.991C465.667 432.034 465.776 432.078 465.884 432.143C466.815 432.684 466.88 433.529 466.079 434.114L487.999 446.742C488.151 446.828 488.194 447.023 488.108 447.175C488.043 447.283 487.934 447.327 487.826 447.327C487.761 447.327 487.718 447.305 487.674 447.283L465.386 434.46C464.389 434.807 463.068 434.742 462.223 434.244C462.115 434.179 462.028 434.135 461.963 434.07L439.913 446.785C439.978 446.828 440.065 446.85 440.13 446.893C441.018 447.413 441.126 448.215 440.411 448.8L462.657 461.623C462.808 461.709 462.852 461.904 462.765 462.056C462.7 462.164 462.592 462.207 462.483 462.207C462.44 462.207 462.375 462.186 462.332 462.164L439.761 449.168C438.765 449.558 437.379 449.514 436.491 448.994C436.426 448.951 436.361 448.908 436.296 448.865L413.726 461.882C413.877 461.947 414.029 462.012 414.159 462.077C415.025 462.576 415.134 463.355 414.527 463.919L436.816 476.763C436.967 476.85 437.011 477.045 436.924 477.196C436.859 477.305 436.751 477.348 436.642 477.348C436.577 477.348 436.534 477.326 436.491 477.305L413.899 464.287C412.881 464.742 411.43 464.698 410.498 464.157C410.368 464.07 410.238 463.983 410.152 463.897L387.733 476.85C387.755 476.871 387.776 476.871 387.798 476.893C388.6 477.348 388.751 478.063 388.275 478.626L411.17 491.817C411.321 491.904 411.365 492.099 411.278 492.25C411.213 492.359 411.105 492.402 410.996 492.402C410.931 492.402 410.888 492.38 410.845 492.359L387.712 479.016C386.715 479.557 385.134 479.536 384.159 478.972C384.138 478.951 384.116 478.951 384.094 478.929L361.871 491.752C361.936 491.774 362.001 491.817 362.066 491.86C362.802 492.294 362.997 492.922 362.65 493.442L385.784 506.784C385.935 506.871 385.979 507.066 385.892 507.218C385.827 507.326 385.719 507.369 385.61 507.369C385.567 507.369 385.502 507.348 385.459 507.326L362.196 493.94C362.174 493.961 362.131 493.983 362.109 494.005C361.113 494.59 359.466 494.59 358.47 494.005C358.405 493.962 358.34 493.94 358.297 493.897L336.81 506.286C337.243 506.763 337.221 507.326 336.723 507.781L360.614 521.535C360.766 521.622 360.809 521.817 360.723 521.968C360.658 522.077 360.549 522.12 360.441 522.12C360.376 522.12 360.333 522.098 360.289 522.077L336.095 508.149C335.293 508.496 334.189 508.539 333.322 508.279L310.925 521.21C310.882 521.232 310.817 521.254 310.774 521.254C310.665 521.254 310.557 521.189 310.492 521.102C310.405 520.95 310.449 520.755 310.6 520.669L332.607 507.976C331.806 507.456 331.763 506.655 332.477 506.091L310.232 493.268C309.647 493.507 308.933 493.572 308.261 493.485L285.756 506.481C285.713 506.503 285.648 506.525 285.604 506.525C285.496 506.525 285.388 506.46 285.323 506.373C285.236 506.221 285.279 506.026 285.431 505.94L307.373 493.29C307.243 493.247 307.113 493.182 306.983 493.117C306.095 492.619 305.987 491.817 306.658 491.232L285.518 479.059C284.76 479.319 283.806 479.319 283.048 479.081L260.002 492.38C259.958 492.402 259.893 492.424 259.85 492.424C259.742 492.424 259.633 492.359 259.568 492.272C259.482 492.12 259.525 491.925 259.677 491.839L282.312 478.778C281.554 478.301 281.445 477.586 281.987 477.045L259.244 463.94C258.529 464.243 257.597 464.287 256.796 464.113L234.096 477.218C234.052 477.24 233.987 477.261 233.944 477.261C233.836 477.261 233.728 477.196 233.663 477.11C233.576 476.958 233.619 476.763 233.771 476.676L255.994 463.832C255.973 463.81 255.929 463.81 255.908 463.789C254.998 463.269 254.911 462.446 255.626 461.882L233.619 449.211C232.753 449.558 231.605 449.579 230.738 449.233L208.363 462.164C208.32 462.186 208.255 462.207 208.212 462.207C208.103 462.207 207.995 462.142 207.93 462.056C207.843 461.904 207.887 461.709 208.038 461.623L230.132 448.886C229.46 448.366 229.46 447.673 230.089 447.153L207.583 434.179C206.804 434.547 205.721 434.612 204.833 434.374L182.436 447.305C182.392 447.327 182.327 447.348 182.284 447.348C182.176 447.348 182.067 447.283 182.002 447.197C181.916 447.045 181.959 446.85 182.111 446.763L204.096 434.07C203.186 433.529 203.143 432.684 203.966 432.099L182.024 419.471C181.201 419.84 180.075 419.883 179.165 419.601L157.006 432.381C156.963 432.403 156.898 432.424 156.855 432.424C156.746 432.424 156.638 432.359 156.573 432.273C156.486 432.121 156.53 431.926 156.681 431.839L178.472 419.276C177.692 418.735 177.67 417.955 178.407 417.414L156.097 404.569C155.512 404.764 154.84 404.829 154.19 404.742L131.187 418.02C131.144 418.042 131.079 418.063 131.035 418.063C130.927 418.063 130.819 417.998 130.754 417.912C130.667 417.76 130.711 417.565 130.862 417.479L153.302 404.526C153.172 404.482 153.064 404.417 152.956 404.352C152.111 403.854 151.981 403.118 152.566 402.555L130.494 389.84C129.671 390.121 128.653 390.121 127.851 389.818L104.848 403.096C104.805 403.118 104.74 403.139 104.696 403.139C104.588 403.139 104.48 403.074 104.415 402.988C104.328 402.836 104.372 402.641 104.523 402.555L127.18 389.472C126.53 388.995 126.465 388.324 126.985 387.804L104.74 374.981C103.917 375.349 102.812 375.371 101.924 375.089L79.2021 388.172C79.1588 388.194 79.0938 388.215 79.0505 388.215C78.9422 388.215 78.8339 388.15 78.7689 388.064C78.6822 387.912 78.7256 387.717 78.8772 387.631L101.209 374.764C100.429 374.244 100.386 373.443 101.122 372.901L78.9205 360.122C78.0974 360.577 76.8627 360.663 75.888 360.36L53.5562 373.27C53.5128 373.291 53.4479 373.313 53.4046 373.313C53.2962 373.313 53.1879 373.248 53.123 373.161C53.0363 373.01 53.0796 372.815 53.2313 372.728L75.1949 360.057C74.3285 359.472 74.3718 358.606 75.2816 358.064L49.8739 343.422C49.7223 343.335 49.6789 343.14 49.7656 342.988C49.8522 342.837 50.0472 342.793 50.1988 342.88L76.0397 357.761C76.9494 357.501 78.0541 357.588 78.8339 357.977L100.429 345.501C100.148 344.981 100.364 344.418 101.057 344.006C101.101 343.985 101.144 343.963 101.187 343.941L75.4332 329.126C75.2816 329.039 75.2382 328.844 75.3249 328.693C75.4115 328.541 75.6065 328.498 75.7581 328.584L102.011 343.682C102.552 343.573 103.137 343.552 103.678 343.66L126.249 330.62C125.88 330.079 126.075 329.451 126.833 329.017C126.942 328.952 127.05 328.909 127.158 328.866L101.924 314.31C101.772 314.223 101.729 314.028 101.816 313.877C101.902 313.725 102.097 313.682 102.249 313.769L128.046 328.649C128.566 328.584 129.108 328.606 129.584 328.714L152.458 315.501C152.328 315.046 152.566 314.57 153.172 314.223C153.194 314.202 153.216 314.202 153.237 314.18L128.068 299.689C127.916 299.603 127.873 299.408 127.96 299.256C128.046 299.104 128.241 299.061 128.393 299.148L154.017 313.92C154.45 313.812 154.949 313.79 155.403 313.833L178.472 300.512C178.234 300.036 178.407 299.516 178.992 299.126L154.407 284.96C154.255 284.874 154.212 284.679 154.299 284.527C154.385 284.375 154.58 284.332 154.732 284.419L179.706 298.801C180.313 298.606 181.028 298.563 181.678 298.671L204.183 285.675C204.009 285.242 204.183 284.787 204.681 284.419L179.858 270.123C179.706 270.036 179.663 269.841 179.75 269.69C179.836 269.538 180.031 269.495 180.183 269.581L205.374 284.094C205.959 283.899 206.63 283.834 207.28 283.92L228.941 271.401C227.966 270.816 227.966 269.885 228.962 269.321C229.049 269.278 229.157 269.235 229.244 269.191L205.396 255.415C205.244 255.329 205.201 255.134 205.287 254.982C205.374 254.831 205.569 254.787 205.721 254.874L230.11 268.975C230.955 268.845 231.908 268.953 232.58 269.343L255.366 255.935C254.781 255.372 254.89 254.614 255.756 254.116C255.778 254.116 255.778 254.094 255.8 254.094L231.54 240.101C231.388 240.015 231.345 239.82 231.432 239.668C231.518 239.517 231.713 239.473 231.865 239.56L256.558 253.791C257.316 253.618 258.182 253.639 258.897 253.877L280.969 241.141C280.103 240.578 280.124 239.733 280.991 239.17L257.381 225.546C257.229 225.459 257.186 225.264 257.272 225.112C257.359 224.961 257.554 224.917 257.706 225.004L281.727 238.867C282.658 238.585 283.806 238.65 284.608 239.062L301.546 229.293C301.698 229.206 301.893 229.25 301.98 229.401C302.066 229.553 302.023 229.748 301.871 229.834L285.193 239.473C285.604 239.906 285.604 240.426 285.214 240.86L307.481 253.704C308.478 253.293 309.886 253.358 310.774 253.877C310.839 253.921 310.882 253.942 310.925 253.986L328.102 244.109C328.254 244.022 328.449 244.065 328.535 244.217C328.622 244.369 328.579 244.563 328.427 244.65L311.402 254.462C311.662 254.895 311.553 255.394 311.077 255.784L333.257 268.585C334.189 268.087 335.597 268.065 336.571 268.498L353.856 258.513C354.008 258.426 354.203 258.469 354.289 258.621C354.376 258.773 354.333 258.968 354.181 259.054L337.178 268.866C337.763 269.43 337.676 270.166 336.896 270.643L358.838 283.292C359.835 282.751 361.437 282.772 362.412 283.336C362.52 283.401 362.629 283.466 362.715 283.552L380.412 273.35C380.564 273.264 380.759 273.307 380.845 273.458C380.932 273.61 380.888 273.805 380.737 273.892L363.105 284.072C363.279 284.527 363.084 285.047 362.477 285.415L384.679 298.26C385.654 297.848 387.04 297.87 387.95 298.368L406.188 287.841C406.339 287.754 406.534 287.798 406.621 287.949C406.708 288.101 406.664 288.296 406.513 288.382L388.491 298.779C388.924 299.278 388.86 299.884 388.275 300.339L410.217 313.01C411.213 312.599 412.643 312.642 413.531 313.162C413.552 313.162 413.552 313.184 413.574 313.184L432.224 302.418C432.375 302.332 432.57 302.375 432.657 302.527C432.744 302.678 432.7 302.873 432.549 302.96L414.072 313.617C414.419 314.093 414.311 314.635 413.791 315.068L436.274 328.043C437.249 327.566 438.722 327.566 439.675 328.064L458.563 317.169C458.714 317.083 458.909 317.126 458.996 317.277C459.083 317.429 459.039 317.624 458.888 317.711L440.238 328.454C440.715 328.974 440.606 329.646 439.913 330.122L461.855 342.772C462.873 342.274 464.411 342.295 465.364 342.837C465.407 342.858 465.429 342.88 465.472 342.902L484.729 331.79C484.88 331.703 485.075 331.747 485.162 331.898C485.248 332.05 485.205 332.245 485.053 332.331L465.949 343.357C466.274 343.855 466.122 344.44 465.472 344.851L488.108 357.912C488.129 357.891 488.151 357.891 488.173 357.869C489.147 357.306 490.728 357.284 491.747 357.826L511.198 346.606C511.349 346.519 511.544 346.562 511.631 346.714C511.717 346.866 511.674 347.061 511.522 347.147L492.31 358.237C492.786 358.801 492.635 359.494 491.833 359.949C491.811 359.97 491.79 359.97 491.747 359.992L512.757 372.122C513.754 371.559 515.378 371.559 516.374 372.143C516.526 372.23 516.656 372.338 516.764 372.425L536.735 360.902C536.887 360.815 537.082 360.858 537.168 361.01C537.255 361.161 537.212 361.356 537.06 361.443L517.089 372.966C517.198 373.4 516.981 373.876 516.396 374.223L538.576 387.024C539.551 386.526 541.067 386.526 542.042 387.046L562.424 375.284C562.576 375.197 562.771 375.241 562.858 375.392C562.944 375.544 562.901 375.739 562.749 375.826L542.605 387.457C543.06 387.999 542.93 388.649 542.215 389.103L564.287 401.84C564.482 401.991 564.526 402.186 564.439 402.36ZM489.992 417.154L512.822 403.984C512.259 403.486 512.281 402.814 512.887 402.338L490.642 389.515C489.949 389.775 489.104 389.818 488.346 389.645L464.974 403.139C465.039 403.529 464.844 403.919 464.411 404.222L486.591 417.045C487.588 416.569 489.061 416.612 489.992 417.154ZM358.557 491.882L336.333 479.102C335.423 479.601 334.015 479.644 333.041 479.232L311.315 491.752C311.467 492.164 311.315 492.575 310.882 492.922L333.149 505.745C334.102 505.398 335.358 505.442 336.246 505.875L357.842 493.42C357.56 492.9 357.755 492.315 358.47 491.904C358.492 491.904 358.535 491.882 358.557 491.882ZM79.4404 359.645L101.772 372.512C102.725 372.165 103.982 372.208 104.848 372.642L126.465 360.187C126.184 359.689 126.357 359.125 127.007 358.714L104.805 345.956C104.761 345.978 104.74 345.999 104.696 346.021C103.7 346.606 102.054 346.606 101.057 346.021C100.993 345.978 100.927 345.934 100.863 345.891L79.3971 358.281C79.7653 358.692 79.7869 359.212 79.4404 359.645ZM233.208 270.578L255.691 283.574C256.644 283.336 257.792 283.422 258.572 283.877C258.637 283.92 258.702 283.942 258.745 283.985L281.575 270.838C280.817 270.296 280.817 269.516 281.575 268.953L259.395 256.173C259.373 256.173 259.374 256.195 259.352 256.195C258.42 256.737 256.926 256.78 255.929 256.303L233.013 269.538C233.316 269.863 233.359 270.231 233.208 270.578ZM281.662 241.488L259.568 254.246C260.175 254.679 260.283 255.264 259.937 255.762L282.29 268.65C283.2 268.347 284.37 268.39 285.214 268.78L307.265 256.087C307.2 256.065 307.156 256.022 307.091 256C306.203 255.48 306.095 254.679 306.788 254.094L284.608 241.293C283.806 241.704 282.615 241.769 281.662 241.488ZM487.631 358.411L464.779 345.219C464.129 345.436 463.35 345.458 462.657 345.306L440.433 358.129C440.953 358.627 440.931 359.255 440.346 359.754L463.025 372.836C463.891 372.403 465.148 372.36 466.101 372.706L488.151 359.97C487.458 359.537 487.284 358.93 487.631 358.411ZM487.09 387.436L465.949 375.241C465.061 375.522 463.956 375.479 463.155 375.132L440.216 388.367C440.606 388.887 440.455 389.515 439.783 389.948L460.794 402.1C461.812 401.623 463.306 401.645 464.259 402.186C464.433 402.295 464.584 402.403 464.693 402.533L487.566 389.342C487.523 389.32 487.479 389.298 487.458 389.277C486.57 388.8 486.461 388.02 487.09 387.436ZM310.817 462.337L333.365 449.319C333.019 448.843 333.127 448.28 333.669 447.868L311.012 434.807C310.059 435.327 308.564 435.327 307.59 434.85L285.366 447.673C286.124 448.128 286.297 448.8 285.864 449.341L308.716 462.467C309.344 462.251 310.124 462.207 310.817 462.337ZM157.071 375.262L179.122 387.955C179.966 387.652 181.049 387.652 181.894 387.955L204.183 375.089C203.49 374.548 203.533 373.79 204.291 373.248L182.327 360.598C181.309 361.097 179.793 361.075 178.84 360.512C178.775 360.468 178.732 360.447 178.667 360.403L156.421 373.248C156.53 373.291 156.638 373.335 156.725 373.4C157.613 373.898 157.721 374.678 157.071 375.262ZM259.092 285.545L281.38 298.433C282.334 298.086 283.59 298.13 284.456 298.563L307.33 285.35C306.918 284.895 306.94 284.31 307.438 283.877L285.214 271.076C284.37 271.466 283.178 271.509 282.269 271.206L259.2 284.484C259.395 284.83 259.352 285.198 259.092 285.545ZM462.44 373.248L439.697 360.143C438.852 360.49 437.747 360.49 436.881 360.187L413.834 373.486C414.072 373.919 413.942 374.396 413.487 374.786L436.144 387.869C437.162 387.349 438.722 387.371 439.675 387.934C439.675 387.934 439.697 387.934 439.697 387.955L462.527 374.764C462.028 374.309 462.007 373.703 462.44 373.248ZM333.149 419.341C332.911 418.887 333.041 418.388 333.539 417.998L311.553 405.327C310.557 405.76 309.106 405.717 308.196 405.197C308.023 405.089 307.871 404.981 307.763 404.872L285.301 417.825C285.366 417.847 285.431 417.89 285.496 417.933C286.297 418.388 286.449 419.103 285.973 419.645L308.088 432.403C308.846 432.186 309.756 432.186 310.492 432.424L333.149 419.341ZM208.472 374.938L230.912 387.869C231.518 387.717 232.211 387.717 232.839 387.847L255.713 374.634C255.605 374.223 255.778 373.79 256.276 373.443L233.987 360.598C232.991 360.967 231.67 360.902 230.782 360.425L208.363 373.356C208.926 373.855 208.948 374.461 208.472 374.938ZM307.979 315.891L286.232 328.454C287.099 329.039 287.077 329.906 286.146 330.469L308.413 343.292C309.041 343.01 309.842 342.923 310.579 343.032L332.239 330.534C331.264 329.971 331.243 329.082 332.131 328.498L309.886 315.653C309.322 315.87 308.629 315.956 307.979 315.891ZM383.726 358.324L361.264 345.349C360.549 345.718 359.531 345.804 358.665 345.631L337.091 358.086C337.156 358.107 337.221 358.151 337.286 358.194C338.196 358.714 338.282 359.537 337.546 360.1L360.051 373.075C360.658 372.771 361.481 372.663 362.217 372.75L383.921 360.23C383.076 359.689 383.011 358.887 383.726 358.324ZM310.319 402.663L333.495 389.298C333.322 388.908 333.43 388.475 333.82 388.129L311.272 375.154C310.275 375.587 308.824 375.544 307.914 375.024C307.871 375.002 307.85 374.981 307.828 374.959L285.279 387.977C285.388 388.02 285.518 388.085 285.604 388.129C286.427 388.605 286.579 389.32 286.059 389.883L308.651 402.901C309.127 402.706 309.734 402.62 310.319 402.663ZM260.5 375.154L282.55 387.869C283.113 387.696 283.763 387.652 284.391 387.739L307.33 374.504C307.026 374.028 307.135 373.508 307.676 373.096L285.713 360.447C284.716 360.858 283.308 360.815 282.399 360.295C282.334 360.252 282.247 360.208 282.204 360.165L259.633 373.205C259.807 373.27 259.958 373.335 260.11 373.421C260.911 373.855 261.041 374.591 260.5 375.154ZM285.799 358.042C285.886 358.086 285.951 358.107 286.037 358.151C286.926 358.671 287.034 359.472 286.341 360.035L308.326 372.706C309.019 372.447 309.886 372.403 310.644 372.555L333.019 359.645C332.781 359.212 332.889 358.736 333.322 358.367L311.337 345.696C310.34 346.064 308.998 345.999 308.131 345.501C308.023 345.436 307.936 345.371 307.85 345.306L285.799 358.042ZM336.636 387.501L359.206 374.483C359.076 374.136 359.185 373.768 359.488 373.465L336.918 360.468C335.921 360.858 334.535 360.793 333.647 360.295C333.582 360.252 333.517 360.23 333.474 360.187L311.445 372.901C311.488 372.923 311.51 372.945 311.553 372.966C312.42 373.465 312.528 374.244 311.9 374.829L334.427 387.804C335.055 387.457 335.878 387.371 336.636 387.501ZM357.625 343.227L335.748 330.577C334.968 330.967 333.885 331.054 332.976 330.815L311.445 343.248C311.553 343.292 311.683 343.357 311.792 343.4C312.701 343.92 312.788 344.765 312.03 345.349L333.994 357.999C334.665 357.717 335.532 357.653 336.29 357.782L357.885 345.328C357.842 345.306 357.798 345.284 357.755 345.263C356.759 344.721 356.737 343.812 357.625 343.227ZM260.565 343.248C261.323 343.812 261.28 344.613 260.457 345.154L282.745 357.977C283.395 357.717 284.218 357.653 284.954 357.782L307.46 344.808C307.308 344.418 307.416 344.006 307.785 343.66L285.388 330.75C284.478 330.989 283.373 330.924 282.593 330.534L260.565 343.248ZM234.442 358.346C235.33 358.865 235.395 359.689 234.659 360.273L256.991 373.14C257.511 372.966 258.096 372.923 258.68 372.966L281.749 359.645C281.532 359.212 281.64 358.736 282.117 358.367L259.763 345.501C258.875 345.761 257.771 345.718 256.969 345.349L234.442 358.346ZM234.291 389.818L256.471 402.62C257.121 402.468 257.879 402.49 258.507 402.663L281.272 389.537C281.077 389.082 281.272 388.584 281.835 388.215L259.915 375.587C258.897 376.086 257.381 376.042 256.428 375.501C256.276 375.414 256.168 375.327 256.059 375.219L233.619 388.172C233.641 388.194 233.684 388.215 233.706 388.215C234.486 388.627 234.659 389.277 234.291 389.818ZM259.807 404.547L282.507 417.63C283.113 417.457 283.828 417.435 284.478 417.544L307.46 404.287C307.395 403.919 307.568 403.551 307.958 403.248L285.453 390.273C284.435 390.793 282.897 390.771 281.944 390.208C281.835 390.143 281.749 390.078 281.662 390.013L259.244 402.944C260.002 403.378 260.175 404.006 259.807 404.547ZM336.376 417.479L359.206 404.287C358.86 403.833 358.903 403.291 359.38 402.879L337.351 390.186C336.355 390.555 335.012 390.49 334.145 389.992C334.037 389.927 333.972 389.883 333.885 389.818L311.272 402.858C311.467 402.923 311.662 403.009 311.835 403.096C312.701 403.594 312.81 404.374 312.182 404.959L334.21 417.652C334.86 417.392 335.662 417.349 336.376 417.479ZM362.629 402.316L384.896 389.472C384.614 389.06 384.679 388.584 385.069 388.194L362.997 375.479C362.022 375.804 360.744 375.717 359.9 375.241C359.77 375.176 359.661 375.089 359.575 375.002L337.503 387.739C337.611 387.782 337.719 387.825 337.806 387.89C338.716 388.41 338.802 389.255 338.022 389.84L360.008 402.511C360.788 402.165 361.784 402.1 362.629 402.316ZM388.231 387.544L409.783 375.089C409.718 375.046 409.632 375.024 409.567 374.981C408.679 374.461 408.57 373.66 409.285 373.075L387.322 360.382C386.542 360.707 385.524 360.75 384.701 360.512L363.17 372.923C363.3 372.966 363.452 373.031 363.56 373.118C364.513 373.66 364.557 374.548 363.712 375.132L385.675 387.782C386.39 387.436 387.387 387.349 388.231 387.544ZM436.123 358.064L414.137 345.393C413.206 345.761 411.95 345.739 411.061 345.328L388.145 358.541C388.535 359.017 388.47 359.58 387.971 360.013L409.913 372.706C410.91 372.295 412.318 372.36 413.206 372.88C413.271 372.923 413.336 372.966 413.401 373.01L436.209 359.84C435.516 359.32 435.473 358.606 436.123 358.064ZM410.542 343.313L388.036 330.339C387.148 330.772 385.892 330.794 384.961 330.425L361.957 343.703C362.217 344.093 362.152 344.548 361.827 344.916L384.376 357.956C385.351 357.566 386.715 357.631 387.582 358.107L410.455 344.938C409.935 344.44 409.957 343.79 410.542 343.313ZM384.419 328.259L362.499 315.61C361.567 316.043 360.246 316.043 359.315 315.631L336.398 328.866C336.723 329.277 336.701 329.776 336.333 330.187L358.362 342.923C359.336 342.62 360.571 342.707 361.394 343.183C361.437 343.205 361.481 343.227 361.502 343.248L384.332 330.079C383.639 329.537 383.661 328.779 384.419 328.259ZM358.86 313.53L336.571 300.686C335.835 300.946 334.947 300.989 334.167 300.772L310.904 314.202C311.012 314.57 310.86 314.938 310.492 315.263L332.802 328.173C333.777 327.869 335.012 327.956 335.835 328.433L358.665 315.263C358.123 314.7 358.188 314.007 358.86 313.53ZM333.041 298.628L311.012 285.913C310.059 286.26 308.781 286.216 307.936 285.762L285.063 298.974C285.518 299.451 285.474 300.036 284.976 300.491L306.961 313.205C307.958 312.815 309.344 312.88 310.21 313.379C310.362 313.465 310.47 313.552 310.579 313.66L333.409 300.469C333.409 300.469 333.409 300.469 333.387 300.469C332.542 299.971 332.412 299.191 333.041 298.628ZM260.045 313.4C260.218 313.465 260.37 313.53 260.522 313.617C261.518 314.202 261.518 315.133 260.543 315.718L282.485 328.368C283.308 327.913 284.543 327.826 285.518 328.129L307.026 315.718C306.853 315.653 306.702 315.588 306.55 315.501C305.64 314.981 305.554 314.158 306.29 313.574L284.326 300.881C283.525 301.227 282.42 301.27 281.554 300.989L260.045 313.4ZM234.421 328.194C234.551 328.238 234.659 328.303 234.767 328.368C235.742 328.931 235.764 329.819 234.854 330.404L256.818 343.053C257.684 342.62 258.94 342.555 259.893 342.902L282.03 330.122C281.64 329.711 281.619 329.212 281.965 328.779L259.785 316C258.832 316.259 257.662 316.151 256.883 315.696C256.731 315.61 256.623 315.523 256.514 315.415L234.421 328.194ZM208.233 343.335C208.45 343.4 208.645 343.487 208.818 343.595C209.728 344.115 209.814 344.96 209.056 345.523L231.042 358.194C231.821 357.869 232.839 357.804 233.684 358.042L256.341 344.96C255.865 344.505 255.821 343.941 256.254 343.487L234.139 330.75C233.164 331.032 231.93 330.945 231.128 330.49C231.02 330.425 230.912 330.36 230.825 330.295L208.233 343.335ZM182.284 358.302C182.349 358.324 182.414 358.367 182.479 358.389C183.302 358.865 183.454 359.602 182.891 360.165L204.963 372.901C205.829 372.62 206.934 372.642 207.757 372.988L230.262 359.992C229.894 359.537 229.937 358.974 230.435 358.541L208.407 345.848C207.41 346.216 206.046 346.151 205.179 345.653C205.006 345.544 204.854 345.436 204.746 345.306L182.284 358.302ZM182.674 389.992L205.092 402.879C205.656 402.728 206.305 402.706 206.912 402.814L229.504 389.775C229.157 389.233 229.33 388.605 230.089 388.194C230.11 388.194 230.132 388.172 230.132 388.172L207.887 375.349C206.999 375.782 205.742 375.804 204.811 375.457L182.544 388.324C183.194 388.8 183.237 389.472 182.674 389.992ZM208.515 404.851L230.717 417.609C231.323 417.479 231.995 417.457 232.601 417.609L255.085 404.634C254.652 404.092 254.803 403.399 255.583 402.944C255.605 402.923 255.648 402.923 255.67 402.901L233.771 390.273C233.749 390.273 233.728 390.295 233.728 390.295C232.731 390.88 231.085 390.88 230.089 390.295C230.067 390.273 230.024 390.251 230.002 390.23L207.757 403.053C207.843 403.096 207.908 403.118 207.995 403.161C208.753 403.638 208.926 404.309 208.515 404.851ZM234.074 419.536L256.818 432.619C257.359 432.468 257.966 432.424 258.55 432.511L281.251 419.428C280.969 418.93 281.164 418.367 281.814 417.955L259.352 405.002C259.33 405.024 259.309 405.046 259.265 405.046C258.269 405.63 256.644 405.63 255.648 405.067L233.424 417.89C233.468 417.912 233.489 417.933 233.533 417.955C234.247 418.367 234.442 419.016 234.074 419.536ZM260.262 434.612L282.442 447.37C283.135 447.197 283.936 447.197 284.608 447.37L307.005 434.439C306.485 433.897 306.593 433.182 307.373 432.706L285.431 420.056C284.435 420.598 282.832 420.576 281.857 420.013C281.792 419.97 281.727 419.948 281.684 419.905L259.417 432.749C259.547 432.792 259.655 432.857 259.763 432.922C260.543 433.356 260.716 434.049 260.262 434.612ZM336.723 447.392L359.553 434.222C359.445 433.876 359.553 433.507 359.878 433.182L337.156 420.099C336.16 420.533 334.708 420.489 333.799 419.97C333.734 419.926 333.669 419.883 333.604 419.84L311.207 432.771C311.9 433.226 312.008 433.876 311.553 434.417L334.319 447.543C335.033 447.24 335.943 447.197 336.723 447.392ZM362.564 432.468L385.589 419.168C385.372 418.8 385.437 418.388 385.74 418.042L362.954 404.916C361.957 405.284 360.593 405.219 359.726 404.721L337.199 417.717C337.264 417.76 337.351 417.782 337.416 417.825C338.282 418.323 338.391 419.103 337.763 419.688L360.463 432.771C361.069 432.489 361.849 432.381 362.564 432.468ZM388.838 417.305L411.3 404.331C411.148 404.006 411.213 403.659 411.43 403.356L388.6 390.208C387.625 390.533 386.325 390.468 385.48 389.97C385.437 389.948 385.415 389.927 385.394 389.905L363.387 402.62C364.297 403.139 364.383 403.984 363.625 404.569L386.304 417.63C386.997 417.262 387.971 417.154 388.838 417.305ZM414.419 402.533L436.058 390.035C436.058 390.035 436.036 390.035 436.036 390.013C435.213 389.537 435.061 388.822 435.581 388.28L412.859 375.154C412.188 375.414 411.365 375.479 410.628 375.349L389.033 387.825C389.076 387.847 389.098 387.869 389.141 387.869C390.094 388.41 390.137 389.277 389.314 389.862L411.971 402.901C412.621 402.533 413.574 402.403 414.419 402.533ZM461.292 343.205L439.22 330.469C438.462 330.707 437.552 330.707 436.772 330.49L414.657 343.248C415.372 343.768 415.394 344.483 414.765 345.024L436.772 357.718C437.704 357.349 438.96 357.371 439.848 357.782L461.877 345.068C461.833 345.046 461.79 345.024 461.747 345.003C460.924 344.505 460.772 343.768 461.292 343.205ZM435.733 328.454L413.163 315.436C412.448 315.718 411.516 315.761 410.715 315.566L388.535 328.368C389.076 328.844 389.098 329.451 388.621 329.927L411.191 342.923C412.015 342.599 413.119 342.577 413.986 342.88L436.058 330.144C435.321 329.689 435.213 328.996 435.733 328.454ZM409.589 313.379L387.625 300.707C386.845 301.011 385.849 301.032 385.047 300.794L362.932 313.552C363.582 314.028 363.647 314.7 363.105 315.22L385.112 327.913C385.979 327.631 387.083 327.653 387.906 327.999L409.935 315.285C409.913 315.285 409.892 315.263 409.892 315.263C409.025 314.743 408.917 313.963 409.589 313.379ZM384.051 298.65L361.697 285.762C361.156 285.913 360.549 285.957 359.986 285.892L337.568 298.823C337.936 299.321 337.828 299.906 337.243 300.339L359.553 313.205C360.376 312.924 361.416 312.924 362.239 313.227L384.311 300.491C383.509 299.949 383.423 299.191 384.051 298.65ZM358.232 283.747L336.116 270.989C335.315 271.227 334.362 271.206 333.582 270.924L311.532 283.661C312.355 284.202 312.398 285.003 311.662 285.567L333.625 298.238C334.643 297.783 336.095 297.826 337.026 298.368C337.026 298.368 337.026 298.368 337.048 298.368L359.076 285.653C358.946 285.61 358.816 285.545 358.708 285.48C357.928 285.003 357.755 284.31 358.232 283.747ZM332.651 268.996L310.384 256.152C309.712 256.412 308.846 256.477 308.088 256.325L285.799 269.148C286.276 269.603 286.276 270.188 285.799 270.664L308.044 283.487C308.846 283.141 309.929 283.076 310.817 283.357L332.911 270.599C332.304 270.123 332.218 269.495 332.651 268.996ZM255.951 286.346L234.334 298.801C234.377 298.823 234.442 298.844 234.486 298.888C235.417 299.429 235.482 300.274 234.702 300.837L256.883 313.617C257.489 313.27 258.312 313.14 259.092 313.205L280.839 300.642C280.038 300.122 279.994 299.321 280.731 298.779L258.572 285.978C257.879 286.39 256.861 286.52 255.951 286.346ZM208.666 313.574C208.688 313.595 208.731 313.595 208.753 313.617C209.641 314.137 209.749 314.938 209.035 315.523L231.237 328.303C231.886 327.978 232.753 327.848 233.533 327.956L256.168 314.895C256.081 314.613 256.146 314.31 256.363 314.028L234.031 301.162C233.034 301.509 231.713 301.444 230.847 300.946C230.803 300.924 230.738 300.881 230.695 300.859L208.666 313.574ZM182.457 328.671C182.587 328.714 182.696 328.779 182.804 328.844C183.627 329.321 183.779 330.057 183.215 330.62L205.461 343.443C205.981 343.227 206.63 343.118 207.259 343.162L230.457 329.754C230.327 329.407 230.392 329.039 230.673 328.736L208.385 315.891C207.388 316.281 206.002 316.238 205.114 315.718C205.092 315.696 205.049 315.675 205.027 315.653L182.457 328.671ZM156.421 343.638C156.421 343.66 156.443 343.66 156.421 343.638C157.18 344.071 157.375 344.721 157.006 345.241L179.382 358.151C180.01 357.934 180.768 357.912 181.461 358.042L204.443 344.765C204.378 344.44 204.529 344.093 204.854 343.811L182.631 331.01C181.613 331.508 180.096 331.465 179.143 330.924C179.035 330.859 178.927 330.794 178.84 330.729L156.421 343.638ZM130.537 358.562C130.602 358.584 130.667 358.627 130.711 358.649C131.512 359.104 131.664 359.819 131.187 360.36L153.497 373.205C154.104 372.966 154.862 372.901 155.555 373.01L178.212 359.927C177.93 359.45 178.104 358.909 178.688 358.497L156.53 345.718C156.508 345.739 156.486 345.739 156.465 345.761C155.468 346.346 153.822 346.346 152.826 345.761C152.826 345.761 152.804 345.761 152.804 345.739L130.537 358.562ZM105.325 374.548L127.548 387.349C128.48 386.916 129.823 386.894 130.776 387.327L152.436 374.829C152.241 374.396 152.393 373.941 152.869 373.573L130.646 360.793C129.649 361.335 128.046 361.313 127.072 360.75C127.007 360.707 126.963 360.685 126.898 360.642L105.39 373.01C105.844 373.486 105.823 374.093 105.325 374.548ZM131.165 389.428L153.129 402.078C154.147 401.601 155.642 401.645 156.573 402.186C156.681 402.251 156.768 402.316 156.855 402.381L178.32 389.992C177.757 389.472 177.779 388.779 178.45 388.28L156.443 375.631C155.447 376.064 153.996 376.021 153.086 375.501C152.978 375.436 152.913 375.392 152.826 375.327L131.36 387.717C131.924 388.237 131.859 388.93 131.165 389.428ZM156.768 404.179L179.078 417.024C180.01 416.699 181.244 416.742 182.089 417.154L203.706 404.677C203.446 404.179 203.641 403.594 204.356 403.183L182.089 390.381C181.179 390.793 179.88 390.793 178.97 390.381L157.288 402.901C157.44 403.334 157.266 403.811 156.768 404.179ZM182.609 419.06L204.638 431.753C205.612 431.428 206.869 431.493 207.713 431.969L229.266 419.536C228.919 418.995 229.114 418.388 229.85 417.955C229.872 417.933 229.894 417.933 229.915 417.912L207.973 405.305C206.977 405.89 205.331 405.89 204.334 405.305C204.269 405.262 204.204 405.219 204.139 405.175L182.652 417.565C183.129 418.02 183.107 418.605 182.609 419.06ZM208.168 433.767L230.738 446.763C231.648 446.395 232.861 446.417 233.749 446.785L255.453 434.265C255.258 433.789 255.475 433.269 256.081 432.901L233.576 419.97C233.554 419.991 233.533 419.991 233.511 420.013C232.515 420.598 230.868 420.598 229.872 420.013C229.829 419.991 229.807 419.97 229.764 419.948L208.255 432.359C208.623 432.814 208.601 433.356 208.168 433.767ZM234.312 448.843L256.319 461.514C257.316 461.124 258.702 461.189 259.59 461.687C259.612 461.709 259.655 461.731 259.677 461.752L281.186 449.341C280.752 448.8 280.904 448.128 281.684 447.673L259.72 435.045C258.724 435.608 257.099 435.587 256.124 435.024C256.016 434.959 255.929 434.894 255.843 434.829L234.377 447.218C234.919 447.695 234.897 448.345 234.312 448.843ZM259.915 463.572L282.615 476.633C283.59 476.157 285.041 476.178 285.994 476.676L307.568 464.222C307.286 463.745 307.438 463.204 308.023 462.792L285.344 449.753C284.348 450.316 282.723 450.316 281.727 449.753L260.175 462.186C260.478 462.662 260.392 463.16 259.915 463.572ZM286.232 478.734L307.308 490.864C308.304 490.453 309.734 490.496 310.644 491.016C310.774 491.081 310.86 491.167 310.947 491.232L332.412 478.843C331.763 478.279 331.849 477.5 332.694 476.98L311.64 464.872C310.622 465.348 309.127 465.326 308.174 464.785C308.109 464.763 308.066 464.72 308.023 464.677L286.536 477.088C286.991 477.63 286.904 478.279 286.232 478.734ZM358.253 463.94C357.517 463.399 357.539 462.619 358.318 462.077L337.264 449.948C336.268 450.381 334.817 450.337 333.907 449.818C333.885 449.818 333.885 449.796 333.864 449.796L311.64 462.619C311.705 462.641 311.748 462.684 311.813 462.706C312.658 463.182 312.788 463.94 312.225 464.503L333.452 476.698C334.254 476.482 335.228 476.503 335.986 476.806L358.253 463.94ZM384.354 448.886C383.921 448.41 383.986 447.825 384.527 447.37L363.409 435.197C362.412 435.543 361.113 435.457 360.268 434.98C360.138 434.894 360.029 434.829 359.921 434.742L337.503 447.673C337.524 447.673 337.546 447.695 337.546 447.695C338.412 448.193 338.521 448.973 337.871 449.558L358.99 461.731C359.878 461.428 361.026 461.471 361.849 461.839L384.354 448.886ZM410.455 433.832C409.892 433.356 409.87 432.728 410.39 432.229L389.206 420.035C388.231 420.316 387.018 420.229 386.195 419.775C386.13 419.731 386.065 419.71 386.022 419.666L363.473 432.684C363.625 432.749 363.777 432.814 363.907 432.879C364.838 433.421 364.903 434.287 364.102 434.85L385.177 446.98C385.957 446.655 386.997 446.634 387.841 446.872L410.455 433.832ZM436.123 419.016C435.646 418.562 435.624 417.998 436.058 417.544L414.83 405.305C413.877 405.544 412.729 405.457 411.95 405.002C411.863 404.937 411.776 404.894 411.69 404.829L389.661 417.544C389.726 417.565 389.791 417.609 389.856 417.652C390.831 418.215 390.852 419.125 389.943 419.71L410.996 431.839C411.885 431.428 413.119 431.406 414.029 431.774L436.123 419.016ZM461.184 404.569C460.967 404.504 460.772 404.417 460.599 404.309C459.754 403.833 459.624 403.074 460.209 402.511L439.068 390.295C438.375 390.511 437.552 390.511 436.837 390.338L415.307 402.771C415.415 402.814 415.523 402.858 415.61 402.923C416.607 403.508 416.607 404.439 415.61 405.024L436.642 417.132C437.487 416.699 438.722 416.634 439.675 416.98L461.184 404.569ZM516.374 401.926L538.425 389.19C537.667 388.714 537.537 388.02 538.035 387.479L515.66 374.569C515.205 374.699 514.685 374.743 514.187 374.699L491.66 387.695C491.963 388.172 491.833 388.714 491.292 389.125L513.537 401.948C514.382 401.623 515.508 401.601 516.374 401.926ZM490.988 360.338C490.317 360.49 489.537 360.468 488.866 360.295L466.75 373.053C467.465 373.616 467.444 374.396 466.642 374.916L487.696 387.046C488.714 386.591 490.165 386.634 491.075 387.176C491.118 387.197 491.14 387.219 491.183 387.241L513.255 374.504C513.082 374.439 512.909 374.374 512.757 374.288C511.977 373.833 511.804 373.161 512.259 372.598L490.988 360.338ZM208.103 283.964C208.233 284.007 208.342 284.072 208.472 284.137C209.316 284.635 209.446 285.372 208.861 285.957L231.107 298.779C231.8 298.455 232.731 298.39 233.533 298.541L255.15 286.108C255.085 286.086 255.02 286.043 254.955 286C253.958 285.415 253.958 284.484 254.955 283.899L232.796 271.097C232.731 271.162 232.645 271.206 232.558 271.249C231.778 271.704 230.587 271.791 229.634 271.531L208.103 283.964ZM182.479 298.758C182.566 298.801 182.652 298.844 182.717 298.888C183.54 299.364 183.692 300.079 183.15 300.642L205.417 313.465C206.132 313.162 207.042 313.119 207.843 313.292L230.219 300.404C229.959 299.992 230.045 299.516 230.457 299.126L208.233 286.325C207.215 286.801 205.742 286.758 204.789 286.216C204.681 286.151 204.573 286.086 204.486 286L182.479 298.758ZM156.292 313.877C156.465 313.942 156.616 314.007 156.768 314.093C157.526 314.527 157.699 315.176 157.331 315.718L179.706 328.606C180.27 328.411 180.941 328.368 181.569 328.454L204.551 315.22C204.248 314.765 204.334 314.245 204.833 313.833L182.631 301.032C181.613 301.53 180.075 301.509 179.122 300.967C179.035 300.924 178.97 300.881 178.905 300.816L156.292 313.877ZM130.321 328.866C130.342 328.887 130.386 328.887 130.407 328.909C131.057 329.277 131.295 329.819 131.079 330.317L153.649 343.335C154.277 343.183 155.014 343.205 155.642 343.357L178.45 330.23C178.277 329.797 178.45 329.299 178.992 328.952L156.811 316.173C156.79 316.194 156.768 316.194 156.746 316.216C155.75 316.801 154.104 316.801 153.107 316.216C152.956 316.129 152.848 316.043 152.739 315.935L130.321 328.866ZM104.458 343.79C104.523 343.833 104.61 343.855 104.675 343.898C105.411 344.31 105.606 344.938 105.26 345.458L127.7 358.367C128.306 358.194 129.043 358.151 129.693 358.281L152.263 345.284C151.851 344.743 152.024 344.071 152.804 343.638C152.826 343.617 152.848 343.617 152.891 343.595L130.711 330.794C130.624 330.859 130.537 330.924 130.429 330.989C129.433 331.573 127.786 331.573 126.79 330.989C126.768 330.967 126.725 330.945 126.703 330.924L104.458 343.79ZM361.091 491.557L383.639 478.539C383.271 478.019 383.444 477.413 384.138 476.98L361.936 464.178C361.069 464.59 359.856 464.633 358.925 464.308L336.636 477.175C337.199 477.608 337.264 478.193 336.875 478.691L359.336 491.622C359.9 491.471 360.528 491.449 361.091 491.557ZM386.997 476.612L409.848 463.42C409.718 463.009 409.892 462.597 410.347 462.251L388.101 449.428C387.127 449.818 385.805 449.774 384.896 449.298L362.455 462.251C362.954 462.706 362.975 463.312 362.499 463.767L384.831 476.655C385.524 476.46 386.304 476.438 386.997 476.612ZM412.838 461.687L435.884 448.388C435.646 447.955 435.754 447.478 436.209 447.11L413.921 434.287C413.054 434.59 411.928 434.569 411.083 434.222L388.535 447.218C389.358 447.738 389.423 448.518 388.73 449.081L410.996 461.904C411.56 461.687 412.209 461.623 412.838 461.687ZM439.112 446.525L461.574 433.551C461.4 433.161 461.509 432.749 461.877 432.424L439.545 419.558C438.657 419.84 437.53 419.775 436.729 419.406L414.679 432.121C415.35 432.663 415.329 433.399 414.614 433.919L436.859 446.72C437.509 446.46 438.354 446.395 439.112 446.525ZM486.353 419.255C485.465 418.757 485.357 417.977 485.985 417.414L463.718 404.547C463.241 404.699 462.7 404.764 462.18 404.742L440.346 417.327C441.126 417.89 441.083 418.692 440.26 419.233L462.462 432.034C463.111 431.731 463.935 431.644 464.693 431.753L486.353 419.255Z" fill="#D3DAED"/>
<path d="M470.15 399.295L176.641 396.79V404.19C176.641 406.201 177.916 407.902 179.651 408.212L262.645 422.784C263.633 422.956 264.633 423.002 265.621 422.922L466.956 406.305C468.748 406.155 470.15 404.443 470.15 402.375V399.295V399.295Z" fill="#26264F"/>
<path d="M363.645 387.424L179.686 400.973C176.399 401.214 173.722 398.64 173.722 395.215V258.234C173.722 254.81 176.399 252.04 179.686 252.04H363.645C366.357 252.04 368.552 254.545 368.552 257.637V381.471C368.552 384.562 366.357 387.228 363.645 387.424Z" fill="#26264F"/>
<path d="M366.576 387.424L182.617 400.973C179.33 401.214 176.652 398.64 176.652 395.215V258.234C176.652 254.81 179.33 252.04 182.617 252.04H366.576C369.288 252.04 371.483 254.545 371.483 257.637V381.471C371.483 384.562 369.288 387.228 366.576 387.424Z" fill="url(#paint1_linear)"/>
<path d="M360.841 378.702L189.5 390.469C186.822 390.653 184.639 388.538 184.639 385.746V265.807C184.639 263.015 186.811 260.739 189.5 260.728L360.841 259.992C363.082 259.981 364.886 262.038 364.886 264.577V373.818C364.898 376.357 363.082 378.541 360.841 378.702Z" fill="#15A5DB"/>
<path d="M281.089 255.786C281.089 257.062 280.147 258.096 278.975 258.096C277.802 258.096 276.849 257.073 276.849 255.798C276.849 254.522 277.802 253.488 278.975 253.488C280.147 253.476 281.089 254.511 281.089 255.786Z" fill="white"/>
<path opacity="0.2" d="M182.617 400.973L365.645 387.493L366.576 387.424C367.817 387.332 368.955 386.723 369.816 385.781C356.647 385.057 348.465 380.391 343.19 375.553C332.595 365.854 334.433 356.293 322.999 349.915C308.749 341.963 297.534 352.041 286.72 342.101C280.158 336.067 283.387 331.574 275.309 322.565C266.368 312.59 260.553 315.945 251.567 306.959C240.213 295.605 245.89 286.768 236.11 278.62C224.239 268.726 211.449 277.885 200.153 268.404C195.28 264.313 192.603 258.36 191.212 252.04H182.617C179.33 252.04 176.652 254.81 176.652 258.234V395.227C176.652 398.64 179.33 401.214 182.617 400.973Z" fill="white"/>
<path d="M373.907 386.677L176.652 400.927L262.656 416.038C263.645 416.211 264.644 416.257 265.633 416.176L470.15 399.295L377.045 386.78C376.01 386.631 374.953 386.597 373.907 386.677Z" fill="url(#paint2_linear)"/>
<path d="M205.427 401.053L369.655 389.01L420.482 395.79L257.668 408.661L205.427 401.053Z" fill="#26264F"/>
<g opacity="0.67">
<path opacity="0.67" d="M248.417 312.268C251.922 305.465 258.45 300.512 266.092 299.409L266.62 266.439C244.798 267.531 225.836 281.665 217.298 301.558L248.417 312.268Z" fill="white"/>
<path opacity="0.67" d="M290.994 325.793C289.155 336.757 279.95 345.479 268.769 346.03C265.448 346.191 262.287 345.617 259.426 344.445L242.28 373.633C250.221 377.529 259.242 379.437 268.757 378.816C296.831 377 319.332 353.787 321.849 325.874L290.994 325.793Z" fill="white"/>
<path opacity="0.67" d="M236.971 370.634L254.197 341.388C249.015 337.285 245.705 330.85 245.705 323.472C245.705 321.691 245.9 319.944 246.268 318.267L215.08 307.637C213.425 313.061 212.54 318.807 212.54 324.725C212.54 344.33 222.274 361.119 236.971 370.634Z" fill="white"/>
</g>
<path d="M272.183 299.351C282.387 300.661 290.294 309.004 291.236 319.611L342.11 319.91C342.11 319.887 342.11 319.864 342.11 319.841C342.11 279.666 312.128 246.869 273.056 244.628L272.183 299.351Z" fill="#00B9FE"/>
<path d="M173.975 153.418V236.216C173.975 238.962 176.25 241.192 179.054 241.192H349.441C352.142 241.192 354.325 239.008 354.325 236.308V155.13L173.975 153.418Z" fill="#EBEFF2"/>
<path d="M349.441 144.776L179.054 142.96C176.25 142.926 173.975 145.132 173.975 147.879V156.36L354.325 158.014V149.694C354.325 147.005 352.142 144.799 349.441 144.776Z" fill="#D8DEE8"/>
<path d="M215.587 197.661L224.976 165.461C239.191 170.092 249.453 183.262 249.533 198.741L215.587 197.661Z" fill="#0DA800"/>
<path d="M240.766 200.741C240.237 208.107 236.652 214.623 231.239 219.07L216.507 199.948L240.766 200.741Z" fill="white"/>
<path d="M213.496 196.546C207.808 191.157 200.959 184.641 195.5 179.447C200.338 174.954 206.877 172.23 214.059 172.276C216.243 172.287 218.357 172.563 220.38 173.057L213.496 196.546Z" fill="white"/>
<path d="M212.3 198.569L191.684 213.382C188.8 209.153 187.122 204.074 187.122 198.603C187.122 191.858 189.685 185.721 193.891 181.079C195.396 182.515 197.074 184.112 198.913 185.871C204.486 191.157 210.094 196.466 212.3 198.569Z" fill="white"/>
<path d="M212.898 200.948L212.496 225.126C204.647 224.678 197.683 220.909 193.052 215.22L212.898 200.948Z" fill="white"/>
<path d="M215.185 201.982L229.412 220.438C225.263 223.299 220.23 225.023 214.806 225.161L215.185 201.982Z" fill="white"/>
<path d="M341.663 181.412L254.349 180.826V172.644L341.663 173.299V181.412Z" fill="white"/>
<path d="M341.663 196.086L254.349 195.65V187.456L341.663 187.973V196.086Z" fill="white"/>
<path d="M341.663 210.761L254.349 210.462V202.28L341.663 202.648V210.761Z" fill="white"/>
<path d="M341.663 225.436L254.349 225.287V217.093L341.663 217.323V225.436Z" fill="white"/>
<path d="M185.628 149.66C185.628 150.878 184.617 151.855 183.375 151.843C182.134 151.832 181.123 150.832 181.123 149.614C181.123 148.396 182.134 147.408 183.375 147.431C184.617 147.431 185.628 148.43 185.628 149.66Z" fill="white"/>
<path d="M399.007 261.398L392.654 271.112L424.392 291.867L430.744 282.153L399.007 261.398Z" fill="white"/>
<path d="M398.304 277.333C404.93 277.333 410.301 271.962 410.301 265.336C410.301 258.71 404.93 253.338 398.304 253.338C391.678 253.338 386.307 258.71 386.307 265.336C386.307 271.962 391.678 277.333 398.304 277.333Z" fill="url(#paint3_linear)"/>
<path d="M420.115 293.502C425.554 293.502 429.963 289.093 429.963 283.654C429.963 278.214 425.554 273.805 420.115 273.805C414.676 273.805 410.267 278.214 410.267 283.654C410.267 289.093 414.676 293.502 420.115 293.502Z" fill="url(#paint4_linear)"/>
<path d="M419.632 236.377C427.978 236.377 434.744 226.869 434.744 215.14C434.744 203.411 427.978 193.903 419.632 193.903C411.286 193.903 404.521 203.411 404.521 215.14C404.521 226.869 411.286 236.377 419.632 236.377Z" fill="url(#paint5_linear)"/>
<path d="M373.458 163.691H345.016C315.85 163.691 292.212 187.33 292.212 216.496C292.212 232.056 304.83 244.673 320.39 244.673H398.085C413.645 244.673 426.263 232.056 426.263 216.496C426.251 187.33 402.613 163.691 373.458 163.691Z" fill="url(#paint6_linear)"/>
<path d="M368.46 302.397H350.004C331.088 302.397 315.747 287.055 315.747 268.14C315.747 258.05 323.929 249.856 334.03 249.856H384.433C394.523 249.856 402.716 258.039 402.716 268.14C402.716 287.067 387.375 302.397 368.46 302.397Z" fill="url(#paint7_linear)"/>
<path d="M399.269 233.274H345.212C337.88 233.274 331.87 227.654 331.87 220.736V210.118C331.87 203.189 337.88 197.764 345.212 198.006L399.269 199.73C405.808 199.936 411.059 205.326 411.059 211.761V221.633C411.059 228.057 405.808 233.274 399.269 233.274Z" fill="url(#paint8_linear)"/>
<path d="M362.53 214.853C362.53 219.484 358.588 223.184 353.693 223.115C348.751 223.058 344.718 219.185 344.718 214.485C344.718 209.785 348.751 206.085 353.693 206.222C358.588 206.372 362.53 210.233 362.53 214.853Z" fill="white"/>
<path d="M399.062 215.599C399.062 220.07 395.385 223.644 390.811 223.586C386.203 223.529 382.434 219.794 382.434 215.255C382.434 210.715 386.203 207.141 390.811 207.268C395.385 207.406 399.062 211.129 399.062 215.599Z" fill="white"/>
<path opacity="0.3" d="M378.848 237.262C370.804 227.815 374.378 220.265 363.874 207.464C349.418 189.847 332.536 191.846 328.675 179.895C327.606 176.585 327.48 172.046 330.353 165.76C308.323 172.115 292.212 192.421 292.212 216.496C292.212 232.056 304.83 244.674 320.39 244.674H388.099C384.042 242.456 381.077 239.87 378.848 237.262Z" fill="white"/>
<path d="M299.808 236.227C308.154 236.227 314.919 226.719 314.919 214.991C314.919 203.262 308.154 193.754 299.808 193.754C291.462 193.754 284.696 203.262 284.696 214.991C284.696 226.719 291.462 236.227 299.808 236.227Z" fill="url(#paint9_linear)"/>
<path d="M287.857 224.276C291.506 224.276 294.464 220.119 294.464 214.99C294.464 209.862 291.506 205.705 287.857 205.705C284.207 205.705 281.249 209.862 281.249 214.99C281.249 220.119 284.207 224.276 287.857 224.276Z" fill="url(#paint10_linear)"/>
<path opacity="0.4" d="M372.999 283.539C370.471 271.656 342.465 271.932 341.707 264.164C341.121 258.176 357.198 252.247 359.22 251.5C360.944 250.868 362.668 250.328 364.357 249.856H334.03C323.941 249.856 315.747 258.039 315.747 268.14C315.747 287.055 331.088 302.397 350.004 302.397H368.46C370.229 302.397 371.976 302.259 373.677 302.006C372.068 300.018 371.022 297.834 370.769 295.467C370.206 290.192 373.987 288.147 372.999 283.539Z" fill="url(#paint11_linear)"/>
<path d="M359.692 254.407C375.787 254.407 388.835 252.827 388.835 250.879C388.835 248.931 375.787 247.351 359.692 247.351C343.597 247.351 330.549 248.931 330.549 250.879C330.549 252.827 343.597 254.407 359.692 254.407Z" fill="url(#paint12_linear)"/>
<path d="M322.278 261.394L315.926 271.107L347.663 291.862L354.016 282.149L322.278 261.394Z" fill="white"/>
<path d="M321.574 277.333C328.199 277.333 333.571 271.962 333.571 265.336C333.571 258.71 328.199 253.338 321.574 253.338C314.948 253.338 309.576 258.71 309.576 265.336C309.576 271.962 314.948 277.333 321.574 277.333Z" fill="url(#paint13_linear)"/>
<path d="M348.97 280.378H376.756L375.653 291.882L348.418 290.962L348.97 280.378Z" fill="white"/>
<path d="M343.385 293.502C348.824 293.502 353.233 289.093 353.233 283.654C353.233 278.214 348.824 273.805 343.385 273.805C337.945 273.805 333.536 278.214 333.536 283.654C333.536 289.093 337.945 293.502 343.385 293.502Z" fill="url(#paint14_linear)"/>
<path d="M379.17 280.057C377.481 279.115 375.113 278.448 371.758 278.574C370.172 278.632 368.85 279.839 368.666 281.413L367.701 289.629H382.031L382.502 287.664C383.226 284.677 381.87 281.562 379.17 280.057Z" fill="url(#paint15_linear)"/>
<path d="M404.486 289.836L352.785 288.94C352.072 288.928 351.406 289.261 350.981 289.848L349.406 292.043C348.625 293.134 349.372 294.663 350.716 294.697L405.44 296.225L404.486 289.836Z" fill="#2C3658"/>
<path d="M459.98 264.669L406.67 262.187C405.095 262.118 403.59 262.876 402.728 264.198L382.146 295.421L438.525 296.892C440.076 296.938 441.536 296.191 442.42 294.915L461.382 267.508C462.186 266.335 461.405 264.738 459.98 264.669Z" fill="#2C3658"/>
<path opacity="0.3" d="M402.728 264.198C403.601 262.876 405.095 262.118 406.67 262.187L407.842 262.244C407.899 263.98 408.325 265.577 409.29 266.922C412.312 271.105 417.932 269.013 421.712 273.483C425.872 278.39 421.391 283.596 425.102 288.147C429.01 292.939 436.043 289.71 443.673 293.111L442.42 294.915C441.536 296.191 440.076 296.926 438.525 296.892L382.146 295.421L402.728 264.198Z" fill="white" fill-opacity="0.27"/>
<path opacity="0.7" d="M334.974 330.907V399.972C334.974 402.27 336.686 404.029 338.8 403.925L460.233 397.547C462.049 397.455 463.52 395.651 463.52 393.525V329.585L334.974 330.907Z" fill="url(#paint16_linear)"/>
<path d="M460.233 321.495L338.8 322.127C336.686 322.139 334.974 324 334.974 326.299V333.378L463.52 331.884V325.333C463.52 323.196 462.049 321.484 460.233 321.495Z" fill="url(#paint17_linear)"/>
<path d="M343.742 327.597C343.742 328.608 342.983 329.436 342.053 329.447C341.122 329.459 340.363 328.643 340.363 327.62C340.363 326.609 341.122 325.77 342.053 325.77C342.983 325.77 343.742 326.586 343.742 327.597Z" fill="white"/>
<path d="M361.198 393.813L351.637 394.261V342.927L361.198 342.755V393.813Z" fill="white"/>
<path d="M361.198 393.812L351.637 394.26V369.886L361.198 369.576V393.812Z" fill="url(#paint18_linear)"/>
<path d="M374.309 393.192L364.909 393.64V342.697L374.309 342.525V393.192Z" fill="white"/>
<path d="M374.309 393.192L364.909 393.64V381.539L374.309 381.16V393.192Z" fill="url(#paint19_linear)"/>
<path d="M387.226 392.582L377.964 393.019V342.467L387.226 342.306V392.582Z" fill="white"/>
<path d="M387.226 392.583L377.964 393.019V386.722L387.226 386.32V392.583Z" fill="url(#paint20_linear)"/>
<path d="M399.959 391.985L390.835 392.41V342.237L399.959 342.088V391.985Z" fill="white"/>
<path d="M399.959 391.985L390.835 392.411V353.109L399.959 352.891V391.985Z" fill="url(#paint21_linear)"/>
<path d="M412.486 391.387L403.499 391.813V342.019L412.486 341.87V391.387Z" fill="white"/>
<path d="M412.486 391.388L403.499 391.813V357.246L412.486 357.004V391.388Z" fill="url(#paint22_linear)"/>
<path d="M424.827 390.801L415.979 391.227V341.812L424.827 341.651V390.801Z" fill="white"/>
<path d="M424.827 390.801L415.979 391.227V348.995L424.827 348.799V390.801Z" fill="url(#paint23_linear)"/>
<path d="M436.986 390.227L428.264 390.64V341.594L436.986 341.444V390.227Z" fill="white"/>
<path d="M436.986 390.227L428.264 390.641V360.509L436.986 360.268V390.227Z" fill="url(#paint24_linear)"/>
<path d="M448.971 389.664L440.375 390.066V341.387L448.971 341.238V389.664Z" fill="white"/>
<path d="M448.971 389.664L440.375 390.066V373.162L448.971 372.852V389.664Z" fill="url(#paint25_linear)"/>
<defs>
<linearGradient id="paint0_linear" x1="505.286" y1="519.281" x2="46.2288" y2="187.833" gradientUnits="userSpaceOnUse">
<stop stop-color="white"/>
<stop offset="0.765425" stop-color="#D9EFFB"/>
</linearGradient>
<linearGradient id="paint1_linear" x1="176.65" y1="326.512" x2="371.481" y2="326.512" gradientUnits="userSpaceOnUse">
<stop stop-color="#444B8C"/>
<stop offset="0.9964" stop-color="#26264F"/>
</linearGradient>
<linearGradient id="paint2_linear" x1="176.65" y1="401.425" x2="470.155" y2="401.425" gradientUnits="userSpaceOnUse">
<stop stop-color="#444B8C"/>
<stop offset="0.9964" stop-color="#26264F"/>
</linearGradient>
<linearGradient id="paint3_linear" x1="386.31" y1="265.341" x2="410.3" y2="265.341" gradientUnits="userSpaceOnUse">
<stop stop-color="#40447E"/>
<stop offset="0.9964" stop-color="#3C3B6B"/>
</linearGradient>
<linearGradient id="paint4_linear" x1="410.269" y1="283.657" x2="429.967" y2="283.657" gradientUnits="userSpaceOnUse">
<stop stop-color="#40447E"/>
<stop offset="0.9964" stop-color="#3C3B6B"/>
</linearGradient>
<linearGradient id="paint5_linear" x1="404.525" y1="215.143" x2="434.745" y2="215.143" gradientUnits="userSpaceOnUse">
<stop stop-color="#FFC444"/>
<stop offset="0.9964" stop-color="#F36F56"/>
</linearGradient>
<linearGradient id="paint6_linear" x1="292.215" y1="204.176" x2="426.254" y2="204.176" gradientUnits="userSpaceOnUse">
<stop stop-color="#FCB148"/>
<stop offset="0.0520724" stop-color="#FDBA46"/>
<stop offset="0.1424" stop-color="#FFC244"/>
<stop offset="0.3183" stop-color="#FFC444"/>
<stop offset="0.4849" stop-color="#FDB946"/>
<stop offset="0.7754" stop-color="#F99C4D"/>
<stop offset="0.8658" stop-color="#F8924F"/>
<stop offset="1" stop-color="#F8924F"/>
</linearGradient>
<linearGradient id="paint7_linear" x1="315.754" y1="276.131" x2="402.715" y2="276.131" gradientUnits="userSpaceOnUse">
<stop stop-color="#FCB148"/>
<stop offset="0.0520724" stop-color="#FDBA46"/>
<stop offset="0.1424" stop-color="#FFC244"/>
<stop offset="0.3183" stop-color="#FFC444"/>
<stop offset="0.4849" stop-color="#FDB946"/>
<stop offset="0.7754" stop-color="#F99C4D"/>
<stop offset="0.8658" stop-color="#F8924F"/>
<stop offset="1" stop-color="#F8924F"/>
</linearGradient>
<linearGradient id="paint8_linear" x1="331.873" y1="215.63" x2="411.055" y2="215.63" gradientUnits="userSpaceOnUse">
<stop stop-color="#444B8C"/>
<stop offset="0.9964" stop-color="#26264F"/>
</linearGradient>
<linearGradient id="paint9_linear" x1="284.703" y1="214.995" x2="314.923" y2="214.995" gradientUnits="userSpaceOnUse">
<stop stop-color="#FFC444"/>
<stop offset="0.9964" stop-color="#F36F56"/>
</linearGradient>
<linearGradient id="paint10_linear" x1="281.253" y1="214.995" x2="294.468" y2="214.995" gradientUnits="userSpaceOnUse">
<stop stop-color="#FFC444"/>
<stop offset="0.9964" stop-color="#F36F56"/>
</linearGradient>
<linearGradient id="paint11_linear" x1="315.754" y1="276.131" x2="373.674" y2="276.131" gradientUnits="userSpaceOnUse">
<stop stop-color="#FCB148"/>
<stop offset="0.0520724" stop-color="#FDBA46"/>
<stop offset="0.1424" stop-color="#FFC244"/>
<stop offset="0.3183" stop-color="#FFC444"/>
<stop offset="0.4849" stop-color="#FDB946"/>
<stop offset="0.7754" stop-color="#F99C4D"/>
<stop offset="0.8658" stop-color="#F8924F"/>
<stop offset="1" stop-color="#F8924F"/>
</linearGradient>
<linearGradient id="paint12_linear" x1="346.651" y1="351.763" x2="355.03" y2="286.935" gradientUnits="userSpaceOnUse">
<stop stop-color="#FCB148"/>
<stop offset="0.0520724" stop-color="#FDBA46"/>
<stop offset="0.1424" stop-color="#FFC244"/>
<stop offset="0.3183" stop-color="#FFC444"/>
<stop offset="0.3975" stop-color="#FEC045"/>
<stop offset="0.7095" stop-color="#FAA34B"/>
<stop offset="0.8658" stop-color="#F8924F"/>
<stop offset="1" stop-color="#F8924F"/>
</linearGradient>
<linearGradient id="paint13_linear" x1="309.574" y1="265.341" x2="333.565" y2="265.341" gradientUnits="userSpaceOnUse">
<stop stop-color="#40447E"/>
<stop offset="0.9964" stop-color="#3C3B6B"/>
</linearGradient>
<linearGradient id="paint14_linear" x1="333.534" y1="283.657" x2="353.232" y2="283.657" gradientUnits="userSpaceOnUse">
<stop stop-color="#40447E"/>
<stop offset="0.9964" stop-color="#3C3B6B"/>
</linearGradient>
<linearGradient id="paint15_linear" x1="367.712" y1="284.102" x2="382.701" y2="284.102" gradientUnits="userSpaceOnUse">
<stop stop-color="#40447E"/>
<stop offset="0.9964" stop-color="#3C3B6B"/>
</linearGradient>
<linearGradient id="paint16_linear" x1="475.722" y1="374.96" x2="329.222" y2="372.46" gradientUnits="userSpaceOnUse">
<stop stop-color="#FFB6B6" stop-opacity="0.63"/>
<stop offset="1" stop-color="white" stop-opacity="0.76"/>
</linearGradient>
<linearGradient id="paint17_linear" x1="409.831" y1="311.155" x2="352.481" y2="404.909" gradientUnits="userSpaceOnUse">
<stop stop-color="#FB4B00"/>
<stop offset="1" stop-color="#FB6FBB"/>
</linearGradient>
<linearGradient id="paint18_linear" x1="361.995" y1="364.448" x2="348.737" y2="405.822" gradientUnits="userSpaceOnUse">
<stop stop-color="#FB4B00"/>
<stop offset="1" stop-color="#FB6FBB"/>
</linearGradient>
<linearGradient id="paint19_linear" x1="372.722" y1="377.653" x2="365.324" y2="400.74" gradientUnits="userSpaceOnUse">
<stop stop-color="#FB4B00"/>
<stop offset="1" stop-color="#FB6FBB"/>
</linearGradient>
<linearGradient id="paint20_linear" x1="384.545" y1="383.58" x2="379.924" y2="397.999" gradientUnits="userSpaceOnUse">
<stop stop-color="#FB4B00"/>
<stop offset="1" stop-color="#FB6FBB"/>
</linearGradient>
<linearGradient id="paint21_linear" x1="403.919" y1="345.935" x2="383.644" y2="409.208" gradientUnits="userSpaceOnUse">
<stop stop-color="#FB4B00"/>
<stop offset="1" stop-color="#FB6FBB"/>
</linearGradient>
<linearGradient id="paint22_linear" x1="415.564" y1="350.683" x2="397.56" y2="406.87" gradientUnits="userSpaceOnUse">
<stop stop-color="#FB4B00"/>
<stop offset="1" stop-color="#FB6FBB"/>
</linearGradient>
<linearGradient id="paint23_linear" x1="429.496" y1="341.521" x2="407.875" y2="408.994" gradientUnits="userSpaceOnUse">
<stop stop-color="#FB4B00"/>
<stop offset="1" stop-color="#FB6FBB"/>
</linearGradient>
<linearGradient id="paint24_linear" x1="439.296" y1="354.57" x2="423.448" y2="404.026" gradientUnits="userSpaceOnUse">
<stop stop-color="#FB4B00"/>
<stop offset="1" stop-color="#FB6FBB"/>
</linearGradient>
<linearGradient id="paint25_linear" x1="448.69" y1="368.887" x2="439.148" y2="398.664" gradientUnits="userSpaceOnUse">
<stop stop-color="#FB4B00"/>
<stop offset="1" stop-color="#FB6FBB"/>
</linearGradient>
</defs>
</svg>
