<svg width="44" height="41" viewBox="0 0 44 41" fill="none" xmlns="http://www.w3.org/2000/svg">
<path d="M0.892941 31.4175L16.4533 3.11947C17.6278 1.16643 19.7019 0 22.0016 0C24.3013 0 26.3755 1.16643 27.5499 3.11947C27.5588 3.13441 27.5663 3.14935 27.5751 3.16429L43.0838 31.3727C44.2834 33.3669 44.3061 35.7619 43.1456 37.7785C41.9824 39.7963 39.8869 41 37.5368 41H6.55245C4.20232 41 2.0207 39.7963 0.85762 37.7785C-0.302883 35.7619 -0.280281 33.3669 0.892941 31.4175ZM24.5823 12.9571C24.5823 11.5491 23.4269 10.4078 22.0016 10.4078C20.5763 10.4078 19.4209 11.5492 19.4209 12.9571V23.1545C19.4209 24.5624 20.5764 25.7038 22.0016 25.7038C23.4269 25.7038 24.5823 24.5623 24.5823 23.1545V12.9571ZM22.0016 35.9013C24.1362 35.9013 25.8728 34.186 25.8728 32.0773C25.8728 29.9686 24.1363 28.2533 22.0016 28.2533C19.867 28.2533 18.1306 29.9686 18.1306 32.0773C18.1305 34.1859 19.8669 35.9013 22.0016 35.9013Z" fill="#FB4B00"/>
</svg>
