<svg width="184" height="156" viewBox="0 0 184 156" fill="none" xmlns="http://www.w3.org/2000/svg">
<path d="M28.6093 4.53841C29.7206 4.53841 30.6214 3.63755 30.6214 2.52628C30.6214 1.41502 29.7206 0.51416 28.6093 0.51416C27.498 0.51416 26.5972 1.41502 26.5972 2.52628C26.5972 3.63755 27.498 4.53841 28.6093 4.53841Z" fill="#E6E6E6"/>
<path d="M38.7948 4.53841C39.9061 4.53841 40.807 3.63755 40.807 2.52628C40.807 1.41502 39.9061 0.51416 38.7948 0.51416C37.6836 0.51416 36.7827 1.41502 36.7827 2.52628C36.7827 3.63755 37.6836 4.53841 38.7948 4.53841Z" fill="#E6E6E6"/>
<path d="M48.9804 4.53841C50.0917 4.53841 50.9925 3.63755 50.9925 2.52628C50.9925 1.41502 50.0917 0.51416 48.9804 0.51416C47.8691 0.51416 46.9683 1.41502 46.9683 2.52628C46.9683 3.63755 47.8691 4.53841 48.9804 4.53841Z" fill="#E6E6E6"/>
<path d="M59.165 4.53841C60.2762 4.53841 61.1771 3.63755 61.1771 2.52628C61.1771 1.41502 60.2762 0.51416 59.165 0.51416C58.0537 0.51416 57.1528 1.41502 57.1528 2.52628C57.1528 3.63755 58.0537 4.53841 59.165 4.53841Z" fill="#E6E6E6"/>
<path d="M69.3505 4.53841C70.4618 4.53841 71.3626 3.63755 71.3626 2.52628C71.3626 1.41502 70.4618 0.51416 69.3505 0.51416C68.2392 0.51416 67.3384 1.41502 67.3384 2.52628C67.3384 3.63755 68.2392 4.53841 69.3505 4.53841Z" fill="#E6E6E6"/>
<path d="M28.6093 14.8516C29.7206 14.8516 30.6214 13.9508 30.6214 12.8395C30.6214 11.7283 29.7206 10.8274 28.6093 10.8274C27.498 10.8274 26.5972 11.7283 26.5972 12.8395C26.5972 13.9508 27.498 14.8516 28.6093 14.8516Z" fill="#E6E6E6"/>
<path d="M38.7948 14.8516C39.9061 14.8516 40.807 13.9508 40.807 12.8395C40.807 11.7283 39.9061 10.8274 38.7948 10.8274C37.6836 10.8274 36.7827 11.7283 36.7827 12.8395C36.7827 13.9508 37.6836 14.8516 38.7948 14.8516Z" fill="#E6E6E6"/>
<path d="M48.9804 14.8516C50.0917 14.8516 50.9925 13.9508 50.9925 12.8395C50.9925 11.7283 50.0917 10.8274 48.9804 10.8274C47.8691 10.8274 46.9683 11.7283 46.9683 12.8395C46.9683 13.9508 47.8691 14.8516 48.9804 14.8516Z" fill="#E6E6E6"/>
<path d="M59.165 14.8516C60.2762 14.8516 61.1771 13.9508 61.1771 12.8395C61.1771 11.7283 60.2762 10.8274 59.165 10.8274C58.0537 10.8274 57.1528 11.7283 57.1528 12.8395C57.1528 13.9508 58.0537 14.8516 59.165 14.8516Z" fill="#00ADEE"/>
<path d="M69.3505 14.8516C70.4618 14.8516 71.3626 13.9508 71.3626 12.8395C71.3626 11.7283 70.4618 10.8274 69.3505 10.8274C68.2392 10.8274 67.3384 11.7283 67.3384 12.8395C67.3384 13.9508 68.2392 14.8516 69.3505 14.8516Z" fill="#E6E6E6"/>
<path d="M89.7216 14.8516C90.8329 14.8516 91.7337 13.9508 91.7337 12.8395C91.7337 11.7283 90.8329 10.8274 89.7216 10.8274C88.6103 10.8274 87.7095 11.7283 87.7095 12.8395C87.7095 13.9508 88.6103 14.8516 89.7216 14.8516Z" fill="#E6E6E6"/>
<path d="M28.6093 25.1648C29.7206 25.1648 30.6214 24.2639 30.6214 23.1526C30.6214 22.0414 29.7206 21.1405 28.6093 21.1405C27.498 21.1405 26.5972 22.0414 26.5972 23.1526C26.5972 24.2639 27.498 25.1648 28.6093 25.1648Z" fill="#E6E6E6"/>
<path d="M38.7948 25.1648C39.9061 25.1648 40.807 24.2639 40.807 23.1526C40.807 22.0414 39.9061 21.1405 38.7948 21.1405C37.6836 21.1405 36.7827 22.0414 36.7827 23.1526C36.7827 24.2639 37.6836 25.1648 38.7948 25.1648Z" fill="#E6E6E6"/>
<path d="M48.9804 25.1648C50.0917 25.1648 50.9925 24.2639 50.9925 23.1526C50.9925 22.0414 50.0917 21.1405 48.9804 21.1405C47.8691 21.1405 46.9683 22.0414 46.9683 23.1526C46.9683 24.2639 47.8691 25.1648 48.9804 25.1648Z" fill="#E6E6E6"/>
<path d="M59.165 25.1648C60.2762 25.1648 61.1771 24.2639 61.1771 23.1526C61.1771 22.0414 60.2762 21.1405 59.165 21.1405C58.0537 21.1405 57.1528 22.0414 57.1528 23.1526C57.1528 24.2639 58.0537 25.1648 59.165 25.1648Z" fill="#E6E6E6"/>
<path d="M69.3505 25.1648C70.4618 25.1648 71.3626 24.2639 71.3626 23.1526C71.3626 22.0414 70.4618 21.1405 69.3505 21.1405C68.2392 21.1405 67.3384 22.0414 67.3384 23.1526C67.3384 24.2639 68.2392 25.1648 69.3505 25.1648Z" fill="#E6E6E6"/>
<path d="M28.6093 35.4779C29.7206 35.4779 30.6214 34.577 30.6214 33.4657C30.6214 32.3545 29.7206 31.4536 28.6093 31.4536C27.498 31.4536 26.5972 32.3545 26.5972 33.4657C26.5972 34.577 27.498 35.4779 28.6093 35.4779Z" fill="#E6E6E6"/>
<path d="M38.7948 35.4779C39.9061 35.4779 40.807 34.577 40.807 33.4657C40.807 32.3545 39.9061 31.4536 38.7948 31.4536C37.6836 31.4536 36.7827 32.3545 36.7827 33.4657C36.7827 34.577 37.6836 35.4779 38.7948 35.4779Z" fill="#E6E6E6"/>
<path d="M48.9804 35.4779C50.0917 35.4779 50.9925 34.577 50.9925 33.4657C50.9925 32.3545 50.0917 31.4536 48.9804 31.4536C47.8691 31.4536 46.9683 32.3545 46.9683 33.4657C46.9683 34.577 47.8691 35.4779 48.9804 35.4779Z" fill="#E6E6E6"/>
<path d="M59.165 35.4779C60.2762 35.4779 61.1771 34.577 61.1771 33.4657C61.1771 32.3545 60.2762 31.4536 59.165 31.4536C58.0537 31.4536 57.1528 32.3545 57.1528 33.4657C57.1528 34.577 58.0537 35.4779 59.165 35.4779Z" fill="#E6E6E6"/>
<path d="M69.3505 35.4779C70.4618 35.4779 71.3626 34.577 71.3626 33.4657C71.3626 32.3545 70.4618 31.4536 69.3505 31.4536C68.2392 31.4536 67.3384 32.3545 67.3384 33.4657C67.3384 34.577 68.2392 35.4779 69.3505 35.4779Z" fill="#E6E6E6"/>
<path d="M79.5361 35.4779C80.6473 35.4779 81.5482 34.577 81.5482 33.4657C81.5482 32.3545 80.6473 31.4536 79.5361 31.4536C78.4248 31.4536 77.5239 32.3545 77.5239 33.4657C77.5239 34.577 78.4248 35.4779 79.5361 35.4779Z" fill="#E6E6E6"/>
<path d="M89.7216 35.4779C90.8329 35.4779 91.7337 34.577 91.7337 33.4657C91.7337 32.3545 90.8329 31.4536 89.7216 31.4536C88.6103 31.4536 87.7095 32.3545 87.7095 33.4657C87.7095 34.577 88.6103 35.4779 89.7216 35.4779Z" fill="#E6E6E6"/>
<path d="M99.9071 35.4779C101.018 35.4779 101.919 34.577 101.919 33.4657C101.919 32.3545 101.018 31.4536 99.9071 31.4536C98.7959 31.4536 97.895 32.3545 97.895 33.4657C97.895 34.577 98.7959 35.4779 99.9071 35.4779Z" fill="#E6E6E6"/>
<path d="M110.092 35.4779C111.203 35.4779 112.104 34.577 112.104 33.4657C112.104 32.3545 111.203 31.4536 110.092 31.4536C108.981 31.4536 108.08 32.3545 108.08 33.4657C108.08 34.577 108.981 35.4779 110.092 35.4779Z" fill="#E6E6E6"/>
<path d="M120.277 35.4779C121.389 35.4779 122.289 34.577 122.289 33.4657C122.289 32.3545 121.389 31.4536 120.277 31.4536C119.166 31.4536 118.265 32.3545 118.265 33.4657C118.265 34.577 119.166 35.4779 120.277 35.4779Z" fill="#E6E6E6"/>
<path d="M79.5361 45.7911C80.6473 45.7911 81.5482 44.8902 81.5482 43.779C81.5482 42.6677 80.6473 41.7668 79.5361 41.7668C78.4248 41.7668 77.5239 42.6677 77.5239 43.779C77.5239 44.8902 78.4248 45.7911 79.5361 45.7911Z" fill="#E6E6E6"/>
<path d="M89.7216 45.7911C90.8329 45.7911 91.7337 44.8902 91.7337 43.779C91.7337 42.6677 90.8329 41.7668 89.7216 41.7668C88.6103 41.7668 87.7095 42.6677 87.7095 43.779C87.7095 44.8902 88.6103 45.7911 89.7216 45.7911Z" fill="#FB4B00"/>
<path d="M99.9071 45.7911C101.018 45.7911 101.919 44.8902 101.919 43.779C101.919 42.6677 101.018 41.7668 99.9071 41.7668C98.7959 41.7668 97.895 42.6677 97.895 43.779C97.895 44.8902 98.7959 45.7911 99.9071 45.7911Z" fill="#E6E6E6"/>
<path d="M110.092 45.7911C111.203 45.7911 112.104 44.8902 112.104 43.779C112.104 42.6677 111.203 41.7668 110.092 41.7668C108.981 41.7668 108.08 42.6677 108.08 43.779C108.08 44.8902 108.981 45.7911 110.092 45.7911Z" fill="#E6E6E6"/>
<path d="M120.277 45.7911C121.389 45.7911 122.289 44.8902 122.289 43.779C122.289 42.6677 121.389 41.7668 120.277 41.7668C119.166 41.7668 118.265 42.6677 118.265 43.779C118.265 44.8902 119.166 45.7911 120.277 45.7911Z" fill="#E6E6E6"/>
<path d="M79.5361 56.1043C80.6473 56.1043 81.5482 55.2035 81.5482 54.0922C81.5482 52.9809 80.6473 52.0801 79.5361 52.0801C78.4248 52.0801 77.5239 52.9809 77.5239 54.0922C77.5239 55.2035 78.4248 56.1043 79.5361 56.1043Z" fill="#E6E6E6"/>
<path d="M89.7216 56.1043C90.8329 56.1043 91.7337 55.2035 91.7337 54.0922C91.7337 52.9809 90.8329 52.0801 89.7216 52.0801C88.6103 52.0801 87.7095 52.9809 87.7095 54.0922C87.7095 55.2035 88.6103 56.1043 89.7216 56.1043Z" fill="#E6E6E6"/>
<path d="M99.9071 56.1043C101.018 56.1043 101.919 55.2035 101.919 54.0922C101.919 52.9809 101.018 52.0801 99.9071 52.0801C98.7959 52.0801 97.895 52.9809 97.895 54.0922C97.895 55.2035 98.7959 56.1043 99.9071 56.1043Z" fill="#E6E6E6"/>
<path d="M110.092 56.1043C111.203 56.1043 112.104 55.2035 112.104 54.0922C112.104 52.9809 111.203 52.0801 110.092 52.0801C108.981 52.0801 108.08 52.9809 108.08 54.0922C108.08 55.2035 108.981 56.1043 110.092 56.1043Z" fill="#FB4B00"/>
<path d="M120.277 56.1043C121.389 56.1043 122.289 55.2035 122.289 54.0922C122.289 52.9809 121.389 52.0801 120.277 52.0801C119.166 52.0801 118.265 52.9809 118.265 54.0922C118.265 55.2035 119.166 56.1043 120.277 56.1043Z" fill="#E6E6E6"/>
<path d="M79.5361 66.4174C80.6473 66.4174 81.5482 65.5166 81.5482 64.4053C81.5482 63.294 80.6473 62.3932 79.5361 62.3932C78.4248 62.3932 77.5239 63.294 77.5239 64.4053C77.5239 65.5166 78.4248 66.4174 79.5361 66.4174Z" fill="#E6E6E6"/>
<path d="M16 42L80.5 42C81.6046 42 82.5 42.8954 82.5 44V62C82.5 63.1046 81.6046 64 80.5 64H16V42Z" fill="white"/>
<path d="M89.7216 66.4174C90.8329 66.4174 91.7337 65.5166 91.7337 64.4053C91.7337 63.294 90.8329 62.3932 89.7216 62.3932C88.6103 62.3932 87.7095 63.294 87.7095 64.4053C87.7095 65.5166 88.6103 66.4174 89.7216 66.4174Z" fill="#E6E6E6"/>
<path d="M99.9071 66.4174C101.018 66.4174 101.919 65.5166 101.919 64.4053C101.919 63.294 101.018 62.3932 99.9071 62.3932C98.7959 62.3932 97.895 63.294 97.895 64.4053C97.895 65.5166 98.7959 66.4174 99.9071 66.4174Z" fill="#E6E6E6"/>
<path d="M110.092 66.4174C111.203 66.4174 112.104 65.5166 112.104 64.4053C112.104 63.294 111.203 62.3932 110.092 62.3932C108.981 62.3932 108.08 63.294 108.08 64.4053C108.08 65.5166 108.981 66.4174 110.092 66.4174Z" fill="#E6E6E6"/>
<path d="M120.277 66.4174C121.389 66.4174 122.289 65.5166 122.289 64.4053C122.289 63.294 121.389 62.3932 120.277 62.3932C119.166 62.3932 118.265 63.294 118.265 64.4053C118.265 65.5166 119.166 66.4174 120.277 66.4174Z" fill="#E6E6E6"/>
<path d="M28.6093 76.7307C29.7206 76.7307 30.6214 75.8298 30.6214 74.7185C30.6214 73.6073 29.7206 72.7064 28.6093 72.7064C27.498 72.7064 26.5972 73.6073 26.5972 74.7185C26.5972 75.8298 27.498 76.7307 28.6093 76.7307Z" fill="#E6E6E6"/>
<path d="M38.7948 76.7307C39.9061 76.7307 40.807 75.8298 40.807 74.7185C40.807 73.6073 39.9061 72.7064 38.7948 72.7064C37.6836 72.7064 36.7827 73.6073 36.7827 74.7185C36.7827 75.8298 37.6836 76.7307 38.7948 76.7307Z" fill="#E6E6E6"/>
<path d="M48.9804 76.7307C50.0917 76.7307 50.9925 75.8298 50.9925 74.7185C50.9925 73.6073 50.0917 72.7064 48.9804 72.7064C47.8691 72.7064 46.9683 73.6073 46.9683 74.7185C46.9683 75.8298 47.8691 76.7307 48.9804 76.7307Z" fill="#E6E6E6"/>
<path d="M59.165 76.7307C60.2762 76.7307 61.1771 75.8298 61.1771 74.7185C61.1771 73.6073 60.2762 72.7064 59.165 72.7064C58.0537 72.7064 57.1528 73.6073 57.1528 74.7185C57.1528 75.8298 58.0537 76.7307 59.165 76.7307Z" fill="#E6E6E6"/>
<path d="M69.3505 76.7307C70.4618 76.7307 71.3626 75.8298 71.3626 74.7185C71.3626 73.6073 70.4618 72.7064 69.3505 72.7064C68.2392 72.7064 67.3384 73.6073 67.3384 74.7185C67.3384 75.8298 68.2392 76.7307 69.3505 76.7307Z" fill="#E6E6E6"/>
<path d="M79.5361 76.7307C80.6473 76.7307 81.5482 75.8298 81.5482 74.7185C81.5482 73.6073 80.6473 72.7064 79.5361 72.7064C78.4248 72.7064 77.5239 73.6073 77.5239 74.7185C77.5239 75.8298 78.4248 76.7307 79.5361 76.7307Z" fill="#E6E6E6"/>
<path d="M89.7216 76.7307C90.8329 76.7307 91.7337 75.8298 91.7337 74.7185C91.7337 73.6073 90.8329 72.7064 89.7216 72.7064C88.6103 72.7064 87.7095 73.6073 87.7095 74.7185C87.7095 75.8298 88.6103 76.7307 89.7216 76.7307Z" fill="#E6E6E6"/>
<path d="M99.9071 76.7307C101.018 76.7307 101.919 75.8298 101.919 74.7185C101.919 73.6073 101.018 72.7064 99.9071 72.7064C98.7959 72.7064 97.895 73.6073 97.895 74.7185C97.895 75.8298 98.7959 76.7307 99.9071 76.7307Z" fill="#E6E6E6"/>
<path d="M110.092 76.7307C111.203 76.7307 112.104 75.8298 112.104 74.7185C112.104 73.6073 111.203 72.7064 110.092 72.7064C108.981 72.7064 108.08 73.6073 108.08 74.7185C108.08 75.8298 108.981 76.7307 110.092 76.7307Z" fill="#E6E6E6"/>
<path d="M120.277 76.7307C121.389 76.7307 122.289 75.8298 122.289 74.7185C122.289 73.6073 121.389 72.7064 120.277 72.7064C119.166 72.7064 118.265 73.6073 118.265 74.7185C118.265 75.8298 119.166 76.7307 120.277 76.7307Z" fill="#E6E6E6"/>
<path d="M28.6083 87.0437C29.7196 87.0437 30.6204 86.1428 30.6204 85.0315C30.6204 83.9203 29.7196 83.0194 28.6083 83.0194C27.497 83.0194 26.5962 83.9203 26.5962 85.0315C26.5962 86.1428 27.497 87.0437 28.6083 87.0437Z" fill="#E6E6E6"/>
<path d="M38.7948 87.0439C39.9061 87.0439 40.807 86.143 40.807 85.0318C40.807 83.9205 39.9061 83.0197 38.7948 83.0197C37.6836 83.0197 36.7827 83.9205 36.7827 85.0318C36.7827 86.143 37.6836 87.0439 38.7948 87.0439Z" fill="#E6E6E6"/>
<path d="M28.6083 97.3566C29.7196 97.3566 30.6204 96.4558 30.6204 95.3445C30.6204 94.2333 29.7196 93.3324 28.6083 93.3324C27.497 93.3324 26.5962 94.2333 26.5962 95.3445C26.5962 96.4558 27.497 97.3566 28.6083 97.3566Z" fill="#E6E6E6"/>
<path d="M38.7948 97.3571C39.9061 97.3571 40.807 96.4563 40.807 95.345C40.807 94.2337 39.9061 93.3329 38.7948 93.3329C37.6836 93.3329 36.7827 94.2337 36.7827 95.345C36.7827 96.4563 37.6836 97.3571 38.7948 97.3571Z" fill="#E6E6E6"/>
<path d="M59.165 97.3571C60.2762 97.3571 61.1771 96.4563 61.1771 95.345C61.1771 94.2337 60.2762 93.3329 59.165 93.3329C58.0537 93.3329 57.1528 94.2337 57.1528 95.345C57.1528 96.4563 58.0537 97.3571 59.165 97.3571Z" fill="#E6E6E6"/>
<path d="M160.69 24.2532H80.9532C80.5617 24.2528 80.1864 24.0971 79.9096 23.8202C79.6327 23.5434 79.477 23.1681 79.4766 22.7766V2.99736C79.477 2.60588 79.6327 2.23057 79.9096 1.95375C80.1864 1.67693 80.5617 1.52121 80.9532 1.52075H160.69C161.081 1.52121 161.457 1.67693 161.734 1.95375C162.01 2.23057 162.166 2.60588 162.167 2.99736V22.7766C162.166 23.1681 162.01 23.5434 161.734 23.8203C161.457 24.0971 161.081 24.2528 160.69 24.2532ZM80.9532 2.11139C80.7183 2.11165 80.4931 2.20507 80.327 2.37117C80.1609 2.53726 80.0675 2.76246 80.0672 2.99736V22.7766C80.0675 23.0115 80.1609 23.2367 80.327 23.4028C80.4931 23.5689 80.7183 23.6623 80.9532 23.6626H160.69C160.925 23.6623 161.15 23.5689 161.316 23.4028C161.482 23.2367 161.576 23.0115 161.576 22.7766V2.99736C161.576 2.76246 161.482 2.53726 161.316 2.37117C161.15 2.20507 160.925 2.11165 160.69 2.11139H80.9532Z" fill="#E6E6E6"/>
<path d="M91.2891 19.0887C94.7143 19.0887 97.4909 16.312 97.4909 12.8869C97.4909 9.46179 94.7143 6.68518 91.2891 6.68518C87.864 6.68518 85.0874 9.46179 85.0874 12.8869C85.0874 16.312 87.864 19.0887 91.2891 19.0887Z" fill="#00ADEE"/>
<path d="M105.612 8.75244C105.338 8.75244 105.075 8.86134 104.881 9.05518C104.688 9.24902 104.579 9.51193 104.579 9.78606C104.579 10.0602 104.688 10.3231 104.881 10.5169C105.075 10.7108 105.338 10.8197 105.612 10.8197H133.077C133.351 10.8197 133.614 10.7108 133.808 10.5169C134.002 10.3231 134.111 10.0602 134.111 9.78606C134.111 9.51193 134.002 9.24902 133.808 9.05518C133.614 8.86134 133.351 8.75244 133.077 8.75244H105.612Z" fill="#E6E6E6"/>
<path d="M105.612 14.9541C105.338 14.9541 105.075 15.063 104.881 15.2568C104.688 15.4507 104.579 15.7136 104.579 15.9877C104.579 16.2619 104.688 16.5248 104.881 16.7186C105.075 16.9124 105.338 17.0213 105.612 17.0213H154.34C154.614 17.0213 154.877 16.9124 155.071 16.7186C155.265 16.5248 155.374 16.2619 155.374 15.9877C155.374 15.7136 155.265 15.4507 155.071 15.2568C154.877 15.063 154.614 14.9541 154.34 14.9541H105.612Z" fill="#E6E6E6"/>
<path d="M81.2134 64.4169H1.4766C1.08513 64.4165 0.709813 64.2608 0.432996 63.9839C0.156178 63.7071 0.000458789 63.3318 0 62.9403V43.1611C0.000458789 42.7696 0.156178 42.3943 0.432996 42.1174C0.709813 41.8406 1.08513 41.6849 1.4766 41.6844H81.2134C81.6049 41.6849 81.9802 41.8406 82.257 42.1174C82.5338 42.3943 82.6895 42.7696 82.69 43.1611V62.9403C82.6895 63.3318 82.5338 63.7071 82.257 63.9839C81.9802 64.2608 81.6049 64.4165 81.2134 64.4169ZM1.4766 42.2751C1.24171 42.2753 1.01651 42.3688 0.850417 42.5349C0.684323 42.701 0.590898 42.9262 0.590642 43.1611V62.9403C0.590898 63.1752 0.684323 63.4004 0.850417 63.5665C1.01651 63.7326 1.24171 63.8261 1.4766 63.8263H81.2134C81.4483 63.8261 81.6735 63.7326 81.8396 63.5665C82.0057 63.4004 82.0991 63.1752 82.0994 62.9403V43.1611C82.0991 42.9262 82.0057 42.701 81.8396 42.5349C81.6735 42.3688 81.4483 42.2753 81.2134 42.2751H1.4766Z" fill="#E6E6E6"/>
<path d="M11.8126 59.2524C15.2377 59.2524 18.0143 56.4757 18.0143 53.0506C18.0143 49.6255 15.2377 46.8489 11.8126 46.8489C8.38745 46.8489 5.61084 49.6255 5.61084 53.0506C5.61084 56.4757 8.38745 59.2524 11.8126 59.2524Z" fill="#00ADEE"/>
<path d="M26.1362 48.916C25.862 48.916 25.5991 49.0249 25.4053 49.2188C25.2114 49.4126 25.1025 49.6755 25.1025 49.9496C25.1025 50.2238 25.2114 50.4867 25.4053 50.6805C25.5991 50.8744 25.862 50.9833 26.1362 50.9833H54.7823C55.0564 50.9833 55.3193 50.8744 55.5132 50.6805C55.707 50.4867 55.8159 50.2238 55.8159 49.9496C55.8159 49.6755 55.707 49.4126 55.5132 49.2188C55.3193 49.0249 55.0564 48.916 54.7823 48.916H26.1362Z" fill="#E6E6E6"/>
<path d="M26.1362 55.1178C25.862 55.1178 25.5991 55.2267 25.4053 55.4205C25.2114 55.6144 25.1025 55.8773 25.1025 56.1514C25.1025 56.4256 25.2114 56.6885 25.4053 56.8823C25.5991 57.0761 25.862 57.185 26.1362 57.185H74.8641C75.1382 57.185 75.4012 57.0761 75.595 56.8823C75.7888 56.6885 75.8977 56.4256 75.8977 56.1514C75.8977 55.8773 75.7888 55.6144 75.595 55.4205C75.4012 55.2267 75.1382 55.1178 74.8641 55.1178H26.1362Z" fill="#E6E6E6"/>
<path d="M130.271 107.829H50.5347C50.1432 107.828 49.7679 107.673 49.4911 107.396C49.2143 107.119 49.0586 106.744 49.0581 106.352V86.573C49.0586 86.1816 49.2143 85.8062 49.4911 85.5294C49.7679 85.2526 50.1432 85.0969 50.5347 85.0964H130.271C130.663 85.0969 131.038 85.2526 131.315 85.5294C131.592 85.8062 131.748 86.1816 131.748 86.573V106.352C131.748 106.744 131.592 107.119 131.315 107.396C131.038 107.673 130.663 107.828 130.271 107.829ZM50.5347 85.6871C50.2998 85.6873 50.0746 85.7808 49.9085 85.9469C49.7424 86.1129 49.649 86.3381 49.6487 86.573V106.352C49.649 106.587 49.7424 106.812 49.9085 106.979C50.0746 107.145 50.2998 107.238 50.5347 107.238H130.271C130.506 107.238 130.732 107.145 130.898 106.979C131.064 106.812 131.157 106.587 131.157 106.352V86.573C131.157 86.3381 131.064 86.1129 130.898 85.9469C130.732 85.7808 130.506 85.6873 130.271 85.6871H50.5347Z" fill="#3F3D56"/>
<path d="M60.8712 102.664C64.2963 102.664 67.0729 99.8879 67.0729 96.4627C67.0729 93.0376 64.2963 90.261 60.8712 90.261C57.446 90.261 54.6694 93.0376 54.6694 96.4627C54.6694 99.8879 57.446 102.664 60.8712 102.664Z" fill="#FFC700"/>
<path d="M75.1943 92.3282C74.9201 92.3282 74.6572 92.4372 74.4634 92.631C74.2695 92.8248 74.1606 93.0877 74.1606 93.3619C74.1606 93.636 74.2695 93.8989 74.4634 94.0928C74.6572 94.2866 74.9201 94.3955 75.1943 94.3955H101.478C101.752 94.3955 102.015 94.2866 102.209 94.0928C102.403 93.8989 102.511 93.636 102.511 93.3619C102.511 93.0877 102.403 92.8248 102.209 92.631C102.015 92.4372 101.752 92.3282 101.478 92.3282H75.1943Z" fill="#E6E6E6"/>
<path d="M162 62L162.5 57H168L168.5 62H162Z" fill="#FFB8B8"/>
<path d="M75.1943 98.53C74.9201 98.53 74.6572 98.6389 74.4634 98.8328C74.2695 99.0266 74.1606 99.2895 74.1606 99.5637C74.1606 99.8378 74.2695 100.101 74.4634 100.295C74.6572 100.488 74.9201 100.597 75.1943 100.597H123.922C124.196 100.597 124.459 100.488 124.653 100.295C124.847 100.101 124.956 99.8378 124.956 99.5637C124.956 99.2895 124.847 99.0266 124.653 98.8328C124.459 98.6389 124.196 98.53 123.922 98.53H75.1943Z" fill="#E6E6E6"/>
<path d="M173.166 102.813C169.703 113.201 155.537 102.183 155.537 102.183L159.315 62.8324C164.981 58.4251 170.963 62.2028 170.963 62.2028L173.166 102.813Z" fill="#E6E6E6"/>
<path d="M172.423 137.678L177.25 137.729L176.044 151.643L172.423 151.643L172.423 137.678Z" fill="#FFB8B8"/>
<path d="M171.5 150.461H178.63C179.835 150.463 180.99 150.942 181.842 151.794C182.694 152.645 183.173 153.8 183.174 155.005V155.153H171.5V150.461Z" fill="#2F2E41"/>
<path d="M159.337 137.678L153.994 137.678L155.716 151.643L159.337 151.643L159.337 137.678Z" fill="#FFB8B8"/>
<path d="M148.585 155.153V155.005C148.585 153.8 149.064 152.644 149.917 151.792C150.769 150.94 151.925 150.461 153.13 150.461L160.26 150.461L160.26 155.153L148.585 155.153Z" fill="#2F2E41"/>
<path d="M172.097 149.233L165.774 112.37L159.915 148.758L153.978 149.088L152.396 100.334L152.515 100.308C153.496 100.088 176.594 95.0146 180.381 102.272L180.4 102.309L177.24 149.399L172.097 149.233Z" fill="#2F2E41"/>
<path d="M165.395 58.221C169.401 58.221 172.649 54.9735 172.649 50.9676C172.649 46.9617 169.401 43.7142 165.395 43.7142C161.39 43.7142 158.142 46.9617 158.142 50.9676C158.142 54.9735 161.39 58.221 165.395 58.221Z" fill="#FFB8B8"/>
<path d="M171.489 105.921C170.639 105.686 170.026 104.709 169.561 102.848C169.48 102.528 161.95 70.4484 168.318 64.6364L169.786 60.5586L171.795 61.8979C172.506 61.9046 179.775 62.0886 180.396 66.7479C181.004 71.3087 182.66 101.865 180.996 103.766C180.963 103.808 180.922 103.842 180.875 103.866C180.827 103.89 180.775 103.903 180.722 103.905C179.036 103.905 178.524 102.033 178.403 101.437C178.002 101.603 176.808 102.213 174.845 104.176C173.629 105.392 172.676 105.975 171.888 105.975C171.753 105.975 171.619 105.957 171.489 105.921Z" fill="#2F2E41"/>
<path d="M155.748 104.176C153.785 102.213 152.59 101.603 152.19 101.437C152.07 102.033 151.558 103.905 149.871 103.905C149.818 103.903 149.766 103.89 149.719 103.866C149.671 103.842 149.63 103.808 149.597 103.766C147.933 101.866 149.589 71.3088 150.197 66.7479C150.818 62.0886 158.087 61.9046 158.798 61.8979L160.807 60.5586L162.275 64.6364C168.643 70.448 161.113 102.528 161.033 102.848C160.567 104.71 159.955 105.686 159.104 105.921C158.974 105.957 158.84 105.975 158.705 105.975C157.917 105.975 156.964 105.392 155.748 104.176Z" fill="#2F2E41"/>
<path d="M171.384 55.1108C172.611 54.2282 173.54 52.9929 174.048 51.5692C174.556 50.1456 174.619 48.601 174.227 47.141C173.836 45.6811 173.009 44.3748 171.857 43.3961C170.705 42.4173 169.283 41.8125 167.779 41.6619C167.111 41.5951 166.392 41.605 165.838 41.2258C165.347 40.8889 165.082 40.3046 164.63 39.9159C164.343 39.6938 164.013 39.5333 163.661 39.4446C163.309 39.3559 162.942 39.3408 162.584 39.4003C161.869 39.5235 161.177 39.7511 160.528 40.0758C158.92 40.7929 157.21 41.6754 156.478 43.2771C155.844 44.6644 156.124 46.3752 157.021 47.6086C157.965 48.8293 159.341 49.6416 160.865 49.8784C162.381 50.1047 163.929 49.9654 165.379 49.4719C166.337 49.1706 167.282 48.7602 168.285 48.7266C169.068 48.7005 169.841 48.9078 170.505 49.3221C171.17 49.7365 171.697 50.3392 172.018 51.0536C172.339 51.768 172.44 52.5618 172.309 53.3341C172.178 54.1063 171.82 54.822 171.281 55.3903" fill="#2F2E41"/>
<path d="M131.849 98.2599C132.267 98.2502 132.68 98.1581 133.063 97.9889C133.447 97.8196 133.793 97.5766 134.082 97.2736C134.371 96.9706 134.598 96.6137 134.749 96.2231C134.9 95.8324 134.973 95.4159 134.964 94.9971L139.194 87.8603L135.925 84.864L131.47 91.8957C130.647 91.9748 129.888 92.3696 129.351 92.9972C128.814 93.6247 128.542 94.4361 128.591 95.2606C128.64 96.0851 129.007 96.8583 129.614 97.4177C130.222 97.9771 131.023 98.279 131.849 98.2599Z" fill="#FFB8B8"/>
<path d="M180.923 106.078C181.274 105.85 181.576 105.554 181.813 105.208C182.05 104.863 182.216 104.474 182.302 104.064C182.389 103.654 182.393 103.231 182.316 102.82C182.239 102.408 182.082 102.015 181.853 101.664L181.691 93.3698L177.335 92.5435L177.25 100.868C176.592 101.368 176.155 102.103 176.029 102.92C175.903 103.736 176.098 104.569 176.574 105.244C177.05 105.919 177.769 106.383 178.58 106.539C179.391 106.695 180.231 106.529 180.923 106.078Z" fill="#FFB8B8"/>
<path d="M133.136 86.7844L133.086 86.706L133.135 86.6275C139.48 76.4393 152.797 63.7126 152.931 63.5851L152.973 63.5451L154.618 63.5282L156.396 67.958C155.843 69.023 140.923 89.8442 138.953 91.2252C138.796 91.3338 138.618 91.4082 138.43 91.4435C138.243 91.4788 138.05 91.4743 137.865 91.4302C137.536 91.3545 137.224 91.2215 136.942 91.0373C135.124 89.9112 133.229 86.9317 133.136 86.7844Z" fill="#2F2E41"/>
<path d="M176.506 98.4103C176.33 98.35 176.167 98.2536 176.03 98.1273C175.892 98.001 175.782 97.8476 175.707 97.6766C174.757 95.4603 178.828 67.4646 179.002 66.2739L179.035 66.0487L180.411 66.9208L180.425 66.9802C180.465 67.159 184.474 84.9939 183.388 96.8449L183.38 96.9296L183.303 96.9654C183.137 97.0421 179.798 98.5757 177.572 98.5757C177.21 98.5852 176.849 98.5292 176.506 98.4103Z" fill="#2F2E41"/>
</svg>
