<svg width="60" height="60" viewBox="0 0 60 60" fill="none" xmlns="http://www.w3.org/2000/svg">
<path d="M28 32.5V2.5H36.5L50 12L58 24.5V32.5H28Z" fill="#FFC700"/>
<path d="M26.8421 0C25.9737 0 25.2632 0.710526 25.2632 1.57895V6.39474C11.1947 7.21579 0 18.8842 0 33.1579C0 40.3263 2.79474 47.0684 7.84737 52.1526C12.9316 57.2053 19.6737 60 26.8421 60C41.1158 60 52.7842 48.8053 53.6053 34.7368H58.4211C59.2895 34.7368 60 34.0263 60 33.1579C60 24.3 56.5421 15.9789 50.2895 9.71053C44.0211 3.45789 35.7 0 26.8421 0ZM26.8421 56.8421C20.5263 56.8421 14.5737 54.379 10.0895 49.9105C5.62105 45.4263 3.15789 39.4737 3.15789 33.1579C3.15789 20.6368 12.9474 10.3737 25.2632 9.55263V33.1579C25.2632 34.0263 25.9737 34.7368 26.8421 34.7368H50.4474C49.6263 47.0526 39.3632 56.8421 26.8421 56.8421ZM28.4211 31.5789V3.23684C35.8421 3.61579 42.7579 6.66316 48.0474 11.9526C53.3368 17.2421 56.3684 24.1737 56.7632 31.5789H28.4211Z" fill="#00ADEE"/>
</svg>
