<svg width="165" height="142" viewBox="0 0 165 142" fill="none" xmlns="http://www.w3.org/2000/svg">
<path d="M158.189 119.215H85.0073C83.2727 119.213 81.6098 118.523 80.3832 117.297C79.1567 116.07 78.4668 114.407 78.4648 112.673V6.54241C78.4668 4.80786 79.1567 3.14491 80.3832 1.91839C81.6098 0.691876 83.2727 0.00195781 85.0073 0H158.189C159.924 0.00195849 161.587 0.691877 162.813 1.91839C164.04 3.14491 164.73 4.80786 164.732 6.54241V112.673C164.73 114.407 164.04 116.07 162.813 117.297C161.587 118.523 159.924 119.213 158.189 119.215Z" fill="#E6E6E6"/>
<path d="M158.318 115.041H84.8781C84.3434 115.04 83.8308 114.828 83.4527 114.45C83.0746 114.072 82.8619 113.559 82.8613 113.024V6.19097C82.8619 5.65627 83.0746 5.14365 83.4527 4.76557C83.8308 4.38748 84.3434 4.1748 84.8781 4.17419H158.318C158.852 4.1748 159.365 4.38748 159.743 4.76557C160.121 5.14365 160.334 5.65627 160.335 6.19097V113.024C160.334 113.559 160.121 114.072 159.743 114.45C159.365 114.828 158.852 115.04 158.318 115.041Z" fill="white"/>
<path d="M121.32 2.56014C121.627 2.56014 121.876 2.31096 121.876 2.00358C121.876 1.6962 121.627 1.44702 121.32 1.44702C121.012 1.44702 120.763 1.6962 120.763 2.00358C120.763 2.31096 121.012 2.56014 121.32 2.56014Z" fill="white"/>
<path d="M151.199 74.5223H91.9968C91.9477 74.5223 91.9005 74.5028 91.8658 74.468C91.8311 74.4333 91.8115 74.3862 91.8115 74.337V45.9615C91.8115 45.9123 91.831 45.8652 91.8658 45.8305C91.9005 45.7957 91.9477 45.7762 91.9968 45.7762C92.0459 45.7762 92.0931 45.7957 92.1278 45.8305C92.1626 45.8652 92.1821 45.9123 92.1821 45.9615V74.1518H151.199C151.248 74.1519 151.295 74.1715 151.329 74.2063C151.364 74.241 151.383 74.288 151.383 74.337C151.383 74.386 151.364 74.4331 151.329 74.4678C151.295 74.5025 151.248 74.5221 151.199 74.5223Z" fill="#3F3D56"/>
<path d="M104.646 72.4842H99.2614C99.1156 72.4841 98.9758 72.4261 98.8727 72.323C98.7696 72.2199 98.7116 72.0801 98.7114 71.9343V64.5115C98.7116 64.3657 98.7696 64.2259 98.8727 64.1228C98.9758 64.0197 99.1156 63.9617 99.2614 63.9615H104.646C104.792 63.9617 104.932 64.0197 105.035 64.1228C105.138 64.2259 105.196 64.3657 105.196 64.5115V71.9343C105.196 72.0801 105.138 72.2199 105.035 72.323C104.932 72.4261 104.792 72.4841 104.646 72.4842Z" fill="#00ADEE"/>
<path d="M114.465 72.4843H109.081C108.935 72.4841 108.795 72.4261 108.692 72.323C108.589 72.2199 108.531 72.0801 108.531 71.9343V57.4711C108.531 57.3253 108.589 57.1855 108.692 57.0824C108.795 56.9793 108.935 56.9213 109.081 56.9211H114.465C114.611 56.9213 114.751 56.9793 114.854 57.0824C114.957 57.1855 115.015 57.3253 115.015 57.4711V71.9343C115.015 72.0801 114.957 72.2199 114.854 72.323C114.751 72.4261 114.611 72.4841 114.465 72.4843Z" fill="#00ADEE"/>
<path d="M124.285 72.4842H118.901C118.755 72.4841 118.615 72.4261 118.512 72.323C118.409 72.2199 118.351 72.0801 118.351 71.9343V64.5115C118.351 64.3657 118.409 64.2259 118.512 64.1228C118.615 64.0197 118.755 63.9617 118.901 63.9615H124.285C124.431 63.9617 124.571 64.0197 124.674 64.1228C124.777 64.2259 124.835 64.3657 124.835 64.5115V71.9343C124.835 72.0801 124.777 72.2199 124.674 72.323C124.571 72.4261 124.431 72.4841 124.285 72.4842Z" fill="#00ADEE"/>
<path d="M134.105 72.4842H128.72C128.577 72.4873 128.44 72.4338 128.336 72.3354C128.233 72.237 128.173 72.1017 128.17 71.9592V54.667C128.173 54.5245 128.233 54.3893 128.336 54.2909C128.44 54.1924 128.577 54.1389 128.72 54.142H134.105C134.247 54.1389 134.385 54.1924 134.488 54.2909C134.591 54.3893 134.651 54.5245 134.655 54.667V71.9592C134.651 72.1017 134.591 72.237 134.488 72.3354C134.385 72.4338 134.247 72.4873 134.105 72.4842Z" fill="#00ADEE"/>
<path d="M143.924 72.4842H138.54C138.394 72.4841 138.254 72.4261 138.151 72.323C138.048 72.2199 137.99 72.0801 137.99 71.9343V49.6895C137.99 49.5437 138.048 49.4039 138.151 49.3008C138.254 49.1977 138.394 49.1397 138.54 49.1395H143.924C144.07 49.1397 144.21 49.1977 144.313 49.3008C144.416 49.4039 144.474 49.5437 144.474 49.6895V71.9343C144.474 72.0801 144.416 72.2199 144.313 72.323C144.21 72.4261 144.07 72.4841 143.924 72.4842Z" fill="#00ADEE"/>
<path d="M101.953 61.7383C102.567 61.7383 103.065 61.2406 103.065 60.6266C103.065 60.0127 102.567 59.515 101.953 59.515C101.34 59.515 100.842 60.0127 100.842 60.6266C100.842 61.2406 101.34 61.7383 101.953 61.7383Z" fill="#3F3D56"/>
<path d="M111.773 54.5126C112.387 54.5126 112.885 54.0148 112.885 53.4009C112.885 52.787 112.387 52.2892 111.773 52.2892C111.159 52.2892 110.662 52.787 110.662 53.4009C110.662 54.0148 111.159 54.5126 111.773 54.5126Z" fill="#3F3D56"/>
<path d="M121.593 61.7383C122.207 61.7383 122.705 61.2406 122.705 60.6266C122.705 60.0127 122.207 59.515 121.593 59.515C120.979 59.515 120.481 60.0127 120.481 60.6266C120.481 61.2406 120.979 61.7383 121.593 61.7383Z" fill="#3F3D56"/>
<path d="M131.412 50.9923C132.026 50.9923 132.524 50.4946 132.524 49.8806C132.524 49.2667 132.026 48.769 131.412 48.769C130.798 48.769 130.301 49.2667 130.301 49.8806C130.301 50.4946 130.798 50.9923 131.412 50.9923Z" fill="#3F3D56"/>
<path d="M141.232 46.9162C141.846 46.9162 142.343 46.4185 142.343 45.8046C142.343 45.1906 141.846 44.6929 141.232 44.6929C140.618 44.6929 140.12 45.1906 140.12 45.8046C140.12 46.4185 140.618 46.9162 141.232 46.9162Z" fill="#3F3D56"/>
<path d="M121.617 60.8756L111.774 53.5032L102.065 60.7749L101.843 60.4784L111.774 53.04L121.57 60.3776L131.304 49.7246L131.344 49.7087L141.163 45.7522L141.302 46.096L131.521 50.0368L121.617 60.8756Z" fill="#3F3D56"/>
<path d="M51.8038 57.6769C51.4281 57.6766 51.0569 57.7589 50.7165 57.9181C50.3761 58.0772 50.0749 58.3092 49.8342 58.5976L38.3213 58.2377L37.8706 56.2968L31.9126 59.2043L32.6834 64.5199L50.2292 62.2734C50.552 62.5242 50.9301 62.6943 51.3319 62.7696C51.7338 62.8449 52.1478 62.8231 52.5395 62.7062C52.9313 62.5892 53.2895 62.3804 53.5843 62.0971C53.8791 61.8139 54.102 61.4643 54.2345 61.0775C54.367 60.6908 54.4052 60.278 54.346 59.8734C54.2869 59.4689 54.132 59.0843 53.8942 58.7517C53.6565 58.4191 53.3428 58.1481 52.9792 57.9611C52.6156 57.7742 52.2126 57.6767 51.8038 57.6769H51.8038Z" fill="#9F616A"/>
<path d="M30.4785 137.993H33.6285L35.1272 125.843L30.478 125.844L30.4785 137.993Z" fill="#9F616A"/>
<path d="M29.6748 136.965L35.8781 136.964H35.8784C36.9268 136.964 37.9323 137.381 38.6736 138.122C39.415 138.864 39.8315 139.869 39.8316 140.917V141.046L29.675 141.046L29.6748 136.965Z" fill="#2F2E41"/>
<path d="M53.2283 141.072H0.27832V141.436H53.2283V141.072Z" fill="#3F3D56"/>
<path d="M18.5928 135.488L21.6189 136.363L26.4317 125.107L21.9655 123.816L18.5928 135.488Z" fill="#9F616A"/>
<path d="M18.1062 134.277L24.0657 135.999L24.066 135.999C25.0732 136.29 25.9235 136.97 26.4299 137.888C26.9363 138.806 27.0572 139.887 26.7662 140.895L26.7305 141.018L16.9731 138.198L18.1062 134.277Z" fill="#2F2E41"/>
<path d="M26.6104 85.2357C26.6104 85.2357 25.49 88.3616 27.2575 92.6266L28.6213 110.192L29.0249 135.174H34.7674L38.2427 109.707L40.3298 86.6144L26.6104 85.2357Z" fill="#2F2E41"/>
<path d="M23.3801 85.2357C23.3801 85.2357 22.2597 88.3616 24.0272 92.6266L25.391 110.192L18.6006 133.985H24.3431L35.0123 109.707L37.0995 86.6144L23.3801 85.2357Z" fill="#2F2E41"/>
<path d="M40.2265 44.9466C43.7116 44.9466 46.5369 42.1214 46.5369 38.6362C46.5369 35.151 43.7116 32.3257 40.2265 32.3257C36.7413 32.3257 33.916 35.151 33.916 38.6362C33.916 42.1214 36.7413 44.9466 40.2265 44.9466Z" fill="#9F616A"/>
<path d="M41.0703 53.9863L39.7915 48.0444L33.2798 44.3472L31.9594 46.1958C31.9594 46.1958 22.642 48.6443 23.7688 59.3434C24.8957 70.0425 24.3818 75.1811 24.3818 75.1811L21.8125 86.9999C21.8125 86.9999 22.6034 87.1357 40.7558 90.3069L41.5266 64.614L41.0703 53.9863Z" fill="#CBCBCB"/>
<path opacity="0.1" d="M34.7536 111.808L28.8403 123.752V127.176L34.7536 111.808Z" fill="black"/>
<path d="M33.4223 40.6322C34.024 42.2436 36.3006 42.4669 37.1037 40.9458C37.1661 40.8278 37.217 40.7039 37.2556 40.5761C37.4756 39.8455 37.3372 39.0407 37.7435 38.3422C37.8424 38.1674 37.9843 38.0208 38.1558 37.9162C39.5062 37.1197 40.8355 39.6471 42.0913 38.94C42.8614 38.5064 42.6967 37.2473 43.3819 36.6892C44.2863 35.9527 45.5927 37.0496 46.7523 36.9244C48.0425 36.785 48.6531 35.1506 48.3726 33.8835C48.0305 32.3383 46.8216 31.0841 45.403 30.3824C43.9844 29.6807 42.3726 29.4689 40.7904 29.4295C38.9928 29.3849 37.1118 29.5757 35.5918 30.5365C33.7433 31.705 32.7019 33.8802 32.4714 36.0548C32.3312 37.3776 32.9309 39.3164 33.4223 40.6322Z" fill="#2F2E41"/>
<path d="M64.3449 83.9471C64.3542 83.9472 64.3635 83.947 64.3728 83.9465C69.1272 83.6978 73.6083 81.6475 76.905 78.2127C80.2016 74.7778 82.0662 70.2163 82.1196 65.4557C82.173 60.6951 80.4111 56.0929 77.1923 52.5851C73.9734 49.0772 69.5394 46.927 64.7918 46.5717C64.7331 46.5671 64.674 46.5747 64.6184 46.594C64.5628 46.6133 64.5117 46.6439 64.4684 46.6838C64.4253 46.7231 64.3908 46.7709 64.367 46.8241C64.3432 46.8774 64.3308 46.935 64.3303 46.9934L63.9209 83.5146C63.9199 83.6281 63.964 83.7374 64.0435 83.8185C64.1229 83.8996 64.2314 83.9458 64.3449 83.9471Z" fill="#005676"/>
<path d="M49.659 52.6108C49.8048 52.6126 49.944 52.672 50.0461 52.7761L62.6188 65.6339C62.6694 65.6854 62.7093 65.7463 62.7361 65.8133C62.763 65.8802 62.7763 65.9518 62.7753 66.0239L62.5794 83.4995C62.5788 83.5745 62.5628 83.6486 62.5322 83.7171C62.5016 83.7855 62.4572 83.8469 62.4018 83.8974C62.3462 83.9486 62.2807 83.9877 62.2093 84.0125C62.138 84.0373 62.0623 84.0471 61.987 84.0415C58.4912 83.7799 55.1377 82.5486 52.3032 80.486C49.4688 78.4234 47.2657 75.6112 45.9415 72.3654C44.6173 69.1196 44.2245 65.5688 44.8072 62.1121C45.3899 58.6554 46.925 55.4296 49.2401 52.7973C49.2902 52.7406 49.3515 52.6948 49.42 52.6627C49.4886 52.6306 49.563 52.613 49.6386 52.6109C49.6454 52.6108 49.6522 52.6107 49.659 52.6108Z" fill="#E6E6E6"/>
<path d="M62.4437 46.4225C62.584 46.4241 62.7185 46.4791 62.8199 46.5762C62.8743 46.628 62.9173 46.6904 62.9464 46.7596C62.9755 46.8289 62.9899 46.9034 62.9887 46.9784L62.812 62.746C62.8108 62.8545 62.7774 62.9603 62.716 63.0499C62.6547 63.1395 62.5682 63.2089 62.4674 63.2493C62.3667 63.2897 62.2562 63.2994 62.1499 63.277C62.0437 63.2546 61.9465 63.2013 61.8705 63.1237L50.8993 51.9036C50.8488 51.8519 50.809 51.7908 50.7821 51.7237C50.7552 51.6567 50.7419 51.585 50.7427 51.5127C50.7436 51.4405 50.7586 51.3691 50.7871 51.3027C50.8155 51.2363 50.8568 51.1761 50.9084 51.1256C50.9151 51.1192 50.9219 51.1129 50.9288 51.1067C54.1197 48.2981 58.1647 46.648 62.4096 46.4231C62.4209 46.4225 62.4323 46.4223 62.4437 46.4225Z" fill="#FFC700"/>
<path d="M45.3805 64.8709C45.0047 64.8706 44.6335 64.9529 44.2932 65.112C43.9528 65.2711 43.6516 65.5031 43.4108 65.7916L31.8979 65.4317L31.4473 63.4908L25.4893 66.3983L26.26 71.7139L43.8058 69.4674C44.1287 69.7182 44.5068 69.8883 44.9086 69.9636C45.3104 70.0388 45.7245 70.0171 46.1162 69.9001C46.508 69.7832 46.8661 69.5744 47.1609 69.2911C47.4557 69.0078 47.6786 68.6583 47.8111 68.2715C47.9436 67.8847 47.9819 67.4719 47.9227 67.0674C47.8635 66.6629 47.7086 66.2783 47.4709 65.9457C47.2332 65.6131 46.9194 65.3421 46.5559 65.1551C46.1923 64.9682 45.7893 64.8707 45.3805 64.8709H45.3805Z" fill="#9F616A"/>
<path d="M24.5186 68.5876L24.1986 52.7523C24.1874 52.1982 24.2862 51.6473 24.4892 51.1315C24.6922 50.6158 24.9954 50.1454 25.3813 49.7476C25.7673 49.3498 26.2282 49.0324 26.7376 48.8139C27.2469 48.5953 27.7945 48.4799 28.3488 48.4743C28.903 48.4687 29.4528 48.573 29.9665 48.7812C30.4802 48.9894 30.9474 49.2974 31.3413 49.6873C31.7352 50.0773 32.0479 50.5414 32.2613 51.0529C32.4747 51.5645 32.5846 52.1132 32.5846 52.6675V64.2404L24.5186 68.5876Z" fill="#CBCBCB"/>
<path d="M34 45L35.5 42L40.5 45L40 48.5L34 45Z" fill="#9F616A"/>
</svg>
