<svg width="66" height="66" viewBox="0 0 66 66" fill="none" xmlns="http://www.w3.org/2000/svg">
<g clip-path="url(#clip0)">
<path d="M32.9999 64.7107C15.534 64.7107 1.28918 50.4655 1.28918 32.9999C1.28918 15.534 15.534 1.28906 32.9999 1.28906C50.4656 1.28906 64.7104 15.534 64.7104 32.9999C64.7104 50.4655 50.4656 64.7107 32.9999 64.7107Z" fill="#F2F2F2"/>
<path d="M32.9997 38.9296C29.7335 38.9296 27.0698 36.2659 27.0698 32.9997C27.0698 29.7339 29.7335 27.0698 32.9997 27.0698C36.2659 27.0698 38.9297 29.7339 38.9297 32.9997C38.9296 36.2659 36.2658 38.9296 32.9997 38.9296Z" fill="#FB4B00"/>
<path d="M4.51105 49.6338C4.47896 49.5914 4.44828 49.5471 4.42095 49.4998C1.52856 44.4899 -0.00038147 38.7843 -0.00038147 32.9999C-0.00038147 24.1852 3.43224 15.8983 9.66496 9.66533C15.8979 3.43262 24.1849 0 32.9994 0C41.814 0 50.1009 3.43262 56.3338 9.66533C62.5667 15.8983 65.9992 24.1852 65.9992 32.9999C65.9992 41.8145 62.5666 50.1014 56.3336 56.3344C50.1009 62.5672 41.8139 66 32.9993 66C28.6438 66 24.3951 65.1546 20.3708 63.4878C16.3468 61.8209 12.7449 59.4141 9.66496 56.3343C9.16158 55.8309 9.16158 55.0147 9.66483 54.5112C10.1683 54.008 10.9846 54.0079 11.4879 54.5112C17.234 60.2573 24.8737 63.4218 32.9993 63.4218C38.076 63.4218 42.8651 62.1701 47.0773 59.9617L44.5166 55.5266C44.5164 55.526 44.516 55.5255 44.5156 55.525C44.4043 55.3323 44.3485 55.1228 44.3431 54.9149C44.3311 54.4578 44.5635 54.0087 44.9874 53.7639C44.9883 53.7634 44.9893 53.763 44.9902 53.7624C52.0096 49.7085 56.5014 42.3317 56.9377 34.2891H51.8199C51.1081 34.2891 50.5308 33.7119 50.5308 33.0001C50.5308 32.2881 51.1081 31.711 51.8199 31.711H56.9382C56.8489 30.0503 56.5897 28.4017 56.1587 26.7946C55.9744 26.107 56.3825 25.4001 57.0701 25.2157C57.7579 25.0316 58.4646 25.4394 58.6489 26.127C59.2494 28.3671 59.554 30.6794 59.554 32.9999C59.554 42.0255 54.9196 50.4634 47.377 55.3246L49.3083 58.6698C57.7865 53.2645 63.4211 43.7781 63.4211 32.9999C63.4211 27.9233 62.1695 23.1342 59.961 18.9219L55.5246 21.4834C55.3216 21.6006 55.0999 21.6564 54.8813 21.6564C54.4358 21.6564 54.0025 21.4251 53.7638 21.0116C53.7634 21.0111 53.7631 21.0104 53.7628 21.0099C52.7154 19.1961 51.4337 17.526 49.9535 16.0458C49.45 15.5424 49.45 14.7263 49.9532 14.2228C50.4565 13.7194 51.2728 13.7193 51.7763 14.2225C53.1123 15.5584 54.2993 17.0359 55.3217 18.6235L58.6694 16.6907C53.264 8.21296 43.7779 2.57811 32.9994 2.57811C27.9229 2.57811 23.1339 3.82978 18.9217 6.03806L21.483 10.4746C21.839 11.091 21.6278 11.8795 21.0112 12.2355C20.8083 12.3526 20.5867 12.4083 20.368 12.4083C19.9225 12.4083 19.4892 12.1772 19.2504 11.7637L16.6906 7.32995C12.9291 9.72798 9.72773 12.9293 7.32957 16.6907L10.6783 18.624C11.6975 17.0409 12.8828 15.5626 14.2224 14.2228C14.7259 13.7194 15.5421 13.7194 16.0455 14.2228C16.5489 14.7262 16.5489 15.5424 16.0455 16.0459C13.0736 19.0177 10.9278 22.7345 9.84001 26.7944C9.68571 27.3704 9.16493 27.7501 8.59568 27.7501C8.48547 27.7501 8.37306 27.736 8.2613 27.7059C7.57359 27.5216 7.16548 26.8148 7.34981 26.1271C7.84017 24.2969 8.52801 22.5311 9.38923 20.8568L6.03781 18.9216C3.8294 23.1339 2.5776 27.9231 2.5776 32.9999C2.5776 37.9021 3.76959 42.7422 6.03343 47.0799L9.3882 45.143C7.50785 41.5016 6.44477 37.3728 6.44477 33.0001C6.44477 32.2881 7.02188 31.711 7.73382 31.711H12.9319C12.9582 31.3019 12.9964 30.8939 13.0473 30.4895C13.1363 29.7831 13.7821 29.2823 14.4873 29.3714C15.1936 29.4603 15.6941 30.105 15.6053 30.8114C15.5143 31.534 15.4683 32.2703 15.4683 33.0001C15.4683 35.6544 16.0753 38.2613 17.2156 40.6241L20.575 38.6844C19.7617 36.9054 19.3356 34.9639 19.3356 33.0001C19.3356 32.2881 19.9128 31.711 20.6246 31.711H27.0635C27.0657 31.711 27.0676 31.7106 27.0696 31.7106C27.7816 31.7106 28.3587 32.2879 28.3587 32.9997C28.3587 35.5587 30.4405 37.6405 32.9996 37.6405C35.5586 37.6405 37.6403 35.5587 37.6403 32.9997C37.6403 30.4406 35.5586 28.3588 32.9996 28.3588C32.2877 28.3588 31.7105 27.7818 31.7105 27.0698C31.7105 26.358 32.2877 25.7807 32.9996 25.7807C36.5401 25.7807 39.4911 28.3435 40.101 31.711H44.0085C43.3674 26.2034 38.6764 21.9138 32.9997 21.9138C29.052 21.9138 25.3731 24.0378 23.3991 27.4567C23.043 28.0733 22.2549 28.2846 21.6382 27.9285C21.0217 27.5725 20.8104 26.7842 21.1664 26.1677C22.1614 24.4445 23.5081 22.9885 25.0848 21.8688L23.1411 18.5024C20.9743 19.9757 19.149 21.9275 17.8175 24.2341C17.5786 24.6476 17.1453 24.8789 16.6998 24.8789C16.4812 24.8789 16.2595 24.8231 16.0566 24.7059C15.4401 24.35 15.2288 23.5616 15.5847 22.9452C17.3625 19.8656 19.9077 17.3378 22.9448 15.5849C22.9449 15.5848 22.9451 15.5848 22.9451 15.5847C22.9453 15.5847 22.9454 15.5845 22.9456 15.5844C24.0971 14.92 25.3187 14.3663 26.5967 13.937C27.2716 13.7103 28.0023 14.0738 28.2292 14.7486C28.4558 15.4234 28.0925 16.1542 27.4176 16.3809C26.7161 16.6166 26.0343 16.896 25.3745 17.2146L27.3174 20.5798C29.0755 19.774 31.0096 19.3357 32.9996 19.3357C37.5861 19.3357 41.652 21.6073 44.1316 25.0844L47.4951 23.1423C45.3559 19.9975 42.2316 17.6032 38.566 16.3758C37.8909 16.1497 37.5268 15.4192 37.7529 14.7441C37.9789 14.069 38.7096 13.7052 39.3845 13.9311C40.2571 14.2233 41.1024 14.5734 41.917 14.9765L43.8526 11.6239C40.8799 10.1155 37.6175 9.24136 34.2886 9.06128V14.1796C34.2886 14.8915 33.7115 15.4687 32.9996 15.4687C32.2877 15.4687 31.7105 14.8915 31.7105 14.1796V9.06102C30.0501 9.15049 28.4015 9.40946 26.7942 9.84026C26.1065 10.0245 25.3997 9.61635 25.2153 8.92877C25.031 8.24106 25.4391 7.53427 26.1267 7.35006C28.367 6.74962 30.6793 6.44527 32.9994 6.44527C37.6546 6.44527 42.2458 7.67555 46.2771 10.0031C46.8936 10.3591 47.1049 11.1475 46.7489 11.7639C46.7482 11.7649 46.7476 11.7657 46.7469 11.7665L44.1495 16.2654C46.7069 17.9697 48.8506 20.2458 50.4019 22.9255C50.4059 22.9322 50.4104 22.9381 50.4146 22.9448C50.4193 22.953 50.4228 22.9617 50.4275 22.9699C50.8415 23.6893 51.2143 24.4366 51.5393 25.2107C51.8151 25.8671 51.5065 26.6226 50.8501 26.8985C50.6871 26.9669 50.5178 26.9994 50.3514 26.9994C49.848 26.9994 49.3698 26.7025 49.1625 26.2093C49.0438 25.9269 48.9178 25.6483 48.7852 25.374L45.4237 27.3149C46.2193 29.0469 46.6638 30.9723 46.6638 32.9998C46.6638 35.0271 46.2193 36.9524 45.4237 38.6844L48.7844 40.6246C48.9574 40.2661 49.1202 39.9013 49.2698 39.5289C49.5349 38.8682 50.2854 38.5473 50.946 38.8127C51.6068 39.0778 51.9274 39.8283 51.6624 40.4891C49.4514 45.999 44.9503 50.2283 39.3131 52.0921C39.1789 52.1366 39.0424 52.1577 38.9082 52.1577C38.3674 52.1577 37.8635 51.8146 37.6846 51.2731C37.4611 50.5971 37.8278 49.868 38.5038 49.6445C42.2083 48.4195 45.3496 46.0222 47.4977 42.8586L44.1316 40.9154C41.652 44.3923 37.586 46.6639 32.9994 46.6639C30.6041 46.6639 28.2415 46.0309 26.1674 44.8332C25.5509 44.4772 25.3396 43.6888 25.6958 43.0722C26.0517 42.4559 26.8402 42.2448 27.4566 42.6006C28.7654 43.3563 30.216 43.8337 31.7104 44.009V40.1011C28.7619 39.567 26.4323 37.2376 25.8982 34.2891H21.9906C22.1658 35.7822 22.6423 37.2316 23.3967 38.5399C23.3974 38.5409 23.398 38.5417 23.3987 38.5427C23.7547 39.1593 23.5434 39.9476 22.9269 40.3036L18.5039 42.8573C18.8343 43.3436 19.1891 43.8152 19.5697 44.2685C20.0273 44.8139 19.9561 45.6269 19.4109 46.0845C19.1693 46.2871 18.8754 46.3861 18.5829 46.3861C18.215 46.3861 17.8497 46.2295 17.5947 45.9257C16.8431 45.0298 16.1752 44.0739 15.5955 43.0711C15.592 43.0653 15.5878 43.0604 15.5844 43.0544C15.5804 43.0475 15.5773 43.0404 15.5736 43.0333C14.0407 40.3683 13.1312 37.3736 12.9322 34.2892H9.05794C9.4765 42.1512 13.7005 49.0191 19.9166 53.0825L22.473 48.6545C22.8292 48.0379 23.6174 47.8266 24.2339 48.1827C24.8504 48.5387 25.0617 49.327 24.7056 49.9435L22.1465 54.3761C25.0457 55.8541 28.2837 56.7593 31.7102 56.9417V53.0667C30.8649 53.0123 30.0221 52.9056 29.1926 52.7455C28.4935 52.6107 28.0362 51.9347 28.1711 51.2357C28.3061 50.5366 28.9822 50.0788 29.6811 50.2142C30.7717 50.4246 31.888 50.5313 32.9993 50.5313C33.7112 50.5313 34.2884 51.1084 34.2884 51.8204V56.939C35.9485 56.8495 37.5972 56.5903 39.2049 56.1595C39.8928 55.9751 40.5994 56.3833 40.7838 57.0708C40.9681 57.7586 40.56 58.4653 39.8723 58.6497C37.6314 59.2501 35.3192 59.5547 32.9994 59.5547C28.1947 59.5547 23.6839 58.2721 19.7916 56.0311C19.7684 56.0195 19.7448 56.0101 19.7222 55.9969C19.6821 55.9737 19.644 55.9487 19.6073 55.922C16.0057 53.8097 12.943 50.8738 10.6811 47.3737L6.1867 49.9688C6.18502 49.9698 6.18361 49.971 6.1818 49.972C6.13488 49.9991 6.08667 50.0219 6.03781 50.0425C6.02699 50.0472 6.0159 50.051 6.00481 50.0554C5.96576 50.0708 5.92631 50.084 5.88647 50.0954C5.87487 50.0985 5.8634 50.1021 5.8518 50.1049C5.75126 50.1303 5.64955 50.1433 5.54797 50.1441C5.54488 50.1441 5.54153 50.1448 5.53856 50.1448C5.53199 50.1448 5.52554 50.1436 5.51922 50.1435C5.47643 50.1428 5.43402 50.1401 5.39174 50.1352C5.38078 50.1338 5.36969 50.1328 5.35874 50.1312C5.2569 50.117 5.15726 50.0909 5.06174 50.053C5.05272 50.0494 5.04382 50.0452 5.0348 50.0414C4.99574 50.0249 4.95746 50.0064 4.9202 49.9861C4.91041 49.9808 4.90086 49.9756 4.89107 49.9701C4.80212 49.9186 4.71872 49.8563 4.64318 49.7834C4.63493 49.7753 4.62707 49.7669 4.61895 49.7588C4.58943 49.7289 4.56158 49.6972 4.5349 49.6642C4.52691 49.6536 4.51879 49.644 4.51105 49.6338ZM44.0082 34.289H40.1006C39.5665 37.2374 37.2371 39.5669 34.2885 40.101V44.0083C39.3728 43.4168 43.4167 39.373 44.0082 34.289Z" fill="#005676"/>
</g>
<defs>
<clipPath id="clip0">
<rect width="66" height="66" fill="white" transform="matrix(-1 0 0 1 66 0)"/>
</clipPath>
</defs>
</svg>
