<svg width="57" height="26" viewBox="0 0 57 26" fill="none" xmlns="http://www.w3.org/2000/svg">
<path d="M3.98587 1.52918C1.78463 0.288033 0 1.3048 0 3.79837V22.1998C0 24.6959 1.78463 25.7113 3.98587 24.4714L20.3485 15.2474C22.5505 14.0058 22.5505 11.9943 20.3485 10.753L3.98587 1.52918Z" fill="#00ADEE"/>
<path d="M39.5625 0H33.9375C33.0071 0 32.25 0.729066 32.25 1.625V24.375C32.25 25.2709 33.0071 26 33.9375 26H39.5625C40.4929 26 41.25 25.2709 41.25 24.375V1.625C41.25 0.729066 40.4929 0 39.5625 0Z" fill="#FFC700"/>
<path d="M53.0625 0H47.4375C46.5071 0 45.75 0.729066 45.75 1.625V24.375C45.75 25.2709 46.5071 26 47.4375 26H53.0625C53.9929 26 54.75 25.2709 54.75 24.375V1.625C54.75 0.729066 53.9929 0 53.0625 0Z" fill="#FFC700"/>
</svg>
