<svg width="558" height="579" viewBox="0 0 558 579" fill="none" xmlns="http://www.w3.org/2000/svg">
<circle cx="173.656" cy="504" r="75" fill="#FFC700"/>
<path d="M3.78269 251.416C4.51445 165.675 141.245 84.716 209.519 54.9543C449.895 -65.9187 512.223 55.3136 532.517 142.572C542.55 185.712 557.42 226.547 523.511 400.184C489.603 573.821 356.274 565.133 293.849 539.085C169.212 494.451 2.868 358.592 3.78269 251.416Z" fill="url(#paint0_linear)"/>
<path opacity="0.3" d="M563.717 373.4C563.652 373.508 563.544 373.551 563.436 373.551C563.371 373.551 563.327 373.53 563.284 373.508L540.822 360.533C540.086 360.75 539.198 360.75 538.461 360.555L516.346 373.313C517.017 373.833 517.039 374.526 516.411 375.046L538.396 387.76C538.548 387.847 538.591 388.042 538.504 388.194C538.44 388.302 538.331 388.345 538.223 388.345C538.158 388.345 538.115 388.324 538.071 388.302L515.739 375.436C514.83 375.804 513.595 375.804 512.707 375.414L489.769 388.649C490.137 389.147 490.028 389.732 489.444 390.165L512.057 403.226C512.209 403.313 512.252 403.508 512.165 403.659C512.1 403.768 511.992 403.811 511.884 403.811C511.819 403.811 511.776 403.789 511.732 403.768L488.772 390.49C488.036 390.75 487.148 390.793 486.368 390.598L464.837 403.031C464.946 403.074 465.054 403.118 465.162 403.183C466.094 403.724 466.159 404.569 465.357 405.154L487.278 417.782C487.429 417.868 487.473 418.063 487.386 418.215C487.321 418.323 487.213 418.367 487.104 418.367C487.039 418.367 486.996 418.345 486.953 418.323L464.664 405.5C463.668 405.847 462.346 405.782 461.502 405.284C461.393 405.219 461.307 405.175 461.242 405.111L439.191 417.825C439.256 417.868 439.343 417.89 439.408 417.933C440.296 418.453 440.404 419.255 439.69 419.84L461.935 432.663C462.087 432.749 462.13 432.944 462.043 433.096C461.978 433.204 461.87 433.247 461.762 433.247C461.718 433.247 461.653 433.226 461.61 433.204L439.04 420.208C438.043 420.598 436.657 420.554 435.769 420.035C435.704 419.991 435.639 419.948 435.574 419.905L413.004 432.922C413.156 432.987 413.307 433.052 413.437 433.117C414.304 433.616 414.412 434.395 413.805 434.959L436.094 447.803C436.246 447.89 436.289 448.085 436.202 448.236C436.137 448.345 436.029 448.388 435.921 448.388C435.856 448.388 435.812 448.366 435.769 448.345L413.177 435.327C412.159 435.782 410.708 435.738 409.777 435.197C409.647 435.11 409.517 435.024 409.43 434.937L387.011 447.89C387.033 447.911 387.055 447.911 387.076 447.933C387.878 448.388 388.03 449.103 387.553 449.666L410.448 462.857C410.6 462.944 410.643 463.139 410.556 463.29C410.491 463.399 410.383 463.442 410.275 463.442C410.21 463.442 410.166 463.42 410.123 463.399L386.99 450.056C385.993 450.597 384.412 450.576 383.438 450.013C383.416 449.991 383.394 449.991 383.373 449.969L361.149 462.792C361.214 462.814 361.279 462.857 361.344 462.9C362.08 463.334 362.275 463.962 361.929 464.482L385.062 477.825C385.214 477.911 385.257 478.106 385.17 478.258C385.105 478.366 384.997 478.409 384.889 478.409C384.845 478.409 384.78 478.388 384.737 478.366L361.474 464.98C361.452 465.002 361.409 465.023 361.387 465.045C360.391 465.63 358.745 465.63 357.748 465.045C357.683 465.002 357.618 464.98 357.575 464.937L336.088 477.326C336.521 477.803 336.499 478.366 336.001 478.821L359.893 492.575C360.044 492.662 360.088 492.857 360.001 493.008C359.936 493.117 359.828 493.16 359.719 493.16C359.654 493.16 359.611 493.138 359.568 493.117L335.373 479.189C334.572 479.536 333.467 479.579 332.601 479.319L310.204 492.25C310.16 492.272 310.095 492.294 310.052 492.294C309.944 492.294 309.835 492.229 309.77 492.142C309.684 491.99 309.727 491.796 309.879 491.709L331.886 479.016C331.084 478.496 331.041 477.695 331.756 477.131L309.51 464.308C308.926 464.547 308.211 464.612 307.539 464.525L285.034 477.521C284.991 477.543 284.926 477.565 284.883 477.565C284.774 477.565 284.666 477.5 284.601 477.413C284.514 477.261 284.558 477.066 284.709 476.98L306.651 464.33C306.521 464.287 306.391 464.222 306.261 464.157C305.373 463.659 305.265 462.857 305.937 462.272L284.796 450.099C284.038 450.359 283.085 450.359 282.327 450.121L259.28 463.42C259.237 463.442 259.172 463.464 259.128 463.464C259.02 463.464 258.912 463.399 258.847 463.312C258.76 463.16 258.803 462.965 258.955 462.879L281.59 449.818C280.832 449.341 280.724 448.626 281.265 448.085L258.522 434.98C257.807 435.283 256.876 435.327 256.074 435.153L233.374 448.258C233.331 448.28 233.266 448.301 233.222 448.301C233.114 448.301 233.006 448.236 232.941 448.15C232.854 447.998 232.898 447.803 233.049 447.717L255.273 434.872C255.251 434.85 255.208 434.85 255.186 434.829C254.276 434.309 254.19 433.486 254.905 432.922L232.898 420.251C232.031 420.598 230.883 420.619 230.017 420.273L207.642 433.204C207.598 433.226 207.533 433.247 207.49 433.247C207.382 433.247 207.273 433.182 207.208 433.096C207.122 432.944 207.165 432.749 207.317 432.663L229.41 419.926C228.739 419.406 228.739 418.713 229.367 418.193L206.862 405.219C206.082 405.587 204.999 405.652 204.111 405.414L181.714 418.345C181.671 418.367 181.606 418.388 181.562 418.388C181.454 418.388 181.346 418.323 181.281 418.237C181.194 418.085 181.237 417.89 181.389 417.804L203.374 405.111C202.465 404.569 202.421 403.724 203.244 403.139L181.302 390.511C180.479 390.88 179.353 390.923 178.443 390.641L156.285 403.421C156.241 403.443 156.176 403.464 156.133 403.464C156.025 403.464 155.916 403.399 155.851 403.313C155.765 403.161 155.808 402.966 155.96 402.879L177.75 390.316C176.97 389.775 176.949 388.995 177.685 388.454L155.375 375.609C154.79 375.804 154.119 375.869 153.469 375.782L130.465 389.06C130.422 389.082 130.357 389.103 130.314 389.103C130.206 389.103 130.097 389.038 130.032 388.952C129.946 388.8 129.989 388.605 130.141 388.519L152.581 375.566C152.451 375.522 152.342 375.457 152.234 375.392C151.389 374.894 151.259 374.158 151.844 373.595L129.772 360.88C128.949 361.162 127.931 361.162 127.13 360.858L104.126 374.136C104.083 374.158 104.018 374.179 103.975 374.179C103.866 374.179 103.758 374.114 103.693 374.028C103.607 373.876 103.65 373.681 103.801 373.595L126.458 360.512C125.808 360.035 125.743 359.364 126.263 358.844L104.018 346.021C103.195 346.389 102.09 346.411 101.202 346.129L78.4804 359.212C78.4371 359.234 78.3721 359.255 78.3288 359.255C78.2205 359.255 78.1122 359.19 78.0472 359.104C77.9606 358.952 78.0039 358.757 78.1555 358.671L100.487 345.804C99.7076 345.284 99.6643 344.483 100.401 343.941L78.1988 331.162C77.3757 331.617 76.1411 331.703 75.1663 331.4L52.8345 344.31C52.7912 344.331 52.7262 344.353 52.6829 344.353C52.5746 344.353 52.4663 344.288 52.4013 344.201C52.3146 344.05 52.358 343.855 52.5096 343.768L74.4732 331.097C73.6068 330.512 73.6502 329.646 74.5599 329.104L49.1522 314.462C49.0006 314.375 48.9573 314.18 49.0439 314.028C49.1306 313.877 49.3255 313.834 49.4771 313.92L75.318 328.801C76.2278 328.541 77.3324 328.628 78.1122 329.017L99.7076 316.541C99.426 316.021 99.6427 315.458 100.336 315.046C100.379 315.025 100.422 315.003 100.466 314.981L74.7115 300.166C74.5599 300.079 74.5166 299.884 74.6032 299.733C74.6899 299.581 74.8848 299.538 75.0364 299.624L101.289 314.722C101.83 314.613 102.415 314.592 102.957 314.7L125.527 301.66C125.159 301.119 125.354 300.491 126.112 300.057C126.22 299.993 126.328 299.949 126.437 299.906L101.202 285.35C101.051 285.263 101.007 285.068 101.094 284.917C101.181 284.765 101.376 284.722 101.527 284.809L127.325 299.689C127.845 299.624 128.386 299.646 128.863 299.754L151.736 286.541C151.606 286.087 151.844 285.61 152.451 285.263C152.472 285.242 152.494 285.242 152.516 285.22L127.346 270.729C127.195 270.643 127.151 270.448 127.238 270.296C127.325 270.144 127.52 270.101 127.671 270.188L153.296 284.96C153.729 284.852 154.227 284.83 154.682 284.874L177.75 271.552C177.512 271.076 177.685 270.556 178.27 270.166L153.685 256C153.534 255.914 153.49 255.719 153.577 255.567C153.664 255.415 153.859 255.372 154.01 255.459L178.985 269.841C179.591 269.646 180.306 269.603 180.956 269.711L203.461 256.715C203.288 256.282 203.461 255.827 203.959 255.459L179.136 241.163C178.985 241.076 178.941 240.881 179.028 240.73C179.115 240.578 179.31 240.535 179.461 240.621L204.652 255.134C205.237 254.939 205.909 254.874 206.558 254.96L228.219 242.441C227.244 241.856 227.244 240.925 228.241 240.361C228.327 240.318 228.436 240.275 228.522 240.231L204.674 226.455C204.522 226.369 204.479 226.174 204.566 226.022C204.652 225.871 204.847 225.827 204.999 225.914L229.389 240.015C230.233 239.885 231.186 239.993 231.858 240.383L254.645 226.975C254.06 226.412 254.168 225.654 255.035 225.156C255.056 225.156 255.056 225.134 255.078 225.134L230.818 211.141C230.667 211.055 230.623 210.86 230.71 210.708C230.797 210.557 230.991 210.513 231.143 210.6L255.836 224.831C256.594 224.658 257.461 224.679 258.175 224.918L280.247 212.181C279.381 211.618 279.403 210.773 280.269 210.21L256.659 196.586C256.507 196.499 256.464 196.304 256.551 196.152C256.637 196.001 256.832 195.958 256.984 196.044L281.005 209.907C281.937 209.625 283.085 209.69 283.886 210.102L300.825 200.333C300.976 200.246 301.171 200.29 301.258 200.441C301.344 200.593 301.301 200.788 301.15 200.874L284.471 210.513C284.883 210.947 284.883 211.466 284.493 211.9L306.76 224.744C307.756 224.333 309.164 224.398 310.052 224.918C310.117 224.961 310.16 224.982 310.204 225.026L327.38 215.149C327.532 215.062 327.727 215.105 327.814 215.257C327.9 215.409 327.857 215.604 327.705 215.69L310.68 225.502C310.94 225.936 310.832 226.434 310.355 226.824L332.536 239.625C333.467 239.127 334.875 239.105 335.85 239.538L353.135 229.553C353.286 229.466 353.481 229.51 353.568 229.661C353.654 229.813 353.611 230.008 353.459 230.094L336.456 239.907C337.041 240.47 336.954 241.206 336.174 241.683L358.116 254.332C359.113 253.791 360.716 253.812 361.69 254.376C361.799 254.441 361.907 254.506 361.994 254.592L379.69 244.39C379.842 244.304 380.037 244.347 380.123 244.499C380.21 244.65 380.167 244.845 380.015 244.932L362.384 255.112C362.557 255.567 362.362 256.087 361.755 256.455L383.957 269.3C384.932 268.888 386.318 268.91 387.228 269.408L405.466 258.881C405.618 258.794 405.813 258.838 405.899 258.989C405.986 259.141 405.943 259.336 405.791 259.423L387.77 269.82C388.203 270.318 388.138 270.924 387.553 271.379L409.495 284.05C410.491 283.639 411.921 283.682 412.809 284.202C412.831 284.202 412.831 284.224 412.852 284.224L431.502 273.458C431.654 273.372 431.849 273.415 431.935 273.567C432.022 273.718 431.979 273.913 431.827 274L413.351 284.657C413.697 285.133 413.589 285.675 413.069 286.108L435.552 299.083C436.527 298.606 438 298.606 438.953 299.104L457.841 288.209C457.993 288.123 458.188 288.166 458.274 288.318C458.361 288.469 458.318 288.664 458.166 288.751L439.516 299.494C439.993 300.014 439.885 300.686 439.191 301.162L461.133 313.812C462.151 313.314 463.689 313.335 464.642 313.877C464.686 313.898 464.707 313.92 464.751 313.942L484.007 302.83C484.158 302.743 484.353 302.787 484.44 302.938C484.527 303.09 484.483 303.285 484.332 303.372L465.227 314.397C465.552 314.895 465.401 315.48 464.751 315.891L487.386 328.952C487.408 328.931 487.429 328.931 487.451 328.909C488.426 328.346 490.007 328.324 491.025 328.866L510.476 317.646C510.628 317.559 510.822 317.602 510.909 317.754C510.996 317.906 510.952 318.101 510.801 318.187L491.588 329.277C492.065 329.841 491.913 330.534 491.111 330.989C491.09 331.01 491.068 331.01 491.025 331.032L512.035 343.162C513.032 342.599 514.656 342.599 515.653 343.183C515.804 343.27 515.934 343.378 516.043 343.465L536.014 331.942C536.165 331.855 536.36 331.898 536.447 332.05C536.533 332.202 536.49 332.396 536.338 332.483L516.368 344.006C516.476 344.44 516.259 344.916 515.674 345.263L537.855 358.064C538.829 357.566 540.346 357.566 541.32 358.086L561.703 346.324C561.854 346.237 562.049 346.281 562.136 346.432C562.223 346.584 562.179 346.779 562.028 346.866L541.884 358.497C542.338 359.039 542.208 359.689 541.494 360.143L563.566 372.88C563.761 373.031 563.804 373.226 563.717 373.4ZM489.27 388.194L512.1 375.024C511.537 374.526 511.559 373.855 512.165 373.378L489.92 360.555C489.227 360.815 488.382 360.858 487.624 360.685L464.253 374.179C464.318 374.569 464.123 374.959 463.689 375.262L485.87 388.085C486.866 387.609 488.339 387.652 489.27 388.194ZM357.835 462.922L335.611 450.142C334.702 450.641 333.294 450.684 332.319 450.272L310.594 462.792C310.745 463.204 310.594 463.615 310.16 463.962L332.427 476.785C333.38 476.438 334.637 476.482 335.525 476.915L357.12 464.46C356.839 463.94 357.033 463.355 357.748 462.944C357.77 462.944 357.813 462.922 357.835 462.922ZM78.7187 330.685L101.051 343.552C102.004 343.205 103.26 343.248 104.126 343.682L125.743 331.227C125.462 330.729 125.635 330.165 126.285 329.754L104.083 316.996C104.04 317.018 104.018 317.039 103.975 317.061C102.978 317.646 101.332 317.646 100.336 317.061C100.271 317.018 100.206 316.974 100.141 316.931L78.6754 329.321C79.0436 329.732 79.0653 330.252 78.7187 330.685ZM232.486 241.618L254.97 254.614C255.923 254.376 257.071 254.462 257.85 254.917C257.915 254.96 257.98 254.982 258.024 255.025L280.854 241.878C280.096 241.336 280.096 240.556 280.854 239.993L258.673 227.214C258.652 227.214 258.652 227.235 258.63 227.235C257.699 227.777 256.204 227.82 255.208 227.343L232.291 240.578C232.594 240.903 232.638 241.271 232.486 241.618ZM280.94 212.528L258.847 225.286C259.453 225.719 259.562 226.304 259.215 226.802L281.569 239.69C282.478 239.387 283.648 239.43 284.493 239.82L306.543 227.127C306.478 227.105 306.435 227.062 306.37 227.04C305.482 226.52 305.373 225.719 306.066 225.134L283.886 212.333C283.085 212.744 281.893 212.809 280.94 212.528ZM486.909 329.451L464.058 316.259C463.408 316.476 462.628 316.498 461.935 316.346L439.711 329.169C440.231 329.667 440.209 330.295 439.625 330.794L462.303 343.876C463.17 343.443 464.426 343.4 465.379 343.747L487.429 331.01C486.736 330.577 486.563 329.971 486.909 329.451ZM486.368 358.476L465.227 346.281C464.339 346.562 463.235 346.519 462.433 346.172L439.495 359.407C439.885 359.927 439.733 360.555 439.061 360.988L460.072 373.14C461.09 372.663 462.585 372.685 463.538 373.226C463.711 373.335 463.863 373.443 463.971 373.573L486.844 360.382C486.801 360.36 486.758 360.338 486.736 360.317C485.848 359.84 485.74 359.06 486.368 358.476ZM310.095 433.377L332.644 420.359C332.297 419.883 332.406 419.32 332.947 418.908L310.29 405.847C309.337 406.367 307.843 406.367 306.868 405.89L284.644 418.713C285.402 419.168 285.576 419.84 285.143 420.381L307.994 433.507C308.622 433.291 309.402 433.247 310.095 433.377ZM156.35 346.302L178.4 358.995C179.245 358.692 180.328 358.692 181.172 358.995L203.461 346.129C202.768 345.588 202.811 344.83 203.569 344.288L181.606 331.638C180.588 332.137 179.071 332.115 178.118 331.552C178.053 331.508 178.01 331.487 177.945 331.443L155.7 344.288C155.808 344.331 155.916 344.375 156.003 344.44C156.891 344.938 156.999 345.718 156.35 346.302ZM258.37 256.585L280.659 269.473C281.612 269.126 282.868 269.17 283.735 269.603L306.608 256.39C306.196 255.935 306.218 255.35 306.716 254.917L284.493 242.116C283.648 242.506 282.457 242.549 281.547 242.246L258.479 255.524C258.673 255.87 258.63 256.238 258.37 256.585ZM461.718 344.288L438.975 331.183C438.13 331.53 437.025 331.53 436.159 331.227L413.112 344.526C413.351 344.96 413.221 345.436 412.766 345.826L435.423 358.909C436.441 358.389 438 358.411 438.953 358.974C438.953 358.974 438.975 358.974 438.975 358.995L461.805 345.804C461.307 345.349 461.285 344.743 461.718 344.288ZM332.427 390.381C332.189 389.927 332.319 389.428 332.817 389.038L310.832 376.367C309.835 376.8 308.384 376.757 307.474 376.237C307.301 376.129 307.15 376.021 307.041 375.912L284.579 388.865C284.644 388.887 284.709 388.93 284.774 388.973C285.576 389.428 285.727 390.143 285.251 390.685L307.366 403.443C308.124 403.226 309.034 403.226 309.77 403.464L332.427 390.381ZM207.75 345.978L230.19 358.909C230.797 358.757 231.49 358.757 232.118 358.887L254.991 345.674C254.883 345.263 255.056 344.83 255.554 344.483L233.266 331.638C232.269 332.007 230.948 331.942 230.06 331.465L207.642 344.396C208.205 344.895 208.226 345.501 207.75 345.978ZM307.258 286.931L285.511 299.494C286.377 300.079 286.355 300.946 285.424 301.509L307.691 314.332C308.319 314.05 309.121 313.963 309.857 314.072L331.517 301.574C330.543 301.011 330.521 300.122 331.409 299.538L309.164 286.693C308.601 286.91 307.908 286.996 307.258 286.931ZM383.004 329.364L360.542 316.389C359.828 316.758 358.81 316.844 357.943 316.671L336.369 329.126C336.434 329.147 336.499 329.191 336.564 329.234C337.474 329.754 337.561 330.577 336.824 331.14L359.329 344.115C359.936 343.812 360.759 343.703 361.496 343.79L383.199 331.27C382.354 330.729 382.29 329.927 383.004 329.364ZM309.597 373.703L332.774 360.338C332.6 359.949 332.709 359.515 333.099 359.169L310.55 346.194C309.554 346.627 308.103 346.584 307.193 346.064C307.149 346.043 307.128 346.021 307.106 345.999L284.558 359.017C284.666 359.06 284.796 359.125 284.883 359.169C285.706 359.645 285.857 360.36 285.337 360.923L307.929 373.941C308.406 373.746 309.012 373.66 309.597 373.703ZM259.778 346.194L281.828 358.909C282.392 358.736 283.041 358.692 283.67 358.779L306.608 345.544C306.305 345.068 306.413 344.548 306.955 344.136L284.991 331.487C283.995 331.898 282.587 331.855 281.677 331.335C281.612 331.292 281.525 331.248 281.482 331.205L258.912 344.245C259.085 344.31 259.237 344.375 259.388 344.461C260.19 344.895 260.32 345.631 259.778 346.194ZM285.078 329.082C285.164 329.126 285.229 329.147 285.316 329.191C286.204 329.711 286.312 330.512 285.619 331.075L307.604 343.747C308.298 343.487 309.164 343.443 309.922 343.595L332.297 330.685C332.059 330.252 332.167 329.776 332.601 329.407L310.615 316.736C309.619 317.104 308.276 317.039 307.409 316.541C307.301 316.476 307.214 316.411 307.128 316.346L285.078 329.082ZM335.915 358.541L358.485 345.523C358.355 345.176 358.463 344.808 358.766 344.505L336.196 331.508C335.2 331.898 333.813 331.833 332.925 331.335C332.86 331.292 332.795 331.27 332.752 331.227L310.723 343.941C310.767 343.963 310.788 343.985 310.832 344.006C311.698 344.505 311.806 345.284 311.178 345.869L333.705 358.844C334.333 358.497 335.156 358.411 335.915 358.541ZM356.903 314.267L335.026 301.617C334.247 302.007 333.164 302.094 332.254 301.855L310.723 314.288C310.832 314.332 310.962 314.397 311.07 314.44C311.98 314.96 312.066 315.805 311.308 316.389L333.272 329.039C333.943 328.758 334.81 328.693 335.568 328.823L357.163 316.368C357.12 316.346 357.077 316.324 357.033 316.303C356.037 315.761 356.015 314.852 356.903 314.267ZM259.843 314.288C260.601 314.852 260.558 315.653 259.735 316.194L282.023 329.017C282.673 328.758 283.496 328.693 284.233 328.823L306.738 315.848C306.586 315.458 306.695 315.046 307.063 314.7L284.666 301.79C283.756 302.029 282.652 301.964 281.872 301.574L259.843 314.288ZM233.721 329.386C234.609 329.906 234.674 330.729 233.937 331.313L256.269 344.18C256.789 344.006 257.374 343.963 257.959 344.006L281.027 330.685C280.81 330.252 280.919 329.776 281.395 329.407L259.042 316.541C258.154 316.801 257.049 316.758 256.248 316.389L233.721 329.386ZM233.569 360.858L255.749 373.66C256.399 373.508 257.157 373.53 257.785 373.703L280.55 360.577C280.356 360.122 280.55 359.624 281.114 359.255L259.193 346.627C258.175 347.126 256.659 347.082 255.706 346.541C255.554 346.454 255.446 346.367 255.338 346.259L232.898 359.212C232.919 359.234 232.963 359.255 232.984 359.255C233.764 359.667 233.937 360.317 233.569 360.858ZM259.085 375.587L281.785 388.67C282.392 388.497 283.106 388.475 283.756 388.584L306.738 375.327C306.673 374.959 306.846 374.591 307.236 374.288L284.731 361.313C283.713 361.833 282.175 361.811 281.222 361.248C281.114 361.183 281.027 361.118 280.94 361.053L258.522 373.984C259.28 374.418 259.453 375.046 259.085 375.587ZM335.655 388.519L358.485 375.327C358.138 374.873 358.181 374.331 358.658 373.92L336.629 361.226C335.633 361.595 334.29 361.53 333.424 361.032C333.315 360.967 333.25 360.923 333.164 360.858L310.55 373.898C310.745 373.963 310.94 374.049 311.113 374.136C311.98 374.634 312.088 375.414 311.46 375.999L333.489 388.692C334.138 388.432 334.94 388.389 335.655 388.519ZM361.907 373.356L384.174 360.512C383.892 360.1 383.957 359.624 384.347 359.234L362.275 346.519C361.301 346.844 360.023 346.757 359.178 346.281C359.048 346.216 358.94 346.129 358.853 346.043L336.781 358.779C336.889 358.822 336.998 358.866 337.084 358.93C337.994 359.45 338.081 360.295 337.301 360.88L359.286 373.551C360.066 373.205 361.062 373.14 361.907 373.356ZM387.51 358.584L409.062 346.129C408.997 346.086 408.91 346.064 408.845 346.021C407.957 345.501 407.849 344.7 408.564 344.115L386.6 331.422C385.82 331.747 384.802 331.79 383.979 331.552L362.449 343.963C362.579 344.006 362.73 344.071 362.838 344.158C363.792 344.7 363.835 345.588 362.99 346.172L384.954 358.822C385.669 358.476 386.665 358.389 387.51 358.584ZM435.401 329.104L413.416 316.433C412.484 316.801 411.228 316.779 410.34 316.368L387.423 329.581C387.813 330.057 387.748 330.62 387.25 331.054L409.192 343.747C410.188 343.335 411.596 343.4 412.484 343.92C412.549 343.963 412.614 344.006 412.679 344.05L435.488 330.88C434.794 330.36 434.751 329.646 435.401 329.104ZM409.82 314.353L387.315 301.379C386.427 301.812 385.17 301.834 384.239 301.465L361.236 314.743C361.495 315.133 361.431 315.588 361.106 315.956L383.654 328.996C384.629 328.606 385.993 328.671 386.86 329.147L409.733 315.978C409.213 315.48 409.235 314.83 409.82 314.353ZM383.697 299.299L361.777 286.65C360.846 287.083 359.524 287.083 358.593 286.671L335.676 299.906C336.001 300.317 335.98 300.816 335.611 301.227L357.64 313.963C358.615 313.66 359.849 313.747 360.672 314.223C360.716 314.245 360.759 314.267 360.781 314.288L383.611 301.119C382.918 300.577 382.939 299.819 383.697 299.299ZM358.138 284.57L335.85 271.726C335.113 271.986 334.225 272.029 333.445 271.812L310.182 285.242C310.29 285.61 310.139 285.978 309.77 286.303L332.081 299.213C333.055 298.909 334.29 298.996 335.113 299.473L357.943 286.303C357.402 285.74 357.467 285.047 358.138 284.57ZM332.319 269.668L310.29 256.953C309.337 257.3 308.059 257.256 307.214 256.802L284.341 270.014C284.796 270.491 284.753 271.076 284.254 271.531L306.24 284.245C307.236 283.855 308.622 283.92 309.489 284.419C309.64 284.505 309.749 284.592 309.857 284.7L332.687 271.509C332.687 271.509 332.687 271.509 332.665 271.509C331.821 271.011 331.691 270.231 332.319 269.668ZM259.323 284.44C259.497 284.505 259.648 284.57 259.8 284.657C260.796 285.242 260.796 286.173 259.821 286.758L281.763 299.408C282.587 298.953 283.821 298.866 284.796 299.169L306.305 286.758C306.131 286.693 305.98 286.628 305.828 286.541C304.918 286.022 304.832 285.198 305.568 284.614L283.605 271.921C282.803 272.267 281.699 272.31 280.832 272.029L259.323 284.44ZM233.699 299.234C233.829 299.278 233.937 299.343 234.046 299.408C235.02 299.971 235.042 300.859 234.132 301.444L256.096 314.093C256.962 313.66 258.219 313.595 259.172 313.942L281.309 301.162C280.919 300.751 280.897 300.252 281.244 299.819L259.063 287.04C258.11 287.299 256.941 287.191 256.161 286.736C256.009 286.65 255.901 286.563 255.793 286.455L233.699 299.234ZM207.512 314.375C207.728 314.44 207.923 314.527 208.096 314.635C209.006 315.155 209.093 316 208.335 316.563L230.32 329.234C231.1 328.909 232.118 328.844 232.963 329.082L255.619 316C255.143 315.545 255.1 314.981 255.533 314.527L233.417 301.79C232.443 302.072 231.208 301.985 230.407 301.53C230.298 301.465 230.19 301.4 230.103 301.335L207.512 314.375ZM181.562 329.342C181.627 329.364 181.692 329.407 181.757 329.429C182.58 329.906 182.732 330.642 182.169 331.205L204.241 343.941C205.107 343.66 206.212 343.682 207.035 344.028L229.54 331.032C229.172 330.577 229.215 330.014 229.713 329.581L207.685 316.888C206.688 317.256 205.324 317.191 204.457 316.693C204.284 316.584 204.133 316.476 204.024 316.346L181.562 329.342ZM181.952 361.032L204.371 373.92C204.934 373.768 205.584 373.746 206.19 373.855L228.782 360.815C228.436 360.273 228.609 359.645 229.367 359.234C229.389 359.234 229.41 359.212 229.41 359.212L207.165 346.389C206.277 346.822 205.021 346.844 204.089 346.497L181.822 359.364C182.472 359.84 182.515 360.512 181.952 361.032ZM207.793 375.891L229.995 388.649C230.602 388.519 231.273 388.497 231.88 388.649L254.363 375.674C253.93 375.132 254.081 374.439 254.861 373.984C254.883 373.963 254.926 373.963 254.948 373.941L233.049 361.313C233.028 361.313 233.006 361.335 233.006 361.335C232.009 361.92 230.363 361.92 229.367 361.335C229.345 361.313 229.302 361.291 229.28 361.27L207.035 374.093C207.122 374.136 207.187 374.158 207.273 374.201C208.031 374.678 208.205 375.349 207.793 375.891ZM233.352 390.576L256.096 403.659C256.637 403.508 257.244 403.464 257.829 403.551L280.529 390.468C280.247 389.97 280.442 389.407 281.092 388.995L258.63 376.042C258.608 376.064 258.587 376.086 258.544 376.086C257.547 376.67 255.923 376.67 254.926 376.107L232.703 388.93C232.746 388.952 232.768 388.973 232.811 388.995C233.526 389.407 233.721 390.056 233.352 390.576ZM259.54 405.652L281.72 418.41C282.413 418.237 283.215 418.237 283.886 418.41L306.283 405.479C305.763 404.937 305.872 404.222 306.651 403.746L284.709 391.096C283.713 391.638 282.11 391.616 281.135 391.053C281.07 391.01 281.005 390.988 280.962 390.945L258.695 403.789C258.825 403.833 258.933 403.898 259.042 403.962C259.821 404.396 259.995 405.089 259.54 405.652ZM336.001 418.432L358.831 405.262C358.723 404.916 358.831 404.547 359.156 404.222L336.434 391.14C335.438 391.573 333.987 391.529 333.077 391.01C333.012 390.966 332.947 390.923 332.882 390.88L310.485 403.811C311.178 404.266 311.287 404.916 310.832 405.457L333.597 418.583C334.312 418.28 335.221 418.237 336.001 418.432ZM361.842 403.508L384.867 390.208C384.651 389.84 384.715 389.428 385.019 389.082L362.232 375.956C361.236 376.324 359.871 376.259 359.005 375.761L336.478 388.757C336.543 388.8 336.629 388.822 336.694 388.865C337.561 389.363 337.669 390.143 337.041 390.728L359.741 403.811C360.347 403.529 361.127 403.421 361.842 403.508ZM388.116 388.345L410.578 375.371C410.426 375.046 410.491 374.699 410.708 374.396L387.878 361.248C386.903 361.573 385.604 361.508 384.759 361.01C384.715 360.988 384.694 360.967 384.672 360.945L362.665 373.66C363.575 374.179 363.662 375.024 362.903 375.609L385.582 388.67C386.275 388.302 387.25 388.194 388.116 388.345ZM413.697 373.573L435.336 361.075C435.336 361.075 435.314 361.075 435.314 361.053C434.491 360.577 434.34 359.862 434.859 359.32L412.138 346.194C411.466 346.454 410.643 346.519 409.907 346.389L388.311 358.866C388.354 358.887 388.376 358.909 388.419 358.909C389.372 359.45 389.416 360.317 388.593 360.902L411.249 373.941C411.899 373.573 412.852 373.443 413.697 373.573ZM460.57 314.245L438.498 301.509C437.74 301.747 436.83 301.747 436.051 301.53L413.935 314.288C414.65 314.808 414.672 315.523 414.044 316.065L436.051 328.758C436.982 328.389 438.238 328.411 439.126 328.823L461.155 316.108C461.112 316.086 461.068 316.065 461.025 316.043C460.202 315.545 460.05 314.808 460.57 314.245ZM435.011 299.494L412.441 286.476C411.726 286.758 410.795 286.801 409.993 286.606L387.813 299.408C388.354 299.884 388.376 300.491 387.9 300.967L410.47 313.963C411.293 313.639 412.397 313.617 413.264 313.92L435.336 301.184C434.599 300.729 434.491 300.036 435.011 299.494ZM408.867 284.419L386.903 271.747C386.123 272.051 385.127 272.072 384.326 271.834L362.21 284.592C362.86 285.068 362.925 285.74 362.384 286.26L384.391 298.953C385.257 298.671 386.362 298.693 387.185 299.039L409.213 286.325C409.192 286.325 409.17 286.303 409.17 286.303C408.304 285.783 408.195 285.003 408.867 284.419ZM383.329 269.69L360.976 256.802C360.434 256.953 359.828 256.997 359.264 256.932L336.846 269.863C337.214 270.361 337.106 270.946 336.521 271.379L358.831 284.245C359.654 283.964 360.694 283.964 361.517 284.267L383.589 271.531C382.788 270.989 382.701 270.231 383.329 269.69ZM357.51 254.787L335.395 242.029C334.593 242.267 333.64 242.246 332.86 241.964L310.81 254.701C311.633 255.242 311.677 256.044 310.94 256.607L332.904 269.278C333.922 268.823 335.373 268.866 336.304 269.408C336.304 269.408 336.304 269.408 336.326 269.408L358.355 256.693C358.225 256.65 358.095 256.585 357.987 256.52C357.207 256.044 357.033 255.35 357.51 254.787ZM331.929 240.036L309.662 227.192C308.991 227.452 308.124 227.517 307.366 227.365L285.078 240.188C285.554 240.643 285.554 241.228 285.078 241.704L307.323 254.527C308.124 254.181 309.207 254.116 310.095 254.397L332.189 241.639C331.582 241.163 331.496 240.535 331.929 240.036ZM255.229 257.386L233.612 269.841C233.656 269.863 233.721 269.885 233.764 269.928C234.695 270.469 234.76 271.314 233.981 271.877L256.161 284.657C256.767 284.31 257.59 284.18 258.37 284.245L280.117 271.682C279.316 271.162 279.273 270.361 280.009 269.82L257.85 257.018C257.157 257.43 256.139 257.56 255.229 257.386ZM207.945 284.614C207.966 284.635 208.01 284.635 208.031 284.657C208.919 285.177 209.028 285.978 208.313 286.563L230.515 299.343C231.165 299.018 232.031 298.888 232.811 298.996L255.446 285.935C255.359 285.653 255.424 285.35 255.641 285.068L233.309 272.202C232.313 272.549 230.991 272.484 230.125 271.986C230.082 271.964 230.017 271.921 229.973 271.899L207.945 284.614ZM181.736 299.711C181.866 299.754 181.974 299.819 182.082 299.884C182.905 300.361 183.057 301.097 182.494 301.66L204.739 314.483C205.259 314.267 205.909 314.158 206.537 314.202L229.735 300.794C229.605 300.447 229.67 300.079 229.952 299.776L207.663 286.931C206.667 287.321 205.281 287.278 204.392 286.758C204.371 286.736 204.327 286.715 204.306 286.693L181.736 299.711ZM155.7 314.678C155.7 314.7 155.721 314.7 155.7 314.678C156.458 315.111 156.653 315.761 156.285 316.281L178.66 329.191C179.288 328.974 180.046 328.952 180.739 329.082L203.721 315.805C203.656 315.48 203.808 315.133 204.133 314.852L181.909 302.05C180.891 302.548 179.375 302.505 178.422 301.964C178.313 301.899 178.205 301.834 178.118 301.769L155.7 314.678ZM129.816 329.602C129.881 329.624 129.946 329.667 129.989 329.689C130.79 330.144 130.942 330.859 130.465 331.4L152.776 344.245C153.382 344.006 154.14 343.941 154.833 344.05L177.49 330.967C177.209 330.49 177.382 329.949 177.967 329.537L155.808 316.758C155.786 316.779 155.765 316.779 155.743 316.801C154.747 317.386 153.101 317.386 152.104 316.801C152.104 316.801 152.083 316.801 152.083 316.779L129.816 329.602ZM104.603 345.588L126.826 358.389C127.758 357.956 129.101 357.934 130.054 358.367L151.714 345.869C151.519 345.436 151.671 344.981 152.148 344.613L129.924 331.833C128.928 332.375 127.325 332.353 126.35 331.79C126.285 331.747 126.242 331.725 126.177 331.682L104.668 344.05C105.123 344.526 105.101 345.133 104.603 345.588ZM130.444 360.468L152.407 373.118C153.425 372.642 154.92 372.685 155.851 373.226C155.96 373.291 156.046 373.356 156.133 373.421L177.599 361.032C177.035 360.512 177.057 359.819 177.728 359.32L155.721 346.671C154.725 347.104 153.274 347.061 152.364 346.541C152.256 346.476 152.191 346.432 152.104 346.367L130.639 358.757C131.202 359.277 131.137 359.97 130.444 360.468ZM156.046 375.219L178.357 388.064C179.288 387.739 180.523 387.782 181.367 388.194L202.985 375.717C202.725 375.219 202.92 374.634 203.634 374.223L181.367 361.421C180.458 361.833 179.158 361.833 178.248 361.421L156.566 373.941C156.718 374.374 156.545 374.851 156.046 375.219ZM181.887 390.1L203.916 402.793C204.891 402.468 206.147 402.533 206.992 403.009L228.544 390.576C228.197 390.035 228.392 389.428 229.129 388.995C229.15 388.973 229.172 388.973 229.194 388.952L207.252 376.345C206.255 376.93 204.609 376.93 203.613 376.345C203.548 376.302 203.483 376.259 203.418 376.216L181.931 388.605C182.407 389.06 182.385 389.645 181.887 390.1ZM207.447 404.807L230.017 417.804C230.926 417.435 232.139 417.457 233.028 417.825L254.731 405.305C254.536 404.829 254.753 404.309 255.359 403.941L232.854 391.01C232.833 391.031 232.811 391.031 232.789 391.053C231.793 391.638 230.147 391.638 229.15 391.053C229.107 391.031 229.085 391.01 229.042 390.988L207.533 403.399C207.901 403.854 207.88 404.396 207.447 404.807ZM233.591 419.883L255.598 432.554C256.594 432.164 257.98 432.229 258.868 432.728C258.89 432.749 258.933 432.771 258.955 432.793L280.464 420.381C280.031 419.84 280.182 419.168 280.962 418.713L258.998 406.085C258.002 406.648 256.377 406.627 255.403 406.064C255.294 405.999 255.208 405.934 255.121 405.869L233.656 418.258C234.197 418.735 234.176 419.385 233.591 419.883ZM259.193 434.612L281.893 447.673C282.868 447.197 284.319 447.218 285.272 447.717L306.846 435.262C306.565 434.785 306.716 434.244 307.301 433.832L284.623 420.793C283.626 421.356 282.002 421.356 281.005 420.793L259.453 433.226C259.756 433.702 259.67 434.2 259.193 434.612ZM285.511 449.774L306.586 461.904C307.583 461.493 309.012 461.536 309.922 462.056C310.052 462.121 310.139 462.207 310.225 462.272L331.691 449.883C331.041 449.319 331.128 448.54 331.972 448.02L310.918 435.912C309.9 436.388 308.406 436.366 307.453 435.825C307.388 435.803 307.344 435.76 307.301 435.717L285.814 448.128C286.269 448.67 286.182 449.319 285.511 449.774ZM357.532 434.98C356.795 434.439 356.817 433.659 357.597 433.117L336.543 420.988C335.546 421.421 334.095 421.377 333.185 420.858C333.164 420.858 333.164 420.836 333.142 420.836L310.918 433.659C310.983 433.681 311.027 433.724 311.092 433.746C311.936 434.222 312.066 434.98 311.503 435.543L332.73 447.738C333.532 447.522 334.507 447.543 335.265 447.846L357.532 434.98ZM383.632 419.926C383.199 419.45 383.264 418.865 383.806 418.41L362.687 406.237C361.69 406.583 360.391 406.497 359.546 406.02C359.416 405.934 359.308 405.869 359.199 405.782L336.781 418.713C336.803 418.713 336.824 418.735 336.824 418.735C337.691 419.233 337.799 420.013 337.149 420.598L358.268 432.771C359.156 432.468 360.304 432.511 361.127 432.879L383.632 419.926ZM409.733 404.872C409.17 404.396 409.148 403.768 409.668 403.269L388.484 391.075C387.51 391.356 386.297 391.27 385.474 390.815C385.409 390.771 385.344 390.75 385.3 390.706L362.752 403.724C362.903 403.789 363.055 403.854 363.185 403.919C364.116 404.461 364.181 405.327 363.38 405.89L384.456 418.02C385.235 417.695 386.275 417.674 387.12 417.912L409.733 404.872ZM435.401 390.057C434.924 389.602 434.903 389.038 435.336 388.584L414.109 376.345C413.156 376.584 412.008 376.497 411.228 376.042C411.141 375.977 411.055 375.934 410.968 375.869L388.939 388.584C389.004 388.605 389.069 388.649 389.134 388.692C390.109 389.255 390.131 390.165 389.221 390.75L410.275 402.879C411.163 402.468 412.397 402.446 413.307 402.814L435.401 390.057ZM460.462 375.609C460.245 375.544 460.05 375.457 459.877 375.349C459.032 374.873 458.902 374.114 459.487 373.551L438.347 361.335C437.654 361.551 436.83 361.551 436.116 361.378L414.585 373.811C414.694 373.855 414.802 373.898 414.888 373.963C415.885 374.548 415.885 375.479 414.888 376.064L435.921 388.172C436.765 387.739 438 387.674 438.953 388.02L460.462 375.609ZM515.653 372.966L537.703 360.23C536.945 359.754 536.815 359.06 537.313 358.519L514.938 345.609C514.483 345.739 513.963 345.783 513.465 345.739L490.938 358.736C491.241 359.212 491.111 359.754 490.57 360.165L512.815 372.988C513.66 372.663 514.786 372.642 515.653 372.966ZM490.267 331.378C489.595 331.53 488.815 331.508 488.144 331.335L466.029 344.093C466.744 344.656 466.722 345.436 465.92 345.956L486.974 358.086C487.992 357.631 489.444 357.674 490.353 358.216C490.397 358.237 490.418 358.259 490.462 358.281L512.534 345.544C512.36 345.479 512.187 345.414 512.035 345.328C511.256 344.873 511.082 344.201 511.537 343.638L490.267 331.378ZM207.382 255.004C207.512 255.047 207.62 255.112 207.75 255.177C208.595 255.675 208.725 256.412 208.14 256.997L230.385 269.82C231.078 269.495 232.009 269.43 232.811 269.581L254.428 257.148C254.363 257.127 254.298 257.083 254.233 257.04C253.237 256.455 253.237 255.524 254.233 254.939L232.074 242.138C232.01 242.203 231.923 242.246 231.836 242.289C231.056 242.744 229.865 242.831 228.912 242.571L207.382 255.004ZM181.757 269.798C181.844 269.841 181.931 269.885 181.996 269.928C182.819 270.404 182.97 271.119 182.429 271.682L204.696 284.505C205.411 284.202 206.32 284.159 207.122 284.332L229.497 271.444C229.237 271.033 229.324 270.556 229.735 270.166L207.512 257.365C206.494 257.841 205.021 257.798 204.068 257.256C203.959 257.192 203.851 257.127 203.764 257.04L181.757 269.798ZM155.57 284.917C155.743 284.982 155.895 285.047 156.046 285.133C156.805 285.567 156.978 286.216 156.61 286.758L178.985 299.646C179.548 299.451 180.219 299.408 180.848 299.494L203.829 286.26C203.526 285.805 203.613 285.285 204.111 284.874L181.909 272.072C180.891 272.57 179.353 272.549 178.4 272.007C178.313 271.964 178.248 271.921 178.183 271.856L155.57 284.917ZM129.599 299.906C129.621 299.928 129.664 299.928 129.686 299.949C130.335 300.317 130.574 300.859 130.357 301.357L152.927 314.375C153.555 314.223 154.292 314.245 154.92 314.397L177.728 301.27C177.555 300.837 177.728 300.339 178.27 299.992L156.09 287.213C156.068 287.235 156.046 287.235 156.025 287.256C155.028 287.841 153.382 287.841 152.386 287.256C152.234 287.17 152.126 287.083 152.018 286.975L129.599 299.906ZM103.736 314.83C103.801 314.873 103.888 314.895 103.953 314.938C104.69 315.35 104.884 315.978 104.538 316.498L126.978 329.407C127.585 329.234 128.321 329.191 128.971 329.321L151.541 316.324C151.129 315.783 151.303 315.111 152.083 314.678C152.104 314.657 152.126 314.657 152.169 314.635L129.989 301.834C129.902 301.899 129.816 301.964 129.707 302.029C128.711 302.613 127.065 302.613 126.068 302.029C126.047 302.007 126.003 301.985 125.982 301.964L103.736 314.83ZM360.369 462.597L382.918 449.579C382.549 449.059 382.723 448.453 383.416 448.02L361.214 435.218C360.348 435.63 359.135 435.673 358.203 435.348L335.915 448.215C336.478 448.648 336.543 449.233 336.153 449.731L358.615 462.662C359.178 462.511 359.806 462.489 360.369 462.597ZM386.275 447.652L409.127 434.46C408.997 434.049 409.17 433.637 409.625 433.291L387.38 420.468C386.405 420.858 385.084 420.814 384.174 420.338L361.734 433.291C362.232 433.746 362.254 434.352 361.777 434.807L384.109 447.695C384.802 447.5 385.582 447.478 386.275 447.652ZM412.116 432.728L435.163 419.428C434.924 418.995 435.033 418.518 435.488 418.15L413.199 405.327C412.333 405.63 411.206 405.609 410.361 405.262L387.813 418.258C388.636 418.778 388.701 419.558 388.008 420.121L410.275 432.944C410.838 432.728 411.488 432.663 412.116 432.728ZM438.39 417.565L460.852 404.591C460.679 404.201 460.787 403.789 461.155 403.464L438.823 390.598C437.935 390.88 436.809 390.815 436.007 390.446L413.957 403.161C414.629 403.703 414.607 404.439 413.892 404.959L436.137 417.76C436.787 417.5 437.632 417.435 438.39 417.565ZM485.631 390.295C484.743 389.797 484.635 389.017 485.263 388.454L462.996 375.587C462.52 375.739 461.978 375.804 461.458 375.782L439.625 388.367C440.404 388.93 440.361 389.732 439.538 390.273L461.74 403.074C462.39 402.771 463.213 402.685 463.971 402.793L485.631 390.295Z" fill="#D3DAED"/>
<path fill-rule="evenodd" clip-rule="evenodd" d="M256.666 315.886L317.666 280.886C322.566 278.686 329.566 276.886 334.466 279.486C338.966 281.786 346.466 286.586 349.766 288.486C352.266 289.886 360.966 295.086 355.566 297.986C339.666 306.586 307.566 325.986 291.366 334.686C288.266 336.386 283.866 336.886 279.166 336.586C274.466 336.186 269.666 334.886 265.966 332.686C263.266 331.086 260.666 329.586 258.066 328.086C254.566 326.086 252.666 323.686 252.466 321.486C252.266 319.186 253.666 317.186 256.666 315.886Z" fill="black" fill-opacity="0.03"/>
<path fill-rule="evenodd" clip-rule="evenodd" d="M259.866 139.286C260.866 140.686 260.966 148.086 257.166 146.386C255.566 145.686 257.266 137.786 259.866 139.286Z" fill="#0A3C5F"/>
<path fill-rule="evenodd" clip-rule="evenodd" d="M257.066 136.986C259.166 138.986 261.966 141.186 265.166 143.086C266.166 144.786 263.066 147.086 260.566 147.786C258.666 145.986 256.466 145.086 255.166 144.286L253.666 143.586C254.766 140.986 256.066 139.786 257.066 136.986Z" fill="#F0B186"/>
<path fill-rule="evenodd" clip-rule="evenodd" d="M257.566 137.586L259.066 138.786C260.166 140.186 260.266 142.286 259.966 143.486C260.466 144.386 263.566 146.386 264.966 147.686C264.266 148.886 261.766 147.786 260.566 147.986C258.666 146.186 256.366 145.086 255.066 144.286L253.566 143.586L257.566 137.586Z" fill="#E7A376"/>
<path fill-rule="evenodd" clip-rule="evenodd" d="M245.566 137.486C246.166 134.786 247.166 132.386 247.566 132.386C249.166 132.386 253.666 134.086 256.466 136.386C259.166 138.686 259.866 141.186 258.866 142.986C258.366 143.886 257.466 143.986 256.366 144.486C254.466 145.386 253.666 145.186 252.966 144.986C251.466 144.686 246.866 138.486 245.566 137.486Z" fill="#F0B186"/>
<path fill-rule="evenodd" clip-rule="evenodd" d="M244.467 138.886C247.567 132.386 249.867 134.686 253.367 138.386C255.267 140.386 255.767 141.286 255.167 142.586C254.667 143.686 254.367 144.586 252.767 145.086C249.767 143.486 248.867 140.186 244.467 138.886Z" fill="#E7A376"/>
<path fill-rule="evenodd" clip-rule="evenodd" d="M258.967 139.386C258.567 138.486 257.567 136.386 256.567 135.086C256.167 134.586 254.267 134.186 251.767 132.186C250.167 134.586 252.967 135.386 254.367 137.286C254.967 138.086 254.967 140.886 256.967 141.886C258.367 142.586 259.667 140.786 258.967 139.386Z" fill="#F0B186"/>
<path fill-rule="evenodd" clip-rule="evenodd" d="M255.467 136.386C255.067 135.886 251.667 134.486 251.667 132.186C250.067 134.586 253.167 135.486 254.667 137.086C255.367 137.786 254.867 140.986 256.867 141.886C255.167 139.086 255.567 136.386 255.467 136.386Z" fill="#E7A376"/>
<path fill-rule="evenodd" clip-rule="evenodd" d="M247.466 132.486C247.466 132.486 247.366 132.386 247.066 132.486C246.266 132.786 243.666 133.786 242.666 134.186C241.266 134.686 241.266 134.786 241.066 135.886V137.886C241.066 139.186 241.166 139.086 242.066 140.186C242.566 140.786 242.966 141.186 243.466 141.186C243.766 141.186 248.266 139.786 248.566 139.486C248.766 139.286 246.666 138.686 246.366 136.886C246.066 135.286 247.466 132.486 247.466 132.486Z" fill="#E7A376"/>
<path fill-rule="evenodd" clip-rule="evenodd" d="M247.667 132.386C247.267 132.286 246.667 132.586 246.467 132.786C246.167 133.086 245.967 134.086 245.867 135.186C245.767 136.786 245.567 137.186 246.367 138.486C247.267 139.686 247.967 140.086 248.967 139.286C249.367 138.986 248.867 138.386 248.467 136.786L248.767 135.586C249.367 135.386 251.667 136.386 253.067 137.186C253.567 137.186 251.967 134.286 250.967 133.386C249.867 132.986 248.667 132.686 247.667 132.386Z" fill="#F0B186"/>
<path fill-rule="evenodd" clip-rule="evenodd" d="M245.665 133.386C245.165 135.486 244.965 136.486 245.265 137.486C245.465 138.186 246.065 138.886 246.965 139.886C246.065 140.186 244.265 140.686 243.365 140.986C242.365 140.086 241.865 139.486 241.565 138.886C241.165 137.886 241.465 136.486 241.565 135.886C241.665 135.286 241.865 134.986 242.365 134.786C242.965 134.286 244.865 133.686 245.665 133.386Z" fill="#F0B186"/>
<path fill-rule="evenodd" clip-rule="evenodd" d="M261.966 140.086C261.666 139.886 260.166 139.386 259.966 139.186C259.866 142.186 258.966 144.486 257.266 146.386C257.566 146.486 259.166 147.286 259.466 147.386C259.966 147.686 260.466 148.386 260.866 148.786C264.566 152.786 275.266 158.986 285.166 162.386C288.566 163.486 291.166 163.086 292.666 160.486C293.566 159.686 294.366 158.886 294.866 158.386C299.166 154.586 306.566 142.086 311.066 123.286C309.666 122.086 305.566 120.886 304.766 120.686C301.466 119.986 298.666 121.586 297.666 122.686C295.866 124.686 293.966 128.386 292.666 134.386C291.766 138.386 288.566 143.786 286.366 148.686C286.266 148.886 286.166 149.086 286.066 149.386C282.666 147.486 279.066 145.886 277.166 145.086C273.166 143.286 268.566 141.686 263.566 140.086C263.166 139.886 262.566 140.286 261.966 140.086Z" fill="url(#paint1_linear)"/>
<path fill-rule="evenodd" clip-rule="evenodd" d="M341.467 225.486C341.967 222.486 345.067 221.086 347.667 221.186C352.267 221.286 354.167 225.286 353.467 229.386C352.867 232.886 353.067 232.186 352.867 234.386C352.667 237.186 353.267 240.686 352.767 243.886C352.167 247.886 350.067 252.386 344.367 251.886C343.167 251.786 342.967 249.286 342.967 246.186C342.867 238.886 341.667 232.586 341.467 225.486Z" fill="#072C47"/>
<path fill-rule="evenodd" clip-rule="evenodd" d="M306.066 244.586C318.666 241.586 335.866 235.386 345.466 234.786C347.566 230.986 347.466 224.886 344.166 223.186C333.366 222.986 318.666 223.286 312.866 223.686C311.466 223.786 309.866 224.286 308.266 225.086C313.166 214.986 318.666 204.286 318.966 195.886C319.166 190.286 316.666 183.686 316.466 178.986C305.466 188.486 302.566 184.786 298.966 183.186C298.266 186.986 298.066 186.486 297.466 190.486C292.866 204.986 288.666 217.786 286.866 232.086C286.066 236.286 285.866 240.786 288.966 244.086C292.766 248.186 300.466 245.886 306.066 244.586Z" fill="url(#paint2_linear)"/>
<path fill-rule="evenodd" clip-rule="evenodd" d="M286.266 302.786C287.066 306.286 276.066 317.786 273.566 320.186C271.366 322.286 271.066 323.986 273.766 325.086C275.866 325.986 280.466 324.386 283.366 323.286C288.766 321.186 290.566 317.586 292.366 316.386L293.866 316.486C295.066 316.386 299.466 313.786 300.166 312.486C300.266 311.386 300.366 309.586 300.266 308.086C299.766 303.386 298.666 304.886 296.866 301.286C292.766 302.286 294.666 304.086 286.266 302.786Z" fill="#043150"/>
<path fill-rule="evenodd" clip-rule="evenodd" d="M290.566 250.486C289.666 259.586 289.066 270.086 288.466 279.386C287.766 288.786 287.066 297.786 286.166 303.286C289.366 306.486 295.166 305.786 297.466 303.086C300.166 290.786 306.166 275.186 307.166 269.086C308.266 262.186 306.866 255.886 306.566 250.786C306.166 247.586 305.966 246.686 306.766 245.086C313.866 236.186 321.966 227.486 328.566 218.686C336.166 208.686 340.366 200.086 325.666 188.686C320.066 190.086 310.266 191.386 304.366 189.686C304.466 194.486 307.866 203.886 307.866 205.586C301.766 215.286 295.366 227.986 292.966 236.586C292.566 238.186 291.066 240.586 290.666 243.286C290.166 245.986 290.766 249.086 290.566 250.486Z" fill="url(#paint3_linear)"/>
<path fill-rule="evenodd" clip-rule="evenodd" d="M332.567 133.486C329.967 131.886 323.367 127.286 317.567 124.286C309.967 120.286 302.367 119.086 297.467 127.886C294.667 132.886 292.967 140.086 293.267 149.386C293.367 152.986 294.067 156.586 294.467 160.586C294.567 161.286 297.167 168.486 297.767 186.186C300.267 195.686 318.467 197.986 328.567 191.386C327.967 184.086 330.667 166.986 331.567 164.986C335.167 157.386 339.567 149.186 339.667 143.386C339.867 138.586 335.967 135.586 332.567 133.486Z" fill="#CEE0F3"/>
<path fill-rule="evenodd" clip-rule="evenodd" d="M304.166 122.186C312.966 124.886 318.866 124.886 323.866 127.686C332.766 132.586 341.566 138.286 341.166 144.186C340.566 154.086 332.466 161.686 330.966 172.786C329.666 182.186 339.066 198.486 349.666 204.186C347.966 208.686 341.266 213.486 336.766 211.986C324.266 205.186 303.466 169.786 321.066 132.286C323.266 127.686 308.866 126.886 304.166 122.186Z" fill="url(#paint4_linear)"/>
<path fill-rule="evenodd" clip-rule="evenodd" d="M297.566 185.186C295.966 172.886 291.766 155.186 293.166 142.786C294.066 134.386 296.166 125.786 302.066 122.486C304.966 120.886 307.466 121.486 315.266 123.886L314.666 126.786C300.366 130.786 295.966 142.886 295.866 157.786C295.866 167.086 297.766 177.286 297.566 185.186Z" fill="url(#paint5_linear)"/>
<path fill-rule="evenodd" clip-rule="evenodd" d="M306.767 135.786C301.267 144.086 302.967 148.186 305.067 154.986C307.367 162.386 304.267 170.186 301.667 178.586C299.467 180.786 295.667 182.986 292.567 184.186C292.867 178.586 292.467 176.286 291.967 173.086C295.067 169.186 297.067 163.986 297.067 159.986C297.267 152.086 294.467 144.686 304.967 134.586C305.067 131.286 305.667 130.686 306.367 130.486C307.267 130.186 306.567 129.886 308.767 130.986C310.167 131.686 311.667 132.386 310.867 133.886C310.167 134.986 309.467 135.286 306.767 135.786Z" fill="url(#paint6_linear)"/>
<path fill-rule="evenodd" clip-rule="evenodd" d="M308.567 127.086C308.467 126.586 308.367 126.186 308.267 125.686C307.967 124.286 308.367 121.586 307.967 118.486L319.967 116.286L322.567 115.586C321.067 119.786 321.667 123.686 322.367 127.086C321.867 131.286 313.367 131.086 308.767 131.086C308.667 129.986 308.867 128.486 308.567 127.086Z" fill="#E7A376"/>
<path fill-rule="evenodd" clip-rule="evenodd" d="M308.866 131.086C308.766 130.486 308.966 129.186 308.966 128.086C308.966 127.086 308.766 124.586 308.866 123.986C307.866 123.986 305.866 129.286 304.166 131.286C306.266 130.586 306.966 130.686 308.866 131.086Z" fill="#ECF5FF"/>
<path fill-rule="evenodd" clip-rule="evenodd" d="M322.467 126.186C321.267 130.186 313.767 131.286 308.867 131.086C309.667 132.686 310.667 134.786 310.267 136.086C313.667 135.986 319.467 135.886 322.667 132.386C324.867 129.986 323.967 127.586 322.467 126.186Z" fill="#ECF5FF"/>
<path fill-rule="evenodd" clip-rule="evenodd" d="M308.567 124.786C310.067 124.386 315.067 123.486 316.367 122.986C318.867 121.886 318.167 119.686 320.767 116.386C323.567 115.486 324.767 114.386 325.467 112.986C327.067 109.586 326.267 105.186 324.167 102.286C322.367 99.7864 319.867 98.3864 316.567 98.0864C310.267 97.5864 306.767 99.8864 304.867 104.886C304.667 105.286 304.367 107.086 304.367 107.586C304.367 108.686 304.567 108.986 304.567 109.686C304.567 110.186 304.467 110.586 303.867 111.186C303.267 111.886 302.867 113.786 302.767 116.186C302.667 118.886 303.167 121.786 303.567 122.786C304.067 124.286 306.067 125.186 308.567 124.786Z" fill="#F0B186"/>
<path fill-rule="evenodd" clip-rule="evenodd" d="M310.166 105.586C311.766 105.186 317.866 103.586 320.466 102.686C323.166 101.886 326.166 100.986 327.766 102.886C329.066 105.486 328.666 109.486 327.866 111.586C326.666 114.586 323.966 116.886 320.666 119.186C319.366 120.086 320.466 115.686 320.366 114.686C319.466 116.186 318.766 116.686 318.266 116.686C317.866 116.686 317.466 116.786 317.866 114.786C318.566 111.686 317.166 110.886 318.266 108.986C319.166 107.486 318.066 107.486 317.866 106.786C315.566 106.386 313.166 107.086 310.166 105.586Z" fill="url(#paint7_linear)"/>
<path fill-rule="evenodd" clip-rule="evenodd" d="M321.867 113.086C324.367 112.786 323.867 115.486 323.167 117.086C322.667 118.186 321.767 117.886 321.267 118.686C320.667 119.686 319.667 119.986 318.967 119.886C317.567 119.586 318.867 117.586 319.167 116.786C319.267 115.386 320.267 113.286 321.867 113.086Z" fill="#F0B186"/>
<path fill-rule="evenodd" clip-rule="evenodd" d="M327.967 103.186C326.067 103.286 323.467 104.686 320.567 105.586C316.567 106.786 312.167 107.286 309.267 105.786C307.567 104.886 306.067 103.186 305.967 102.386C304.467 89.7864 327.267 92.4864 327.967 103.186Z" fill="url(#paint8_linear)"/>
<path fill-rule="evenodd" clip-rule="evenodd" d="M322.765 206.686C322.665 205.886 322.965 205.986 323.365 205.586C323.465 205.486 323.465 205.486 323.565 205.386L329.565 200.986C333.465 198.586 336.165 206.186 337.465 212.086L332.365 215.986L324.165 212.786L322.765 206.686Z" fill="#15778E"/>
<path fill-rule="evenodd" clip-rule="evenodd" d="M332.466 229.486L330.666 215.886L330.166 211.486L354.966 192.186L357.466 210.086C357.566 210.586 357.566 210.986 357.466 211.286C357.466 211.486 357.366 211.786 357.266 211.986C357.266 212.086 357.166 212.186 357.066 212.286C356.966 212.486 356.766 212.586 356.666 212.786L331.866 232.086C332.566 231.586 332.666 230.686 332.466 229.486Z" fill="url(#paint9_linear)"/>
<path fill-rule="evenodd" clip-rule="evenodd" d="M323.466 208.786L330.166 211.486L332.666 229.386C332.966 231.886 331.366 233.086 329.066 232.186H328.966C326.666 231.286 324.466 228.486 324.166 225.986L322.666 214.786L321.766 208.286C321.466 205.986 322.566 204.586 324.366 204.586C326.266 204.586 328.266 205.486 329.566 206.786C331.066 208.286 331.966 210.486 332.266 212.486L332.966 217.786L331.166 217.086L330.466 211.786C330.366 210.886 329.966 209.986 329.366 209.086C328.566 207.986 325.866 205.686 324.266 206.986C323.666 207.286 323.366 207.886 323.466 208.786Z" fill="url(#paint10_linear)"/>
<path fill-rule="evenodd" clip-rule="evenodd" d="M344.566 214.686L343.266 214.186L343.866 218.686L345.166 219.286L344.866 216.686L344.566 214.686Z" fill="#C24915"/>
<path fill-rule="evenodd" clip-rule="evenodd" d="M347.466 185.686C347.766 185.486 348.266 185.186 348.566 185.186C349.866 184.986 351.366 185.586 352.366 186.286C353.266 186.886 354.066 187.586 354.766 188.386C355.766 189.586 356.666 191.086 356.966 192.686C356.966 192.886 357.066 192.986 357.066 193.186L357.766 198.486L347.366 213.486L345.166 215.186L332.966 217.686L332.766 217.586L332.366 215.086C332.166 213.586 330.966 209.386 330.066 208.086C328.766 206.386 324.766 203.386 322.666 204.886L347.466 185.686Z" fill="url(#paint11_linear)"/>
<path fill-rule="evenodd" clip-rule="evenodd" d="M344.566 214.686L344.066 214.486L344.666 219.086L345.166 219.286L344.866 216.686L344.566 214.686Z" fill="#C24915"/>
<path fill-rule="evenodd" clip-rule="evenodd" d="M347.766 212.186L345.866 213.886L344.566 214.686L344.066 214.486L347.266 211.986L347.766 212.186Z" fill="#FF7A42"/>
<path fill-rule="evenodd" clip-rule="evenodd" d="M347.766 212.186L344.566 214.686L345.166 219.286L348.366 216.786L347.766 212.186Z" fill="#FB4B00"/>
<path fill-rule="evenodd" clip-rule="evenodd" d="M334.066 199.786L331.566 198.786C331.366 197.786 331.266 197.086 331.266 196.186C331.266 195.686 331.366 195.186 331.566 194.686C332.066 193.086 332.566 191.586 334.066 190.486L335.266 190.886L336.666 191.486C335.166 192.686 333.866 195.686 333.766 197.786C333.766 198.486 333.966 199.186 334.066 199.786Z" fill="#31ACCB"/>
<path fill-rule="evenodd" clip-rule="evenodd" d="M336.567 191.486L340.967 187.886C342.867 186.386 344.667 187.086 345.067 189.486L345.267 190.686L344.067 191.686L343.867 190.486C343.667 188.986 342.467 188.486 341.167 189.486L336.767 193.086C335.567 194.086 334.767 196.086 334.967 197.686L335.167 198.886L333.967 199.886L333.767 198.686C333.467 196.186 334.667 192.986 336.567 191.486Z" fill="#0F677D"/>
<path fill-rule="evenodd" clip-rule="evenodd" d="M343.766 181.386C343.166 187.286 344.466 190.186 344.066 191.386C343.766 192.486 338.666 197.186 336.966 198.186C336.466 198.486 335.266 197.886 335.066 197.586C334.266 196.386 335.366 194.686 335.066 192.186C334.866 190.786 333.766 190.986 333.266 191.286C332.466 191.786 332.066 193.186 331.666 193.986C331.966 190.586 330.966 187.886 333.166 185.386C334.166 184.286 337.266 179.986 339.066 178.786L343.766 181.386Z" fill="#F0B186"/>
<path fill-rule="evenodd" clip-rule="evenodd" d="M336.866 136.086C336.366 135.786 335.666 135.586 334.966 135.486C328.666 134.886 326.666 143.186 327.566 147.786C328.166 150.586 329.966 152.786 333.166 154.086L352.366 159.886C348.466 165.286 344.366 172.686 337.566 179.586C337.866 182.086 343.266 188.186 345.566 185.686C352.466 178.086 364.266 166.486 367.666 160.586C368.366 159.286 368.466 158.186 368.166 157.286C368.066 156.886 367.966 156.586 367.866 156.086C367.266 154.186 362.866 150.686 359.166 148.886C352.766 145.986 344.166 139.686 336.866 136.086Z" fill="url(#paint12_linear)"/>
<path fill-rule="evenodd" clip-rule="evenodd" d="M391.867 372.486L436.567 347.186C441.467 344.986 448.467 343.186 453.367 345.786C457.867 348.086 465.367 352.886 468.667 354.786C471.167 356.186 479.867 361.386 474.467 364.286C458.567 372.886 442.767 382.586 426.567 391.286C423.467 392.986 419.067 393.486 414.367 393.186C409.667 392.786 404.867 391.486 401.167 389.286C398.467 387.686 395.867 386.186 393.267 384.686C389.767 382.686 387.867 380.286 387.667 378.086C387.467 375.886 388.867 373.886 391.867 372.486Z" fill="black" fill-opacity="0.03"/>
<path fill-rule="evenodd" clip-rule="evenodd" d="M427.067 250.786C427.567 249.486 429.067 249.386 429.267 249.986C430.367 253.286 435.567 253.586 440.967 253.686C441.267 253.686 445.167 254.186 444.067 255.286C439.367 259.986 426.467 258.086 427.067 250.786Z" fill="#0B3F64"/>
<path fill-rule="evenodd" clip-rule="evenodd" d="M412.066 186.686C404.266 190.486 402.466 195.886 404.666 205.186C404.966 206.486 404.466 207.686 403.666 208.686C404.366 210.086 404.966 211.286 405.266 212.486C406.166 216.186 406.166 218.586 407.466 220.486C411.966 226.586 415.766 223.786 418.766 228.686C422.866 235.386 420.866 238.886 423.966 242.686C429.366 249.186 433.366 248.486 438.066 246.286C441.766 244.486 448.066 248.086 453.166 242.886C456.466 239.586 455.566 235.586 456.766 233.286C458.266 230.486 460.366 229.786 461.766 228.586C466.166 224.986 466.166 217.386 461.966 213.386C458.366 213.386 454.766 213.186 454.566 210.786C454.266 205.986 453.766 200.886 448.366 199.186C444.566 197.986 439.666 199.286 437.066 195.786C434.366 192.086 432.366 189.486 429.166 187.386C424.866 184.286 419.166 183.286 412.066 186.686Z" fill="url(#paint13_linear)"/>
<path fill-rule="evenodd" clip-rule="evenodd" d="M408.766 192.886C406.566 194.386 405.066 197.986 405.266 201.186C405.466 204.986 404.766 205.886 404.066 207.286C403.866 207.686 403.666 208.086 403.566 208.486C403.566 208.486 403.566 208.586 403.666 208.586C404.366 210.086 405.066 211.386 405.366 212.586C406.266 216.286 406.266 218.686 407.566 220.586C412.066 226.686 415.866 223.886 418.866 228.786C422.366 234.386 421.466 237.786 422.966 240.986C427.666 241.386 428.466 248.486 437.766 243.986C441.766 241.986 438.866 237.886 444.866 236.386C448.766 235.386 449.466 233.086 449.066 230.886C447.766 223.286 443.866 227.486 442.466 222.186C441.066 216.886 436.166 217.986 435.766 216.786C435.366 215.786 435.366 212.586 428.766 213.186C425.766 213.486 422.966 212.586 423.166 210.286C423.466 207.086 420.766 205.586 420.366 205.486C418.766 204.986 417.766 206.286 416.866 205.686C416.866 205.686 412.566 199.686 411.866 198.786C410.066 196.586 408.966 194.986 408.766 192.886Z" fill="#48202D"/>
<path fill-rule="evenodd" clip-rule="evenodd" d="M454.466 279.586C453.566 280.586 447.466 282.586 440.566 283.186L443.566 291.686C451.266 289.886 454.466 287.586 460.166 289.886C463.966 291.386 463.866 291.986 465.566 294.886L470.066 293.586C470.066 293.586 470.966 290.087 470.866 289.787C470.666 289.387 463.766 282.187 463.566 281.787C460.766 275.987 457.466 275.586 454.466 279.586Z" fill="#F0B186"/>
<path fill-rule="evenodd" clip-rule="evenodd" d="M454.467 279.586C455.467 278.386 457.167 280.487 460.367 283.187C462.967 285.387 466.267 287.586 467.467 289.586C468.267 290.886 467.867 292.886 467.467 293.586C467.067 294.486 466.567 294.686 464.867 293.886C465.667 295.686 466.167 296.886 466.767 298.886C467.467 301.286 468.667 300.787 469.667 298.787C470.767 296.587 471.567 294.886 471.967 292.086C472.967 285.386 468.767 288.086 464.167 281.886C463.667 281.186 463.267 280.487 462.967 279.787C465.067 280.887 469.267 282.187 470.467 282.487L470.567 281.886C464.967 279.986 465.667 280.287 461.067 276.687L460.967 276.586C459.667 275.386 457.767 275.386 456.367 276.386C455.567 276.886 455.167 278.086 454.467 279.586Z" fill="#182E54"/>
<path fill-rule="evenodd" clip-rule="evenodd" d="M425.966 285.086C432.666 281.686 442.666 282.086 453.766 280.186C456.966 279.586 459.066 286.386 456.366 289.186L434.166 297.186C431.766 297.986 424.466 300.886 422.566 300.986C421.066 300.986 419.566 300.886 418.566 299.886C409.666 290.486 404.366 280.386 403.666 268.686C403.466 267.186 403.666 265.786 403.166 263.886L418.966 265.586C421.166 271.886 424.166 279.186 425.966 285.086Z" fill="url(#paint14_linear)"/>
<path fill-rule="evenodd" clip-rule="evenodd" d="M419.069 351.186C418.969 352.186 418.969 353.286 418.969 354.286C419.169 355.086 419.469 355.786 420.069 356.486C423.669 360.886 419.969 360.286 420.269 366.086C420.269 366.586 418.369 375.386 418.369 375.386C418.369 375.386 413.069 376.886 412.669 376.786C412.269 376.686 408.969 375.586 408.969 375.586C409.269 375.086 409.569 373.986 409.769 373.486C412.169 368.486 412.669 362.286 412.469 356.586L412.269 351.786L419.069 351.186Z" fill="#F0B186"/>
<path fill-rule="evenodd" clip-rule="evenodd" d="M410.568 371.886C409.968 372.886 409.368 374.386 408.868 375.586C408.168 376.986 407.868 377.986 407.568 379.086C407.368 379.686 407.468 380.186 407.668 380.486C408.968 382.186 415.368 379.086 417.468 377.186C418.868 375.986 418.868 374.486 419.168 372.786C419.668 370.186 419.768 369.886 420.368 367.086L421.068 374.486L421.968 374.886C422.068 371.886 422.168 367.886 422.668 365.286C422.868 364.286 423.168 363.086 423.168 362.486C423.468 359.186 421.768 357.486 420.268 356.586C420.868 358.586 419.368 361.886 418.668 366.086C417.968 370.486 415.568 375.186 413.668 375.586C412.868 375.786 411.068 374.786 410.168 374.186C409.768 374.086 410.168 372.786 410.568 371.886Z" fill="#182E54"/>
<path fill-rule="evenodd" clip-rule="evenodd" d="M437.368 279.286C436.468 292.586 427.268 298.986 422.068 309.186C421.068 311.186 420.268 312.686 419.768 314.086C419.468 315.586 420.568 316.386 421.668 321.586C423.168 328.886 421.568 346.186 420.468 356.586C420.568 359.686 414.468 361.986 412.368 359.986C411.568 348.086 409.368 328.486 407.068 316.986C406.668 314.986 406.368 313.686 406.268 312.386C406.268 311.186 406.368 309.886 406.968 308.486C409.168 297.286 411.368 289.986 416.768 280.086C413.668 273.686 411.368 267.586 409.468 260.386L410.768 257.486C419.568 259.886 424.768 258.186 428.468 263.086C430.968 266.386 437.868 271.086 437.368 279.286Z" fill="url(#paint15_linear)"/>
<path fill-rule="evenodd" clip-rule="evenodd" d="M371.068 236.686C374.068 235.886 372.768 230.486 371.068 230.286C369.868 230.286 369.268 237.186 371.068 236.686Z" fill="#1741A6"/>
<path fill-rule="evenodd" clip-rule="evenodd" d="M368.567 229.386C370.467 230.586 373.067 231.786 375.867 232.786C376.967 233.886 374.967 236.286 373.067 237.186C371.267 236.086 369.367 235.786 368.267 235.386L366.967 235.086C367.467 232.786 368.267 231.686 368.567 229.386Z" fill="#F0B186"/>
<path fill-rule="evenodd" clip-rule="evenodd" d="M359.768 231.687C359.768 229.487 360.168 227.486 360.468 227.386C361.668 227.086 365.468 227.687 368.068 228.987C370.568 230.287 371.468 232.087 370.968 233.687C370.768 234.487 370.068 234.687 369.268 235.287C367.968 236.287 367.368 236.287 366.668 236.187C365.468 236.187 360.968 232.187 359.768 231.687Z" fill="#F0B186"/>
<path fill-rule="evenodd" clip-rule="evenodd" d="M359.166 232.886C360.466 227.386 362.666 228.786 365.966 230.986C367.766 232.186 368.266 232.786 368.066 233.986C367.866 234.886 367.766 235.686 366.566 236.286C363.966 235.586 362.766 233.186 359.166 232.886Z" fill="#E7A376"/>
<path fill-rule="evenodd" clip-rule="evenodd" d="M370.466 230.886C369.966 230.186 368.866 228.786 367.866 227.886C367.466 227.586 365.866 227.586 363.666 226.486C362.866 228.586 365.066 228.686 366.566 229.986C367.166 230.486 367.566 232.686 369.366 233.086C370.566 233.386 371.166 231.886 370.466 230.886Z" fill="#F0B186"/>
<path fill-rule="evenodd" clip-rule="evenodd" d="M367.266 229.086C366.866 228.786 363.966 228.286 363.666 226.486C362.866 228.586 365.366 228.786 366.766 229.786C367.466 230.286 367.566 232.786 369.266 233.086C367.466 231.286 367.266 229.186 367.266 229.086Z" fill="#E7A376"/>
<path fill-rule="evenodd" clip-rule="evenodd" d="M360.367 227.486C360.367 227.486 360.267 227.386 360.067 227.486C359.467 227.786 357.667 229.086 356.967 229.586C355.967 230.186 355.967 230.286 355.967 231.186L356.267 232.786C356.467 233.786 356.567 233.686 357.367 234.386C357.867 234.786 358.267 234.986 358.667 234.886C358.867 234.786 362.167 232.986 362.367 232.686C362.467 232.486 360.767 232.386 360.267 231.086C359.767 229.886 360.367 227.486 360.367 227.486Z" fill="#E7A376"/>
<path fill-rule="evenodd" clip-rule="evenodd" d="M360.466 227.386C360.166 227.386 359.666 227.686 359.566 227.886C359.366 228.186 359.366 228.986 359.566 229.886C359.766 231.086 359.666 231.486 360.466 232.286C361.366 233.086 361.966 233.286 362.566 232.386C362.766 232.086 362.266 231.686 361.766 230.486V229.486C362.166 229.286 364.166 229.586 365.366 229.986C365.766 229.886 364.066 227.886 363.166 227.386C362.366 227.386 361.366 227.386 360.466 227.386Z" fill="#F0B186"/>
<path fill-rule="evenodd" clip-rule="evenodd" d="M359.067 228.486C359.067 230.186 359.067 230.986 359.467 231.686C359.767 232.186 360.267 232.686 361.167 233.286C360.467 233.686 359.267 234.386 358.567 234.686C357.667 234.186 357.167 233.786 356.867 233.386C356.367 232.686 356.367 231.586 356.367 230.986C356.367 230.486 356.467 230.286 356.767 229.986C357.267 229.586 358.567 228.786 359.067 228.486Z" fill="#F0B186"/>
<path fill-rule="evenodd" clip-rule="evenodd" d="M394.766 246.186C395.666 246.286 396.566 245.986 397.366 245.186C401.266 238.886 406.566 232.286 408.266 227.586C409.966 223.186 410.466 218.186 408.366 216.086C407.166 214.886 404.666 213.286 402.766 214.886C398.766 218.186 395.166 229.686 392.166 236.386C386.766 234.186 377.366 233.086 371.066 230.286C372.466 232.386 371.866 235.386 370.666 236.686C375.366 238.786 380.766 243.286 387.566 244.586C389.866 245.286 391.966 245.686 393.666 245.986C394.166 246.086 394.466 246.186 394.766 246.186Z" fill="url(#paint16_linear)"/>
<path fill-rule="evenodd" clip-rule="evenodd" d="M403.166 263.786C403.266 261.386 403.966 259.186 404.066 257.086C404.066 256.086 404.066 255.186 403.866 254.286C403.366 251.386 401.966 248.786 401.766 245.286C401.666 244.086 401.566 242.786 401.566 241.486C401.366 238.486 401.266 235.386 401.166 232.586C400.766 228.086 400.166 218.586 402.066 215.586C402.666 214.686 404.166 213.586 405.766 213.186C406.966 212.886 411.166 212.786 411.966 212.986C417.866 214.386 424.766 216.886 431.366 222.886C434.666 225.986 432.966 235.586 431.566 239.486C430.466 242.986 429.166 246.386 428.366 248.886C427.166 252.686 426.466 257.686 427.566 260.686C428.466 262.486 429.966 264.086 430.766 265.386C431.466 271.786 404.966 274.586 403.166 263.786Z" fill="url(#paint17_linear)"/>
<path fill-rule="evenodd" clip-rule="evenodd" d="M412.767 214.086C406.467 222.286 403.167 228.186 402.167 234.986C401.367 240.086 401.167 245.686 403.667 253.386C402.467 250.786 401.167 246.786 399.667 242.486C398.567 239.186 397.167 235.686 397.367 232.186C397.467 229.286 399.567 225.786 400.267 223.186C401.067 220.086 400.667 216.286 403.267 214.486C405.867 212.486 408.667 211.886 412.767 214.086Z" fill="url(#paint18_linear)"/>
<path fill-rule="evenodd" clip-rule="evenodd" d="M420.066 208.786C419.466 212.286 419.766 215.686 420.866 219.086C417.966 221.786 412.866 220.586 411.666 218.186C411.966 216.586 412.166 215.186 412.366 213.586L420.066 208.786Z" fill="#E7A376"/>
<path fill-rule="evenodd" clip-rule="evenodd" d="M408.167 193.886C406.767 196.186 405.967 198.486 406.267 201.686C406.367 202.486 406.267 202.986 405.967 203.586C404.667 206.586 404.767 207.586 405.367 209.986C405.967 212.386 405.967 213.586 406.767 214.386C407.567 215.186 408.867 215.386 409.867 215.486C412.067 215.586 415.667 214.186 417.867 212.986C419.467 212.086 419.367 211.486 420.067 209.986C422.267 207.986 420.867 206.586 420.067 206.486C417.867 206.086 417.567 208.586 416.267 209.086C416.667 204.786 408.267 197.386 408.167 193.886Z" fill="#F0B186"/>
<path fill-rule="evenodd" clip-rule="evenodd" d="M408.167 193.886C409.367 199.286 416.367 203.286 416.467 209.186C414.467 203.086 407.667 198.886 408.167 193.886Z" fill="#E7A376"/>
<path fill-rule="evenodd" clip-rule="evenodd" d="M446.267 256.786C440.067 256.086 425.767 258.586 430.167 245.086C431.467 241.186 432.767 236.886 433.167 233.486C433.667 229.586 433.467 225.986 432.467 222.986C431.167 219.186 427.967 219.686 425.467 218.086C423.467 216.886 421.967 216.186 420.067 215.286C420.967 219.586 418.167 228.286 418.767 237.086C419.867 252.786 422.867 261.286 429.067 265.086C442.067 273.186 459.567 258.186 446.267 256.786Z" fill="url(#paint19_linear)"/>
<path fill-rule="evenodd" clip-rule="evenodd" d="M444.867 262.087C446.067 260.587 447.167 259.787 448.567 258.587C450.167 257.287 453.867 258.087 454.367 259.987C454.267 260.387 453.967 261.087 453.467 261.787L450.967 264.387C448.767 263.687 446.967 262.987 444.867 262.087Z" fill="#E7A376"/>
<path fill-rule="evenodd" clip-rule="evenodd" d="M453.168 248.186C452.768 249.286 452.368 250.386 452.068 251.386C451.068 254.286 450.768 259.186 451.268 261.086C451.368 261.586 451.468 261.986 451.768 261.986C452.368 261.986 454.168 259.386 454.268 260.086C454.068 260.886 453.668 261.586 453.368 261.986C453.168 262.286 452.968 262.486 452.668 262.786L450.868 264.686C448.968 264.086 446.568 263.186 444.668 262.586C444.468 260.086 444.168 257.286 444.168 255.286C445.168 253.186 446.468 251.686 447.268 249.686L448.068 247.286L453.168 248.186Z" fill="#F0B186"/>
<path fill-rule="evenodd" clip-rule="evenodd" d="M428.767 220.186C421.167 221.086 425.767 234.686 430.867 234.186L449.667 232.186C448.967 236.786 449.867 242.386 447.367 249.186C448.367 250.486 451.867 251.086 452.767 250.486C455.267 243.086 459.467 232.886 460.067 227.886C460.167 226.686 459.867 225.686 459.067 225.186C458.867 225.086 458.667 224.886 458.467 224.786C456.967 223.986 453.967 222.886 450.767 222.786C445.367 222.586 434.467 219.486 428.767 220.186Z" fill="url(#paint20_linear)"/>
<path fill-rule="evenodd" clip-rule="evenodd" d="M230.866 236.486C212.466 261.186 167.266 264.686 163.466 284.486C162.766 287.986 163.166 300.086 164.166 303.086C164.166 290.986 166.966 287.786 170.166 284.886C187.066 269.786 211.766 273.986 231.066 250.686L230.866 236.486Z" fill="url(#paint21_linear)"/>
<path fill-rule="evenodd" clip-rule="evenodd" d="M166.465 407.786L212.265 381.886C217.265 379.586 224.365 377.786 229.465 380.486C234.065 382.886 241.765 387.786 245.165 389.686C247.765 391.186 256.665 396.386 251.065 399.386C234.765 408.186 218.565 418.086 202.065 427.086C198.965 428.786 194.365 429.386 189.565 428.986C184.765 428.586 179.865 427.186 175.965 424.986C173.165 423.386 170.465 421.786 167.865 420.286C164.265 418.186 162.365 415.786 162.165 413.486C161.965 411.186 163.365 409.186 166.465 407.786Z" fill="black" fill-opacity="0.03"/>
<path fill-rule="evenodd" clip-rule="evenodd" d="M145.666 169.286C144.366 168.386 143.266 167.486 141.966 166.486C141.066 165.686 140.366 165.086 140.066 164.486C139.866 163.986 140.166 163.586 140.366 163.486C140.866 163.186 141.766 163.686 142.566 164.386C143.966 165.486 145.166 166.186 146.766 167.186C145.666 166.186 143.766 164.786 142.566 163.786C141.666 162.986 141.766 162.186 142.166 161.986C143.066 161.186 144.566 162.686 145.166 163.186C146.266 164.086 147.166 164.786 148.066 165.586C148.366 165.886 150.166 167.686 149.066 166.086C148.066 164.686 146.466 162.486 146.166 161.486C145.966 160.886 146.266 160.486 146.466 160.386C146.966 160.186 147.766 160.586 148.466 161.386C149.766 162.886 151.366 165.086 151.866 165.686C152.166 166.086 152.566 166.686 153.066 167.286C154.266 168.786 155.866 170.486 157.466 170.286C158.066 170.186 158.566 169.686 159.466 169.186C160.866 168.386 162.066 167.986 163.366 169.186C162.066 170.486 160.366 171.086 159.066 173.386C158.566 175.386 156.866 176.886 156.866 177.686C156.866 178.186 156.966 178.686 157.266 179.886L152.866 182.686L150.666 182.386C150.666 181.886 150.466 180.786 150.166 179.886C148.966 178.586 148.066 176.286 147.166 174.286C146.766 173.286 146.366 172.686 145.866 172.186C144.566 170.886 140.966 169.586 140.266 168.186C140.066 167.686 140.066 167.286 140.266 167.086C140.866 166.686 142.266 167.586 143.466 168.386C144.066 168.786 144.866 169.086 145.666 169.286Z" fill="#F0B186"/>
<path fill-rule="evenodd" clip-rule="evenodd" d="M166.965 245.686L151.366 218.186C150.766 208.886 149.865 198.586 149.265 189.286C149.065 186.086 149.265 186.886 150.065 183.786L149.965 180.786C153.265 181.486 157.066 178.586 157.366 177.186L157.866 180.086C159.966 183.186 159.665 183.086 160.065 186.686L163.565 212.786L179.366 235.886C186.766 247.586 172.665 254.786 166.965 245.686Z" fill="url(#paint22_linear)"/>
<path fill-rule="evenodd" clip-rule="evenodd" d="M192.565 392.887C193.665 395.487 194.365 398.487 194.465 400.387C194.765 404.187 193.665 407.987 192.165 413.687C191.465 416.387 192.065 417.887 194.765 417.487C196.865 417.187 199.665 413.687 201.365 411.387C204.565 407.087 204.165 403.387 205.065 401.587L206.265 400.987C207.165 400.287 209.365 396.187 209.265 394.787C208.765 393.887 207.965 392.387 207.265 391.287C204.565 387.787 203.865 388.587 200.765 386.687C197.765 389.487 195.465 390.287 192.565 392.887Z" fill="#04304F"/>
<path fill-rule="evenodd" clip-rule="evenodd" d="M167.065 302.486C163.965 312.586 159.465 335.186 158.965 345.486C158.865 348.486 160.565 352.186 162.365 354.586C169.765 364.986 189.865 391.686 192.065 393.886C197.265 395.786 201.365 390.886 201.165 385.686C194.265 379.186 183.065 348.386 174.665 345.586C177.465 336.486 184.265 314.086 185.465 305.886L176.765 304.386L167.065 297.886C166.865 298.386 167.065 300.786 167.065 302.486Z" fill="url(#paint23_linear)"/>
<path fill-rule="evenodd" clip-rule="evenodd" d="M217.666 349.386L217.166 348.286L217.266 343.386C217.566 338.386 220.266 337.586 222.966 336.986C224.766 336.586 226.766 337.086 227.966 338.386C229.566 340.286 229.866 343.486 229.266 345.086C228.566 346.986 228.366 348.386 228.866 349.886C230.266 354.286 229.866 358.086 228.366 360.486C227.266 362.386 223.266 365.886 220.466 365.286C219.166 364.986 219.466 363.486 219.466 362.486C219.666 357.586 218.566 353.986 217.666 349.386Z" fill="#04304F"/>
<path fill-rule="evenodd" clip-rule="evenodd" d="M170.965 296.186C171.265 299.786 172.965 310.786 174.565 316.586C173.965 320.386 170.465 338.086 170.165 345.386C169.965 349.586 170.565 353.086 172.665 354.386C175.965 357.186 180.865 355.286 183.765 354.886C193.965 353.586 209.765 350.586 219.365 349.186C226.365 348.186 223.765 338.186 220.465 337.786C214.165 337.986 206.965 335.786 200.465 335.586C197.265 335.486 191.765 337.586 187.565 339.586C189.065 336.686 191.765 329.586 193.165 326.986C202.665 309.486 196.165 304.386 192.365 295.786C180.865 306.286 185.165 304.686 170.965 296.186Z" fill="url(#paint24_linear)"/>
<path fill-rule="evenodd" clip-rule="evenodd" d="M201.666 247.586C197.566 245.286 183.566 236.386 179.366 236.986C174.666 237.686 171.666 239.986 169.866 243.486C167.466 248.186 166.066 254.886 166.666 263.486C167.566 277.386 167.366 273.786 166.266 287.886C165.966 292.286 167.266 293.486 166.966 296.886C167.066 298.386 166.966 299.686 166.966 300.686C174.766 310.586 195.766 309.986 197.866 301.286L197.666 299.386C201.066 294.586 201.566 284.986 203.666 277.486C205.866 269.586 208.666 261.586 208.666 256.486C208.566 252.086 204.866 249.386 201.666 247.586Z" fill="url(#paint25_linear)"/>
<path fill-rule="evenodd" clip-rule="evenodd" d="M273.166 235.786C274.766 235.986 276.166 236.086 277.866 236.286C279.066 236.286 280.066 236.286 280.566 236.086C281.066 235.886 281.066 235.386 281.066 235.086C280.866 234.486 279.866 234.286 278.866 234.286C277.066 234.186 275.666 233.886 273.866 233.486C275.466 233.486 277.766 233.786 279.266 233.786C280.466 233.786 280.866 233.186 280.866 232.686C280.766 231.586 278.666 231.586 277.766 231.586C276.266 231.486 275.266 231.386 273.966 231.386C273.566 231.386 271.066 231.486 272.966 231.086C274.666 230.686 277.366 230.186 278.266 229.686C278.866 229.386 278.866 228.886 278.766 228.686C278.566 228.186 277.666 227.986 276.566 228.086C274.666 228.286 271.866 228.786 271.166 228.986C270.566 229.086 269.966 229.186 269.266 229.286C267.366 229.586 265.066 229.786 263.966 228.486C263.566 227.986 263.566 227.286 263.266 226.386C262.766 224.886 262.166 223.686 260.366 223.686C260.466 225.486 261.266 227.186 260.666 229.686C259.666 231.486 259.866 233.686 259.366 234.386C259.066 234.786 258.566 234.986 257.666 235.686L258.966 240.786L260.866 242.086C261.266 241.686 262.066 241.086 262.966 240.586C264.766 240.486 266.966 239.386 268.966 238.486C269.966 238.086 270.666 237.886 271.366 237.886C273.266 237.786 276.766 239.286 278.266 238.786C278.766 238.586 279.066 238.286 278.966 237.886C278.766 237.186 277.166 236.986 275.766 236.686C274.666 236.486 273.866 236.186 273.166 235.786Z" fill="#F0B186"/>
<path fill-rule="evenodd" clip-rule="evenodd" d="M208.367 249.686L230.267 250.086L249.767 238.386C252.667 236.686 252.867 235.886 256.167 235.986L258.867 234.486C257.867 236.586 260.367 240.686 261.567 241.386L259.267 243.186C258.267 245.186 258.367 244.986 256.567 246.286L234.267 262.286L210.867 266.786C205.467 267.586 198.567 267.786 197.767 260.186C196.867 251.586 201.767 249.686 208.367 249.686Z" fill="url(#paint26_linear)"/>
<path fill-rule="evenodd" clip-rule="evenodd" d="M178.366 251.886C173.166 257.686 174.066 261.086 175.066 266.586C176.066 272.586 172.866 278.286 169.966 284.586C167.966 286.086 164.866 287.386 162.266 287.986C163.066 283.686 162.966 281.886 162.966 279.286C165.766 276.586 167.866 272.786 168.266 269.686C169.166 263.586 167.766 257.586 176.966 250.786C177.366 248.186 177.866 247.886 178.466 247.786C179.166 247.686 178.666 247.386 180.266 248.386C181.266 249.086 182.366 249.786 181.566 250.786C181.066 251.586 180.466 251.786 178.366 251.886Z" fill="#00ADEE"/>
<path fill-rule="evenodd" clip-rule="evenodd" d="M192.066 243.486C192.366 247.086 181.566 252.586 180.366 248.586C179.566 246.186 180.166 238.486 179.266 235.186L188.566 230.586L191.966 229.186C190.866 234.786 190.066 238.786 192.066 243.486Z" fill="#E7A376"/>
<path fill-rule="evenodd" clip-rule="evenodd" d="M180.366 248.486C179.966 247.386 180.066 244.486 179.766 242.986C178.466 243.186 176.766 247.486 175.666 249.786C177.366 248.586 178.466 248.486 180.366 248.486Z" fill="#DAEAFA"/>
<path fill-rule="evenodd" clip-rule="evenodd" d="M191.265 241.086C191.465 244.086 184.265 247.486 179.865 248.486C180.965 249.786 182.365 251.486 182.365 252.786C185.565 251.886 191.265 249.986 193.465 245.986C194.965 243.286 192.765 242.186 191.265 241.086Z" fill="#DAEAFA"/>
<path fill-rule="evenodd" clip-rule="evenodd" d="M180.965 218.086C178.965 218.786 178.365 220.586 177.965 223.486C179.065 222.086 179.265 221.486 180.565 220.286L180.965 218.086Z" fill="#38251B"/>
<path fill-rule="evenodd" clip-rule="evenodd" d="M180.766 240.686C182.166 240.386 185.566 239.886 186.866 239.586C189.666 238.786 190.266 236.686 192.166 233.686C194.766 232.986 195.966 232.086 196.666 230.886C198.366 227.886 197.866 223.786 196.166 221.086C194.666 218.686 192.466 217.286 189.466 216.786C183.766 215.886 180.366 217.786 178.366 222.286C178.166 222.686 177.766 224.286 177.666 224.686C177.566 225.686 177.766 225.986 177.666 226.686C177.566 227.186 177.366 227.586 176.866 228.186C175.766 229.486 174.966 237.386 175.766 238.586C176.666 239.686 178.466 240.886 180.766 240.686Z" fill="#F0B186"/>
<path fill-rule="evenodd" clip-rule="evenodd" d="M183.066 223.186C184.566 222.886 190.166 221.786 192.666 221.186C195.166 220.586 197.966 219.986 199.366 221.886C200.366 224.286 199.766 227.986 198.866 229.786C197.566 232.486 194.966 234.386 191.766 236.286C190.566 236.986 191.866 232.986 191.766 232.086C190.866 233.386 190.166 233.786 189.666 233.786C189.366 233.786 188.866 233.886 189.466 232.086C190.266 229.286 189.066 228.486 190.266 226.886C191.166 225.586 190.166 225.486 190.066 224.786C187.966 224.286 185.766 224.786 183.066 223.186Z" fill="url(#paint27_linear)"/>
<path fill-rule="evenodd" clip-rule="evenodd" d="M193.265 230.786C195.565 230.686 194.965 233.086 194.165 234.486C193.665 235.486 192.865 235.186 192.265 235.886C191.665 236.786 190.765 236.986 190.165 236.786C188.865 236.386 190.265 234.686 190.565 233.986C190.865 232.686 191.865 230.886 193.265 230.786Z" fill="#F0B186"/>
<path fill-rule="evenodd" clip-rule="evenodd" d="M180.765 213.286C181.765 214.186 183.165 213.486 188.065 213.186C193.165 212.886 199.565 215.786 199.365 221.586C199.365 221.786 199.365 221.886 199.365 222.086C197.665 222.086 195.165 223.186 192.465 223.786C188.765 224.586 184.665 224.786 182.165 223.286C178.965 221.286 177.065 216.086 180.765 213.286Z" fill="url(#paint28_linear)"/>
<path fill-rule="evenodd" clip-rule="evenodd" d="M163.265 286.186C162.465 289.386 163.165 301.386 163.965 303.786C169.665 321.586 208.765 318.786 221.865 319.086C233.465 319.286 239.865 320.886 243.965 322.986C253.065 327.686 263.265 337.986 283.465 341.386V330.586C263.265 327.286 252.965 316.886 243.965 312.186C239.865 310.086 233.465 308.586 221.865 308.286C209.465 308.086 173.465 310.586 165.065 295.486C163.365 292.686 162.965 289.286 163.265 286.186Z" fill="url(#paint29_linear)"/>
<defs>
<linearGradient id="paint0_linear" x1="509.563" y1="35.6342" x2="50.5062" y2="367.083" gradientUnits="userSpaceOnUse">
<stop stop-color="white"/>
<stop offset="0.765425" stop-color="#D9EFFB"/>
</linearGradient>
<linearGradient id="paint1_linear" x1="262.89" y1="156.636" x2="306.167" y2="136.521" gradientUnits="userSpaceOnUse">
<stop stop-color="#105B91"/>
<stop offset="1" stop-color="#0A3C5F"/>
</linearGradient>
<linearGradient id="paint2_linear" x1="332.101" y1="219.022" x2="292.614" y2="209.794" gradientUnits="userSpaceOnUse">
<stop stop-color="#072C47"/>
<stop offset="1" stop-color="#104E7A"/>
</linearGradient>
<linearGradient id="paint3_linear" x1="293.032" y1="238.976" x2="307.937" y2="247.207" gradientUnits="userSpaceOnUse">
<stop stop-color="#105B91"/>
<stop offset="1" stop-color="#0A3C5F"/>
</linearGradient>
<linearGradient id="paint4_linear" x1="341.296" y1="196.448" x2="324.465" y2="149.326" gradientUnits="userSpaceOnUse">
<stop stop-color="#105B91"/>
<stop offset="1" stop-color="#0A3C5F"/>
</linearGradient>
<linearGradient id="paint5_linear" x1="311.001" y1="173.027" x2="303.362" y2="142.25" gradientUnits="userSpaceOnUse">
<stop stop-color="#105B91"/>
<stop offset="1" stop-color="#0A3C5F"/>
</linearGradient>
<linearGradient id="paint6_linear" x1="311.701" y1="137.823" x2="291.956" y2="177.249" gradientUnits="userSpaceOnUse">
<stop stop-color="#00ADEE"/>
<stop offset="1" stop-color="#00ADEE"/>
</linearGradient>
<linearGradient id="paint7_linear" x1="319.165" y1="104.66" x2="321.986" y2="112.267" gradientUnits="userSpaceOnUse">
<stop stop-color="#38251B"/>
<stop offset="1" stop-color="#1C120D"/>
</linearGradient>
<linearGradient id="paint8_linear" x1="313.938" y1="99.7393" x2="321.481" y2="103.849" gradientUnits="userSpaceOnUse">
<stop stop-color="#4D3529"/>
<stop offset="1" stop-color="#38251B"/>
</linearGradient>
<linearGradient id="paint9_linear" x1="345.777" y1="219.496" x2="343.78" y2="213.149" gradientUnits="userSpaceOnUse">
<stop stop-color="#1399CB"/>
<stop offset="1" stop-color="#178EBB"/>
</linearGradient>
<linearGradient id="paint10_linear" x1="291.546" y1="209.939" x2="329.66" y2="218.985" gradientUnits="userSpaceOnUse">
<stop stop-color="#31ADCC"/>
<stop offset="1" stop-color="#00ADEE"/>
</linearGradient>
<linearGradient id="paint11_linear" x1="341.243" y1="201.141" x2="345.595" y2="209.183" gradientUnits="userSpaceOnUse">
<stop stop-color="#5EC3E9"/>
<stop offset="1" stop-color="#00ADEE"/>
</linearGradient>
<linearGradient id="paint12_linear" x1="356.783" y1="182.238" x2="344.091" y2="139.977" gradientUnits="userSpaceOnUse">
<stop stop-color="#105B91"/>
<stop offset="1" stop-color="#0A3C5F"/>
</linearGradient>
<linearGradient id="paint13_linear" x1="415.883" y1="201.204" x2="445.247" y2="228.977" gradientUnits="userSpaceOnUse">
<stop stop-color="#2D1226"/>
<stop offset="1" stop-color="#48202D"/>
</linearGradient>
<linearGradient id="paint14_linear" x1="442.492" y1="287.172" x2="396.17" y2="279.163" gradientUnits="userSpaceOnUse">
<stop stop-color="#072C47"/>
<stop offset="1" stop-color="#104E7A"/>
</linearGradient>
<linearGradient id="paint15_linear" x1="405.628" y1="304.674" x2="419.445" y2="310.481" gradientUnits="userSpaceOnUse">
<stop stop-color="#105B91"/>
<stop offset="1" stop-color="#0A3C5F"/>
</linearGradient>
<linearGradient id="paint16_linear" x1="378.499" y1="222.168" x2="405.497" y2="233.528" gradientUnits="userSpaceOnUse">
<stop stop-color="#105B91"/>
<stop offset="1" stop-color="#0A3C5F"/>
</linearGradient>
<linearGradient id="paint17_linear" x1="412.812" y1="227.28" x2="424.978" y2="267.939" gradientUnits="userSpaceOnUse">
<stop stop-color="#D5E6F8"/>
<stop offset="1" stop-color="#B5CDE6"/>
</linearGradient>
<linearGradient id="paint18_linear" x1="403.511" y1="227.396" x2="415.23" y2="243.259" gradientUnits="userSpaceOnUse">
<stop stop-color="#105B91"/>
<stop offset="1" stop-color="#0A3C5F"/>
</linearGradient>
<linearGradient id="paint19_linear" x1="420.573" y1="235.232" x2="450.228" y2="259.793" gradientUnits="userSpaceOnUse">
<stop stop-color="#105B91"/>
<stop offset="1" stop-color="#0A3C5F"/>
</linearGradient>
<linearGradient id="paint20_linear" x1="428.402" y1="226.192" x2="457.385" y2="239.115" gradientUnits="userSpaceOnUse">
<stop stop-color="#105B91"/>
<stop offset="1" stop-color="#0A3C5F"/>
</linearGradient>
<linearGradient id="paint21_linear" x1="239.526" y1="211.823" x2="182.308" y2="285.586" gradientUnits="userSpaceOnUse">
<stop stop-color="#FDD248"/>
<stop offset="1" stop-color="#EDA829"/>
</linearGradient>
<linearGradient id="paint22_linear" x1="168.482" y1="242.735" x2="158.896" y2="181.878" gradientUnits="userSpaceOnUse">
<stop stop-color="#D5E6F8"/>
<stop offset="1" stop-color="#B5CDE6"/>
</linearGradient>
<linearGradient id="paint23_linear" x1="182.287" y1="383.802" x2="171.736" y2="298.454" gradientUnits="userSpaceOnUse">
<stop stop-color="#072C47"/>
<stop offset="1" stop-color="#104E7A"/>
</linearGradient>
<linearGradient id="paint24_linear" x1="179.565" y1="306.706" x2="199.512" y2="351.816" gradientUnits="userSpaceOnUse">
<stop stop-color="#105B91"/>
<stop offset="1" stop-color="#0A3C5F"/>
</linearGradient>
<linearGradient id="paint25_linear" x1="181.525" y1="253.619" x2="188.833" y2="282.468" gradientUnits="userSpaceOnUse">
<stop stop-color="#D5E6F8"/>
<stop offset="1" stop-color="#B5CDE6"/>
</linearGradient>
<linearGradient id="paint26_linear" x1="202.148" y1="242.518" x2="244.955" y2="254.622" gradientUnits="userSpaceOnUse">
<stop stop-color="#D5E6F8"/>
<stop offset="1" stop-color="#B5CDE6"/>
</linearGradient>
<linearGradient id="paint27_linear" x1="191.641" y1="224.669" x2="192.568" y2="230.863" gradientUnits="userSpaceOnUse">
<stop stop-color="#38251B"/>
<stop offset="1" stop-color="#1C120D"/>
</linearGradient>
<linearGradient id="paint28_linear" x1="188.168" y1="215.722" x2="190.429" y2="224.2" gradientUnits="userSpaceOnUse">
<stop stop-color="#4D3529"/>
<stop offset="1" stop-color="#38251B"/>
</linearGradient>
<linearGradient id="paint29_linear" x1="267.247" y1="320.731" x2="161.936" y2="304.103" gradientUnits="userSpaceOnUse">
<stop stop-color="#FDD248"/>
<stop offset="1" stop-color="#FABD23"/>
</linearGradient>
</defs>
</svg>
