<svg width="272" height="253" viewBox="0 0 272 253" fill="none" xmlns="http://www.w3.org/2000/svg">
<g clip-path="url(#clip0)">
<rect width="272" height="253" fill="white"/>
<path d="M55.0052 7.5915C88.3613 -11.5836 150.644 22.7646 177.616 42.3356C278.805 107.589 245.98 159.133 216.795 186.759C202.366 200.417 189.924 215.418 115.035 241.747C40.1457 268.076 13.3354 214.696 9.29146 184.715C-1.63659 126.529 13.3099 31.5604 55.0052 7.5915Z" fill="url(#paint0_linear)"/>
<path opacity="0.17" d="M185.898 156.225C176.172 153.336 165.814 154.93 162.774 159.793C162.352 160.46 162.104 161.166 161.993 161.872L138.783 154.97L118.909 149.061C110.313 132.839 77.6373 95.5305 67.3533 92.354L99.9542 139.741L99.2719 141.845L104.284 141.819L21.3672 116.119C26.2424 122.629 82.8723 149.479 108.452 154.617L118.574 168.682L128.821 182.918C127.63 182.944 126.452 183.062 125.311 183.271C117.024 184.813 113.798 190.905 118.091 196.879C122.383 202.84 132.58 206.435 140.867 204.879C149.153 203.337 152.379 197.245 148.086 191.271C146.635 189.258 144.514 187.519 142.033 186.16H142.144C142.144 186.16 130.037 176.199 123.822 167.114C120.993 162.996 119.393 159.061 120.671 156.316C120.795 156.042 120.882 155.715 120.907 155.362C125.186 155.388 130.471 156.46 135.905 158.002C150.729 162.212 166.694 169.99 166.694 169.99V169.924C168.84 171.48 171.619 172.839 174.907 173.82C184.632 176.709 194.991 175.114 198.017 170.251C201.057 165.401 195.623 159.114 185.898 156.225ZM144.166 192.003C147.342 196.408 144.948 200.905 138.832 202.056C132.716 203.193 125.186 200.552 122.011 196.147C118.835 191.742 121.229 187.245 127.345 186.108C133.461 184.944 140.991 187.598 144.166 192.003ZM193.403 168.892C191.157 172.473 183.516 173.663 176.333 171.519C169.151 169.388 165.144 164.748 167.389 161.153C169.634 157.571 177.276 156.381 184.459 158.525C191.641 160.656 195.648 165.297 193.403 168.892Z" fill="#163891"/>
<path opacity="0.17" d="M48.6086 119.074C62.8112 119.074 74.3246 112.068 74.3246 103.426C74.3246 94.7844 62.8112 87.7788 48.6086 87.7788C34.406 87.7788 22.8926 94.7844 22.8926 103.426C22.8926 112.068 34.406 119.074 48.6086 119.074Z" fill="#163891"/>
<path d="M26.8379 100.21L26.9619 104.851L29.2569 106.655L29.0956 100.59L26.8379 100.21Z" fill="url(#paint1_linear)"/>
<path d="M70.3783 99.165L70.5023 103.793L67.7856 106.603L67.1777 99.6618L70.3783 99.165Z" fill="url(#paint2_linear)"/>
<path d="M63.8779 94.6155C55.2439 89.7004 41.4617 90.1056 33.1006 95.5305C24.7395 100.955 24.9628 109.335 33.5968 114.263C42.2308 119.178 56.013 118.773 64.3741 113.348C72.7353 107.923 72.512 99.5306 63.8779 94.6155Z" fill="url(#paint3_linear)"/>
<path d="M63.7549 90.0012C72.3889 94.9164 72.6122 103.309 64.2511 108.734C55.89 114.159 42.1078 114.564 33.4737 109.649C24.8397 104.734 24.6164 96.3412 32.9775 90.9163C41.3387 85.4783 55.1209 85.073 63.7549 90.0012Z" fill="url(#paint4_linear)"/>
<path d="M63.2202 90.3409C71.5565 95.0861 71.7674 103.178 63.704 108.407C55.6406 113.635 42.3422 114.028 34.0059 109.282C25.6696 104.537 25.4587 96.4456 33.5221 91.2167C41.5855 85.9879 54.8839 85.5957 63.2202 90.3409Z" fill="url(#paint5_linear)"/>
<path opacity="0.82" d="M61.3226 91.5697C68.5672 95.7005 68.7657 102.733 61.7443 107.282C54.723 111.832 43.1613 112.171 35.9167 108.054C28.672 103.923 28.4736 96.8901 35.4949 92.3409C42.5039 87.7918 54.0655 87.4519 61.3226 91.5697Z" fill="url(#paint6_linear)"/>
<path opacity="0.82" d="M35.8057 92.5241C42.7774 88.0011 54.2274 87.6351 61.4845 91.6744C61.4349 91.6482 61.3852 91.609 61.3232 91.5829C54.0786 87.4521 42.5045 87.7919 35.4955 92.3541C28.4742 96.9032 28.6603 103.936 35.9173 108.067C35.9669 108.093 36.029 108.119 36.0786 108.158C28.9704 104.001 28.8339 97.034 35.8057 92.5241Z" fill="white"/>
<path opacity="0.59" d="M59.9465 92.4585C66.4096 96.1449 66.5833 102.42 60.3187 106.485C54.054 110.55 43.7329 110.851 37.2698 107.165C30.8067 103.478 30.633 97.2037 36.8976 93.1383C43.1623 89.0859 53.4834 88.7853 59.9465 92.4585Z" fill="url(#paint7_linear)"/>
<path opacity="0.82" d="M52.7031 97.9097L52.7279 98.6417L53.7824 99.1385L53.5963 98.1973L52.7031 97.9097Z" fill="#FAA925"/>
<path d="M58.6564 94.1714L58.6812 94.9034L57.9617 95.3609L57.4531 94.9557L58.6564 94.1714Z" fill="#FAA925"/>
<g opacity="0.82">
<path opacity="0.82" d="M38.5352 105.675L40.061 104.694C38.8949 103.845 38.4111 103.008 38.5972 102.211C38.7833 101.4 39.5896 100.537 41.0162 99.6224L41.5744 99.2563L45.2216 101.348L44.7998 101.622C43.7453 102.302 43.5593 102.825 44.2043 103.204C44.4773 103.361 44.7998 103.413 45.1595 103.374C45.5193 103.335 45.8666 103.204 46.2016 102.982C46.4373 102.825 46.5737 102.472 46.611 101.923L46.5489 98.289C46.5241 96.9556 47.1444 95.8837 48.3973 95.0732C49.3153 94.485 50.4318 94.1321 51.7591 94.0536C53.0865 93.9621 54.3642 94.1713 55.6171 94.668L56.8577 93.8706L58.6688 94.9164L57.4655 95.6876C58.4827 96.4458 58.9169 97.2694 58.7557 98.1452C58.6068 99.021 57.8377 99.9099 56.4607 100.799L52.7143 98.655L53.5579 98.0798C53.7315 97.9491 53.806 97.7923 53.7812 97.5962C53.7439 97.4132 53.6323 97.2563 53.409 97.1256C53.1609 96.9818 52.888 96.9164 52.5655 96.9033C52.2429 96.9033 51.97 96.9687 51.7343 97.1256C51.387 97.3478 51.2381 97.8707 51.2629 98.6942L51.3746 102.198C51.3994 102.812 51.2257 103.4 50.8783 103.949C50.531 104.498 50.0472 104.982 49.4269 105.374C48.7819 105.792 48.0624 106.093 47.2436 106.289C46.4249 106.485 45.5441 106.538 44.5889 106.459C43.6337 106.381 42.7157 106.132 41.8474 105.74L40.3463 106.707L38.5352 105.675Z" fill="url(#paint8_linear)"/>
</g>
<path d="M38.5117 104.943L40.0376 103.962C38.8715 103.113 38.3877 102.276 38.5737 101.479C38.7598 100.668 39.5662 99.8055 40.9928 98.8904L41.551 98.5244L45.1981 100.616L44.7764 100.89C43.7219 101.57 43.5358 102.093 44.1809 102.472C44.4538 102.629 44.7763 102.681 45.1361 102.642C45.4959 102.603 45.8432 102.472 46.1781 102.25C46.4138 102.093 46.5503 101.74 46.5875 101.191L46.5255 97.5571C46.5007 96.2237 47.1209 95.1518 48.3739 94.3413C49.2919 93.7531 50.4083 93.4001 51.7357 93.3217C53.063 93.2302 54.3408 93.4393 55.5937 93.9361L56.8342 93.1387L58.6454 94.1844L57.4421 94.9557C58.4593 95.7139 58.8935 96.5374 58.7322 97.4133C58.5834 98.2891 57.8142 99.178 56.4373 100.067L52.6909 97.9231L53.5344 97.3479C53.7081 97.2172 53.7825 97.0603 53.7577 96.8642C53.7205 96.6812 53.6089 96.5244 53.3856 96.3936C53.1375 96.2499 52.8646 96.1845 52.542 96.1714C52.2195 96.1714 51.9466 96.2368 51.7109 96.3936C51.3635 96.6159 51.2147 97.1388 51.2395 97.9623L51.3511 101.466C51.3759 102.08 51.2023 102.668 50.8549 103.217C50.5076 103.766 50.0238 104.25 49.4035 104.642C48.7584 105.06 48.0389 105.361 47.2202 105.557C46.4014 105.753 45.5207 105.806 44.5655 105.727C43.6103 105.649 42.6923 105.4 41.8239 105.008L40.3229 105.976L38.5117 104.943Z" fill="#FFE169"/>
<path d="M40.3353 105.989L40.3725 106.721L38.5365 105.675L38.5117 104.943L40.3353 105.989Z" fill="#FAA925"/>
<path d="M28.0098 113.456V118.223L47.2772 126.112L48.6092 123.027L28.0098 113.456Z" fill="#B8D4F5"/>
<path d="M135.795 176.435L136.025 174.935L142.971 177.79L144.2 181.13L143.752 183.755L139.997 181.239L135.795 176.435Z" fill="#B73235"/>
<path d="M128.504 176.689L128.997 173.713L120.902 176.084L116.814 179.702V184.954L123.313 192.891L135.806 196.243L144.694 193.254L148.093 189.878V184.349L143.844 189.878L134.038 191.887L124.691 187.749L120.294 182.618L128.504 176.689Z" fill="#B73235"/>
<path d="M135.036 148.86V153.639L128.985 152.139L122.279 146.452L134.554 147.19L135.036 148.86Z" fill="#B8D4F5"/>
<path d="M164.179 153.639L163.18 150.069L171.78 146.996L180.024 147.686L189.497 153.131L190.818 156.894L189.107 158.031L186.294 155.817L178.692 152.514H168.025L164.179 153.639Z" fill="#B73235"/>
<path d="M163.915 164.928L175.467 168.861L189.303 166.9L193.287 162.835L193.322 157.644L183.137 163.767L166.327 160.124L160.471 158.527L163.915 164.928Z" fill="#B73235"/>
<path d="M70.5762 96.2261L119.009 163.501L123.855 162.061C121.237 158.249 119.755 154.607 120.938 152.066C124.739 143.935 82.0012 99.7471 70.5762 96.2261Z" fill="#CCE3F5"/>
<path d="M118.514 151.34C122.82 150.771 128.825 151.86 135.049 153.627L137.724 150.808L28.0098 118.223C33.2687 125.229 104.712 153.167 118.514 151.34Z" fill="#B8D4F5"/>
<path d="M140.72 179.69H140.824C140.824 179.69 129.617 170.47 123.864 162.061L119.019 163.501L128.503 176.678C127.401 176.702 126.31 176.811 125.254 177.004C117.583 178.432 114.598 184.07 118.571 189.6C122.544 195.118 131.982 198.445 139.652 197.005C147.323 195.577 150.308 189.939 146.335 184.409C144.992 182.558 143.028 180.949 140.72 179.69ZM137.758 194.392C132.097 195.444 125.127 193 122.188 188.922C119.248 184.845 121.464 180.683 127.125 179.63C132.786 178.577 139.756 181.021 142.695 185.099C145.635 189.177 143.43 193.339 137.758 194.392Z" fill="#B73235"/>
<path d="M181.323 151.981C172.32 149.307 162.733 150.784 159.919 155.285C159.529 155.902 159.299 156.555 159.196 157.209L137.713 150.82L135.037 153.639C148.759 157.535 163.536 164.735 163.536 164.735V164.674C165.523 166.114 168.095 167.372 171.138 168.28C180.14 170.954 189.728 169.478 192.53 164.977C195.354 160.475 190.325 154.655 181.323 151.981ZM188.27 163.706C186.191 167.021 179.118 168.123 172.47 166.138C165.821 164.166 162.113 159.87 164.191 156.543C166.269 153.228 173.342 152.127 179.991 154.111C186.639 156.095 190.348 160.379 188.27 163.706Z" fill="#B73235"/>
<path d="M101.141 138.672L102.312 140.293L119.329 145.351C119.099 144.915 118.846 144.468 118.582 144.008L101.141 138.672Z" fill="#B8D4F5"/>
<path d="M135.037 148.86V153.639L163.915 164.928L158.312 154.498L135.037 148.86Z" fill="#B73235"/>
<path d="M70.5762 91.4585L119.009 158.733L123.855 157.293C121.237 153.482 119.755 149.84 120.938 147.299C124.739 139.168 82.0012 94.9795 70.5762 91.4585Z" fill="#CCE3F5"/>
<path d="M118.514 146.573C122.82 146.004 128.825 147.093 135.049 148.86L137.724 146.041L28.0098 113.456C33.2687 120.462 104.712 148.388 118.514 146.573Z" fill="#CCE3F5"/>
<path d="M109.936 139.386C108.765 139.833 108.57 140.825 109.488 141.612C110.418 142.386 112.106 142.652 113.278 142.205C114.449 141.757 114.644 140.765 113.725 139.978C112.795 139.192 111.096 138.938 109.936 139.386Z" fill="#679AE2"/>
<path d="M140.72 174.911H140.824C140.824 174.911 129.617 165.691 123.864 157.281L119.019 158.721L128.503 171.898C127.401 171.922 126.31 172.031 125.254 172.224C117.583 173.652 114.598 179.291 118.571 184.82C122.544 190.338 131.982 193.665 139.652 192.225C147.323 190.798 150.308 185.159 146.335 179.629C144.992 177.79 143.028 176.181 140.72 174.911ZM137.758 189.624C132.097 190.677 125.127 188.232 122.188 184.155C119.248 180.077 121.464 175.915 127.125 174.862C132.786 173.809 139.756 176.254 142.695 180.331C145.635 184.409 143.43 188.571 137.758 189.624Z" fill="#FB4B00"/>
<path d="M181.323 147.214C172.32 144.54 162.733 146.016 159.919 150.517C159.529 151.134 159.299 151.788 159.196 152.441L137.713 146.052L135.037 148.872C148.759 152.768 163.536 159.967 163.536 159.967V159.906C165.523 161.346 168.095 162.605 171.138 163.512C180.14 166.186 189.728 164.71 192.53 160.209C195.354 155.708 190.325 149.888 181.323 147.214ZM188.27 158.939C186.191 162.254 179.118 163.355 172.47 161.371C165.821 159.398 162.113 155.103 164.191 151.775C166.269 148.46 173.342 147.359 179.991 149.343C186.639 151.316 190.348 155.611 188.27 158.939Z" fill="#FB4B00"/>
<path d="M101.141 133.904L102.312 135.526L119.329 140.583C119.099 140.148 118.846 139.7 118.582 139.24L101.141 133.904Z" fill="#B8D4F5"/>
<path d="M109.65 145.726V150.493L119.02 163.512V158.733L109.65 145.726Z" fill="#B8D4F5"/>
<path d="M119.02 158.733V163.513L125.243 172.237L128.504 171.922L119.02 158.733Z" fill="#B73235"/>
<path d="M70.5762 91.4585V96.2258L97.9387 134.231L102.302 135.526L70.5762 91.4585Z" fill="#B8D4F5"/>
<path d="M121.064 146.972L110.224 146.536L109.639 145.726L121.156 146.427C121.167 146.427 121.098 146.851 121.064 146.972Z" fill="#B8D4F5"/>
<path d="M64.1513 155.688L63.6426 170.983C63.6302 171.493 63.2209 171.885 62.7371 171.872C62.2905 171.859 61.9431 171.493 61.8935 171.048L60.3801 155.832C60.2684 154.734 61.0251 153.767 62.0548 153.649C63.0844 153.532 64.0148 154.329 64.1264 155.414C64.1513 155.505 64.1513 155.597 64.1513 155.688Z" fill="#F89AB5"/>
<path d="M60.6406 158.355L60.6778 158.734C60.6778 158.734 61.8563 159.728 64.0397 158.643L64.0645 157.924L60.6406 158.355Z" fill="#E6E6E6"/>
<path d="M64.3253 157.872C63.3577 158.957 60.9263 159.035 60.2316 158.055L60.0703 152.499C60.0703 151.453 60.9883 150.604 62.1172 150.604C63.3453 150.604 64.3377 151.532 64.3377 152.669V157.872H64.3253Z" fill="#D350D3"/>
<path d="M63.6316 171.14L63.6192 172.591L62.6888 173.101L61.9941 173.362L61.3242 173.584L61.8701 170.695L62.7012 169.898L63.6316 171.14Z" fill="#F89AB5"/>
<path d="M63.1355 174.512C63.0734 174.512 63.0238 174.499 62.9618 174.46C62.8129 174.356 62.7757 174.16 62.8625 174.003C63.1355 173.545 63.0238 172.512 62.9494 172.159C62.9122 171.976 63.0238 171.807 63.1975 171.767C63.3712 171.728 63.5324 171.846 63.5696 172.029C63.5945 172.186 63.855 173.597 63.396 174.369C63.3339 174.46 63.2347 174.512 63.1355 174.512Z" fill="#F89AB5"/>
<path d="M63.9282 173.14C63.8165 173.14 63.7049 173.075 63.6429 172.957C63.2335 172.107 63.0226 171.349 63.0226 171.31C62.973 171.14 63.0722 170.944 63.2335 170.905C63.3948 170.852 63.5808 170.957 63.6305 171.127C63.6305 171.14 63.8414 171.859 64.2135 172.656C64.2879 172.826 64.2259 173.022 64.0771 173.101C64.0274 173.127 63.9778 173.14 63.9282 173.14Z" fill="#F89AB5"/>
<path d="M62.4283 174.709C62.3538 174.709 62.2794 174.682 62.2298 174.63C62.0933 174.513 62.0809 174.303 62.1925 174.16C62.5275 173.741 62.5275 172.709 62.5027 172.343C62.4903 172.16 62.6267 172.003 62.8004 171.99C62.9741 171.977 63.1229 172.12 63.1354 172.303C63.1478 172.46 63.2222 173.898 62.6764 174.591C62.6019 174.669 62.5151 174.709 62.4283 174.709Z" fill="#F89AB5"/>
<path d="M61.9185 174.342C61.8441 174.342 61.7696 174.316 61.72 174.264C61.5835 174.146 61.5711 173.937 61.6828 173.793C62.0177 173.375 62.0177 172.316 61.9929 171.976C61.9805 171.793 62.117 171.636 62.2906 171.623C62.4643 171.61 62.6132 171.754 62.6256 171.937C62.638 172.094 62.7124 173.532 62.1666 174.225C62.0922 174.303 62.0053 174.342 61.9185 174.342Z" fill="#F89AB5"/>
<path d="M61.4231 173.885C61.3362 173.885 61.2494 173.846 61.175 173.768C61.0633 173.624 61.0757 173.415 61.2122 173.297C61.5967 172.957 61.696 172.094 61.696 171.794C61.696 171.611 61.8449 171.467 62.0185 171.467C62.1922 171.467 62.3287 171.624 62.3287 171.807C62.3287 171.95 62.2914 173.218 61.6216 173.82C61.5595 173.859 61.4851 173.885 61.4231 173.885Z" fill="#F89AB5"/>
<path opacity="0.24" d="M65.9514 200.304C69.8908 200.304 73.0844 198.361 73.0844 195.964C73.0844 193.567 69.8908 191.624 65.9514 191.624C62.0119 191.624 58.8184 193.567 58.8184 195.964C58.8184 198.361 62.0119 200.304 65.9514 200.304Z" fill="url(#paint9_linear)"/>
<path d="M65.9506 191.886C65.9506 191.886 65.4668 193.716 63.7796 195.572L62.291 195.219V193.938L65.9506 191.886Z" fill="#2F2F7F"/>
<path d="M65.951 191.885C66.0379 191.689 66.0255 191.454 65.9014 191.271C65.8146 191.14 65.6657 191.023 65.4548 191.062C64.9462 191.14 62.5644 192.434 62.5644 192.434C62.5644 192.434 61.8573 194.513 62.7257 194.787C63.5692 195.062 64.5368 195.088 65.951 191.885Z" fill="#41409E"/>
<path d="M70.926 197.206C70.926 197.206 71.323 197.611 70.8019 198.029C70.2809 198.448 67.1548 199.062 67.1548 199.062L66.2988 198.461L66.3484 195.977L70.926 197.206Z" fill="#2F2F7F"/>
<path d="M66.3477 196.226C66.8811 195.716 67.8859 195.284 68.469 195.82C69.4862 196.748 70.8508 196.526 70.9872 197.402C71.0741 197.938 68.7171 198.395 67.3897 198.395C67.3773 198.395 67.3525 198.395 67.3401 198.395C66.8315 198.382 66.4097 197.964 66.3849 197.415L66.3477 196.226Z" fill="#41409E"/>
<path d="M66.9806 164.853C66.8318 167.232 66.6085 169.611 66.3852 172.003L65.6905 179.153L65.5168 180.944C65.4672 181.546 65.4176 182.134 65.368 182.735L65.0826 186.304C64.8966 188.683 64.6857 191.075 64.4872 193.454C64.4376 194.082 63.9041 194.552 63.3087 194.5C62.7629 194.448 62.3411 193.977 62.3163 193.415C62.1922 191.023 62.0558 188.618 61.9565 186.226L61.7829 182.631L61.696 180.827L61.6464 179.036L61.4355 171.846C61.3735 169.454 61.3115 167.049 61.3239 164.656C61.3363 163.009 62.6016 161.676 64.1647 161.689C65.7277 161.702 66.993 163.035 66.9806 164.683C66.9806 164.722 66.9806 164.787 66.9806 164.853Z" fill="#3F3AF7"/>
<path d="M64.8469 174.225C64.8469 174.081 61.3983 171.767 61.3983 171.767L61.2246 167.101L66.5837 170.421L64.8469 174.225Z" fill="#5954FF"/>
<path d="M70.2188 167.31C70.132 169.702 69.9707 172.081 69.8094 174.473L69.3008 181.637L69.1768 183.428C69.1396 184.029 69.1148 184.617 69.0775 185.219L68.8791 188.8C68.755 191.193 68.6061 193.585 68.4697 195.964C68.4325 196.605 67.9115 197.088 67.316 197.049C66.7702 197.01 66.336 196.552 66.2864 195.99C66.1003 193.598 65.9018 191.206 65.7405 188.814L65.48 185.219L65.356 183.428L65.2567 181.637L64.8474 174.447C64.7233 172.055 64.5993 169.663 64.5496 167.258C64.5124 165.61 65.753 164.238 67.316 164.199C68.8791 164.159 70.1816 165.467 70.2188 167.114C70.2188 167.179 70.2188 167.244 70.2188 167.31Z" fill="#5954FF"/>
<path d="M60.8398 166.826C60.8398 166.826 60.9763 168.447 65.8019 170.578C69.8956 172.395 70.7392 170.421 70.7392 170.421C70.7392 170.421 71.1114 159.506 70.5655 157.179C70.0197 154.852 70.5903 155.519 69.4863 154.865C69.4863 154.865 63.234 149.819 62.1548 151.009C60.8522 152.42 60.7034 158.107 61.4849 161.676C61.3112 164.578 61.0011 166.421 60.8398 166.826Z" fill="#E655E2"/>
<path d="M66.8453 157.022L66.5352 161.78L67.0686 162.343L68.2967 174.251L68.7185 177.101L69.2891 160.225L68.5076 154.578L66.8453 157.022Z" fill="#E6E6E6"/>
<path d="M64.5246 150.512L64.1152 153.375C64.1152 153.375 64.475 154.538 65.7899 154.107C67.1049 153.676 66.894 152.826 66.894 152.826L66.9064 150.931L64.5246 150.512Z" fill="#F89AB5"/>
<path d="M64.5 150.669C64.5 150.669 64.6861 151.832 66.8942 152.251V151.061L64.5 150.669Z" fill="#DB8FAA"/>
<path d="M68.7431 146.76C68.8548 149.401 68.4206 151.14 67.0436 151.205C65.6666 151.27 63.4709 150.421 63.3469 147.519C63.26 145.466 64.3021 143.741 65.679 143.675C68.036 143.558 68.6563 144.695 68.7431 146.76Z" fill="#F89AB5"/>
<path d="M66.8075 154.133C66.1872 154.512 65.1948 154.512 64.5746 154.133C63.9543 153.754 63.9543 153.153 64.5746 152.774C65.1948 152.394 66.1872 152.394 66.8075 152.774C67.4154 153.153 67.4154 153.754 66.8075 154.133Z" fill="#F89AB5"/>
<path d="M63.1236 144C64.1533 141.621 67.1924 142.786 67.1924 142.786L68.5322 143.898C68.6811 144.028 68.7679 144.224 68.7555 144.434C68.7431 144.643 68.6314 144.826 68.4578 144.917C68.1476 145.1 67.7755 145.244 67.4157 145.375C67.056 145.505 66.7707 145.793 66.6466 146.172L66.2248 147.362L66.0884 148.996L65.9891 149.649C65.9271 150.042 65.7038 150.381 65.3689 150.564C65.0339 150.747 64.8808 154.67 64.5459 154.5C63.5654 154.041 63.1224 157.5 62.1729 150C62.0872 148.769 62.827 144.678 63.1236 144Z" fill="#0A1A4E"/>
<path d="M67.0426 147.636C67.0674 148.146 66.6952 148.564 66.2114 148.591C65.7276 148.617 65.3307 148.225 65.3059 147.715C65.281 147.205 65.6532 146.787 66.137 146.761C66.6084 146.734 67.0178 147.127 67.0426 147.636Z" fill="#F89AB5"/>
<path d="M70.9013 159.022L70.3926 174.316C70.3802 174.826 69.9709 175.218 69.4871 175.205C69.0405 175.192 68.6931 174.826 68.6435 174.382L67.1301 159.166C67.0184 158.068 67.7751 157.1 68.8048 156.983C69.8344 156.865 70.7648 157.662 70.8764 158.747C70.9013 158.839 70.9013 158.944 70.9013 159.022Z" fill="#F89AB5"/>
<path d="M67.3887 161.689L67.4259 162.068C67.4259 162.068 68.6044 163.061 70.7877 161.976L70.8125 161.257L67.3887 161.689Z" fill="#E6E6E6"/>
<path d="M71.087 161.205C70.1194 162.29 67.688 162.369 66.9933 161.388L66.832 155.832C66.832 154.787 67.75 153.937 68.8789 153.937C70.107 153.937 71.0994 154.865 71.0994 156.002V161.205H71.087Z" fill="#ED66ED"/>
<path d="M70.3789 174.486L70.3665 175.924L69.4362 176.434L68.7539 176.709L68.084 176.918L68.6174 174.029L69.4486 173.231L70.3789 174.486Z" fill="#F89AB5"/>
<path d="M69.8835 177.846C69.8215 177.846 69.7719 177.833 69.7098 177.794C69.561 177.689 69.5238 177.493 69.6106 177.336C69.8835 176.879 69.7594 175.82 69.6974 175.493C69.6602 175.31 69.7719 175.14 69.9455 175.101C70.1192 175.062 70.2805 175.179 70.3177 175.362C70.3425 175.519 70.603 176.931 70.144 177.702C70.0944 177.794 69.9827 177.846 69.8835 177.846Z" fill="#F89AB5"/>
<path d="M70.6762 176.473C70.5646 176.473 70.4529 176.408 70.3909 176.29C69.9815 175.441 69.7707 174.683 69.7707 174.643C69.721 174.473 69.8203 174.277 69.9815 174.238C70.1428 174.186 70.3289 174.29 70.3785 174.46C70.3785 174.473 70.5894 175.192 70.9616 175.99C71.036 176.16 70.974 176.356 70.8251 176.434C70.7755 176.46 70.7259 176.473 70.6762 176.473Z" fill="#F89AB5"/>
<path d="M69.1763 178.042C69.1019 178.042 69.0274 178.016 68.9778 177.964C68.8414 177.846 68.8289 177.637 68.9406 177.493C69.2755 177.075 69.2755 176.016 69.2507 175.676C69.2383 175.493 69.3748 175.336 69.5485 175.323C69.7221 175.31 69.871 175.454 69.8834 175.637C69.8958 175.794 69.9702 177.232 69.4244 177.924C69.3624 178.003 69.2631 178.042 69.1763 178.042Z" fill="#F89AB5"/>
<path d="M68.6665 177.689C68.5921 177.689 68.5177 177.663 68.468 177.611C68.3316 177.493 68.3192 177.284 68.4308 177.14C68.7658 176.722 68.7658 175.663 68.741 175.323C68.7286 175.14 68.865 174.983 69.0387 174.97C69.2124 174.957 69.3612 175.101 69.3736 175.284C69.386 175.441 69.4605 176.879 68.9146 177.571C68.8526 177.637 68.7658 177.689 68.6665 177.689Z" fill="#F89AB5"/>
<path d="M68.1711 177.219C68.0843 177.219 67.9975 177.179 67.923 177.101C67.8114 176.957 67.8238 176.748 67.9602 176.63C68.3448 176.291 68.444 175.428 68.444 175.127C68.444 174.944 68.5929 174.8 68.7666 174.8C68.9402 174.8 69.0767 174.957 69.0767 175.14C69.0767 175.284 69.0395 176.552 68.3696 177.153C68.32 177.206 68.2456 177.219 68.1711 177.219Z" fill="#F89AB5"/>
<path d="M149.029 168.996L149.141 169.95C149.165 170.16 149.091 170.369 148.955 170.512C148.483 170.996 147.391 172.029 146.61 172.133C145.816 172.238 145.704 171.794 145.655 171.584C145.605 171.375 145.866 171.009 145.866 171.009L149.029 168.996Z" fill="#2F2F7F"/>
<path d="M149.028 168.996C149.028 168.996 147.118 171.963 145.853 171.637C144.823 171.362 147.589 168.539 147.589 168.539L149.028 168.996Z" fill="#41409E"/>
<path d="M158.085 151.806C157.688 150.46 156.311 149.702 155.033 150.133C154.959 150.159 154.884 150.185 154.822 150.211C154.066 150.538 153.321 150.891 152.577 151.244C151.833 151.61 151.088 151.963 150.344 152.329L145.903 154.538L145.68 154.643C145.047 154.957 144.712 155.689 144.849 156.381L146.027 162.669L147.23 168.957C147.33 169.493 147.826 169.833 148.334 169.728C148.806 169.624 149.116 169.179 149.079 168.682L148.595 162.29L148.21 157.414L151.783 156.408C152.577 156.185 153.359 155.963 154.152 155.728C154.934 155.492 155.728 155.244 156.497 154.996C157.775 154.604 158.494 153.153 158.085 151.806Z" fill="#2196A8"/>
<path d="M148.111 152.381L150.542 148.669L151.113 141.388C151.125 141.309 151.138 141.218 151.15 141.139C151.361 140.198 152.254 139.61 153.147 139.832C154.041 140.054 154.599 140.996 154.388 141.937L152.763 149.283L152.676 149.689L152.527 149.858L149.302 153.427C149.041 153.715 148.62 153.767 148.309 153.532C147.962 153.257 147.875 152.76 148.111 152.381Z" fill="#F89AB5"/>
<path d="M154.015 143.139L153.916 143.466C153.916 143.466 152.762 144.264 150.988 143.022L151.038 142.303L154.015 143.139Z" fill="#E6E6E6"/>
<path d="M150.754 142.224C151.461 143.296 153.57 143.701 154.289 142.956L155.121 138.146C155.257 137.231 154.562 136.368 153.582 136.211C152.515 136.041 151.535 136.708 151.399 137.701L150.754 142.224Z" fill="#FFC700"/>
<path d="M154.426 169.963L154.698 170.892C154.76 171.088 154.723 171.31 154.599 171.48C154.215 172.042 153.297 173.258 152.54 173.493C151.783 173.741 151.597 173.323 151.51 173.114C151.423 172.918 151.622 172.499 151.622 172.499L154.426 169.963Z" fill="#2F2F7F"/>
<path d="M154.425 169.964C154.425 169.964 153.023 173.232 151.721 173.127C150.666 173.036 152.936 169.754 152.936 169.754L154.425 169.964Z" fill="#41409E"/>
<path d="M161.186 154.277C161.1 152.434 159.611 151.009 157.862 151.1C157.663 151.113 157.465 151.14 157.279 151.192C156.596 151.362 155.914 151.558 155.232 151.741C154.55 151.924 153.867 152.133 153.185 152.342L149.104 153.663L148.645 153.806C147.677 154.12 147.131 155.205 147.429 156.225C147.441 156.277 147.454 156.316 147.479 156.368L152.627 170.199C152.813 170.709 153.359 170.957 153.842 170.761C154.277 170.578 154.512 170.094 154.413 169.624L151.882 157.859L153.942 157.885C154.649 157.898 155.356 157.885 156.063 157.859C156.77 157.833 157.477 157.819 158.184 157.78C159.933 157.702 161.273 156.12 161.186 154.277Z" fill="#24A8BF"/>
<path d="M145.445 153.636L145.693 153.662L149.415 151.675C149.502 151.623 149.638 151.623 149.713 151.675L155.63 155.741L155.828 155.767L155.816 155.924C155.816 155.963 155.791 155.989 155.741 156.015L151.598 158.225L145.78 154.225L145.271 153.872L145.284 153.689L145.445 153.636Z" fill="#8AA8FF"/>
<path d="M149.712 151.506L155.778 155.662C155.852 155.715 155.84 155.793 155.753 155.845L151.61 158.055L145.283 153.715L149.427 151.506C149.513 151.453 149.637 151.453 149.712 151.506Z" fill="#DEEBFF"/>
<path d="M147.343 153.087L147.182 152.97C147.169 152.957 147.144 152.957 147.12 152.97L146.946 153.061C146.934 153.074 146.921 153.087 146.946 153.1L147.107 153.218C147.12 153.231 147.144 153.231 147.169 153.218L147.343 153.127C147.355 153.114 147.355 153.1 147.343 153.087Z" fill="#8AA8FF"/>
<path d="M147.591 153.257L147.43 153.14C147.417 153.127 147.392 153.127 147.368 153.14L147.194 153.231C147.182 153.244 147.169 153.257 147.194 153.27L147.355 153.388C147.368 153.401 147.392 153.401 147.417 153.388L147.591 153.297C147.603 153.283 147.603 153.27 147.591 153.257Z" fill="#8AA8FF"/>
<path d="M147.839 153.427L147.678 153.31C147.665 153.297 147.641 153.297 147.616 153.31L147.442 153.401C147.43 153.414 147.417 153.427 147.442 153.44L147.603 153.558C147.616 153.571 147.641 153.571 147.665 153.558L147.839 153.466C147.851 153.453 147.851 153.44 147.839 153.427Z" fill="#8AA8FF"/>
<path d="M148.087 153.61L147.926 153.493C147.913 153.48 147.889 153.48 147.864 153.493L147.69 153.584C147.678 153.597 147.665 153.61 147.69 153.623L147.851 153.741C147.864 153.754 147.889 153.754 147.913 153.741L148.087 153.65C148.099 153.623 148.099 153.61 148.087 153.61Z" fill="#8AA8FF"/>
<path d="M148.335 153.78L148.174 153.663C148.161 153.65 148.137 153.65 148.112 153.663L147.938 153.754C147.926 153.767 147.913 153.78 147.938 153.793L148.099 153.911C148.112 153.924 148.137 153.924 148.161 153.911L148.335 153.82C148.348 153.806 148.348 153.78 148.335 153.78Z" fill="#8AA8FF"/>
<path d="M148.583 153.95L148.422 153.833C148.409 153.819 148.385 153.819 148.36 153.833L148.186 153.924C148.174 153.937 148.161 153.95 148.186 153.963L148.347 154.081C148.36 154.094 148.385 154.094 148.409 154.081L148.583 153.989C148.596 153.976 148.596 153.963 148.583 153.95Z" fill="#8AA8FF"/>
<path d="M148.956 154.198L148.795 154.081C148.783 154.068 148.758 154.068 148.733 154.081L148.559 154.172C148.547 154.185 148.534 154.198 148.559 154.211L148.721 154.329C148.733 154.342 148.758 154.342 148.783 154.329L148.956 154.237C148.969 154.224 148.969 154.211 148.956 154.198Z" fill="#8AA8FF"/>
<path d="M149.204 154.368L149.043 154.251C149.031 154.237 149.006 154.237 148.981 154.251L148.807 154.342C148.795 154.355 148.782 154.368 148.807 154.381L148.969 154.499C148.981 154.512 149.006 154.512 149.031 154.499L149.204 154.407C149.217 154.394 149.217 154.381 149.204 154.368Z" fill="#8AA8FF"/>
<path d="M149.452 154.538L149.291 154.42C149.279 154.407 149.254 154.407 149.229 154.42L149.055 154.512C149.043 154.525 149.031 154.538 149.055 154.551L149.217 154.669C149.229 154.682 149.254 154.682 149.279 154.669L149.452 154.577C149.465 154.564 149.465 154.551 149.452 154.538Z" fill="#8AA8FF"/>
<path d="M149.7 154.708L149.539 154.59C149.527 154.577 149.502 154.577 149.477 154.59L149.303 154.682C149.291 154.695 149.279 154.708 149.303 154.721L149.465 154.839C149.477 154.852 149.502 154.852 149.527 154.839L149.7 154.747C149.713 154.734 149.713 154.721 149.7 154.708Z" fill="#8AA8FF"/>
<path d="M149.948 154.878L149.787 154.76C149.775 154.747 149.75 154.747 149.725 154.76L149.551 154.852C149.539 154.865 149.527 154.878 149.551 154.891L149.713 155.009C149.725 155.022 149.75 155.022 149.775 155.009L149.948 154.917C149.961 154.904 149.961 154.891 149.948 154.878Z" fill="#8AA8FF"/>
<path d="M150.196 155.061L150.035 154.943C150.023 154.93 149.998 154.93 149.973 154.943L149.799 155.035C149.787 155.048 149.775 155.061 149.799 155.074L149.961 155.192C149.973 155.205 149.998 155.205 150.023 155.192L150.196 155.1C150.209 155.074 150.221 155.061 150.196 155.061Z" fill="#8AA8FF"/>
<path d="M150.568 155.31L150.406 155.192C150.394 155.179 150.369 155.179 150.344 155.192L150.171 155.283C150.158 155.297 150.146 155.31 150.171 155.323L150.332 155.44C150.344 155.453 150.369 155.453 150.394 155.44L150.568 155.349C150.58 155.336 150.58 155.323 150.568 155.31Z" fill="#8AA8FF"/>
<path d="M150.816 155.48L150.654 155.362C150.642 155.349 150.617 155.349 150.592 155.362L150.419 155.453C150.406 155.466 150.394 155.48 150.419 155.493L150.58 155.61C150.592 155.623 150.617 155.623 150.642 155.61L150.816 155.519C150.828 155.506 150.828 155.493 150.816 155.48Z" fill="#8AA8FF"/>
<path d="M151.064 155.649L150.902 155.532C150.89 155.519 150.865 155.519 150.84 155.532L150.667 155.623C150.654 155.636 150.642 155.649 150.667 155.662L150.828 155.78C150.84 155.793 150.865 155.793 150.89 155.78L151.064 155.689C151.076 155.676 151.076 155.662 151.064 155.649Z" fill="#8AA8FF"/>
<path d="M151.312 155.819L151.15 155.702C151.138 155.689 151.113 155.689 151.088 155.702L150.915 155.793C150.902 155.806 150.89 155.819 150.915 155.832L151.076 155.95C151.088 155.963 151.113 155.963 151.138 155.95L151.312 155.859C151.324 155.846 151.324 155.832 151.312 155.819Z" fill="#8AA8FF"/>
<path d="M151.56 155.989L151.398 155.872C151.386 155.859 151.361 155.859 151.336 155.872L151.163 155.963C151.15 155.976 151.138 155.989 151.163 156.002L151.324 156.12C151.336 156.133 151.361 156.133 151.386 156.12L151.56 156.028C151.572 156.015 151.585 156.002 151.56 155.989Z" fill="#8AA8FF"/>
<path d="M151.821 156.159L151.66 156.042C151.648 156.028 151.623 156.028 151.598 156.042L151.424 156.133C151.412 156.146 151.4 156.159 151.424 156.172L151.586 156.29C151.598 156.303 151.623 156.303 151.648 156.29L151.821 156.198C151.834 156.185 151.834 156.172 151.821 156.159Z" fill="#8AA8FF"/>
<path d="M152.132 156.381L151.971 156.264C151.958 156.251 151.934 156.251 151.909 156.264L151.735 156.355C151.723 156.368 151.71 156.381 151.735 156.394L151.896 156.512C151.909 156.525 151.933 156.525 151.958 156.512L152.132 156.421C152.144 156.408 152.144 156.394 152.132 156.381Z" fill="#8AA8FF"/>
<path d="M152.382 156.551L152.221 156.434C152.208 156.421 152.184 156.421 152.159 156.434L151.985 156.525C151.973 156.538 151.96 156.551 151.985 156.564L152.146 156.682C152.159 156.695 152.183 156.695 152.208 156.682L152.382 156.591C152.394 156.577 152.394 156.564 152.382 156.551Z" fill="#8AA8FF"/>
<path d="M152.63 156.721L152.469 156.604C152.456 156.59 152.432 156.59 152.407 156.604L152.233 156.695C152.221 156.708 152.208 156.721 152.233 156.734L152.394 156.852C152.407 156.865 152.432 156.865 152.456 156.852L152.63 156.76C152.642 156.747 152.642 156.734 152.63 156.721Z" fill="#8AA8FF"/>
<path d="M152.878 156.891L152.717 156.773C152.704 156.76 152.68 156.76 152.655 156.773L152.481 156.865C152.469 156.878 152.456 156.891 152.481 156.904L152.642 157.022C152.655 157.035 152.68 157.035 152.704 157.022L152.878 156.93C152.89 156.917 152.903 156.904 152.878 156.891Z" fill="#8AA8FF"/>
<path d="M148.982 152.277L149.155 152.185C149.168 152.172 149.18 152.159 149.155 152.146L148.994 152.028C148.982 152.015 148.957 152.015 148.932 152.028L148.758 152.12C148.746 152.133 148.734 152.146 148.758 152.159L148.92 152.277C148.932 152.29 148.957 152.29 148.982 152.277Z" fill="#8AA8FF"/>
<path d="M148.708 152.421L148.882 152.329C148.894 152.316 148.907 152.303 148.882 152.29L148.721 152.172C148.708 152.159 148.684 152.159 148.659 152.172L148.485 152.264C148.473 152.277 148.46 152.29 148.485 152.303L148.646 152.421C148.671 152.421 148.696 152.421 148.708 152.421Z" fill="#8AA8FF"/>
<path d="M148.449 152.564L148.622 152.473C148.635 152.46 148.647 152.447 148.622 152.434L148.461 152.316C148.449 152.303 148.424 152.303 148.399 152.316L148.225 152.407C148.213 152.421 148.2 152.434 148.225 152.447L148.387 152.564C148.399 152.564 148.436 152.564 148.449 152.564Z" fill="#8AA8FF"/>
<path d="M148.175 152.708L148.349 152.617C148.361 152.604 148.374 152.591 148.349 152.578L148.188 152.46C148.175 152.447 148.15 152.447 148.126 152.46L147.952 152.551C147.939 152.565 147.927 152.578 147.952 152.591L148.113 152.708C148.138 152.708 148.163 152.708 148.175 152.708Z" fill="#8AA8FF"/>
<path d="M147.913 152.839L148.087 152.747C148.099 152.734 148.112 152.721 148.087 152.708L147.926 152.59C147.913 152.577 147.889 152.577 147.864 152.59L147.69 152.682C147.678 152.695 147.665 152.708 147.69 152.721L147.851 152.839C147.876 152.852 147.901 152.852 147.913 152.839Z" fill="#8AA8FF"/>
<path d="M147.654 152.983L147.827 152.891C147.84 152.878 147.852 152.865 147.827 152.852L147.666 152.734C147.654 152.721 147.629 152.721 147.604 152.734L147.43 152.826C147.418 152.839 147.406 152.852 147.43 152.865L147.592 152.983C147.604 152.996 147.629 152.996 147.654 152.983Z" fill="#8AA8FF"/>
<path d="M149.23 152.447L149.403 152.355C149.416 152.342 149.428 152.329 149.403 152.316L149.242 152.198C149.23 152.185 149.205 152.185 149.18 152.198L149.007 152.29C148.994 152.303 148.982 152.316 149.007 152.329L149.168 152.447C149.18 152.46 149.205 152.46 149.23 152.447Z" fill="#8AA8FF"/>
<path d="M148.956 152.59L149.13 152.499C149.142 152.486 149.155 152.473 149.13 152.459L148.969 152.342C148.956 152.329 148.932 152.329 148.907 152.342L148.733 152.433C148.721 152.446 148.708 152.459 148.733 152.473L148.894 152.59C148.919 152.603 148.944 152.603 148.956 152.59Z" fill="#8AA8FF"/>
<path d="M148.697 152.734L148.87 152.643C148.883 152.63 148.895 152.617 148.87 152.604L148.709 152.486C148.697 152.473 148.672 152.473 148.647 152.486L148.473 152.577C148.461 152.59 148.448 152.604 148.473 152.617L148.635 152.734C148.659 152.734 148.684 152.734 148.697 152.734Z" fill="#8AA8FF"/>
<path d="M148.435 152.878L148.609 152.787C148.621 152.774 148.633 152.761 148.609 152.748L148.447 152.63C148.435 152.617 148.41 152.617 148.385 152.63L148.212 152.721C148.199 152.735 148.187 152.748 148.212 152.761L148.373 152.878C148.385 152.878 148.41 152.878 148.435 152.878Z" fill="#8AA8FF"/>
<path d="M148.161 153.022L148.335 152.93C148.348 152.917 148.36 152.904 148.335 152.891L148.174 152.773C148.161 152.76 148.137 152.76 148.112 152.773L147.938 152.865C147.926 152.878 147.913 152.891 147.938 152.904L148.099 153.022C148.124 153.022 148.149 153.022 148.161 153.022Z" fill="#8AA8FF"/>
<path d="M147.902 153.153L148.075 153.061C148.088 153.048 148.1 153.035 148.075 153.022L147.914 152.904C147.902 152.891 147.877 152.891 147.852 152.904L147.678 152.996C147.666 153.009 147.654 153.022 147.678 153.035L147.84 153.153C147.852 153.166 147.877 153.166 147.902 153.153Z" fill="#8AA8FF"/>
<path d="M149.478 152.617L149.652 152.525C149.664 152.512 149.676 152.499 149.652 152.486L149.49 152.368C149.478 152.355 149.453 152.355 149.428 152.368L149.255 152.46C149.242 152.473 149.23 152.486 149.255 152.499L149.416 152.617C149.441 152.63 149.465 152.63 149.478 152.617Z" fill="#8AA8FF"/>
<path d="M149.216 152.761L149.39 152.669C149.402 152.656 149.415 152.643 149.39 152.63L149.229 152.512C149.216 152.499 149.191 152.499 149.166 152.512L148.993 152.604C148.98 152.617 148.968 152.63 148.993 152.643L149.154 152.761C149.166 152.774 149.191 152.774 149.216 152.761Z" fill="#8AA8FF"/>
<path d="M148.945 152.904L149.118 152.813C149.131 152.8 149.143 152.787 149.118 152.773L148.957 152.656C148.945 152.643 148.92 152.643 148.895 152.656L148.721 152.747C148.709 152.76 148.697 152.773 148.721 152.787L148.883 152.904C148.907 152.917 148.932 152.917 148.945 152.904Z" fill="#8AA8FF"/>
<path d="M148.683 153.048L148.857 152.957C148.869 152.944 148.881 152.931 148.857 152.917L148.695 152.8C148.683 152.787 148.658 152.787 148.633 152.8L148.46 152.891C148.447 152.904 148.435 152.917 148.46 152.931L148.621 153.048C148.633 153.048 148.658 153.048 148.683 153.048Z" fill="#8AA8FF"/>
<path d="M148.409 153.192L148.583 153.1C148.596 153.087 148.608 153.074 148.583 153.061L148.422 152.943C148.409 152.93 148.385 152.93 148.36 152.943L148.186 153.035C148.174 153.048 148.161 153.061 148.186 153.074L148.347 153.192C148.372 153.192 148.397 153.192 148.409 153.192Z" fill="#8AA8FF"/>
<path d="M148.15 153.335L148.323 153.244C148.336 153.231 148.348 153.218 148.323 153.205L148.162 153.087C148.15 153.074 148.125 153.074 148.1 153.087L147.926 153.178C147.914 153.192 147.902 153.205 147.926 153.218L148.088 153.335C148.1 153.335 148.137 153.335 148.15 153.335Z" fill="#8AA8FF"/>
<path d="M149.726 152.787L149.9 152.695C149.912 152.682 149.924 152.669 149.9 152.656L149.738 152.538C149.726 152.525 149.701 152.525 149.676 152.538L149.503 152.63C149.49 152.643 149.478 152.656 149.503 152.669L149.664 152.787C149.689 152.8 149.713 152.8 149.726 152.787Z" fill="#8AA8FF"/>
<path d="M149.464 152.931L149.638 152.839C149.65 152.826 149.663 152.813 149.638 152.8L149.477 152.682C149.464 152.669 149.439 152.669 149.415 152.682L149.241 152.774C149.228 152.787 149.216 152.8 149.241 152.813L149.402 152.931C149.415 152.944 149.439 152.944 149.464 152.931Z" fill="#8AA8FF"/>
<path d="M149.193 153.074L149.366 152.983C149.379 152.97 149.391 152.956 149.366 152.943L149.205 152.826C149.193 152.813 149.168 152.813 149.143 152.826L148.969 152.917C148.957 152.93 148.945 152.943 148.969 152.956L149.131 153.074C149.155 153.087 149.18 153.087 149.193 153.074Z" fill="#8AA8FF"/>
<path d="M148.931 153.218L149.105 153.126C149.117 153.113 149.129 153.1 149.105 153.087L148.943 152.969C148.931 152.956 148.906 152.956 148.881 152.969L148.708 153.061C148.695 153.074 148.683 153.087 148.708 153.1L148.869 153.218C148.881 153.231 148.906 153.231 148.931 153.218Z" fill="#8AA8FF"/>
<path d="M148.658 153.362L148.831 153.27C148.844 153.257 148.856 153.244 148.831 153.231L148.67 153.113C148.658 153.1 148.633 153.1 148.608 153.113L148.434 153.205C148.422 153.218 148.409 153.231 148.434 153.244L148.596 153.362C148.62 153.362 148.645 153.362 148.658 153.362Z" fill="#8AA8FF"/>
<path d="M148.398 153.505L148.571 153.414C148.584 153.401 148.596 153.388 148.571 153.375L148.41 153.257C148.398 153.244 148.373 153.244 148.348 153.257L148.174 153.348C148.162 153.361 148.15 153.375 148.174 153.388L148.336 153.505C148.361 153.505 148.385 153.505 148.398 153.505Z" fill="#8AA8FF"/>
<path d="M149.974 152.956L150.148 152.865C150.16 152.852 150.172 152.839 150.148 152.826L149.986 152.708C149.974 152.695 149.949 152.695 149.924 152.708L149.751 152.8C149.738 152.813 149.726 152.826 149.751 152.839L149.912 152.956C149.937 152.97 149.962 152.97 149.974 152.956Z" fill="#8AA8FF"/>
<path d="M149.712 153.1L149.886 153.009C149.898 152.996 149.911 152.983 149.886 152.97L149.725 152.852C149.712 152.839 149.687 152.839 149.663 152.852L149.489 152.944C149.477 152.957 149.464 152.97 149.489 152.983L149.65 153.1C149.663 153.114 149.687 153.114 149.712 153.1Z" fill="#8AA8FF"/>
<path d="M149.441 153.244L149.614 153.152C149.627 153.139 149.639 153.126 149.614 153.113L149.453 152.996C149.441 152.983 149.416 152.983 149.391 152.996L149.217 153.087C149.205 153.1 149.193 153.113 149.217 153.126L149.379 153.244C149.404 153.257 149.428 153.257 149.441 153.244Z" fill="#8AA8FF"/>
<path d="M149.179 153.388L149.353 153.296C149.365 153.283 149.378 153.27 149.353 153.257L149.191 153.139C149.179 153.126 149.154 153.126 149.129 153.139L148.956 153.231C148.943 153.244 148.931 153.257 148.956 153.27L149.117 153.388C149.142 153.401 149.167 153.401 149.179 153.388Z" fill="#8AA8FF"/>
<path d="M148.919 153.532L149.093 153.44C149.105 153.427 149.118 153.414 149.093 153.401L148.932 153.283C148.919 153.27 148.894 153.27 148.87 153.283L148.696 153.375C148.684 153.388 148.671 153.401 148.696 153.414L148.857 153.532C148.87 153.545 148.894 153.545 148.919 153.532Z" fill="#8AA8FF"/>
<path d="M148.646 153.675L148.82 153.584C148.832 153.571 148.844 153.558 148.82 153.544L148.658 153.427C148.646 153.414 148.621 153.414 148.596 153.427L148.423 153.518C148.41 153.531 148.398 153.544 148.423 153.558L148.584 153.675C148.609 153.675 148.633 153.675 148.646 153.675Z" fill="#8AA8FF"/>
<path d="M150.222 153.14L150.396 153.048C150.408 153.035 150.42 153.022 150.396 153.009L150.234 152.891C150.222 152.878 150.197 152.878 150.172 152.891L149.999 152.983C149.986 152.996 149.974 153.009 149.999 153.022L150.16 153.14C150.185 153.14 150.21 153.14 150.222 153.14Z" fill="#8AA8FF"/>
<path d="M149.96 153.27L150.134 153.179C150.146 153.166 150.159 153.153 150.134 153.14L149.973 153.022C149.96 153.009 149.935 153.009 149.911 153.022L149.737 153.114C149.725 153.127 149.712 153.14 149.737 153.153L149.898 153.27C149.923 153.283 149.948 153.283 149.96 153.27Z" fill="#8AA8FF"/>
<path d="M149.701 153.414L149.874 153.322C149.887 153.309 149.899 153.296 149.874 153.283L149.713 153.166C149.701 153.152 149.676 153.152 149.651 153.166L149.477 153.257C149.465 153.27 149.452 153.283 149.477 153.296L149.638 153.414C149.651 153.427 149.676 153.427 149.701 153.414Z" fill="#8AA8FF"/>
<path d="M149.427 153.558L149.601 153.466C149.613 153.453 149.626 153.44 149.601 153.427L149.439 153.31C149.427 153.297 149.402 153.297 149.377 153.31L149.204 153.401C149.191 153.414 149.179 153.427 149.204 153.44L149.365 153.558C149.39 153.571 149.415 153.571 149.427 153.558Z" fill="#8AA8FF"/>
<path d="M149.167 153.702L149.341 153.61C149.353 153.597 149.366 153.584 149.341 153.571L149.18 153.453C149.167 153.44 149.143 153.44 149.118 153.453L148.944 153.545C148.932 153.558 148.919 153.571 148.944 153.584L149.105 153.702C149.118 153.715 149.142 153.715 149.167 153.702Z" fill="#8AA8FF"/>
<path d="M148.894 153.846L149.068 153.754C149.08 153.741 149.092 153.728 149.068 153.715L148.906 153.597C148.894 153.584 148.869 153.584 148.844 153.597L148.671 153.689C148.658 153.702 148.646 153.715 148.671 153.728L148.832 153.846C148.857 153.859 148.881 153.859 148.894 153.846Z" fill="#8AA8FF"/>
<path d="M150.208 153.44L150.382 153.349C150.394 153.336 150.407 153.323 150.382 153.31L150.221 153.192C150.208 153.179 150.184 153.179 150.159 153.192L149.985 153.283C149.973 153.297 149.96 153.31 149.985 153.323L150.146 153.44C150.171 153.453 150.196 153.453 150.208 153.44Z" fill="#8AA8FF"/>
<path d="M149.949 153.584L150.122 153.493C150.135 153.48 150.147 153.467 150.122 153.454L149.961 153.336C149.949 153.323 149.924 153.323 149.899 153.336L149.725 153.427C149.713 153.441 149.7 153.454 149.725 153.467L149.887 153.584C149.899 153.597 149.924 153.597 149.949 153.584Z" fill="#8AA8FF"/>
<path d="M149.675 153.728L149.849 153.636C149.861 153.623 149.874 153.61 149.849 153.597L149.688 153.48C149.675 153.466 149.65 153.466 149.626 153.48L149.452 153.571C149.439 153.584 149.427 153.597 149.452 153.61L149.613 153.728C149.638 153.741 149.663 153.741 149.675 153.728Z" fill="#8AA8FF"/>
<path d="M149.415 153.871L149.589 153.78C149.601 153.767 149.614 153.754 149.589 153.741L149.428 153.623C149.415 153.61 149.391 153.61 149.366 153.623L149.192 153.715C149.18 153.728 149.167 153.741 149.192 153.754L149.353 153.871C149.366 153.885 149.391 153.885 149.415 153.871Z" fill="#8AA8FF"/>
<path d="M149.142 154.015L149.316 153.924C149.328 153.911 149.34 153.898 149.316 153.885L149.154 153.767C149.142 153.754 149.117 153.754 149.092 153.767L148.919 153.859C148.906 153.872 148.894 153.885 148.919 153.898L149.08 154.015C149.105 154.029 149.13 154.029 149.142 154.015Z" fill="#8AA8FF"/>
<path d="M150.456 153.623L150.63 153.532C150.642 153.519 150.655 153.506 150.63 153.493L150.469 153.375C150.456 153.362 150.432 153.362 150.407 153.375L150.233 153.467C150.221 153.48 150.208 153.493 150.233 153.506L150.394 153.623C150.419 153.623 150.444 153.623 150.456 153.623Z" fill="#8AA8FF"/>
<path d="M150.197 153.754L150.37 153.663C150.383 153.65 150.395 153.637 150.37 153.624L150.209 153.506C150.197 153.493 150.172 153.493 150.147 153.506L149.973 153.597C149.961 153.61 149.948 153.624 149.973 153.637L150.135 153.754C150.147 153.767 150.172 153.767 150.197 153.754Z" fill="#8AA8FF"/>
<path d="M149.923 153.898L150.097 153.806C150.109 153.793 150.122 153.78 150.097 153.767L149.936 153.649C149.923 153.636 149.898 153.636 149.874 153.649L149.7 153.741C149.687 153.754 149.675 153.767 149.7 153.78L149.861 153.898C149.886 153.911 149.911 153.911 149.923 153.898Z" fill="#8AA8FF"/>
<path d="M149.663 154.042L149.837 153.95C149.849 153.937 149.862 153.924 149.837 153.911L149.676 153.793C149.663 153.78 149.639 153.78 149.614 153.793L149.44 153.885C149.428 153.898 149.415 153.911 149.44 153.924L149.601 154.042C149.626 154.055 149.651 154.055 149.663 154.042Z" fill="#8AA8FF"/>
<path d="M149.39 154.185L149.564 154.094C149.576 154.081 149.588 154.068 149.564 154.055L149.402 153.937C149.39 153.924 149.365 153.924 149.34 153.937L149.167 154.029C149.154 154.042 149.142 154.055 149.167 154.068L149.328 154.185C149.353 154.199 149.378 154.199 149.39 154.185Z" fill="#8AA8FF"/>
<path d="M150.706 153.78L150.88 153.689C150.892 153.676 150.905 153.662 150.88 153.649L150.719 153.532C150.706 153.519 150.682 153.519 150.657 153.532L150.483 153.623C150.471 153.636 150.458 153.649 150.483 153.662L150.644 153.78C150.669 153.793 150.694 153.793 150.706 153.78Z" fill="#8AA8FF"/>
<path d="M150.447 153.924L150.62 153.833C150.633 153.82 150.645 153.807 150.62 153.793L150.459 153.676C150.447 153.663 150.422 153.663 150.397 153.676L150.223 153.767C150.211 153.78 150.198 153.793 150.223 153.807L150.385 153.924C150.409 153.937 150.434 153.937 150.447 153.924Z" fill="#8AA8FF"/>
<path d="M150.185 154.068L150.359 153.976C150.371 153.963 150.383 153.95 150.359 153.937L150.197 153.819C150.185 153.806 150.16 153.806 150.135 153.819L149.962 153.911C149.949 153.924 149.937 153.937 149.962 153.95L150.123 154.068C150.135 154.068 150.16 154.068 150.185 154.068Z" fill="#8AA8FF"/>
<path d="M149.911 154.211L150.085 154.12C150.098 154.107 150.11 154.094 150.085 154.081L149.924 153.963C149.911 153.95 149.887 153.95 149.862 153.963L149.688 154.054C149.676 154.068 149.663 154.081 149.688 154.094L149.849 154.211C149.874 154.211 149.899 154.211 149.911 154.211Z" fill="#8AA8FF"/>
<path d="M149.652 154.342L149.825 154.251C149.838 154.238 149.85 154.225 149.825 154.211L149.664 154.094C149.652 154.081 149.627 154.081 149.602 154.094L149.428 154.185C149.416 154.198 149.404 154.211 149.428 154.225L149.59 154.342C149.602 154.355 149.627 154.355 149.652 154.342Z" fill="#8AA8FF"/>
<path d="M150.952 153.95L151.126 153.859C151.139 153.845 151.151 153.832 151.126 153.819L150.965 153.702C150.952 153.689 150.928 153.689 150.903 153.702L150.729 153.793C150.717 153.806 150.704 153.819 150.729 153.832L150.89 153.95C150.915 153.963 150.94 153.963 150.952 153.95Z" fill="#8AA8FF"/>
<path d="M150.693 154.094L150.866 154.002C150.879 153.989 150.891 153.976 150.866 153.963L150.705 153.845C150.693 153.832 150.668 153.832 150.643 153.845L150.469 153.937C150.457 153.95 150.445 153.963 150.469 153.976L150.631 154.094C150.655 154.107 150.68 154.107 150.693 154.094Z" fill="#8AA8FF"/>
<path d="M150.431 154.238L150.605 154.146C150.617 154.133 150.629 154.12 150.605 154.107L150.443 153.989C150.431 153.976 150.406 153.976 150.381 153.989L150.208 154.081C150.195 154.094 150.183 154.107 150.208 154.12L150.369 154.238C150.381 154.251 150.406 154.251 150.431 154.238Z" fill="#8AA8FF"/>
<path d="M150.158 154.381L150.331 154.29C150.344 154.277 150.356 154.264 150.331 154.251L150.17 154.133C150.158 154.12 150.133 154.12 150.108 154.133L149.934 154.224C149.922 154.237 149.909 154.251 149.934 154.264L150.096 154.381C150.12 154.381 150.145 154.381 150.158 154.381Z" fill="#8AA8FF"/>
<path d="M149.898 154.525L150.071 154.434C150.084 154.421 150.096 154.408 150.071 154.395L149.91 154.277C149.898 154.264 149.873 154.264 149.848 154.277L149.674 154.368C149.662 154.381 149.65 154.395 149.674 154.408L149.836 154.525C149.848 154.525 149.873 154.525 149.898 154.525Z" fill="#8AA8FF"/>
<path d="M151.212 154.12L151.386 154.028C151.398 154.015 151.411 154.002 151.386 153.989L151.225 153.872C151.212 153.859 151.187 153.859 151.163 153.872L150.989 153.963C150.977 153.976 150.964 153.989 150.989 154.002L151.15 154.12C151.163 154.133 151.187 154.133 151.212 154.12Z" fill="#8AA8FF"/>
<path d="M150.941 154.264L151.114 154.173C151.127 154.159 151.139 154.146 151.114 154.133L150.953 154.016C150.941 154.003 150.916 154.003 150.891 154.016L150.717 154.107C150.705 154.12 150.693 154.133 150.717 154.146L150.879 154.264C150.904 154.277 150.928 154.277 150.941 154.264Z" fill="#8AA8FF"/>
<path d="M150.679 154.408L150.853 154.316C150.865 154.303 150.878 154.29 150.853 154.277L150.691 154.159C150.679 154.146 150.654 154.146 150.629 154.159L150.456 154.251C150.443 154.264 150.431 154.277 150.456 154.29L150.617 154.408C150.629 154.421 150.654 154.421 150.679 154.408Z" fill="#8AA8FF"/>
<path d="M150.406 154.551L150.579 154.46C150.592 154.447 150.604 154.434 150.579 154.42L150.418 154.303C150.406 154.29 150.381 154.29 150.356 154.303L150.182 154.394C150.17 154.407 150.157 154.42 150.182 154.433L150.344 154.551C150.368 154.564 150.393 154.564 150.406 154.551Z" fill="#8AA8FF"/>
<path d="M150.146 154.695L150.319 154.604C150.332 154.591 150.344 154.578 150.319 154.564L150.158 154.447C150.146 154.434 150.121 154.434 150.096 154.447L149.923 154.538C149.91 154.551 149.898 154.564 149.923 154.578L150.084 154.695C150.109 154.695 150.133 154.695 150.146 154.695Z" fill="#8AA8FF"/>
<path d="M151.462 154.29L151.636 154.198C151.648 154.185 151.661 154.172 151.636 154.159L151.475 154.042C151.462 154.028 151.437 154.028 151.413 154.042L151.239 154.133C151.227 154.146 151.214 154.159 151.239 154.172L151.4 154.29C151.413 154.303 151.437 154.303 151.462 154.29Z" fill="#8AA8FF"/>
<path d="M151.191 154.434L151.364 154.342C151.377 154.329 151.389 154.316 151.364 154.303L151.203 154.186C151.191 154.173 151.166 154.173 151.141 154.186L150.967 154.277C150.955 154.29 150.943 154.303 150.967 154.316L151.129 154.434C151.154 154.447 151.178 154.447 151.191 154.434Z" fill="#8AA8FF"/>
<path d="M150.929 154.578L151.103 154.486C151.115 154.473 151.128 154.46 151.103 154.447L150.941 154.329C150.929 154.316 150.904 154.316 150.879 154.329L150.706 154.421C150.693 154.434 150.681 154.447 150.706 154.46L150.867 154.578C150.879 154.591 150.904 154.591 150.929 154.578Z" fill="#8AA8FF"/>
<path d="M150.656 154.721L150.829 154.63C150.842 154.616 150.854 154.603 150.829 154.59L150.668 154.473C150.656 154.46 150.631 154.46 150.606 154.473L150.432 154.564C150.42 154.577 150.407 154.59 150.432 154.603L150.594 154.721C150.618 154.734 150.643 154.734 150.656 154.721Z" fill="#8AA8FF"/>
<path d="M150.396 154.865L150.569 154.774C150.582 154.761 150.594 154.747 150.569 154.734L150.408 154.617C150.396 154.604 150.371 154.604 150.346 154.617L150.173 154.708C150.16 154.721 150.148 154.734 150.173 154.747L150.334 154.865C150.359 154.865 150.383 154.878 150.396 154.865Z" fill="#8AA8FF"/>
<path d="M151.71 154.46L151.884 154.368C151.896 154.355 151.909 154.342 151.884 154.329L151.723 154.211C151.71 154.198 151.685 154.198 151.661 154.211L151.487 154.303C151.475 154.316 151.462 154.329 151.487 154.342L151.648 154.46C151.661 154.473 151.685 154.473 151.71 154.46Z" fill="#8AA8FF"/>
<path d="M151.439 154.604L151.612 154.512C151.625 154.499 151.637 154.486 151.612 154.473L151.451 154.356C151.439 154.342 151.414 154.342 151.389 154.356L151.215 154.447C151.203 154.46 151.191 154.473 151.215 154.486L151.377 154.604C151.402 154.617 151.426 154.617 151.439 154.604Z" fill="#8AA8FF"/>
<path d="M151.177 154.747L151.351 154.656C151.363 154.643 151.376 154.63 151.351 154.617L151.189 154.499C151.177 154.486 151.152 154.486 151.127 154.499L150.954 154.591C150.941 154.604 150.929 154.617 150.954 154.63L151.115 154.747C151.14 154.761 151.165 154.761 151.177 154.747Z" fill="#8AA8FF"/>
<path d="M150.917 154.891L151.091 154.799C151.103 154.786 151.116 154.773 151.091 154.76L150.93 154.643C150.917 154.63 150.893 154.63 150.868 154.643L150.694 154.734C150.682 154.747 150.669 154.76 150.694 154.773L150.855 154.891C150.868 154.904 150.893 154.904 150.917 154.891Z" fill="#8AA8FF"/>
<path d="M150.644 155.035L150.818 154.944C150.83 154.93 150.842 154.917 150.818 154.904L150.656 154.787C150.644 154.774 150.619 154.774 150.594 154.787L150.421 154.878C150.408 154.891 150.396 154.904 150.421 154.917L150.582 155.035C150.607 155.048 150.631 155.048 150.644 155.035Z" fill="#8AA8FF"/>
<path d="M151.956 154.643L152.13 154.551C152.142 154.538 152.155 154.525 152.13 154.512L151.969 154.395C151.956 154.381 151.932 154.381 151.907 154.395L151.733 154.486C151.721 154.499 151.708 154.512 151.733 154.525L151.894 154.643C151.919 154.643 151.944 154.643 151.956 154.643Z" fill="#8AA8FF"/>
<path d="M151.697 154.774L151.87 154.682C151.883 154.669 151.895 154.656 151.87 154.643L151.709 154.525C151.697 154.512 151.672 154.512 151.647 154.525L151.473 154.617C151.461 154.63 151.448 154.643 151.473 154.656L151.635 154.774C151.647 154.787 151.672 154.787 151.697 154.774Z" fill="#8AA8FF"/>
<path d="M151.423 154.917L151.597 154.826C151.609 154.813 151.622 154.8 151.597 154.787L151.436 154.669C151.423 154.656 151.398 154.656 151.374 154.669L151.2 154.76C151.187 154.774 151.175 154.787 151.2 154.8L151.361 154.917C151.386 154.93 151.411 154.93 151.423 154.917Z" fill="#8AA8FF"/>
<path d="M151.163 155.061L151.337 154.97C151.349 154.957 151.362 154.944 151.337 154.931L151.176 154.813C151.163 154.8 151.139 154.8 151.114 154.813L150.94 154.905C150.928 154.918 150.915 154.931 150.94 154.944L151.101 155.061C151.114 155.074 151.139 155.074 151.163 155.061Z" fill="#8AA8FF"/>
<path d="M150.89 155.205L151.064 155.113C151.076 155.1 151.088 155.087 151.064 155.074L150.902 154.957C150.89 154.944 150.865 154.944 150.84 154.957L150.667 155.048C150.654 155.061 150.642 155.074 150.667 155.087L150.828 155.205C150.853 155.218 150.878 155.218 150.89 155.205Z" fill="#8AA8FF"/>
<path d="M152.204 154.813L152.378 154.721C152.39 154.708 152.403 154.695 152.378 154.682L152.217 154.564C152.204 154.551 152.18 154.551 152.155 154.564L151.981 154.656C151.969 154.669 151.956 154.682 151.981 154.695L152.142 154.813C152.167 154.813 152.192 154.813 152.204 154.813Z" fill="#8AA8FF"/>
<path d="M151.945 154.957L152.118 154.865C152.131 154.852 152.143 154.839 152.118 154.826L151.957 154.709C151.945 154.695 151.92 154.695 151.895 154.709L151.721 154.8C151.709 154.813 151.697 154.826 151.721 154.839L151.883 154.957C151.895 154.957 151.92 154.957 151.945 154.957Z" fill="#8AA8FF"/>
<path d="M151.671 155.087L151.845 154.996C151.857 154.983 151.87 154.97 151.845 154.957L151.684 154.839C151.671 154.826 151.646 154.826 151.622 154.839L151.448 154.93C151.436 154.943 151.423 154.957 151.448 154.97L151.609 155.087C151.634 155.1 151.659 155.1 151.671 155.087Z" fill="#8AA8FF"/>
<path d="M151.411 155.231L151.585 155.14C151.598 155.127 151.61 155.114 151.585 155.101L151.424 154.983C151.411 154.97 151.387 154.97 151.362 154.983L151.188 155.074C151.176 155.088 151.163 155.101 151.188 155.114L151.349 155.231C151.362 155.244 151.387 155.244 151.411 155.231Z" fill="#8AA8FF"/>
<path d="M151.138 155.375L151.312 155.283C151.324 155.27 151.336 155.257 151.312 155.244L151.15 155.127C151.138 155.113 151.113 155.113 151.088 155.127L150.915 155.218C150.902 155.231 150.89 155.244 150.915 155.257L151.076 155.375C151.101 155.388 151.126 155.388 151.138 155.375Z" fill="#8AA8FF"/>
<path d="M152.452 154.983L152.626 154.891C152.639 154.878 152.651 154.865 152.626 154.852L152.465 154.734C152.452 154.721 152.428 154.721 152.403 154.734L152.229 154.826C152.217 154.839 152.204 154.852 152.229 154.865L152.39 154.983C152.415 154.983 152.44 154.996 152.452 154.983Z" fill="#8AA8FF"/>
<path d="M152.193 155.127L152.366 155.035C152.379 155.022 152.391 155.009 152.366 154.996L152.205 154.878C152.193 154.865 152.168 154.865 152.143 154.878L151.969 154.97C151.957 154.983 151.945 154.996 151.969 155.009L152.131 155.127C152.143 155.127 152.168 155.127 152.193 155.127Z" fill="#8AA8FF"/>
<path d="M151.919 155.27L152.093 155.179C152.105 155.166 152.118 155.153 152.093 155.14L151.932 155.022C151.919 155.009 151.894 155.009 151.87 155.022L151.696 155.114C151.684 155.127 151.671 155.14 151.696 155.153L151.857 155.27C151.882 155.27 151.907 155.27 151.919 155.27Z" fill="#8AA8FF"/>
<path d="M151.658 155.401L151.831 155.31C151.844 155.297 151.856 155.284 151.831 155.271L151.67 155.153C151.658 155.14 151.633 155.14 151.608 155.153L151.434 155.244C151.422 155.257 151.409 155.271 151.434 155.284L151.596 155.401C151.62 155.414 151.645 155.414 151.658 155.401Z" fill="#8AA8FF"/>
<path d="M151.398 155.545L151.571 155.453C151.584 155.44 151.596 155.427 151.571 155.414L151.41 155.296C151.398 155.283 151.373 155.283 151.348 155.296L151.174 155.388C151.162 155.401 151.15 155.414 151.174 155.427L151.336 155.545C151.348 155.558 151.373 155.558 151.398 155.545Z" fill="#8AA8FF"/>
<path d="M152.976 155.009L153.15 154.918C153.162 154.905 153.174 154.892 153.15 154.878L152.988 154.761C152.976 154.748 152.951 154.748 152.926 154.761L152.753 154.852C152.74 154.865 152.728 154.878 152.753 154.892L152.914 155.009C152.926 155.022 152.951 155.022 152.976 155.009Z" fill="#8AA8FF"/>
<path d="M152.702 155.153L152.876 155.062C152.889 155.049 152.901 155.036 152.876 155.022L152.715 154.905C152.702 154.892 152.678 154.892 152.653 154.905L152.479 154.996C152.467 155.009 152.454 155.022 152.479 155.036L152.64 155.153C152.665 155.166 152.69 155.166 152.702 155.153Z" fill="#8AA8FF"/>
<path d="M152.443 155.297L152.616 155.205C152.629 155.192 152.641 155.179 152.616 155.166L152.455 155.048C152.443 155.035 152.418 155.035 152.393 155.048L152.219 155.14C152.207 155.153 152.195 155.166 152.219 155.179L152.381 155.297C152.405 155.297 152.43 155.297 152.443 155.297Z" fill="#8AA8FF"/>
<path d="M152.169 155.44L152.343 155.349C152.355 155.336 152.368 155.323 152.343 155.31L152.182 155.192C152.169 155.179 152.144 155.179 152.12 155.192L151.946 155.283C151.934 155.297 151.921 155.31 151.946 155.323L152.107 155.44C152.132 155.44 152.157 155.44 152.169 155.44Z" fill="#8AA8FF"/>
<path d="M151.908 155.584L152.081 155.493C152.094 155.48 152.106 155.467 152.081 155.454L151.92 155.336C151.908 155.323 151.883 155.323 151.858 155.336L151.684 155.427C151.672 155.441 151.659 155.454 151.684 155.467L151.846 155.584C151.87 155.584 151.895 155.584 151.908 155.584Z" fill="#8AA8FF"/>
<path d="M151.648 155.715L151.821 155.624C151.834 155.611 151.846 155.598 151.821 155.584L151.66 155.467C151.648 155.454 151.623 155.454 151.598 155.467L151.424 155.558C151.412 155.571 151.4 155.584 151.424 155.598L151.586 155.715C151.598 155.728 151.623 155.728 151.648 155.715Z" fill="#8AA8FF"/>
<path d="M153.224 155.179L153.398 155.087C153.41 155.074 153.422 155.061 153.398 155.048L153.236 154.93C153.224 154.917 153.199 154.917 153.174 154.93L153.001 155.022C152.988 155.035 152.976 155.048 153.001 155.061L153.162 155.179C153.174 155.192 153.212 155.192 153.224 155.179Z" fill="#8AA8FF"/>
<path d="M152.951 155.323L153.124 155.231C153.137 155.218 153.149 155.205 153.124 155.192L152.963 155.074C152.951 155.061 152.926 155.061 152.901 155.074L152.727 155.166C152.715 155.179 152.702 155.192 152.727 155.205L152.888 155.323C152.913 155.336 152.938 155.336 152.951 155.323Z" fill="#8AA8FF"/>
<path d="M152.691 155.466L152.864 155.375C152.877 155.362 152.889 155.349 152.864 155.335L152.703 155.218C152.691 155.205 152.666 155.205 152.641 155.218L152.467 155.309C152.455 155.322 152.443 155.335 152.467 155.349L152.629 155.466C152.654 155.479 152.678 155.479 152.691 155.466Z" fill="#8AA8FF"/>
<path d="M152.429 155.61L152.603 155.518C152.615 155.505 152.628 155.492 152.603 155.479L152.441 155.361C152.429 155.348 152.404 155.348 152.379 155.361L152.206 155.453C152.193 155.466 152.181 155.479 152.206 155.492L152.367 155.61C152.379 155.61 152.404 155.61 152.429 155.61Z" fill="#8AA8FF"/>
<path d="M152.156 155.754L152.329 155.662C152.342 155.649 152.354 155.636 152.329 155.623L152.168 155.505C152.156 155.492 152.131 155.492 152.106 155.505L151.932 155.597C151.92 155.61 151.907 155.623 151.932 155.636L152.094 155.754C152.118 155.754 152.143 155.754 152.156 155.754Z" fill="#8AA8FF"/>
<path d="M151.896 155.897L152.069 155.806C152.082 155.793 152.094 155.78 152.069 155.767L151.908 155.649C151.896 155.636 151.871 155.636 151.846 155.649L151.673 155.74C151.66 155.754 151.648 155.767 151.673 155.78L151.834 155.897C151.846 155.897 151.871 155.897 151.896 155.897Z" fill="#8AA8FF"/>
<path d="M153.472 155.349L153.646 155.257C153.658 155.244 153.67 155.231 153.646 155.218L153.484 155.1C153.472 155.087 153.447 155.087 153.422 155.1L153.249 155.192C153.236 155.205 153.224 155.218 153.249 155.231L153.41 155.349C153.422 155.349 153.447 155.349 153.472 155.349Z" fill="#8AA8FF"/>
<path d="M153.199 155.493L153.372 155.401C153.385 155.388 153.397 155.375 153.372 155.362L153.211 155.244C153.199 155.231 153.174 155.231 153.149 155.244L152.975 155.336C152.963 155.349 152.95 155.362 152.975 155.375L153.137 155.493C153.161 155.493 153.186 155.493 153.199 155.493Z" fill="#8AA8FF"/>
<path d="M152.939 155.636L153.112 155.545C153.125 155.532 153.137 155.518 153.112 155.505L152.951 155.388C152.939 155.375 152.914 155.375 152.889 155.388L152.715 155.479C152.703 155.492 152.691 155.505 152.715 155.518L152.877 155.636C152.889 155.636 152.914 155.636 152.939 155.636Z" fill="#8AA8FF"/>
<path d="M152.665 155.767L152.839 155.675C152.851 155.662 152.864 155.649 152.839 155.636L152.678 155.519C152.665 155.506 152.641 155.506 152.616 155.519L152.442 155.61C152.43 155.623 152.417 155.636 152.442 155.649L152.603 155.767C152.628 155.78 152.653 155.78 152.665 155.767Z" fill="#8AA8FF"/>
<path d="M152.406 155.911L152.579 155.819C152.592 155.806 152.604 155.793 152.579 155.78L152.418 155.662C152.406 155.649 152.381 155.649 152.356 155.662L152.182 155.754C152.17 155.767 152.157 155.78 152.182 155.793L152.344 155.911C152.356 155.924 152.381 155.924 152.406 155.911Z" fill="#8AA8FF"/>
<path d="M152.132 156.055L152.306 155.963C152.318 155.95 152.331 155.937 152.306 155.924L152.145 155.806C152.132 155.793 152.107 155.793 152.083 155.806L151.909 155.898C151.896 155.911 151.884 155.924 151.909 155.937L152.07 156.055C152.095 156.068 152.12 156.068 152.132 156.055Z" fill="#8AA8FF"/>
<path d="M153.72 155.518L153.894 155.427C153.906 155.414 153.919 155.401 153.894 155.388L153.732 155.27C153.72 155.257 153.695 155.257 153.67 155.27L153.497 155.362C153.484 155.375 153.472 155.388 153.497 155.401L153.658 155.518C153.67 155.531 153.695 155.531 153.72 155.518Z" fill="#8AA8FF"/>
<path d="M153.447 155.662L153.62 155.57C153.633 155.557 153.645 155.544 153.62 155.531L153.459 155.414C153.447 155.401 153.422 155.401 153.397 155.414L153.223 155.505C153.211 155.518 153.198 155.531 153.223 155.544L153.385 155.662C153.409 155.662 153.434 155.662 153.447 155.662Z" fill="#8AA8FF"/>
<path d="M153.187 155.806L153.361 155.715C153.373 155.701 153.385 155.688 153.361 155.675L153.199 155.558C153.187 155.545 153.162 155.545 153.137 155.558L152.964 155.649C152.951 155.662 152.939 155.675 152.964 155.688L153.125 155.806C153.137 155.806 153.162 155.806 153.187 155.806Z" fill="#8AA8FF"/>
<path d="M152.913 155.937L153.087 155.845C153.099 155.832 153.112 155.819 153.087 155.806L152.926 155.689C152.913 155.675 152.889 155.675 152.864 155.689L152.69 155.78C152.678 155.793 152.665 155.806 152.69 155.819L152.851 155.937C152.876 155.95 152.901 155.95 152.913 155.937Z" fill="#8AA8FF"/>
<path d="M152.652 156.08L152.825 155.989C152.838 155.976 152.85 155.963 152.825 155.95L152.664 155.832C152.652 155.819 152.627 155.819 152.602 155.832L152.428 155.924C152.416 155.937 152.404 155.95 152.428 155.963L152.59 156.08C152.614 156.094 152.639 156.094 152.652 156.08Z" fill="#8AA8FF"/>
<path d="M152.392 156.224L152.566 156.133C152.578 156.12 152.59 156.107 152.566 156.094L152.404 155.976C152.392 155.963 152.367 155.963 152.342 155.976L152.169 156.068C152.156 156.081 152.144 156.094 152.169 156.107L152.33 156.224C152.342 156.238 152.367 156.238 152.392 156.224Z" fill="#8AA8FF"/>
<path d="M153.968 155.688L154.142 155.597C154.154 155.584 154.167 155.571 154.142 155.558L153.98 155.44C153.968 155.427 153.943 155.427 153.918 155.44L153.745 155.531C153.732 155.545 153.72 155.558 153.745 155.571L153.906 155.688C153.918 155.701 153.943 155.701 153.968 155.688Z" fill="#8AA8FF"/>
<path d="M153.695 155.832L153.868 155.741C153.881 155.728 153.893 155.715 153.868 155.702L153.707 155.584C153.695 155.571 153.67 155.571 153.645 155.584L153.471 155.676C153.459 155.689 153.447 155.702 153.471 155.715L153.633 155.832C153.657 155.845 153.682 155.845 153.695 155.832Z" fill="#8AA8FF"/>
<path d="M153.435 155.976L153.609 155.884C153.621 155.871 153.633 155.858 153.609 155.845L153.447 155.728C153.435 155.715 153.41 155.715 153.385 155.728L153.212 155.819C153.199 155.832 153.187 155.845 153.212 155.858L153.373 155.976C153.398 155.976 153.422 155.976 153.435 155.976Z" fill="#8AA8FF"/>
<path d="M153.173 156.12L153.347 156.028C153.359 156.015 153.372 156.002 153.347 155.989L153.186 155.871C153.173 155.858 153.148 155.858 153.124 155.871L152.95 155.963C152.937 155.976 152.925 155.989 152.95 156.002L153.111 156.12C153.124 156.12 153.148 156.12 153.173 156.12Z" fill="#8AA8FF"/>
<path d="M152.9 156.25L153.073 156.159C153.086 156.146 153.098 156.133 153.073 156.12L152.912 156.002C152.9 155.989 152.875 155.989 152.85 156.002L152.676 156.093C152.664 156.107 152.652 156.12 152.676 156.133L152.838 156.25C152.863 156.263 152.887 156.263 152.9 156.25Z" fill="#8AA8FF"/>
<path d="M152.64 156.394L152.814 156.303C152.826 156.29 152.838 156.277 152.814 156.264L152.652 156.146C152.64 156.133 152.615 156.133 152.59 156.146L152.417 156.238C152.404 156.251 152.392 156.264 152.417 156.277L152.578 156.394C152.59 156.407 152.615 156.407 152.64 156.394Z" fill="#8AA8FF"/>
<path d="M154.216 155.858L154.39 155.767C154.402 155.754 154.415 155.741 154.39 155.728L154.229 155.61C154.216 155.597 154.191 155.597 154.167 155.61L153.993 155.701C153.98 155.714 153.968 155.728 153.993 155.741L154.154 155.858C154.167 155.871 154.204 155.871 154.216 155.858Z" fill="#8AA8FF"/>
<path d="M153.943 156.002L154.116 155.911C154.129 155.898 154.141 155.885 154.116 155.872L153.955 155.754C153.943 155.741 153.918 155.741 153.893 155.754L153.719 155.845C153.707 155.859 153.695 155.872 153.719 155.885L153.881 156.002C153.905 156.015 153.93 156.015 153.943 156.002Z" fill="#8AA8FF"/>
<path d="M153.683 156.146L153.857 156.054C153.869 156.041 153.881 156.028 153.857 156.015L153.695 155.897C153.683 155.884 153.658 155.884 153.633 155.897L153.46 155.989C153.447 156.002 153.435 156.015 153.46 156.028L153.621 156.146C153.646 156.159 153.671 156.159 153.683 156.146Z" fill="#8AA8FF"/>
<path d="M153.421 156.289L153.595 156.198C153.607 156.185 153.62 156.172 153.595 156.159L153.434 156.041C153.421 156.028 153.396 156.028 153.372 156.041L153.198 156.133C153.186 156.146 153.173 156.159 153.198 156.172L153.359 156.289C153.372 156.289 153.396 156.289 153.421 156.289Z" fill="#8AA8FF"/>
<path d="M153.148 156.433L153.321 156.342C153.334 156.329 153.346 156.316 153.321 156.303L153.16 156.185C153.148 156.172 153.123 156.172 153.098 156.185L152.924 156.277C152.912 156.29 152.9 156.303 152.924 156.316L153.086 156.433C153.111 156.433 153.135 156.433 153.148 156.433Z" fill="#8AA8FF"/>
<path d="M152.888 156.564L153.062 156.473C153.074 156.46 153.086 156.447 153.062 156.434L152.9 156.316C152.888 156.303 152.863 156.303 152.838 156.316L152.665 156.407C152.652 156.421 152.64 156.434 152.665 156.447L152.826 156.564C152.838 156.577 152.863 156.577 152.888 156.564Z" fill="#8AA8FF"/>
<path d="M154.464 156.028L154.638 155.937C154.65 155.924 154.663 155.911 154.638 155.897L154.477 155.78C154.464 155.767 154.439 155.767 154.415 155.78L154.241 155.871C154.228 155.884 154.216 155.897 154.241 155.911L154.402 156.028C154.427 156.041 154.452 156.041 154.464 156.028Z" fill="#8AA8FF"/>
<path d="M154.202 156.172L154.376 156.081C154.389 156.068 154.401 156.055 154.376 156.041L154.215 155.924C154.202 155.911 154.178 155.911 154.153 155.924L153.979 156.015C153.967 156.028 153.954 156.042 153.979 156.055L154.14 156.172C154.153 156.185 154.178 156.185 154.202 156.172Z" fill="#8AA8FF"/>
<path d="M153.931 156.316L154.105 156.224C154.117 156.211 154.129 156.198 154.105 156.185L153.943 156.067C153.931 156.054 153.906 156.054 153.881 156.067L153.708 156.159C153.695 156.172 153.683 156.185 153.708 156.198L153.869 156.316C153.894 156.329 153.919 156.329 153.931 156.316Z" fill="#8AA8FF"/>
<path d="M153.669 156.459L153.843 156.368C153.855 156.355 153.868 156.342 153.843 156.329L153.682 156.211C153.669 156.198 153.644 156.198 153.62 156.211L153.446 156.302C153.434 156.316 153.421 156.329 153.446 156.342L153.607 156.459C153.62 156.472 153.644 156.472 153.669 156.459Z" fill="#8AA8FF"/>
<path d="M153.396 156.603L153.569 156.512C153.582 156.499 153.594 156.486 153.569 156.473L153.408 156.355C153.396 156.342 153.371 156.342 153.346 156.355L153.173 156.447C153.16 156.46 153.148 156.473 153.173 156.486L153.334 156.603C153.359 156.603 153.383 156.603 153.396 156.603Z" fill="#8AA8FF"/>
<path d="M153.136 156.747L153.31 156.655C153.322 156.642 153.335 156.629 153.31 156.616L153.148 156.499C153.136 156.486 153.111 156.486 153.086 156.499L152.913 156.59C152.9 156.603 152.888 156.616 152.913 156.629L153.074 156.747C153.099 156.747 153.124 156.747 153.136 156.747Z" fill="#8AA8FF"/>
<path d="M152.901 154.721L150.494 153.061C150.482 153.048 150.457 153.048 150.432 153.061L150.258 153.153C150.246 153.166 150.234 153.179 150.258 153.192L152.665 154.852C152.677 154.865 152.702 154.865 152.727 154.852L152.901 154.76C152.913 154.747 152.913 154.734 152.901 154.721Z" fill="#8AA8FF"/>
<path d="M151.597 158.055L151.87 157.911L151.572 157.048H151.262L151.597 158.055Z" fill="#8AA8FF"/>
<path d="M161.409 154.212C161.409 154.212 159.809 156.63 155.517 154.878C151.225 153.127 152.068 151.649 152.068 151.649C152.068 151.649 151.647 142.8 152.068 140.734C152.49 138.669 153.011 137.322 153.966 136.708C153.966 136.708 158.68 138.512 159.623 139.571C160.181 140.198 160.405 145.087 160.814 148.944C161.074 151.558 161.409 154.212 161.409 154.212Z" fill="#FFC700"/>
<path d="M150.99 143.022L150.543 148.682L147.752 152.891L149.092 153.597L152.007 150.421L151.883 143.506L150.99 143.022Z" fill="#F89AB5"/>
<path d="M156.919 136.081L157.366 138.59C157.366 138.59 157.093 139.623 155.915 139.283C154.736 138.943 154.91 138.185 154.91 138.185L154.848 136.525L156.919 136.081Z" fill="#F89AB5"/>
<path d="M154.848 136.59C154.848 136.59 155.245 137.532 157.155 137.349L156.857 135.741L154.848 136.59Z" fill="#DB8FAA"/>
<path d="M153.247 133.897C153.706 136.172 154.624 137.362 155.802 137.1C156.993 136.826 158.308 135.675 157.799 133.165C157.44 131.388 156.187 130.172 154.996 130.446C152.974 130.891 152.887 132.12 153.247 133.897Z" fill="#F89AB5"/>
<path d="M153.011 132.224C152.775 132.107 152.663 131.819 152.75 131.544C152.924 131.022 153.333 130.211 154.263 129.963C155.33 129.675 157.849 128.917 158.32 133.453C158.32 133.453 158.32 133.531 158.32 134.015C158.32 134.015 157.303 133.178 157.079 132.826C156.856 132.473 156.397 132.224 155.789 132.211C155.268 132.198 155.02 132.263 154.611 132.59C154.388 132.773 154.09 132.799 153.842 132.669L153.011 132.224Z" fill="#0A1A4E"/>
<path d="M156.87 133.898C156.957 134.329 157.366 134.604 157.776 134.512C158.185 134.421 158.446 133.989 158.359 133.558C158.272 133.126 157.863 132.852 157.453 132.943C157.044 133.035 156.783 133.466 156.87 133.898Z" fill="#F89AB5"/>
<path d="M154.748 139.519C155.307 139.832 156.2 139.806 156.733 139.44C157.267 139.087 157.254 138.538 156.696 138.225C156.138 137.911 155.245 137.937 154.711 138.303C154.178 138.669 154.19 139.205 154.748 139.519Z" fill="#E9A71A"/>
<path d="M155.021 139.336C155.58 139.649 156.448 139.61 156.981 139.27C157.515 138.917 157.49 138.381 156.944 138.081C156.386 137.767 155.518 137.806 154.984 138.146C154.451 138.486 154.475 139.022 155.021 139.336Z" fill="#F89AB5"/>
<path d="M155.951 132.211L156.857 133.649L157.316 133.27L157.167 132.695L156.447 131.832L155.951 132.211Z" fill="#0A1A4E"/>
<path d="M156.981 144.355L156.014 150.682L156.374 150.068L152.714 153.859C152.416 154.173 152.404 154.682 152.702 155.009C152.974 155.297 153.409 155.336 153.706 155.101L157.837 151.898L158.061 151.728L158.209 151.271L160.182 145.205C160.48 144.29 160.021 143.297 159.152 142.983C158.284 142.669 157.341 143.153 157.043 144.068C157.019 144.159 156.994 144.264 156.981 144.355Z" fill="#F89AB5"/>
<path d="M159.86 146.264L159.748 146.578C159.748 146.578 158.47 147.257 156.746 145.95L156.87 145.31L159.86 146.264Z" fill="#E6E6E6"/>
<path d="M156.584 145.336C157.291 146.407 159.4 146.813 160.119 146.068L160.951 141.257C161.087 140.342 160.392 139.479 159.412 139.322C158.346 139.152 157.366 139.819 157.229 140.813L156.584 145.336Z" fill="#FFC700"/>
<path d="M153.199 153.623L152.182 154.303L152.256 155.27L152.393 155.937L152.554 156.564L154.129 154.996C154.266 154.852 154.365 154.682 154.39 154.473L154.514 153.754L153.199 153.623Z" fill="#F89AB5"/>
<path d="M151.289 155.728C151.388 155.728 151.487 155.662 151.537 155.558C151.735 155.127 152.529 154.734 152.802 154.63C152.951 154.577 153.013 154.408 152.963 154.251C152.914 154.094 152.752 154.028 152.604 154.081C152.479 154.133 151.363 154.591 151.028 155.31C150.966 155.453 151.016 155.636 151.165 155.702C151.202 155.715 151.239 155.728 151.289 155.728Z" fill="#F89AB5"/>
<path d="M151.884 154.46C151.896 154.46 151.896 154.46 151.909 154.46C152.703 154.381 153.335 154.185 153.36 154.185C153.509 154.146 153.596 153.976 153.546 153.819C153.509 153.662 153.348 153.571 153.199 153.623C153.199 153.623 152.579 153.806 151.847 153.885C151.698 153.898 151.586 154.041 151.599 154.198C151.611 154.342 151.735 154.46 151.884 154.46Z" fill="#F89AB5"/>
<path d="M151.474 156.368C151.585 156.368 151.697 156.29 151.734 156.172C151.871 155.715 152.615 155.218 152.876 155.074C153.012 154.996 153.062 154.826 152.987 154.682C152.913 154.538 152.752 154.486 152.615 154.564C152.491 154.63 151.449 155.244 151.213 156.002C151.164 156.159 151.251 156.316 151.387 156.368C151.412 156.368 151.449 156.368 151.474 156.368Z" fill="#F89AB5"/>
<path d="M151.97 156.604C152.082 156.604 152.193 156.525 152.23 156.407C152.367 155.95 153.099 155.453 153.372 155.309C153.508 155.231 153.558 155.061 153.483 154.917C153.409 154.773 153.248 154.721 153.111 154.8C152.987 154.865 151.945 155.479 151.709 156.238C151.66 156.394 151.747 156.551 151.883 156.604C151.908 156.604 151.933 156.604 151.97 156.604Z" fill="#F89AB5"/>
<path d="M152.528 156.787C152.665 156.787 152.789 156.682 152.801 156.538C152.863 156.081 153.434 155.597 153.645 155.453C153.769 155.362 153.806 155.179 153.732 155.048C153.645 154.918 153.484 154.878 153.347 154.957C153.248 155.022 152.367 155.65 152.255 156.46C152.231 156.617 152.342 156.774 152.491 156.787C152.504 156.787 152.516 156.787 152.528 156.787Z" fill="#F89AB5"/>
<path d="M151.871 157.911L150.233 153.035C150.196 152.944 150.134 152.852 150.06 152.8L144.254 148.878C144.204 148.852 144.155 148.852 144.118 148.891C144.08 148.93 144.055 148.983 144.08 149.035L145.544 153.741L151.871 157.911Z" fill="#8AA8FF"/>
<path d="M143.857 149.022L144.13 148.878C144.143 148.878 144.155 148.865 144.168 148.865C144.168 148.865 144.168 148.865 144.18 148.865C144.205 148.865 144.23 148.865 144.254 148.891L149.874 152.695L150.048 152.813C150.097 152.839 150.134 152.878 150.159 152.931L149.874 153.074L144.217 149.257L144.18 149.284L143.857 149.022Z" fill="#D2E4FF"/>
<path d="M151.597 158.055L149.96 153.179C149.923 153.088 149.861 152.996 149.786 152.944L143.981 149.022C143.931 148.996 143.881 148.996 143.844 149.035C143.807 149.074 143.782 149.127 143.807 149.179L145.271 153.885L151.597 158.055Z" fill="#AEC5FF"/>
<path d="M146.411 153.048C146.473 153.637 146.944 154.316 147.453 154.552C147.962 154.787 148.334 154.512 148.272 153.911C148.21 153.323 147.738 152.643 147.23 152.408C146.721 152.173 146.349 152.46 146.411 153.048Z" fill="#8AA8FF"/>
<path d="M143.932 126.459L148.484 129.231V99.2562L143.932 96.4849V126.459Z" fill="#A7D2E3"/>
<path d="M153.049 126.459L148.484 129.231V99.2562L153.049 96.4849V126.459Z" fill="#4596B4"/>
<path d="M143.932 96.4847L148.484 99.256L153.049 96.4847L148.484 93.7134L143.932 96.4847Z" fill="#93C9DE"/>
<path d="M133.896 119.78L138.462 122.551V88.1321L133.896 85.3608V119.78Z" fill="#A7D2E3"/>
<path d="M143.016 119.78L138.463 122.551V88.1321L143.016 85.3608V119.78Z" fill="#4596B4"/>
<path d="M133.896 85.3607L138.462 88.132L143.014 85.3607L138.462 82.5894L133.896 85.3607Z" fill="#93C9DE"/>
<path d="M123.75 112.864L128.315 115.636V75.7918L123.75 73.0205V112.864Z" fill="#A7D2E3"/>
<path d="M132.867 112.864L128.314 115.636V75.7918L132.867 73.0205V112.864Z" fill="#4596B4"/>
<path d="M123.75 73.0203L128.315 75.7916L132.868 73.0203L128.315 70.249L123.75 73.0203Z" fill="#93C9DE"/>
<path d="M113.639 106.903L118.191 109.688V64.5233L113.639 61.752V106.903Z" fill="#A7D2E3"/>
<path d="M122.744 106.903L118.191 109.688V64.5233L122.744 61.752V106.903Z" fill="#4596B4"/>
<path d="M113.639 61.7523L118.191 64.5236L122.744 61.7523L118.191 58.981L113.639 61.7523Z" fill="#93C9DE"/>
<path d="M103.615 100.968L108.18 103.739V53.1502L103.615 50.3789V100.968Z" fill="#A7D2E3"/>
<path d="M112.732 100.968L108.18 103.739V53.1502L112.732 50.3789V100.968Z" fill="#4596B4"/>
<path d="M103.615 50.3792L108.18 53.1505L112.733 50.3792L108.18 47.6079L103.615 50.3792Z" fill="#93C9DE"/>
<path d="M93.3926 94.6808L97.9577 97.4521V41.5555L93.3926 38.7842V94.6808Z" fill="#A7D2E3"/>
<path d="M102.51 94.6808L97.957 97.4521V41.5555L102.51 38.7842V94.6808Z" fill="#4596B4"/>
<path d="M93.3926 38.7844L97.9577 41.5557L102.51 38.7844L97.9577 36L93.3926 38.7844Z" fill="#93C9DE"/>
<circle cx="233.5" cy="184.5" r="36.5" fill="#00ADEE"/>
</g>
<defs>
<linearGradient id="paint0_linear" x1="26.002" y1="54.5557" x2="144.502" y2="227.056" gradientUnits="userSpaceOnUse">
<stop stop-color="#EFEFEF"/>
<stop offset="1" stop-color="white"/>
</linearGradient>
<linearGradient id="paint1_linear" x1="26.9269" y1="103.46" x2="29.1683" y2="103.4" gradientUnits="userSpaceOnUse">
<stop stop-color="#FCE559"/>
<stop offset="1" stop-color="#F6AA28"/>
</linearGradient>
<linearGradient id="paint2_linear" x1="67.2614" y1="102.942" x2="70.4774" y2="102.856" gradientUnits="userSpaceOnUse">
<stop stop-color="#FCE559"/>
<stop offset="1" stop-color="#F6AA28"/>
</linearGradient>
<linearGradient id="paint3_linear" x1="26.9682" y1="105.081" x2="70.5058" y2="103.919" gradientUnits="userSpaceOnUse">
<stop stop-color="#FCE559"/>
<stop offset="1" stop-color="#F6AA28"/>
</linearGradient>
<linearGradient id="paint4_linear" x1="32.9708" y1="90.9078" x2="50.3658" y2="117.731" gradientUnits="userSpaceOnUse">
<stop stop-color="#FCE559"/>
<stop offset="1" stop-color="#F6AA28"/>
</linearGradient>
<linearGradient id="paint5_linear" x1="50.6055" y1="87.1407" x2="47.4284" y2="113.017" gradientUnits="userSpaceOnUse">
<stop stop-color="#FCE559"/>
<stop offset="1" stop-color="#F6AA28"/>
</linearGradient>
<linearGradient id="paint6_linear" x1="50.4179" y1="110.543" x2="50.5424" y2="88.2832" gradientUnits="userSpaceOnUse">
<stop stop-color="#FCD835"/>
<stop offset="1" stop-color="#FAA925"/>
</linearGradient>
<linearGradient id="paint7_linear" x1="50.2242" y1="109.387" x2="50.3353" y2="89.5262" gradientUnits="userSpaceOnUse">
<stop stop-color="#FFC533"/>
<stop offset="1" stop-color="#F8BA26"/>
</linearGradient>
<linearGradient id="paint8_linear" x1="38.3968" y1="100.594" x2="58.8564" y2="100.048" gradientUnits="userSpaceOnUse">
<stop stop-color="#FCD835"/>
<stop offset="1" stop-color="#FAA925"/>
</linearGradient>
<linearGradient id="paint9_linear" x1="58.822" y1="195.97" x2="73.0778" y2="195.97" gradientUnits="userSpaceOnUse">
<stop stop-color="#3BBFFF"/>
<stop offset="0.2913" stop-color="#2F93F0"/>
<stop offset="0.6027" stop-color="#256BE2"/>
<stop offset="0.8498" stop-color="#1E52D9"/>
<stop offset="1" stop-color="#1C49D6"/>
</linearGradient>
<clipPath id="clip0">
<rect width="272" height="253" fill="white"/>
</clipPath>
</defs>
</svg>
