<?xml version="1.0" encoding="UTF-8"?>
<svg xmlns="http://www.w3.org/2000/svg" width="60" height="60" viewBox="0 0 60 60" fill="none">
  <g clip-path="url(#56q47kycsa)">
    <g clip-path="url(#3yxv400v1b)" fill="#000">
      <path d="M34.318 9.19c-.901 0-1.634.725-1.634 1.616 0 .892.733 1.617 1.634 1.617.9 0 1.633-.725 1.633-1.617 0-.891-.732-1.617-1.633-1.617zm0 1.954a.34.34 0 0 1-.342-.338.341.341 0 0 1 .683 0 .34.34 0 0 1-.341.338zM38.54 9.19c-.9 0-1.634.725-1.634 1.616 0 .892.734 1.617 1.634 1.617.901 0 1.634-.725 1.634-1.617 0-.891-.733-1.617-1.634-1.617zm0 1.954a.34.34 0 0 1-.342-.338.34.34 0 0 1 .342-.339.339.339 0 1 1 0 .677zM42.766 9.19c-.901 0-1.633.725-1.633 1.616 0 .892.733 1.617 1.633 1.617.901 0 1.634-.725 1.634-1.617 0-.891-.733-1.617-1.634-1.617zm0 1.954a.34.34 0 0 1-.341-.338.34.34 0 0 1 .34-.339.34.34 0 0 1 .343.338.34.34 0 0 1-.342.339zM6.646 21.64h37.56a.643.643 0 0 0 .646-.64v-4.263c0-.353-.29-.64-.646-.64H6.646a.643.643 0 0 0-.646.64V21c0 .353.29.64.646.64zm.646-4.264H43.56v2.985H7.292v-2.985zM33.034 24.625H6.646a.643.643 0 0 0-.646.64c0 .352.29.639.646.639h26.388a.643.643 0 0 0 .646-.64c0-.353-.29-.639-.646-.639zM33.034 28.889H6.646a.643.643 0 0 0-.646.639c0 .353.29.64.646.64h26.388a.643.643 0 0 0 .646-.64c0-.353-.29-.64-.646-.64zM33.034 33.152H6.646a.643.643 0 0 0-.646.64c0 .352.29.639.646.639h26.388a.643.643 0 0 0 .646-.64c0-.352-.29-.639-.646-.639zM33.034 37.416H6.646a.643.643 0 0 0-.646.64c0 .352.29.638.646.638h26.388a.643.643 0 0 0 .646-.639c0-.353-.29-.639-.646-.639z"></path>
      <path d="M58.065 31.563a.65.65 0 0 0-.9.16l-1.446 2.06-2.904-.578a7.005 7.005 0 0 0-.478-.575l4.02-.753a.644.644 0 0 0 .459-.346l1.443-2.904a.637.637 0 0 0-.295-.856.647.647 0 0 0-.865.292l-1.3 2.617-4.071.763 2.188-3.702a.632.632 0 0 0-.004-.65l-1.83-3.032a.65.65 0 0 0-.886-.22.635.635 0 0 0-.223.876l1.634 2.707-1.221 2.068a4.487 4.487 0 0 0-1.96-2.647c.701-1.197.213-2.415-.557-3.071a.65.65 0 0 0-.912.067.634.634 0 0 0 .068.902c.473.401.633 1.008.214 1.588a4.58 4.58 0 0 0-.606-.13V10.44c0-1.62-1.332-2.94-2.97-2.94H6.186c-1.639 0-2.972 1.32-2.972 2.94v30.646c0 1.622 1.333 2.94 2.972 2.94H37.56l.456 3.829a.644.644 0 0 0 .718.56.641.641 0 0 0 .566-.71l-.439-3.678h5.75a7.136 7.136 0 0 0 2.447.438h.049c3.943-.026 7.13-3.22 7.105-7.123a6.92 6.92 0 0 0-.04-.603l1.818.896-1.056 9.967a.641.641 0 0 0 .575.702.645.645 0 0 0 .71-.57l1.102-10.406a.641.641 0 0 0-.354-.64l-3.133-1.546a6.92 6.92 0 0 0-.18-.466c1.032.206 2.294.454 2.353.454.209 0 .408-.1.53-.275l1.69-2.403a.633.633 0 0 0-.163-.89zM4.507 10.44c0-.918.753-1.662 1.679-1.662h38.477c.926 0 1.679.746 1.679 1.662v2.394H4.507V10.44zm1.68 32.307a1.672 1.672 0 0 1-1.68-1.662V14.113h41.836v12.09c-.219.032-.43.081-.637.143-.412-.558-.315-1.112.194-1.598a.633.633 0 0 0 .052-.899.651.651 0 0 0-.913-.056c-.768.672-1.23 1.9-.513 3.085a4.49 4.49 0 0 0-1.923 2.746l-1.298-2.132 1.598-2.728a.636.636 0 0 0-.234-.874.65.65 0 0 0-.882.233l-1.79 3.054a.631.631 0 0 0 .005.65l2.233 3.668-4.045-.703-1.335-2.6a.649.649 0 0 0-.87-.28.636.636 0 0 0-.282.86l1.481 2.884c.092.18.265.305.465.34l4.065.706a7.133 7.133 0 0 0-.462.574l-2.917.618-1.476-2.037a.65.65 0 0 0-.901-.147.635.635 0 0 0-.15.892l1.723 2.378c.124.17.32.266.525.266.064 0 1.336-.267 2.374-.487-.06.148-.118.297-.167.45l-3.14 1.6a.638.638 0 0 0-.344.643l.63 5.292H6.188v.004zm32.523 0-.597-5.003 1.828-.932a6.83 6.83 0 0 0-.032.621c.014 2.123.986 4.023 2.502 5.313H38.71zm8.39.438-.04.639v-.64c-3.21 0-5.838-2.583-5.859-5.758a5.77 5.77 0 0 1 2.57-4.837c.251-.17.35-.49.235-.768-.855-2.083.692-4.395 3.009-4.408 2.267 0 3.85 2.273 3.025 4.368a.653.653 0 0 0 .245.767 5.776 5.776 0 0 1 2.635 4.802c.021 3.196-2.59 5.814-5.82 5.835z"></path>
      <path d="M29.766 10.168H7.064a.643.643 0 0 0-.646.64c0 .352.29.638.646.638h22.702a.643.643 0 0 0 .646-.639c0-.353-.29-.639-.646-.639z"></path>
    </g>
  </g>
  <defs>
    <clipPath id="56q47kycsa">
      <path fill="#fff" d="M0 0h60v60H0z"></path>
    </clipPath>
    <clipPath id="3yxv400v1b">
      <path fill="#fff" transform="translate(3.215 7.5)" d="M0 0h56.786v42.857H0z"></path>
    </clipPath>
  </defs>
</svg>
