<svg width="558" height="579" viewBox="0 0 558 579" fill="none" xmlns="http://www.w3.org/2000/svg">
<circle cx="171.312" cy="504" r="75" fill="#FFC700"/>
<path d="M0.782693 251.416C1.51445 165.675 138.245 84.716 206.519 54.9543C446.895 -65.9187 509.223 55.3136 529.517 142.572C539.55 185.712 554.42 226.547 520.511 400.184C486.603 573.821 353.274 565.133 290.849 539.085C166.212 494.451 -0.132001 358.592 0.782693 251.416Z" fill="url(#paint0_linear)"/>
<path opacity="0.3" d="M553.373 366.4C553.308 366.508 553.2 366.551 553.092 366.551C553.027 366.551 552.984 366.53 552.94 366.508L530.478 353.533C529.742 353.75 528.854 353.75 528.117 353.555L506.002 366.313C506.674 366.833 506.695 367.526 506.067 368.046L528.052 380.76C528.204 380.847 528.247 381.042 528.161 381.194C528.096 381.302 527.987 381.345 527.879 381.345C527.814 381.345 527.771 381.324 527.728 381.302L505.396 368.436C504.486 368.804 503.251 368.804 502.363 368.414L479.425 381.649C479.793 382.147 479.685 382.732 479.1 383.165L501.713 396.226C501.865 396.313 501.908 396.508 501.822 396.659C501.757 396.768 501.648 396.811 501.54 396.811C501.475 396.811 501.432 396.789 501.388 396.768L478.428 383.49C477.692 383.75 476.804 383.793 476.024 383.598L454.494 396.031C454.602 396.074 454.71 396.118 454.819 396.183C455.75 396.724 455.815 397.569 455.013 398.154L476.934 410.782C477.085 410.868 477.129 411.063 477.042 411.215C476.977 411.323 476.869 411.367 476.761 411.367C476.696 411.367 476.652 411.345 476.609 411.323L454.32 398.5C453.324 398.847 452.003 398.782 451.158 398.284C451.05 398.219 450.963 398.175 450.898 398.111L428.848 410.825C428.913 410.868 428.999 410.89 429.064 410.933C429.952 411.453 430.061 412.255 429.346 412.84L451.591 425.663C451.743 425.749 451.786 425.944 451.699 426.096C451.634 426.204 451.526 426.247 451.418 426.247C451.375 426.247 451.31 426.226 451.266 426.204L428.696 413.208C427.7 413.598 426.313 413.554 425.425 413.035C425.36 412.991 425.295 412.948 425.23 412.905L402.66 425.922C402.812 425.987 402.963 426.052 403.093 426.117C403.96 426.616 404.068 427.395 403.462 427.959L425.75 440.803C425.902 440.89 425.945 441.085 425.859 441.236C425.794 441.345 425.685 441.388 425.577 441.388C425.512 441.388 425.469 441.366 425.425 441.345L402.834 428.327C401.815 428.782 400.364 428.738 399.433 428.197C399.303 428.11 399.173 428.024 399.086 427.937L376.668 440.89C376.689 440.911 376.711 440.911 376.733 440.933C377.534 441.388 377.686 442.103 377.209 442.666L400.104 455.857C400.256 455.944 400.299 456.139 400.213 456.29C400.148 456.399 400.039 456.442 399.931 456.442C399.866 456.442 399.823 456.42 399.779 456.399L376.646 443.056C375.65 443.597 374.068 443.576 373.094 443.013C373.072 442.991 373.05 442.991 373.029 442.969L350.805 455.792C350.87 455.814 350.935 455.857 351 455.9C351.737 456.334 351.932 456.962 351.585 457.482L374.718 470.825C374.87 470.911 374.913 471.106 374.827 471.258C374.762 471.366 374.653 471.409 374.545 471.409C374.502 471.409 374.437 471.388 374.393 471.366L351.13 457.98C351.108 458.002 351.065 458.023 351.043 458.045C350.047 458.63 348.401 458.63 347.405 458.045C347.34 458.002 347.275 457.98 347.231 457.937L325.744 470.326C326.177 470.803 326.156 471.366 325.657 471.821L349.549 485.575C349.701 485.662 349.744 485.857 349.657 486.008C349.592 486.117 349.484 486.16 349.376 486.16C349.311 486.16 349.267 486.138 349.224 486.117L325.029 472.189C324.228 472.536 323.123 472.579 322.257 472.319L299.86 485.25C299.817 485.272 299.752 485.294 299.708 485.294C299.6 485.294 299.492 485.229 299.427 485.142C299.34 484.99 299.383 484.796 299.535 484.709L321.542 472.016C320.741 471.496 320.697 470.695 321.412 470.131L299.167 457.308C298.582 457.547 297.867 457.612 297.196 457.525L274.69 470.521C274.647 470.543 274.582 470.565 274.539 470.565C274.431 470.565 274.322 470.5 274.257 470.413C274.171 470.261 274.214 470.066 274.366 469.98L296.308 457.33C296.178 457.287 296.048 457.222 295.918 457.157C295.03 456.659 294.921 455.857 295.593 455.272L274.452 443.099C273.694 443.359 272.741 443.359 271.983 443.121L248.936 456.42C248.893 456.442 248.828 456.464 248.785 456.464C248.676 456.464 248.568 456.399 248.503 456.312C248.416 456.16 248.46 455.965 248.611 455.879L271.246 442.818C270.488 442.341 270.38 441.626 270.922 441.085L248.178 427.98C247.463 428.283 246.532 428.327 245.73 428.153L223.03 441.258C222.987 441.28 222.922 441.301 222.879 441.301C222.77 441.301 222.662 441.236 222.597 441.15C222.511 440.998 222.554 440.803 222.705 440.717L244.929 427.872C244.907 427.85 244.864 427.85 244.842 427.829C243.933 427.309 243.846 426.486 244.561 425.922L222.554 413.251C221.687 413.598 220.539 413.619 219.673 413.273L197.298 426.204C197.254 426.226 197.189 426.247 197.146 426.247C197.038 426.247 196.93 426.182 196.865 426.096C196.778 425.944 196.821 425.749 196.973 425.663L219.066 412.926C218.395 412.406 218.395 411.713 219.023 411.193L196.518 398.219C195.738 398.587 194.655 398.652 193.767 398.414L171.37 411.345C171.327 411.367 171.262 411.388 171.219 411.388C171.11 411.388 171.002 411.323 170.937 411.237C170.85 411.085 170.894 410.89 171.045 410.804L193.031 398.111C192.121 397.569 192.078 396.724 192.901 396.139L170.959 383.511C170.136 383.88 169.009 383.923 168.1 383.641L145.941 396.421C145.898 396.443 145.833 396.464 145.789 396.464C145.681 396.464 145.573 396.399 145.508 396.313C145.421 396.161 145.464 395.966 145.616 395.879L167.406 383.316C166.627 382.775 166.605 381.995 167.341 381.454L145.031 368.609C144.446 368.804 143.775 368.869 143.125 368.782L120.122 382.06C120.078 382.082 120.013 382.103 119.97 382.103C119.862 382.103 119.753 382.038 119.688 381.952C119.602 381.8 119.645 381.605 119.797 381.519L142.237 368.566C142.107 368.522 141.999 368.457 141.89 368.392C141.046 367.894 140.916 367.158 141.501 366.595L119.429 353.88C118.605 354.162 117.587 354.162 116.786 353.858L93.7826 367.136C93.7393 367.158 93.6743 367.179 93.631 367.179C93.5227 367.179 93.4144 367.114 93.3494 367.028C93.2628 366.876 93.3061 366.681 93.4577 366.595L116.114 353.512C115.465 353.035 115.4 352.364 115.92 351.844L93.6743 339.021C92.8512 339.389 91.7465 339.411 90.8585 339.129L68.1367 352.212C68.0933 352.234 68.0284 352.255 67.985 352.255C67.8767 352.255 67.7684 352.19 67.7034 352.104C67.6168 351.952 67.6601 351.757 67.8117 351.671L90.1437 338.804C89.3639 338.284 89.3205 337.483 90.057 336.941L67.8551 324.162C67.032 324.617 65.7973 324.703 64.8226 324.4L42.4907 337.31C42.4474 337.331 42.3824 337.353 42.3391 337.353C42.2308 337.353 42.1225 337.288 42.0575 337.201C41.9709 337.05 42.0142 336.855 42.1658 336.768L64.1295 324.097C63.2631 323.512 63.3064 322.646 64.2161 322.104L38.8085 307.462C38.6568 307.375 38.6135 307.18 38.7002 307.028C38.7868 306.877 38.9817 306.834 39.1334 306.92L64.9743 321.801C65.884 321.541 66.9887 321.628 67.7684 322.017L89.3639 309.541C89.0823 309.021 89.2989 308.458 89.9921 308.046C90.0354 308.025 90.0787 308.003 90.122 307.981L64.3678 293.166C64.2161 293.079 64.1728 292.884 64.2595 292.733C64.3461 292.581 64.541 292.538 64.6927 292.624L90.9451 307.722C91.4866 307.613 92.0714 307.592 92.6129 307.7L115.183 294.66C114.815 294.119 115.01 293.491 115.768 293.057C115.876 292.993 115.985 292.949 116.093 292.906L90.8585 278.35C90.7068 278.263 90.6635 278.068 90.7502 277.917C90.8368 277.765 91.0318 277.722 91.1834 277.809L116.981 292.689C117.501 292.624 118.042 292.646 118.519 292.754L141.392 279.541C141.262 279.087 141.501 278.61 142.107 278.263C142.129 278.242 142.15 278.242 142.172 278.22L117.003 263.729C116.851 263.643 116.808 263.448 116.894 263.296C116.981 263.144 117.176 263.101 117.327 263.188L142.952 277.96C143.385 277.852 143.883 277.83 144.338 277.874L167.406 264.552C167.168 264.076 167.341 263.556 167.926 263.166L143.342 249C143.19 248.914 143.147 248.719 143.233 248.567C143.32 248.415 143.515 248.372 143.667 248.459L168.641 262.841C169.248 262.646 169.962 262.603 170.612 262.711L193.117 249.715C192.944 249.282 193.117 248.827 193.615 248.459L168.793 234.163C168.641 234.076 168.598 233.881 168.684 233.73C168.771 233.578 168.966 233.535 169.118 233.621L194.309 248.134C194.893 247.939 195.565 247.874 196.215 247.96L217.875 235.441C216.9 234.856 216.9 233.925 217.897 233.361C217.983 233.318 218.092 233.275 218.178 233.231L194.33 219.455C194.179 219.369 194.135 219.174 194.222 219.022C194.309 218.871 194.504 218.827 194.655 218.914L219.045 233.015C219.89 232.885 220.843 232.993 221.514 233.383L244.301 219.975C243.716 219.412 243.824 218.654 244.691 218.156C244.712 218.156 244.712 218.134 244.734 218.134L220.474 204.141C220.323 204.055 220.279 203.86 220.366 203.708C220.453 203.557 220.648 203.513 220.799 203.6L245.492 217.831C246.25 217.658 247.117 217.679 247.832 217.918L269.903 205.181C269.037 204.618 269.059 203.773 269.925 203.21L246.315 189.586C246.164 189.499 246.12 189.304 246.207 189.152C246.294 189.001 246.489 188.958 246.64 189.044L270.662 202.907C271.593 202.625 272.741 202.69 273.542 203.102L290.481 193.333C290.633 193.246 290.827 193.29 290.914 193.441C291.001 193.593 290.957 193.788 290.806 193.874L274.127 203.513C274.539 203.947 274.539 204.466 274.149 204.9L296.416 217.744C297.412 217.333 298.82 217.398 299.708 217.918C299.773 217.961 299.817 217.982 299.86 218.026L317.037 208.149C317.188 208.062 317.383 208.105 317.47 208.257C317.556 208.409 317.513 208.604 317.362 208.69L300.336 218.502C300.596 218.936 300.488 219.434 300.011 219.824L322.192 232.625C323.123 232.127 324.531 232.105 325.506 232.538L342.791 222.553C342.942 222.466 343.137 222.51 343.224 222.661C343.311 222.813 343.267 223.008 343.116 223.094L326.112 232.907C326.697 233.47 326.611 234.206 325.831 234.683L347.773 247.332C348.769 246.791 350.372 246.812 351.347 247.376C351.455 247.441 351.563 247.506 351.65 247.592L369.347 237.39C369.498 237.304 369.693 237.347 369.78 237.499C369.866 237.65 369.823 237.845 369.671 237.932L352.04 248.112C352.213 248.567 352.018 249.087 351.412 249.455L373.614 262.3C374.588 261.888 375.975 261.91 376.884 262.408L395.122 251.881C395.274 251.794 395.469 251.838 395.556 251.989C395.642 252.141 395.599 252.336 395.447 252.423L377.426 262.82C377.859 263.318 377.794 263.924 377.209 264.379L399.151 277.05C400.148 276.639 401.577 276.682 402.465 277.202C402.487 277.202 402.487 277.224 402.509 277.224L421.158 266.458C421.31 266.372 421.505 266.415 421.591 266.567C421.678 266.718 421.635 266.913 421.483 267L403.007 277.657C403.353 278.133 403.245 278.675 402.725 279.108L425.209 292.083C426.183 291.606 427.656 291.606 428.609 292.104L447.497 281.209C447.649 281.123 447.844 281.166 447.931 281.318C448.017 281.469 447.974 281.664 447.822 281.751L429.173 292.494C429.649 293.014 429.541 293.686 428.848 294.162L450.79 306.812C451.808 306.314 453.346 306.335 454.299 306.877C454.342 306.898 454.364 306.92 454.407 306.942L473.663 295.83C473.815 295.743 474.01 295.787 474.096 295.938C474.183 296.09 474.14 296.285 473.988 296.372L454.884 307.397C455.208 307.895 455.057 308.48 454.407 308.891L477.042 321.952C477.064 321.931 477.085 321.931 477.107 321.909C478.082 321.346 479.663 321.324 480.681 321.866L500.132 310.646C500.284 310.559 500.479 310.602 500.565 310.754C500.652 310.906 500.609 311.101 500.457 311.187L481.244 322.277C481.721 322.841 481.569 323.534 480.768 323.989C480.746 324.01 480.724 324.01 480.681 324.032L501.692 336.162C502.688 335.599 504.313 335.599 505.309 336.183C505.461 336.27 505.591 336.378 505.699 336.465L525.67 324.942C525.821 324.855 526.016 324.898 526.103 325.05C526.19 325.202 526.146 325.396 525.995 325.483L506.024 337.006C506.132 337.44 505.915 337.916 505.331 338.263L527.511 351.064C528.486 350.566 530.002 350.566 530.977 351.086L551.359 339.324C551.511 339.237 551.706 339.281 551.792 339.432C551.879 339.584 551.836 339.779 551.684 339.866L531.54 351.497C531.995 352.039 531.865 352.689 531.15 353.143L553.222 365.88C553.417 366.031 553.46 366.226 553.373 366.4ZM478.927 381.194L501.757 368.024C501.194 367.526 501.215 366.855 501.822 366.378L479.576 353.555C478.883 353.815 478.039 353.858 477.28 353.685L453.909 367.179C453.974 367.569 453.779 367.959 453.346 368.262L475.526 381.085C476.522 380.609 477.995 380.652 478.927 381.194ZM347.491 455.922L325.268 443.142C324.358 443.641 322.95 443.684 321.975 443.272L300.25 455.792C300.401 456.204 300.25 456.615 299.817 456.962L322.083 469.785C323.037 469.438 324.293 469.482 325.181 469.915L346.776 457.46C346.495 456.94 346.69 456.355 347.405 455.944C347.426 455.944 347.469 455.922 347.491 455.922ZM68.3749 323.685L90.7068 336.552C91.6599 336.205 92.9162 336.248 93.7826 336.682L115.4 324.227C115.118 323.729 115.291 323.165 115.941 322.754L93.7393 309.996C93.6959 310.018 93.6743 310.039 93.631 310.061C92.6346 310.646 90.9884 310.646 89.9921 310.061C89.9271 310.018 89.8621 309.974 89.7971 309.931L68.3316 322.321C68.6999 322.732 68.7215 323.252 68.3749 323.685ZM222.142 234.618L244.626 247.614C245.579 247.376 246.727 247.462 247.507 247.917C247.572 247.96 247.637 247.982 247.68 248.025L270.51 234.878C269.752 234.336 269.752 233.556 270.51 232.993L248.33 220.214C248.308 220.214 248.308 220.235 248.286 220.235C247.355 220.777 245.86 220.82 244.864 220.343L221.947 233.578C222.251 233.903 222.294 234.271 222.142 234.618ZM270.597 205.528L248.503 218.286C249.11 218.719 249.218 219.304 248.871 219.802L271.225 232.69C272.135 232.387 273.304 232.43 274.149 232.82L296.199 220.127C296.134 220.105 296.091 220.062 296.026 220.04C295.138 219.52 295.03 218.719 295.723 218.134L273.542 205.333C272.741 205.744 271.55 205.809 270.597 205.528ZM476.566 322.451L453.714 309.259C453.064 309.476 452.284 309.498 451.591 309.346L429.368 322.169C429.887 322.667 429.866 323.295 429.281 323.794L451.959 336.876C452.826 336.443 454.082 336.4 455.035 336.747L477.085 324.01C476.392 323.577 476.219 322.971 476.566 322.451ZM476.024 351.476L454.884 339.281C453.995 339.562 452.891 339.519 452.089 339.172L429.151 352.407C429.541 352.927 429.389 353.555 428.718 353.988L449.728 366.14C450.746 365.663 452.241 365.685 453.194 366.226C453.367 366.335 453.519 366.443 453.627 366.573L476.501 353.382C476.457 353.36 476.414 353.338 476.392 353.317C475.504 352.84 475.396 352.06 476.024 351.476ZM299.752 426.377L322.3 413.359C321.953 412.883 322.062 412.32 322.603 411.908L299.947 398.847C298.993 399.367 297.499 399.367 296.524 398.89L274.301 411.713C275.059 412.168 275.232 412.84 274.799 413.381L297.651 426.507C298.279 426.291 299.058 426.247 299.752 426.377ZM146.006 339.302L168.056 351.995C168.901 351.692 169.984 351.692 170.829 351.995L193.117 339.129C192.424 338.588 192.467 337.83 193.226 337.288L171.262 324.638C170.244 325.137 168.728 325.115 167.775 324.552C167.71 324.508 167.666 324.487 167.601 324.443L145.356 337.288C145.464 337.331 145.573 337.375 145.659 337.44C146.547 337.938 146.656 338.718 146.006 339.302ZM248.026 249.585L270.315 262.473C271.268 262.126 272.524 262.17 273.391 262.603L296.264 249.39C295.853 248.935 295.874 248.35 296.373 247.917L274.149 235.116C273.304 235.506 272.113 235.549 271.203 235.246L248.135 248.524C248.33 248.87 248.286 249.238 248.026 249.585ZM451.375 337.288L428.631 324.183C427.786 324.53 426.682 324.53 425.815 324.227L402.769 337.526C403.007 337.96 402.877 338.436 402.422 338.826L425.079 351.909C426.097 351.389 427.656 351.411 428.609 351.974C428.609 351.974 428.631 351.974 428.631 351.995L451.461 338.804C450.963 338.349 450.941 337.743 451.375 337.288ZM322.083 383.381C321.845 382.927 321.975 382.428 322.473 382.038L300.488 369.367C299.492 369.8 298.04 369.757 297.131 369.237C296.957 369.129 296.806 369.021 296.697 368.912L274.236 381.865C274.301 381.887 274.366 381.93 274.431 381.973C275.232 382.428 275.384 383.143 274.907 383.685L297.022 396.443C297.78 396.226 298.69 396.226 299.427 396.464L322.083 383.381ZM197.406 338.978L219.846 351.909C220.453 351.757 221.146 351.757 221.774 351.887L244.647 338.674C244.539 338.263 244.712 337.83 245.211 337.483L222.922 324.638C221.926 325.007 220.604 324.942 219.716 324.465L197.298 337.396C197.861 337.895 197.883 338.501 197.406 338.978ZM296.914 279.931L275.167 292.494C276.033 293.079 276.012 293.946 275.08 294.509L297.347 307.332C297.975 307.05 298.777 306.963 299.513 307.072L321.174 294.574C320.199 294.011 320.177 293.122 321.065 292.538L298.82 279.693C298.257 279.91 297.564 279.996 296.914 279.931ZM372.661 322.364L350.199 309.389C349.484 309.758 348.466 309.844 347.599 309.671L326.026 322.126C326.091 322.147 326.156 322.191 326.221 322.234C327.13 322.754 327.217 323.577 326.481 324.14L348.986 337.115C349.592 336.812 350.415 336.703 351.152 336.79L372.855 324.27C372.011 323.729 371.946 322.927 372.661 322.364ZM299.253 366.703L322.43 353.338C322.257 352.949 322.365 352.515 322.755 352.169L300.206 339.194C299.21 339.627 297.759 339.584 296.849 339.064C296.806 339.043 296.784 339.021 296.762 338.999L274.214 352.017C274.322 352.06 274.452 352.125 274.539 352.169C275.362 352.645 275.514 353.36 274.994 353.923L297.586 366.941C298.062 366.746 298.669 366.66 299.253 366.703ZM249.434 339.194L271.485 351.909C272.048 351.736 272.698 351.692 273.326 351.779L296.264 338.544C295.961 338.068 296.069 337.548 296.611 337.136L274.647 324.487C273.651 324.898 272.243 324.855 271.333 324.335C271.268 324.292 271.181 324.248 271.138 324.205L248.568 337.245C248.741 337.31 248.893 337.375 249.045 337.461C249.846 337.895 249.976 338.631 249.434 339.194ZM274.734 322.082C274.82 322.126 274.885 322.147 274.972 322.191C275.86 322.711 275.968 323.512 275.275 324.075L297.261 336.747C297.954 336.487 298.82 336.443 299.578 336.595L321.954 323.685C321.715 323.252 321.824 322.776 322.257 322.407L300.271 309.736C299.275 310.104 297.932 310.039 297.066 309.541C296.957 309.476 296.871 309.411 296.784 309.346L274.734 322.082ZM325.571 351.541L348.141 338.523C348.011 338.176 348.119 337.808 348.423 337.505L325.852 324.508C324.856 324.898 323.47 324.833 322.582 324.335C322.517 324.292 322.452 324.27 322.408 324.227L300.38 336.941C300.423 336.963 300.445 336.985 300.488 337.006C301.354 337.505 301.463 338.284 300.835 338.869L323.361 351.844C323.99 351.497 324.813 351.411 325.571 351.541ZM346.56 307.267L324.683 294.617C323.903 295.007 322.82 295.094 321.91 294.855L300.38 307.288C300.488 307.332 300.618 307.397 300.726 307.44C301.636 307.96 301.723 308.805 300.965 309.389L322.928 322.039C323.6 321.758 324.466 321.693 325.224 321.823L346.82 309.368C346.776 309.346 346.733 309.324 346.69 309.303C345.693 308.761 345.672 307.852 346.56 307.267ZM249.499 307.288C250.258 307.852 250.214 308.653 249.391 309.194L271.68 322.017C272.329 321.758 273.153 321.693 273.889 321.823L296.394 308.848C296.243 308.458 296.351 308.046 296.719 307.7L274.322 294.79C273.412 295.029 272.308 294.964 271.528 294.574L249.499 307.288ZM223.377 322.386C224.265 322.906 224.33 323.729 223.594 324.313L245.925 337.18C246.445 337.006 247.03 336.963 247.615 337.006L270.683 323.685C270.467 323.252 270.575 322.776 271.052 322.407L248.698 309.541C247.81 309.801 246.705 309.758 245.904 309.389L223.377 322.386ZM223.225 353.858L245.406 366.66C246.055 366.508 246.813 366.53 247.442 366.703L270.207 353.577C270.012 353.122 270.207 352.624 270.77 352.255L248.85 339.627C247.832 340.126 246.315 340.082 245.362 339.541C245.211 339.454 245.102 339.367 244.994 339.259L222.554 352.212C222.575 352.234 222.619 352.255 222.64 352.255C223.42 352.667 223.594 353.317 223.225 353.858ZM248.741 368.587L271.441 381.67C272.048 381.497 272.763 381.475 273.413 381.584L296.394 368.327C296.329 367.959 296.503 367.591 296.892 367.288L274.387 354.313C273.369 354.833 271.831 354.811 270.878 354.248C270.77 354.183 270.683 354.118 270.597 354.053L248.178 366.984C248.936 367.418 249.11 368.046 248.741 368.587ZM325.311 381.519L348.141 368.327C347.794 367.873 347.838 367.331 348.314 366.92L326.286 354.226C325.289 354.595 323.946 354.53 323.08 354.032C322.972 353.967 322.907 353.923 322.82 353.858L300.206 366.898C300.401 366.963 300.596 367.049 300.77 367.136C301.636 367.634 301.744 368.414 301.116 368.999L323.145 381.692C323.795 381.432 324.596 381.389 325.311 381.519ZM351.563 366.356L373.83 353.512C373.549 353.1 373.614 352.624 374.003 352.234L351.932 339.519C350.957 339.844 349.679 339.757 348.834 339.281C348.704 339.216 348.596 339.129 348.509 339.043L326.437 351.779C326.546 351.822 326.654 351.866 326.74 351.93C327.65 352.45 327.737 353.295 326.957 353.88L348.942 366.551C349.722 366.205 350.719 366.14 351.563 366.356ZM377.166 351.584L398.718 339.129C398.653 339.086 398.566 339.064 398.501 339.021C397.613 338.501 397.505 337.7 398.22 337.115L376.256 324.422C375.476 324.747 374.458 324.79 373.635 324.552L352.105 336.963C352.235 337.006 352.386 337.071 352.495 337.158C353.448 337.7 353.491 338.588 352.646 339.172L374.61 351.822C375.325 351.476 376.321 351.389 377.166 351.584ZM425.057 322.104L403.072 309.433C402.14 309.801 400.884 309.779 399.996 309.368L377.079 322.581C377.469 323.057 377.404 323.62 376.906 324.054L398.848 336.747C399.844 336.335 401.252 336.4 402.14 336.92C402.205 336.963 402.27 337.006 402.335 337.05L425.144 323.88C424.451 323.36 424.407 322.646 425.057 322.104ZM399.476 307.353L376.971 294.379C376.083 294.812 374.827 294.834 373.895 294.465L350.892 307.743C351.152 308.133 351.087 308.588 350.762 308.956L373.31 321.996C374.285 321.606 375.65 321.671 376.516 322.147L399.39 308.978C398.87 308.48 398.891 307.83 399.476 307.353ZM373.354 292.299L351.433 279.65C350.502 280.083 349.181 280.083 348.249 279.671L325.333 292.906C325.657 293.317 325.636 293.816 325.268 294.227L347.296 306.963C348.271 306.66 349.506 306.747 350.329 307.223C350.372 307.245 350.415 307.267 350.437 307.288L373.267 294.119C372.574 293.577 372.596 292.819 373.354 292.299ZM347.794 277.57L325.506 264.726C324.769 264.986 323.881 265.029 323.102 264.812L299.838 278.242C299.947 278.61 299.795 278.978 299.427 279.303L321.737 292.213C322.712 291.909 323.946 291.996 324.769 292.473L347.599 279.303C347.058 278.74 347.123 278.047 347.794 277.57ZM321.975 262.668L299.947 249.953C298.993 250.3 297.715 250.256 296.871 249.802L273.997 263.014C274.452 263.491 274.409 264.076 273.911 264.531L295.896 277.245C296.892 276.855 298.279 276.92 299.145 277.419C299.297 277.505 299.405 277.592 299.513 277.7L322.343 264.509C322.343 264.509 322.343 264.509 322.322 264.509C321.477 264.011 321.347 263.231 321.975 262.668ZM248.98 277.44C249.153 277.505 249.304 277.57 249.456 277.657C250.452 278.242 250.452 279.173 249.478 279.758L271.42 292.408C272.243 291.953 273.477 291.866 274.452 292.169L295.961 279.758C295.788 279.693 295.636 279.628 295.484 279.541C294.575 279.022 294.488 278.198 295.225 277.614L273.261 264.921C272.459 265.267 271.355 265.31 270.488 265.029L248.98 277.44ZM223.355 292.234C223.485 292.278 223.594 292.343 223.702 292.408C224.677 292.971 224.698 293.859 223.788 294.444L245.752 307.093C246.619 306.66 247.875 306.595 248.828 306.942L270.965 294.162C270.575 293.751 270.553 293.252 270.9 292.819L248.72 280.04C247.767 280.299 246.597 280.191 245.817 279.736C245.665 279.65 245.557 279.563 245.449 279.455L223.355 292.234ZM197.168 307.375C197.384 307.44 197.579 307.527 197.753 307.635C198.662 308.155 198.749 309 197.991 309.563L219.976 322.234C220.756 321.909 221.774 321.844 222.619 322.082L245.276 309C244.799 308.545 244.756 307.981 245.189 307.527L223.074 294.79C222.099 295.072 220.864 294.985 220.063 294.53C219.955 294.465 219.846 294.4 219.76 294.335L197.168 307.375ZM171.219 322.342C171.284 322.364 171.349 322.407 171.414 322.429C172.237 322.906 172.388 323.642 171.825 324.205L193.897 336.941C194.764 336.66 195.868 336.682 196.691 337.028L219.196 324.032C218.828 323.577 218.872 323.014 219.37 322.581L197.341 309.888C196.345 310.256 194.98 310.191 194.114 309.693C193.94 309.584 193.789 309.476 193.68 309.346L171.219 322.342ZM171.609 354.032L194.027 366.92C194.59 366.768 195.24 366.746 195.847 366.855L218.438 353.815C218.092 353.273 218.265 352.645 219.023 352.234C219.045 352.234 219.066 352.212 219.066 352.212L196.821 339.389C195.933 339.822 194.677 339.844 193.745 339.497L171.479 352.364C172.128 352.84 172.172 353.512 171.609 354.032ZM197.449 368.891L219.651 381.649C220.258 381.519 220.929 381.497 221.536 381.649L244.019 368.674C243.586 368.132 243.738 367.439 244.517 366.984C244.539 366.963 244.582 366.963 244.604 366.941L222.705 354.313C222.684 354.313 222.662 354.335 222.662 354.335C221.666 354.92 220.02 354.92 219.023 354.335C219.002 354.313 218.958 354.291 218.937 354.27L196.691 367.093C196.778 367.136 196.843 367.158 196.93 367.201C197.688 367.678 197.861 368.349 197.449 368.891ZM223.009 383.576L245.752 396.659C246.294 396.508 246.9 396.464 247.485 396.551L270.185 383.468C269.904 382.97 270.098 382.407 270.748 381.995L248.286 369.042C248.265 369.064 248.243 369.086 248.2 369.086C247.203 369.67 245.579 369.67 244.582 369.107L222.359 381.93C222.402 381.952 222.424 381.973 222.467 381.995C223.182 382.407 223.377 383.056 223.009 383.576ZM249.196 398.652L271.376 411.41C272.07 411.237 272.871 411.237 273.542 411.41L295.939 398.479C295.419 397.937 295.528 397.222 296.308 396.746L274.366 384.096C273.369 384.638 271.766 384.616 270.792 384.053C270.727 384.01 270.662 383.988 270.618 383.945L248.351 396.789C248.481 396.833 248.59 396.898 248.698 396.962C249.478 397.396 249.651 398.089 249.196 398.652ZM325.657 411.432L348.488 398.262C348.379 397.916 348.488 397.547 348.812 397.222L326.091 384.14C325.094 384.573 323.643 384.529 322.733 384.01C322.668 383.966 322.603 383.923 322.538 383.88L300.141 396.811C300.835 397.266 300.943 397.916 300.488 398.457L323.253 411.583C323.968 411.28 324.878 411.237 325.657 411.432ZM351.498 396.508L374.523 383.208C374.307 382.84 374.372 382.428 374.675 382.082L351.888 368.956C350.892 369.324 349.527 369.259 348.661 368.761L326.134 381.757C326.199 381.8 326.286 381.822 326.351 381.865C327.217 382.363 327.325 383.143 326.697 383.728L349.397 396.811C350.004 396.529 350.784 396.421 351.498 396.508ZM377.772 381.345L400.234 368.371C400.083 368.046 400.148 367.699 400.364 367.396L377.534 354.248C376.559 354.573 375.26 354.508 374.415 354.01C374.372 353.988 374.35 353.967 374.328 353.945L352.321 366.66C353.231 367.179 353.318 368.024 352.56 368.609L375.238 381.67C375.931 381.302 376.906 381.194 377.772 381.345ZM403.353 366.573L424.992 354.075C424.992 354.075 424.97 354.075 424.97 354.053C424.147 353.577 423.996 352.862 424.516 352.32L401.794 339.194C401.122 339.454 400.299 339.519 399.563 339.389L377.967 351.866C378.011 351.887 378.032 351.909 378.076 351.909C379.029 352.45 379.072 353.317 378.249 353.902L400.906 366.941C401.556 366.573 402.509 366.443 403.353 366.573ZM450.227 307.245L428.155 294.509C427.396 294.747 426.487 294.747 425.707 294.53L403.592 307.288C404.306 307.808 404.328 308.523 403.7 309.065L425.707 321.758C426.638 321.389 427.895 321.411 428.783 321.823L450.811 309.108C450.768 309.086 450.725 309.065 450.681 309.043C449.858 308.545 449.707 307.808 450.227 307.245ZM424.667 292.494L402.097 279.476C401.382 279.758 400.451 279.801 399.649 279.606L377.469 292.408C378.011 292.884 378.032 293.491 377.556 293.967L400.126 306.963C400.949 306.639 402.054 306.617 402.92 306.92L424.992 294.184C424.256 293.729 424.147 293.036 424.667 292.494ZM398.523 277.419L376.559 264.747C375.78 265.051 374.783 265.072 373.982 264.834L351.867 277.592C352.516 278.068 352.581 278.74 352.04 279.26L374.047 291.953C374.913 291.671 376.018 291.693 376.841 292.039L398.87 279.325C398.848 279.325 398.826 279.303 398.826 279.303C397.96 278.783 397.852 278.003 398.523 277.419ZM372.985 262.69L350.632 249.802C350.09 249.953 349.484 249.997 348.921 249.932L326.502 262.863C326.87 263.361 326.762 263.946 326.177 264.379L348.488 277.245C349.311 276.964 350.35 276.964 351.173 277.267L373.245 264.531C372.444 263.989 372.357 263.231 372.985 262.69ZM347.166 247.787L325.051 235.029C324.25 235.267 323.296 235.246 322.517 234.964L300.466 247.701C301.289 248.242 301.333 249.044 300.596 249.607L322.56 262.278C323.578 261.823 325.029 261.866 325.961 262.408C325.961 262.408 325.961 262.408 325.982 262.408L348.011 249.693C347.881 249.65 347.751 249.585 347.643 249.52C346.863 249.044 346.69 248.35 347.166 247.787ZM321.585 233.036L299.318 220.192C298.647 220.452 297.78 220.517 297.022 220.365L274.734 233.188C275.21 233.643 275.21 234.228 274.734 234.704L296.979 247.527C297.78 247.181 298.863 247.116 299.752 247.397L321.845 234.639C321.239 234.163 321.152 233.535 321.585 233.036ZM244.886 250.386L223.269 262.841C223.312 262.863 223.377 262.885 223.42 262.928C224.352 263.469 224.417 264.314 223.637 264.877L245.817 277.657C246.424 277.31 247.247 277.18 248.026 277.245L269.774 264.682C268.972 264.162 268.929 263.361 269.665 262.82L247.507 250.018C246.814 250.43 245.795 250.56 244.886 250.386ZM197.601 277.614C197.623 277.635 197.666 277.635 197.688 277.657C198.576 278.177 198.684 278.978 197.969 279.563L220.171 292.343C220.821 292.018 221.687 291.888 222.467 291.996L245.102 278.935C245.016 278.653 245.081 278.35 245.297 278.068L222.965 265.202C221.969 265.549 220.648 265.484 219.781 264.986C219.738 264.964 219.673 264.921 219.63 264.899L197.601 277.614ZM171.392 292.711C171.522 292.754 171.63 292.819 171.738 292.884C172.562 293.361 172.713 294.097 172.15 294.66L194.395 307.483C194.915 307.267 195.565 307.158 196.193 307.202L219.391 293.794C219.261 293.447 219.326 293.079 219.608 292.776L197.319 279.931C196.323 280.321 194.937 280.278 194.049 279.758C194.027 279.736 193.984 279.715 193.962 279.693L171.392 292.711ZM145.356 307.678C145.356 307.7 145.378 307.7 145.356 307.678C146.114 308.111 146.309 308.761 145.941 309.281L168.316 322.191C168.944 321.974 169.702 321.952 170.396 322.082L193.377 308.805C193.312 308.48 193.464 308.133 193.789 307.852L171.565 295.05C170.547 295.548 169.031 295.505 168.078 294.964C167.97 294.899 167.861 294.834 167.775 294.769L145.356 307.678ZM119.472 322.602C119.537 322.624 119.602 322.667 119.645 322.689C120.447 323.144 120.598 323.859 120.122 324.4L142.432 337.245C143.038 337.006 143.797 336.941 144.49 337.05L167.146 323.967C166.865 323.49 167.038 322.949 167.623 322.537L145.464 309.758C145.443 309.779 145.421 309.779 145.399 309.801C144.403 310.386 142.757 310.386 141.76 309.801C141.76 309.801 141.739 309.801 141.739 309.779L119.472 322.602ZM94.2591 338.588L116.483 351.389C117.414 350.956 118.757 350.934 119.71 351.367L141.371 338.869C141.176 338.436 141.327 337.981 141.804 337.613L119.58 324.833C118.584 325.375 116.981 325.353 116.006 324.79C115.941 324.747 115.898 324.725 115.833 324.682L94.3241 337.05C94.779 337.526 94.7573 338.133 94.2591 338.588ZM120.1 353.468L142.064 366.118C143.082 365.642 144.576 365.685 145.508 366.226C145.616 366.291 145.703 366.356 145.789 366.421L167.255 354.032C166.692 353.512 166.713 352.819 167.385 352.32L145.378 339.671C144.381 340.104 142.93 340.061 142.02 339.541C141.912 339.476 141.847 339.432 141.76 339.367L120.295 351.757C120.858 352.277 120.793 352.97 120.1 353.468ZM145.703 368.219L168.013 381.064C168.944 380.739 170.179 380.782 171.024 381.194L192.641 368.717C192.381 368.219 192.576 367.634 193.291 367.223L171.024 354.421C170.114 354.833 168.814 354.833 167.905 354.421L146.222 366.941C146.374 367.374 146.201 367.851 145.703 368.219ZM171.544 383.1L193.572 395.793C194.547 395.468 195.803 395.533 196.648 396.009L218.2 383.576C217.854 383.035 218.048 382.428 218.785 381.995C218.807 381.973 218.828 381.973 218.85 381.952L196.908 369.345C195.911 369.93 194.265 369.93 193.269 369.345C193.204 369.302 193.139 369.259 193.074 369.216L171.587 381.605C172.063 382.06 172.042 382.645 171.544 383.1ZM197.103 397.807L219.673 410.804C220.583 410.435 221.796 410.457 222.684 410.825L244.388 398.305C244.193 397.829 244.409 397.309 245.016 396.941L222.511 384.01C222.489 384.031 222.467 384.031 222.446 384.053C221.449 384.638 219.803 384.638 218.807 384.053C218.763 384.031 218.742 384.01 218.698 383.988L197.189 396.399C197.558 396.854 197.536 397.396 197.103 397.807ZM223.247 412.883L245.254 425.554C246.25 425.164 247.637 425.229 248.525 425.728C248.546 425.749 248.59 425.771 248.611 425.793L270.12 413.381C269.687 412.84 269.839 412.168 270.618 411.713L248.655 399.085C247.658 399.648 246.034 399.627 245.059 399.064C244.951 398.999 244.864 398.934 244.777 398.869L223.312 411.258C223.853 411.735 223.832 412.385 223.247 412.883ZM248.85 427.612L271.55 440.673C272.524 440.197 273.976 440.218 274.929 440.717L296.503 428.262C296.221 427.785 296.373 427.244 296.957 426.832L274.279 413.793C273.283 414.356 271.658 414.356 270.662 413.793L249.109 426.226C249.413 426.702 249.326 427.2 248.85 427.612ZM275.167 442.774L296.243 454.904C297.239 454.493 298.669 454.536 299.578 455.056C299.708 455.121 299.795 455.207 299.882 455.272L321.347 442.883C320.697 442.319 320.784 441.54 321.629 441.02L300.575 428.912C299.557 429.388 298.062 429.366 297.109 428.825C297.044 428.803 297.001 428.76 296.957 428.717L275.47 441.128C275.925 441.67 275.838 442.319 275.167 442.774ZM347.188 427.98C346.451 427.439 346.473 426.659 347.253 426.117L326.199 413.988C325.203 414.421 323.751 414.377 322.842 413.858C322.82 413.858 322.82 413.836 322.798 413.836L300.575 426.659C300.64 426.681 300.683 426.724 300.748 426.746C301.593 427.222 301.723 427.98 301.159 428.543L322.387 440.738C323.188 440.522 324.163 440.543 324.921 440.846L347.188 427.98ZM373.289 412.926C372.855 412.45 372.92 411.865 373.462 411.41L352.343 399.237C351.347 399.583 350.047 399.497 349.202 399.02C349.072 398.934 348.964 398.869 348.856 398.782L326.437 411.713C326.459 411.713 326.481 411.735 326.481 411.735C327.347 412.233 327.455 413.013 326.805 413.598L347.924 425.771C348.812 425.468 349.96 425.511 350.784 425.879L373.289 412.926ZM399.39 397.872C398.826 397.396 398.805 396.768 399.325 396.269L378.141 384.075C377.166 384.356 375.953 384.27 375.13 383.815C375.065 383.771 375 383.75 374.957 383.706L352.408 396.724C352.56 396.789 352.711 396.854 352.841 396.919C353.773 397.461 353.838 398.327 353.036 398.89L374.112 411.02C374.892 410.695 375.931 410.674 376.776 410.912L399.39 397.872ZM425.057 383.057C424.581 382.602 424.559 382.038 424.992 381.584L403.765 369.345C402.812 369.584 401.664 369.497 400.884 369.042C400.797 368.977 400.711 368.934 400.624 368.869L378.596 381.584C378.66 381.605 378.725 381.649 378.79 381.692C379.765 382.255 379.787 383.165 378.877 383.75L399.931 395.879C400.819 395.468 402.054 395.446 402.963 395.814L425.057 383.057ZM450.118 368.609C449.902 368.544 449.707 368.457 449.533 368.349C448.689 367.873 448.559 367.114 449.144 366.551L428.003 354.335C427.31 354.551 426.487 354.551 425.772 354.378L404.241 366.811C404.35 366.855 404.458 366.898 404.545 366.963C405.541 367.548 405.541 368.479 404.545 369.064L425.577 381.172C426.422 380.739 427.656 380.674 428.609 381.02L450.118 368.609ZM505.309 365.966L527.359 353.23C526.601 352.754 526.471 352.06 526.969 351.519L504.594 338.609C504.139 338.739 503.619 338.783 503.121 338.739L480.594 351.736C480.898 352.212 480.768 352.754 480.226 353.165L502.471 365.988C503.316 365.663 504.443 365.642 505.309 365.966ZM479.923 324.378C479.251 324.53 478.472 324.508 477.8 324.335L455.685 337.093C456.4 337.656 456.378 338.436 455.577 338.956L476.631 351.086C477.649 350.631 479.1 350.674 480.01 351.216C480.053 351.237 480.075 351.259 480.118 351.281L502.19 338.544C502.017 338.479 501.843 338.414 501.692 338.328C500.912 337.873 500.739 337.201 501.194 336.638L479.923 324.378ZM197.038 248.004C197.168 248.047 197.276 248.112 197.406 248.177C198.251 248.675 198.381 249.412 197.796 249.997L220.041 262.82C220.734 262.495 221.666 262.43 222.467 262.581L244.084 250.148C244.019 250.127 243.954 250.083 243.889 250.04C242.893 249.455 242.893 248.524 243.889 247.939L221.731 235.138C221.666 235.203 221.579 235.246 221.492 235.289C220.713 235.744 219.521 235.831 218.568 235.571L197.038 248.004ZM171.414 262.798C171.5 262.841 171.587 262.885 171.652 262.928C172.475 263.404 172.627 264.119 172.085 264.682L194.352 277.505C195.067 277.202 195.976 277.159 196.778 277.332L219.153 264.444C218.893 264.033 218.98 263.556 219.391 263.166L197.168 250.365C196.15 250.841 194.677 250.798 193.724 250.256C193.615 250.192 193.507 250.127 193.421 250.04L171.414 262.798ZM145.226 277.917C145.399 277.982 145.551 278.047 145.703 278.133C146.461 278.567 146.634 279.216 146.266 279.758L168.641 292.646C169.204 292.451 169.876 292.408 170.504 292.494L193.486 279.26C193.182 278.805 193.269 278.285 193.767 277.874L171.565 265.072C170.547 265.57 169.009 265.549 168.056 265.007C167.97 264.964 167.905 264.921 167.84 264.856L145.226 277.917ZM119.255 292.906C119.277 292.928 119.32 292.928 119.342 292.949C119.992 293.317 120.23 293.859 120.013 294.357L142.584 307.375C143.212 307.223 143.948 307.245 144.576 307.397L167.385 294.27C167.211 293.837 167.385 293.339 167.926 292.992L145.746 280.213C145.724 280.235 145.703 280.235 145.681 280.256C144.685 280.841 143.038 280.841 142.042 280.256C141.89 280.17 141.782 280.083 141.674 279.975L119.255 292.906ZM93.3927 307.83C93.4577 307.873 93.5444 307.895 93.6093 307.938C94.3458 308.35 94.5407 308.978 94.1942 309.498L116.634 322.407C117.241 322.234 117.977 322.191 118.627 322.321L141.197 309.324C140.786 308.783 140.959 308.111 141.739 307.678C141.76 307.657 141.782 307.657 141.825 307.635L119.645 294.834C119.559 294.899 119.472 294.964 119.364 295.029C118.367 295.613 116.721 295.613 115.725 295.029C115.703 295.007 115.66 294.985 115.638 294.964L93.3927 307.83ZM350.025 455.597L372.574 442.579C372.206 442.059 372.379 441.453 373.072 441.02L350.87 428.218C350.004 428.63 348.791 428.673 347.859 428.348L325.571 441.215C326.134 441.648 326.199 442.233 325.809 442.731L348.271 455.662C348.834 455.511 349.462 455.489 350.025 455.597ZM375.931 440.652L398.783 427.46C398.653 427.049 398.826 426.637 399.281 426.291L377.036 413.468C376.061 413.858 374.74 413.814 373.83 413.338L351.39 426.291C351.888 426.746 351.91 427.352 351.433 427.807L373.765 440.695C374.458 440.5 375.238 440.478 375.931 440.652ZM401.772 425.728L424.819 412.428C424.581 411.995 424.689 411.518 425.144 411.15L402.855 398.327C401.989 398.63 400.862 398.609 400.018 398.262L377.469 411.258C378.292 411.778 378.357 412.558 377.664 413.121L399.931 425.944C400.494 425.728 401.144 425.663 401.772 425.728ZM428.046 410.565L450.508 397.591C450.335 397.201 450.443 396.789 450.811 396.464L428.479 383.598C427.591 383.88 426.465 383.815 425.664 383.446L403.613 396.161C404.285 396.703 404.263 397.439 403.548 397.959L425.794 410.76C426.443 410.5 427.288 410.435 428.046 410.565ZM475.288 383.295C474.4 382.797 474.291 382.017 474.919 381.454L452.653 368.587C452.176 368.739 451.634 368.804 451.115 368.782L429.281 381.367C430.061 381.93 430.017 382.732 429.194 383.273L451.396 396.074C452.046 395.771 452.869 395.685 453.627 395.793L475.288 383.295Z" fill="#D3DAED"/>
<path opacity="0.1" d="M167.689 350.725L133.789 370.225L170.589 392.325C175.489 395.225 181.589 395.325 186.489 392.425L205.789 381.225C208.689 379.525 208.789 375.325 205.889 373.525L167.689 350.725Z" fill="url(#paint1_linear)"/>
<path d="M157.189 353.425C152.189 356.325 145.889 356.325 140.889 353.425L118.689 339.425V358.725C118.689 360.725 119.789 362.625 121.489 363.625L142.089 375.525C146.389 378.025 151.589 378.025 155.889 375.525L176.489 363.625C178.189 362.625 179.289 360.725 179.289 358.725V338.925L157.189 353.425Z" fill="url(#paint2_linear)"/>
<path d="M177.39 335.625L154.59 322.525C151.19 320.525 146.89 320.525 143.49 322.525L120.59 335.625C119.19 336.425 118.49 338.025 118.69 339.425C118.69 339.625 118.79 339.725 118.79 339.925C118.99 340.825 119.59 341.725 120.59 342.325L143.49 355.425C146.89 357.425 151.19 357.425 154.59 355.425L177.49 342.325C178.49 341.725 178.99 340.925 179.29 339.925C179.29 339.725 179.39 339.625 179.39 339.425C179.49 338.025 178.89 336.425 177.39 335.625Z" fill="#0DA800"/>
<path d="M174.589 363.225C173.489 363.825 172.189 363.825 171.089 363.225L166.389 360.225V364.325C166.389 364.725 166.589 365.125 166.989 365.325L171.389 367.825C172.289 368.325 173.389 368.325 174.289 367.825L178.689 365.325C179.089 365.125 179.289 364.725 179.289 364.325V360.125L174.589 363.225Z" fill="url(#paint3_linear)"/>
<path d="M178.889 359.425L173.989 356.625C173.289 356.225 172.389 356.225 171.589 356.625L166.689 359.425C166.389 359.625 166.289 359.925 166.289 360.225V360.325C166.389 360.525 166.489 360.725 166.689 360.825L171.589 363.625C172.289 364.025 173.189 364.025 173.989 363.625L178.889 360.825C179.089 360.725 179.189 360.525 179.289 360.325V360.225C179.389 359.925 179.189 359.625 178.889 359.425Z" fill="white"/>
<path opacity="0.1" d="M419.791 285.225L359.291 320.025L438.891 369.225C447.591 374.425 458.391 374.525 467.191 369.525L501.591 349.625C506.791 346.625 506.891 339.025 501.691 335.925L419.791 285.225Z" fill="url(#paint4_linear)"/>
<path d="M399.391 262.725C390.391 267.925 379.391 267.925 370.391 262.725L330.891 237.825V299.125C330.891 302.725 332.791 306.025 335.891 307.825L372.591 329.025C380.191 333.425 389.491 333.425 397.091 329.025L433.791 307.825C436.891 306.025 438.791 302.725 438.791 299.125V236.925L399.391 262.725Z" fill="url(#paint5_linear)"/>
<path d="M435.39 231.025L394.69 207.725C388.59 204.225 381.09 204.225 374.89 207.725L334.19 231.025C331.59 232.525 330.49 235.225 330.79 237.825C330.79 238.125 330.89 238.325 330.99 238.625C331.39 240.325 332.49 241.825 334.19 242.825L374.89 266.125C380.99 269.625 388.49 269.625 394.69 266.125L435.39 242.825C437.09 241.825 438.19 240.325 438.59 238.625C438.69 238.325 438.79 238.125 438.79 237.825C439.09 235.225 437.99 232.425 435.39 231.025Z" fill="#00ADEE"/>
<path d="M429.091 264.125C427.991 264.725 426.691 264.725 425.591 264.125L420.891 261.125V265.225C420.891 265.625 421.091 266.025 421.491 266.225L425.891 268.725C426.791 269.225 427.891 269.225 428.791 268.725L433.191 266.225C433.591 266.025 433.791 265.625 433.791 265.225V261.025L429.091 264.125Z" fill="url(#paint6_linear)"/>
<path d="M433.391 260.325L428.491 257.525C427.791 257.125 426.891 257.125 426.091 257.525L421.191 260.325C420.891 260.525 420.791 260.825 420.791 261.125V261.225C420.891 261.425 420.991 261.625 421.191 261.725L426.091 264.525C426.791 264.925 427.691 264.925 428.491 264.525L433.391 261.725C433.591 261.625 433.691 261.425 433.791 261.225V261.125C433.891 260.825 433.791 260.525 433.391 260.325Z" fill="white"/>
<path d="M373.791 302.825C373.791 302.325 373.491 301.925 373.091 301.625L368.391 299.025C368.391 299.025 363.591 302.725 363.791 302.925L372.391 307.925C373.091 308.325 373.891 307.825 373.891 307.125L373.791 302.825Z" fill="url(#paint7_linear)"/>
<path d="M364.091 302.825C362.991 303.425 361.691 303.425 360.591 302.825L355.891 299.825V303.925C355.891 304.325 356.091 304.725 356.491 304.925L360.891 307.425C361.791 307.925 362.891 307.925 363.791 307.425L368.191 304.925C368.591 304.725 368.791 304.325 368.791 303.925V299.725L364.091 302.825Z" fill="url(#paint8_linear)"/>
<path d="M368.391 299.025L363.491 296.225C362.791 295.825 361.891 295.825 361.091 296.225L356.191 299.025C355.891 299.225 355.791 299.525 355.791 299.825V299.925C355.891 300.125 355.991 300.325 356.191 300.425L361.091 303.225C361.791 303.625 362.691 303.625 363.491 303.225L368.391 300.425C368.591 300.325 368.691 300.125 368.791 299.925V299.825C368.791 299.525 368.691 299.125 368.391 299.025Z" fill="white"/>
<path opacity="0.1" d="M213.691 239.425L157.291 271.825L218.491 308.625C226.591 313.525 236.691 313.625 244.891 308.825L276.991 290.225C281.891 287.425 281.991 280.325 277.091 277.425L213.691 239.425Z" fill="url(#paint9_linear)"/>
<path d="M196.689 240.725C187.689 245.925 176.689 245.925 167.689 240.725L128.189 215.825V250.125C128.189 253.725 130.089 257.025 133.189 258.825L169.889 280.025C177.489 284.425 186.789 284.425 194.389 280.025L231.089 258.825C234.189 257.025 236.089 253.725 236.089 250.125V214.925L196.689 240.725Z" fill="url(#paint10_linear)"/>
<path d="M232.29 208.825L191.69 185.525C185.59 182.025 178.09 182.025 171.89 185.525L131.19 208.825C128.59 210.325 127.49 213.025 127.79 215.625C127.79 215.925 127.89 216.125 127.99 216.425C128.39 218.125 129.49 219.625 131.19 220.625L171.89 243.925C177.99 247.425 185.49 247.425 191.69 243.925L232.39 220.625C234.09 219.625 235.19 218.125 235.59 216.425C235.69 216.125 235.79 215.925 235.79 215.625C235.99 213.025 234.89 210.325 232.29 208.825Z" fill="#FB4B00"/>
<path d="M219.19 250.125C218.09 250.725 216.79 250.725 215.69 250.125L210.99 247.125V251.225C210.99 251.625 211.19 252.025 211.59 252.225L215.99 254.725C216.89 255.225 217.99 255.225 218.89 254.725L223.29 252.225C223.69 252.025 223.89 251.625 223.89 251.225V247.025L219.19 250.125Z" fill="url(#paint11_linear)"/>
<path d="M223.491 246.325L218.591 243.525C217.891 243.125 216.991 243.125 216.191 243.525L211.291 246.325C210.991 246.525 210.891 246.825 210.891 247.125V247.225C210.991 247.425 211.091 247.625 211.291 247.725L216.191 250.525C216.891 250.925 217.791 250.925 218.591 250.525L223.491 247.725C223.691 247.625 223.791 247.425 223.891 247.225V247.125C223.991 246.825 223.891 246.525 223.491 246.325Z" fill="white"/>
<path d="M153.59 240.325C153.59 239.825 153.29 239.425 152.89 239.125L148.19 236.525C148.19 236.525 143.39 240.225 143.59 240.425L152.19 245.425C152.89 245.825 153.69 245.325 153.69 244.625L153.59 240.325Z" fill="url(#paint12_linear)"/>
<path d="M143.79 240.225C142.69 240.825 141.39 240.825 140.29 240.225L135.59 237.225V241.325C135.59 241.725 135.79 242.125 136.19 242.325L140.59 244.825C141.49 245.325 142.59 245.325 143.49 244.825L147.89 242.325C148.29 242.125 148.49 241.725 148.49 241.325V237.125L143.79 240.225Z" fill="url(#paint13_linear)"/>
<path d="M148.19 236.425L143.29 233.625C142.59 233.225 141.69 233.225 140.89 233.625L135.99 236.425C135.69 236.625 135.59 236.925 135.59 237.225V237.325C135.69 237.525 135.79 237.725 135.99 237.825L140.89 240.625C141.59 241.025 142.49 241.025 143.29 240.625L148.19 237.825C148.39 237.725 148.49 237.525 148.59 237.325V237.225C148.59 236.925 148.49 236.625 148.19 236.425Z" fill="white"/>
<path opacity="0.1" d="M418.989 387.125L387.189 405.425L413.589 421.025C418.189 423.725 423.889 423.825 428.489 421.125L446.589 410.625C449.389 409.025 449.389 405.025 446.689 403.425L418.989 387.125Z" fill="url(#paint14_linear)"/>
<path d="M412.389 399.325C407.389 402.225 401.089 402.225 396.089 399.325L373.889 385.325V394.625C373.889 396.625 374.989 398.525 376.689 399.525L397.289 411.425C401.589 413.925 406.789 413.925 411.089 411.425L431.689 399.525C433.389 398.525 434.489 396.625 434.489 394.625V384.825L412.389 399.325Z" fill="url(#paint15_linear)"/>
<path d="M432.589 381.525L409.689 368.425C406.289 366.425 401.989 366.425 398.589 368.425L375.789 381.525C374.389 382.325 373.689 383.925 373.889 385.325C373.889 385.525 373.989 385.625 373.989 385.825C374.189 386.725 374.789 387.625 375.789 388.225L398.689 401.325C402.089 403.325 406.389 403.325 409.789 401.325L432.689 388.225C433.689 387.625 434.189 386.825 434.489 385.825C434.489 385.625 434.589 385.525 434.589 385.325C434.689 383.925 434.089 382.425 432.589 381.525Z" fill="#FFC700"/>
<path d="M210.091 445.425L194.391 454.525L207.691 462.225C209.991 463.625 212.791 463.625 215.091 462.325L224.091 457.125C225.491 456.325 225.491 454.325 224.091 453.525L210.091 445.425Z" fill="url(#paint16_linear)"/>
<path d="M206.59 451.525C204.09 452.925 200.99 452.925 198.49 451.525L187.49 444.625V449.225C187.49 450.225 187.99 451.125 188.89 451.625L199.09 457.525C201.19 458.725 203.79 458.725 205.89 457.525L216.09 451.625C216.99 451.125 217.49 450.225 217.49 449.225V444.325L206.59 451.525Z" fill="url(#paint17_linear)"/>
<path d="M216.591 442.725L205.291 436.225C203.591 435.225 201.491 435.225 199.791 436.225L188.491 442.725C187.791 443.125 187.491 443.925 187.591 444.625C187.591 444.725 187.591 444.825 187.691 444.825C187.791 445.325 188.091 445.725 188.591 446.025L199.891 452.525C201.591 453.525 203.691 453.525 205.391 452.525L216.691 446.025C217.191 445.725 217.491 445.325 217.591 444.825C217.591 444.725 217.591 444.725 217.691 444.625C217.591 443.825 217.291 443.125 216.591 442.725Z" fill="white"/>
<path d="M411.791 169.325L400.691 175.725L409.991 181.225C411.591 182.225 413.591 182.225 415.191 181.225L421.491 177.525C422.491 176.925 422.491 175.625 421.491 175.025L411.791 169.325Z" fill="url(#paint18_linear)"/>
<path d="M409.391 173.625C407.591 174.625 405.491 174.625 403.691 173.625L395.891 168.725V172.025C395.891 172.725 396.291 173.425 396.891 173.725L404.091 177.925C405.591 178.825 407.391 178.825 408.891 177.925L416.091 173.725C416.691 173.325 417.091 172.725 417.091 172.025V168.525L409.391 173.625Z" fill="url(#paint19_linear)"/>
<path d="M416.491 167.425L408.491 162.825C407.291 162.125 405.791 162.125 404.591 162.825L396.591 167.425C396.091 167.725 395.891 168.225 395.891 168.725C395.891 168.825 395.891 168.825 395.891 168.925C395.991 169.225 396.191 169.525 396.491 169.725L404.491 174.325C405.691 175.025 407.191 175.025 408.391 174.325L416.391 169.725C416.691 169.525 416.891 169.225 416.991 168.925C416.991 168.825 416.991 168.825 416.991 168.725C417.291 168.225 416.991 167.625 416.491 167.425Z" fill="white"/>
<path opacity="0.1" d="M321.99 384.425L267.49 415.725L400.99 495.525L452.157 459.5L321.99 384.425Z" fill="url(#paint20_linear)"/>
<path d="M314.191 133.725C306.291 138.325 296.591 138.325 288.591 133.725L253.891 111.825V403.825C253.891 407.025 255.591 409.925 258.291 411.425L290.591 430.125C297.291 434.025 305.491 434.025 312.191 430.125L344.491 411.425C347.191 409.825 348.891 406.925 348.891 403.825V111.025L314.191 133.725Z" fill="url(#paint21_linear)"/>
<path d="M345.89 105.825L310.09 85.325C304.69 82.225 298.09 82.225 292.69 85.325L256.89 105.825C254.59 107.125 253.59 109.525 253.89 111.825C253.89 112.025 253.99 112.325 254.09 112.525C254.49 114.025 255.39 115.325 256.89 116.225L292.69 136.725C298.09 139.825 304.69 139.825 310.09 136.725L345.89 116.225C347.39 115.325 348.29 114.025 348.69 112.525C348.79 112.325 348.79 112.025 348.89 111.825C349.19 109.525 348.19 107.125 345.89 105.825Z" fill="#00ADEE"/>
<path d="M318.055 99.9275L314.392 101.301L303.404 94.8912C301.115 93.5177 298.139 93.5177 295.849 94.8912L285.09 101.072L281.656 99.4696V113.434C281.656 115.265 282.572 117.097 284.174 118.012L296.078 124.88C298.367 126.253 301.343 126.253 303.633 124.88L315.308 118.012C316.91 117.097 317.826 115.265 317.826 113.434V99.9275H318.055Z" fill="#B8C9F5"/>
<path d="M316.444 102.676L303.853 110.001C301.564 111.375 298.588 111.375 296.299 110.001L283.25 102.447C281.19 101.302 281.19 98.3262 283.25 97.1816L295.841 89.8561C296.757 89.3983 297.672 88.9404 298.588 88.9404C299.275 88.9404 299.962 88.9404 300.419 88.9404C301.335 89.1694 302.251 89.3983 303.166 89.8561L316.215 97.4105C316.673 97.6394 316.902 97.8683 317.131 98.0973C318.504 99.4708 318.046 101.531 316.444 102.676Z" fill="#EBF0FC"/>
<path d="M299.968 99.9279C300.426 99.9279 300.884 99.47 300.884 99.0122V75.6623L299.282 74.7466V99.0122C299.053 99.47 299.51 99.9279 299.968 99.9279Z" fill="#819BEA"/>
<path d="M299.051 72V83.9039L314.846 93.0607L311.413 84.8196L314.846 80.699L299.051 72Z" fill="#FB4B00"/>
<path d="M295.291 330.325C295.291 329.825 294.991 329.425 294.591 329.125L289.891 326.525C289.891 326.525 285.091 330.225 285.291 330.425L293.891 335.425C294.591 335.825 295.391 335.325 295.391 334.625L295.291 330.325Z" fill="url(#paint22_linear)"/>
<path d="M285.591 330.325C284.491 330.925 283.191 330.925 282.091 330.325L277.391 327.325V331.425C277.391 331.825 277.591 332.225 277.991 332.425L282.391 334.925C283.291 335.425 284.391 335.425 285.291 334.925L289.691 332.425C290.091 332.225 290.291 331.825 290.291 331.425V327.225L285.591 330.325Z" fill="url(#paint23_linear)"/>
<path d="M289.891 326.425L284.991 323.625C284.291 323.225 283.391 323.225 282.591 323.625L277.691 326.425C277.391 326.625 277.291 326.925 277.291 327.225V327.325C277.391 327.525 277.491 327.725 277.691 327.825L282.591 330.625C283.291 331.025 284.191 331.025 284.991 330.625L289.891 327.825C290.091 327.725 290.191 327.525 290.291 327.325V327.225C290.391 327.025 290.191 326.625 289.891 326.425Z" fill="white"/>
<path d="M274.891 387.225C274.891 386.725 274.591 386.325 274.191 386.025L269.491 383.425C269.491 383.425 264.691 387.125 264.891 387.325L273.491 392.325C274.191 392.725 274.991 392.225 274.991 391.525L274.891 387.225Z" fill="url(#paint24_linear)"/>
<path d="M265.19 387.125C264.09 387.725 262.79 387.725 261.69 387.125L256.99 384.125V388.225C256.99 388.625 257.19 389.025 257.59 389.225L261.99 391.725C262.89 392.225 263.99 392.225 264.89 391.725L269.29 389.225C269.69 389.025 269.89 388.625 269.89 388.225V384.025L265.19 387.125Z" fill="url(#paint25_linear)"/>
<path d="M269.491 383.325L264.591 380.525C263.891 380.125 262.991 380.125 262.191 380.525L257.291 383.325C256.991 383.525 256.891 383.825 256.891 384.125V384.225C256.991 384.425 257.091 384.625 257.291 384.725L262.191 387.525C262.891 387.925 263.791 387.925 264.591 387.525L269.491 384.725C269.691 384.625 269.791 384.425 269.891 384.225V384.125C269.991 383.825 269.791 383.525 269.491 383.325Z" fill="white"/>
<path d="M275.59 249.725C275.59 249.225 275.29 248.825 274.89 248.525L270.19 245.925C270.19 245.925 265.39 249.625 265.59 249.825L274.19 254.825C274.89 255.225 275.69 254.725 275.69 254.025L275.59 249.725Z" fill="url(#paint26_linear)"/>
<path d="M265.79 249.725C264.69 250.325 263.39 250.325 262.29 249.725L257.59 246.725V250.825C257.59 251.225 257.79 251.625 258.19 251.825L262.59 254.325C263.49 254.825 264.59 254.825 265.49 254.325L269.89 251.825C270.29 251.625 270.49 251.225 270.49 250.825V246.625L265.79 249.725Z" fill="url(#paint27_linear)"/>
<path d="M270.09 245.825L265.19 243.025C264.49 242.625 263.59 242.625 262.79 243.025L257.89 245.825C257.59 246.025 257.49 246.325 257.49 246.625V246.725C257.59 246.925 257.69 247.125 257.89 247.225L262.79 250.025C263.49 250.425 264.39 250.425 265.19 250.025L270.09 247.225C270.29 247.125 270.39 246.925 270.49 246.725V246.625C270.59 246.425 270.49 246.025 270.09 245.825Z" fill="white"/>
<path d="M296.391 219.325C296.391 218.825 296.091 218.425 295.691 218.125L290.991 215.525C290.991 215.525 286.191 219.225 286.391 219.425L294.991 224.425C295.691 224.825 296.491 224.325 296.491 223.625L296.391 219.325Z" fill="url(#paint28_linear)"/>
<path d="M286.69 219.225C285.59 219.825 284.29 219.825 283.19 219.225L278.49 216.225V220.325C278.49 220.725 278.69 221.125 279.09 221.325L283.49 223.825C284.39 224.325 285.49 224.325 286.39 223.825L290.79 221.325C291.19 221.125 291.39 220.725 291.39 220.325V216.125L286.69 219.225Z" fill="url(#paint29_linear)"/>
<path d="M290.991 215.425L286.091 212.625C285.391 212.225 284.491 212.225 283.691 212.625L278.791 215.425C278.491 215.625 278.391 215.925 278.391 216.225V216.325C278.491 216.525 278.591 216.725 278.791 216.825L283.691 219.625C284.391 220.025 285.291 220.025 286.091 219.625L290.991 216.825C291.191 216.725 291.291 216.525 291.391 216.325V216.225C291.491 215.925 291.291 215.625 290.991 215.425Z" fill="white"/>
<path d="M289.49 158.425C289.49 157.925 289.19 157.525 288.79 157.225L284.09 154.625C284.09 154.625 279.29 158.325 279.49 158.525L288.09 163.525C288.79 163.925 289.59 163.425 289.59 162.725L289.49 158.425Z" fill="url(#paint30_linear)"/>
<path d="M279.69 158.425C278.59 159.025 277.29 159.025 276.19 158.425L271.49 155.425V159.525C271.49 159.925 271.69 160.325 272.09 160.525L276.49 163.025C277.39 163.525 278.49 163.525 279.39 163.025L283.79 160.525C284.19 160.325 284.39 159.925 284.39 159.525V155.325L279.69 158.425Z" fill="url(#paint31_linear)"/>
<path d="M284.09 154.625L279.19 151.825C278.49 151.425 277.59 151.425 276.79 151.825L271.89 154.625C271.59 154.825 271.49 155.125 271.49 155.425V155.525C271.59 155.725 271.69 155.925 271.89 156.025L276.79 158.825C277.49 159.225 278.39 159.225 279.19 158.825L284.09 156.025C284.29 155.925 284.39 155.725 284.49 155.525V155.425C284.49 155.125 284.39 154.825 284.09 154.625Z" fill="white"/>
<path d="M322.69 294.525C321.59 295.125 320.29 295.125 319.19 294.525L314.49 291.525V295.625C314.49 296.025 314.69 296.425 315.09 296.625L319.49 299.125C320.39 299.625 321.49 299.625 322.39 299.125L326.79 296.625C327.19 296.425 327.39 296.025 327.39 295.625V291.425L322.69 294.525Z" fill="url(#paint32_linear)"/>
<path d="M327.09 290.725L322.19 287.925C321.49 287.525 320.59 287.525 319.79 287.925L314.89 290.725C314.59 290.925 314.49 291.225 314.49 291.525V291.625C314.59 291.825 314.69 292.025 314.89 292.125L319.79 294.925C320.49 295.325 321.39 295.325 322.19 294.925L327.09 292.125C327.29 292.025 327.39 291.825 327.49 291.625V291.525C327.49 291.225 327.39 290.825 327.09 290.725Z" fill="white"/>
<path d="M336.591 394.325C335.491 394.925 334.191 394.925 333.091 394.325L328.391 391.325V395.425C328.391 395.825 328.591 396.225 328.991 396.425L333.391 398.925C334.291 399.425 335.391 399.425 336.291 398.925L340.691 396.425C341.091 396.225 341.291 395.825 341.291 395.425V391.225L336.591 394.325Z" fill="url(#paint33_linear)"/>
<path d="M340.891 390.525L335.991 387.725C335.291 387.325 334.391 387.325 333.591 387.725L328.691 390.525C328.391 390.725 328.291 391.025 328.291 391.325V391.425C328.391 391.625 328.491 391.825 328.691 391.925L333.591 394.725C334.291 395.125 335.191 395.125 335.991 394.725L340.891 391.925C341.091 391.825 341.191 391.625 341.291 391.425V391.325C341.291 391.025 341.191 390.725 340.891 390.525Z" fill="white"/>
<path d="M337.69 189.725C336.59 190.325 335.29 190.325 334.19 189.725L329.49 186.725V190.825C329.49 191.225 329.69 191.625 330.09 191.825L334.49 194.325C335.39 194.825 336.49 194.825 337.39 194.325L341.79 191.825C342.19 191.625 342.39 191.225 342.39 190.825V186.625L337.69 189.725Z" fill="url(#paint34_linear)"/>
<path d="M341.991 185.925L337.091 183.125C336.391 182.725 335.491 182.725 334.691 183.125L329.791 185.925C329.491 186.125 329.391 186.425 329.391 186.725V186.825C329.491 187.025 329.591 187.225 329.791 187.325L334.691 190.125C335.391 190.525 336.291 190.525 337.091 190.125L341.991 187.325C342.191 187.225 342.291 187.025 342.391 186.825V186.725C342.491 186.425 342.391 186.125 341.991 185.925Z" fill="white"/>
<path d="M263.891 248.825C263.691 249.025 263.491 249.225 263.191 249.525C262.491 250.225 261.791 250.925 261.291 251.725C260.991 252.125 260.591 252.525 259.991 252.625C259.091 252.825 258.291 252.225 258.191 251.325C258.191 251.225 258.191 251.025 258.191 250.925C258.191 250.825 258.191 250.825 258.191 250.725V250.525C258.191 250.125 258.191 249.725 258.191 249.325C258.191 248.425 258.091 247.625 257.991 246.725C257.891 245.925 257.791 245.025 257.691 243.825L261.691 243.225L261.391 246.725C261.791 246.325 262.491 245.925 262.891 245.825C263.091 245.825 263.191 245.725 263.391 245.725L263.691 245.625C264.191 245.525 264.691 245.825 264.891 246.225C264.891 246.325 264.991 246.325 264.991 246.425C264.891 246.325 265.091 247.525 263.891 248.825Z" fill="#FCBAD7"/>
<path d="M262.892 227.325L261.592 243.725C261.492 245.225 257.492 245.825 257.292 244.525C257.292 244.525 255.792 230.225 256.492 224.625L250.092 203.525L260.492 203.925L262.792 224.025C263.092 225.125 263.092 226.225 262.892 227.325Z" fill="#1F243F"/>
<path d="M265.091 246.125C265.091 246.825 265.091 247.525 263.891 248.725C263.691 248.925 263.491 249.125 263.191 249.425C262.491 250.125 261.791 250.825 261.291 251.625C260.991 252.025 260.591 252.425 259.991 252.525C259.091 252.725 258.291 252.625 258.191 251.225C258.191 251.125 258.191 251.025 258.191 250.825C258.191 250.725 258.191 250.725 258.191 250.625C258.191 250.525 258.191 250.425 258.191 250.425C258.391 250.825 258.891 250.825 259.291 250.825C259.891 250.725 260.291 250.425 260.691 250.025C261.291 249.225 265.291 245.725 262.191 246.125L263.091 245.425C263.791 244.725 265.191 245.225 265.091 246.125Z" fill="#5E6DB5"/>
<path d="M277.191 212.425C277.891 215.225 277.891 216.725 277.991 217.225C278.091 218.025 278.491 218.925 278.991 219.325C279.991 220.125 281.391 219.325 282.491 218.725L285.791 217.025C286.991 216.425 287.591 215.225 287.591 214.425C287.491 213.925 286.991 213.525 286.391 213.625L283.691 214.225C282.991 214.425 282.191 214.325 281.591 213.925C281.291 213.725 281.091 213.425 281.091 213.125C280.991 212.325 280.891 211.025 280.791 209.425C280.691 209.225 277.191 212.125 277.191 212.425Z" fill="#FCBAD7"/>
<path d="M277.192 212.925C277.392 214.025 280.892 213.425 280.992 212.025C280.992 212.025 281.392 201.425 281.092 192.725L274.692 191.425H274.592L274.692 191.925L274.792 192.325C274.892 195.725 277.092 212.425 277.192 212.925Z" fill="#1F243F"/>
<path d="M286.293 213.525L284.493 213.925C285.193 213.925 285.693 214.425 285.093 215.125C284.493 215.925 278.393 218.725 277.893 217.325C277.993 217.625 277.993 217.825 277.993 217.925C278.093 218.425 278.393 219.025 278.793 219.325C279.793 220.125 281.193 219.325 282.293 218.725L285.593 217.025C286.793 216.425 287.393 215.225 287.393 214.425C287.393 213.825 286.893 213.425 286.293 213.525Z" fill="#5E6DB5"/>
<path d="M280.791 191.425C281.391 192.725 281.091 194.225 280.091 195.225C278.291 197.125 275.291 200.225 272.791 202.825C269.291 206.525 264.391 208.625 259.291 208.425C257.391 208.325 251.491 206.825 249.891 203.525C249.191 202.025 249.191 199.725 249.291 197.925C249.391 196.625 249.391 195.325 249.291 194.325C249.191 193.125 249.791 191.925 250.791 191.225C253.491 189.425 258.791 187.025 262.691 192.925C262.791 193.125 262.991 193.425 263.191 193.725C264.291 195.425 266.691 195.825 268.291 194.625L275.591 189.825C277.491 188.825 279.891 189.525 280.791 191.425Z" fill="#1F243F"/>
<path d="M259.491 165.425C259.491 169.425 256.991 170.225 254.391 169.525C251.491 168.725 249.191 165.925 248.691 163.625C247.791 160.125 249.591 157.425 252.391 156.725C258.891 155.025 259.491 164.025 259.491 165.425Z" fill="#FCBAD7"/>
<path d="M251.49 163.525L252.29 171.225C252.29 171.625 252.69 171.925 253.29 172.025C254.39 172.325 255.89 172.025 256.59 171.425C256.89 171.225 256.99 170.925 256.99 170.625L256.19 162.925L251.49 163.525Z" fill="#FCBAC0"/>
<path d="M279.992 151.825C279.792 151.625 279.692 151.525 279.692 151.525C279.692 151.525 279.292 150.525 278.792 150.425C277.792 150.325 277.292 152.425 277.292 152.425C277.292 152.425 277.492 151.425 277.592 151.025C277.692 150.625 277.392 150.225 277.192 150.125C276.692 149.925 276.592 150.425 276.592 150.725L275.492 153.225C275.392 153.525 275.392 153.925 275.392 154.325V155.025C275.392 155.825 275.092 157.325 275.092 157.825L276.592 160.725C276.692 160.225 278.092 157.225 278.392 156.825C278.792 156.225 279.292 155.725 279.592 155.025C279.592 155.025 280.492 153.525 280.392 152.925C280.492 152.625 280.392 152.125 279.992 151.825Z" fill="#FCBAD7"/>
<path d="M274.691 157.825L268.191 168.025L263.891 170.725C263.691 170.825 263.391 171.025 263.091 171.125C261.391 171.925 259.391 171.825 257.791 170.825C256.391 170.025 254.891 169.125 254.891 169.125L254.391 168.925L254.091 168.825C254.091 168.825 254.091 168.825 253.991 168.825C253.891 168.825 253.691 168.925 253.391 169.025C252.891 169.325 252.191 169.725 252.091 169.725C251.591 169.525 250.991 169.525 250.491 169.425C249.091 169.425 247.791 169.825 246.891 170.825C245.691 172.025 245.691 173.825 245.691 175.225C245.791 179.925 246.691 183.325 247.091 185.525C248.591 193.125 247.491 198.025 248.391 198.925C251.991 202.525 264.591 198.025 263.891 194.825C263.791 194.225 263.491 193.425 263.191 192.625C262.691 191.425 262.391 190.125 262.391 188.825C262.391 185.725 262.991 182.325 263.491 179.825C264.091 179.225 264.591 178.625 264.791 178.425C266.591 176.825 270.591 173.925 271.891 172.925C272.691 172.325 273.291 171.525 273.691 170.625L277.791 159.425C278.391 158.425 275.391 156.925 274.691 157.825Z" fill="#00ADEE"/>
<path d="M255.157 173.525C254.957 173.325 256.891 167.425 256.591 167.225C257.091 166.225 257.391 165.025 257.491 163.925C257.491 163.425 257.691 162.925 257.991 162.625C258.091 162.525 258.091 162.525 258.191 162.425C259.291 160.825 260.391 159.125 256.991 157.225C254.491 155.825 247.191 154.225 243.891 160.125C243.291 161.225 242.291 163.225 241.991 164.725C241.691 166.225 241.791 167.425 242.091 168.425C242.391 169.525 242.391 170.725 241.891 171.725C241.591 172.425 241.391 173.225 241.391 174.025C241.391 175.825 242.191 177.125 242.991 177.925C243.691 178.725 244.391 179.625 244.691 180.725C245.291 182.825 247.391 184.425 249.691 184.425C251.891 184.425 253.791 183.025 254.591 181.125C255.091 179.825 253.591 180.5 254.591 179.5C255.591 178.6 254.957 179 255.157 177C255.157 174.8 256.357 174.925 255.157 173.525Z" fill="#292B36"/>
<path d="M257.39 165.325C258.09 165.925 258.39 166.725 257.99 167.225C257.59 167.725 256.69 167.525 255.99 166.925C255.29 166.325 254.99 165.525 255.39 165.025C255.79 164.625 256.69 164.725 257.39 165.325Z" fill="#FCBAD7"/>
<defs>
<linearGradient id="paint0_linear" x1="506.563" y1="35.6342" x2="47.5062" y2="367.083" gradientUnits="userSpaceOnUse">
<stop stop-color="white"/>
<stop offset="0.765425" stop-color="#D9EFFB"/>
</linearGradient>
<linearGradient id="paint1_linear" x1="153.952" y1="360.561" x2="194.855" y2="389.835" gradientUnits="userSpaceOnUse">
<stop stop-color="#919ACF"/>
<stop offset="0.5625" stop-color="#ADB5DE"/>
<stop offset="1" stop-color="#D1D5ED"/>
</linearGradient>
<linearGradient id="paint2_linear" x1="107.979" y1="358.146" x2="225.716" y2="358.146" gradientUnits="userSpaceOnUse">
<stop stop-color="#EDEDF8"/>
<stop offset="0.2198" stop-color="#EBEBF7"/>
<stop offset="0.2989" stop-color="#E4E6F5"/>
<stop offset="0.3551" stop-color="#D9DBF0"/>
<stop offset="0.3784" stop-color="#D1D5ED"/>
</linearGradient>
<linearGradient id="paint3_linear" x1="164.086" y1="364.252" x2="189.238" y2="364.252" gradientUnits="userSpaceOnUse">
<stop stop-color="#EDEDF8"/>
<stop offset="0.2198" stop-color="#EBEBF7"/>
<stop offset="0.2989" stop-color="#E4E6F5"/>
<stop offset="0.3551" stop-color="#D9DBF0"/>
<stop offset="0.3784" stop-color="#D1D5ED"/>
</linearGradient>
<linearGradient id="paint4_linear" x1="397.587" y1="304.377" x2="481.071" y2="364.126" gradientUnits="userSpaceOnUse">
<stop stop-color="#7A86C9"/>
<stop offset="0.5625" stop-color="#ADB5DE"/>
<stop offset="1" stop-color="#D1D5ED"/>
</linearGradient>
<linearGradient id="paint5_linear" x1="311.892" y1="284.577" x2="521.397" y2="284.577" gradientUnits="userSpaceOnUse">
<stop stop-color="#EDEDF8"/>
<stop offset="0.2198" stop-color="#EBEBF7"/>
<stop offset="0.2989" stop-color="#E4E6F5"/>
<stop offset="0.3551" stop-color="#D9DBF0"/>
<stop offset="0.3784" stop-color="#D1D5ED"/>
</linearGradient>
<linearGradient id="paint6_linear" x1="418.607" y1="265.129" x2="443.76" y2="265.129" gradientUnits="userSpaceOnUse">
<stop stop-color="#D1D5ED"/>
<stop offset="0.8306" stop-color="#8994CF"/>
<stop offset="1" stop-color="#7A86C9"/>
</linearGradient>
<linearGradient id="paint7_linear" x1="365.579" y1="300.612" x2="374.784" y2="305.905" gradientUnits="userSpaceOnUse">
<stop stop-color="#7A86C9"/>
<stop offset="0.5316" stop-color="#A6AEDB"/>
<stop offset="1" stop-color="#D1D5ED"/>
</linearGradient>
<linearGradient id="paint8_linear" x1="353.563" y1="303.794" x2="378.716" y2="303.794" gradientUnits="userSpaceOnUse">
<stop stop-color="#EDEDF8"/>
<stop offset="0.2198" stop-color="#EBEBF7"/>
<stop offset="0.2989" stop-color="#E4E6F5"/>
<stop offset="0.3551" stop-color="#D9DBF0"/>
<stop offset="0.3784" stop-color="#D1D5ED"/>
</linearGradient>
<linearGradient id="paint9_linear" x1="190.809" y1="255.79" x2="258.809" y2="304.457" gradientUnits="userSpaceOnUse">
<stop stop-color="#7A86C9"/>
<stop offset="0.5625" stop-color="#ADB5DE"/>
<stop offset="1" stop-color="#D1D5ED"/>
</linearGradient>
<linearGradient id="paint10_linear" x1="109.169" y1="249.157" x2="318.674" y2="249.157" gradientUnits="userSpaceOnUse">
<stop stop-color="#EDEDF8"/>
<stop offset="0.2198" stop-color="#EBEBF7"/>
<stop offset="0.2989" stop-color="#E4E6F5"/>
<stop offset="0.3551" stop-color="#D9DBF0"/>
<stop offset="0.3784" stop-color="#D1D5ED"/>
</linearGradient>
<linearGradient id="paint11_linear" x1="208.709" y1="251.145" x2="233.861" y2="251.145" gradientUnits="userSpaceOnUse">
<stop stop-color="#D1D5ED"/>
<stop offset="0.8306" stop-color="#8994CF"/>
<stop offset="1" stop-color="#7A86C9"/>
</linearGradient>
<linearGradient id="paint12_linear" x1="145.326" y1="238.084" x2="154.53" y2="243.377" gradientUnits="userSpaceOnUse">
<stop stop-color="#7A86C9"/>
<stop offset="0.5316" stop-color="#A6AEDB"/>
<stop offset="1" stop-color="#D1D5ED"/>
</linearGradient>
<linearGradient id="paint13_linear" x1="133.31" y1="241.267" x2="158.463" y2="241.267" gradientUnits="userSpaceOnUse">
<stop stop-color="#EDEDF8"/>
<stop offset="0.2198" stop-color="#EBEBF7"/>
<stop offset="0.2989" stop-color="#E4E6F5"/>
<stop offset="0.3551" stop-color="#D9DBF0"/>
<stop offset="0.3784" stop-color="#D1D5ED"/>
</linearGradient>
<linearGradient id="paint14_linear" x1="404.672" y1="395.652" x2="437.039" y2="418.817" gradientUnits="userSpaceOnUse">
<stop stop-color="#7A86C9"/>
<stop offset="0.5625" stop-color="#ADB5DE"/>
<stop offset="1" stop-color="#D1D5ED"/>
</linearGradient>
<linearGradient id="paint15_linear" x1="363.185" y1="399.094" x2="480.922" y2="399.094" gradientUnits="userSpaceOnUse">
<stop stop-color="#EDEDF8"/>
<stop offset="0.2198" stop-color="#EBEBF7"/>
<stop offset="0.2989" stop-color="#E4E6F5"/>
<stop offset="0.3551" stop-color="#D9DBF0"/>
<stop offset="0.3784" stop-color="#D1D5ED"/>
</linearGradient>
<linearGradient id="paint16_linear" x1="203.076" y1="449.639" x2="219.214" y2="461.188" gradientUnits="userSpaceOnUse">
<stop stop-color="#7A86C9"/>
<stop offset="0.5625" stop-color="#ADB5DE"/>
<stop offset="1" stop-color="#D1D5ED"/>
</linearGradient>
<linearGradient id="paint17_linear" x1="182.233" y1="451.38" x2="240.486" y2="451.38" gradientUnits="userSpaceOnUse">
<stop stop-color="#EDEDF8"/>
<stop offset="0.2198" stop-color="#EBEBF7"/>
<stop offset="0.2989" stop-color="#E4E6F5"/>
<stop offset="0.3551" stop-color="#D9DBF0"/>
<stop offset="0.3784" stop-color="#D1D5ED"/>
</linearGradient>
<linearGradient id="paint18_linear" x1="406.759" y1="172.303" x2="418.118" y2="180.432" gradientUnits="userSpaceOnUse">
<stop stop-color="#7A86C9"/>
<stop offset="0.5625" stop-color="#ADB5DE"/>
<stop offset="1" stop-color="#D1D5ED"/>
</linearGradient>
<linearGradient id="paint19_linear" x1="392.216" y1="173.516" x2="433.45" y2="173.516" gradientUnits="userSpaceOnUse">
<stop stop-color="#EDEDF8"/>
<stop offset="0.2198" stop-color="#EBEBF7"/>
<stop offset="0.2989" stop-color="#E4E6F5"/>
<stop offset="0.3551" stop-color="#D9DBF0"/>
<stop offset="0.3784" stop-color="#D1D5ED"/>
</linearGradient>
<linearGradient id="paint20_linear" x1="321.782" y1="408.38" x2="472.745" y2="516.422" gradientUnits="userSpaceOnUse">
<stop stop-color="#7A86C9"/>
<stop offset="0.5625" stop-color="#ADB5DE"/>
<stop offset="1" stop-color="#D1D5ED"/>
</linearGradient>
<linearGradient id="paint21_linear" x1="237.132" y1="271.975" x2="421.57" y2="271.975" gradientUnits="userSpaceOnUse">
<stop stop-color="#EDEDF8"/>
<stop offset="0.2198" stop-color="#EBEBF7"/>
<stop offset="0.2989" stop-color="#E4E6F5"/>
<stop offset="0.3551" stop-color="#D9DBF0"/>
<stop offset="0.3784" stop-color="#D1D5ED"/>
</linearGradient>
<linearGradient id="paint22_linear" x1="287.098" y1="328.099" x2="296.302" y2="333.392" gradientUnits="userSpaceOnUse">
<stop stop-color="#7A86C9"/>
<stop offset="0.5316" stop-color="#A6AEDB"/>
<stop offset="1" stop-color="#D1D5ED"/>
</linearGradient>
<linearGradient id="paint23_linear" x1="275.082" y1="331.282" x2="300.234" y2="331.282" gradientUnits="userSpaceOnUse">
<stop stop-color="#EDEDF8"/>
<stop offset="0.2198" stop-color="#EBEBF7"/>
<stop offset="0.2989" stop-color="#E4E6F5"/>
<stop offset="0.3551" stop-color="#D9DBF0"/>
<stop offset="0.3784" stop-color="#D1D5ED"/>
</linearGradient>
<linearGradient id="paint24_linear" x1="266.69" y1="384.989" x2="275.895" y2="390.282" gradientUnits="userSpaceOnUse">
<stop stop-color="#7A86C9"/>
<stop offset="0.5316" stop-color="#A6AEDB"/>
<stop offset="1" stop-color="#D1D5ED"/>
</linearGradient>
<linearGradient id="paint25_linear" x1="254.674" y1="388.172" x2="279.827" y2="388.172" gradientUnits="userSpaceOnUse">
<stop stop-color="#EDEDF8"/>
<stop offset="0.2198" stop-color="#EBEBF7"/>
<stop offset="0.2989" stop-color="#E4E6F5"/>
<stop offset="0.3551" stop-color="#D9DBF0"/>
<stop offset="0.3784" stop-color="#D1D5ED"/>
</linearGradient>
<linearGradient id="paint26_linear" x1="267.32" y1="247.502" x2="276.524" y2="252.795" gradientUnits="userSpaceOnUse">
<stop stop-color="#7A86C9"/>
<stop offset="0.5316" stop-color="#A6AEDB"/>
<stop offset="1" stop-color="#D1D5ED"/>
</linearGradient>
<linearGradient id="paint27_linear" x1="255.304" y1="250.685" x2="280.457" y2="250.685" gradientUnits="userSpaceOnUse">
<stop stop-color="#EDEDF8"/>
<stop offset="0.2198" stop-color="#EBEBF7"/>
<stop offset="0.2989" stop-color="#E4E6F5"/>
<stop offset="0.3551" stop-color="#D9DBF0"/>
<stop offset="0.3784" stop-color="#D1D5ED"/>
</linearGradient>
<linearGradient id="paint28_linear" x1="288.185" y1="217.088" x2="297.39" y2="222.381" gradientUnits="userSpaceOnUse">
<stop stop-color="#7A86C9"/>
<stop offset="0.5316" stop-color="#A6AEDB"/>
<stop offset="1" stop-color="#D1D5ED"/>
</linearGradient>
<linearGradient id="paint29_linear" x1="276.169" y1="220.27" x2="301.322" y2="220.27" gradientUnits="userSpaceOnUse">
<stop stop-color="#EDEDF8"/>
<stop offset="0.2198" stop-color="#EBEBF7"/>
<stop offset="0.2989" stop-color="#E4E6F5"/>
<stop offset="0.3551" stop-color="#D9DBF0"/>
<stop offset="0.3784" stop-color="#D1D5ED"/>
</linearGradient>
<linearGradient id="paint30_linear" x1="281.229" y1="156.231" x2="290.434" y2="161.524" gradientUnits="userSpaceOnUse">
<stop stop-color="#7A86C9"/>
<stop offset="0.5316" stop-color="#A6AEDB"/>
<stop offset="1" stop-color="#D1D5ED"/>
</linearGradient>
<linearGradient id="paint31_linear" x1="269.213" y1="159.414" x2="294.366" y2="159.414" gradientUnits="userSpaceOnUse">
<stop stop-color="#EDEDF8"/>
<stop offset="0.2198" stop-color="#EBEBF7"/>
<stop offset="0.2989" stop-color="#E4E6F5"/>
<stop offset="0.3551" stop-color="#D9DBF0"/>
<stop offset="0.3784" stop-color="#D1D5ED"/>
</linearGradient>
<linearGradient id="paint32_linear" x1="312.228" y1="295.496" x2="337.381" y2="295.496" gradientUnits="userSpaceOnUse">
<stop stop-color="#D1D5ED"/>
<stop offset="0.8306" stop-color="#8994CF"/>
<stop offset="1" stop-color="#7A86C9"/>
</linearGradient>
<linearGradient id="paint33_linear" x1="326.064" y1="395.325" x2="351.217" y2="395.325" gradientUnits="userSpaceOnUse">
<stop stop-color="#D1D5ED"/>
<stop offset="0.8306" stop-color="#8994CF"/>
<stop offset="1" stop-color="#7A86C9"/>
</linearGradient>
<linearGradient id="paint34_linear" x1="327.204" y1="190.774" x2="352.357" y2="190.774" gradientUnits="userSpaceOnUse">
<stop stop-color="#D1D5ED"/>
<stop offset="0.8306" stop-color="#8994CF"/>
<stop offset="1" stop-color="#7A86C9"/>
</linearGradient>
</defs>
</svg>
