<svg width="75" height="75" viewBox="0 0 75 75" fill="none" xmlns="http://www.w3.org/2000/svg">
<path d="M47.3347 40.8509V47.6373C47.3347 49.0008 45.2158 50.1853 42.1052 50.7829C40.5882 51.063 39.0488 51.2008 37.5062 51.1946C32.0771 51.1946 27.6765 49.6028 27.6765 47.6373V40.8509C27.6765 42.8163 32.0771 44.4081 37.5062 44.4081C42.9354 44.4081 47.3347 42.8163 47.3347 40.8509Z" fill="#FFC700"/>
<path d="M47.3347 40.7099V40.8509C47.3347 42.8163 42.9354 44.4081 37.5062 44.4081C32.0771 44.4081 27.6765 42.8163 27.6765 40.8509V34.1125C27.6765 36.0779 32.0771 37.6685 37.5062 37.6685C42.9354 37.6685 47.3347 36.0779 47.3347 34.1125V40.7099Z" fill="#00ADEE"/>
<path d="M47.3347 27.3722V34.1125C47.3347 36.0779 42.9354 37.6685 37.5062 37.6685C32.0771 37.6685 27.6765 36.0779 27.6765 34.1125V27.3722C27.6765 29.3364 32.0771 30.9294 37.5062 30.9294C42.9354 30.9294 47.3347 29.3364 47.3347 27.3722Z" fill="#FFC700"/>
<path d="M37.5062 23.8143C42.9335 23.8143 47.3347 25.408 47.3347 27.3722C47.3347 29.3364 42.9335 30.9294 37.5062 30.9294C32.079 30.9294 27.6765 29.3364 27.6765 27.3722C27.6765 25.408 32.0771 23.8143 37.5062 23.8143Z" fill="#00ADEE"/>
<path d="M0.537141 16.8426C0.356252 14.7892 0.476637 12.7208 0.893928 10.7024L0.897671 10.6855C1.4946 7.9909 2.68722 5.73541 4.44371 3.98017C6.87635 1.54628 10.2128 0.214565 14.3608 0.0230731C16.2308 -0.0474111 18.1027 0.0798347 19.9465 0.401692L19.5055 2.91854C17.8432 2.62787 16.1547 2.5131 14.4681 2.5761C10.9869 2.7364 8.21867 3.81737 6.2501 5.78718C4.84541 7.19063 3.8842 9.02134 3.39393 11.2294C3.02841 13.0009 2.92362 14.8173 3.08206 16.6193L0.537141 16.8426Z" fill="#FB4B00"/>
<path d="M6.44582 34.541C5.6443 33.0789 4.90889 31.6081 4.25956 30.1685L6.58866 29.1181C7.21117 30.4972 7.91601 31.9087 8.68634 33.3128L6.44582 34.541ZM2.44694 25.6063C1.99035 24.2759 1.6005 22.9236 1.28052 21.5538L3.76929 20.9775C4.07057 22.263 4.43609 23.5317 4.86461 24.7799L2.44694 25.6063Z" fill="#FB4B00"/>
<path d="M19.6762 52.2581C19.3644 51.9337 19.0556 51.6081 18.75 51.2819C18.0507 50.5328 17.3752 49.788 16.7427 49.0676C16.6286 48.9372 16.5144 48.8068 16.4009 48.6759L18.3302 47.0011C18.4406 47.1283 18.551 47.2549 18.6626 47.3816C19.2783 48.0827 19.9357 48.8081 20.6162 49.5373C20.9138 49.8554 21.2144 50.1722 21.5194 50.4891L19.6762 52.2581ZM13.314 44.9227C13.1225 44.6763 12.9328 44.43 12.7457 44.183C11.9448 43.1288 11.1682 42.0591 10.4397 40.9999L12.5436 39.551C13.2497 40.5764 14.0026 41.6143 14.7792 42.6373C14.9619 42.8774 15.1459 43.117 15.3312 43.3559L13.314 44.9227Z" fill="#FB4B00"/>
<path d="M59.6222 74.0876C58.8331 74.0876 58.0223 74.0477 57.1883 73.9678C56.6007 73.9111 55.9938 73.8337 55.3838 73.737L55.783 71.2146C56.3419 71.3025 56.8958 71.3742 57.4316 71.4248C59.616 71.6344 61.6151 71.5395 63.3766 71.1435C65.5566 70.6519 67.3686 69.6957 68.7621 68.3023C71.5758 65.4891 72.5801 60.9819 71.6669 55.2677C71.1791 52.225 70.163 48.9285 68.646 45.4716L70.9857 44.4449C72.59 48.102 73.6685 51.6069 74.1893 54.8641C75.2379 61.421 73.986 66.6924 70.5691 70.1093C68.8282 71.8495 66.5976 73.0359 63.9379 73.636C62.5202 73.9454 61.073 74.0963 59.6222 74.0876Z" fill="#FB4B00"/>
<path d="M67.5013 43.0247C66.9742 41.9637 66.3947 40.8764 65.7778 39.7936L67.9971 38.5286C68.6384 39.6533 69.2415 40.7841 69.7898 41.8894L67.5013 43.0247Z" fill="#FB4B00"/>
<path d="M62.8007 35.0263C61.9174 33.7307 60.9874 32.4433 60.0368 31.2002L62.0659 29.6476C63.0452 30.9282 64.0027 32.2531 64.9121 33.5873L62.8007 35.0263ZM57.0678 27.53C56.0498 26.3399 54.985 25.1616 53.9028 24.0289L55.751 22.2643C56.865 23.4307 57.961 24.6433 59.0095 25.8696L57.0678 27.53Z" fill="#FB4B00"/>
<path d="M14.987 74.5541C13.5473 74.5548 12.1121 74.4069 10.7024 74.1144C7.99531 73.5187 5.73857 72.3261 3.98021 70.5684C1.54632 68.1351 0.215857 64.798 0.023741 60.6494C-0.0467433 58.78 0.0805024 56.9082 0.402983 55.0656L2.91921 55.506C2.62854 57.1683 2.51377 58.8561 2.57676 60.5421C2.73769 64.0233 3.81803 66.7928 5.7866 68.762C7.19379 70.1698 9.02762 71.1297 11.237 71.6156C13.0065 71.9818 14.8198 72.0872 16.62 71.9281L16.8433 74.4731C16.2245 74.5273 15.6057 74.5541 14.987 74.5541Z" fill="#FB4B00"/>
<path d="M21.5551 73.7295L20.9788 71.2408C22.2637 70.9395 23.5324 70.574 24.7805 70.1454L25.6064 72.5631C24.2765 73.0197 22.9242 73.4089 21.5551 73.7295ZM30.1691 70.7511L29.1187 68.422C30.4979 67.8008 31.9094 67.0953 33.3141 66.325L34.5417 68.5655C33.0796 69.3664 31.6081 70.1024 30.1691 70.7511Z" fill="#FB4B00"/>
<path d="M41.0012 64.5704L39.5522 62.4664C40.5902 61.7522 41.6281 61 42.6373 60.2309C42.8787 60.0481 43.1182 59.8641 43.3559 59.6789L44.9234 61.6961C44.677 61.8882 44.4306 62.0778 44.1836 62.265C43.1432 63.0565 42.0722 63.8331 41.0012 64.5704ZM48.6771 58.6104L47.003 56.6805C47.1296 56.5701 47.2569 56.4597 47.3835 56.3487C48.079 55.7368 48.805 55.0787 49.5392 54.3944C49.856 54.0982 50.1729 53.795 50.4898 53.4912L52.2594 55.3338C51.9344 55.6457 51.6088 55.9551 51.2826 56.262C50.5284 56.9643 49.7843 57.6392 49.0695 58.2679C48.9379 58.3833 48.8075 58.4975 48.6771 58.6104Z" fill="#FB4B00"/>
<path d="M73.7383 19.6258L71.2146 19.2266C71.3031 18.6677 71.3742 18.1132 71.4254 17.578C71.635 15.3949 71.5402 13.3951 71.1441 11.6349C70.6526 9.45298 69.6963 7.64036 68.3029 6.24689C65.4891 3.43439 60.9825 2.43014 55.2677 3.34332C52.225 3.83047 48.9285 4.84656 45.4716 6.36353L44.4456 4.02508C48.102 2.42079 51.6069 1.34232 54.8641 0.821482C61.4216 -0.227672 66.6924 1.02483 70.1093 4.44175C71.8502 6.18202 73.0366 8.41319 73.6366 11.0741C74.0919 13.0994 74.2036 15.3699 73.9684 17.8231C73.9123 18.4095 73.835 19.0164 73.7383 19.6258Z" fill="#FB4B00"/>
<path d="M39.6827 9.29768L38.4121 7.08148C39.5742 6.41531 40.7437 5.78969 41.8902 5.2202L43.0266 7.50875C41.9251 8.05516 40.8005 8.65708 39.6827 9.29768Z" fill="#FB4B00"/>
<path d="M24.0302 21.1072L22.2656 19.2584C23.4314 18.145 24.6452 17.0484 25.8709 15.9999L27.532 17.9416C26.3412 18.9609 25.163 20.025 24.0302 21.1072ZM31.2015 14.9738L29.6496 12.9441C30.9308 11.9642 32.2563 11.0068 33.5892 10.0986L35.0276 12.2106C33.7333 13.092 32.4459 14.022 31.2015 14.9738Z" fill="#FB4B00"/>
<path d="M52.3391 65.5895L49.8828 66.2931L50.9656 70.0731C47.9155 69.1081 44.9614 67.8625 42.142 66.3505C38.2342 64.2622 34.5185 61.8339 31.0361 59.0944C28.4538 57.0722 25.9837 54.9103 23.6365 52.6186L21.8513 54.4462C24.264 56.8021 26.8033 59.0245 29.4586 61.1041C33.0595 63.9372 36.9031 66.4478 40.9444 68.6073C43.3041 69.8641 45.7504 70.9526 48.2635 71.8645L45.9313 72.5326L46.6343 74.9883L53.1188 73.132L53.1588 73.1208C53.4862 73.0291 53.7638 72.8107 53.9297 72.5138C54.0963 72.2169 54.1368 71.8658 54.0432 71.5389L52.3391 65.5895Z" fill="#26640A"/>
<path d="M22.8006 2.94786L24.0924 8.98829L26.5912 8.45436L25.7659 4.59519C28.1106 5.42666 30.3917 6.42778 32.591 7.5917C36.4483 9.62764 40.1198 11.9979 43.5629 14.6751C45.1878 15.9282 46.8232 17.2873 48.4238 18.7145C49.2964 19.4935 50.1903 20.3244 51.0816 21.1858C51.4527 21.5432 51.8407 21.9237 52.2337 22.3167L54.0401 20.5103C53.6359 20.1061 53.2367 19.7137 52.8556 19.3463C51.9418 18.4637 51.023 17.6098 50.1248 16.8077C48.4787 15.3406 46.7964 13.9421 45.1285 12.656C41.5687 9.88837 37.7726 7.43826 33.7849 5.33372C32.1351 4.46171 30.4403 3.67578 28.7082 2.97967L30.9599 2.49813L30.4254 0L23.7812 1.42091C23.125 1.56687 22.6908 2.19249 22.7844 2.85804C22.7888 2.88798 22.7944 2.91792 22.8006 2.94786Z" fill="#26640A"/>
<path d="M20.5103 21C20.063 21.4472 19.6938 21.8234 19.347 22.1833C18.4862 23.074 17.6323 23.9928 16.8077 24.9147C15.3412 26.5601 13.9428 28.2424 12.656 29.9116C9.88961 33.4713 7.43951 37.2669 5.33434 41.2545C4.46171 42.9044 3.67578 44.5985 2.98029 46.3306L2.49876 44.0789L0 44.6134L1.42091 51.2577C1.56749 51.9132 2.19187 52.3467 2.85742 52.2544C2.88798 52.2501 2.91854 52.2451 2.94848 52.2382L8.98954 50.9464L8.45498 48.4483L4.59582 49.2735C5.42666 46.9282 6.4284 44.6471 7.59295 42.4484C9.62888 38.5911 11.9991 34.9197 14.6757 31.4759C15.9294 29.8504 17.2886 28.215 18.7139 26.6157C19.5154 25.7199 20.3462 24.8255 21.1858 23.9572C21.522 23.6073 21.8819 23.2418 22.3173 22.807L20.5103 21Z" fill="#26640A"/>
<path d="M74.9902 28.3764L73.1333 21.8913L73.122 21.8513C73.0297 21.5245 72.8114 21.2475 72.5145 21.0816C72.2182 20.9163 71.8677 20.8758 71.5408 20.9687L65.5915 22.6709L66.2938 25.1273L70.0737 24.0463C69.1082 27.0959 67.8625 30.0493 66.3512 32.8687C64.2635 36.7765 61.8358 40.4928 59.0957 43.974C57.0728 46.557 54.9109 49.0277 52.6199 51.3755L54.4475 53.1606C56.8034 50.7473 59.0252 48.2068 61.1048 45.5521C63.9385 41.9512 66.4491 38.1082 68.6079 34.0669C69.8648 31.706 70.9532 29.2603 71.8658 26.7466L72.5338 29.0794L74.9902 28.3764Z" fill="#26640A"/>
</svg>
