<svg width="64" height="68" viewBox="0 0 64 68" fill="none" xmlns="http://www.w3.org/2000/svg">
<path d="M59.4722 20.644H44.9243C42.9084 20.644 41.2812 19.0168 41.2812 17.001V23.0582V23.0703C41.2812 25.0861 42.9084 26.7134 44.9243 26.7134H59.4722C61.488 26.7134 63.1152 25.0861 63.1152 23.0703V23.0582V17.001C63.1152 19.0168 61.488 20.644 59.4722 20.644Z" fill="#00ADEE"/>
<path d="M41.2812 3.63672V9.70848C41.2812 11.7243 42.9084 13.3515 44.9243 13.3515H59.4722C61.488 13.3515 63.1152 11.7243 63.1152 9.70848V3.63672C63.1152 5.65254 61.488 7.27977 59.4722 7.27977H44.9243C42.9084 7.27977 41.2812 5.65254 41.2812 3.63672Z" fill="#00ADEE"/>
<path d="M59.4722 13.3657H44.9243C42.9084 13.3657 41.2812 11.7385 41.2812 9.72266V17.0088C41.2812 19.0246 42.9084 20.6518 44.9243 20.6518H59.4722C61.488 20.6518 63.1152 19.0246 63.1152 17.0088V9.72266C63.1152 11.7385 61.488 13.3657 59.4722 13.3657Z" fill="#00ADEE"/>
<path d="M44.9243 0C42.9084 0 41.2812 1.62966 41.2812 3.64305C41.2812 5.65888 42.9084 7.28611 44.9243 7.28611H59.4722C61.488 7.28611 63.1152 5.65888 63.1152 3.64305C63.1152 1.62966 61.488 0 59.4722 0H44.9243Z" fill="#C1E8FD"/>
<path d="M44.9243 12.7524H59.4722C61.488 12.7524 63.1152 11.1252 63.1152 9.10938V10.3262C63.1152 12.342 61.488 13.9692 59.4722 13.9692H44.9243C42.9084 13.9692 41.2812 12.342 41.2812 10.3262V9.10938C41.2812 11.1252 42.9084 12.7524 44.9243 12.7524Z" fill="#009CD6"/>
<path d="M44.9243 20.0386H59.4722C61.488 20.0386 63.1152 18.4113 63.1152 16.3955V17.6123C63.1152 19.6281 61.488 21.2553 59.4722 21.2553H44.9243C42.9084 21.2553 41.2812 19.6281 41.2812 17.6123V16.3955C41.2812 18.4113 42.9084 20.0386 44.9243 20.0386V20.0386Z" fill="#009CD6"/>
<path d="M25.4932 14.5742H37.6294C38.3009 14.5742 38.8438 14.0314 38.8438 13.3599C38.8438 12.6883 38.3009 12.1455 37.6294 12.1455H25.4932C24.8216 12.1455 24.2788 12.6883 24.2788 13.3599C24.2788 14.0314 24.8216 14.5742 25.4932 14.5742Z" fill="#164600"/>
<path d="M31.563 31.5606C32.2345 31.5606 32.7773 31.0177 32.7773 30.3462V13.3599C32.7773 12.6883 32.2345 12.1455 31.563 12.1455C30.8915 12.1455 30.3486 12.6883 30.3486 13.3599V30.3462C30.3486 31.0177 30.8915 31.5606 31.563 31.5606V31.5606Z" fill="#164600"/>
<path d="M31.5627 31.5604C31.8736 31.5604 32.1844 31.4414 32.4212 31.2046C32.896 30.7298 32.896 29.9623 32.4212 29.4875L28.783 25.8493C28.3082 25.3745 27.5408 25.3745 27.0659 25.8493C26.5911 26.3241 26.5911 27.0916 27.0659 27.5664L30.7041 31.2046C30.9409 31.4426 31.2518 31.5604 31.5627 31.5604V31.5604Z" fill="#164600"/>
<path d="M31.5534 31.5604C31.8643 31.5604 32.1751 31.4414 32.4119 31.2046L36.0501 27.5664C36.525 27.0916 36.525 26.3241 36.0501 25.8493C35.5753 25.3745 34.8079 25.3745 34.333 25.8493L30.6949 29.4875C30.22 29.9623 30.22 30.7298 30.6949 31.2046C30.9316 31.4426 31.2425 31.5604 31.5534 31.5604V31.5604Z" fill="#164600"/>
<path d="M18.1909 20.644H3.643C1.62718 20.644 -5.13788e-05 19.0168 -5.13788e-05 17.001V23.0582V23.0703C-5.13788e-05 25.0861 1.62718 26.7134 3.643 26.7134H18.1909C20.2068 26.7134 21.834 25.0861 21.834 23.0703V23.0582V17.001C21.834 19.0168 20.2068 20.644 18.1909 20.644V20.644Z" fill="#00ADEE"/>
<path d="M-5.13788e-05 3.63672V9.70848C-5.13788e-05 11.7243 1.62718 13.3515 3.643 13.3515H18.1909C20.2068 13.3515 21.834 11.7243 21.834 9.70848V3.63672C21.834 5.65254 20.2068 7.27977 18.1909 7.27977H3.643C1.62718 7.27977 -5.13788e-05 5.65254 -5.13788e-05 3.63672Z" fill="#00ADEE"/>
<path d="M18.1909 13.3657H3.643C1.62718 13.3657 -5.13788e-05 11.7385 -5.13788e-05 9.72266V17.0088C-5.13788e-05 19.0246 1.62718 20.6518 3.643 20.6518H18.1909C20.2068 20.6518 21.834 19.0246 21.834 17.0088V9.72266C21.834 11.7385 20.2068 13.3657 18.1909 13.3657V13.3657Z" fill="#00ADEE"/>
<path d="M3.643 0C1.62718 0 -5.13788e-05 1.62966 -5.13788e-05 3.64305C-5.13788e-05 5.65888 1.62718 7.28611 3.643 7.28611H18.1909C20.2068 7.28611 21.834 5.65888 21.834 3.64305C21.834 1.62966 20.2068 0 18.1909 0H3.643Z" fill="#C1E8FD"/>
<path d="M3.643 12.7524H18.1909C20.2068 12.7524 21.834 11.1252 21.834 9.10938V10.3262C21.834 12.342 20.2068 13.9692 18.1909 13.9692H3.643C1.62718 13.9692 -5.13788e-05 12.342 -5.13788e-05 10.3262V9.10938C-5.13788e-05 11.1252 1.62718 12.7524 3.643 12.7524Z" fill="#009CD6"/>
<path d="M3.643 20.0386H18.1909C20.2068 20.0386 21.834 18.4113 21.834 16.3955V17.6123C21.834 19.6281 20.2068 21.2553 18.1909 21.2553H3.643C1.62718 21.2553 -5.13788e-05 19.6281 -5.13788e-05 17.6123V16.3955C-5.13788e-05 18.4113 1.62718 20.0386 3.643 20.0386V20.0386Z" fill="#009CD6"/>
<path d="M16.3906 38.1064V46.3492C16.3906 48.6272 18.236 50.4705 20.512 50.4705H43.1794C45.4575 50.4705 47.3008 48.6272 47.3008 46.3492V38.1064C47.3008 40.3845 45.4575 42.2278 43.1794 42.2278H20.512C18.236 42.2278 16.3906 40.3845 16.3906 38.1064Z" fill="#FFC700"/>
<path d="M20.5061 33.9834C18.2301 33.9834 16.3848 35.8287 16.3848 38.1047C16.3848 40.3828 18.2301 42.2261 20.5061 42.2261H43.1736C45.4516 42.2261 47.2949 40.3828 47.2949 38.1047C47.2949 35.8287 45.4516 33.9834 43.1736 33.9834H20.5061Z" fill="#FFDA57"/>
<path d="M16.3906 46.3496V55.635C16.3906 57.9007 18.236 59.7564 20.512 59.7564V59.7461H43.1794C45.4575 59.7461 47.3008 57.9007 47.3008 55.6247V46.3496C47.3008 48.6277 45.4575 50.471 43.1794 50.471H20.512C18.236 50.471 16.3906 48.6277 16.3906 46.3496Z" fill="#FFC700"/>
<path d="M16.3906 63.8687V63.879C16.3906 66.155 18.236 68.0003 20.512 68.0003V67.99H43.1794C45.4575 67.99 47.3008 66.1447 47.3008 63.8687V55.626C47.3008 57.902 45.4575 59.7473 43.1794 59.7473H20.512V59.7576C18.236 59.7576 16.3906 57.902 16.3906 55.6363V63.8687Z" fill="#FFC700"/>
<path d="M20.512 49.4436H43.1794C45.4575 49.4436 47.3008 47.5983 47.3008 45.3223V47.385C47.3008 49.661 45.4575 51.5064 43.1794 51.5064H20.512C18.236 51.5064 16.3906 49.661 16.3906 47.385V45.3223C16.3906 47.5983 18.236 49.4436 20.512 49.4436Z" fill="#D7A906"/>
<path d="M20.512 58.7249H43.1794C45.4575 58.7249 47.3008 56.8795 47.3008 54.6035V56.6663C47.3008 58.9423 45.4575 60.7876 43.1794 60.7876H20.512C18.236 60.7876 16.3906 58.9423 16.3906 56.6663V54.6035C16.3906 56.8795 18.236 58.7249 20.512 58.7249Z" fill="#D7A906"/>
</svg>
