<svg width="75" height="75" viewBox="0 0 75 75" fill="none" xmlns="http://www.w3.org/2000/svg">
<path d="M49 41V49.529C49 51.2427 46.5209 52.7314 42.8815 53.4824C41.1066 53.8343 39.3055 54.0076 37.5007 53.9997C31.1487 53.9997 26 51.9992 26 49.529V41C26 43.4701 31.1487 45.4707 37.5007 45.4707C43.8528 45.4707 49 43.4701 49 41Z" fill="#FFC700"/>
<path d="M49 41.6896V41.8539C49 44.1447 43.8528 46 37.5007 46C31.1487 46 26 44.1447 26 41.8539V34C26 36.2908 31.1487 38.1447 37.5007 38.1447C43.8528 38.1447 49 36.2908 49 34V41.6896Z" fill="#00ADEE"/>
<path d="M49 26V33.8556C49 36.1462 43.8528 38 37.5007 38C31.1487 38 26 36.1462 26 33.8556V26C26 28.2892 31.1487 30.1459 37.5007 30.1459C43.8528 30.1459 49 28.2892 49 26Z" fill="#FFC700"/>
<path d="M37.5007 21C43.8506 21 49 23.0159 49 25.5004C49 27.9849 43.8506 30 37.5007 30C31.1508 30 26 27.9849 26 25.5004C26 23.0159 31.1487 21 37.5007 21Z" fill="#00ADEE"/>
<path d="M0.537141 16.8426C0.356252 14.7892 0.476637 12.7208 0.893928 10.7024L0.897671 10.6855C1.4946 7.9909 2.68722 5.73541 4.44371 3.98017C6.87635 1.54628 10.2128 0.214565 14.3608 0.0230731C16.2308 -0.0474111 18.1027 0.0798347 19.9465 0.401692L19.5055 2.91854C17.8432 2.62787 16.1547 2.5131 14.4681 2.5761C10.9869 2.7364 8.21867 3.81737 6.2501 5.78718C4.84541 7.19063 3.8842 9.02134 3.39393 11.2294C3.02841 13.0009 2.92362 14.8173 3.08206 16.6193L0.537141 16.8426Z" fill="#FB4B00"/>
<path d="M6.44607 34.541C5.64454 33.0789 4.90914 31.6081 4.25981 30.1685L6.58891 29.1181C7.21141 30.4972 7.91625 31.9088 8.68659 33.3128L6.44607 34.541ZM2.44718 25.6064C1.99059 24.2759 1.60075 22.9236 1.28076 21.5538L3.76954 20.9775C4.07081 22.263 4.43633 23.5317 4.86485 24.7799L2.44718 25.6064Z" fill="#FB4B00"/>
<path d="M19.6765 52.2581C19.3646 51.9337 19.0559 51.6081 18.7502 51.2819C18.051 50.5328 17.3755 49.788 16.743 49.0676C16.6288 48.9372 16.5147 48.8068 16.4012 48.6759L18.3304 47.0011C18.4408 47.1283 18.5512 47.2549 18.6629 47.3816C19.2785 48.0827 19.936 48.8081 20.6165 49.5373C20.914 49.8554 21.2147 50.1722 21.5197 50.4891L19.6765 52.2581ZM13.3142 44.9227C13.1227 44.6763 12.9331 44.43 12.746 44.183C11.9451 43.1288 11.1685 42.0591 10.4399 40.9999L12.5439 39.551C13.25 40.5764 14.0028 41.6143 14.7794 42.6373C14.9622 42.8774 15.1462 43.117 15.3314 43.3559L13.3142 44.9227Z" fill="#FB4B00"/>
<path d="M59.6222 74.0876C58.8331 74.0876 58.0223 74.0477 57.1883 73.9678C56.6007 73.9111 55.9938 73.8337 55.3838 73.737L55.783 71.2146C56.3419 71.3025 56.8958 71.3743 57.4316 71.4248C59.616 71.6344 61.6151 71.5396 63.3766 71.1435C65.5566 70.652 67.3686 69.6957 68.7621 68.3023C71.5758 65.4891 72.5801 60.9819 71.6669 55.2677C71.1791 52.225 70.163 48.9285 68.646 45.4716L70.9857 44.4449C72.59 48.102 73.6685 51.6069 74.1893 54.8641C75.2379 61.421 73.986 66.6924 70.5691 70.1093C68.8282 71.8496 66.5976 73.0359 63.9379 73.636C62.5202 73.9454 61.073 74.0963 59.6222 74.0876Z" fill="#FB4B00"/>
<path d="M67.5013 43.0246C66.9742 41.9636 66.3947 40.8764 65.7778 39.7936L67.9971 38.5286C68.6384 39.6533 69.2415 40.7841 69.7898 41.8894L67.5013 43.0246Z" fill="#FB4B00"/>
<path d="M62.8007 35.0263C61.9174 33.7307 60.9874 32.4433 60.0368 31.2001L62.0659 29.6476C63.0452 30.9282 64.0027 32.253 64.9121 33.5873L62.8007 35.0263ZM57.0678 27.53C56.0498 26.3399 54.985 25.1616 53.9028 24.0289L55.751 22.2643C56.865 23.4307 57.961 24.6432 59.0095 25.8695L57.0678 27.53Z" fill="#FB4B00"/>
<path d="M14.987 74.5541C13.5473 74.5548 12.1121 74.4069 10.7024 74.1144C7.99531 73.5187 5.73857 72.3261 3.98021 70.5684C1.54632 68.1351 0.215857 64.798 0.023741 60.6494C-0.0467433 58.78 0.0805024 56.9082 0.402983 55.0656L2.91921 55.506C2.62854 57.1683 2.51377 58.8561 2.57676 60.5421C2.73769 64.0233 3.81803 66.7928 5.7866 68.762C7.19379 70.1698 9.02762 71.1297 11.237 71.6156C13.0065 71.9818 14.8198 72.0872 16.62 71.9281L16.8433 74.4731C16.2245 74.5273 15.6057 74.5541 14.987 74.5541Z" fill="#FB4B00"/>
<path d="M21.5549 73.7295L20.9785 71.2408C22.2634 70.9395 23.5322 70.574 24.7803 70.1454L25.6061 72.5631C24.2763 73.0197 22.924 73.4089 21.5549 73.7295ZM30.1689 70.7511L29.1185 68.422C30.4976 67.8008 31.9092 67.0953 33.3139 66.325L34.5414 68.5655C33.0793 69.3664 31.6079 70.1024 30.1689 70.7511Z" fill="#FB4B00"/>
<path d="M41.0012 64.5704L39.5522 62.4664C40.5902 61.7522 41.6281 61 42.6373 60.2309C42.8787 60.0481 43.1182 59.8641 43.3559 59.6789L44.9234 61.6961C44.677 61.8882 44.4306 62.0778 44.1836 62.265C43.1432 63.0565 42.0722 63.8331 41.0012 64.5704ZM48.6771 58.6104L47.003 56.6805C47.1296 56.5701 47.2569 56.4597 47.3835 56.3487C48.079 55.7368 48.805 55.0787 49.5392 54.3944C49.856 54.0982 50.1729 53.795 50.4898 53.4912L52.2594 55.3338C51.9344 55.6457 51.6088 55.9551 51.2826 56.262C50.5284 56.9643 49.7843 57.6392 49.0695 58.2679C48.9379 58.3833 48.8075 58.4975 48.6771 58.6104Z" fill="#FB4B00"/>
<path d="M73.738 19.6258L71.2143 19.2266C71.3029 18.6677 71.374 18.1132 71.4251 17.578C71.6347 15.3949 71.5399 13.3951 71.1438 11.6349C70.6523 9.453 69.6961 7.64037 68.3026 6.24691C65.4889 3.4344 60.9823 2.43016 55.2674 3.34333C52.2248 3.83048 48.9282 4.84658 45.4714 6.36355L44.4453 4.0251C48.1018 2.4208 51.6066 1.34233 54.8639 0.821497C61.4214 -0.227656 66.6921 1.02484 70.109 4.44176C71.8499 6.18204 73.0363 8.4132 73.6364 11.0741C74.0917 13.0995 74.2033 15.3699 73.9682 17.8232C73.9121 18.4095 73.8347 19.0164 73.738 19.6258Z" fill="#FB4B00"/>
<path d="M39.6827 9.29766L38.4121 7.08147C39.5742 6.4153 40.7437 5.78967 41.8902 5.22018L43.0266 7.50874C41.9251 8.05514 40.8005 8.65707 39.6827 9.29766Z" fill="#FB4B00"/>
<path d="M24.0302 21.1072L22.2656 19.2584C23.4314 18.145 24.6452 17.0484 25.8709 15.9999L27.532 17.9416C26.3412 18.9609 25.163 20.025 24.0302 21.1072ZM31.2015 14.9738L29.6496 12.9441C30.9308 11.9642 32.2563 11.0068 33.5892 10.0986L35.0276 12.2106C33.7333 13.092 32.4459 14.022 31.2015 14.9738Z" fill="#FB4B00"/>
<path d="M52.3394 65.5895L49.8831 66.2931L50.9659 70.0731C47.9157 69.1081 44.9616 67.8625 42.1423 66.3505C38.2345 64.2622 34.5188 61.8339 31.0363 59.0944C28.454 57.0722 25.9839 54.9103 23.6367 52.6186L21.8516 54.4462C24.2642 56.8021 26.8035 59.0245 29.4589 61.1041C33.0598 63.9372 36.9034 66.4478 40.9447 68.6073C43.3043 69.8641 45.7507 70.9526 48.2638 71.8645L45.9316 72.5326L46.6345 74.9883L53.1191 73.132L53.159 73.1208C53.4865 73.0291 53.764 72.8107 53.93 72.5138C54.0965 72.2169 54.1371 71.8658 54.0435 71.5389L52.3394 65.5895Z" fill="#26640A"/>
<path d="M22.8009 2.94786L24.0926 8.98829L26.5914 8.45436L25.7662 4.59519C28.1109 5.42666 30.3919 6.42778 32.5913 7.5917C36.4486 9.62764 40.12 11.9979 43.5631 14.6751C45.188 15.9282 46.8235 17.2873 48.424 18.7145C49.2967 19.4935 50.1905 20.3244 51.0818 21.1858C51.453 21.5432 51.841 21.9237 52.2339 22.3167L54.0403 20.5103C53.6361 20.1061 53.2369 19.7137 52.8558 19.3463C51.942 18.4637 51.0232 17.6098 50.125 16.8077C48.4789 15.3406 46.7967 13.9421 45.1287 12.656C41.569 9.88837 37.7728 7.43826 33.7852 5.33372C32.1353 4.46171 30.4406 3.67578 28.7084 2.97967L30.9602 2.49813L30.4256 0L23.7814 1.42091C23.1252 1.56687 22.6911 2.19249 22.7846 2.85804C22.789 2.88798 22.7946 2.91792 22.8009 2.94786Z" fill="#26640A"/>
<path d="M20.5103 21C20.063 21.4472 19.6938 21.8234 19.347 22.1833C18.4862 23.074 17.6323 23.9928 16.8077 24.9147C15.3412 26.5601 13.9428 28.2424 12.656 29.9116C9.88961 33.4713 7.43951 37.2669 5.33434 41.2545C4.46171 42.9044 3.67578 44.5985 2.98029 46.3306L2.49876 44.0789L0 44.6134L1.42091 51.2577C1.56749 51.9132 2.19187 52.3467 2.85742 52.2544C2.88798 52.2501 2.91854 52.2451 2.94848 52.2382L8.98954 50.9464L8.45498 48.4483L4.59582 49.2735C5.42666 46.9282 6.4284 44.6471 7.59295 42.4484C9.62888 38.5911 11.9991 34.9197 14.6757 31.4759C15.9294 29.8504 17.2886 28.215 18.7139 26.6157C19.5154 25.7199 20.3462 24.8255 21.1858 23.9572C21.522 23.6073 21.8819 23.2418 22.3173 22.807L20.5103 21Z" fill="#26640A"/>
<path d="M74.9899 28.3764L73.133 21.8912L73.1218 21.8513C73.0295 21.5245 72.8112 21.2475 72.5142 21.0816C72.218 20.9163 71.8674 20.8758 71.5406 20.9687L65.5912 22.6709L66.2936 25.1273L70.0735 24.0463C69.1079 27.0958 67.8623 30.0493 66.3509 32.8687C64.2632 36.7765 61.8356 40.4928 59.0954 43.974C57.0726 46.557 54.9107 49.0276 52.6196 51.3755L54.4472 53.1606C56.8031 50.7473 59.025 48.2068 61.1045 45.5521C63.9383 41.9512 66.4489 38.1082 68.6077 34.0669C69.8645 31.706 70.953 29.2603 71.8655 26.7465L72.5336 29.0794L74.9899 28.3764Z" fill="#26640A"/>
</svg>
