<svg width="48" height="58" viewBox="0 0 48 58" fill="none" xmlns="http://www.w3.org/2000/svg">
<path d="M24.0001 0.938477C10.7664 0.938477 0 11.7049 0 24.9385V27.4001C0 28.4197 0.826587 29.2462 1.84616 29.2462C2.86573 29.2462 3.69232 28.4197 3.69232 27.4001V24.9385C3.69232 13.7408 12.8024 4.63079 24.0001 4.63079C35.1978 4.63079 44.3078 13.7408 44.3078 24.9385V27.4001C44.3078 28.4197 45.1344 29.2462 46.154 29.2462C47.1735 29.2462 48.0001 28.4197 48.0001 27.4001V24.9385C48.0001 11.7049 37.2337 0.938477 24.0001 0.938477Z" fill="#005676"/>
<path d="M46.1549 32.9397C43.1009 32.9397 40.6164 30.4551 40.6164 27.4012V24.9396C40.6164 15.7779 33.1627 8.32422 24.001 8.32422C16.9713 8.32422 10.6746 12.7758 8.33261 19.4013C7.99279 20.3627 8.49667 21.4174 9.45803 21.7572C10.4194 22.0969 11.474 21.5933 11.814 20.6318C13.6354 15.4788 18.533 12.0165 24.001 12.0165C31.1268 12.0165 36.9241 17.8138 36.9241 24.9396V27.4012C36.9241 32.491 41.065 36.632 46.1549 36.632C47.1744 36.632 48.001 35.8054 48.001 34.7858C48.001 33.7663 47.1744 32.9397 46.1549 32.9397Z" fill="#005676"/>
<path d="M46.1525 40.324C39.0267 40.324 33.2294 34.5266 33.2294 27.4008C33.2294 26.3813 32.4028 25.5547 31.3833 25.5547C30.3637 25.5547 29.5371 26.3813 29.5371 27.4008C29.5371 36.5626 36.9908 44.0163 46.1525 44.0163C47.1721 44.0163 47.9987 43.1897 47.9987 42.1701C47.9987 41.1505 47.1721 40.324 46.1525 40.324Z" fill="#8CDCFF"/>
<path d="M1.84616 36.6316C6.93602 36.6316 11.077 32.4907 11.077 27.4008C11.077 26.3813 10.2504 25.5547 9.23079 25.5547C8.21122 25.5547 7.38463 26.3813 7.38463 27.4008C7.38463 30.4548 4.90007 32.9393 1.84616 32.9393C0.826587 32.9393 0 33.7659 0 34.7855C0 35.8051 0.826587 36.6316 1.84616 36.6316Z" fill="#005676"/>
<path d="M18.4616 27.4003V24.9388C18.4616 21.8849 20.9461 19.4003 24.0001 19.4003C25.5736 19.4003 27.0781 20.0733 28.128 21.2467C28.8077 22.0065 29.975 22.0715 30.7347 21.3916C31.4946 20.7118 31.5595 19.5447 30.8797 18.7847C29.1303 16.8294 26.6227 15.708 24.0001 15.708C18.9102 15.708 14.7693 19.8489 14.7693 24.9388V27.4003C14.7693 34.5261 8.97196 40.3235 1.84616 40.3235C0.826587 40.3235 0 41.15 0 42.1696C0 43.1892 0.826587 44.0158 1.84616 44.0158C11.0079 44.0158 18.4616 36.5621 18.4616 27.4003Z" fill="#005676"/>
<path d="M44.0655 47.6032C40.7933 47.2703 37.6144 46.1248 34.8723 44.2909C29.2199 40.5099 25.8452 34.1962 25.8452 27.4015V24.9399C25.8452 23.9203 25.0186 23.0938 23.9991 23.0938C22.9795 23.0938 22.1529 23.9203 22.1529 24.9399V27.4015C22.1529 37.8614 14.3199 46.5464 3.9328 47.6032C2.9184 47.7065 2.17981 48.6123 2.28307 49.6267C2.37981 50.5776 3.1819 51.2861 4.11754 51.2861C4.17994 51.2861 4.2432 51.283 4.30671 51.2765C10.1905 50.6778 15.6276 47.9302 19.6164 43.5396C21.48 41.4883 22.9545 39.1547 24.0004 36.6448C25.7919 40.9417 28.8233 44.6869 32.8196 47.3598C36.0616 49.5283 39.8211 50.8826 43.6917 51.2765C43.7552 51.283 43.8183 51.2861 43.8808 51.2861C44.8165 51.2861 45.6186 50.5775 45.7153 49.6267C45.8184 48.6123 45.0797 47.7065 44.0655 47.6032V47.6032Z" fill="#005676"/>
<path d="M17.4172 50.2974C14.7261 52.128 11.7654 53.4575 8.61729 54.2486C7.62849 54.4972 7.02824 55.5003 7.27685 56.4891C7.48732 57.327 8.23956 57.8858 9.0659 57.8858C9.21483 57.8858 9.36621 57.8677 9.51723 57.8296C13.0867 56.9325 16.4434 55.4255 19.4939 53.3504C20.3369 52.777 20.5554 51.6286 19.982 50.7856C19.4086 49.9425 18.2601 49.7239 17.4172 50.2974Z" fill="#005676"/>
<path d="M39.6039 54.307C36.4312 53.5337 33.4579 52.2288 30.7666 50.4287C28.7748 49.0964 26.9632 47.5131 25.3823 45.7228C24.7075 44.9585 23.5408 44.886 22.7765 45.5611C22.0122 46.2359 21.9398 47.4026 22.6147 48.1669C24.4058 50.1952 26.4579 51.9888 28.7138 53.4977C31.7657 55.5391 35.1356 57.0182 38.7295 57.8943C38.8765 57.9301 39.0235 57.9474 39.1682 57.9474C39.9996 57.9474 40.7547 57.3816 40.9603 56.5379C41.2017 55.5474 40.5944 54.5485 39.6039 54.307V54.307Z" fill="#005676"/>
<path d="M44.3077 24.9385V27.4001C44.3077 28.4197 45.1343 29.2462 46.1539 29.2462C47.1735 29.2462 48.0001 28.4197 48.0001 27.4001V24.9385C48.0001 11.7049 37.2336 0.938477 24 0.938477V4.63079C35.1977 4.63079 44.3077 13.7408 44.3077 24.9385Z" fill="#005676"/>
<path d="M36.9231 24.9377V27.3992C36.9231 32.4891 41.064 36.63 46.1539 36.63C47.1735 36.63 48.0001 35.8034 48.0001 34.7839C48.0001 33.7643 47.1735 32.9377 46.1539 32.9377C43.1 32.9377 40.6154 30.4532 40.6154 27.3992V24.9377C40.6154 15.7759 33.1617 8.32227 24 8.32227V12.0146C31.1258 12.0146 36.9231 17.8119 36.9231 24.9377Z" fill="#005676"/>
<path d="M46.1525 40.323C39.0267 40.323 33.2294 34.5257 33.2294 27.3999C33.2294 26.3803 32.4028 25.5537 31.3833 25.5537C30.3637 25.5537 29.5371 26.3803 29.5371 27.3999C29.5371 36.5616 36.9908 44.0153 46.1525 44.0153C47.1721 44.0153 47.9987 43.1887 47.9987 42.1691C47.9987 41.1496 47.1721 40.323 46.1525 40.323Z" fill="#005676"/>
<path d="M28.1279 21.2458C28.8076 22.0055 29.9749 22.0705 30.7347 21.3906C31.4945 20.7109 31.5594 19.5437 30.8796 18.7837C29.1302 16.8284 26.6227 15.707 24 15.707V19.3993C25.5735 19.3993 27.078 20.0723 28.1279 21.2458Z" fill="#005676"/>
<path d="M32.8205 47.3569C36.0624 49.5253 39.8219 50.8797 43.6925 51.2735C43.756 51.2801 43.8191 51.2831 43.8816 51.2831C44.8173 51.2831 45.6194 50.5746 45.7161 49.6238C45.8194 48.6094 45.0807 47.7034 44.0664 47.6003C40.7943 47.2674 37.6153 46.1219 34.8733 44.2879C29.2208 40.507 25.8462 34.1932 25.8462 27.3985V24.937C25.8462 23.9174 25.0196 23.0908 24 23.0908V36.6448C24.0004 36.6438 24.0009 36.6429 24.0012 36.6419C25.7929 40.9387 28.8243 44.684 32.8205 47.3569V47.3569Z" fill="#005676"/>
<path d="M28.715 53.4957C31.7669 55.5371 35.1368 57.0162 38.7307 57.8923C38.8777 57.9281 39.0247 57.9453 39.1694 57.9453C40.0008 57.9453 40.7559 57.3795 40.9615 56.5358C41.203 55.5453 40.5956 54.5465 39.6051 54.3051C36.4324 53.5318 33.4591 52.2269 30.7678 50.4268C28.776 49.0945 26.9644 47.5112 25.3835 45.7209C25.019 45.308 24.5108 45.099 24 45.0986V49.634C25.4406 51.0676 27.0202 52.362 28.715 53.4957V53.4957Z" fill="#005676"/>
</svg>
