<svg width="70" height="76" viewBox="0 0 70 76" fill="none" xmlns="http://www.w3.org/2000/svg">
<path d="M65.1258 23.3743H49.1948C46.9874 23.3743 45.2054 21.5924 45.2054 19.3849V26.0179V26.0312C45.2054 28.2387 46.9874 30.0206 49.1948 30.0206H65.1258C67.3333 30.0206 69.1152 28.2387 69.1152 26.0312V26.0179V19.3849C69.1152 21.5924 67.3333 23.3743 65.1258 23.3743Z" fill="#00ADEE"/>
<path d="M45.2054 4.75V11.399C45.2054 13.6065 46.9874 15.3884 49.1948 15.3884H65.1258C67.3333 15.3884 69.1152 13.6065 69.1152 11.399V4.75C69.1152 6.95747 67.3333 8.7394 65.1258 8.7394H49.1948C46.9874 8.7394 45.2054 6.95747 45.2054 4.75Z" fill="#00ADEE"/>
<path d="M65.1258 15.404H49.1948C46.9874 15.404 45.2054 13.622 45.2054 11.4146V19.3934C45.2054 21.6008 46.9874 23.3828 49.1948 23.3828H65.1258C67.3333 23.3828 69.1152 21.6008 69.1152 19.3934V11.4146C69.1152 13.622 67.3333 15.404 65.1258 15.404Z" fill="#00ADEE"/>
<path d="M49.1948 0.767578C46.9874 0.767578 45.2054 2.55217 45.2054 4.75698C45.2054 6.96445 46.9874 8.74638 49.1948 8.74638H65.1258C67.3333 8.74638 69.1152 6.96445 69.1152 4.75698C69.1152 2.55217 67.3333 0.767578 65.1258 0.767578H49.1948Z" fill="#C1E8FD"/>
<path d="M49.1948 14.7324H65.1258C67.3333 14.7324 69.1152 12.9505 69.1152 10.743V12.0755C69.1152 14.283 67.3333 16.0649 65.1258 16.0649H49.1948C46.9874 16.0649 45.2054 14.283 45.2054 12.0755V10.743C45.2054 12.9505 46.9874 14.7324 49.1948 14.7324Z" fill="#009CD6"/>
<path d="M49.1948 22.7112H65.1258C67.3333 22.7112 69.1152 20.9293 69.1152 18.7218V20.0543C69.1152 22.2617 67.3333 24.0437 65.1258 24.0437H49.1948C46.9874 24.0437 45.2054 22.2617 45.2054 20.0543V18.7218C45.2054 20.9293 46.9874 22.7112 49.1948 22.7112Z" fill="#009CD6"/>
<path d="M27.9163 16.7274H41.2063C41.9417 16.7274 42.5361 16.1329 42.5361 15.3976C42.5361 14.6622 41.9417 14.0677 41.2063 14.0677H27.9163C27.1809 14.0677 26.5865 14.6622 26.5865 15.3976C26.5865 16.1329 27.1809 16.7274 27.9163 16.7274Z" fill="#B73235"/>
<path d="M34.5628 35.3288C35.2982 35.3288 35.8926 34.7344 35.8926 33.999V15.3978C35.8926 14.6624 35.2982 14.068 34.5628 14.068C33.8274 14.068 33.233 14.6624 33.233 15.3978V33.999C33.233 34.7344 33.8274 35.3288 34.5628 35.3288Z" fill="#B73235"/>
<path d="M34.5624 35.3286C34.9029 35.3286 35.2433 35.1983 35.5026 34.939C36.0226 34.419 36.0226 33.5786 35.5026 33.0586L31.5185 29.0745C30.9986 28.5546 30.1581 28.5546 29.6382 29.0745C29.1182 29.5945 29.1182 30.4349 29.6382 30.9549L33.6223 34.939C33.8816 35.1996 34.222 35.3286 34.5624 35.3286Z" fill="#B73235"/>
<path d="M34.552 35.3286C34.8924 35.3286 35.2329 35.1983 35.4922 34.939L39.4762 30.9549C39.9962 30.4349 39.9962 29.5945 39.4762 29.0745C38.9563 28.5546 38.1159 28.5546 37.5959 29.0745L33.6118 33.0586C33.0919 33.5786 33.0919 34.419 33.6118 34.939C33.8711 35.1996 34.2116 35.3286 34.552 35.3286Z" fill="#B73235"/>
<path d="M19.9198 23.3743H3.98877C1.7813 23.3743 -0.000635147 21.5924 -0.000635147 19.3849V26.0179V26.0312C-0.000635147 28.2387 1.7813 30.0206 3.98877 30.0206H19.9198C22.1272 30.0206 23.9092 28.2387 23.9092 26.0312V26.0179V19.3849C23.9092 21.5924 22.1272 23.3743 19.9198 23.3743Z" fill="#00ADEE"/>
<path d="M-0.000635147 4.75V11.399C-0.000635147 13.6065 1.7813 15.3884 3.98877 15.3884H19.9198C22.1272 15.3884 23.9092 13.6065 23.9092 11.399V4.75C23.9092 6.95747 22.1272 8.7394 19.9198 8.7394H3.98877C1.7813 8.7394 -0.000635147 6.95747 -0.000635147 4.75Z" fill="#00ADEE"/>
<path d="M19.9198 15.404H3.98877C1.7813 15.404 -0.000635147 13.622 -0.000635147 11.4146V19.3934C-0.000635147 21.6008 1.7813 23.3828 3.98877 23.3828H19.9198C22.1272 23.3828 23.9092 21.6008 23.9092 19.3934V11.4146C23.9092 13.622 22.1272 15.404 19.9198 15.404Z" fill="#00ADEE"/>
<path d="M3.98877 0.767578C1.7813 0.767578 -0.000635147 2.55217 -0.000635147 4.75698C-0.000635147 6.96445 1.7813 8.74638 3.98877 8.74638H19.9198C22.1272 8.74638 23.9092 6.96445 23.9092 4.75698C23.9092 2.55217 22.1272 0.767578 19.9198 0.767578H3.98877Z" fill="#C1E8FD"/>
<path d="M3.98877 14.7324H19.9198C22.1272 14.7324 23.9092 12.9505 23.9092 10.743V12.0755C23.9092 14.283 22.1272 16.0649 19.9198 16.0649H3.98877C1.7813 16.0649 -0.000635147 14.283 -0.000635147 12.0755V10.743C-0.000635147 12.9505 1.7813 14.7324 3.98877 14.7324Z" fill="#009CD6"/>
<path d="M3.98877 22.7112H19.9198C22.1272 22.7112 23.9092 20.9293 23.9092 18.7218V20.0543C23.9092 22.2617 22.1272 24.0437 19.9198 24.0437H3.98877C1.7813 24.0437 -0.000635147 22.2617 -0.000635147 20.0543V18.7218C-0.000635147 20.9293 1.7813 22.7112 3.98877 22.7112Z" fill="#009CD6"/>
<path d="M17.9481 42.4972V51.5235C17.9481 54.0182 19.9688 56.0367 22.4612 56.0367H47.2837C49.7784 56.0367 51.7969 54.0182 51.7969 51.5235V42.4972C51.7969 44.9918 49.7784 47.0104 47.2837 47.0104H22.4612C19.9688 47.0104 17.9481 44.9918 17.9481 42.4972Z" fill="#FFC700"/>
<path d="M22.4554 37.9818C19.963 37.9818 17.9422 40.0026 17.9422 42.495C17.9422 44.9896 19.963 47.0082 22.4554 47.0082H47.2778C49.7725 47.0082 51.791 44.9896 51.791 42.495C51.791 40.0026 49.7725 37.9818 47.2778 37.9818H22.4554Z" fill="#FFDA57"/>
<path d="M17.9481 51.524V61.6922C17.9481 64.1733 19.9688 66.2054 22.4612 66.2054V66.1941H47.2837C49.7784 66.1941 51.7969 64.1733 51.7969 61.6809V51.524C51.7969 54.0187 49.7784 56.0372 47.2837 56.0372H22.4612C19.9688 56.0372 17.9481 54.0187 17.9481 51.524Z" fill="#FFC700"/>
<path d="M17.9481 70.7087V70.72C17.9481 73.2124 19.9688 75.2332 22.4612 75.2332V75.2219H47.2837C49.7784 75.2219 51.7969 73.2011 51.7969 70.7087V61.6824C51.7969 64.1748 49.7784 66.1955 47.2837 66.1955H22.4612V66.2068C19.9688 66.2068 17.9481 64.1748 17.9481 61.6937V70.7087Z" fill="#FFC700"/>
<path d="M22.4612 54.9122H47.2837C49.7784 54.9122 51.7969 52.8914 51.7969 50.399V52.6579C51.7969 55.1503 49.7784 57.1711 47.2837 57.1711H22.4612C19.9688 57.1711 17.9481 55.1503 17.9481 52.6579V50.399C17.9481 52.8914 19.9688 54.9122 22.4612 54.9122Z" fill="#D7A906"/>
<path d="M22.4612 65.0759H47.2837C49.7784 65.0759 51.7969 63.0551 51.7969 60.5627V62.8216C51.7969 65.314 49.7784 67.3348 47.2837 67.3348H22.4612C19.9688 67.3348 17.9481 65.314 17.9481 62.8216V60.5627C17.9481 63.0551 19.9688 65.0759 22.4612 65.0759Z" fill="#D7A906"/>
</svg>
