<svg width="167" height="131" viewBox="0 0 167 131" fill="none" xmlns="http://www.w3.org/2000/svg">
<path d="M28.4869 130.179C44.2198 130.179 56.9738 129.206 56.9738 128.006C56.9738 126.806 44.2198 125.833 28.4869 125.833C12.754 125.833 0 126.806 0 128.006C0 129.206 12.754 130.179 28.4869 130.179Z" fill="#E6E6E6"/>
<path d="M37.7134 32.7022L26.3486 29.6027C29.3833 26.739 30.7035 24.0413 30.3091 21.5096H37.7134V32.7022Z" fill="#9F616A"/>
<path d="M38.9184 119.832L35.2475 120.349L30.8253 79.7112L23.7653 120.177L19.9771 120.349V69.0352H43.3955L38.9184 119.832Z" fill="#2F2E41"/>
<path d="M21.8837 128.024C22.4599 128.041 23.0251 127.864 23.4891 127.522C23.9532 127.18 24.2895 126.693 24.4444 126.138L24.7126 122.136L24.172 119.298C22.7459 118.126 21.3041 118.151 19.8477 119.298L19.3833 125.242C19.3561 125.591 19.4 125.942 19.5124 126.273C19.6248 126.604 19.8033 126.909 20.0371 127.169C20.271 127.43 20.5552 127.64 20.8726 127.787C21.1901 127.934 21.5341 128.014 21.8837 128.024Z" fill="#2F2E41"/>
<path d="M37.0371 128.024C37.6133 128.041 38.1784 127.864 38.6425 127.522C39.1065 127.18 39.4428 126.693 39.5978 126.138L39.8659 122.136L39.3254 119.298C37.8992 118.126 36.4574 118.151 35.001 119.298L34.5367 125.242C34.5094 125.591 34.5533 125.942 34.6657 126.273C34.7781 126.604 34.9566 126.909 35.1904 127.169C35.4243 127.43 35.7085 127.64 36.026 127.787C36.3434 127.934 36.6874 128.014 37.0371 128.024Z" fill="#2F2E41"/>
<path d="M36.1635 26.8477C39.7773 26.8477 42.7068 23.9181 42.7068 20.3043C42.7068 16.6905 39.7773 13.7609 36.1635 13.7609C32.5497 13.7609 29.6201 16.6905 29.6201 20.3043C29.6201 23.9181 32.5497 26.8477 36.1635 26.8477Z" fill="#9F616A"/>
<path d="M44.429 69.8961H19.4609C22.6971 54.8984 22.688 42.8194 20.1103 33.0507C19.9461 32.4288 20.0173 31.7681 20.3103 31.1955C20.6032 30.6228 21.0973 30.1785 21.6977 29.9478L28.415 27.3642C30.4317 29.9686 33.2775 31.1061 37.7135 29.4305L41.2335 30.1526C42.0906 30.3273 42.8554 30.8068 43.3861 31.5021C43.9168 32.1975 44.1776 33.0616 44.1201 33.9344C43.861 37.755 43.9632 41.6047 43.7403 44.928C43.05 55.219 42.7519 63.2417 44.429 69.8961Z" fill="#E6E6E6"/>
<path d="M164.28 110.986H49.3668C48.8867 110.986 48.4265 110.795 48.087 110.455C47.7476 110.116 47.5567 109.656 47.5562 109.176V59.2028C47.5567 58.7227 47.7476 58.2625 48.087 57.923C48.4265 57.5836 48.8867 57.3927 49.3668 57.3922H164.28C164.76 57.3927 165.22 57.5836 165.56 57.923C165.899 58.2625 166.09 58.7227 166.091 59.2028V109.176C166.09 109.656 165.899 110.116 165.56 110.455C165.22 110.795 164.76 110.986 164.28 110.986ZM49.3668 58.1164C49.0787 58.1167 48.8026 58.2313 48.5989 58.4349C48.3953 58.6386 48.2807 58.9147 48.2804 59.2028V109.176C48.2807 109.464 48.3953 109.74 48.5989 109.943C48.8026 110.147 49.0787 110.262 49.3668 110.262H164.28C164.568 110.262 164.844 110.147 165.048 109.943C165.252 109.74 165.366 109.464 165.366 109.176V59.2028C165.366 58.9147 165.252 58.6386 165.048 58.4349C164.844 58.2313 164.568 58.1167 164.28 58.1164H49.3668Z" fill="#E6E6E6"/>
<path d="M32.7194 11.6946C32.7194 11.6946 36.5077 7.38979 40.9847 11.5224L42.1901 11.8668L41.3291 12.5556C41.3291 12.5556 45.8061 14.6219 45.4618 18.9268C45.4618 18.9268 44.773 18.7546 44.4286 18.9268C44.0842 19.099 43.912 20.9931 43.912 20.9931C43.912 20.9931 43.3954 19.6155 43.2232 19.4434C43.051 19.2712 40.6403 21.3375 36.6799 18.238C36.6799 18.238 35.4745 21.3375 34.097 20.9931C32.7194 20.6487 30.8253 20.8209 29.9643 23.0594C29.9643 23.0594 25.3151 13.0722 32.7194 11.6946Z" fill="#2F2E41"/>
<path d="M45.6339 66.1078L43.4235 69.0705C43.1933 69.379 43.0267 69.7303 42.9335 70.1039C42.8403 70.4774 42.8224 70.8657 42.8806 71.2463C42.9389 71.6268 43.0723 71.992 43.273 72.3205C43.4737 72.6491 43.7378 72.9344 44.0498 73.1599C44.4516 73.4503 44.9211 73.633 45.4136 73.6906C45.906 73.7481 46.405 73.6786 46.8629 73.4887C47.3209 73.2988 47.7226 72.9947 48.0298 72.6056C48.3369 72.2164 48.5393 71.755 48.6176 71.2655L49.25 67.3132L50.4554 50.266L49.5944 41.6563L44.0842 43.7226L45.6339 51.127V66.1078Z" fill="#9F616A"/>
<path d="M43.3964 45.789L50.112 42.6895L49.7676 40.2498C49.7676 38.23 49.1569 36.2573 48.0156 34.5908C46.8744 32.9242 45.2559 31.6417 43.3727 30.9114L41.3301 30.1194L43.3964 45.789Z" fill="#E6E6E6"/>
<path d="M18.944 65.4191L21.1544 68.3817C21.3846 68.6903 21.5512 69.0415 21.6444 69.4151C21.7376 69.7886 21.7556 70.1769 21.6973 70.5575C21.639 70.9381 21.5056 71.3032 21.3049 71.6317C21.1042 71.9603 20.8401 72.2456 20.5281 72.4711C20.1263 72.7615 19.6568 72.9442 19.1644 73.0018C18.6719 73.0594 18.173 72.9899 17.715 72.7999C17.257 72.61 16.8553 72.306 16.5482 71.9168C16.241 71.5276 16.0386 71.0662 15.9603 70.5767L15.3279 66.6244L14.1226 49.5772L14.9835 40.9675L20.4937 43.0339L18.944 50.4382V65.4191Z" fill="#9F616A"/>
<path d="M21.1828 45.1002L14.4673 42.0007L14.8117 39.561C14.8117 37.5411 15.4224 35.5685 16.5636 33.9019C17.7048 32.2354 19.3233 30.9528 21.2065 30.2226L23.2492 29.4305L21.1828 45.1002Z" fill="#E6E6E6"/>
<path d="M54.0742 63.5482C53.786 63.5482 53.5097 63.6626 53.306 63.8663C53.1022 64.0701 52.9878 64.3464 52.9878 64.6345C52.9878 64.9226 53.1022 65.199 53.306 65.4027C53.5097 65.6064 53.786 65.7209 54.0742 65.7209H69.2833C69.5714 65.7209 69.8477 65.6064 70.0515 65.4027C70.2552 65.199 70.3696 64.9226 70.3696 64.6345C70.3696 64.3464 70.2552 64.0701 70.0515 63.8663C69.8477 63.6626 69.5714 63.5482 69.2833 63.5482H54.0742Z" fill="#E6E6E6"/>
<path d="M158.194 71.1033V91.2492H55.6338V80.642C56.344 80.186 57.0585 79.7321 57.7794 79.2931C60.8584 77.4089 64.154 75.6468 67.7458 74.9937C69.4444 74.677 71.1849 74.6553 72.891 74.9295C74.6933 75.2271 76.4183 75.8481 78.1263 76.4711C79.8106 77.0878 81.4992 77.7237 83.2607 78.0813C84.9773 78.4182 86.7396 78.453 88.4681 78.184C91.7659 77.6894 94.8642 76.3641 97.9496 75.165C101.054 73.9596 104.253 72.8205 107.613 72.6706C110.931 72.5207 114.207 73.3044 117.355 74.2765C123.772 76.257 130.325 79.1946 137.12 77.1798C144.02 75.1372 150.367 69.2405 158.014 70.9898C158.086 71.0032 158.151 71.0438 158.194 71.1033Z" fill="#E6E6E6"/>
<path d="M158.194 71.4544C158.161 71.5159 158.109 71.5645 158.045 71.5924C157.981 71.6204 157.91 71.6261 157.843 71.6086C156.932 71.3997 155.998 71.3034 155.064 71.3217C147.542 71.4545 141.759 77.5096 134.404 78.4153C127.773 79.2311 121.531 76.0065 115.296 74.3214C112.057 73.4457 108.717 72.9811 105.383 73.5763C102.075 74.1651 98.9702 75.5183 95.8527 76.7195C92.8508 77.8757 89.7312 78.9506 86.481 79.0041C82.9074 79.064 79.6893 77.5909 76.3748 76.469C74.6512 75.8845 72.8826 75.422 71.0562 75.377C69.2762 75.3557 67.505 75.6299 65.8147 76.1885C62.2926 77.3083 59.1194 79.3038 56.0297 81.2865C55.9768 81.3239 55.9123 81.3414 55.8477 81.3358C55.7811 81.3269 55.7187 81.2979 55.6688 81.2527C55.619 81.2074 55.5841 81.1481 55.5688 81.0826C55.5535 81.0171 55.5584 80.9485 55.583 80.8859C55.6076 80.8232 55.6506 80.7696 55.7064 80.732L55.8477 80.642C56.5565 80.186 57.2695 79.7321 57.9889 79.2931C61.0614 77.4089 64.3502 75.6468 67.9345 74.9937C69.6295 74.677 71.3665 74.6553 73.0689 74.9295C74.8675 75.2271 76.5889 75.8481 78.2933 76.4711C79.974 77.0878 81.6591 77.7237 83.417 78.0813C85.1299 78.4182 86.8886 78.453 88.6135 78.184C91.9045 77.6894 94.9963 76.3641 98.0752 75.165C101.173 73.9596 104.366 72.8205 107.719 72.6706C111.029 72.5207 114.299 73.3044 117.44 74.2765C123.844 76.257 130.383 79.1947 137.164 77.1798C144.05 75.1372 150.383 69.2405 158.014 70.9898C158.086 71.0032 158.151 71.0438 158.194 71.1033C158.227 71.1559 158.245 71.2167 158.245 71.2789C158.245 71.341 158.227 71.4019 158.194 71.4544Z" fill="#005676"/>
<path d="M69.7649 76.6895C70.5927 76.6895 71.2637 76.0184 71.2637 75.1907C71.2637 74.3629 70.5927 73.6919 69.7649 73.6919C68.9371 73.6919 68.2661 74.3629 68.2661 75.1907C68.2661 76.0184 68.9371 76.6895 69.7649 76.6895Z" fill="#00ADEE"/>
<path d="M107.663 74.7625C108.491 74.7625 109.162 74.0914 109.162 73.2637C109.162 72.4359 108.491 71.7649 107.663 71.7649C106.836 71.7649 106.165 72.4359 106.165 73.2637C106.165 74.0914 106.836 74.7625 107.663 74.7625Z" fill="#00ADEE"/>
<path d="M153.912 72.8354C154.74 72.8354 155.411 72.1644 155.411 71.3366C155.411 70.5089 154.74 69.8378 153.912 69.8378C153.084 69.8378 152.413 70.5089 152.413 71.3366C152.413 72.1644 153.084 72.8354 153.912 72.8354Z" fill="#00ADEE"/>
<path d="M68.9213 99.7604C68.6332 99.7604 68.3569 99.8748 68.1531 100.079C67.9494 100.282 67.835 100.559 67.835 100.847C67.835 101.135 67.9494 101.411 68.1531 101.615C68.3569 101.819 68.6332 101.933 68.9213 101.933H84.1304C84.4186 101.933 84.6949 101.819 84.8986 101.615C85.1024 101.411 85.2168 101.135 85.2168 100.847C85.2168 100.559 85.1024 100.282 84.8986 100.079C84.6949 99.8748 84.4186 99.7604 84.1304 99.7604H68.9213Z" fill="#E6E6E6"/>
<path d="M59.1441 104.83C61.4107 104.83 63.2481 102.993 63.2481 100.726C63.2481 98.4594 61.4107 96.6219 59.1441 96.6219C56.8775 96.6219 55.04 98.4594 55.04 100.726C55.04 102.993 56.8775 104.83 59.1441 104.83Z" fill="#FFC700"/>
<path d="M105.616 99.7604C105.328 99.7604 105.052 99.8748 104.848 100.079C104.644 100.282 104.53 100.559 104.53 100.847C104.53 101.135 104.644 101.411 104.848 101.615C105.052 101.819 105.328 101.933 105.616 101.933H120.825C121.113 101.933 121.39 101.819 121.593 101.615C121.797 101.411 121.912 101.135 121.912 100.847C121.912 100.559 121.797 100.282 121.593 100.079C121.39 99.8748 121.113 99.7604 120.825 99.7604H105.616Z" fill="#E6E6E6"/>
<path d="M95.8384 104.83C98.105 104.83 99.9425 102.993 99.9425 100.726C99.9425 98.4594 98.105 96.6219 95.8384 96.6219C93.5718 96.6219 91.7344 98.4594 91.7344 100.726C91.7344 102.993 93.5718 104.83 95.8384 104.83Z" fill="#FB4B00"/>
<path d="M142.311 99.7604C142.023 99.7604 141.747 99.8748 141.543 100.079C141.339 100.282 141.225 100.559 141.225 100.847C141.225 101.135 141.339 101.411 141.543 101.615C141.747 101.819 142.023 101.933 142.311 101.933H157.52C157.808 101.933 158.085 101.819 158.288 101.615C158.492 101.411 158.606 101.135 158.606 100.847C158.606 100.559 158.492 100.282 158.288 100.079C158.085 99.8748 157.808 99.7604 157.52 99.7604H142.311Z" fill="#E6E6E6"/>
<path d="M132.534 104.83C134.801 104.83 136.638 102.993 136.638 100.726C136.638 98.4594 134.801 96.6219 132.534 96.6219C130.268 96.6219 128.43 98.4594 128.43 100.726C128.43 102.993 130.268 104.83 132.534 104.83Z" fill="#00ADEE"/>
<path d="M156.414 43.8993H99.7208C98.6156 43.8993 97.72 43.2612 97.7188 42.475V30.1527C97.72 29.3664 98.6156 28.7283 99.7208 28.7283H156.414C157.519 28.7283 158.415 29.3664 158.416 30.1527V42.4747C158.415 43.261 157.519 43.8983 156.414 43.8993ZM99.7208 29.2976C99.0576 29.2976 98.5202 29.6805 98.5195 30.1522V42.4742C98.5195 42.946 99.0576 43.3284 99.7208 43.3288H156.414C157.077 43.3288 157.615 42.946 157.615 42.4742V30.1527C157.615 29.681 157.077 29.2986 156.414 29.2981L99.7208 29.2976Z" fill="#E6E6E6"/>
<path d="M112.54 35.7311C112.22 35.7315 111.913 35.8587 111.687 36.085C111.461 36.3113 111.333 36.6181 111.333 36.9382V45.3877C111.333 45.7077 111.461 46.0145 111.687 46.2408C111.913 46.4671 112.22 46.5944 112.54 46.5947H155.753C156.073 46.5944 156.38 46.4671 156.606 46.2408C156.833 46.0145 156.96 45.7077 156.96 45.3877V36.9382C156.96 36.6181 156.833 36.3113 156.606 36.085C156.38 35.8587 156.073 35.7315 155.753 35.7311H112.54Z" fill="#00ADEE"/>
<path d="M118.575 43.9392C120.042 43.9392 121.231 42.7502 121.231 41.2836C121.231 39.817 120.042 38.6281 118.575 38.6281C117.109 38.6281 115.92 39.817 115.92 41.2836C115.92 42.7502 117.109 43.9392 118.575 43.9392Z" fill="white"/>
<path d="M130.678 40.1309C130.39 40.1309 130.113 40.2454 129.91 40.4491C129.706 40.6528 129.591 40.9292 129.591 41.2173C129.591 41.5054 129.706 41.7817 129.91 41.9855C130.113 42.1892 130.39 42.3037 130.678 42.3037H145.887C146.175 42.3037 146.451 42.1892 146.655 41.9855C146.859 41.7817 146.973 41.5054 146.973 41.2173C146.973 40.9292 146.859 40.6528 146.655 40.4491C146.451 40.2454 146.175 40.1309 145.887 40.1309H130.678Z" fill="white"/>
<path d="M113.926 15.171H57.2325C56.1273 15.171 55.2317 14.5329 55.2305 13.7466V1.42435C55.2317 0.638061 56.1273 0 57.2325 0H113.926C115.031 0 115.927 0.638061 115.928 1.42435V13.7464C115.927 14.5327 115.031 15.17 113.926 15.171ZM57.2325 0.569256C56.5693 0.569256 56.032 0.952138 56.0312 1.42386V13.7459C56.0312 14.2176 56.5693 14.6 57.2325 14.6005H113.926C114.589 14.6005 115.126 14.2176 115.127 13.7459V1.42435C115.127 0.952624 114.589 0.570221 113.926 0.569738L57.2325 0.569256Z" fill="#E6E6E6"/>
<path d="M70.0503 7.00281C69.7303 7.00318 69.4235 7.13048 69.1972 7.35677C68.9709 7.58305 68.8436 7.88986 68.8433 8.20988V16.6594C68.8436 16.9794 68.9709 17.2862 69.1972 17.5125C69.4235 17.7388 69.7303 17.8661 70.0503 17.8665H113.264C113.584 17.8661 113.89 17.7388 114.117 17.5125C114.343 17.2862 114.47 16.9794 114.471 16.6594V8.20988C114.47 7.88986 114.343 7.58306 114.117 7.35677C113.89 7.13048 113.584 7.00318 113.264 7.00281H70.0503Z" fill="#00ADEE"/>
<path d="M76.0857 15.2108C77.5524 15.2108 78.7413 14.0219 78.7413 12.5553C78.7413 11.0887 77.5524 9.89972 76.0857 9.89972C74.6191 9.89972 73.4302 11.0887 73.4302 12.5553C73.4302 14.0219 74.6191 15.2108 76.0857 15.2108Z" fill="white"/>
<path d="M88.1889 11.4026C87.9008 11.4026 87.6245 11.517 87.4207 11.7208C87.217 11.9245 87.1025 12.2008 87.1025 12.489C87.1025 12.7771 87.217 13.0534 87.4207 13.2571C87.6245 13.4609 87.9008 13.5753 88.1889 13.5753H103.398C103.686 13.5753 103.962 13.4609 104.166 13.2571C104.37 13.0534 104.484 12.7771 104.484 12.489C104.484 12.2008 104.37 11.9245 104.166 11.7208C103.962 11.517 103.686 11.4026 103.398 11.4026H88.1889Z" fill="white"/>
</svg>
