<svg width="64" height="76" viewBox="0 0 64 76" fill="none" xmlns="http://www.w3.org/2000/svg">
<ellipse cx="32" cy="38" rx="32" ry="38" fill="#C7E3EF"/>
<path d="M32.001 8.93872C18.7674 8.93872 8.00098 19.7051 8.00098 32.9388V35.4003C8.00098 36.4199 8.82756 37.2465 9.84714 37.2465C10.8667 37.2465 11.6933 36.4199 11.6933 35.4003V32.9388C11.6933 21.7411 20.8033 12.631 32.001 12.631C43.1987 12.631 52.3088 21.7411 52.3088 32.9388V35.4003C52.3088 36.4199 53.1354 37.2465 54.1549 37.2465C55.1745 37.2465 56.0011 36.4199 56.0011 35.4003V32.9388C56.0011 19.7051 45.2347 8.93872 32.001 8.93872Z" fill="#005676"/>
<path d="M54.1539 40.9392C51.1 40.9392 48.6154 38.4546 48.6154 35.4007V32.9392C48.6154 23.7774 41.1617 16.3237 32 16.3237C24.9703 16.3237 18.6737 20.7753 16.3316 27.4008C15.9918 28.3622 16.4957 29.4169 17.4571 29.7568C18.4184 30.0964 19.4731 29.5928 19.813 28.6313C21.6344 23.4783 26.532 20.016 32 20.016C39.1258 20.016 44.9231 25.8134 44.9231 32.9392V35.4007C44.9231 40.4906 49.064 44.6315 54.1539 44.6315C55.1735 44.6315 56 43.8049 56 42.7853C56 41.7658 55.1735 40.9392 54.1539 40.9392Z" fill="#4596B4"/>
<path d="M54.1535 48.3237C47.0277 48.3237 41.2304 42.5264 41.2304 35.4006C41.2304 34.381 40.4038 33.5544 39.3842 33.5544C38.3647 33.5544 37.5381 34.381 37.5381 35.4006C37.5381 44.5623 44.9918 52.016 54.1535 52.016C55.1731 52.016 55.9997 51.1894 55.9997 50.1699C55.9997 49.1503 55.1731 48.3237 54.1535 48.3237Z" fill="#8CDCFF"/>
<path d="M9.84616 44.6314C14.936 44.6314 19.077 40.4905 19.077 35.4006C19.077 34.381 18.2504 33.5544 17.2308 33.5544C16.2112 33.5544 15.3846 34.381 15.3846 35.4006C15.3846 38.4545 12.9001 40.9391 9.84616 40.9391C8.82659 40.9391 8 41.7657 8 42.7852C8 43.8048 8.82659 44.6314 9.84616 44.6314Z" fill="#005676"/>
<path d="M26.4616 35.4006V32.939C26.4616 29.8851 28.9461 27.4006 32.0001 27.4006C33.5736 27.4006 35.0781 28.0736 36.128 29.247C36.8077 30.0067 37.975 30.0717 38.7347 29.3918C39.4946 28.7121 39.5595 27.5449 38.8797 26.7849C37.1303 24.8296 34.6227 23.7083 32.0001 23.7083C26.9102 23.7083 22.7693 27.8492 22.7693 32.939V35.4006C22.7693 42.5264 16.972 48.3237 9.84616 48.3237C8.82659 48.3237 8 49.1503 8 50.1699C8 51.1894 8.82659 52.016 9.84616 52.016C19.0079 52.016 26.4616 44.5623 26.4616 35.4006Z" fill="#005676"/>
<path d="M52.0645 55.603C48.7923 55.2701 45.6134 54.1246 42.8713 52.2906C37.2189 48.5097 33.8442 42.1959 33.8442 35.4012V32.9397C33.8442 31.9201 33.0177 31.0935 31.9981 31.0935C30.9785 31.0935 30.1519 31.9201 30.1519 32.9397V35.4012C30.1519 45.8612 22.3189 54.5461 11.9318 55.603C10.9174 55.7062 10.1788 56.6121 10.2821 57.6265C10.3788 58.5774 11.1809 59.2858 12.1166 59.2858C12.179 59.2858 12.2422 59.2827 12.3057 59.2762C18.1896 58.6776 23.6266 55.93 27.6154 51.5393C29.4791 49.488 30.9535 47.1545 31.9994 44.6446C33.791 48.9414 36.8223 52.6867 40.8187 55.3595C44.0606 57.528 47.8202 58.8824 51.6907 59.2762C51.7542 59.2827 51.8173 59.2858 51.8799 59.2858C52.8155 59.2858 53.6176 58.5773 53.7143 57.6265C53.8175 56.6121 53.0788 55.7062 52.0645 55.603Z" fill="#005676"/>
<path d="M25.4172 58.2979C22.7261 60.1285 19.7654 61.4579 16.6173 62.2491C15.6285 62.4977 15.0282 63.5008 15.2769 64.4896C15.4873 65.3275 16.2396 65.8863 17.0659 65.8863C17.2148 65.8863 17.3662 65.8682 17.5172 65.8301C21.0867 64.933 24.4434 63.4259 27.4939 61.3509C28.3369 60.7774 28.5554 59.6291 27.982 58.7861C27.4086 57.943 26.2601 57.7244 25.4172 58.2979Z" fill="#4596B4"/>
<path d="M47.6039 62.3072C44.4312 61.5339 41.4579 60.2291 38.7666 58.4289C36.7748 57.0966 34.9632 55.5134 33.3823 53.7231C32.7075 52.9588 31.5408 52.8863 30.7765 53.5614C30.0122 54.2362 29.9398 55.4028 30.6147 56.1671C32.4058 58.1955 34.4579 59.9891 36.7138 61.498C39.7657 63.5393 43.1356 65.0185 46.7295 65.8946C46.8765 65.9304 47.0235 65.9476 47.1682 65.9476C47.9996 65.9476 48.7547 65.3818 48.9603 64.5381C49.2017 63.5476 48.5944 62.5487 47.6039 62.3072Z" fill="#005676"/>
<path d="M52.3077 32.9385V35.4001C52.3077 36.4197 53.1343 37.2462 54.1539 37.2462C55.1735 37.2462 56.0001 36.4197 56.0001 35.4001V32.9385C56.0001 19.7049 45.2336 8.93848 32 8.93848V12.6308C43.1977 12.6308 52.3077 21.7408 52.3077 32.9385Z" fill="#005676"/>
<path d="M44.9231 32.9373V35.3989C44.9231 40.4887 49.064 44.6297 54.1539 44.6297C55.1735 44.6297 56.0001 43.8031 56.0001 42.7835C56.0001 41.7639 55.1735 40.9373 54.1539 40.9373C51.1 40.9373 48.6154 38.4528 48.6154 35.3989V32.9373C48.6154 23.7756 41.1617 16.3219 32 16.3219V20.0142C39.1258 20.0142 44.9231 25.8115 44.9231 32.9373Z" fill="#005676"/>
<path d="M54.1535 48.3227C47.0277 48.3227 41.2304 42.5254 41.2304 35.3996C41.2304 34.3801 40.4038 33.5535 39.3842 33.5535C38.3647 33.5535 37.5381 34.3801 37.5381 35.3996C37.5381 44.5614 44.9918 52.0151 54.1535 52.0151C55.1731 52.0151 55.9997 51.1885 55.9997 50.1689C55.9997 49.1493 55.1731 48.3227 54.1535 48.3227Z" fill="#4596B4"/>
<path d="M36.1279 29.2459C36.8076 30.0056 37.9749 30.0706 38.7347 29.3907C39.4945 28.711 39.5594 27.5438 38.8796 26.7838C37.1302 24.8285 34.6227 23.7072 32 23.7072V27.3995C33.5735 27.3995 35.078 28.0725 36.1279 29.2459Z" fill="#005676"/>
<path d="M40.8205 55.3569C44.0624 57.5253 47.8219 58.8797 51.6925 59.2735C51.756 59.2801 51.8191 59.2831 51.8816 59.2831C52.8173 59.2831 53.6194 58.5746 53.7161 57.6238C53.8194 56.6094 53.0807 55.7034 52.0664 55.6003C48.7943 55.2674 45.6153 54.1219 42.8733 52.2879C37.2208 48.507 33.8462 42.1932 33.8462 35.3985V32.937C33.8462 31.9174 33.0196 31.0908 32 31.0908V44.6448C32.0004 44.6438 32.0009 44.6429 32.0012 44.6419C33.7929 48.9387 36.8243 52.684 40.8205 55.3569Z" fill="#005676"/>
<path d="M36.715 61.4958C39.7669 63.5372 43.1368 65.0163 46.7307 65.8924C46.8777 65.9282 47.0247 65.9454 47.1694 65.9454C48.0008 65.9454 48.7559 65.3796 48.9615 64.536C49.203 63.5454 48.5956 62.5467 47.6051 62.3052C44.4324 61.5319 41.4591 60.227 38.7678 58.4269C36.776 57.0946 34.9644 55.5113 33.3835 53.721C33.019 53.3081 32.5108 53.0991 32 53.0988V57.6342C33.4406 59.0678 35.0202 60.3622 36.715 61.4958Z" fill="#005676"/>
</svg>
