<svg width="58" height="58" viewBox="0 0 58 58" fill="none" xmlns="http://www.w3.org/2000/svg">
<path d="M55.2971 28.9768L57.6103 23.373C58.5695 21.0482 57.7099 18.4031 55.5659 17.0872L49.6446 13.5445L48.3105 8.02201C47.7182 5.57276 45.4497 3.93992 42.9623 4.13567L36.1869 4.66005L32.3057 1.22321C31.3493 0.40702 30.175 -0.000452747 29.0001 3.77499e-07C27.827 0.000453502 26.6532 0.40736 25.6946 1.22151L21.8132 4.66005L15.0379 4.13567C12.5787 3.96314 10.2804 5.57434 9.75105 7.82116C9.87963 7.42162 7.90083 13.5722 7.79129 13.9127L2.43512 17.0855C0.289577 18.4031 -0.570001 21.0481 0.390737 23.3747L2.70224 28.9768L0.39255 34.5772C-0.569887 36.9053 0.291277 39.5487 2.43524 40.8646L8.35056 44.3826L9.68965 49.9299C10.2787 52.3775 12.5372 54.0021 15.0379 53.8163L21.7402 53.2986L25.6945 56.7754C26.652 57.5917 27.8253 58 29.0001 58C30.1733 58 31.3482 57.5917 32.3057 56.7753L36.26 53.2985L42.9623 53.8162C45.4946 54.0169 47.7214 52.3791 48.3105 49.9298L49.6446 44.4074L55.5659 40.8646C57.7082 39.5487 58.5678 36.9053 57.6086 34.5772L55.2971 28.9768Z" fill="#FB4B00"/>
<path d="M29.0005 47.6914C39.3235 47.6914 47.6919 39.323 47.6919 29C47.6919 18.677 39.3235 10.3086 29.0005 10.3086C18.6775 10.3086 10.3091 18.677 10.3091 29C10.3091 39.323 18.6775 47.6914 29.0005 47.6914Z" fill="white"/>
<path d="M38.698 22.7009C38.0343 22.0372 36.9589 22.0372 36.2952 22.7009L29.0005 29.9955L27.3013 31.6948L21.7058 26.0992C21.0421 25.4355 19.9667 25.4355 19.303 26.0992C18.6393 26.7629 18.6393 27.8383 19.303 28.502L26.0999 35.2989C26.4318 35.6308 26.8666 35.7968 27.3012 35.7968C27.7359 35.7968 28.1708 35.6308 28.5026 35.2989L29.0004 34.801L38.6979 25.1036C39.3618 24.4399 39.3618 23.3646 38.698 22.7009Z" fill="#164600"/>
</svg>
