<svg width="175" height="139" viewBox="0 0 175 139" fill="none" xmlns="http://www.w3.org/2000/svg">
<path d="M87.8989 118.145C76.1457 118.145 64.756 114.07 55.6706 106.614C46.5853 99.1576 40.3663 88.7818 38.0734 77.2544C35.7804 65.7269 37.5554 53.7611 43.0959 43.3956C48.6364 33.0302 57.5995 24.9065 68.4581 20.4087C79.3167 15.911 91.3989 15.3174 102.646 18.7292C113.893 22.141 123.609 29.3471 130.139 39.1196C136.669 48.8921 139.608 60.6263 138.456 72.323C137.304 84.0197 132.132 94.955 123.821 103.266C119.115 107.998 113.517 111.75 107.351 114.304C101.184 116.858 94.573 118.164 87.8989 118.145ZM87.8989 16.9321C60.1021 16.9321 37.4876 39.5466 37.4876 67.3435C37.4876 95.1404 60.1021 117.755 87.8989 117.755C115.696 117.755 138.31 95.1404 138.31 67.3435C138.31 39.5466 115.696 16.9321 87.8989 16.9321Z" fill="#CCCCCC"/>
<path d="M106.762 125.764V74.5837H68.6702V125.764H106.762Z" fill="#2F2E41"/>
<path d="M113.306 73.0209H62.1255V93.3367H113.306V73.0209Z" fill="#3F3D56"/>
<path d="M113.306 95.6808H62.1255V115.997H113.306V95.6808Z" fill="#3F3D56"/>
<path d="M113.306 118.341H62.1255V138.656H113.306V118.341Z" fill="#3F3D56"/>
<path d="M113.306 81.6348H62.1255V84.7603H113.306V81.6348Z" fill="#00ADEE"/>
<path d="M113.306 104.295H62.1255V107.42H113.306V104.295Z" fill="#00ADEE"/>
<path d="M113.306 126.955H62.1255V130.08H113.306V126.955Z" fill="#00ADEE"/>
<path d="M103.343 77.1231C103.991 77.1231 104.516 76.5984 104.516 75.9511C104.516 75.3037 103.991 74.779 103.343 74.779C102.696 74.779 102.171 75.3037 102.171 75.9511C102.171 76.5984 102.696 77.1231 103.343 77.1231Z" fill="#FB4B00"/>
<path d="M107.446 77.1231C108.093 77.1231 108.618 76.5984 108.618 75.9511C108.618 75.3037 108.093 74.779 107.446 74.779C106.799 74.779 106.274 75.3037 106.274 75.9511C106.274 76.5984 106.799 77.1231 107.446 77.1231Z" fill="#FB4B00"/>
<path d="M111.548 77.1231C112.195 77.1231 112.72 76.5984 112.72 75.9511C112.72 75.3037 112.195 74.779 111.548 74.779C110.901 74.779 110.376 75.3037 110.376 75.9511C110.376 76.5984 110.901 77.1231 111.548 77.1231Z" fill="#FB4B00"/>
<path d="M103.343 99.3923C103.991 99.3923 104.516 98.8675 104.516 98.2202C104.516 97.5729 103.991 97.0482 103.343 97.0482C102.696 97.0482 102.171 97.5729 102.171 98.2202C102.171 98.8675 102.696 99.3923 103.343 99.3923Z" fill="#FB4B00"/>
<path d="M107.446 99.3923C108.093 99.3923 108.618 98.8675 108.618 98.2202C108.618 97.5729 108.093 97.0482 107.446 97.0482C106.799 97.0482 106.274 97.5729 106.274 98.2202C106.274 98.8675 106.799 99.3923 107.446 99.3923Z" fill="#FB4B00"/>
<path d="M111.548 99.3923C112.195 99.3923 112.72 98.8675 112.72 98.2202C112.72 97.5729 112.195 97.0482 111.548 97.0482C110.901 97.0482 110.376 97.5729 110.376 98.2202C110.376 98.8675 110.901 99.3923 111.548 99.3923Z" fill="#FB4B00"/>
<path d="M103.343 121.662C103.991 121.662 104.516 121.137 104.516 120.489C104.516 119.842 103.991 119.317 103.343 119.317C102.696 119.317 102.171 119.842 102.171 120.489C102.171 121.137 102.696 121.662 103.343 121.662Z" fill="#FB4B00"/>
<path d="M107.446 121.662C108.093 121.662 108.618 121.137 108.618 120.489C108.618 119.842 108.093 119.317 107.446 119.317C106.799 119.317 106.274 119.842 106.274 120.489C106.274 121.137 106.799 121.662 107.446 121.662Z" fill="#FB4B00"/>
<path d="M111.548 121.662C112.195 121.662 112.72 121.137 112.72 120.489C112.72 119.842 112.195 119.317 111.548 119.317C110.901 119.317 110.376 119.842 110.376 120.489C110.376 121.137 110.901 121.662 111.548 121.662Z" fill="#FB4B00"/>
<path d="M174.449 138.461H0.983398V138.852H174.449V138.461Z" fill="#3F3D56"/>
<path d="M48.233 52.9509V89.2832C48.2328 90.0433 47.9308 90.7722 47.3933 91.3097C46.8559 91.8471 46.1269 92.1492 45.3668 92.1493H31.2477C30.4874 92.1494 29.7582 91.8475 29.2205 91.31C28.6828 90.7725 28.3806 90.0434 28.3804 89.2832V52.9509C28.3806 52.1906 28.6828 51.4615 29.2205 50.924C29.7582 50.3865 30.4874 50.0846 31.2477 50.0847H32.9605C32.8764 50.2915 32.8443 50.5158 32.8672 50.7379C32.8901 50.96 32.9672 51.1731 33.0918 51.3584C33.2163 51.5437 33.3844 51.6956 33.5814 51.8007C33.7784 51.9058 33.9982 51.9609 34.2214 51.9612H42.2712C42.4945 51.9609 42.7143 51.9058 42.9112 51.8007C43.1082 51.6956 43.2763 51.5437 43.4009 51.3584C43.5254 51.1731 43.6025 50.96 43.6254 50.7379C43.6483 50.5158 43.6163 50.2915 43.5322 50.0847H45.3668C46.1269 50.0849 46.8559 50.3869 47.3933 50.9244C47.9308 51.4618 48.2328 52.1908 48.233 52.9509Z" fill="#E6E6E6"/>
<path d="M47.2924 57.0228H29.3208V82.0268H47.2924V57.0228Z" fill="white"/>
<path d="M41.5963 74.2164H34.4233V74.6263H41.5963V74.2164Z" fill="#E6E6E6"/>
<path d="M45.5154 75.7214H34.4165V76.1313H45.5154V75.7214Z" fill="#6C63FF"/>
<path d="M43.1265 77.1393H34.4165V77.5492H43.1265V77.1393Z" fill="#E6E6E6"/>
<path d="M39.5401 78.5572H34.4165V78.9671H39.5401V78.5572Z" fill="#E6E6E6"/>
<path d="M42.1018 79.9752H34.4165V80.385H42.1018V79.9752Z" fill="#E6E6E6"/>
<path d="M31.9902 74.0985H31.1704V74.9183H31.9902V74.0985Z" fill="#E6E6E6"/>
<path d="M31.9902 75.5164H31.1704V76.3362H31.9902V75.5164Z" fill="#6C63FF"/>
<path d="M31.9902 76.9344H31.1704V77.7542H31.9902V76.9344Z" fill="#E6E6E6"/>
<path d="M31.9902 78.3523H31.1704V79.1721H31.9902V78.3523Z" fill="#E6E6E6"/>
<path d="M31.9902 79.7701H31.1704V80.5899H31.9902V79.7701Z" fill="#E6E6E6"/>
<path d="M41.9567 60.1483H34.7295V67.3756H41.9567V60.1483Z" fill="#E6E6E6"/>
<path d="M111.742 0.0272217H63.7104V30.789H111.742V0.0272217Z" fill="#E6E6E6"/>
<path d="M107.154 8.63324H67.3311V23.6816H107.154V8.63324Z" fill="white"/>
<path d="M84.1449 11.2405H74.5874V11.7866H84.1449V11.2405Z" fill="#E6E6E6"/>
<path d="M89.3662 13.2457H74.5776V13.7919H89.3662V13.2457Z" fill="#00ADEE"/>
<path d="M86.1832 15.135H74.5776V15.6812H86.1832V15.135Z" fill="#E6E6E6"/>
<path d="M81.4045 17.0243H74.5776V17.5704H81.4045V17.0243Z" fill="#E6E6E6"/>
<path d="M84.8179 18.9136H74.5776V19.4597H84.8179V18.9136Z" fill="#E6E6E6"/>
<path d="M71.3447 11.0834H70.2524V12.1757H71.3447V11.0834Z" fill="#E6E6E6"/>
<path d="M71.3447 12.9727H70.2524V14.0649H71.3447V12.9727Z" fill="#00ADEE"/>
<path d="M71.3447 14.8619H70.2524V15.9542H71.3447V14.8619Z" fill="#E6E6E6"/>
<path d="M71.3447 16.7513H70.2524V17.8436H71.3447V16.7513Z" fill="#E6E6E6"/>
<path d="M71.3447 18.6405H70.2524V19.7328H71.3447V18.6405Z" fill="#E6E6E6"/>
<path d="M105.201 10.5187H95.4219V20.2973H105.201V10.5187Z" fill="#E6E6E6"/>
<path d="M111.722 0H63.6899V2.04057H111.722V0Z" fill="#FFC700"/>
<path d="M65.2065 1.45288C65.4327 1.45288 65.6161 1.2695 65.6161 1.04328C65.6161 0.817055 65.4327 0.633667 65.2065 0.633667C64.9803 0.633667 64.7969 0.817055 64.7969 1.04328C64.7969 1.2695 64.9803 1.45288 65.2065 1.45288Z" fill="white"/>
<path d="M66.6415 1.45288C66.8678 1.45288 67.0512 1.2695 67.0512 1.04328C67.0512 0.817055 66.8678 0.633667 66.6415 0.633667C66.4153 0.633667 66.2319 0.817055 66.2319 1.04328C66.2319 1.2695 66.4153 1.45288 66.6415 1.45288Z" fill="white"/>
<path d="M68.0776 1.45288C68.3038 1.45288 68.4872 1.2695 68.4872 1.04328C68.4872 0.817055 68.3038 0.633667 68.0776 0.633667C67.8514 0.633667 67.668 0.817055 67.668 1.04328C67.668 1.2695 67.8514 1.45288 68.0776 1.45288Z" fill="white"/>
<path d="M143.906 57.5888H132.185V63.6445H143.906V57.5888Z" fill="#E6E6E6"/>
<path d="M143.906 79.272H132.185V85.3276H143.906V79.272Z" fill="#E6E6E6"/>
<path d="M138.046 81.2254C143.44 81.2254 147.813 76.8524 147.813 71.4582C147.813 66.0639 143.44 61.691 138.046 61.691C132.651 61.691 128.278 66.0639 128.278 71.4582C128.278 76.8524 132.651 81.2254 138.046 81.2254Z" fill="#E6E6E6"/>
<path d="M138.046 79.0766C142.254 79.0766 145.665 75.6657 145.665 71.4582C145.665 67.2507 142.254 63.8398 138.046 63.8398C133.839 63.8398 130.428 67.2507 130.428 71.4582C130.428 75.6657 133.839 79.0766 138.046 79.0766Z" fill="white"/>
<path d="M141.46 69.3708H135.551V69.7084H141.46V69.3708Z" fill="#E2E2E2"/>
<path d="M144.687 70.6105H135.545V70.9482H144.687V70.6105Z" fill="#6C63FF"/>
<path d="M142.72 71.7785H135.545V72.1161H142.72V71.7785Z" fill="#E2E2E2"/>
<path d="M139.765 72.9464H135.545V73.284H139.765V72.9464Z" fill="#E2E2E2"/>
<path d="M141.875 74.1144H135.545V74.452H141.875V74.1144Z" fill="#E2E2E2"/>
<path d="M133.547 69.2737H132.872V69.949H133.547V69.2737Z" fill="#E2E2E2"/>
<path d="M133.547 70.4417H132.872V71.1169H133.547V70.4417Z" fill="#6C63FF"/>
<path d="M133.547 71.6096H132.872V72.2849H133.547V71.6096Z" fill="#E2E2E2"/>
<path d="M133.547 72.7776H132.872V73.4529H133.547V72.7776Z" fill="#E2E2E2"/>
<path d="M133.547 73.9456H132.872V74.6209H133.547V73.9456Z" fill="#E2E2E2"/>
<path d="M137.216 71.019C137.572 70.9798 137.914 70.8632 138.22 70.6774C138.525 70.4915 138.786 70.241 138.984 69.9434C139.183 69.6457 139.313 69.3083 139.367 68.9548C139.42 68.6013 139.396 68.2403 139.295 67.8973L146.367 62.8454L142.153 61.2225L136.082 66.2686C135.517 66.4764 135.048 66.8842 134.764 67.4148C134.479 67.9454 134.4 68.5619 134.539 69.1475C134.679 69.733 135.029 70.2469 135.522 70.5919C136.016 70.9368 136.618 71.0888 137.216 71.019Z" fill="#FFB7B7"/>
<path d="M141.143 67.6918L138.796 63.6845L138.846 63.6277L148.313 52.8504L155.663 40.316L162.045 41.1295L162.139 43.0587L162.12 43.0875L151.98 58.3307L151.969 58.3399L141.143 67.6918Z" fill="#005676"/>
<path d="M172.42 135.501H168.81L167.093 121.579L172.42 121.579L172.42 135.501Z" fill="#FFB7B7"/>
<path d="M173.34 139L161.702 139V138.852C161.702 137.651 162.18 136.499 163.029 135.649C163.879 134.8 165.031 134.323 166.232 134.323H166.232L173.341 134.323L173.34 139Z" fill="#2F2E41"/>
<path d="M141.355 135.383L137.845 134.545L139.408 120.604L144.589 121.842L141.355 135.383Z" fill="#FFB7B7"/>
<path d="M141.439 139L130.119 136.297L130.153 136.154C130.432 134.985 131.164 133.975 132.187 133.346C133.211 132.717 134.442 132.521 135.611 132.8L135.611 132.8L142.525 134.451L141.439 139Z" fill="#2F2E41"/>
<path d="M155.384 33.9509V27.8753C155.383 26.8058 155.593 25.7466 156.002 24.7582C156.411 23.7699 157.011 22.8718 157.767 22.1153C158.523 21.3588 159.42 20.7587 160.408 20.3492C161.396 19.9398 162.456 19.729 163.525 19.729C164.595 19.729 165.654 19.9398 166.642 20.3492C167.63 20.7587 168.528 21.3588 169.284 22.1153C170.04 22.8718 170.639 23.7699 171.048 24.7582C171.457 25.7466 171.667 26.8058 171.666 27.8753V33.9509C171.666 34.2409 171.551 34.5188 171.346 34.7239C171.141 34.9289 170.863 35.0442 170.573 35.0445H156.477C156.187 35.0442 155.909 34.9289 155.704 34.7239C155.499 34.5188 155.384 34.2409 155.384 33.9509Z" fill="#2F2E41"/>
<path d="M161.515 34.9522C164.812 34.9522 167.484 32.2798 167.484 28.9833C167.484 25.6867 164.812 23.0143 161.515 23.0143C158.219 23.0143 155.546 25.6867 155.546 28.9833C155.546 32.2798 158.219 34.9522 161.515 34.9522Z" fill="#FFB7B7"/>
<path d="M153.458 28.3614C153.459 26.6539 154.139 25.017 155.346 23.8096C156.553 22.6023 158.19 21.9231 159.898 21.9212H161.113C162.82 21.9231 164.457 22.6023 165.665 23.8096C166.872 25.017 167.551 26.6539 167.553 28.3614V28.4829H164.985L164.109 26.0303L163.934 28.4829H162.607L162.165 27.2454L162.077 28.4829H153.458V28.3614Z" fill="#2F2E41"/>
<path d="M164.997 60.4868L149.799 59.9084L148.95 49.9657C148.294 48.1458 148.284 46.5832 148.918 45.3215C149.464 44.2852 150.38 43.493 151.485 43.1033L154.81 39.0868C155.238 38.5704 155.775 38.1556 156.383 37.8723C156.991 37.589 157.654 37.4443 158.325 37.4486L166.965 37.5077C167.173 37.3824 168.436 36.7404 170.928 37.8204C173.63 38.992 173.003 43.0607 172.996 43.1016L172.99 43.1398L172.96 43.165L167.213 48.0049L164.997 60.4868Z" fill="#005676"/>
<path d="M149.92 58.84L142.731 71.9466L137.281 131.575L143.439 133.456L154.339 86.8108L166.99 132.132L174.371 132.317L169.345 80.0157L164.953 59.7661L149.92 58.84Z" fill="#CBCBCB"/>
<path d="M169.127 80.0585C169.393 79.8197 169.603 79.5254 169.743 79.1964C169.883 78.8674 169.95 78.5117 169.937 78.1544C169.925 77.797 169.835 77.4467 169.672 77.1281C169.51 76.8095 169.28 76.5304 168.998 76.3104L171.804 68.0845L167.433 69.2202L165.438 76.8576C165.1 77.3556 164.956 77.9604 165.034 78.5573C165.112 79.1542 165.406 79.7019 165.861 80.0964C166.315 80.491 166.899 80.7051 167.501 80.6981C168.103 80.6911 168.681 80.4635 169.127 80.0585Z" fill="#FFB7B7"/>
<path d="M170.38 75.0668L166.139 73.1762L167.564 58.8267L166.238 44.3572L171.9 41.3007L173.1 42.814L173.101 42.8484L173.737 61.1453L173.734 61.1592L170.38 75.0668Z" fill="#005676"/>
</svg>
