<svg width="183" height="130" viewBox="0 0 183 130" fill="none" xmlns="http://www.w3.org/2000/svg">
<path d="M84.1541 53.0401H0V0.395752H84.1541V53.0401Z" fill="white"/>
<path d="M84.1541 53.0401H0V0.395752H84.1541V53.0401ZM0.384266 52.6559H83.7699V0.780018H0.384266V52.6559Z" fill="#3F3D56"/>
<path d="M82.8755 115.955H34.8423V63.3102H82.8755V115.955Z" fill="white"/>
<path d="M82.8755 115.955H34.8423V63.3102H82.8755V115.955ZM35.2266 115.57H82.4912V63.6944H35.2266V115.57Z" fill="#3F3D56"/>
<path d="M76.3425 110.982H66.3516V111.387H76.3425V110.982Z" fill="#3F3D56"/>
<path d="M76.3425 112.198H66.3516V112.603H76.3425V112.198Z" fill="#3F3D56"/>
<path d="M76.3425 113.413H66.3516V113.818H76.3425V113.413Z" fill="#3F3D56"/>
<path d="M58.8584 72.7246V76.9515C61.3664 76.9515 63.8181 77.6952 65.9034 79.0886C67.9888 80.482 69.6141 82.4625 70.5739 84.7796C71.5337 87.0967 71.7848 89.6464 71.2955 92.1062C70.8062 94.566 69.5985 96.8255 67.825 98.5989L70.8139 101.588C73.1785 99.2232 74.7888 96.2106 75.4412 92.9308C76.0936 89.651 75.7588 86.2515 74.4791 83.162C73.1994 80.0725 71.0323 77.4319 68.2518 75.5741C65.4713 73.7162 62.2024 72.7246 58.8584 72.7246Z" fill="#E6E6E6"/>
<path d="M70.8139 101.588L67.825 98.599C65.657 100.767 62.7766 102.077 59.7173 102.284C56.658 102.491 53.6272 101.583 51.1863 99.7271L48.6279 103.093C51.883 105.567 55.9242 106.778 60.0033 106.501C64.0823 106.224 67.9229 104.479 70.8139 101.588Z" fill="#FFC700"/>
<path d="M46.1776 89.6323C46.1776 87.967 46.5056 86.3181 47.1429 84.7796C47.7801 83.2411 48.7142 81.8431 49.8917 80.6656C51.0692 79.4881 52.4671 78.5541 54.0057 77.9168C55.5442 77.2795 57.1931 76.9515 58.8584 76.9515V72.7246C55.3189 72.7246 51.8687 73.8353 48.9941 75.9003C46.1195 77.9652 43.9654 80.8802 42.8354 84.2345C41.7055 87.5887 41.6567 91.2129 42.6959 94.5964C43.7351 97.9798 45.8099 100.952 48.6279 103.093L51.1863 99.7271C49.6286 98.5455 48.3657 97.0192 47.4967 95.2678C46.6277 93.5164 46.1762 91.5874 46.1776 89.6323Z" fill="#00ADEE"/>
<path d="M138.964 93.292H90.9307V40.6476H138.964V93.292Z" fill="white"/>
<path d="M138.964 93.292H90.9307V40.6476H138.964V93.292ZM91.3149 92.9078H138.58V41.0318H91.3149V92.9078Z" fill="#3F3D56"/>
<path d="M106.494 72.8298H97.8477V86.6634H106.494V72.8298Z" fill="#575A89"/>
<path d="M118.982 63.4153H110.336V86.6633H118.982V63.4153Z" fill="#E6E6E6"/>
<path d="M131.471 52.4637H122.825V86.6634H131.471V52.4637Z" fill="#00ADEE"/>
<path d="M134.353 87.0479H95.542V46.892H95.9261V86.6635H134.353V87.0479Z" fill="#3F3D56"/>
<path d="M72.4669 42.0302H11.6868C11.6363 42.0302 11.588 42.0101 11.5523 41.9745C11.5166 41.9388 11.4966 41.8904 11.4966 41.84V12.708C11.4966 12.6576 11.5166 12.6092 11.5523 12.5735C11.588 12.5379 11.6363 12.5178 11.6868 12.5178C11.7372 12.5178 11.7856 12.5379 11.8213 12.5735C11.857 12.6092 11.877 12.6576 11.877 12.708V41.6497H72.4669C72.492 41.6497 72.5168 41.6545 72.5399 41.664C72.5631 41.6736 72.5841 41.6875 72.6019 41.7052C72.6196 41.7229 72.6337 41.7439 72.6433 41.767C72.6529 41.7901 72.6578 41.8149 72.6578 41.84C72.6578 41.865 72.6529 41.8898 72.6433 41.9129C72.6337 41.936 72.6196 41.957 72.6019 41.9747C72.5841 41.9924 72.5631 42.0064 72.5399 42.0159C72.5168 42.0254 72.492 42.0303 72.4669 42.0302Z" fill="#3F3D56"/>
<path d="M24.6729 39.9378H19.1447C18.995 39.9377 18.8515 39.8781 18.7457 39.7723C18.6398 39.6664 18.5803 39.5229 18.5801 39.3732V31.7526C18.5803 31.6029 18.6398 31.4594 18.7457 31.3535C18.8515 31.2477 18.995 31.1882 19.1447 31.188H24.6729C24.8226 31.1882 24.9661 31.2477 25.072 31.3535C25.1778 31.4594 25.2374 31.6029 25.2376 31.7526V39.3732C25.2374 39.5229 25.1778 39.6664 25.072 39.7723C24.9661 39.8781 24.8226 39.9377 24.6729 39.9378Z" fill="#FFC700"/>
<path d="M34.7545 39.9378H29.2263C29.0766 39.9377 28.9331 39.8781 28.8272 39.7723C28.7213 39.6664 28.6618 39.5229 28.6616 39.3732V24.5244C28.6618 24.3747 28.7213 24.2312 28.8272 24.1254C28.9331 24.0195 29.0766 23.96 29.2263 23.9598H34.7545C34.9042 23.96 35.0477 24.0195 35.1535 24.1254C35.2594 24.2312 35.3189 24.3747 35.3191 24.5244V39.3732C35.3189 39.5229 35.2594 39.6664 35.1535 39.7723C35.0477 39.8781 34.9042 39.9377 34.7545 39.9378Z" fill="#FFC700"/>
<path d="M44.8355 39.9378H39.3073C39.1576 39.9377 39.0141 39.8781 38.9083 39.7723C38.8024 39.6664 38.7429 39.5229 38.7427 39.3732V31.7526C38.7429 31.6029 38.8024 31.4594 38.9083 31.3535C39.0141 31.2477 39.1576 31.1882 39.3073 31.188H44.8355C44.9852 31.1882 45.1287 31.2477 45.2346 31.3535C45.3404 31.4594 45.4 31.6029 45.4002 31.7526V39.3732C45.4 39.5229 45.3404 39.6664 45.2346 39.7723C45.1287 39.8781 44.9852 39.9377 44.8355 39.9378Z" fill="#FFC700"/>
<path d="M54.9171 39.9378H49.3889C49.2426 39.9409 49.101 39.886 48.9952 39.7849C48.8893 39.6839 48.8279 39.545 48.8242 39.3987V21.6456C48.8279 21.4993 48.8893 21.3605 48.9952 21.2594C49.101 21.1584 49.2426 21.1034 49.3889 21.1066H54.9171C55.0633 21.1034 55.2049 21.1584 55.3108 21.2594C55.4166 21.3605 55.4781 21.4993 55.4817 21.6456V39.3987C55.4781 39.545 55.4166 39.6839 55.3108 39.7849C55.2049 39.886 55.0633 39.9409 54.9171 39.9378Z" fill="#FFC700"/>
<path d="M64.9986 39.9378H59.4704C59.3207 39.9376 59.1772 39.8781 59.0713 39.7722C58.9655 39.6664 58.9059 39.5229 58.9058 39.3732V16.5354C58.9059 16.3857 58.9655 16.2422 59.0713 16.1364C59.1772 16.0305 59.3207 15.971 59.4704 15.9708H64.9986C65.1483 15.971 65.2918 16.0305 65.3977 16.1364C65.5035 16.2422 65.5631 16.3857 65.5632 16.5354V39.3732C65.5631 39.5229 65.5035 39.6664 65.3977 39.7722C65.2918 39.8781 65.1483 39.9376 64.9986 39.9378Z" fill="#FFC700"/>
<path d="M21.9089 28.9054C22.5392 28.9054 23.0501 28.3944 23.0501 27.7641C23.0501 27.1338 22.5392 26.6228 21.9089 26.6228C21.2785 26.6228 20.7676 27.1338 20.7676 27.7641C20.7676 28.3944 21.2785 28.9054 21.9089 28.9054Z" fill="#FB4B00"/>
<path d="M31.9904 21.487C32.6207 21.487 33.1317 20.9761 33.1317 20.3458C33.1317 19.7154 32.6207 19.2045 31.9904 19.2045C31.3601 19.2045 30.8491 19.7154 30.8491 20.3458C30.8491 20.9761 31.3601 21.487 31.9904 21.487Z" fill="#FB4B00"/>
<path d="M42.0719 28.9054C42.7023 28.9054 43.2132 28.3944 43.2132 27.7641C43.2132 27.1338 42.7023 26.6228 42.0719 26.6228C41.4416 26.6228 40.9307 27.1338 40.9307 27.7641C40.9307 28.3944 41.4416 28.9054 42.0719 28.9054Z" fill="#FB4B00"/>
<path d="M52.153 17.873C52.7833 17.873 53.2943 17.3621 53.2943 16.7317C53.2943 16.1014 52.7833 15.5905 52.153 15.5905C51.5227 15.5905 51.0117 16.1014 51.0117 16.7317C51.0117 17.3621 51.5227 17.873 52.153 17.873Z" fill="#FB4B00"/>
<path d="M62.2345 13.6883C62.8649 13.6883 63.3758 13.1774 63.3758 12.547C63.3758 11.9167 62.8649 11.4058 62.2345 11.4058C61.6042 11.4058 61.0933 11.9167 61.0933 12.547C61.0933 13.1774 61.6042 13.6883 62.2345 13.6883Z" fill="#FB4B00"/>
<path d="M42.0956 28.0197L31.9904 20.4507L22.0229 27.9163L21.7949 27.6118L31.9904 19.9753L42.0475 27.5083L52.0418 16.5715L52.082 16.5552L62.1632 12.4932L62.3054 12.8462L52.2641 16.8919L42.0956 28.0197Z" fill="#005676"/>
<path d="M158.484 76.1777C158.211 76.0134 157.977 75.7912 157.799 75.5267C157.621 75.2621 157.503 74.9618 157.453 74.6467C157.404 74.3317 157.424 74.0096 157.512 73.7031C157.601 73.3967 157.755 73.1134 157.965 72.8731L155.13 44.4246L159.864 44.7387L161.175 72.7519C161.555 73.131 161.783 73.6364 161.816 74.1724C161.848 74.7084 161.683 75.2376 161.351 75.6599C161.02 76.0822 160.545 76.3681 160.016 76.4636C159.488 76.559 158.943 76.4573 158.484 76.1777Z" fill="#FFB8B8"/>
<path d="M161.782 43.3708L160.541 52.8034L160.713 58.5845L155.507 59.0612L154.463 54.253L153.888 41.5237C153.845 40.5636 154.167 39.6227 154.79 38.8907C155.413 38.1587 156.29 37.69 157.244 37.579C158.235 37.4639 159.231 37.7428 160.017 38.3555C160.804 38.9682 161.318 39.8657 161.449 40.8542L161.782 43.3708Z" fill="#005676"/>
<path d="M141.843 126.366L138.684 126.366L137.182 114.185L141.843 114.185L141.843 126.366Z" fill="#FFB7B7"/>
<path d="M142.648 129.428L132.465 129.427V129.299C132.465 128.247 132.883 127.239 133.626 126.496C134.369 125.753 135.377 125.335 136.429 125.335H136.429L142.649 125.335L142.648 129.428Z" fill="#2F2E41"/>
<path d="M167.921 126.366L164.763 126.366L163.261 114.185L167.922 114.185L167.921 126.366Z" fill="#FFB7B7"/>
<path d="M168.727 129.428L158.543 129.427V129.299C158.544 128.247 158.961 127.239 159.704 126.496C160.448 125.753 161.456 125.335 162.507 125.335H162.507L168.727 125.335L168.727 129.428Z" fill="#2F2E41"/>
<path d="M157.227 32.9088C160.906 32.0324 163.178 28.3398 162.301 24.661C161.425 20.9823 157.732 18.7105 154.054 19.5869C150.375 20.4633 148.103 24.1559 148.979 27.8347C149.856 31.5134 153.548 33.7852 157.227 32.9088Z" fill="#FFB8B8"/>
<path d="M154.756 35.8751L159.507 36.4182C160.663 38.0569 161.412 39.947 161.693 41.9324C161.975 43.9177 161.779 45.9415 161.124 47.8366L157.539 58.2091C157.539 58.2091 162.516 68.1874 162.516 77.4517C162.516 86.7161 171.995 119.785 171.995 119.785L158.653 121.177L152.831 85.949L144.808 121.035L135.649 119.544L140.693 73.5425L144.027 58.4015L144.169 51.0176C144.169 51.0176 142.751 45.4771 146.299 41.9298L150.63 35.8949L154.756 35.8751Z" fill="#005676"/>
<path d="M150.607 77.3271C150.318 77.1311 150.075 76.8741 149.896 76.5741C149.717 76.2741 149.605 75.9385 149.57 75.5908C149.534 75.2432 149.576 74.892 149.69 74.562C149.805 74.232 149.991 73.9312 150.235 73.6808L148.825 42.3879L153.985 43.013L153.755 73.739C154.148 74.1764 154.367 74.743 154.371 75.3313C154.375 75.9196 154.163 76.4888 153.775 76.9311C153.387 77.3734 152.85 77.658 152.266 77.731C151.682 77.804 151.092 77.6603 150.607 77.3271Z" fill="#FFB8B8"/>
<path d="M156.164 41.6306L154.246 51.8767L154.091 58.2118L148.366 58.4238L147.51 53.1013L147.638 39.1405C147.648 38.0875 148.056 37.0773 148.781 36.3135C149.506 35.5497 150.493 35.089 151.544 35.0243C152.635 34.9572 153.708 35.3216 154.532 36.0387C155.356 36.7558 155.865 37.7683 155.95 38.8575L156.164 41.6306Z" fill="#005676"/>
<path d="M147.658 23.8024H157.72V19.4164C155.512 18.539 153.351 17.7928 152.044 19.4164C150.881 19.4164 149.765 19.8785 148.943 20.701C148.12 21.5235 147.658 22.6391 147.658 23.8024V23.8024Z" fill="#2F2E41"/>
<path d="M158.277 18.6425C164.292 18.6425 165.976 26.1823 165.976 30.4359C165.976 32.8081 164.903 33.6566 163.217 33.9437L162.622 30.7684L161.227 34.0803C160.754 34.0827 160.256 34.0735 159.741 34.0639L159.268 33.0904L158.214 34.0465C153.991 34.0528 150.578 34.6683 150.578 30.4359C150.578 26.1823 152.055 18.6425 158.277 18.6425Z" fill="#2F2E41"/>
<path opacity="0.2" d="M149.381 60.2883L149.127 49.2434L148.452 44.3401L146.785 49.1972L149.381 60.2883Z" fill="black"/>
<path d="M182.789 129.662H123.212C123.156 129.662 123.102 129.639 123.062 129.6C123.022 129.56 123 129.506 123 129.45C123 129.394 123.022 129.34 123.062 129.3C123.102 129.26 123.156 129.238 123.212 129.238H182.789C182.845 129.238 182.899 129.26 182.939 129.3C182.979 129.34 183.001 129.394 183.001 129.45C183.001 129.506 182.979 129.56 182.939 129.6C182.899 129.639 182.845 129.662 182.789 129.662Z" fill="#CBCBCB"/>
</svg>
