<svg width="56" height="56" viewBox="0 0 56 56" fill="none" xmlns="http://www.w3.org/2000/svg">
<path d="M2.91204 14.5613H0V0H14.5613V2.91204H2.91204V14.5613Z" fill="#FFC700"/>
<path d="M2.49713 0.427612L22.3167 20.2477L20.2579 22.3071L0.437744 2.487L2.49713 0.427612Z" fill="#FFC700"/>
<path d="M55.332 14.5613H52.4199V2.91204H40.7712V0H55.332V14.5613Z" fill="#FFC700"/>
<path d="M52.845 0.437256L54.9039 2.49664L35.0838 22.3168L33.0249 20.2574L52.845 0.437256Z" fill="#FFC700"/>
<path d="M14.5613 55.3321H0V40.7713H2.91204V52.42H14.5613V55.3321Z" fill="#FFC700"/>
<path d="M20.2354 33.0275L22.2948 35.0869L2.47467 54.907L0.415283 52.8477L20.2354 33.0275Z" fill="#FFC700"/>
<path d="M55.332 55.3321H40.7712V52.42H52.4199V40.7713H55.332V55.3321Z" fill="#FFC700"/>
<path d="M35.0875 33.037L54.9076 52.8572L52.8482 54.916L33.0281 35.0964L35.0875 33.037Z" fill="#FFC700"/>
<path d="M14.1832 39.9723C12.8337 39.9698 11.4994 39.6103 10.3652 38.8782C8.34063 37.5715 7 35.2943 7 32.7028C7 29.0691 9.63593 26.0532 13.0971 25.4646C13.2089 25.4456 13.2893 25.3482 13.2924 25.2349C13.5062 17.4648 19.8622 11.2314 27.673 11.2314C33.8953 11.2314 39.1942 15.1875 41.2006 20.7246C41.2355 20.8212 41.3272 20.8831 41.4299 20.883H41.4317C46.7161 20.883 51 25.1729 51 30.4647C51 35.4426 47.2087 39.5316 42.3603 39.9994C42.1607 40.0187 14.1832 39.9723 14.1832 39.9723Z" fill="#00ADEE"/>
<path d="M38.6826 16.3663C36.1843 14.2663 32.9618 13.0021 29.4435 13.0021C21.6324 13.0021 15.2768 19.2355 15.0634 27.0059C15.0599 27.1192 14.9793 27.2166 14.8678 27.2352C11.4062 27.824 8.77062 30.8393 8.77062 34.4735C8.77062 36.0494 9.2664 37.5093 10.1119 38.7053C8.2297 37.3782 7 35.1844 7 32.7029C7 29.0687 9.63557 26.0533 13.0971 25.4646C13.2087 25.446 13.2893 25.3486 13.2928 25.2353C13.5062 17.4649 19.8618 11.2314 27.6729 11.2314C32.0924 11.2314 36.0453 13.2269 38.6826 16.3663Z" fill="#2983A5"/>
</svg>
