<svg width="100" height="100" viewBox="0 0 100 100" fill="none" xmlns="http://www.w3.org/2000/svg">
<circle cx="50" cy="50" r="50" fill="#005676"/>
<path d="M28 52C28.0045 48.0231 29.5863 44.2104 32.3983 41.3984C35.2104 38.5863 39.0231 37.0045 43 37H65.6428L63.488 34.8452C63.3333 34.6905 63.2105 34.5067 63.1268 34.3045C63.043 34.1023 62.9999 33.8856 62.9999 33.6667C62.9999 33.4478 63.043 33.2311 63.1268 33.0289C63.2105 32.8267 63.3333 32.6429 63.488 32.4882C63.6428 32.3334 63.8265 32.2106 64.0288 32.1269C64.231 32.0431 64.4477 32 64.6666 32C64.8855 32 65.1022 32.0431 65.3044 32.1269C65.5066 32.2106 65.6904 32.3334 65.8451 32.4882L70.8451 37.4882C70.8501 37.4932 70.8543 37.4988 70.8593 37.5038C70.8926 37.5379 70.9249 37.5729 70.9551 37.61C70.9726 37.6313 70.988 37.6538 71.0043 37.6757C71.0203 37.6973 71.0372 37.7184 71.0522 37.7407C71.0693 37.7663 71.0841 37.7927 71.0995 37.8188C71.1118 37.8394 71.1245 37.8592 71.1359 37.8804C71.1501 37.9069 71.1622 37.934 71.1747 37.9609C71.1851 37.9834 71.1966 38.0052 71.2059 38.0284C71.2168 38.0544 71.2255 38.0811 71.2351 38.1075C71.2439 38.1325 71.2534 38.1569 71.2612 38.1821C71.2693 38.209 71.2753 38.2363 71.282 38.2634C71.2882 38.2888 71.2957 38.3144 71.3007 38.3404C71.307 38.3717 71.3112 38.4038 71.3153 38.4357C71.3184 38.4577 71.3226 38.4794 71.3249 38.5017C71.3358 38.6114 71.3358 38.722 71.3249 38.8317C71.3228 38.854 71.3184 38.8757 71.3153 38.8977C71.3112 38.9296 71.307 38.9615 71.3007 38.9929C71.2957 39.019 71.2882 39.0444 71.282 39.07C71.2753 39.0971 71.2693 39.1244 71.2612 39.1513C71.2534 39.1765 71.2439 39.2009 71.2351 39.2259C71.2255 39.2523 71.2168 39.279 71.2059 39.305C71.1966 39.3279 71.1851 39.35 71.1747 39.3725C71.1622 39.3996 71.1501 39.4267 71.1359 39.4529C71.1247 39.474 71.1118 39.494 71.0995 39.5146C71.0841 39.5407 71.0693 39.5671 71.0522 39.5927C71.0372 39.615 71.0203 39.6361 71.0043 39.6577C70.988 39.6796 70.9726 39.7021 70.9551 39.7236C70.9252 39.7596 70.8938 39.7944 70.8609 39.8277C70.8555 39.8334 70.8507 39.8396 70.8451 39.8452L65.8451 44.8452C65.5326 45.1578 65.1086 45.3334 64.6666 45.3334C64.2245 45.3334 63.8006 45.1578 63.488 44.8452C63.1755 44.5327 62.9999 44.1087 62.9999 43.6667C62.9999 43.2246 63.1755 42.8007 63.488 42.4881L65.6428 40.3334H43C39.9068 40.3368 36.9414 41.5671 34.7542 43.7543C32.5671 45.9414 31.3368 48.9069 31.3333 52C31.3333 52.442 31.1577 52.8659 30.8452 53.1785C30.5326 53.4911 30.1087 53.6667 29.6667 53.6667C29.2246 53.6667 28.8007 53.4911 28.4882 53.1785C28.1756 52.8659 28 52.442 28 52ZM69.6666 50.3333C69.2245 50.3333 68.8006 50.5089 68.4881 50.8215C68.1755 51.1341 67.9999 51.558 67.9999 52C67.9964 55.0931 66.7662 58.0586 64.579 60.2457C62.3918 62.4329 59.4264 63.6632 56.3333 63.6666H33.6904L35.8452 61.5119C36 61.3571 36.1227 61.1734 36.2065 60.9711C36.2902 60.7689 36.3334 60.5522 36.3334 60.3333C36.3334 60.1144 36.2902 59.8977 36.2065 59.6955C36.1227 59.4933 36 59.3095 35.8452 59.1548C35.6904 59 35.5067 58.8772 35.3045 58.7935C35.1023 58.7097 34.8855 58.6666 34.6667 58.6666C34.4478 58.6666 34.231 58.7097 34.0288 58.7935C33.8266 58.8772 33.6429 59 33.4881 59.1548L28.4881 64.1548C28.4831 64.1598 28.479 64.1654 28.474 64.1704C28.4406 64.2046 28.4083 64.2396 28.3781 64.2766C28.3606 64.2979 28.3452 64.3204 28.329 64.3423C28.3129 64.3639 28.296 64.385 28.281 64.4073C28.264 64.4329 28.2492 64.4593 28.2337 64.4854C28.2215 64.506 28.2087 64.5258 28.1973 64.5471C28.1831 64.5735 28.171 64.6006 28.1585 64.6275C28.1481 64.65 28.1367 64.6718 28.1273 64.695C28.1165 64.721 28.1077 64.7477 28.0981 64.7741C28.0894 64.7991 28.0798 64.8235 28.0721 64.8487C28.064 64.8756 28.0579 64.9029 28.0512 64.93C28.045 64.9554 28.0375 64.981 28.0325 65.0071C28.0262 65.0383 28.0221 65.0704 28.0179 65.1023C28.0148 65.1243 28.0106 65.146 28.0083 65.1683C27.9974 65.278 27.9974 65.3886 28.0083 65.4983C28.0104 65.5206 28.0148 65.5423 28.0179 65.5643C28.0221 65.5962 28.0262 65.6281 28.0325 65.6595C28.0375 65.6856 28.045 65.711 28.0512 65.7366C28.0579 65.7637 28.064 65.791 28.0721 65.8179C28.0798 65.8431 28.0894 65.8675 28.0981 65.8925C28.1077 65.9189 28.1165 65.9456 28.1273 65.9716C28.1367 65.9945 28.1481 66.0166 28.1585 66.0391C28.171 66.0662 28.1831 66.0933 28.1973 66.1195C28.2085 66.1406 28.2215 66.1606 28.2337 66.1812C28.2492 66.2073 28.264 66.2337 28.281 66.2593C28.296 66.2816 28.3129 66.3027 28.329 66.3243C28.3452 66.3462 28.3606 66.3687 28.3781 66.3902C28.4079 66.4264 28.4396 66.4608 28.4723 66.4943C28.4777 66.5 28.4825 66.5062 28.4881 66.5118L33.4881 71.5118C33.8007 71.8244 34.2246 72 34.6667 72C35.1087 72 35.5326 71.8244 35.8452 71.5118C36.1578 71.1993 36.3334 70.7753 36.3334 70.3333C36.3334 69.8913 36.1578 69.4673 35.8452 69.1548L33.6904 67H56.3333C60.3101 66.9955 64.1228 65.4137 66.9349 62.6016C69.747 59.7896 71.3288 55.9769 71.3332 52C71.3332 51.558 71.1576 51.1341 70.8451 50.8215C70.5325 50.5089 70.1086 50.3333 69.6666 50.3333ZM50.5 58.6667C50.942 58.6667 51.3659 58.4911 51.6785 58.1785C51.991 57.8659 52.1666 57.442 52.1666 57V47C52.1666 46.716 52.094 46.4366 51.9557 46.1885C51.8175 45.9404 51.618 45.7318 51.3765 45.5824C51.1349 45.433 50.8591 45.3479 50.5753 45.335C50.2916 45.3222 50.0093 45.382 49.7552 45.509L46.4218 47.1742C46.03 47.3738 45.7328 47.7202 45.5952 48.1378C45.4577 48.5555 45.4907 49.0107 45.6873 49.4041C45.8838 49.7975 46.2278 50.0973 46.6445 50.2382C47.0611 50.379 47.5165 50.3495 47.9114 50.156L48.8333 49.6956V57C48.8333 57.442 49.0089 57.8659 49.3214 58.1785C49.634 58.4911 50.0579 58.6667 50.5 58.6667Z" fill="white"/>
</svg>
