<svg width="49" height="67" viewBox="0 0 49 67" fill="none" xmlns="http://www.w3.org/2000/svg">
<path d="M47.3025 63.8034H39.2595C41.8072 55.9946 43.5364 44.6233 38.8248 32.3759C35.5286 23.8047 30.2139 17.5911 24.9715 13.2007H27.5015C28.1091 13.2007 28.6016 12.7081 28.6016 12.1007C28.6016 11.4931 28.109 11.0007 27.5015 11.0007H22.1531C17.5992 7.68528 13.4032 5.72297 11.0007 4.75225V1.10002C11.0007 0.492448 10.5081 0 9.90066 0C9.29309 0 8.80064 0.492577 8.80064 1.10002V11.0005H5.50046C4.8929 11.0005 4.40045 11.4931 4.40045 12.1006C4.40045 12.7081 4.89303 13.2006 5.50046 13.2006H8.80064V63.8032H1.10002C0.492449 63.8032 0 64.2958 0 64.9032C0 65.5107 0.492578 66.0035 1.10002 66.0035H37.7179C37.7189 66.0035 37.72 66.004 37.721 66.004C37.7222 66.004 37.7233 66.0035 37.7245 66.0035H47.3025C47.91 66.0035 48.4025 65.5109 48.4025 64.9035C48.4025 64.2961 47.91 63.8034 47.3025 63.8034ZM36.9346 63.8034H11.0005V7.13457C16.9144 9.67132 30.5828 17.0742 36.7713 33.1656C41.3944 45.1839 39.4887 56.3353 36.9346 63.8034Z" fill="#00ADEE"/>
<path d="M14.3008 28.6016H30.2845C30.6841 28.6016 31.0521 28.3851 31.2459 28.0354C31.4403 27.6863 31.4296 27.2592 31.218 26.9198C26.3456 19.0963 19.6249 14.2144 14.8443 11.4964C14.5037 11.3019 14.0859 11.3052 13.7475 11.5018C13.4091 11.6984 13.2007 12.061 13.2007 12.4525V27.5016C13.2008 28.109 13.6934 28.6016 14.3008 28.6016ZM15.4008 14.3877C19.3853 16.8704 24.3006 20.7481 28.2416 26.4014H15.4008V14.3877Z" fill="#FFC700"/>
<path d="M37.4015 47.3046C37.4015 47.3039 37.4019 47.3032 37.4019 47.3025C37.4019 47.3016 37.4014 47.3009 37.4014 47.3C37.2768 42.7499 36.3867 38.2953 34.7258 33.9712L34.6269 33.7182C34.4663 33.2874 34.0555 33.0017 33.5956 33.0017H14.3007C13.6931 33.0017 13.2007 33.4943 13.2007 34.1018V60.5032C13.2007 61.1107 13.6933 61.6032 14.3007 61.6032H34.5309C35.0197 61.6032 35.4499 61.2804 35.587 60.8109C36.9202 56.239 37.5222 51.7268 37.4015 47.3046ZM15.4007 35.2019H32.8384C33.3753 36.6523 33.7913 38.1226 34.1465 39.6021H15.4007V35.2019ZM15.4007 41.8022H34.6134C34.872 43.2568 35.0423 44.7241 35.1283 46.2024H15.4007V41.8022ZM33.6984 59.4031H15.4007V55.0029H34.6361C34.3937 56.4629 34.1006 57.928 33.6984 59.4031ZM34.9577 52.8028H15.4007V48.4026H35.1872C35.1878 49.8602 35.1226 51.3258 34.9577 52.8028Z" fill="#00ADEE"/>
</svg>
