<svg width="54" height="54" viewBox="0 0 54 54" fill="none" xmlns="http://www.w3.org/2000/svg">
<g clip-path="url(#clip0)">
<path d="M49.67 20.2683L46.1972 16.794V9.90933C46.1972 7.58286 44.3045 5.69012 41.978 5.69012H35.1007L29.724 0.310322C29.5263 0.112547 29.258 0.00126576 28.9783 0.00116028L25.0489 0C24.7692 0 24.5007 0.111071 24.3029 0.30874L18.9181 5.69023H12.0216C9.69517 5.69023 7.80244 7.58296 7.80244 9.90943V16.8051L4.33193 20.2676C3.30509 21.2939 2.7395 22.6587 2.7395 24.1106V48.5667C2.7395 50.0303 3.32217 51.3594 4.26643 52.3373C4.28679 52.3617 4.30799 52.3856 4.33088 52.4086C4.35366 52.4314 4.3775 52.4524 4.40176 52.4726C5.37967 53.4171 6.70903 54 8.17278 54H32.2533C32.8359 54 33.3081 53.5277 33.3081 52.9452C33.3081 52.3627 32.8359 51.8904 32.2533 51.8904H8.17268C7.64032 51.8904 7.13728 51.7639 6.69068 51.5404L19.1235 39.1076L23.1712 43.1529C24.1973 44.1784 25.5612 44.7431 27.0118 44.7431H27.0135C28.4648 44.7426 29.829 44.1771 30.8549 43.1505L34.8857 39.1172L47.3089 51.5404C46.8624 51.7638 46.3593 51.8904 45.827 51.8904H31.7465C31.164 51.8904 30.6917 52.3627 30.6917 52.9452C30.6917 53.5277 31.164 54 31.7465 54H45.8272C47.2907 54 48.6201 53.4172 49.598 52.4729C49.6223 52.4525 49.6463 52.4314 49.6691 52.4086C49.6921 52.3856 49.7132 52.3617 49.7336 52.3372C50.6778 51.3593 51.2604 50.0302 51.2604 48.5667V24.1091C51.2603 22.6585 50.6956 21.2945 49.67 20.2683ZM46.1973 19.778L48.1779 21.7596C48.3608 21.9426 48.5189 22.1436 48.6523 22.358L46.1973 24.8146V19.778ZM25.4851 2.10971L28.5408 2.11076L32.118 5.69023H21.9024L25.4851 2.10971ZM5.82258 21.7604L7.80255 19.785V24.8111L5.34813 22.3583C5.48156 22.1441 5.63978 21.9431 5.82258 21.7604ZM5.19898 50.0487C4.97557 49.6022 4.8491 49.0992 4.8491 48.5668V24.8419L17.6314 37.6163L5.19898 50.0487ZM29.3629 41.6594C28.7353 42.2873 27.9008 42.6332 27.013 42.6335C26.1256 42.6335 25.2903 42.288 24.6626 41.6606L9.91215 26.9194V9.90933C9.91215 8.74609 10.8585 7.79972 12.0217 7.79972H41.9781C43.1413 7.79972 44.0877 8.74609 44.0877 9.90933V17.0961C44.0777 17.18 44.0777 17.2646 44.0877 17.3484V26.9254L29.3629 41.6594ZM49.1507 48.5668C49.1507 49.0992 49.0243 49.6022 48.8009 50.0487L36.3772 37.6251L49.1507 24.8437V48.5668Z" fill="#00ADEE"/>
<path d="M26.9999 12.2234C21.5084 12.2234 17.0408 16.6909 17.0408 22.1824C17.0408 27.749 21.5696 32.2778 27.1362 32.2778H33.5471C34.1297 32.2778 34.6019 31.8054 34.6019 31.223C34.6019 30.6405 34.1297 30.1682 33.5471 30.1682H27.1362C22.7328 30.1682 19.1504 26.5857 19.1504 22.1824C19.1504 17.8542 22.6716 14.333 26.9999 14.333C31.3281 14.333 34.8494 17.8542 34.8494 22.1824V24.344C34.8494 25.1747 34.1735 25.8505 33.3427 25.8505C32.5119 25.8505 31.836 25.1747 31.836 24.344V21.9024C31.836 19.0145 29.4866 16.665 26.5986 16.665C23.5619 16.665 21.0914 19.1356 21.0914 22.1723C21.0914 25.209 23.562 27.6796 26.5986 27.6796H28.2766C28.8592 27.6796 29.3314 27.2072 29.3314 26.6248C29.3314 26.0423 28.8592 25.57 28.2766 25.57H26.5986C24.7252 25.57 23.201 24.0458 23.201 22.1722C23.201 20.2988 24.7252 18.7746 26.5986 18.7746C28.3233 18.7746 29.7264 20.1778 29.7264 21.9024V24.344C29.7264 26.338 31.3486 27.9601 33.3427 27.9601C35.3368 27.9601 36.959 26.338 36.959 24.344V22.1824C36.9589 16.6909 32.4913 12.2234 26.9999 12.2234Z" fill="#FFC700"/>
<path d="M4 22.5L24.6399 42.7008C26.2193 44.2465 28.7528 44.2187 30.2978 42.6386L49.5 23" stroke="#FFC700" stroke-width="2.2" stroke-linecap="round" stroke-linejoin="round"/>
</g>
<defs>
<clipPath id="clip0">
<rect width="54" height="54" fill="white"/>
</clipPath>
</defs>
</svg>
