<svg width="166" height="147" viewBox="0 0 166 147" fill="none" xmlns="http://www.w3.org/2000/svg">
<path d="M48.5121 72.7821C48.3813 72.8455 48.2557 72.9192 48.1364 73.0023L36.0004 68.2584L35.5194 65.1296L30.7026 65.2385L31.016 70.8601C31.0413 71.3142 31.2132 71.7479 31.506 72.096C31.7988 72.4441 32.1966 72.6879 32.6396 72.7907L47.0805 76.1407C47.2568 76.6723 47.5909 77.1375 48.0382 77.4746C48.4854 77.8117 49.0247 78.0047 49.5843 78.0278C50.1439 78.0509 50.6973 77.9031 51.1708 77.6041C51.6444 77.305 52.0157 76.8689 52.2353 76.3536C52.4549 75.8384 52.5125 75.2686 52.4003 74.7198C52.2882 74.1711 52.0116 73.6695 51.6074 73.2818C51.2033 72.8941 50.6906 72.6386 50.1377 72.5493C49.5848 72.4601 49.0178 72.5413 48.5121 72.7821H48.5121Z" fill="#9F616A"/>
<path d="M30.2906 143.469L33.5118 143.469L35.0441 131.044L30.29 131.044L30.2906 143.469Z" fill="#9F616A"/>
<path d="M29.4688 142.417L35.8124 142.417H35.8127C36.8848 142.417 37.913 142.843 38.6712 143.601C39.4293 144.359 39.8553 145.387 39.8553 146.46V146.591L29.4689 146.591L29.4688 142.417Z" fill="#2F2E41"/>
<path d="M14.7891 143.469L18.0103 143.469L19.5426 131.044L14.7886 131.044L14.7891 143.469Z" fill="#9F616A"/>
<path d="M13.9668 142.417L20.3104 142.417H20.3107C21.3829 142.417 22.4111 142.843 23.1692 143.601C23.9274 144.359 24.3533 145.387 24.3534 146.46V146.591L13.967 146.591L13.9668 142.417Z" fill="#2F2E41"/>
<path d="M16.6569 48.7415C15.7395 44.9538 14.9623 40.6816 16.6924 37.193C17.8928 34.7724 22.3336 33.9573 24.8792 34.8293C27.4249 35.7014 29.2654 38.0672 30.0749 40.6468C30.8843 43.2264 30.7903 46.006 30.4375 48.6876C25.7557 48.5977 21.0739 48.5078 16.6569 48.7415Z" fill="#2F2E41"/>
<path d="M24.5571 48.7406C27.5723 48.7406 30.0166 46.2963 30.0166 43.2811C30.0166 40.2659 27.5723 37.8217 24.5571 37.8217C21.5419 37.8217 19.0977 40.2659 19.0977 43.2811C19.0977 46.2963 21.5419 48.7406 24.5571 48.7406Z" fill="#9F616A"/>
<path d="M22 51L22.5 48L26 48.5L26.5 51.5L22 51Z" fill="#9F616A"/>
<path d="M17.8835 42.1565C17.8662 41.2376 18.0337 40.3247 18.3761 39.4718C18.7186 38.619 19.229 37.8437 19.877 37.192C20.5249 36.5403 21.2973 36.0255 22.1482 35.6782C22.9991 35.3309 23.9111 35.1582 24.83 35.1703C25.7489 35.1824 26.6561 35.3791 27.4975 35.7487C28.3389 36.1183 29.0974 36.6533 29.728 37.3219C30.3586 37.9904 30.8484 38.7789 31.1682 39.6405C31.488 40.502 31.6314 41.4191 31.5899 42.3372C26.917 42.3471 22.2441 42.357 17.8835 42.1565Z" fill="#2F2E41"/>
<path d="M20.0265 68.8822L17.7432 72.6876C17.7432 72.6876 11.4902 84.4152 11.8621 94.1364L13.2459 106.245L11.7273 109.216L12.7438 114.444L10.856 118.189L14.2686 136.268L14.4138 140.189H19.932L19.6416 136.195L21.9651 118.582L25.8859 99.7767L27.919 116.01L27.1929 120.076L28.1368 123.489L29.4437 134.017L29.589 139.1L34.5989 139.681L36.4868 120.875L37.5759 111.902L31.739 72.1185L20.0265 68.8822Z" fill="#2F2E41"/>
<path d="M19.302 50.5079L15.9028 51.9516L13.9937 59.8529L18.0134 70.1473L16.5106 75.2909C21.0595 83.0721 26.6898 84.2026 33.3152 79.2126C31.913 75.2757 32.1156 71.2275 33.5129 67.0966C33.5129 67.0966 36.9982 63.8511 34.5635 59.6317L32.2411 53.328L29.3658 51.8903L19.302 50.5079Z" fill="#CBCBCB"/>
<path d="M31.5713 54.7023L32.343 53.2692C32.343 53.2692 34.378 53.5752 35.2092 56.0251C36.0403 58.475 36.2564 68.3718 36.2564 68.3718L31.902 68.5923L31.5713 54.7023Z" fill="#CBCBCB"/>
<path d="M14.5131 88.2926C14.8826 88.1088 15.2072 87.8462 15.4641 87.5233C15.7211 87.2004 15.9041 86.8251 16.0004 86.4239C16.0966 86.0226 16.1037 85.6051 16.0211 85.2008C15.9385 84.7965 15.7683 84.4153 15.5225 84.0839L17.6331 63.4481H13.0718L11.3945 83.5979C10.8652 84.0478 10.5192 84.6763 10.4223 85.3642C10.3254 86.0522 10.4841 86.7517 10.8686 87.3304C11.253 87.9091 11.8363 88.3267 12.508 88.504C13.1797 88.6814 13.8932 88.6061 14.5131 88.2926Z" fill="#9F616A"/>
<path d="M18.6807 54.2855L17.0823 52.0256C17.0823 52.0256 14.2712 50.1199 12.8381 54.506C11.405 58.8922 11.6255 67.0181 11.6255 67.0181L17.0823 69.2779L18.6807 54.2855Z" fill="#CBCBCB"/>
<path d="M113.977 20.6212H88.7539V34.8093H113.977V20.6212Z" fill="#F1F1F1"/>
<path d="M166 9.58594H140.777V23.774H166V9.58594Z" fill="#F1F1F1"/>
<path d="M158.118 46.3699H132.895V60.5579H158.118V46.3699Z" fill="#F1F1F1"/>
<path d="M148.659 0.915527H123.436V15.1036H148.659V0.915527Z" fill="#E5E5E5"/>
<path d="M149.447 27.0748H107.934V50.426H149.447V27.0748Z" fill="#00ADEE"/>
<path d="M65.5469 64.9087H109.089V46.1991H109.769V65.5892H65.5469V64.9087Z" fill="#3F3D56"/>
<path d="M109.429 53.0827C111.496 53.0827 113.171 51.4074 113.171 49.3408C113.171 47.2742 111.496 45.5989 109.429 45.5989C107.362 45.5989 105.687 47.2742 105.687 49.3408C105.687 51.4074 107.362 53.0827 109.429 53.0827Z" fill="#3F3D56"/>
<path d="M76.2435 71.6128H55.833V72.2931H76.2435V71.6128Z" fill="#FB4B00"/>
<path d="M76.2435 73.6538H55.833V74.3342H76.2435V73.6538Z" fill="#FB4B00"/>
<path d="M76.2435 75.6948H55.833V76.3752H76.2435V75.6948Z" fill="#FB4B00"/>
<path d="M53.8621 147H0.262742C0.193058 147 0.126229 146.972 0.0769551 146.923C0.0276815 146.874 0 146.807 0 146.737C0 146.668 0.0276815 146.601 0.0769551 146.552C0.126229 146.502 0.193058 146.475 0.262742 146.475H53.8621C53.9318 146.475 53.9986 146.502 54.0479 146.552C54.0971 146.601 54.1248 146.668 54.1248 146.737C54.1248 146.807 54.0971 146.874 54.0479 146.923C53.9986 146.972 53.9318 147 53.8621 147Z" fill="#CBCBCB"/>
</svg>
