<svg width="64" height="64" viewBox="0 0 64 64" fill="none" xmlns="http://www.w3.org/2000/svg">
<path d="M17.925 56.2401L16.2588 52.7635C16.1825 52.6041 16.0628 52.4697 15.9132 52.3756L15.8921 52.3622C15.6035 52.1802 15.2387 52.1697 14.9397 52.3346C13.6546 53.0435 12.7198 53.7238 12.0976 54.2371L8.88393 48.0988C8.76055 47.8632 8.5428 47.6909 8.28493 47.6252C8.02743 47.5596 7.75355 47.6066 7.53242 47.7546L0.415893 52.5175C0.144017 52.6996 -0.0133585 53.0102 0.000891516 53.3371C0.0151416 53.664 0.198767 53.9597 0.485644 54.1176L5.72879 57.0014V62.7933C5.72879 63.1296 5.90917 63.4403 6.20129 63.6071C6.34542 63.6894 6.50567 63.7305 6.66605 63.7305C6.8308 63.7305 6.99567 63.687 7.14255 63.6003L17.5563 57.4524C17.975 57.205 18.1351 56.6787 17.925 56.2401Z" fill="#B73235"/>
<path d="M63.5842 52.5173L56.4676 47.7544C56.2465 47.6063 55.9727 47.5594 55.7151 47.625C55.4572 47.6907 55.2394 47.8628 55.1161 48.0987L51.9025 54.2369C51.2802 53.7237 50.3453 53.0433 49.0602 52.3344C48.7615 52.1694 48.3967 52.1801 48.1078 52.3621L48.0867 52.3754C47.9372 52.4697 47.8176 52.6041 47.7411 52.7633L46.0751 56.2399C45.865 56.6784 46.0251 57.2048 46.4438 57.4521L56.8575 63.6C57.0044 63.6867 57.169 63.7302 57.334 63.7302C57.4943 63.7302 57.6546 63.6891 57.7988 63.6069C58.0909 63.44 58.2713 63.1294 58.2713 62.793V57.0011L63.5144 54.1173C63.8012 53.9596 63.9849 53.6638 63.9992 53.3368C64.0134 53.0099 63.8562 52.6993 63.5842 52.5173Z" fill="#B73235"/>
<path d="M17.925 56.24L16.2589 52.7633C16.1086 52.4499 15.7927 52.2452 15.4453 52.2317C15.4453 52.2317 15.4173 52.2306 15.3696 52.2306C15.2107 52.2306 15.0548 52.2709 14.9158 52.3478C12.3368 53.7746 11.1771 55.0826 11.1288 55.1376C10.9055 55.3929 10.8375 55.7492 10.9512 56.0691C11.065 56.3888 11.3427 56.6221 11.6773 56.6787L16.9227 57.5691C16.9751 57.578 17.0276 57.5823 17.0797 57.5823C17.3707 57.5823 17.6492 57.4465 17.8279 57.2093C18.039 56.9296 18.0762 56.5558 17.925 56.24Z" fill="#8C1E23"/>
<path d="M52.871 55.1376C52.8227 55.0826 51.663 53.7747 49.084 52.3478C48.9451 52.2709 48.7891 52.2306 48.6302 52.2306C48.5829 52.2306 48.5547 52.2317 48.5547 52.2317C48.2074 52.2449 47.8912 52.4497 47.741 52.7633L46.075 56.2399C45.9236 56.5557 45.961 56.9296 46.1718 57.2092C46.3507 57.4463 46.629 57.5822 46.92 57.5822C46.9721 57.5822 47.0246 57.5778 47.077 57.569L52.3222 56.6786C52.6569 56.6218 52.9345 56.3886 53.0484 56.069C53.1624 55.7492 53.0944 55.3928 52.871 55.1376Z" fill="#8C1E23"/>
<path d="M13.8088 41.1788C13.5845 40.7156 13.0287 40.5199 12.5635 40.7404C8.01027 42.8997 6.03501 45.1783 5.95326 45.274C5.70488 45.5652 5.65851 45.978 5.83576 46.317L11.0042 56.1893C11.147 56.4621 11.4159 56.6458 11.7214 56.6835C11.7594 56.6881 11.7972 56.6903 11.8349 56.6903C12.1012 56.6903 12.3583 56.576 12.5374 56.3746C12.5428 56.3686 13.0863 55.7635 14.2593 54.9531C15.3433 54.2042 17.2018 53.1222 19.9002 52.2196C20.2038 52.1179 20.4344 51.8686 20.5121 51.5582C20.5897 51.2477 20.5036 50.9191 20.2836 50.6866C17.7406 47.9991 15.5619 44.8003 13.8088 41.1788Z" fill="#FB4B00"/>
<path d="M58.0479 45.2739C57.9661 45.1779 55.9908 42.8995 51.4377 40.7402C50.9725 40.5197 50.417 40.7154 50.1926 41.1786C48.4391 44.8004 46.2605 47.9993 43.7174 50.6863C43.4974 50.9187 43.4113 51.2474 43.4889 51.5579C43.5667 51.8684 43.7973 52.1179 44.1008 52.2193C46.7992 53.122 48.6577 54.204 49.7417 54.9528C50.9149 55.7632 51.4582 56.3683 51.4611 56.3713C51.6402 56.5762 51.898 56.6917 52.1666 56.6917C52.2034 56.6917 52.2402 56.6896 52.2771 56.6852C52.5842 56.6487 52.8537 56.4633 52.9971 56.1892L58.1655 46.3169C58.3426 45.978 58.2963 45.5651 58.0479 45.2739Z" fill="#E93234"/>
<path d="M58.0479 45.2739C57.9661 45.1779 55.9908 42.8995 51.4377 40.7402C50.9725 40.5197 50.417 40.7154 50.1926 41.1786C48.4391 44.8004 46.2605 47.9993 43.7174 50.6863C43.4974 50.9187 43.4113 51.2474 43.4889 51.5579C43.5667 51.8684 43.7973 52.1179 44.1008 52.2193C46.7992 53.122 48.6577 54.204 49.7417 54.9528C50.9149 55.7632 51.4582 56.3683 51.4611 56.3713C51.6402 56.5762 51.898 56.6917 52.1666 56.6917C52.2034 56.6917 52.2402 56.6896 52.2771 56.6852C52.5842 56.6487 52.8537 56.4633 52.9971 56.1892L58.1655 46.3169C58.3426 45.978 58.2963 45.5651 58.0479 45.2739Z" fill="#FB4B00"/>
<path d="M43.4885 51.5579C43.4108 51.2474 43.497 50.9188 43.717 50.6863C46.2602 47.9989 48.4389 44.8001 50.1919 41.1786C50.4161 40.7155 50.972 40.5197 51.4371 40.7402C52.6466 41.3138 53.6725 41.8955 54.531 42.4427C53.5848 44.3431 52.5304 46.1281 51.3667 47.7866C49.963 49.7874 48.402 51.6068 46.6901 53.2404C45.9332 52.8928 45.0721 52.5444 44.1003 52.2194C43.797 52.1179 43.5662 51.8683 43.4885 51.5579Z" fill="#B73235"/>
<path d="M20.5123 51.5579C20.5899 51.2474 20.5038 50.9188 20.2838 50.6863C17.7406 47.9989 15.5619 44.8001 13.8089 41.1786C13.5846 40.7155 13.0287 40.5197 12.5636 40.7402C11.3541 41.3138 10.3282 41.8955 9.46973 42.4427C10.4161 44.3431 11.4704 46.1281 12.6341 47.7866C14.0379 49.7874 15.5989 51.6068 17.3108 53.2404C18.0676 52.8928 18.9288 52.5444 19.9005 52.2194C20.2039 52.1179 20.4345 51.8683 20.5123 51.5579Z" fill="#B73235"/>
<path d="M57.2792 10.3687C57.2337 9.9271 56.8847 9.57798 56.4431 9.53248C48.9836 8.76297 42.9037 6.27521 39.117 4.32396C35.0008 2.20282 32.6244 0.237188 32.6014 0.218063C32.2534 -0.0726878 31.7471 -0.0726878 31.3991 0.218063C31.3056 0.296314 21.8783 8.05522 7.5574 9.5326C7.11577 9.57823 6.76677 9.92723 6.72127 10.3689C6.68077 10.7629 5.75714 20.1449 8.31803 31.0713C9.82866 37.5162 12.2477 43.1402 15.5079 47.7868C19.6036 53.6242 25.036 57.9188 31.6538 60.5513C31.7651 60.5956 31.8825 60.6177 32.0001 60.6177C32.1178 60.6177 32.2353 60.5956 32.3465 60.5513C38.9643 57.9188 44.3967 53.6242 48.4923 47.7868C51.7527 43.1401 54.1716 37.5163 55.6822 31.0713C58.2434 20.1448 57.3196 10.7627 57.2792 10.3687Z" fill="#00ADEE"/>
<path d="M51.4791 15.096C51.4336 14.6544 51.0846 14.3052 50.643 14.2597C39.8308 13.1444 32.6715 7.27345 32.6011 7.21483C32.2531 6.92408 31.7469 6.92408 31.3989 7.21483C31.3283 7.27395 24.1992 13.1412 13.3571 14.2597C12.9154 14.3054 12.5664 14.6544 12.5209 15.096C12.4899 15.3976 11.7827 22.581 13.7421 30.9406C14.8993 35.8781 16.7538 40.1882 19.2537 43.7515C22.3992 48.2344 26.5712 51.5328 31.6535 53.5545C31.7649 53.5988 31.8823 53.6209 31.9999 53.6209C32.1175 53.6209 32.235 53.5988 32.3463 53.5545C37.4288 51.5328 41.6007 48.2345 44.7461 43.7515C47.2462 40.1882 49.1006 35.8781 50.2577 30.9406C52.2174 22.5808 51.5101 15.3976 51.4791 15.096Z" fill="#EDE9E8"/>
<path d="M29.2891 38.3486C28.6203 38.3486 27.9788 38.083 27.506 37.6101L21.7703 31.8745C20.7855 30.8897 20.7855 29.293 21.7703 28.3081C22.7551 27.3233 24.3517 27.3233 25.3366 28.3081L29.2891 32.2606L38.9771 22.5726C39.9619 21.5878 41.5585 21.5877 42.5434 22.5724C43.5281 23.5572 43.5281 25.1539 42.5434 26.1388L31.0722 37.6099C30.5995 38.0829 29.9578 38.3486 29.2891 38.3486Z" fill="#164600"/>
</svg>
