<svg width="60" height="44" viewBox="0 0 60 44" fill="none" xmlns="http://www.w3.org/2000/svg">
<path d="M45.9945 15.5137L29.8394 28.9662L46.0219 39.736V15.8169C46.0219 15.7135 46.0112 15.6126 45.9945 15.5137Z" fill="#FFC700"/>
<path d="M28.3828 30.1791L26.3463 31.8749C25.3895 32.6716 24.2168 33.0699 23.0441 33.0699C21.8714 33.0699 20.6985 32.6716 19.7419 31.8749L17.7054 30.1791L0.065918 41.9184V42.1603C0.065918 43.162 0.881011 43.9771 1.8828 43.9771H44.2051C45.2069 43.9771 46.0219 43.162 46.0219 42.1603V41.9184L28.3828 30.1791Z" fill="#FFC700"/>
<path d="M44.2118 14C44.2095 14 44.2073 14 44.2051 14H1.88277C1.88053 14 1.87838 14 1.87613 14C1.6196 14.001 1.50857 14.3278 1.70568 14.492L18.3361 28.3402C18.3381 28.3418 18.3401 28.3435 18.3421 28.3451L20.9044 30.4788C22.1441 31.5112 23.9439 31.5112 25.1836 30.4788L44.3822 14.492C44.5793 14.3277 44.4682 14.0009 44.2118 14Z" fill="#D7A906"/>
<path d="M0.0932942 15.5137C0.0765992 15.6126 0.065918 15.7134 0.065918 15.8169V39.736L16.2485 28.9661L0.0932942 15.5137Z" fill="#FFC700"/>
<path d="M42 17L48.5 4L51.5 3.5L57.5 17L50 18L42 17Z" fill="white"/>
<path d="M40.4059 15.0235L47.4788 2.00253C48.0126 1.10386 48.9555 0.567139 50.0008 0.567139C51.0461 0.567139 51.9889 1.10386 52.5227 2.00253C52.5267 2.0094 52.5301 2.01628 52.5342 2.02315L59.5835 15.003C60.1288 15.9206 60.1391 17.0226 59.6116 17.9505C59.0829 18.879 58.1304 19.4328 57.0622 19.4328H42.9784C41.9102 19.4328 40.9185 18.879 40.3899 17.9505C39.8624 17.0226 39.8726 15.9205 40.4059 15.0235ZM51.1738 6.52921C51.1738 5.88132 50.6486 5.35616 50.0008 5.35616C49.3529 5.35616 48.8277 5.88136 48.8277 6.52921V11.2214C48.8277 11.8692 49.3529 12.3945 50.0008 12.3945C50.6486 12.3945 51.1738 11.8692 51.1738 11.2214V6.52921ZM50.0008 17.0867C50.971 17.0867 51.7604 16.2975 51.7604 15.3271C51.7604 14.3569 50.9711 13.5676 50.0008 13.5676C49.0305 13.5676 48.2412 14.3569 48.2412 15.3271C48.2412 16.2974 49.0305 17.0867 50.0008 17.0867Z" fill="#FB4B00"/>
</svg>
