<svg width="70" height="66" viewBox="0 0 70 66" fill="none" xmlns="http://www.w3.org/2000/svg">
<path d="M62.5 23.5H10L36 59.5L62.5 23.5Z" stroke="#164600" stroke-width="2" stroke-linecap="round"/>
<circle cx="8" cy="23" r="8" fill="#005676"/>
<circle cx="62" cy="23" r="8" fill="#00ADEE"/>
<circle cx="36" cy="58" r="8" fill="#FFC700"/>
<path d="M30 20H42C42 20 39 22.0785 39 23.5C39 24.9215 42 27 42 27H30C30 27 33 24.9215 33 23.5C33 22.0785 30 20 30 20Z" fill="white"/>
<path d="M26.4059 15.0236L33.4788 2.00256C34.0126 1.10389 34.9555 0.567169 36.0008 0.567169C37.0461 0.567169 37.9889 1.10389 38.5227 2.00256C38.5267 2.00943 38.5301 2.01631 38.5342 2.02318L45.5835 15.003C46.1288 15.9206 46.1391 17.0226 45.6116 17.9505C45.0829 18.879 44.1304 19.4329 43.0622 19.4329H28.9784C27.9102 19.4329 26.9185 18.879 26.3899 17.9505C25.8624 17.0226 25.8726 15.9206 26.4059 15.0236ZM37.1738 6.52924C37.1738 5.88135 36.6486 5.35619 36.0008 5.35619C35.3529 5.35619 34.8277 5.88139 34.8277 6.52924V11.2215C34.8277 11.8693 35.3529 12.3945 36.0008 12.3945C36.6486 12.3945 37.1738 11.8692 37.1738 11.2215V6.52924ZM36.0008 17.0868C36.971 17.0868 37.7604 16.2975 37.7604 15.3272C37.7604 14.3569 36.9711 13.5676 36.0008 13.5676C35.0305 13.5676 34.2412 14.3569 34.2412 15.3272C34.2412 16.2974 35.0305 17.0868 36.0008 17.0868Z" fill="#FB4B00"/>
</svg>
