<svg width="63" height="64" viewBox="0 0 63 64" fill="none" xmlns="http://www.w3.org/2000/svg">
<path fill-rule="evenodd" clip-rule="evenodd" d="M39.5775 21.2012L36.6202 21.2032C34.3012 21.2032 33.8515 22.3194 33.8515 23.9568V27.57H39.3831L38.6624 33.2304H33.8515V47.7505H28.0842V33.2304H23.2615V27.57H28.0842V23.3978C28.0842 18.5531 31.0042 15.9168 35.2673 15.9168C37.3095 15.9168 39.065 16.07 39.5775 16.1397V21.2012ZM31.4185 0C14.0676 0 0 14.2515 0 31.8337C0 49.4139 14.0676 63.6674 31.4185 63.6674C48.7713 63.6674 62.837 49.4139 62.837 31.8337C62.837 14.2515 48.7713 0 31.4185 0Z" fill="#00ADEE"/>
</svg>
