<svg width="69" height="60" viewBox="0 0 69 60" fill="none" xmlns="http://www.w3.org/2000/svg">
<path d="M66.5421 6.80579C64.4816 3.12938 60.5737 0.846802 56.3442 0.846802C54.3539 0.846802 52.3824 1.36253 50.6472 2.33774L28.7008 14.6569L31.2255 19.1566L53.173 6.83744C54.1436 6.29366 55.2404 6.00609 56.3478 6.00609C58.7111 6.00609 60.8931 7.27951 62.0437 9.33062C62.8937 10.8462 63.1019 12.6037 62.6294 14.2805C62.1593 15.9573 61.0648 17.3512 59.5493 18.2013L39.6552 29.3652C39.2763 26.941 38.1456 24.7053 36.3763 22.9349C33.2564 19.8185 28.3112 18.7159 24.1578 20.2068L22.3617 20.8534L24.1064 25.7063L25.9095 25.0631C28.2295 24.2188 30.9904 24.8479 32.7292 26.5833C33.7325 27.5877 34.3674 28.8599 34.5686 30.2387C34.4844 30.2188 34.4001 30.1977 34.3195 30.1744C32.6391 29.7019 31.2476 28.6063 30.3964 27.0849L29.4586 25.4279L24.9555 27.9584L25.8992 29.6153C27.424 32.3364 29.9171 34.3009 32.9246 35.1452C33.0286 35.1721 33.1339 35.2013 33.2392 35.2259C33.0802 35.427 32.9106 35.6188 32.7305 35.7989L16.2848 52.2458C15.0546 53.4747 13.4175 54.1506 11.6763 54.1506C9.9339 54.1506 8.29681 53.4747 7.06899 52.2458C5.84117 51.0168 5.16533 49.382 5.16533 47.6384C5.16533 45.896 5.84117 44.2603 7.06899 43.0324L21.3527 28.75L17.7032 25.1005L3.42078 39.3829C1.21502 41.5904 0 44.5221 0 47.6383C0 50.757 1.21502 53.6873 3.42034 55.8951C5.62697 58.1017 8.55733 59.3143 11.676 59.3143C14.7947 59.3143 17.7251 58.1017 19.9317 55.8951L36.381 39.4494C37.5854 38.2403 38.5115 36.7785 39.0916 35.1754C40.0446 34.9216 40.9508 34.5568 41.7928 34.0821L62.0752 22.7008C64.7905 21.1748 66.7525 18.6806 67.5957 15.6766C68.4398 12.6713 68.0657 9.5198 66.5421 6.80579Z" fill="#00ADEE"/>
<mask id="mask0" mask-type="alpha" maskUnits="userSpaceOnUse" x="0" y="0" width="69" height="60">
<path d="M66.5421 6.80579C64.4816 3.12938 60.5737 0.846802 56.3442 0.846802C54.3539 0.846802 52.3824 1.36253 50.6472 2.33774L28.7008 14.6569L31.2255 19.1566L53.173 6.83744C54.1436 6.29366 55.2404 6.00609 56.3478 6.00609C58.7111 6.00609 60.8931 7.27951 62.0437 9.33062C62.8937 10.8462 63.1019 12.6037 62.6294 14.2805C62.1593 15.9573 61.0648 17.3512 59.5493 18.2013L39.6552 29.3652C39.2763 26.941 38.1456 24.7053 36.3763 22.9349C33.2564 19.8185 28.3112 18.7159 24.1578 20.2068L22.3617 20.8534L24.1064 25.7063L25.9095 25.0631C28.2295 24.2188 30.9904 24.8479 32.7292 26.5833C33.7325 27.5877 34.3674 28.8599 34.5686 30.2387C34.4844 30.2188 34.4001 30.1977 34.3195 30.1744C32.6391 29.7019 31.2476 28.6063 30.3964 27.0849L29.4586 25.4279L24.9555 27.9584L25.8992 29.6153C27.424 32.3364 29.9171 34.3009 32.9246 35.1452C33.0286 35.1721 33.1339 35.2013 33.2392 35.2259C33.0802 35.427 32.9106 35.6188 32.7305 35.7989L16.2848 52.2458C15.0546 53.4747 13.4175 54.1506 11.6763 54.1506C9.9339 54.1506 8.29681 53.4747 7.06899 52.2458C5.84117 51.0168 5.16533 49.382 5.16533 47.6384C5.16533 45.896 5.84117 44.2603 7.06899 43.0324L21.3527 28.75L17.7032 25.1005L3.42078 39.3829C1.21502 41.5904 0 44.5221 0 47.6383C0 50.757 1.21502 53.6873 3.42034 55.8951C5.62697 58.1017 8.55733 59.3143 11.676 59.3143C14.7947 59.3143 17.7251 58.1017 19.9317 55.8951L36.381 39.4494C37.5854 38.2403 38.5115 36.7785 39.0916 35.1754C40.0446 34.9216 40.9508 34.5568 41.7928 34.0821L62.0752 22.7008C64.7905 21.1748 66.7525 18.6806 67.5957 15.6766C68.4398 12.6713 68.0657 9.5198 66.5421 6.80579Z" fill="#FB4B00"/>
</mask>
<g mask="url(#mask0)">
<path d="M30 5L69 -3V35L22 35.5L26.5 31.5L24 26.5L29.5 25.5L34.5 30C34.5 30 35.9834 30.5739 37 30.5C38.0887 30.4209 39.5 29.5 39.5 29.5L40.5 23L27.5 18.5L30 5Z" fill="#FFC700"/>
</g>
<path d="M24.9118 16.0331C25.5595 15.9149 25.9923 15.2929 25.8742 14.6438L23.4138 0.985752C23.2957 0.335663 22.6712 -0.0970589 22.0234 0.018746C21.3745 0.136853 20.9406 0.75889 21.0587 1.41027L23.5202 15.0659C23.6372 15.7174 24.2605 16.1489 24.9118 16.0331Z" fill="#FFC700"/>
<path d="M6.2666 23.2269L19.9235 20.7642C20.5736 20.6461 21.0063 20.0241 20.8882 19.375C20.7701 18.7236 20.1481 18.2899 19.5001 18.408L5.84207 20.8718C5.19429 20.9865 4.76041 21.612 4.87852 22.2611C4.99432 22.9113 5.61881 23.3439 6.2666 23.2269Z" fill="#FFC700"/>
</svg>
