<svg width="64" height="64" viewBox="0 0 64 64" fill="none" xmlns="http://www.w3.org/2000/svg">
<path d="M32.2837 64C49.6357 64 63.7023 49.7476 63.7023 32.1663C63.7023 14.585 49.6357 0.332611 32.2837 0.332611C14.9318 0.332611 0.865234 14.585 0.865234 32.1663C0.865234 49.7476 14.9318 64 32.2837 64Z" fill="#00ADEE"/>
<circle cx="32.9829" cy="27.9686" r="23.1545" fill="white"/>
<path d="M32.98 4.81412C20.1958 4.81412 9.82837 15.2221 9.82837 28.0612C9.82837 38.3302 16.4621 47.0421 25.666 50.1188C26.8238 50.333 27.2463 49.6152 27.2463 48.9987C27.2463 48.4459 27.2261 46.9842 27.2145 45.0451C20.7747 46.4488 19.4143 41.9279 19.4143 41.9279C18.3637 39.242 16.8442 38.5271 16.8442 38.5271C14.74 37.0857 17.0005 37.1146 17.0005 37.1146C19.3246 37.2796 20.546 39.5111 20.546 39.5111C22.6125 43.0625 25.9671 42.0379 27.2869 41.4416C27.4952 39.9395 28.0944 38.9149 28.7572 38.3331C23.6169 37.7456 18.2103 35.7514 18.2103 26.8456C18.2103 24.3073 19.1133 22.2321 20.5952 20.6055C20.355 20.0179 19.5619 17.6533 20.821 14.4551C20.821 14.4551 22.7659 13.8299 27.1885 16.8371C29.035 16.3219 31.0147 16.0643 32.9858 16.0556C34.951 16.0672 36.9336 16.3219 38.7831 16.84C43.2027 13.8328 45.1448 14.458 45.1448 14.458C46.4067 17.6591 45.6136 20.0208 45.3763 20.6084C46.8611 22.235 47.7554 24.3102 47.7554 26.8485C47.7554 35.7775 42.3431 37.7427 37.1854 38.3187C38.0161 39.0365 38.757 40.4547 38.757 42.6225C38.757 45.731 38.7281 48.2375 38.7281 48.9987C38.7281 49.621 39.1449 50.3445 40.3199 50.1159C49.5094 47.0363 56.1374 38.3274 56.1374 28.0612C56.1374 15.2221 45.7699 4.81412 32.98 4.81412Z" fill="#00ADEE" fill-opacity="0.9"/>
</svg>
