<svg width="18" height="18" viewBox="0 0 18 18" fill="none" xmlns="http://www.w3.org/2000/svg">
<path d="M9 0C4.03732 0 0 4.03732 0 9C0 13.9627 4.03732 18 9 18C13.9627 18 18 13.9627 18 9C18 4.03732 13.9627 0 9 0ZM9 16.0328C5.12202 16.0328 1.96721 12.878 1.96721 9C1.96721 5.12221 5.12202 1.96721 9 1.96721C12.878 1.96721 16.0328 5.12221 16.0328 9C16.0328 12.878 12.878 16.0328 9 16.0328Z" fill="#00ADEE"/>
<path d="M9.77958 9.01054V5.23844C9.77958 4.81726 9.43827 4.47595 9.01725 4.47595C8.5961 4.47595 8.25476 4.81726 8.25476 5.23844V9.25413C8.25476 9.26612 8.25772 9.27737 8.2583 9.28936C8.24827 9.49669 8.31969 9.7072 8.47803 9.86557L11.3177 12.705C11.6156 13.0029 12.0983 13.0029 12.3959 12.705C12.6936 12.4072 12.6938 11.9245 12.3959 11.6268L9.77958 9.01054Z" fill="#00ADEE"/>
</svg>
