<svg width="14" height="20" viewBox="0 0 14 20" fill="none" xmlns="http://www.w3.org/2000/svg">
<mask id="path-1-inside-1" fill="white">
<path d="M6.8811 0.691223C3.08678 0.691223 0 3.77801 0 7.57233C0 8.82145 0.560203 10.1649 0.583679 10.2216C0.764612 10.651 1.12162 11.3181 1.37905 11.7091L6.09706 18.8577C6.29014 19.1508 6.57591 19.3188 6.8811 19.3188C7.1863 19.3188 7.47207 19.1508 7.66514 18.8581L12.3836 11.7091C12.6414 11.3181 12.998 10.651 13.1789 10.2216C13.2024 10.1653 13.7622 8.82185 13.7622 7.57233C13.7622 3.77801 10.6754 0.691223 6.8811 0.691223ZM12.4325 9.90745C12.271 10.2924 11.9387 10.9129 11.7076 11.2634L6.98918 18.4125C6.89608 18.5538 6.86653 18.5538 6.77343 18.4125L2.05502 11.2634C1.8239 10.9129 1.49158 10.292 1.33008 9.90704C1.3232 9.89045 0.809542 8.65387 0.809542 7.57233C0.809542 4.22447 3.53324 1.50076 6.8811 1.50076C10.229 1.50076 12.9527 4.22447 12.9527 7.57233C12.9527 8.65549 12.4378 9.89531 12.4325 9.90745Z"/>
</mask>
<path d="M6.8811 0.691223C3.08678 0.691223 0 3.77801 0 7.57233C0 8.82145 0.560203 10.1649 0.583679 10.2216C0.764612 10.651 1.12162 11.3181 1.37905 11.7091L6.09706 18.8577C6.29014 19.1508 6.57591 19.3188 6.8811 19.3188C7.1863 19.3188 7.47207 19.1508 7.66514 18.8581L12.3836 11.7091C12.6414 11.3181 12.998 10.651 13.1789 10.2216C13.2024 10.1653 13.7622 8.82185 13.7622 7.57233C13.7622 3.77801 10.6754 0.691223 6.8811 0.691223ZM12.4325 9.90745C12.271 10.2924 11.9387 10.9129 11.7076 11.2634L6.98918 18.4125C6.89608 18.5538 6.86653 18.5538 6.77343 18.4125L2.05502 11.2634C1.8239 10.9129 1.49158 10.292 1.33008 9.90704C1.3232 9.89045 0.809542 8.65387 0.809542 7.57233C0.809542 4.22447 3.53324 1.50076 6.8811 1.50076C10.229 1.50076 12.9527 4.22447 12.9527 7.57233C12.9527 8.65549 12.4378 9.89531 12.4325 9.90745Z" fill="#00ADEE"/>
<path d="M0.583679 10.2216L-0.340193 10.6043L-0.337874 10.6098L0.583679 10.2216ZM1.37905 11.7091L0.543824 12.259L0.544439 12.2599L1.37905 11.7091ZM6.09706 18.8577L6.93212 18.3076L6.93168 18.3069L6.09706 18.8577ZM7.66514 18.8581L6.83054 18.3073L6.83044 18.3074L7.66514 18.8581ZM12.3836 11.7091L13.2182 12.2599L13.2184 12.2596L12.3836 11.7091ZM13.1789 10.2216L14.1005 10.6098L14.1018 10.6066L13.1789 10.2216ZM13.7622 7.57233H14.7622H13.7622ZM12.4325 9.90745L11.5149 9.50981L11.5104 9.52056L12.4325 9.90745ZM11.7076 11.2634L12.5422 11.8143L12.5424 11.8139L11.7076 11.2634ZM6.98918 18.4125L6.15457 17.8616L6.15419 17.8622L6.98918 18.4125ZM6.77343 18.4125L7.60842 17.8622L7.60804 17.8616L6.77343 18.4125ZM2.05502 11.2634L1.22016 11.8139L1.22041 11.8143L2.05502 11.2634ZM1.33008 9.90704L0.406326 10.2901L0.407949 10.2939L1.33008 9.90704ZM6.8811 -0.308777C2.5345 -0.308777 -1 3.22572 -1 7.57233H1C1 4.33029 3.63907 1.69122 6.8811 1.69122V-0.308777ZM-1 7.57233C-1 9.04169 -0.362046 10.5515 -0.340177 10.6043L1.50754 9.83881C1.48245 9.77826 1 8.60121 1 7.57233H-1ZM-0.337874 10.6098C-0.13284 11.0965 0.253206 11.8176 0.543825 12.259L2.21428 11.1592C1.99003 10.8186 1.66206 10.2056 1.50523 9.8333L-0.337874 10.6098ZM0.544439 12.2599L5.26245 19.4086L6.93168 18.3069L2.21367 11.1582L0.544439 12.2599ZM5.26201 19.4079C5.60785 19.9328 6.18495 20.3188 6.8811 20.3188V18.3188C6.8971 18.3188 6.91254 18.3211 6.92618 18.3249C6.93965 18.3286 6.94891 18.3332 6.95389 18.3361C6.96393 18.342 6.95252 18.3385 6.93212 18.3076L5.26201 19.4079ZM6.8811 20.3188C7.57707 20.3188 8.15401 19.933 8.49985 19.4088L6.83044 18.3074C6.81008 18.3383 6.79864 18.3419 6.80856 18.336C6.81348 18.3331 6.82269 18.3286 6.83611 18.3248C6.84969 18.3211 6.8651 18.3188 6.8811 18.3188V20.3188ZM8.49975 19.409L13.2182 12.2599L11.549 11.1582L6.83054 18.3073L8.49975 19.409ZM13.2184 12.2596C13.51 11.8174 13.8956 11.0961 14.1005 10.6098L12.2574 9.8333C12.1004 10.206 11.7728 10.8187 11.5487 11.1586L13.2184 12.2596ZM14.1018 10.6066C14.1251 10.5508 14.7622 9.04196 14.7622 7.57233H12.7622C12.7622 8.60175 12.2797 9.7798 12.2561 9.83646L14.1018 10.6066ZM14.7622 7.57233C14.7622 3.22572 11.2277 -0.308777 6.8811 -0.308777V1.69122C10.1231 1.69122 12.7622 4.33029 12.7622 7.57233H14.7622ZM11.5104 9.52056C11.3734 9.84704 11.0706 10.4129 10.8727 10.713L12.5424 11.8139C12.8068 11.4129 13.1686 10.7377 13.3547 10.2943L11.5104 9.52056ZM10.873 10.7126L6.15457 17.8616L7.82378 18.9633L12.5422 11.8143L10.873 10.7126ZM6.15419 17.8622C6.13358 17.8935 6.15934 17.8489 6.21531 17.7918C6.25872 17.7475 6.48876 17.5184 6.88131 17.5184C7.27385 17.5184 7.50389 17.7475 7.5473 17.7918C7.60327 17.8489 7.62903 17.8935 7.60842 17.8622L5.93845 18.9628C5.96439 19.0021 6.02875 19.0997 6.11935 19.1921C6.1974 19.2717 6.4581 19.5184 6.88131 19.5184C7.30451 19.5184 7.56521 19.2717 7.64326 19.1921C7.73386 19.0997 7.79822 19.0021 7.82416 18.9628L6.15419 17.8622ZM7.60804 17.8616L2.88963 10.7126L1.22041 11.8143L5.93883 18.9633L7.60804 17.8616ZM2.88988 10.713C2.69216 10.4131 2.38927 9.84684 2.2522 9.52016L0.407949 10.2939C0.593895 10.7371 0.955637 11.4127 1.22016 11.8139L2.88988 10.713ZM2.25382 9.52403C2.24338 9.49885 1.80954 8.4314 1.80954 7.57233H-0.190458C-0.190458 8.25059 -0.0330695 8.93457 0.106693 9.4172C0.178691 9.66582 0.25086 9.87723 0.305986 10.0289C0.333638 10.105 0.357236 10.1667 0.374699 10.2113C0.383439 10.2335 0.390657 10.2516 0.396097 10.265C0.398819 10.2718 0.401089 10.2773 0.402876 10.2817C0.40377 10.2839 0.404533 10.2857 0.405159 10.2872C0.405471 10.288 0.40574 10.2886 0.405962 10.2892C0.406156 10.2896 0.406373 10.2902 0.406334 10.2901L2.25382 9.52403ZM1.80954 7.57233C1.80954 4.77675 4.08553 2.50076 6.8811 2.50076V0.500765C2.98096 0.500765 -0.190458 3.67218 -0.190458 7.57233H1.80954ZM6.8811 2.50076C9.67668 2.50076 11.9527 4.77675 11.9527 7.57233H13.9527C13.9527 3.67218 10.7812 0.500765 6.8811 0.500765V2.50076ZM11.9527 7.57233C11.9527 7.97639 11.8529 8.45267 11.734 8.86343C11.6176 9.26558 11.5025 9.53864 11.515 9.50984L13.3501 10.3051C13.3678 10.2641 13.5128 9.91119 13.6551 9.41962C13.795 8.93664 13.9527 8.25143 13.9527 7.57233H11.9527Z" fill="#00ADEE" mask="url(#path-1-inside-1)"/>
<mask id="path-3-inside-2" fill="white">
<path d="M6.88122 3.92981C4.87234 3.92981 3.23828 5.56427 3.23828 7.57275C3.23828 9.58122 4.87234 11.2157 6.88122 11.2157C8.8901 11.2157 10.5242 9.58122 10.5242 7.57275C10.5242 5.56427 8.8901 3.92981 6.88122 3.92981ZM6.88122 10.4061C5.31921 10.4061 4.04782 9.13516 4.04782 7.57275C4.04782 6.01033 5.31921 4.73935 6.88122 4.73935C8.44323 4.73935 9.71461 6.01033 9.71461 7.57275C9.71461 9.13516 8.44323 10.4061 6.88122 10.4061Z"/>
</mask>
<path d="M6.88122 3.92981C4.87234 3.92981 3.23828 5.56427 3.23828 7.57275C3.23828 9.58122 4.87234 11.2157 6.88122 11.2157C8.8901 11.2157 10.5242 9.58122 10.5242 7.57275C10.5242 5.56427 8.8901 3.92981 6.88122 3.92981ZM6.88122 10.4061C5.31921 10.4061 4.04782 9.13516 4.04782 7.57275C4.04782 6.01033 5.31921 4.73935 6.88122 4.73935C8.44323 4.73935 9.71461 6.01033 9.71461 7.57275C9.71461 9.13516 8.44323 10.4061 6.88122 10.4061Z" fill="#00ADEE"/>
<path d="M10.5242 7.57275H11.5242H10.5242ZM6.88122 2.92981C4.31998 2.92981 2.23828 5.01206 2.23828 7.57275H4.23828C4.23828 6.11649 5.4247 4.92981 6.88122 4.92981V2.92981ZM2.23828 7.57275C2.23828 10.1334 4.31998 12.2157 6.88122 12.2157V10.2157C5.4247 10.2157 4.23828 9.02901 4.23828 7.57275H2.23828ZM6.88122 12.2157C9.44245 12.2157 11.5242 10.1334 11.5242 7.57275H9.52415C9.52415 9.02901 8.33774 10.2157 6.88122 10.2157V12.2157ZM11.5242 7.57275C11.5242 5.01206 9.44245 2.92981 6.88122 2.92981V4.92981C8.33774 4.92981 9.52415 6.11649 9.52415 7.57275H11.5242ZM6.88122 9.40614C5.8714 9.40614 5.04782 8.58278 5.04782 7.57275H3.04782C3.04782 9.68754 4.76702 11.4061 6.88122 11.4061V9.40614ZM5.04782 7.57275C5.04782 6.56271 5.8714 5.73935 6.88122 5.73935V3.73935C4.76702 3.73935 3.04782 5.45795 3.04782 7.57275H5.04782ZM6.88122 5.73935C7.89104 5.73935 8.71461 6.56271 8.71461 7.57275H10.7146C10.7146 5.45795 8.99542 3.73935 6.88122 3.73935V5.73935ZM8.71461 7.57275C8.71461 8.58278 7.89104 9.40614 6.88122 9.40614V11.4061C8.99542 11.4061 10.7146 9.68754 10.7146 7.57275H8.71461Z" fill="#00ADEE" mask="url(#path-3-inside-2)"/>
</svg>
