<svg width="75" height="42" viewBox="0 0 75 42" fill="none" xmlns="http://www.w3.org/2000/svg">
<path d="M13.6004 34.18C11.9204 34.18 10.3364 33.868 8.84841 33.244C7.38441 32.596 6.07641 31.696 4.92441 30.544C3.79641 29.368 2.90841 27.988 2.26041 26.404C1.63641 24.796 1.32441 23.008 1.32441 21.04C1.32441 19.264 1.63641 17.608 2.26041 16.072C2.90841 14.536 3.80841 13.18 4.96041 12.004C6.13641 10.828 7.49241 9.916 9.02841 9.268C10.5884 8.596 12.2684 8.26 14.0684 8.26C16.4204 8.26 18.4844 8.764 20.2604 9.772C22.0604 10.78 23.4044 12.136 24.2924 13.84L19.9004 17.152C19.3244 16.024 18.4844 15.136 17.3804 14.488C16.2764 13.84 15.1004 13.516 13.8524 13.516C12.5564 13.516 11.4164 13.864 10.4324 14.56C9.44841 15.232 8.68041 16.156 8.12841 17.332C7.57641 18.508 7.30041 19.816 7.30041 21.256C7.30041 22.72 7.58841 24.04 8.16441 25.216C8.74041 26.368 9.53241 27.28 10.5404 27.952C11.5724 28.6 12.7604 28.924 14.1044 28.924C16.4084 28.924 18.4844 27.868 20.3324 25.756V24.928H15.3644V20.644H25.2284V34H20.3324V31.48C18.3884 33.28 16.1444 34.18 13.6004 34.18Z" fill="#00ADEE"/>
<path d="M36.2921 15.1L39.6401 20.428L40.0001 21.112L40.3601 20.428L43.7081 15.1H49.6481L43.3121 24.496L49.7921 34H43.8521L40.3241 28.708L40.0001 28.024L39.6761 28.708L36.1481 34H30.2081L36.6881 24.604L30.3521 15.1H36.2921Z" fill="#00ADEE"/>
<path d="M54.7332 34V8.44H65.6412C66.8652 8.44 67.9812 8.692 68.9892 9.196C70.0212 9.676 70.9092 10.336 71.6532 11.176C72.3972 11.992 72.9732 12.916 73.3812 13.948C73.7892 14.98 73.9932 16.024 73.9932 17.08C73.9932 18.568 73.6452 19.972 72.9492 21.292C72.2772 22.612 71.3292 23.692 70.1052 24.532C68.8812 25.348 67.4532 25.756 65.8212 25.756H60.6372V34H54.7332ZM60.6372 20.608H65.4612C66.1572 20.608 66.7572 20.308 67.2612 19.708C67.7652 19.108 68.0172 18.232 68.0172 17.08C68.0172 15.904 67.7172 15.04 67.1172 14.488C66.5412 13.912 65.9172 13.624 65.2452 13.624H60.6372V20.608Z" fill="#00ADEE"/>
</svg>
