<svg width="64" height="46" viewBox="0 0 64 46" fill="none" xmlns="http://www.w3.org/2000/svg">
<rect x="7" y="8" width="47" height="30" fill="white"/>
<rect x="17" width="47" height="26" fill="white"/>
<g opacity="0.6">
<path d="M53.9286 9.51373L37.7734 22.9662L53.956 33.736V9.81694C53.956 9.71353 53.9453 9.61265 53.9286 9.51373Z" fill="#FFC700"/>
<path d="M36.3169 24.1791L34.2803 25.8749C33.3236 26.6716 32.1508 27.0699 30.9782 27.0699C29.8055 27.0699 28.6326 26.6716 27.676 25.8749L25.6394 24.1791L8 35.9184V36.1603C8 37.162 8.81509 37.9771 9.81688 37.9771H52.1391C53.1409 37.9771 53.956 37.162 53.956 36.1603V35.9184L36.3169 24.1791Z" fill="#FFC700"/>
<path d="M52.1459 8C52.1436 8 52.1414 8 52.1392 8H9.81686C9.81461 8 9.81246 8 9.81021 8C9.55369 8.00099 9.44266 8.3278 9.63976 8.49196L26.2702 22.3402C26.2722 22.3418 26.2742 22.3435 26.2761 22.3451L28.8385 24.4788C30.0782 25.5112 31.878 25.5112 33.1177 24.4788L52.3163 8.49196C52.5134 8.32771 52.4023 8.0009 52.1459 8Z" fill="#D7A906"/>
<path d="M8.02738 9.51373C8.01068 9.61265 8 9.71335 8 9.81694V33.736L24.1826 22.9661L8.02738 9.51373Z" fill="#FFC700"/>
</g>
<g opacity="0.4">
<path d="M63.9286 1.51373L47.7734 14.9662L63.956 25.736V1.81694C63.956 1.71353 63.9453 1.61265 63.9286 1.51373Z" fill="#FFC700"/>
<path d="M46.3169 16.1791L44.2803 17.8749C43.3236 18.6716 42.1508 19.0699 40.9782 19.0699C39.8055 19.0699 38.6326 18.6716 37.676 17.8749L35.6394 16.1791L18 27.9184V28.1603C18 29.162 18.8151 29.9771 19.8169 29.9771H62.1391C63.1409 29.9771 63.956 29.162 63.956 28.1603V27.9184L46.3169 16.1791Z" fill="#FFC700"/>
<path d="M62.1459 0C62.1436 0 62.1414 0 62.1392 0H19.8169C19.8146 0 19.8125 0 19.8102 0C19.5537 0.000987338 19.4427 0.327796 19.6398 0.491963L36.2702 14.3402C36.2722 14.3418 36.2742 14.3435 36.2761 14.3451L38.8385 16.4788C40.0782 17.5112 41.878 17.5112 43.1177 16.4788L62.3163 0.491963C62.5134 0.327706 62.4023 0.00089758 62.1459 0Z" fill="#D7A906"/>
<path d="M18.0274 1.51373C18.0107 1.61265 18 1.71335 18 1.81694V25.736L34.1826 14.9661L18.0274 1.51373Z" fill="#FFC700"/>
</g>
<rect y="16" width="47" height="30" fill="white"/>
<path d="M45.9286 17.5137L29.7734 30.9662L45.956 41.736V17.8169C45.956 17.7135 45.9453 17.6126 45.9286 17.5137Z" fill="#FFC700"/>
<path d="M28.3169 32.1791L26.2803 33.8749C25.3236 34.6716 24.1508 35.0699 22.9782 35.0699C21.8055 35.0699 20.6326 34.6716 19.676 33.8749L17.6394 32.1791L0 43.9184V44.1603C0 45.162 0.815093 45.9771 1.81688 45.9771H44.1391C45.1409 45.9771 45.956 45.162 45.956 44.1603V43.9184L28.3169 32.1791Z" fill="#FFC700"/>
<path d="M44.1459 16C44.1436 16 44.1414 16 44.1392 16H1.81686C1.81461 16 1.81246 16 1.81021 16C1.55369 16.001 1.44266 16.3278 1.63976 16.492L18.2702 30.3402C18.2722 30.3418 18.2742 30.3435 18.2761 30.3451L20.8385 32.4788C22.0782 33.5112 23.878 33.5112 25.1177 32.4788L44.3163 16.492C44.5134 16.3277 44.4023 16.0009 44.1459 16Z" fill="#D7A906"/>
<path d="M0.0273762 17.5137C0.0106812 17.6126 0 17.7134 0 17.8169V41.736L16.1826 30.9661L0.0273762 17.5137Z" fill="#FFC700"/>
</svg>
