<svg width="651" height="642" viewBox="0 0 651 642" fill="none" xmlns="http://www.w3.org/2000/svg">
<g clip-path="url(#clip0)">
<path d="M353.621 616.029C203.162 690.275 107.439 514.726 68.2261 429.737C52.2629 395.14 10.3191 310.23 0.842547 175.647C-11.7284 -2.88217 195.59 -5.19189 319.941 2.52505C424.877 9.03719 607.843 39.998 642.631 173.746C677.419 307.493 504.081 541.783 353.621 616.029Z" fill="url(#paint0_linear)"/>
<circle cx="553" cy="483" r="57" fill="#00ADEE"/>
<path d="M360.706 401.127L370.39 373.172" stroke="url(#paint1_linear)" stroke-width="2.3" stroke-linecap="round" stroke-linejoin="round"/>
<path d="M367.869 406.318L382.247 363.651" stroke="url(#paint2_linear)" stroke-width="2.3" stroke-linecap="round" stroke-linejoin="round"/>
<path d="M374.446 413.667L393.225 357.366" stroke="url(#paint3_linear)" stroke-width="2.3" stroke-linecap="round" stroke-linejoin="round"/>
<path d="M381.022 421.015L403.322 354.317" stroke="url(#paint4_linear)" stroke-width="2.3" stroke-linecap="round" stroke-linejoin="round"/>
<path d="M386.814 429.541L412.244 353.034" stroke="url(#paint5_linear)" stroke-width="2.3" stroke-linecap="round" stroke-linejoin="round"/>
<path d="M391.922 439.735L421.265 352.242" stroke="url(#paint6_linear)" stroke-width="2.3" stroke-linecap="round" stroke-linejoin="round"/>
<path d="M398.106 447.673L430.091 353.02" stroke="url(#paint7_linear)" stroke-width="2.3" stroke-linecap="round" stroke-linejoin="round"/>
<path d="M403.605 457.278L438.231 355.464" stroke="url(#paint8_linear)" stroke-width="2.3" stroke-linecap="round" stroke-linejoin="round"/>
<path d="M408.812 467.961L445.981 358.497" stroke="url(#paint9_linear)" stroke-width="2.3" stroke-linecap="round" stroke-linejoin="round"/>
<path d="M414.117 479.136L453.338 362.119" stroke="url(#paint10_linear)" stroke-width="2.3" stroke-linecap="round" stroke-linejoin="round"/>
<path d="M421.376 484.817L460.598 367.801" stroke="url(#paint11_linear)" stroke-width="2.3" stroke-linecap="round" stroke-linejoin="round"/>
<path d="M430.201 483.044L467.37 373.58" stroke="url(#paint12_linear)" stroke-width="2.3" stroke-linecap="round" stroke-linejoin="round"/>
<path d="M440.004 481.075L473.554 381.518" stroke="url(#paint13_linear)" stroke-width="2.3" stroke-linecap="round" stroke-linejoin="round"/>
<path d="M462.156 469.485L484.262 404.356" stroke="url(#paint14_linear)" stroke-width="2.3" stroke-linecap="round" stroke-linejoin="round"/>
<path d="M476.066 452.411L485.456 425.535" stroke="url(#paint15_linear)" stroke-width="2.3" stroke-linecap="round" stroke-linejoin="round"/>
<path d="M450.298 476.458L479.544 391.024" stroke="url(#paint16_linear)" stroke-width="2.3" stroke-linecap="round" stroke-linejoin="round"/>
<path d="M306.188 168.931H306.377V168.742H306.188V168.931Z" fill="url(#paint17_linear)"/>
<path d="M306.188 156.472H306.377V156.283H306.188V156.472Z" fill="url(#paint18_linear)"/>
<path d="M306.188 147.464H306.377V147.275H306.188V147.464Z" fill="url(#paint19_linear)"/>
<path d="M306.188 135.195H306.377V135.006H306.188V135.195Z" fill="url(#paint20_linear)"/>
<path d="M306.188 126.189H306.377V126H306.188V126.189Z" fill="url(#paint21_linear)"/>
<path d="M132.352 291.4H132.541V291.211H132.352V291.4Z" fill="url(#paint22_linear)"/>
<path d="M132.352 279.137H132.541V278.948H132.352V279.137Z" fill="url(#paint23_linear)"/>
<path d="M132.352 270.127H132.541V269.938H132.352V270.127Z" fill="url(#paint24_linear)"/>
<path d="M326.092 552.991C328.451 554.367 332.601 554.184 335.342 552.579L456.243 481.855C457.603 481.06 458.382 480.042 458.382 479.063C458.382 478.288 457.874 477.562 456.945 477.019L336.827 406.308C334.466 404.932 330.318 405.112 327.575 406.72L206.674 477.445C205.314 478.24 204.534 479.258 204.534 480.237C204.534 481.01 205.047 481.736 205.976 482.277L326.092 552.991V552.991ZM330.076 554.9C328.398 554.9 326.796 554.558 325.596 553.857V553.856L205.48 483.143C204.234 482.418 203.547 481.385 203.547 480.237C203.547 478.892 204.504 477.556 206.178 476.577L327.079 405.85C330.096 404.085 334.691 403.903 337.32 405.44L457.439 476.153C458.685 476.881 459.374 477.916 459.372 479.064C459.372 480.41 458.413 481.744 456.739 482.723L335.837 553.448C334.195 554.408 332.083 554.9 330.076 554.9" fill="#005676"/>
<path d="M325.495 526.192L209.91 458.134C207.485 456.714 207.79 454.236 210.59 452.599L327.965 383.935C330.764 382.296 335.002 382.12 337.427 383.538L453.013 451.596C455.438 453.017 455.135 455.495 452.334 457.132L334.956 525.796C332.157 527.435 327.92 527.613 325.495 526.192Z" fill="url(#paint25_linear)"/>
<path d="M211.052 474.886L210.064 474.305L223.292 466.568L224.278 467.148L211.052 474.886ZM451.869 474.033L438.641 466.246L439.629 465.669L452.854 473.456L451.869 474.033Z" fill="#005676"/>
<path d="M458.875 429.694L417.652 426.973L337.075 379.395C334.578 377.933 330.214 378.117 327.33 379.805L236.565 432.901L204.043 430.754V453.746L204.073 453.748C204.071 454.677 204.595 455.568 205.73 456.232L325.847 526.941C328.345 528.403 332.709 528.219 335.592 526.532L456.493 455.806C458.026 454.911 458.809 453.773 458.854 452.684H458.875V429.694" fill="url(#paint26_linear)"/>
<path d="M330.082 527.928C328.495 527.928 326.98 527.603 325.847 526.941L288.174 504.764L224.279 467.15L223.293 466.57L205.73 456.231C204.595 455.568 204.071 454.677 204.073 453.748L204.043 453.746V430.754H204.049C204.115 431.618 204.669 432.437 205.73 433.058L325.847 503.767C325.873 503.782 325.9 503.798 325.926 503.813C327.048 504.443 328.525 504.754 330.072 504.754C330.074 504.754 330.078 504.754 330.08 504.754C330.084 504.754 330.089 504.754 330.095 504.754C331.928 504.753 333.856 504.317 335.397 503.468C335.407 503.464 335.414 503.458 335.424 503.454C335.439 503.445 335.454 503.437 335.471 503.428C335.482 503.42 335.494 503.415 335.507 503.406C335.535 503.391 335.564 503.374 335.592 503.357L456.493 432.632C456.503 432.627 456.512 432.621 456.522 432.615C456.527 432.613 456.531 432.611 456.535 432.607C456.541 432.605 456.544 432.602 456.55 432.6C457.957 431.76 458.739 430.712 458.864 429.692L458.875 429.694V452.684H458.854C458.809 453.772 458.026 454.911 456.493 455.806L439.63 465.671L438.643 466.248L362.602 510.732L335.592 526.532C334.014 527.455 331.996 527.928 330.082 527.928" fill="url(#paint27_linear)"/>
<path d="M325.846 503.764L205.73 433.055C203.231 431.592 203.545 429.04 206.428 427.351L327.329 356.627C330.214 354.938 334.578 354.754 337.075 356.216L457.193 426.926C459.692 428.388 459.379 430.941 456.493 432.629L335.592 503.354C332.709 505.042 328.345 505.226 325.846 503.764Z" fill="url(#paint28_linear)"/>
<path d="M330.08 504.751C330.084 504.751 330.089 504.751 330.095 504.751C330.089 504.751 330.084 504.751 330.08 504.751ZM330.072 504.751C328.525 504.751 327.048 504.44 325.926 503.81C327.048 504.44 328.525 504.751 330.072 504.751ZM325.926 503.81C325.9 503.795 325.873 503.779 325.847 503.764C325.873 503.779 325.9 503.795 325.926 503.81ZM325.847 503.764L205.73 433.055C204.669 432.434 204.115 431.615 204.049 430.751C204.045 430.693 204.043 430.636 204.043 430.576C204.043 429.455 204.851 428.275 206.428 427.351L327.33 356.626C328.907 355.702 330.929 355.229 332.844 355.229C334.431 355.229 335.944 355.553 337.075 356.216L457.193 426.925C458.326 427.588 458.881 428.476 458.881 429.404C458.881 429.499 458.875 429.595 458.864 429.689C458.739 430.709 457.957 431.757 456.55 432.597C458.567 431.393 459.272 429.768 458.625 428.407C458.275 429.17 457.564 429.915 456.493 430.54L335.592 501.269C334.014 502.19 331.996 502.662 330.08 502.662C328.495 502.662 326.98 502.338 325.847 501.677L205.73 430.966C205.015 430.548 204.557 430.038 204.296 429.486C203.704 430.782 204.158 432.133 205.73 433.053L325.847 503.764ZM332.191 402.646C320.768 402.646 309.345 405.197 300.628 410.295C283.197 420.491 283.197 437.024 300.63 447.22C309.345 452.32 320.768 454.869 332.191 454.869C343.614 454.869 355.037 452.32 363.754 447.22C381.184 437.024 381.184 420.491 363.752 410.295C355.037 405.197 343.614 402.646 332.191 402.646ZM335.397 503.465C335.407 503.461 335.414 503.455 335.424 503.451C335.414 503.455 335.407 503.461 335.397 503.465ZM335.471 503.425C335.482 503.417 335.494 503.411 335.507 503.403C335.494 503.411 335.482 503.417 335.471 503.425ZM456.522 432.612C456.527 432.61 456.531 432.608 456.535 432.604C456.531 432.608 456.527 432.61 456.522 432.612Z" fill="url(#paint29_linear)"/>
<path d="M456.491 430.54L335.59 501.269C332.707 502.953 328.344 503.138 325.845 501.677L205.728 430.966C205.013 430.548 204.556 430.038 204.295 429.486C203.703 430.782 204.157 432.133 205.728 433.053L325.845 503.764C328.344 505.226 332.707 505.042 335.59 503.354L456.491 432.629C458.551 431.424 459.276 429.781 458.623 428.407C458.273 429.17 457.562 429.916 456.491 430.54" fill="white"/>
<path d="M328.224 470.992C310.508 470.992 292.792 467.039 279.277 459.129C252.241 443.316 252.241 417.676 279.274 401.863C292.792 393.957 310.508 390 328.224 390C345.939 390 363.655 393.957 377.17 401.863C404.206 417.676 404.206 443.316 377.173 459.129C363.655 467.039 345.939 470.992 328.224 470.992Z" fill="#B4DFF1"/>
<path d="M352.744 227.907C352.744 227.905 352.744 227.905 352.742 227.905C352.744 227.905 352.744 227.905 352.744 227.907ZM352.439 227.612C352.439 227.612 352.439 227.612 352.437 227.612C352.439 227.612 352.439 227.612 352.439 227.612ZM352.422 227.591C352.42 227.591 352.42 227.589 352.419 227.587C352.42 227.589 352.42 227.591 352.422 227.591ZM352.415 227.581C352.413 227.581 352.411 227.579 352.411 227.578C352.411 227.579 352.413 227.581 352.415 227.581ZM352.407 227.574C351.401 226.315 350.353 222.79 349.857 220.962C349.865 220.983 349.871 221.006 349.876 221.027C350.378 222.867 351.412 226.33 352.407 227.574" fill="#24265E"/>
<path d="M348.499 219.274L346 217.966L348.465 219.257C348.476 219.263 348.487 219.269 348.499 219.274Z" fill="#24265E"/>
<path d="M115.482 433.87L98.5 423.934V443.802L115.482 453.737L132.463 443.802V423.934L115.482 433.87Z" fill="#76D1CB"/>
<path d="M115.171 464.656L101 453.328L115.171 442L129.341 453.328L115.171 464.656Z" fill="#F2F2F2"/>
<path d="M115.482 453.737L98.5 443.804V423.936L115.482 433.87V453.737Z" fill="#14BFFF"/>
<path d="M132.463 443.804L115.482 453.737V433.87L132.463 423.936V443.804Z" fill="#00ADEE"/>
<path d="M115.482 433.869L98.5 423.936L115.481 414L132.463 423.936L115.482 433.869Z" fill="#4FCFFF"/>
<path d="M431.697 509.087L417.525 497.759L431.697 486.431L445.867 497.759L431.697 509.087Z" fill="#F2F2F2"/>
<path d="M430.981 499.735L414 489.804V469.936L430.981 479.868V499.735Z" fill="#FFC700"/>
<path d="M447.965 489.804L430.98 499.735V479.868L447.965 469.936V489.804Z" fill="#D7A906"/>
<path d="M430.981 479.867L414 469.935L430.981 460L447.963 469.935L430.981 479.867Z" fill="#FFC700"/>
<path d="M87.0055 134.558L229.024 52.8038C232.353 50.8873 236.51 53.2851 236.518 57.1266L236.994 283.597C236.998 285.392 236.039 287.051 234.482 287.945L85.3674 373.502C84.9813 373.724 84.5 373.445 84.5 373V138.891C84.5 137.102 85.4554 135.45 87.0055 134.558Z" fill="url(#paint30_linear)"/>
<path d="M177.652 274.803L220.19 249.956C222.444 248.639 225.275 250.265 225.275 252.872V294.894L173.25 325.285V282.47C173.25 279.312 174.926 276.396 177.652 274.803" fill="#00ADEE"/>
<path d="M171.261 248.713L224.664 218.234V224.087L171.261 254.216V248.713" fill="#005676"/>
<path d="M196.663 246.516L225.275 229.865V235.711L196.663 252.019V246.516" fill="#93C9DE"/>
<path d="M108.215 137.293L150.035 112.862C152.575 111.377 155.768 113.211 155.768 116.154V161.039C155.768 164.251 154.064 167.214 151.295 168.833L109.474 193.265C106.934 194.743 103.742 192.915 103.742 189.972V145.081C103.742 141.876 105.445 138.913 108.215 137.293" fill="#93C9DE"/>
<path d="M106.398 252.705L151.392 226.426C153.446 225.224 156.025 226.709 156.025 229.08V277.647C156.025 279.367 155.112 280.96 153.627 281.827L108.632 308.106C106.579 309.308 104 307.823 104 305.452V256.885C104 255.165 104.913 253.572 106.398 252.705Z" fill="#78C6E3"/>
<path d="M103.742 208.133L157.145 177.655V183.507L103.742 213.63V208.133Z" fill="#005676"/>
<path d="M104.353 219.758L157.756 189.279V195.132L104.353 225.261V219.758Z" fill="#93C9DE"/>
<path d="M129.753 217.561L158.365 200.904V206.757L129.753 223.064V217.561" fill="#93C9DE"/>
<path d="M103.742 321.736L157.145 291.258V297.11L103.742 327.232V321.736Z" fill="#005676"/>
<path d="M104.353 333.36L157.756 302.882V308.734L104.353 338.863V333.36Z" fill="#93C9DE"/>
<path d="M129.753 331.163L158.365 314.513V320.358L129.753 336.666V331.163" fill="#93C9DE"/>
<path d="M175.486 112.398L219.147 86.6493C222.229 84.8284 226.117 87.0525 226.117 90.6271V200.003C226.117 203.228 224.411 206.212 221.631 207.851L177.97 233.606C174.889 235.42 171 233.196 171 229.622V120.252C171 117.027 172.706 114.037 175.486 112.398" fill="#2983A5"/>
<path d="M224 207.009C223.623 207.325 223.221 207.621 222.79 207.87L215.981 211.888V147.652L224 142.921V207.009" fill="white"/>
<path d="M210.566 215.079L202.547 219.81V142.021L210.566 137.297V215.079Z" fill="white"/>
<path d="M197.297 222.907L189.278 227.638V176.954L197.297 172.224V222.907Z" fill="white"/>
<path d="M176.136 157.738L184.154 153.014V230.655L179.128 233.625C178.161 234.189 177.117 234.364 176.136 234.223V157.738" fill="white"/>
<path d="M247.512 268.178C247.513 268.178 247.514 268.171 247.514 268.171C247.514 268.171 247.513 268.178 247.512 268.178ZM247.525 268.137C247.527 268.137 247.528 268.131 247.53 268.124C247.529 268.131 247.527 268.137 247.525 268.137ZM247.538 268.097C247.541 268.09 247.544 268.084 247.547 268.07C247.544 268.084 247.541 268.09 247.538 268.097ZM247.551 268.057C247.615 267.869 247.686 267.687 247.766 267.499C247.772 267.486 247.778 267.472 247.783 267.459C247.697 267.654 247.619 267.855 247.551 268.057Z" fill="#F7A773"/>
<path d="M247.765 267.499C247.886 267.224 248.025 266.948 248.182 266.679C248.032 266.935 247.899 267.197 247.783 267.459C247.777 267.472 247.771 267.486 247.765 267.499ZM248.183 266.679C248.191 266.666 248.198 266.652 248.206 266.639C248.198 266.652 248.191 266.666 248.183 266.679ZM248.207 266.639C248.214 266.626 248.222 266.612 248.23 266.599C248.222 266.612 248.214 266.626 248.207 266.639ZM248.231 266.599C248.239 266.585 248.248 266.572 248.256 266.558C248.247 266.572 248.239 266.585 248.231 266.599Z" fill="#F48A4C"/>
<path d="M248.343 266.411L256.463 253.208L248.343 266.411Z" fill="#F7A773"/>
<path d="M136.587 137.561C137.593 137.561 138.502 137.781 139.272 138.224C141.297 139.395 142.458 142.179 142.458 145.873C142.458 154.745 135.966 165.984 128.285 170.418C125.09 172.265 122.095 172.653 120.07 171.485C118.045 170.314 116.884 167.53 116.884 163.836C116.884 154.964 123.375 143.725 131.057 139.291C133.039 138.146 134.944 137.561 136.587 137.561ZM122.754 177.708C125.364 177.708 128.185 176.874 131.057 175.214C140.397 169.823 147.998 156.659 147.998 145.873C147.998 140.064 145.883 135.643 142.044 133.427C138.201 131.209 133.318 131.587 128.285 134.491C118.944 139.886 111.344 153.05 111.344 163.836C111.344 169.645 113.459 174.066 117.298 176.282C118.948 177.236 120.791 177.708 122.754 177.708" fill="white" fill-opacity="0.34"/>
<path d="M122.756 178.054C125.424 178.054 128.306 177.203 131.23 175.515C135.835 172.856 140.14 168.325 143.358 162.755C146.573 157.186 148.346 151.19 148.346 145.872C148.346 144.152 146.948 143.626 145.228 143.626C143.507 143.626 142.113 144.152 142.113 145.872C142.113 150.051 140.6 155.068 137.96 159.638C135.321 164.208 131.731 168.027 128.115 170.117C125.026 171.902 122.158 172.29 120.243 171.184C118.331 170.078 117.232 167.4 117.232 163.836C117.232 159.657 118.745 154.641 121.385 150.071C124.024 145.501 127.611 141.681 131.23 139.591C132.721 138.731 132.364 136.823 131.503 135.332C130.643 133.844 129.606 133.333 128.115 134.193C123.51 136.852 119.201 141.383 115.987 146.953C112.772 152.522 110.999 158.519 110.999 163.836C110.999 169.774 113.176 174.299 117.128 176.582C118.833 177.565 120.735 178.054 122.756 178.054Z" fill="white"/>
<path d="M361.476 43.3989L247.476 110.052C245.943 110.949 245 112.592 245 114.369V251.285C245 255.146 249.19 257.55 252.524 255.601L366.524 188.948C368.057 188.051 369 186.408 369 184.631V47.7153C369 43.8541 364.81 41.4501 361.476 43.3989Z" fill="url(#paint31_linear)"/>
<path d="M275.52 151.798H276.072V244.393L275.52 244.71V151.798Z" fill="#E5E5E5"/>
<path d="M351.244 200.737L350.691 201.054V120.749H351.244V200.737Z" fill="#E5E5E5"/>
<path d="M328.529 213.93L327.977 214.247V131.698H328.529V213.93Z" fill="#E5E5E5"/>
<path d="M301.685 229.515L301.133 229.839V120.749H301.685V229.515Z" fill="#E5E5E5"/>
<path d="M350.111 120.749C350.111 121.369 350.495 121.874 350.967 121.874C351.432 121.874 351.816 121.369 351.816 120.749C351.816 120.122 351.432 119.617 350.967 119.617C350.495 119.617 350.111 120.122 350.111 120.749Z" fill="#E5E5E5"/>
<path d="M327.396 131.698C327.396 132.318 327.781 132.823 328.246 132.823C328.717 132.823 329.101 132.318 329.101 131.698C329.101 131.071 328.717 130.566 328.246 130.566C327.781 130.566 327.396 131.071 327.396 131.698Z" fill="#E5E5E5"/>
<path d="M300.559 120.749C300.559 121.369 300.936 121.874 301.408 121.874C301.879 121.874 302.257 121.369 302.257 120.749C302.257 120.122 301.879 119.617 301.408 119.617C300.936 119.617 300.559 120.122 300.559 120.749Z" fill="#E5E5E5"/>
<path d="M274.947 151.798C274.947 152.417 275.331 152.923 275.796 152.923C276.268 152.923 276.652 152.417 276.652 151.798C276.652 151.171 276.268 150.666 275.796 150.666C275.331 150.666 274.947 151.171 274.947 151.798Z" fill="#E5E5E5"/>
<path d="M246.673 204.355L245.09 200.589C250.965 198.116 254.247 192.685 257.731 186.944C259.624 183.811 261.585 180.577 264.031 177.76C267.467 173.798 271.45 170.968 275.519 169.472V173.892C272.582 175.247 269.698 177.47 267.117 180.442C264.9 182.996 263.033 186.082 261.228 189.06C257.562 195.111 253.775 201.37 246.673 204.355V204.355ZM290.431 173.684C290.289 173.684 290.141 173.684 289.993 173.677C288.611 173.623 287.352 173.293 286.132 172.983C285.519 172.821 284.899 172.659 284.272 172.551C283.551 172.417 282.817 172.356 282.075 172.356C280.115 172.356 278.087 172.801 276.072 173.65V169.283C278.073 168.61 280.088 168.266 282.062 168.266C283.053 168.266 284.036 168.354 285.007 168.529C285.728 168.657 286.442 168.839 287.149 169.021C288.207 169.297 289.211 169.553 290.161 169.593C290.249 169.593 290.33 169.6 290.417 169.6C295.532 169.6 299.096 163.394 300.053 161.467C300.43 160.706 300.781 159.924 301.131 159.143V167.484C298.119 171.446 294.339 173.684 290.431 173.684" fill="#DBD7D6"/>
<path d="M275.52 173.893V169.472C275.708 169.405 275.89 169.344 276.072 169.284V173.65C275.89 173.731 275.708 173.812 275.52 173.893Z" fill="#DBD7D6"/>
<path d="M301.684 166.729V157.889C301.69 157.876 301.69 157.869 301.697 157.862C303.361 154.055 305.086 150.12 308.341 147.169C312.62 143.288 318.145 142.216 323.785 142.216C325.179 142.216 326.581 142.277 327.976 142.385V146.488C326.595 146.374 325.2 146.306 323.832 146.306C319.021 146.306 314.425 147.175 311.09 150.201C308.482 152.559 307.007 155.928 305.444 159.499C304.884 160.773 304.325 162.046 303.712 163.28C303.099 164.533 302.418 165.685 301.684 166.729V166.729ZM341.075 147.607C337.82 147.607 334.687 147.229 332.032 146.906C330.88 146.771 329.708 146.636 328.528 146.535V142.432C329.876 142.54 331.21 142.688 332.524 142.85C335.482 143.207 338.393 143.496 341.156 143.496C344.633 143.496 347.874 143.038 350.69 141.684V146.111C347.577 147.243 344.269 147.607 341.075 147.607" fill="#A23100" fill-opacity="0.15"/>
<path d="M351.242 145.902V141.408C352.758 140.593 354.153 139.501 355.379 138.059C356.255 137.028 357.104 136.004 357.947 134.987C362.124 129.967 366.14 125.183 371.423 121.335V126.544C367.616 129.785 364.409 133.612 361.093 137.601C360.238 138.625 359.375 139.663 358.492 140.707C356.377 143.2 353.89 144.844 351.242 145.902" fill="#A23100" fill-opacity="0.15"/>
<path d="M350.691 146.11V141.683C350.873 141.596 351.062 141.501 351.244 141.407V145.901C351.055 145.969 350.873 146.043 350.691 146.11Z" fill="#DBD7D6"/>
<path d="M328.529 146.535C328.34 146.515 328.158 146.501 327.977 146.488V142.384C328.158 142.398 328.34 142.411 328.529 142.432V146.535Z" fill="#DBD7D6"/>
<path d="M301.133 167.484V159.143C301.321 158.725 301.503 158.307 301.685 157.889V166.73C301.503 166.986 301.321 167.242 301.133 167.484" fill="#DBD7D6"/>
<path d="M254.239 180.151L254.24 180.151C256.138 177.009 258.069 173.827 260.469 171.064L260.47 171.063C266.49 164.122 274.103 160.834 280.79 162.062L280.794 162.063C281.485 162.185 282.173 162.36 282.891 162.543C283.933 162.815 285.004 163.093 286.042 163.137L286.044 163.137C288.974 163.254 291.388 161.536 293.136 159.667C294.895 157.784 296.09 155.634 296.59 154.622L296.591 154.62C297.178 153.425 297.717 152.199 298.248 150.981M254.239 180.151L297.607 150.7M254.239 180.151L254.176 180.255C250.829 185.783 247.517 191.252 241.7 193.891V196.694L242.363 196.533C249.191 193.641 252.863 187.61 256.539 181.542L256.539 181.541L256.593 181.453C258.376 178.513 260.257 175.409 262.498 172.828C267.759 166.758 274.409 163.643 280.307 164.707L280.308 164.707C280.883 164.813 281.453 164.956 281.996 165.092C282.07 165.111 282.145 165.13 282.218 165.148L282.222 165.149L282.291 165.167C283.492 165.474 284.66 165.772 285.93 165.822L285.933 165.822M254.239 180.151L285.933 165.822M298.248 150.981C298.248 150.981 298.248 150.98 298.249 150.98L297.607 150.7M298.248 150.981C298.248 150.981 298.248 150.982 298.248 150.982L297.607 150.7M298.248 150.981C299.929 147.158 301.602 143.367 304.721 140.532M297.607 150.7L297.621 150.669C299.288 146.878 301.012 142.957 304.251 140.013M304.721 140.532C304.721 140.532 304.721 140.532 304.721 140.532L304.251 140.013M304.721 140.532C310.963 134.878 320.02 135.387 328.35 136.389C332.841 136.935 337.295 137.331 341.315 136.774C345.357 136.214 349.002 134.684 351.823 131.357C352.518 130.539 353.197 129.724 353.869 128.917C354.047 128.704 354.224 128.491 354.401 128.279L354.402 128.278C359.737 121.86 364.695 115.916 372.356 111.826L373.324 111.589M304.721 140.532C304.721 140.532 304.721 140.532 304.722 140.531L304.251 140.013M304.251 140.013L373.324 111.589M373.324 111.589V114.367C366.273 118.212 361.475 123.978 356.51 129.944L356.466 129.997L356.465 129.998C355.611 131.027 354.75 132.056 353.875 133.1C350.399 137.189 345.88 138.914 341.242 139.499C336.587 140.086 331.864 139.519 328.026 139.056L328.026 139.056C324.326 138.61 320.333 138.239 316.595 138.589C312.853 138.939 309.298 140.016 306.53 142.526C303.81 144.987 302.282 148.477 300.744 151.991L300.712 152.063L373.324 111.589ZM285.933 165.822C290.829 166.034 295.726 162.416 299.001 155.814M285.933 165.822L299.001 155.814M299.001 155.814C299.599 154.597 300.152 153.339 300.712 152.064L299.001 155.814Z" fill="#B73235" stroke="#F3FAFE" stroke-width="1.4"/>
<path d="M403.171 228.656L389 217.328L403.171 206L417.341 217.328L403.171 228.656Z" fill="#F2F2F2"/>
<path d="M402.895 216.945L385.914 207.012V187.144L402.895 197.076V216.945" fill="#FB4B00"/>
<path d="M419.877 207.012L402.895 216.945V197.076L419.877 187.144V207.012" fill="#B73235"/>
<path d="M402.895 197.076L385.914 187.144L402.895 177.208L419.877 187.144L402.895 197.076Z" fill="#FF9567"/>
<path d="M284.42 393.662C284.42 393.662 284.42 397.443 289.053 400.816C289.72 401.298 290.61 401.891 291.536 402.484C294.168 404.152 297.726 407.191 299.95 409.341C301.21 410.527 302.619 411.38 304.509 411.454C307.326 411.602 309.81 410.675 309.476 406.45C309.439 406.153 309.402 405.635 309.365 405.153C309.328 404.93 309.291 404.708 309.291 404.486C309.217 404.189 309.068 396.294 309.031 396.109C308.698 397.517 306.696 391.957 305.473 391.92C303.62 391.846 303.879 396.257 302.619 395.071C300.358 392.921 297.949 393.922 291.759 390.734L290.573 390.549C285.754 389.993 285.05 391.587 284.568 393.032C284.494 393.255 284.457 393.477 284.42 393.662Z" fill="#292D4C"/>
<path d="M249.909 412.939C249.909 412.939 254.431 412.494 255.951 412.457C259.509 412.309 267.33 410.085 269.739 411.79C272.519 413.717 278.672 415.311 278.746 410.122L282.267 411.271C282.341 412.383 282.638 418.758 282.675 419.166C282.786 421.056 282.415 422.984 281.378 424.615C279.042 428.284 271.815 426.171 267.663 425.319L255.284 423.651C250.762 422.724 247.833 419.574 247.018 416.831C246.833 414.941 248.093 413.273 249.909 412.939Z" fill="#292D4C"/>
<path d="M291.127 331.432C291.016 331.432 293.425 394.368 293.425 394.368C293.388 399.743 310.92 399.372 310.623 394.887L311.735 331.432H291.127Z" fill="#292D4C"/>
<path d="M266.032 411.01C266.032 415.42 281.933 418.052 283.045 412.307L290.977 347.035H264.846L266.032 411.01Z" fill="#437588"/>
<path d="M302.951 450.223C302.951 452.076 301.468 453.558 299.615 453.558C297.762 453.558 296.279 452.076 296.279 450.223C296.279 448.369 297.762 446.887 299.615 446.887C301.468 446.887 302.951 448.369 302.951 450.223Z" fill="#292D4C"/>
<path d="M364.557 450.223C364.557 452.076 363.074 453.558 361.221 453.558C359.367 453.558 357.885 452.076 357.885 450.223C357.885 448.369 359.367 446.887 361.221 446.887C363.037 446.887 364.557 448.369 364.557 450.223Z" fill="#292D4C"/>
<path d="M303.023 414.975C303.023 416.828 301.541 418.31 299.687 418.31C297.834 418.31 296.352 416.828 296.352 414.975C296.352 413.121 297.834 411.639 299.687 411.639C301.504 411.639 303.023 413.121 303.023 414.975Z" fill="#292D4C"/>
<path d="M361.178 418.31C363.02 418.31 364.514 416.817 364.514 414.975C364.514 413.132 363.02 411.639 361.178 411.639C359.335 411.639 357.842 413.132 357.842 414.975C357.842 416.817 359.335 418.31 361.178 418.31Z" fill="#292D4C"/>
<path d="M363.852 411.379L344.393 422.61V426.687L363.852 415.456C366.743 413.788 367.966 410.415 367.039 407.339C366.521 408.97 365.446 410.452 363.852 411.379Z" fill="#034259"/>
<path d="M296.984 411.379C295.391 410.452 294.316 409.007 293.797 407.339C292.87 410.378 294.093 413.788 296.984 415.456L316.444 426.687V422.61L296.984 411.379Z" fill="#034259"/>
<path d="M366.406 443.366C365.109 445.59 362.774 446.85 360.364 446.85C359.178 446.85 357.992 446.553 356.88 445.923L330.453 430.652L304.025 445.923C302.913 446.553 301.727 446.85 300.541 446.85C298.132 446.85 295.76 445.59 294.499 443.366C294.24 442.884 294.018 442.402 293.869 441.92C293.313 443.699 293.462 445.701 294.499 447.443C295.797 449.667 298.132 450.927 300.541 450.927C301.727 450.927 302.913 450.631 304.025 450L330.453 434.73L356.88 450C357.992 450.631 359.178 450.927 360.364 450.927C362.774 450.927 365.146 449.667 366.406 447.443C367.407 445.701 367.555 443.699 367.036 441.92C366.851 442.439 366.666 442.921 366.406 443.366Z" fill="#034259"/>
<path d="M300.47 446.888C301.657 446.888 302.843 446.592 303.955 445.961L330.382 430.69L356.81 445.961C357.922 446.592 359.108 446.888 360.294 446.888C362.703 446.888 365.075 445.628 366.335 443.404C366.595 442.922 366.817 442.44 366.966 441.958C366.484 440.327 365.372 438.845 363.778 437.918L344.319 426.687V422.61L363.778 411.379C365.372 410.453 366.447 409.007 366.966 407.339C366.817 406.858 366.632 406.376 366.335 405.894C364.408 402.558 360.108 401.409 356.773 403.336L330.345 418.607L303.918 403.336C300.582 401.409 296.319 402.558 294.355 405.894C294.095 406.376 293.873 406.858 293.725 407.339C294.206 408.97 295.318 410.453 296.912 411.379L316.371 422.61V426.687L296.912 437.918C295.318 438.845 294.244 440.29 293.725 441.958C293.873 442.44 294.058 442.922 294.355 443.404C295.726 445.628 298.061 446.888 300.47 446.888Z" fill="#055B7A"/>
<path d="M336.124 409.561C336.013 410.302 335.197 411.191 334.011 411.71C333.01 412.118 331.787 412.34 330.527 412.34C328.6 412.34 326.783 411.822 325.671 410.969C325.19 410.598 324.745 409.931 324.708 409.486V423.645C324.597 424.35 325.153 424.943 325.634 425.313C326.746 426.166 328.562 426.685 330.49 426.685C331.75 426.685 332.973 426.462 333.974 426.055C335.197 425.573 335.976 424.831 336.087 424.09C336.124 423.942 336.087 423.794 336.05 423.645C336.087 423.608 336.124 409.412 336.124 409.561Z" fill="#034259"/>
<path d="M333.974 411.711C332.973 412.119 331.75 412.341 330.49 412.341C328.562 412.341 326.746 411.822 325.634 410.97C325.153 410.599 324.597 410.006 324.708 409.302C324.819 408.56 325.597 407.819 326.82 407.337C327.821 406.929 329.007 406.707 330.305 406.707C332.232 406.707 334.048 407.226 335.16 408.079C335.642 408.449 336.198 409.042 336.087 409.746C335.976 410.451 335.197 411.192 333.974 411.711Z" fill="#045673"/>
<path d="M327.004 408.821C326.93 409.266 327.263 409.6 327.56 409.822C328.227 410.341 329.302 410.638 330.451 410.638C331.192 410.638 331.934 410.489 332.527 410.267C333.268 409.971 333.75 409.526 333.787 409.081C333.787 409.007 333.787 374.573 333.787 374.573H326.967V408.821H327.004Z" fill="#034259"/>
<path d="M383.822 367.826L383.859 363.045L381.635 362.934C381.079 362.341 380.449 361.822 379.708 361.414L345.348 341.584C340.233 338.619 333.895 338.619 328.78 341.547L281.114 368.864C279.928 369.531 279.039 370.421 278.371 371.422L277 371.088L276.963 376.055C276.963 378.835 278.334 381.652 281.114 383.282L315.474 403.112C320.589 406.078 326.927 406.078 332.042 403.149L379.708 375.832C382.747 374.053 384.119 370.866 383.822 367.826Z" fill="#03475F"/>
<path d="M379.709 356.004L345.35 336.174C340.235 333.209 333.897 333.209 328.782 336.137L281.116 363.454C275.556 366.642 275.556 374.648 281.079 377.872L315.438 397.702C320.553 400.667 326.891 400.667 332.006 397.739L379.672 370.422C385.269 367.235 385.269 359.228 379.709 356.004Z" fill="#055B7A"/>
<path d="M331.085 333.544L326.86 368.088C322.745 366.569 318.779 364.604 315.036 362.195C305.213 355.857 293.501 348.296 286.421 343.737C282.567 341.253 280.602 336.694 281.455 332.172C282.752 325.426 289.757 321.423 296.244 323.721L322.968 333.21C325.711 334.322 328.528 334.359 331.085 333.544Z" fill="#437588"/>
<path d="M266.366 340.92C263.178 347.222 265.217 354.968 271.147 358.823C278.449 363.567 291.533 371.018 299.502 375.984C313.513 384.732 326.856 386.103 342.423 383.805C348.354 382.915 361.957 377.022 366.998 366.94C372.002 356.933 369.518 334.657 369.518 334.657C369.518 334.657 342.09 313.159 327.894 340.327C327.597 340.921 327.116 341.847 326.56 342.922C323.631 348.593 316.589 350.632 311.066 347.444L285.046 334.805C278.226 331.321 269.85 334.063 266.366 340.92Z" fill="#386475"/>
<path d="M376.525 319.755C376.191 317.791 376.043 315.826 376.043 313.825L377.192 278.983C376.488 268.568 368.185 264.157 360.439 264.565C359.734 264.602 358.993 264.676 358.289 264.787C356.51 265.084 354.693 265.677 352.988 266.529C352.358 266.826 347.021 264.38 346.391 264.787L338.125 270.347L337.903 270.495L333.344 273.572C332.454 274.165 331.602 274.758 330.749 275.351C330.119 275.796 329.526 276.203 328.97 276.648C321.187 282.356 314.737 288.88 315.441 298.665L326.005 318.569L326.042 318.791L328.896 350.371C329.341 354.226 332.677 357.043 336.532 356.857C350.579 356.153 381.232 353.521 380.75 344.181L376.525 319.755Z" fill="#016C94"/>
<path d="M322.897 249.702C323.364 261.462 330.764 263.771 338.415 261.464C346.979 258.904 353.32 250.367 354.905 243.654C357.296 233.396 351.854 225.55 343.323 223.588C323.961 219.08 322.733 245.626 322.897 249.702Z" fill="#FCC1C0"/>
<path d="M350.612 248.739L352.206 271.646C352.28 272.721 351.353 273.795 349.611 274.611C346.572 275.982 342.124 275.982 339.678 274.648C338.677 274.092 338.195 273.388 338.121 272.646C338.084 272.646 336.49 249.777 336.49 249.777L350.612 248.739Z" fill="#FCC1C0"/>
<path d="M341.617 238.14C338.622 240.978 334.636 242.088 331.143 241.373C329.279 241.023 329.418 237.528 328.079 236.091C324.193 232.006 321.855 224.04 327.6 221.255C333.471 218.427 342.225 219.567 345.966 220.924C346.529 221.115 342.605 222.28 343.018 222.738C346.86 226.849 346.224 233.742 341.617 238.14Z" fill="#292D4C"/>
<path d="M331.084 275.205C331.084 275.205 332.455 271.646 334.642 270.497C336.792 269.311 352.026 270.683 351.952 267.94L351.841 266.383L351.692 264.122C351.692 264.122 354.324 264.938 355.288 265.568C356.993 266.754 358.401 269.978 356.288 272.536C350.21 279.838 331.084 275.205 331.084 275.205Z" fill="#036185"/>
<path d="M341.174 255.529L340.571 248.531C340.417 246.685 339.786 244.901 338.756 243.317C337.689 241.723 336.266 240.455 334.548 239.568L328.137 236.298C327.612 242.069 329.304 247.173 333.65 253.532C335.767 256.639 338.209 258.682 340.743 259.674L340.962 258.582C341.188 257.606 341.244 256.546 341.174 255.529Z" fill="#343B65"/>
<path d="M345.927 220.915C337.841 218.727 330.015 224.521 328.394 234.488C328.301 235.115 328.254 235.717 328.18 236.273L334.591 239.543C336.273 240.42 337.732 241.698 338.799 243.292C339.839 244.841 340.434 246.614 340.614 248.506L341.217 255.504C341.323 256.531 341.231 257.581 341.032 258.602L340.813 259.695C345.703 261.632 350.786 259.59 353.873 252.86C355.452 249.294 372.082 227.989 345.927 220.915Z" fill="#292D4C"/>
<path d="M328.905 248.216C326.627 250.249 325.863 253.076 327.192 254.549C328.522 256.022 331.408 255.574 333.685 253.54C335.963 251.507 336.728 248.681 335.398 247.208C334.069 245.734 331.147 246.173 328.905 248.216Z" fill="#FCC1C0"/>
<path d="M325.713 316.199L334.238 299.371L335.461 312.715C335.609 314.308 335.646 315.939 335.535 317.57C334.831 328.838 333.015 337.326 328.307 345.591L325.713 316.199Z" fill="#036185"/>
<path d="M352.248 394.11C352.174 394.554 352.507 394.888 352.804 395.11C353.471 395.629 354.546 395.926 355.695 395.926C356.436 395.926 357.178 395.778 357.771 395.555C358.512 395.259 358.994 394.814 359.031 394.369C359.031 394.295 359.031 359.861 359.031 359.861H352.211V394.11H352.248Z" fill="#033C51"/>
<path d="M355.263 397.154C355.572 397.482 356.04 397.419 356.396 397.318C357.213 397.102 357.52 397.011 358.216 396.097C358.666 395.507 358.997 394.828 359.18 394.221C359.393 393.452 359.331 392.799 359 392.5C358.941 392.455 353 386 353 386L348.866 391.424L355.241 397.183L355.263 397.154Z" fill="#033C51"/>
<path d="M391.576 316.828L387.462 314.641C385.942 313.825 384.126 313.825 382.569 314.641L335.644 339.623C331.901 341.699 328.787 346.554 327.49 352.373L320.077 384.954C319.447 387.696 320.707 390.551 323.153 391.959L327.305 394.072L327.008 389.846C327.194 389.772 327.379 389.772 327.601 389.661L376.379 362.937C380.123 360.861 383.236 356.006 384.533 350.186L391.02 321.646C391.242 320.683 391.316 319.793 391.316 318.903L391.576 316.828Z" fill="#03475F"/>
<path d="M393.686 325.724L387.199 354.264C385.902 360.083 382.789 364.939 379.045 367.015L330.267 393.739C326.227 395.963 322.928 390.996 324.337 384.769L330.823 356.192C332.12 350.372 335.234 345.517 338.977 343.441L387.755 316.754C391.758 314.493 395.057 319.497 393.686 325.724Z" fill="#013244"/>
<path d="M301.946 327.17C295.719 325.502 288.751 323.464 284.933 322.315L282.116 321.462C277.261 321.054 269.959 307.785 267.883 312.159C267.883 312.159 260.618 312.9 263.954 319.942C264.844 321.796 268.884 324.501 271.997 326.021C274.555 327.281 276.371 327.763 278.187 328.06C278.521 328.097 278.817 328.208 279.151 328.245C279.596 328.579 287.824 331.989 297.943 337.178L301.946 327.17Z" fill="#FCC1C0"/>
<path d="M316.102 292.292C316.102 292.292 309.949 322.908 308.763 326.837C308.578 327.467 284.152 320.239 284.152 320.239C280.556 321.944 278.332 328.579 280.037 332.174C280.037 332.174 311.765 347.111 318.103 343.331C324.367 339.624 335.302 305.265 335.524 299.075L329.964 280.802C326.554 282.581 317.14 287.844 316.102 292.292Z" fill="#016C94"/>
</g>
<defs>
<linearGradient id="paint0_linear" x1="44.5933" y1="59.8622" x2="447.411" y2="653.337" gradientUnits="userSpaceOnUse">
<stop stop-color="#D9EFFB"/>
<stop offset="1" stop-color="white"/>
</linearGradient>
<linearGradient id="paint1_linear" x1="363.037" y1="374.649" x2="368.059" y2="399.649" gradientUnits="userSpaceOnUse">
<stop stop-color="#52C3EE"/>
<stop offset="1" stop-color="#038ABD"/>
</linearGradient>
<linearGradient id="paint2_linear" x1="371.217" y1="365.866" x2="378.898" y2="404.102" gradientUnits="userSpaceOnUse">
<stop stop-color="#52C3EE"/>
<stop offset="1" stop-color="#038ABD"/>
</linearGradient>
<linearGradient id="paint3_linear" x1="378.764" y1="360.271" x2="388.907" y2="410.762" gradientUnits="userSpaceOnUse">
<stop stop-color="#52C3EE"/>
<stop offset="1" stop-color="#038ABD"/>
</linearGradient>
<linearGradient id="paint4_linear" x1="386.165" y1="357.763" x2="398.179" y2="417.569" gradientUnits="userSpaceOnUse">
<stop stop-color="#52C3EE"/>
<stop offset="1" stop-color="#038ABD"/>
</linearGradient>
<linearGradient id="paint5_linear" x1="392.636" y1="356.973" x2="406.422" y2="425.602" gradientUnits="userSpaceOnUse">
<stop stop-color="#52C3EE"/>
<stop offset="1" stop-color="#038ABD"/>
</linearGradient>
<linearGradient id="paint6_linear" x1="398.716" y1="356.772" x2="414.472" y2="435.205" gradientUnits="userSpaceOnUse">
<stop stop-color="#52C3EE"/>
<stop offset="1" stop-color="#038ABD"/>
</linearGradient>
<linearGradient id="paint7_linear" x1="405.581" y1="357.943" x2="422.617" y2="442.749" gradientUnits="userSpaceOnUse">
<stop stop-color="#52C3EE"/>
<stop offset="1" stop-color="#038ABD"/>
</linearGradient>
<linearGradient id="paint8_linear" x1="411.76" y1="360.782" x2="430.077" y2="451.96" gradientUnits="userSpaceOnUse">
<stop stop-color="#52C3EE"/>
<stop offset="1" stop-color="#038ABD"/>
</linearGradient>
<linearGradient id="paint9_linear" x1="417.549" y1="364.208" x2="437.244" y2="462.25" gradientUnits="userSpaceOnUse">
<stop stop-color="#52C3EE"/>
<stop offset="1" stop-color="#038ABD"/>
</linearGradient>
<linearGradient id="paint10_linear" x1="423.191" y1="368.175" x2="444.264" y2="473.079" gradientUnits="userSpaceOnUse">
<stop stop-color="#52C3EE"/>
<stop offset="1" stop-color="#038ABD"/>
</linearGradient>
<linearGradient id="paint11_linear" x1="430.45" y1="373.857" x2="451.524" y2="478.761" gradientUnits="userSpaceOnUse">
<stop stop-color="#52C3EE"/>
<stop offset="1" stop-color="#038ABD"/>
</linearGradient>
<linearGradient id="paint12_linear" x1="438.938" y1="379.291" x2="458.633" y2="477.333" gradientUnits="userSpaceOnUse">
<stop stop-color="#52C3EE"/>
<stop offset="1" stop-color="#038ABD"/>
</linearGradient>
<linearGradient id="paint13_linear" x1="447.818" y1="386.687" x2="465.74" y2="475.905" gradientUnits="userSpaceOnUse">
<stop stop-color="#52C3EE"/>
<stop offset="1" stop-color="#038ABD"/>
</linearGradient>
<linearGradient id="paint14_linear" x1="467.35" y1="407.753" x2="479.068" y2="466.088" gradientUnits="userSpaceOnUse">
<stop stop-color="#52C3EE"/>
<stop offset="1" stop-color="#038ABD"/>
</linearGradient>
<linearGradient id="paint15_linear" x1="478.348" y1="426.963" x2="483.174" y2="450.983" gradientUnits="userSpaceOnUse">
<stop stop-color="#52C3EE"/>
<stop offset="1" stop-color="#038ABD"/>
</linearGradient>
<linearGradient id="paint16_linear" x1="457.24" y1="395.505" x2="472.602" y2="471.977" gradientUnits="userSpaceOnUse">
<stop stop-color="#52C3EE"/>
<stop offset="1" stop-color="#038ABD"/>
</linearGradient>
<linearGradient id="paint17_linear" x1="405.582" y1="247.41" x2="-160.161" y2="202.949" gradientUnits="userSpaceOnUse">
<stop stop-color="#29537F"/>
<stop offset="1" stop-color="#262862"/>
</linearGradient>
<linearGradient id="paint18_linear" x1="405.582" y1="247.246" x2="-160.161" y2="202.785" gradientUnits="userSpaceOnUse">
<stop stop-color="#29537F"/>
<stop offset="1" stop-color="#262862"/>
</linearGradient>
<linearGradient id="paint19_linear" x1="405.582" y1="247.129" x2="-160.161" y2="202.668" gradientUnits="userSpaceOnUse">
<stop stop-color="#29537F"/>
<stop offset="1" stop-color="#262862"/>
</linearGradient>
<linearGradient id="paint20_linear" x1="405.582" y1="246.966" x2="-160.161" y2="202.505" gradientUnits="userSpaceOnUse">
<stop stop-color="#29537F"/>
<stop offset="1" stop-color="#262862"/>
</linearGradient>
<linearGradient id="paint21_linear" x1="405.582" y1="246.851" x2="-160.161" y2="202.39" gradientUnits="userSpaceOnUse">
<stop stop-color="#29537F"/>
<stop offset="1" stop-color="#262862"/>
</linearGradient>
<linearGradient id="paint22_linear" x1="405.581" y1="249.008" x2="-160.162" y2="204.548" gradientUnits="userSpaceOnUse">
<stop stop-color="#29537F"/>
<stop offset="1" stop-color="#262862"/>
</linearGradient>
<linearGradient id="paint23_linear" x1="132.806" y1="214.18" x2="167.172" y2="273.848" gradientUnits="userSpaceOnUse">
<stop stop-color="#322F7D"/>
<stop offset="1" stop-color="#262862"/>
</linearGradient>
<linearGradient id="paint24_linear" x1="132.806" y1="214.061" x2="167.172" y2="273.728" gradientUnits="userSpaceOnUse">
<stop stop-color="#322F7D"/>
<stop offset="1" stop-color="#262862"/>
</linearGradient>
<linearGradient id="paint25_linear" x1="269.088" y1="418.378" x2="332.7" y2="527.117" gradientUnits="userSpaceOnUse">
<stop stop-color="#C5BAE3"/>
<stop offset="1" stop-color="#ECE9F6"/>
</linearGradient>
<linearGradient id="paint26_linear" x1="229.995" y1="453.169" x2="361.727" y2="453.169" gradientUnits="userSpaceOnUse">
<stop stop-color="#C1B9E2"/>
<stop offset="0.354839" stop-color="#C1B9E2"/>
<stop offset="0.892473" stop-color="#5659B1"/>
<stop offset="1" stop-color="#5659B1"/>
</linearGradient>
<linearGradient id="paint27_linear" x1="266.688" y1="453.916" x2="300.034" y2="540.675" gradientUnits="userSpaceOnUse">
<stop stop-color="#9FDDFF"/>
<stop offset="1" stop-color="#C4EEFF"/>
</linearGradient>
<linearGradient id="paint28_linear" x1="266.689" y1="392.099" x2="332.746" y2="505.019" gradientUnits="userSpaceOnUse">
<stop stop-color="#ECE9F6"/>
<stop offset="1" stop-color="#C5BAE3"/>
</linearGradient>
<linearGradient id="paint29_linear" x1="266.69" y1="392.099" x2="332.747" y2="505.019" gradientUnits="userSpaceOnUse">
<stop stop-color="#BCE7FF"/>
<stop offset="1" stop-color="#D5F3FF"/>
</linearGradient>
<linearGradient id="paint30_linear" x1="173" y1="13.5" x2="85" y2="498.5" gradientUnits="userSpaceOnUse">
<stop stop-color="white" stop-opacity="0.2"/>
<stop offset="1" stop-color="white"/>
</linearGradient>
<linearGradient id="paint31_linear" x1="316.961" y1="15.2366" x2="266.585" y2="347.739" gradientUnits="userSpaceOnUse">
<stop stop-color="white" stop-opacity="0.2"/>
<stop offset="1" stop-color="white"/>
</linearGradient>
<clipPath id="clip0">
<rect width="651" height="642" fill="white"/>
</clipPath>
</defs>
</svg>
