<svg width="51" height="61" viewBox="0 0 51 61" fill="none" xmlns="http://www.w3.org/2000/svg">
<path d="M2.55704 30.1338C2.0649 30.1338 1.66611 29.7349 1.66611 29.2429V26.1573C1.65198 26.1309 1.63856 26.1041 1.62608 26.0765L0.114948 22.7246C-0.0664444 22.3223 -0.0317574 21.8609 0.207607 21.4901C0.447205 21.1194 0.853588 20.8981 1.2949 20.8981H1.9151V18.3234C1.9151 17.1663 2.85664 16.2248 4.01377 16.2248H4.19267V13.6502C4.19267 12.4931 5.13409 11.5515 6.29122 11.5515H7.05956V6.93475C7.05956 5.61713 8.13152 4.54516 9.44915 4.54516H13.9208V2.8638C13.9208 1.91419 14.6933 1.1417 15.6429 1.1417H20.271L20.9216 0.49108C21.2383 0.174384 21.6593 0 22.107 0H27.9228C28.3707 0 28.7916 0.174384 29.1083 0.49108L29.7589 1.1417H34.3869C35.3366 1.1417 36.1091 1.91419 36.1091 2.8638V4.54516H40.5807C41.8983 4.54516 42.9703 5.61713 42.9703 6.93475V11.5515H43.7386C44.8957 11.5515 45.8372 12.493 45.8372 13.6502V16.2249H46.0161C47.1732 16.2249 48.1147 17.1663 48.1147 18.3235V20.8982H48.7349C49.1762 20.8982 49.5827 21.1195 49.8222 21.4903C50.0617 21.861 50.0964 22.3224 49.9149 22.7247L48.4039 26.0764C48.3338 26.2321 48.2344 26.3687 48.1146 26.4823V39.6684V43.431V46.0743C48.1146 46.5663 47.7158 46.9652 47.2237 46.9652C46.7315 46.9652 46.3328 46.5663 46.3328 46.0743V44.3219H36.1091V59.2181H46.3329V49.8711C46.3329 49.3791 46.7317 48.9802 47.2238 48.9802C47.7159 48.9802 48.1147 49.3791 48.1147 49.8711V59.2181H48.8044C49.2966 59.2181 49.6954 59.617 49.6954 60.109C49.6954 60.6011 49.2966 61 48.8044 61H1.00991C0.517769 61 0.118988 60.6011 0.118988 60.109C0.118988 59.617 0.517769 59.2181 1.00991 59.2181H1.66611V43.4309V39.6683V33.0398C1.66611 32.5478 2.0649 32.1489 2.55704 32.1489C3.04919 32.1489 3.44798 32.5478 3.44798 33.0398V38.7774H13.9208V26.8389H3.44798V29.2428C3.44798 29.7349 3.04908 30.1338 2.55704 30.1338ZM46.9088 25.0572L47.9804 22.6801H2.04933L3.09635 25.0025C3.11892 25.0198 3.14066 25.0381 3.16145 25.0573H46.9088V25.0572ZM46.3329 38.7775V26.839H36.1092V38.7775H46.3329ZM34.3272 2.92355H29.3899C29.1536 2.92355 28.9271 2.82971 28.7598 2.66257L27.8791 1.78186H22.1507L21.27 2.66257C21.1028 2.82971 20.8763 2.92355 20.6399 2.92355H15.7026V4.54516H34.3272V2.92355ZM41.1884 6.93475C41.1884 6.59964 40.9158 6.32702 40.5807 6.32702H9.44926C9.11416 6.32702 8.84153 6.59964 8.84153 6.93475V11.5515H16.8134V9.66943C16.8134 8.77553 17.5407 8.04841 18.4345 8.04841H31.5954C32.4892 8.04841 33.2164 8.77565 33.2164 9.66943V11.5515H41.1883V6.93475H41.1884ZM31.4346 11.5515V9.83015H18.5953V11.5515H31.4346ZM44.0553 13.6502C44.0553 13.4756 43.9132 13.3334 43.7386 13.3334H6.29134C6.11672 13.3334 5.97464 13.4755 5.97464 13.6502V16.2249H44.0553V13.6502ZM46.3329 18.3234C46.3329 18.1488 46.1908 18.0066 46.0161 18.0066H4.01389C3.83915 18.0066 3.69707 18.1487 3.69707 18.3234V20.8981H46.3329V18.3234ZM46.3329 40.5593H32.5455V42.5401H46.3329V40.5593ZM34.3272 44.3218H32.5453V59.218H34.3272V44.3218ZM17.4845 44.3218H15.7026V59.218H17.4845V44.3218ZM13.9208 59.2181V44.3218H3.44798V59.218H13.9208V59.2181ZM3.44798 42.5399H17.4845V40.5592H3.44798V42.5399ZM15.7026 38.7775H17.4845V37.7809C17.4845 36.3812 17.8725 35.0138 18.6065 33.8264C18.8651 33.4079 19.4141 33.2784 19.8326 33.537C20.2511 33.7958 20.3807 34.3448 20.122 34.7633C19.5623 35.6689 19.2663 36.7123 19.2663 37.7808V39.6683V59.218H30.7635V39.6684V37.7809C30.7635 34.6111 28.1847 32.0323 25.0149 32.0323C24.1966 32.0323 23.4043 32.2022 22.66 32.5372C22.211 32.7391 21.6839 32.5391 21.4818 32.0903C21.28 31.6416 21.4799 31.1142 21.9287 30.9122C22.9047 30.4731 23.943 30.2505 25.0149 30.2505C29.1672 30.2505 32.5453 33.6286 32.5453 37.7809V38.7775H34.3272V26.839H15.7026V38.7775Z" fill="#00ADEE"/>
<path d="M41.1498 28.9504C43.1502 28.9504 44.7776 30.5777 44.7776 32.5781C44.7776 34.5784 43.1502 36.2058 41.1498 36.2058C39.1495 36.2058 37.5222 34.5784 37.5222 32.5781C37.5222 30.5777 39.1495 28.9504 41.1498 28.9504ZM41.1498 34.4239C42.1676 34.4239 42.9957 33.5959 42.9957 32.5781C42.9957 31.5603 42.1676 30.7323 41.1498 30.7323C40.1322 30.7323 39.3041 31.5603 39.3041 32.5781C39.3041 33.5959 40.132 34.4239 41.1498 34.4239Z" fill="#FFC700"/>
<path d="M12.5078 32.5782C12.5078 34.5785 10.8804 36.2059 8.88007 36.2059C6.87976 36.2059 5.25245 34.5785 5.25245 32.5782C5.25245 30.5778 6.87976 28.9505 8.88007 28.9505C10.8804 28.9505 12.5078 30.5778 12.5078 32.5782ZM7.03418 32.5782C7.03418 33.596 7.86227 34.424 8.87995 34.424C9.89775 34.424 10.7258 33.596 10.7258 32.5782C10.7258 31.5604 9.89775 30.7324 8.87995 30.7324C7.86227 30.7323 7.03418 31.5604 7.03418 32.5782Z" fill="#FFC700"/>
<path d="M7.99976 11.5V6.5C7.99976 5.94772 8.44747 5.5 8.99976 5.5H40.9998C41.552 5.5 41.9998 5.94772 41.9998 6.5V11.5" stroke="#FFC700" stroke-width="2"/>
<path d="M2.5 39.5H16.5" stroke="#FFC700" stroke-width="2" stroke-linecap="round"/>
<path d="M33 39.5H47" stroke="#FFC700" stroke-width="2" stroke-linecap="round"/>
<path d="M2.5 43.5H16.5" stroke="#FFC700" stroke-width="2" stroke-linecap="round"/>
<path d="M33 43.5H47" stroke="#FFC700" stroke-width="2" stroke-linecap="round"/>
</svg>
