<svg width="68" height="67" viewBox="0 0 68 67" fill="none" xmlns="http://www.w3.org/2000/svg">
<path d="M28.5999 46.5482V47.6967C28.5999 47.7976 28.6054 47.8985 28.6162 47.9966C28.7657 49.3478 29.9115 50.3991 31.3023 50.3991H35.446C36.8369 50.3991 37.9827 49.3478 38.1322 47.9966C38.143 47.8985 38.1484 47.7976 38.1484 47.6967V46.5482C37.7908 46.7076 37.3945 46.7959 36.9774 46.7959H29.771C29.3539 46.7959 28.9576 46.7076 28.5999 46.5482Z" fill="#50758D"/>
<path d="M33.3742 45.8951C33.3742 45.8951 37.7908 46.7076 38.1484 46.5482V47.6967C38.1484 47.7976 38.143 47.8985 38.1322 47.9966C37.9827 49.3479 36.8369 50.3991 35.446 50.3991H34.275C35.4501 50.3991 36.4501 49.6486 36.8223 48.601C36.8852 48.4238 36.7562 48.2372 36.5683 48.2372H29.771C29.3602 48.2372 28.9693 48.1516 28.6162 47.9966C28.6054 47.8985 28.5999 47.7976 28.5999 47.6967V46.5482C28.9576 46.7076 33.3742 45.8951 33.3742 45.8951Z" fill="#2B597F"/>
<path d="M26.8884 43.9134C26.8884 45.088 27.5919 46.0996 28.5999 46.5482C28.9576 46.7077 29.3539 46.7959 29.771 46.7959H36.9774C37.3945 46.7959 37.7908 46.7077 38.1484 46.5482C39.1564 46.0996 39.86 45.088 39.86 43.9134C39.86 43.9134 39.9023 39.703 39.9104 39.5931V39.5895L33.3742 38.6887L26.9127 39.5895L26.8884 43.9134Z" fill="#50758D"/>
<path d="M35.446 46.7959H36.9774C37.3945 46.7959 37.7908 46.7077 38.1484 46.5482C39.1564 46.0996 39.86 45.088 39.86 43.9134C39.86 43.9134 39.9023 39.703 39.9104 39.5931V39.5895H38.379V39.5931C38.3709 39.703 38.3286 43.9134 38.3286 43.9134C38.3286 45.088 37.6251 46.0996 36.6171 46.5482C36.2595 46.7077 35.8632 46.7959 35.446 46.7959Z" fill="#2B597F"/>
<path d="M26.8884 43.8684H29.1855C29.5584 43.8684 29.8611 43.5657 29.8611 43.1928C29.8611 42.8199 29.5584 42.5172 29.1855 42.5172H26.8956L26.892 43.1928L26.8884 43.8684Z" fill="#2B597F"/>
<path d="M31.6627 43.1928C31.6627 43.5657 31.9654 43.8684 32.3383 43.8684H39.8609L39.8762 42.5172H32.3383C31.9654 42.5172 31.6627 42.8199 31.6627 43.1928Z" fill="#2B597F"/>
<path d="M33.4978 13.2113C33.4979 13.2113 33.498 13.2113 33.498 13.2113L33.4978 13.2111C40.4548 13.104 46.3053 19.1675 46.1802 26.0739C46.1802 29.5969 44.7848 32.7902 42.5238 35.1134C41.1915 36.4835 40.0385 37.7501 39.9106 39.5895L26.9129 39.6111C26.84 37.7176 25.7635 36.4385 24.4222 35.0377C22.2044 32.7218 20.8388 29.56 20.8388 26.0739C20.8389 18.9737 26.5049 13.2176 33.4978 13.2113Z" fill="#FFC700"/>
<path d="M26.9129 39.6083V39.611L39.9106 39.5894C40.0385 37.75 41.1915 36.4834 42.5238 35.1133C44.7848 32.7902 46.1802 29.5968 46.1802 26.0738C46.3054 19.1673 40.4547 13.104 33.4978 13.2112C33.2735 13.2112 33.0501 13.2175 32.8285 13.2293C39.3998 13.6103 44.7686 19.4547 44.6488 26.0738C44.6488 29.5968 43.2535 32.7902 40.9924 35.1133C39.6602 36.4834 38.5071 37.75 38.3792 39.5894L26.9129 39.6083Z" fill="#FAA515"/>
<path d="M33.8672 63.0315C25.8867 63.0315 18.381 59.9727 12.7353 54.4199C7.09325 48.8651 3.98438 41.4823 3.98438 33.6306C3.98438 24.2974 8.38113 15.6915 16.0464 10.0161C16.8285 9.43805 17.0659 8.3872 16.6106 7.53549C16.1515 6.67986 15.1281 6.28746 14.2099 6.59375L5.06215 9.59695L6.3228 13.3141L7.26059 13.0078C2.57975 18.8306 0 26.0163 0 33.6306C0 42.5294 3.52139 50.8979 9.91817 57.1915C16.3188 63.4851 24.8207 66.9516 33.8672 66.9516C34.9683 66.9516 35.8594 66.0749 35.8594 64.9915C35.8594 63.9081 34.9683 63.0315 33.8672 63.0315ZM61.6772 53.6858C61.3659 53.7872 61.0507 53.8905 60.7317 53.9939C65.4164 48.1616 68 40.9607 68 33.3693C68 24.4705 64.4786 16.102 58.0818 9.80837C51.6812 3.51476 43.1793 0.0483398 34.1328 0.0483398C33.0317 0.0483398 32.1406 0.925007 32.1406 2.0084C32.1406 3.09178 33.0317 3.96845 34.1328 3.96845C42.1132 3.96845 49.619 7.02718 55.2647 12.58C60.9067 18.1348 64.0156 25.5176 64.0156 33.3693C64.0156 42.4594 59.8095 50.9237 52.4749 56.5894C51.6026 57.2609 51.4558 58.507 52.1519 59.3591C52.5449 59.8376 52.7861 60.1344 53.4865 60.1344C54.6149 60.1344 56.9261 59.3763 62.9377 57.403C63.9806 57.0623 64.5447 55.952 64.1984 54.9241C63.8483 53.8963 62.7199 53.347 61.6772 53.6858Z" fill="#00ADEE"/>
<path d="M33.005 30.7424C32.7116 30.7424 32.455 30.6397 32.235 30.4344C32.0296 30.2144 31.927 29.9577 31.927 29.6644V20.6884C31.927 20.3951 32.0296 20.1384 32.235 19.9184C32.455 19.6984 32.7116 19.5884 33.005 19.5884C33.313 19.5884 33.5696 19.6984 33.775 19.9184C33.9803 20.1384 34.083 20.3951 34.083 20.6884V29.6644C34.083 29.9577 33.9803 30.2144 33.775 30.4344C33.5696 30.6397 33.313 30.7424 33.005 30.7424ZM32.829 34.4384C32.4916 34.4384 32.213 34.3211 31.993 34.0864C31.7876 33.8517 31.685 33.5584 31.685 33.2064C31.685 32.8397 31.817 32.5097 32.081 32.2164C32.345 31.9231 32.6456 31.7764 32.983 31.7764C33.3203 31.7764 33.5916 31.9011 33.797 32.1504C34.017 32.3851 34.127 32.6711 34.127 33.0084C34.127 33.4044 33.995 33.7417 33.731 34.0204C33.467 34.2991 33.1663 34.4384 32.829 34.4384Z" fill="#B73235"/>
</svg>
