<svg width="80" height="45" viewBox="0 0 80 45" fill="none" xmlns="http://www.w3.org/2000/svg">
<rect x="8" y="14" width="64" height="31" rx="10" fill="#005676"/>
<rect width="80" height="39" rx="10" fill="#00ADEE"/>
<path d="M14.9906 7.52794C14.8319 7.36485 14.6419 7.23549 14.432 7.1476C14.222 7.05971 13.9965 7.0151 13.769 7.01644C13.5421 7.01567 13.3174 7.06055 13.1082 7.14843C12.8991 7.2363 12.7098 7.36537 12.5515 7.52794C12.2285 7.86015 12.0477 8.30526 12.0477 8.76864C12.0477 9.23202 12.2285 9.67713 12.5515 10.0093V10.0093C12.7101 10.1711 12.8996 10.2994 13.1087 10.3866C13.3179 10.4737 13.5424 10.5179 13.769 10.5166C13.996 10.5168 14.2208 10.4721 14.4305 10.3851C14.6402 10.298 14.8306 10.1703 14.9906 10.0093V10.0093C15.3133 9.67811 15.4925 9.23314 15.4895 8.77075C15.4918 8.30725 15.3128 7.86122 14.9906 7.52794V7.52794ZM13.769 31.543C13.9963 31.5424 14.2212 31.497 14.4309 31.4092C14.6405 31.3214 14.8308 31.1931 14.9906 31.0315V31.0315C15.3138 30.7023 15.4932 30.2584 15.4895 29.7971C15.494 29.3328 15.3165 28.8851 14.9949 28.5501V28.5501C14.8365 28.3863 14.6466 28.2561 14.4367 28.1675C14.2268 28.0789 14.0011 28.0336 13.7732 28.0344C13.5453 28.0336 13.3196 28.0789 13.1097 28.1675C12.8998 28.2561 12.7099 28.3863 12.5515 28.5501V28.5501C12.2267 28.8819 12.0459 29.3286 12.0485 29.7929C12.0462 30.0217 12.0896 30.2487 12.1759 30.4607C12.2623 30.6726 12.39 30.8652 12.5515 31.0273C12.7098 31.1898 12.8991 31.3189 13.1082 31.4068C13.3174 31.4947 13.5421 31.5395 13.769 31.5388V31.543ZM23.1619 26.2293C23.3827 26.1712 23.5894 26.0689 23.7696 25.9287C23.9498 25.7885 24.0997 25.6132 24.2103 25.4135L24.2399 25.3501C24.4472 24.9491 24.4939 24.4841 24.3706 24.0499C24.2474 23.6156 23.9633 23.2447 23.5762 23.0124H23.5508C23.1534 22.7912 22.6843 22.7368 22.2468 22.8613C21.8092 22.9857 21.439 23.2788 21.2174 23.6761C20.9881 24.0786 20.9256 24.5549 21.0433 25.003C21.1611 25.4511 21.4497 25.8351 21.8473 26.0729V26.0729C22.0429 26.1883 22.2597 26.2632 22.4848 26.2929C22.71 26.3227 22.9388 26.3068 23.1577 26.2462L23.1619 26.2293ZM15.5529 17.4831C15.3235 17.2464 15.0489 17.0581 14.7453 16.9296C14.4418 16.801 14.1155 16.7348 13.7859 16.7348C13.4562 16.7348 13.13 16.801 12.8264 16.9296C12.5229 17.0581 12.2483 17.2464 12.0189 17.4831C11.5493 17.9611 11.2879 18.6055 11.2918 19.2755C11.2882 19.9476 11.5459 20.5948 12.0104 21.0805C12.2413 21.3147 12.5164 21.5006 12.8197 21.6275C13.1231 21.7544 13.4486 21.8198 13.7774 21.8198C14.1062 21.8198 14.4318 21.7544 14.7351 21.6275C15.0385 21.5006 15.3136 21.3147 15.5444 21.0805C16.014 20.5974 16.2751 19.9492 16.2715 19.2755C16.2754 18.6055 16.014 17.9611 15.5444 17.4831H15.5529ZM14.5468 14.4902C15.5335 14.6635 16.4395 15.1461 17.1339 15.8683V15.8683C17.2438 15.9782 17.3495 16.1008 17.4509 16.2234L19.1968 15.1962C18.9312 14.3731 18.954 13.4841 19.2613 12.6757C19.5687 11.8673 20.1423 11.1878 20.8877 10.7491H20.9173C21.3343 10.5048 21.7959 10.3464 22.2751 10.2833C22.7542 10.2201 23.2412 10.2534 23.7073 10.3813C24.1814 10.5126 24.6249 10.7362 25.0123 11.0395C25.3997 11.3427 25.7234 11.7196 25.9646 12.1483V12.1483C26.45 13.025 26.5729 14.0568 26.307 15.0229C26.0554 15.9881 25.4324 16.8147 24.5738 17.3225L24.3371 17.462H24.3118C23.5883 17.8132 22.7694 17.9169 21.9812 17.7573C21.193 17.5977 20.4791 17.1835 19.9492 16.5785L18.2287 17.5592C18.4316 18.0999 18.5362 18.6726 18.5373 19.2501C18.5374 19.8374 18.4329 20.42 18.2287 20.9706L19.9492 21.9767C20.5125 21.3332 21.283 20.9066 22.1274 20.7708C22.9718 20.6349 23.8371 20.7983 24.5738 21.2327L24.6288 21.2623C25.4811 21.7816 26.0953 22.615 26.3388 23.5829C26.5824 24.5508 26.4358 25.5756 25.9308 26.4365L25.9012 26.4999C25.4081 27.3295 24.6126 27.9356 23.6819 28.1908C23.2099 28.3195 22.7169 28.3525 22.232 28.2879C21.747 28.2233 21.2799 28.0624 20.8581 27.8146V27.8146C20.1136 27.3761 19.5406 26.6972 19.2333 25.8897C18.926 25.0822 18.9027 24.1942 19.1672 23.3717L17.4467 22.3572C17.3452 22.4798 17.2395 22.5981 17.1296 22.708C16.4325 23.4241 15.5244 23.8981 14.5383 24.0608V26.0856C15.2444 26.2383 15.8898 26.5956 16.3941 27.1128V27.1128C17.095 27.8246 17.4879 28.7834 17.4879 29.7823C17.4879 30.7813 17.095 31.7401 16.3941 32.4519V32.4519C16.0519 32.8026 15.643 33.0813 15.1914 33.2717C14.7398 33.462 14.2548 33.56 13.7647 33.56C13.2747 33.56 12.7896 33.462 12.3381 33.2717C11.8865 33.0813 11.4776 32.8026 11.1354 32.4519V32.4519C10.4345 31.7401 10.0416 30.7813 10.0416 29.7823C10.0416 28.7834 10.4345 27.8246 11.1354 27.1128V27.1128C11.6403 26.5964 12.2855 26.2393 12.9912 26.0856V24.0608C12.0051 23.8981 11.097 23.4241 10.3998 22.708V22.708C9.50269 21.795 9 20.5661 9 19.2861C9 18.006 9.50269 16.7771 10.3998 15.8641C11.097 15.1458 12.0045 14.6676 12.9912 14.4987V12.4865C12.2872 12.3258 11.6436 11.968 11.1354 11.4551C10.4332 10.7431 10.0395 9.78339 10.0395 8.78343C10.0395 7.78348 10.4332 6.82373 11.1354 6.11181C11.477 5.76001 11.8857 5.48035 12.3374 5.28938C12.789 5.0984 13.2744 5 13.7647 5C14.2551 5 14.7405 5.0984 15.1921 5.28938C15.6438 5.48035 16.0525 5.76001 16.3941 6.11181C17.0903 6.82688 17.4798 7.78545 17.4798 8.78343C17.4798 9.78142 17.0903 10.74 16.3941 11.4551V11.4551C15.8891 11.9678 15.2482 12.3256 14.5468 12.4865V14.4902ZM24.2145 13.146C23.9844 12.7577 23.6135 12.4731 23.1788 12.3512C22.9593 12.2901 22.7297 12.2739 22.5038 12.3036C22.2779 12.3334 22.0603 12.4086 21.8642 12.5246C21.6653 12.6403 21.4915 12.7945 21.3529 12.9781C21.2143 13.1617 21.1136 13.3711 21.0568 13.5941C20.9389 14.0436 21.0011 14.5213 21.2301 14.9256V14.9256C21.3415 15.1214 21.4909 15.2928 21.6694 15.43C21.848 15.5672 22.0522 15.6674 22.27 15.7246C22.4877 15.7869 22.7159 15.8041 22.9406 15.775C23.1652 15.746 23.3815 15.6712 23.5762 15.5555H23.6016C23.9876 15.3179 24.2676 14.9411 24.3836 14.5029C24.5035 14.0526 24.4428 13.5733 24.2145 13.1671V13.1671" fill="white"/>
<path d="M31.8491 13.7547H33.7683V19.7236L36.5287 16.587H38.8326L35.4888 20.2013L38.8452 24.7794H36.6555L33.7683 20.6874V24.7794H31.8491V13.7547Z" fill="white"/>
<path d="M41.073 20.717C41.0656 21.0426 41.1236 21.3664 41.2434 21.6693C41.3632 21.9721 41.5425 22.2479 41.7706 22.4804C41.9987 22.7128 42.2711 22.8973 42.5717 23.0228C42.8722 23.1483 43.1949 23.2123 43.5206 23.2111C43.9664 23.227 44.4071 23.1112 44.7875 22.8781C45.1679 22.6451 45.4713 22.3051 45.6596 21.9006C45.843 21.5436 45.9482 21.1517 45.9682 20.7508C45.9841 20.3557 45.9089 19.9623 45.7483 19.601C45.5643 19.1621 45.2518 18.7892 44.852 18.5312C44.4521 18.2732 43.9836 18.1421 43.5079 18.1553C43.1798 18.1562 42.8552 18.2232 42.5535 18.3522C42.2518 18.4813 41.9792 18.6698 41.752 18.9065C41.5247 19.1432 41.3475 19.4233 41.2308 19.73C41.1142 20.0367 41.0605 20.3637 41.073 20.6916V20.717ZM47.8746 24.7794H45.9555V23.6C45.6749 24.0619 45.2744 24.4391 44.7965 24.6915C44.3186 24.9438 43.7812 25.0618 43.2416 25.033C40.6629 25.033 39.1538 22.987 39.1538 20.6747C39.1538 18.0961 40.9842 16.3333 43.2416 16.3333C43.7826 16.308 44.3204 16.4294 44.7981 16.6847C45.2759 16.9399 45.6757 17.3195 45.9555 17.7833V16.587H47.8746V24.7794Z" fill="white"/>
<path d="M50.056 18.0961H49.0583V16.587H50.056V16.1262C50.056 13.6913 51.8737 13.5476 53.2518 13.5307V15.0229C52.7657 15.0229 51.9836 15.0229 51.9836 16.1727V16.5954H53.2518V18.1046H51.9836V24.7879H50.056V18.0961Z" fill="white"/>
<path d="M54.5535 13.7547H56.4727V19.7236L59.2416 16.6039H61.5454L58.2017 20.2182L61.5581 24.7963H59.3557L56.4685 20.7043V24.7963H54.5493V13.7547" fill="white"/>
<path d="M63.7774 20.717C63.7701 21.0426 63.828 21.3664 63.9478 21.6692C64.0676 21.9721 64.2469 22.2479 64.475 22.4804C64.7032 22.7128 64.9755 22.8972 65.2761 23.0227C65.5766 23.1482 65.8993 23.2123 66.225 23.2111C66.6708 23.227 67.1115 23.1112 67.4919 22.8781C67.8724 22.6451 68.1757 22.3051 68.364 21.9006C68.5493 21.5443 68.6546 21.152 68.6726 20.7508C68.6886 20.3557 68.6134 19.9623 68.4528 19.601C68.2687 19.1621 67.9563 18.7892 67.5564 18.5312C67.1565 18.2732 66.688 18.1421 66.2123 18.1553C65.8842 18.1562 65.5596 18.2231 65.2579 18.3522C64.9562 18.4813 64.6836 18.6698 64.4564 18.9065C64.2291 19.1432 64.0519 19.4233 63.9353 19.73C63.8186 20.0367 63.7649 20.3637 63.7774 20.6916V20.717ZM70.5791 24.7794H68.6557V23.6C68.3745 24.0613 67.9738 24.438 67.496 24.6902C67.0183 24.9425 66.4813 25.0609 65.9418 25.033C63.3631 25.033 61.854 22.987 61.854 20.6747C61.854 18.0961 63.6844 16.3333 65.9418 16.3333C66.4829 16.3071 67.0211 16.4281 67.499 16.6834C67.9769 16.9388 68.3766 17.3188 68.6557 17.7833V16.5869H70.5748V24.7794" fill="white"/>
</svg>
