<svg width="18" height="18" viewBox="0 0 18 18" fill="none" xmlns="http://www.w3.org/2000/svg">
<path d="M9.00619 9.60008C8.29418 9.60008 7.59815 9.38895 7.00614 8.99338C6.41412 8.5978 5.9527 8.03556 5.68022 7.37775C5.40775 6.71993 5.33646 5.99609 5.47536 5.29776C5.61427 4.59943 5.95714 3.95797 6.46061 3.4545C6.96407 2.95103 7.60553 2.60817 8.30386 2.46926C9.0022 2.33035 9.72604 2.40165 10.3838 2.67412C11.0417 2.9466 11.6039 3.40802 11.9995 4.00003C12.3951 4.59205 12.6062 5.28807 12.6062 6.00009C12.6062 6.95486 12.2269 7.87054 11.5518 8.54567C10.8766 9.2208 9.96097 9.60008 9.00619 9.60008ZM9.00619 3.60009C8.53151 3.60009 8.0675 3.74084 7.67282 4.00456C7.27814 4.26827 6.97053 4.6431 6.78888 5.08165C6.60723 5.52019 6.5597 6.00275 6.65231 6.4683C6.74491 6.93386 6.97349 7.3615 7.30913 7.69714C7.64478 8.03279 8.07242 8.26137 8.53797 8.35397C9.00353 8.44657 9.48609 8.39905 9.92463 8.2174C10.3632 8.03575 10.738 7.72813 11.0017 7.33345C11.2654 6.93878 11.4062 6.47476 11.4062 6.00009C11.4062 5.36357 11.1533 4.75312 10.7032 4.30303C10.2532 3.85294 9.64271 3.60009 9.00619 3.60009Z" fill="#00ADEE"/>
<path d="M9.00574 18.0001C7.67521 17.9992 6.36142 17.7033 5.15897 17.1337C3.95651 16.5642 2.8953 15.735 2.05175 14.7061L1.73975 14.3221L2.05175 13.9441C2.89602 12.9165 3.95754 12.0888 5.15995 11.5205C6.36237 10.9522 7.67579 10.6574 9.00574 10.6574C10.3357 10.6574 11.6491 10.9522 12.8515 11.5205C14.0539 12.0888 15.1155 12.9165 15.9597 13.9441L16.2717 14.3221L15.9597 14.7061C15.1162 15.735 14.055 16.5642 12.8525 17.1337C11.6501 17.7033 10.3363 17.9992 9.00574 18.0001ZM3.31175 14.3281C4.04149 15.1093 4.92402 15.7322 5.90456 16.158C6.88511 16.5839 7.94272 16.8036 9.01174 16.8036C10.0808 16.8036 11.1384 16.5839 12.1189 16.158C13.0995 15.7322 13.982 15.1093 14.7117 14.3281C13.982 13.5469 13.0995 12.924 12.1189 12.4982C11.1384 12.0723 10.0808 11.8526 9.01174 11.8526C7.94272 11.8526 6.88511 12.0723 5.90456 12.4982C4.92402 12.924 4.04149 13.5469 3.31175 14.3281Z" fill="#00ADEE"/>
<path d="M9.00601 18C6.96165 18.0014 4.97775 17.3067 3.38082 16.0303C1.78389 14.7539 0.6691 12.9718 0.219929 10.9774C-0.229243 8.98302 0.013972 6.89513 0.909543 5.05737C1.80511 3.21962 3.29967 1.74153 5.14723 0.866367C6.99479 -0.00879256 9.08525 -0.228866 11.0746 0.242369C13.0639 0.713603 14.8334 1.84806 16.0921 3.45903C17.3507 5.07 18.0234 7.06148 17.9994 9.10569C17.9754 11.1499 17.2561 13.125 15.96 14.706C15.1164 15.7349 14.0552 16.5641 12.8528 17.1336C11.6503 17.7032 10.3365 17.9991 9.00601 18ZM9.00601 1.20001C7.46331 1.20001 5.95526 1.65747 4.67256 2.51454C3.38986 3.37162 2.39011 4.58981 1.79975 6.01507C1.20938 7.44034 1.05492 9.00865 1.35588 10.5217C1.65685 12.0348 2.39973 13.4246 3.49057 14.5154C4.58142 15.6063 5.97125 16.3492 7.4843 16.6501C8.99735 16.9511 10.5657 16.7966 11.9909 16.2063C13.4162 15.6159 14.6344 14.6161 15.4915 13.3334C16.3485 12.0507 16.806 10.5427 16.806 9C16.806 6.93131 15.9842 4.94735 14.5214 3.48457C13.0587 2.02179 11.0747 1.20001 9.00601 1.20001Z" fill="#00ADEE"/>
<path d="M2.51416 14.3281C2.51416 14.3281 8.55616 21.0781 14.7062 15.0001L15.4982 14.3281C15.4982 14.3281 10.3622 9.00008 5.14816 12.1981L2.51416 14.3281Z" fill="#00ADEE"/>
<path d="M9.00665 8.99963C10.6635 8.99963 12.0067 7.65649 12.0067 5.99963C12.0067 4.34278 10.6635 2.99963 9.00665 2.99963C7.3498 2.99963 6.00665 4.34278 6.00665 5.99963C6.00665 7.65649 7.3498 8.99963 9.00665 8.99963Z" fill="#00ADEE"/>
</svg>
