<svg width="63" height="64" viewBox="0 0 63 64" fill="none" xmlns="http://www.w3.org/2000/svg">
<path d="M31.4695 63.6674C48.8215 63.6674 62.888 49.415 62.888 31.8337C62.888 14.2524 48.8215 0 31.4695 0C14.1176 0 0.0510254 14.2524 0.0510254 31.8337C0.0510254 49.415 14.1176 63.6674 31.4695 63.6674Z" fill="#00ADEE"/>
<path d="M50.2412 34.3953V47.5205H42.7313V35.275C42.7313 32.2002 41.647 30.1005 38.9279 30.1005C36.8528 30.1005 35.6201 31.5141 35.0757 32.8829C34.878 33.3721 34.8271 34.0514 34.8271 34.7375V47.5199H27.3166C27.3166 47.5199 27.4174 26.7801 27.3166 24.6332H34.8276V27.8765C34.8125 27.902 34.7912 27.927 34.7778 27.9514H34.8276V27.8765C35.8257 26.3204 37.6056 24.0958 41.596 24.0958C46.5369 24.0958 50.2412 27.3668 50.2412 34.3953ZM19.46 13.601C16.891 13.601 15.2102 15.3098 15.2102 17.5548C15.2102 19.7521 16.8422 21.5103 19.3614 21.5103H19.4101C22.0296 21.5103 23.6582 19.7521 23.6582 17.5548C23.6084 15.3098 22.0296 13.601 19.46 13.601ZM15.6566 47.5205H23.1643V24.6332H15.6566V47.5205Z" fill="white"/>
</svg>
