<?xml version="1.0" encoding="UTF-8"?>
<svg width="113px" height="113px" viewBox="0 0 113 113" version="1.1" xmlns="http://www.w3.org/2000/svg" xmlns:xlink="http://www.w3.org/1999/xlink">
    <!-- Generator: Sketch 63.1 (92452) - https://sketch.com -->
    <title>linkedin</title>
    <desc>Created with Sketch.</desc>
    <g id="Page-1" stroke="none" stroke-width="1" fill="none" fill-rule="evenodd">
        <g id="linkedin" fill-rule="nonzero">
            <circle id="Oval" fill="#007AB9" cx="56.098" cy="56.098" r="56.098"></circle>
            <path d="M76.6184367,60.3809995 L76.6184367,75.77 L67.696303,75.77 L67.696303,61.4123447 C67.696303,57.8072943 66.4081196,55.3453736 63.1776804,55.3453736 C60.7124328,55.3453736 59.2479227,57.0028451 58.6011695,58.6077512 C58.3662889,59.1813122 58.305739,59.9777768 58.305739,60.782226 L58.305739,75.7693346 L49.3829399,75.7693346 C49.3829399,75.7693346 49.5027091,51.452212 49.3829399,48.9350644 L58.3064044,48.9350644 L58.3064044,52.7377338 C58.288439,52.7676761 58.2631544,52.796953 58.2471852,52.8255645 L58.3064044,52.8255645 L58.3064044,52.7377338 C59.4921186,50.913251 61.6067089,48.3049458 66.3475697,48.3049458 C72.2175871,48.3049458 76.6184367,52.140219 76.6184367,60.3809995 L76.6184367,60.3809995 Z M40.0489336,36 C36.9968173,36 35,38.0034711 35,40.6357301 C35,43.2120969 36.9389289,45.2734564 39.931826,45.2734564 L39.9897144,45.2734564 C43.1017152,45.2734564 45.0366518,43.2120969 45.0366518,40.6357301 C44.9774327,38.0034711 43.1017152,36 40.0489336,36 L40.0489336,36 Z M35.530311,75.77 L44.4497832,75.77 L44.4497832,48.9350644 L35.530311,48.9350644 L35.530311,75.77 Z" id="Shape" fill="#F1F2F2"></path>
        </g>
    </g>
</svg>