<svg width="100" height="100" viewBox="0 0 100 100" fill="none" xmlns="http://www.w3.org/2000/svg">
<circle cx="50" cy="50" r="50" fill="#005676"/>
<path d="M33.9996 64.7248C35.6709 64.7248 37.3259 64.3956 38.87 63.756C40.4141 63.1164 41.8172 62.1789 42.999 60.9971C44.1808 59.8153 45.1183 58.4123 45.7579 56.8682C46.3974 55.3241 46.7266 53.6691 46.7266 51.9977C46.7266 50.3264 46.3974 48.6714 45.7579 47.1273C45.1183 45.5832 44.1808 44.1802 42.999 42.9984C41.8172 41.8166 40.4141 40.8791 38.87 40.2395C37.3259 39.5999 35.6709 39.2707 33.9996 39.2707C30.6242 39.2707 27.387 40.6116 25.0002 42.9984C22.6135 45.3852 21.2726 48.6223 21.2726 51.9977C21.2726 55.3732 22.6135 58.6103 25.0002 60.9971C27.387 63.3839 30.6242 64.7248 33.9996 64.7248ZM53.9992 51.9977C53.9995 55.0282 55.0811 57.959 57.0495 60.2631C59.0179 62.5672 61.7438 64.0934 64.7369 64.567C67.7301 65.0407 70.794 64.4308 73.3777 62.8471C75.9613 61.2633 77.895 58.8096 78.831 55.9274C79.767 53.0452 79.6438 49.9235 78.4836 47.124C77.3235 44.3245 75.2025 42.0308 72.5021 40.6555C69.8017 39.2802 66.6992 38.9136 63.7527 39.6217C60.8062 40.3297 58.209 42.0659 56.4283 44.5179C55.6027 42.0451 54.3727 39.7264 52.7883 37.6562C55.722 34.8055 59.4593 32.923 63.4962 32.2625C67.5331 31.6019 71.6755 32.1952 75.3648 33.9621C79.054 35.7291 82.1128 38.5849 84.1285 42.1443C86.1442 45.7038 87.0201 49.7957 86.6378 53.8684C86.2556 57.9411 84.6337 61.7986 81.9909 64.9209C79.3481 68.0431 75.8114 70.2799 71.8578 71.3296C67.9042 72.3792 63.7238 72.1913 59.8803 70.7912C56.0368 69.3911 52.715 66.8461 50.3629 63.4993C47.6173 67.4065 43.5642 70.2022 38.9365 71.3811C34.3089 72.5599 29.4122 72.0439 25.1319 69.9265C20.8516 67.8091 17.4701 64.2301 15.5991 59.8365C13.728 55.4429 13.4908 50.5248 14.9303 45.9715C16.3699 41.4182 19.3912 37.5303 23.4478 35.0108C27.5045 32.4913 32.3288 31.5065 37.0484 32.2345C41.768 32.9625 46.0714 35.3552 49.1803 38.98C52.2893 42.6048 53.9986 47.2223 53.9992 51.9977Z" fill="white"/>
</svg>
