<svg width="61" height="76" viewBox="0 0 61 76" fill="none" xmlns="http://www.w3.org/2000/svg">
<circle cx="33.3725" cy="28.4994" r="26.9159" fill="white"/>
<path fill-rule="evenodd" clip-rule="evenodd" d="M0.592773 28.7021C0.592773 12.874 14.011 0 30.4997 0C46.9884 0 60.4067 12.874 60.4067 28.7021C60.4067 51.1919 33.311 74.4132 32.1579 75.3916C31.6827 75.7905 31.0912 75.99 30.4997 75.99C29.9082 75.99 29.3167 75.7905 28.8416 75.3884C27.6885 74.4132 0.592773 51.1919 0.592773 28.7021ZM30.4997 50.6602C43.2872 50.6602 53.6535 40.7829 53.6535 28.5986C53.6535 16.4143 43.2872 6.53698 30.4997 6.53698C17.7122 6.53698 7.34593 16.4143 7.34593 28.5986C7.34593 40.7829 17.7122 50.6602 30.4997 50.6602Z" fill="url(#paint0_linear)"/>
<path d="M10.1099 33V22.35H13.9799C14.8499 22.35 15.6099 22.49 16.2599 22.77C16.9199 23.05 17.4699 23.43 17.9099 23.91C18.3499 24.39 18.6799 24.955 18.8999 25.605C19.1199 26.245 19.2299 26.93 19.2299 27.66C19.2299 28.47 19.1049 29.205 18.8549 29.865C18.6149 30.515 18.2649 31.075 17.8049 31.545C17.3449 32.005 16.7899 32.365 16.1399 32.625C15.4999 32.875 14.7799 33 13.9799 33H10.1099ZM17.1449 27.66C17.1449 27.15 17.0749 26.68 16.9349 26.25C16.7949 25.82 16.5899 25.45 16.3199 25.14C16.0499 24.83 15.7149 24.59 15.3149 24.42C14.9249 24.25 14.4799 24.165 13.9799 24.165H12.1799V31.185H13.9799C14.4899 31.185 14.9399 31.095 15.3299 30.915C15.7299 30.735 16.0599 30.49 16.3199 30.18C16.5899 29.86 16.7949 29.485 16.9349 29.055C17.0749 28.625 17.1449 28.16 17.1449 27.66Z" fill="#005676"/>
<path d="M23.0522 33.15C22.2422 33.15 21.6272 32.89 21.2072 32.37C20.7872 31.85 20.5772 31.08 20.5772 30.06V25.14H22.5872V29.625C22.5872 30.835 23.0222 31.44 23.8922 31.44C24.2822 31.44 24.6572 31.325 25.0172 31.095C25.3872 30.855 25.6872 30.495 25.9172 30.015V25.14H27.9272V30.69C27.9272 30.9 27.9622 31.05 28.0322 31.14C28.1122 31.23 28.2372 31.28 28.4072 31.29V33C28.2072 33.04 28.0372 33.065 27.8972 33.075C27.7672 33.085 27.6472 33.09 27.5372 33.09C27.1772 33.09 26.8822 33.01 26.6522 32.85C26.4322 32.68 26.3022 32.45 26.2622 32.16L26.2172 31.53C25.8672 32.07 25.4172 32.475 24.8672 32.745C24.3172 33.015 23.7122 33.15 23.0522 33.15Z" fill="#005676"/>
<path d="M34.3946 33.15C33.7946 33.15 33.2596 33.015 32.7896 32.745C32.3196 32.475 31.9496 32.105 31.6796 31.635V33H29.9246V22.05H31.9346V26.52C32.2146 26.04 32.5796 25.67 33.0296 25.41C33.4896 25.14 34.0246 25.005 34.6346 25.005C35.1446 25.005 35.6096 25.115 36.0296 25.335C36.4496 25.555 36.8096 25.85 37.1096 26.22C37.4196 26.59 37.6546 27.025 37.8146 27.525C37.9846 28.025 38.0696 28.55 38.0696 29.1C38.0696 29.67 37.9746 30.2 37.7846 30.69C37.6046 31.18 37.3496 31.61 37.0196 31.98C36.6896 32.34 36.2996 32.625 35.8496 32.835C35.3996 33.045 34.9146 33.15 34.3946 33.15ZM33.8396 31.44C34.1596 31.44 34.4546 31.38 34.7246 31.26C34.9946 31.13 35.2246 30.96 35.4146 30.75C35.6046 30.54 35.7496 30.295 35.8496 30.015C35.9596 29.735 36.0146 29.435 36.0146 29.115C36.0146 28.795 35.9646 28.49 35.8646 28.2C35.7646 27.91 35.6196 27.655 35.4296 27.435C35.2496 27.215 35.0346 27.04 34.7846 26.91C34.5346 26.78 34.2596 26.715 33.9596 26.715C33.5096 26.715 33.1046 26.865 32.7446 27.165C32.3946 27.455 32.1246 27.815 31.9346 28.245V30.12C32.0046 30.32 32.1046 30.5 32.2346 30.66C32.3746 30.82 32.5296 30.96 32.6996 31.08C32.8696 31.19 33.0546 31.28 33.2546 31.35C33.4546 31.41 33.6496 31.44 33.8396 31.44Z" fill="#005676"/>
<path d="M41.5765 33.15C41.1965 33.15 40.8415 33.09 40.5115 32.97C40.1815 32.84 39.8965 32.665 39.6565 32.445C39.4165 32.215 39.2265 31.95 39.0865 31.65C38.9565 31.35 38.8915 31.02 38.8915 30.66C38.8915 30.29 38.9715 29.95 39.1315 29.64C39.3015 29.32 39.5315 29.05 39.8215 28.83C40.1215 28.61 40.4765 28.44 40.8865 28.32C41.2965 28.19 41.7465 28.125 42.2365 28.125C42.5865 28.125 42.9265 28.155 43.2565 28.215C43.5965 28.275 43.8965 28.36 44.1565 28.47V28.02C44.1565 27.5 44.0065 27.1 43.7065 26.82C43.4165 26.54 42.9815 26.4 42.4015 26.4C41.9815 26.4 41.5715 26.475 41.1715 26.625C40.7715 26.775 40.3615 26.995 39.9415 27.285L39.3265 26.01C40.3365 25.34 41.4265 25.005 42.5965 25.005C43.7265 25.005 44.6015 25.285 45.2215 25.845C45.8515 26.395 46.1665 27.195 46.1665 28.245V30.69C46.1665 30.9 46.2015 31.05 46.2715 31.14C46.3515 31.23 46.4765 31.28 46.6465 31.29V33C46.3065 33.07 46.0115 33.105 45.7615 33.105C45.3815 33.105 45.0865 33.02 44.8765 32.85C44.6765 32.68 44.5515 32.455 44.5015 32.175L44.4565 31.74C44.1065 32.2 43.6815 32.55 43.1815 32.79C42.6815 33.03 42.1465 33.15 41.5765 33.15ZM42.1465 31.68C42.4865 31.68 42.8065 31.62 43.1065 31.5C43.4165 31.38 43.6565 31.2201 43.8265 31.0201C44.0465 30.8501 44.1565 30.66 44.1565 30.45V29.55C43.9165 29.46 43.6565 29.39 43.3765 29.34C43.0965 29.28 42.8265 29.25 42.5665 29.25C42.0465 29.25 41.6215 29.37 41.2915 29.61C40.9615 29.84 40.7965 30.135 40.7965 30.495C40.7965 30.835 40.9265 31.12 41.1865 31.35C41.4465 31.57 41.7665 31.68 42.1465 31.68Z" fill="#005676"/>
<path d="M48.0447 33V25.14H50.0547V33H48.0447ZM48.0447 24.045V22.05H50.0547V24.045H48.0447Z" fill="#005676"/>
<defs>
<linearGradient id="paint0_linear" x1="4.77332" y1="38.4035" x2="57.0837" y2="38.4035" gradientUnits="userSpaceOnUse">
<stop stop-color="#52C3EE"/>
<stop offset="1" stop-color="#038ABD"/>
</linearGradient>
</defs>
</svg>
