<svg width="61" height="76" viewBox="0 0 61 76" fill="none" xmlns="http://www.w3.org/2000/svg">
<circle cx="33.3725" cy="28.4994" r="26.9159" fill="white"/>
<path fill-rule="evenodd" clip-rule="evenodd" d="M0.592773 28.7021C0.592773 12.874 14.011 0 30.4997 0C46.9884 0 60.4067 12.874 60.4067 28.7021C60.4067 51.1919 33.311 74.4132 32.1579 75.3916C31.6827 75.7905 31.0912 75.99 30.4997 75.99C29.9082 75.99 29.3167 75.7905 28.8416 75.3884C27.6885 74.4132 0.592773 51.1919 0.592773 28.7021ZM30.4997 50.6602C43.2872 50.6602 53.6535 40.7829 53.6535 28.5986C53.6535 16.4143 43.2872 6.53698 30.4997 6.53698C17.7122 6.53698 7.34593 16.4143 7.34593 28.5986C7.34593 40.7829 17.7122 50.6602 30.4997 50.6602Z" fill="url(#paint0_linear)"/>
<path d="M20.61 32.2449C21.1 32.2449 21.51 32.1449 21.84 31.9449C22.18 31.7449 22.45 31.4849 22.65 31.1649C22.86 30.8449 23.005 30.4799 23.085 30.0699C23.175 29.6499 23.22 29.2199 23.22 28.7799V23.3499H25.275V28.7799C25.275 29.5099 25.185 30.1949 25.005 30.8349C24.835 31.4749 24.56 32.0349 24.18 32.5149C23.81 32.9949 23.33 33.3749 22.74 33.6549C22.15 33.9349 21.445 34.0749 20.625 34.0749C19.775 34.0749 19.05 33.9299 18.45 33.6399C17.86 33.3399 17.38 32.9499 17.01 32.4699C16.64 31.9799 16.37 31.4149 16.2 30.7749C16.04 30.1349 15.96 29.4699 15.96 28.7799V23.3499H18.03V28.7799C18.03 29.2299 18.07 29.6649 18.15 30.0849C18.24 30.4949 18.385 30.8599 18.585 31.1799C18.795 31.4999 19.065 31.7599 19.395 31.9599C19.725 32.1499 20.13 32.2449 20.61 32.2449Z" fill="#005676"/>
<path d="M33.705 26.1399C33.635 26.0699 33.505 25.9749 33.315 25.8549C33.135 25.7349 32.91 25.6199 32.64 25.5099C32.38 25.3899 32.095 25.2899 31.785 25.2099C31.475 25.1299 31.16 25.0899 30.84 25.0899C30.27 25.0899 29.845 25.1949 29.565 25.4049C29.285 25.6149 29.145 25.9099 29.145 26.2899C29.145 26.5099 29.195 26.6949 29.295 26.8449C29.405 26.9849 29.56 27.1099 29.76 27.2199C29.96 27.3299 30.21 27.4299 30.51 27.5199C30.82 27.6099 31.175 27.7049 31.575 27.8049C32.095 27.9449 32.565 28.0949 32.985 28.2549C33.415 28.4149 33.775 28.6149 34.065 28.8549C34.365 29.0949 34.595 29.3849 34.755 29.7249C34.915 30.0549 34.995 30.4649 34.995 30.9549C34.995 31.5249 34.885 32.0149 34.665 32.4249C34.455 32.8249 34.165 33.1499 33.795 33.3999C33.435 33.6499 33.015 33.8349 32.535 33.9549C32.065 34.0649 31.57 34.1199 31.05 34.1199C30.25 34.1199 29.46 33.9999 28.68 33.7599C27.9 33.5199 27.2 33.1799 26.58 32.7399L27.495 30.9549C27.585 31.0449 27.745 31.1649 27.975 31.3149C28.215 31.4549 28.495 31.5999 28.815 31.7499C29.135 31.8899 29.49 32.0099 29.88 32.1099C30.27 32.2099 30.67 32.2599 31.08 32.2599C32.22 32.2599 32.79 31.8949 32.79 31.1649C32.79 30.9349 32.725 30.7399 32.595 30.5799C32.465 30.4199 32.28 30.2799 32.04 30.1599C31.8 30.0399 31.51 29.9299 31.17 29.8299C30.83 29.7299 30.45 29.6199 30.03 29.4999C29.52 29.3599 29.075 29.2099 28.695 29.0499C28.325 28.8799 28.015 28.6849 27.765 28.4649C27.515 28.2349 27.325 27.9749 27.195 27.6849C27.075 27.3849 27.015 27.0299 27.015 26.6199C27.015 26.0799 27.115 25.5999 27.315 25.1799C27.515 24.7599 27.79 24.4099 28.14 24.1299C28.5 23.8499 28.915 23.6399 29.385 23.4999C29.855 23.3499 30.36 23.2749 30.9 23.2749C31.65 23.2749 32.34 23.3949 32.97 23.6349C33.6 23.8649 34.15 24.1399 34.62 24.4599L33.705 26.1399Z" fill="#005676"/>
<path d="M39.4134 23.3499H41.2434L45.2934 33.9999H43.1634L42.1734 31.3449H38.4534L37.4784 33.9999H35.3484L39.4134 23.3499ZM41.7984 29.8899L40.3284 25.7049L38.7984 29.8899H41.7984Z" fill="#005676"/>
<defs>
<linearGradient id="paint0_linear" x1="4.77332" y1="38.4035" x2="57.0837" y2="38.4035" gradientUnits="userSpaceOnUse">
<stop stop-color="#52C3EE"/>
<stop offset="1" stop-color="#038ABD"/>
</linearGradient>
</defs>
</svg>
