<svg width="61" height="76" viewBox="0 0 61 76" fill="none" xmlns="http://www.w3.org/2000/svg">
<circle cx="33.3725" cy="28.4994" r="26.9159" fill="white"/>
<path fill-rule="evenodd" clip-rule="evenodd" d="M0.592773 28.7021C0.592773 12.874 14.011 0 30.4997 0C46.9884 0 60.4067 12.874 60.4067 28.7021C60.4067 51.1919 33.311 74.4132 32.1579 75.3916C31.6827 75.7905 31.0912 75.99 30.4997 75.99C29.9082 75.99 29.3167 75.7905 28.8416 75.3884C27.6885 74.4132 0.592773 51.1919 0.592773 28.7021ZM30.4997 50.6602C43.2872 50.6602 53.6535 40.7829 53.6535 28.5986C53.6535 16.4143 43.2872 6.53698 30.4997 6.53698C17.7122 6.53698 7.34593 16.4143 7.34593 28.5986C7.34593 40.7829 17.7122 50.6602 30.4997 50.6602Z" fill="url(#paint0_linear)"/>
<path d="M13.1099 33V22.35H15.1799V33H13.1099Z" fill="#005676"/>
<path d="M24.5119 33H22.5019V28.59C22.5019 27.96 22.3919 27.5 22.1719 27.21C21.9519 26.92 21.6469 26.775 21.2569 26.775C21.0569 26.775 20.8519 26.815 20.6419 26.895C20.4319 26.975 20.2319 27.09 20.0419 27.24C19.8619 27.38 19.6969 27.55 19.5469 27.75C19.3969 27.95 19.2869 28.17 19.2169 28.41V33H17.2069V25.14H19.0219V26.595C19.3119 26.095 19.7319 25.705 20.2819 25.425C20.8319 25.145 21.4519 25.005 22.1419 25.005C22.6319 25.005 23.0319 25.095 23.3419 25.275C23.6519 25.455 23.8919 25.69 24.0619 25.98C24.2319 26.27 24.3469 26.6 24.4069 26.97C24.4769 27.34 24.5119 27.715 24.5119 28.095V33Z" fill="#005676"/>
<path d="M29.5146 33.15C28.9746 33.15 28.4746 33.045 28.0146 32.835C27.5546 32.625 27.1596 32.335 26.8296 31.965C26.4996 31.595 26.2396 31.165 26.0496 30.675C25.8696 30.175 25.7796 29.64 25.7796 29.07C25.7796 28.5 25.8646 27.97 26.0346 27.48C26.2146 26.99 26.4596 26.56 26.7696 26.19C27.0796 25.82 27.4496 25.53 27.8796 25.32C28.3096 25.11 28.7796 25.005 29.2896 25.005C29.8696 25.005 30.3896 25.145 30.8496 25.425C31.3196 25.705 31.6846 26.07 31.9446 26.52V22.05H33.9546V30.69C33.9546 30.9 33.9896 31.05 34.0596 31.14C34.1296 31.23 34.2496 31.28 34.4196 31.29V33C34.0696 33.07 33.7846 33.105 33.5646 33.105C33.2046 33.105 32.9096 33.015 32.6796 32.835C32.4496 32.655 32.3196 32.42 32.2896 32.13L32.2446 31.635C31.9546 32.135 31.5596 32.515 31.0596 32.775C30.5696 33.025 30.0546 33.15 29.5146 33.15ZM30.0396 31.44C30.2296 31.44 30.4246 31.41 30.6246 31.35C30.8246 31.28 31.0096 31.185 31.1796 31.065C31.3496 30.945 31.4996 30.805 31.6296 30.645C31.7696 30.485 31.8746 30.31 31.9446 30.12V28.245C31.8646 28.025 31.7496 27.825 31.5996 27.645C31.4596 27.455 31.2946 27.295 31.1046 27.165C30.9246 27.025 30.7296 26.915 30.5196 26.835C30.3196 26.755 30.1196 26.715 29.9196 26.715C29.6196 26.715 29.3396 26.78 29.0796 26.91C28.8296 27.04 28.6146 27.22 28.4346 27.45C28.2546 27.67 28.1146 27.925 28.0146 28.215C27.9146 28.505 27.8646 28.805 27.8646 29.115C27.8646 29.445 27.9196 29.75 28.0296 30.03C28.1396 30.31 28.2896 30.555 28.4796 30.765C28.6696 30.975 28.8946 31.14 29.1546 31.26C29.4246 31.38 29.7196 31.44 30.0396 31.44Z" fill="#005676"/>
<path d="M35.9276 33V25.14H37.9376V33H35.9276ZM35.9276 24.045V22.05H37.9376V24.045H35.9276Z" fill="#005676"/>
<path d="M41.8958 33.15C41.5158 33.15 41.1608 33.09 40.8308 32.97C40.5008 32.84 40.2158 32.665 39.9758 32.445C39.7358 32.215 39.5458 31.95 39.4058 31.65C39.2758 31.35 39.2108 31.02 39.2108 30.66C39.2108 30.29 39.2908 29.95 39.4508 29.64C39.6208 29.32 39.8508 29.05 40.1408 28.83C40.4408 28.61 40.7958 28.44 41.2058 28.32C41.6158 28.19 42.0658 28.125 42.5558 28.125C42.9058 28.125 43.2458 28.155 43.5758 28.215C43.9158 28.275 44.2158 28.36 44.4758 28.47V28.02C44.4758 27.5 44.3258 27.1 44.0258 26.82C43.7358 26.54 43.3008 26.4 42.7208 26.4C42.3008 26.4 41.8908 26.475 41.4908 26.625C41.0908 26.775 40.6808 26.995 40.2608 27.285L39.6458 26.01C40.6558 25.34 41.7458 25.005 42.9158 25.005C44.0458 25.005 44.9208 25.285 45.5408 25.845C46.1708 26.395 46.4858 27.195 46.4858 28.245V30.69C46.4858 30.9 46.5208 31.05 46.5908 31.14C46.6708 31.23 46.7958 31.28 46.9658 31.29V33C46.6258 33.07 46.3308 33.105 46.0808 33.105C45.7008 33.105 45.4058 33.02 45.1958 32.85C44.9958 32.68 44.8708 32.455 44.8208 32.175L44.7758 31.74C44.4258 32.2 44.0008 32.55 43.5008 32.79C43.0008 33.03 42.4658 33.15 41.8958 33.15ZM42.4658 31.68C42.8058 31.68 43.1258 31.62 43.4258 31.5C43.7358 31.38 43.9758 31.2201 44.1458 31.0201C44.3658 30.8501 44.4758 30.66 44.4758 30.45V29.55C44.2358 29.46 43.9758 29.39 43.6958 29.34C43.4158 29.28 43.1458 29.25 42.8858 29.25C42.3658 29.25 41.9408 29.37 41.6108 29.61C41.2808 29.84 41.1158 30.135 41.1158 30.495C41.1158 30.835 41.2458 31.12 41.5058 31.35C41.7658 31.57 42.0858 31.68 42.4658 31.68Z" fill="#005676"/>
<defs>
<linearGradient id="paint0_linear" x1="4.77332" y1="38.4035" x2="57.0837" y2="38.4035" gradientUnits="userSpaceOnUse">
<stop stop-color="#52C3EE"/>
<stop offset="1" stop-color="#038ABD"/>
</linearGradient>
</defs>
</svg>
