<svg width="541" height="555" viewBox="0 0 541 555" fill="none" xmlns="http://www.w3.org/2000/svg">
<circle cx="424.04" cy="473.133" r="75" fill="#00ADEE"/>
<path d="M63.9569 29.0147C128.598 -27.3193 279.885 21.2813 347.448 52.6234C597.36 152.297 547.996 279.361 496.168 352.434C470.545 388.561 449.854 426.778 297.435 516.599C145.015 606.419 63.0634 500.892 41.1402 436.901C-8.14729 314.03 -16.845 99.4322 63.9569 29.0147Z" fill="url(#paint0_linear)"/>
<path opacity="0.3" d="M448.811 373.175C448.746 373.283 448.638 373.326 448.529 373.326C448.464 373.326 448.421 373.305 448.378 373.283L425.916 360.308C425.179 360.525 424.291 360.525 423.555 360.33L401.44 373.088C402.111 373.608 402.133 374.301 401.505 374.821L423.49 387.535C423.642 387.622 423.685 387.817 423.598 387.969C423.533 388.077 423.425 388.12 423.317 388.12C423.252 388.12 423.208 388.099 423.165 388.077L400.833 375.211C399.923 375.579 398.689 375.579 397.801 375.189L374.862 388.423C375.231 388.922 375.122 389.507 374.537 389.94L397.151 403.001C397.302 403.088 397.346 403.283 397.259 403.434C397.194 403.542 397.086 403.586 396.978 403.586C396.913 403.586 396.869 403.564 396.826 403.542L373.866 390.265C373.129 390.525 372.241 390.568 371.462 390.373L349.931 402.806C350.039 402.849 350.148 402.893 350.256 402.958C351.187 403.499 351.252 404.344 350.451 404.929L372.371 417.557C372.523 417.643 372.566 417.838 372.48 417.99C372.415 418.098 372.306 418.142 372.198 418.142C372.133 418.142 372.09 418.12 372.046 418.098L349.758 405.275C348.761 405.622 347.44 405.557 346.595 405.059C346.487 404.994 346.4 404.95 346.335 404.885L324.285 417.6C324.35 417.643 324.437 417.665 324.502 417.708C325.39 418.228 325.498 419.03 324.783 419.614L347.029 432.437C347.18 432.524 347.224 432.719 347.137 432.871C347.072 432.979 346.964 433.022 346.855 433.022C346.812 433.022 346.747 433.001 346.704 432.979L324.134 419.983C323.137 420.373 321.751 420.329 320.863 419.809C320.798 419.766 320.733 419.723 320.668 419.679L298.098 432.697C298.249 432.762 298.401 432.827 298.531 432.892C299.397 433.39 299.506 434.17 298.899 434.733L321.188 447.578C321.339 447.665 321.383 447.86 321.296 448.011C321.231 448.12 321.123 448.163 321.014 448.163C320.949 448.163 320.906 448.141 320.863 448.12L298.271 435.102C297.253 435.557 295.802 435.513 294.87 434.972C294.74 434.885 294.61 434.798 294.524 434.712L272.105 447.665C272.127 447.686 272.149 447.686 272.17 447.708C272.972 448.163 273.123 448.878 272.647 449.441L295.542 462.632C295.693 462.719 295.737 462.914 295.65 463.065C295.585 463.174 295.477 463.217 295.369 463.217C295.304 463.217 295.26 463.195 295.217 463.174L272.084 449.831C271.087 450.372 269.506 450.351 268.531 449.787C268.51 449.766 268.488 449.766 268.466 449.744L246.243 462.567C246.308 462.589 246.373 462.632 246.438 462.675C247.174 463.109 247.369 463.737 247.022 464.257L270.156 477.599C270.307 477.686 270.351 477.881 270.264 478.033C270.199 478.141 270.091 478.184 269.982 478.184C269.939 478.184 269.874 478.163 269.831 478.141L246.568 464.755C246.546 464.776 246.503 464.798 246.481 464.82C245.485 465.405 243.838 465.405 242.842 464.82C242.777 464.776 242.712 464.755 242.669 464.711L221.182 477.101C221.615 477.578 221.593 478.141 221.095 478.596L244.986 492.35C245.138 492.437 245.181 492.632 245.095 492.783C245.03 492.892 244.921 492.935 244.813 492.935C244.748 492.935 244.705 492.913 244.661 492.892L220.467 478.964C219.665 479.311 218.561 479.354 217.694 479.094L195.297 492.025C195.254 492.047 195.189 492.069 195.146 492.069C195.037 492.069 194.929 492.004 194.864 491.917C194.778 491.765 194.821 491.57 194.972 491.484L216.979 478.791C216.178 478.271 216.135 477.469 216.849 476.906L194.604 464.083C194.019 464.322 193.305 464.387 192.633 464.3L170.128 477.296C170.085 477.318 170.02 477.339 169.976 477.339C169.868 477.339 169.76 477.275 169.695 477.188C169.608 477.036 169.651 476.841 169.803 476.755L191.745 464.105C191.615 464.062 191.485 463.997 191.355 463.932C190.467 463.433 190.359 462.632 191.03 462.047L169.89 449.874C169.132 450.134 168.179 450.134 167.42 449.896L144.374 463.195C144.33 463.217 144.265 463.239 144.222 463.239C144.114 463.239 144.005 463.174 143.941 463.087C143.854 462.935 143.897 462.74 144.049 462.654L166.684 449.592C165.926 449.116 165.818 448.401 166.359 447.86L143.616 434.755C142.901 435.058 141.969 435.102 141.168 434.928L118.468 448.033C118.425 448.055 118.36 448.076 118.316 448.076C118.208 448.076 118.1 448.011 118.035 447.925C117.948 447.773 117.991 447.578 118.143 447.491L140.367 434.647C140.345 434.625 140.302 434.625 140.28 434.603C139.37 434.084 139.283 433.261 139.998 432.697L117.991 420.026C117.125 420.373 115.977 420.394 115.11 420.048L92.7353 432.979C92.6919 433.001 92.627 433.022 92.5836 433.022C92.4753 433.022 92.367 432.957 92.3021 432.871C92.2154 432.719 92.2587 432.524 92.4104 432.437L114.504 419.701C113.833 419.181 113.833 418.488 114.461 417.968L91.9555 404.994C91.1757 405.362 90.0927 405.427 89.2046 405.189L66.8077 418.12C66.7644 418.142 66.6994 418.163 66.6561 418.163C66.5478 418.163 66.4395 418.098 66.3745 418.012C66.2879 417.86 66.3312 417.665 66.4828 417.578L88.4682 404.885C87.5584 404.344 87.5151 403.499 88.3382 402.914L66.3962 390.286C65.5731 390.654 64.4467 390.698 63.537 390.416L41.3784 403.196C41.3351 403.218 41.2701 403.239 41.2268 403.239C41.1185 403.239 41.0102 403.174 40.9452 403.088C40.8586 402.936 40.9019 402.741 41.0535 402.654L62.8439 390.091C62.0641 389.55 62.0424 388.77 62.7789 388.229L40.4687 375.384C39.8838 375.579 39.2124 375.644 38.5625 375.557L15.5592 388.835C15.5158 388.857 15.4509 388.878 15.4076 388.878C15.2992 388.878 15.1909 388.813 15.126 388.727C15.0393 388.575 15.0826 388.38 15.2343 388.293L37.6745 375.341C37.5445 375.297 37.4362 375.232 37.3279 375.167C36.4831 374.669 36.3532 373.933 36.938 373.369L14.866 360.655C14.0429 360.936 13.0249 360.936 12.2235 360.633L-10.7799 373.911C-10.8232 373.933 -10.8882 373.954 -10.9315 373.954C-11.0398 373.954 -11.1481 373.889 -11.2131 373.803C-11.2997 373.651 -11.2564 373.456 -11.1048 373.369L11.552 360.287C10.9022 359.81 10.8372 359.139 11.3571 358.619L-10.8882 345.796C-11.7113 346.164 -12.816 346.186 -13.704 345.904L-36.4259 358.987C-36.4692 359.009 -36.5341 359.03 -36.5775 359.03C-36.6858 359.03 -36.7941 358.965 -36.8591 358.879C-36.9457 358.727 -36.9024 358.532 -36.7508 358.445L-14.4188 345.579C-15.1986 345.059 -15.242 344.258 -14.5055 343.716L-36.7074 330.937C-37.5305 331.392 -38.7652 331.478 -39.7399 331.175L-62.0718 344.085C-62.1151 344.106 -62.1801 344.128 -62.2234 344.128C-62.3317 344.128 -62.44 344.063 -62.505 343.976C-62.5916 343.825 -62.5483 343.63 -62.3967 343.543L-40.433 330.872C-41.2994 330.287 -41.2561 329.42 -40.3464 328.879L-65.754 314.237C-65.9057 314.15 -65.949 313.955 -65.8623 313.803C-65.7757 313.652 -65.5808 313.608 -65.4291 313.695L-39.5882 328.576C-38.6785 328.316 -37.5738 328.402 -36.7941 328.792L-15.1986 316.316C-15.4802 315.796 -15.2636 315.233 -14.5705 314.821C-14.5271 314.8 -14.4838 314.778 -14.4405 314.756L-40.1947 299.941C-40.3464 299.854 -40.3897 299.659 -40.303 299.507C-40.2164 299.356 -40.0215 299.313 -39.8698 299.399L-13.6174 314.496C-13.0759 314.388 -12.4911 314.367 -11.9496 314.475L10.6206 301.435C10.2524 300.894 10.4473 300.266 11.2055 299.832C11.3138 299.767 11.4221 299.724 11.5304 299.681L-13.704 285.125C-13.8557 285.038 -13.899 284.843 -13.8123 284.692C-13.7257 284.54 -13.5308 284.497 -13.3791 284.583L12.4184 299.464C12.9383 299.399 13.4798 299.421 13.9563 299.529L36.8297 286.316C36.6998 285.861 36.938 285.385 37.5445 285.038C37.5662 285.017 37.5878 285.017 37.6095 284.995L12.4401 270.504C12.2885 270.418 12.2451 270.223 12.3318 270.071C12.4184 269.919 12.6134 269.876 12.765 269.963L38.3893 284.735C38.8225 284.627 39.3207 284.605 39.7755 284.648L62.8439 271.327C62.6056 270.851 62.7789 270.331 63.3637 269.941L38.7792 255.775C38.6275 255.688 38.5842 255.494 38.6709 255.342C38.7575 255.19 38.9524 255.147 39.1041 255.234L64.0785 269.616C64.685 269.421 65.3998 269.378 66.0496 269.486L88.5548 256.49C88.3815 256.057 88.5548 255.602 89.053 255.234L64.2302 240.938C64.0785 240.851 64.0352 240.656 64.1219 240.504C64.2085 240.353 64.4034 240.31 64.5551 240.396L89.7461 254.909C90.3309 254.714 91.0024 254.649 91.6522 254.735L113.313 242.216C112.338 241.631 112.338 240.699 113.334 240.136C113.421 240.093 113.529 240.05 113.616 240.006L89.7678 226.23C89.6162 226.144 89.5729 225.949 89.6595 225.797C89.7461 225.645 89.9411 225.602 90.0927 225.689L114.482 239.79C115.327 239.66 116.28 239.768 116.952 240.158L139.738 226.75C139.154 226.187 139.262 225.429 140.128 224.931C140.15 224.931 140.15 224.909 140.172 224.909L115.912 210.916C115.76 210.83 115.717 210.635 115.804 210.483C115.89 210.332 116.085 210.288 116.237 210.375L140.93 224.606C141.688 224.432 142.554 224.454 143.269 224.692L165.341 211.956C164.475 211.393 164.496 210.548 165.363 209.985L141.753 196.361C141.601 196.274 141.558 196.079 141.645 195.927C141.731 195.776 141.926 195.732 142.078 195.819L166.099 209.682C167.031 209.4 168.179 209.465 168.98 209.877L185.918 200.108C186.07 200.021 186.265 200.065 186.352 200.216C186.438 200.368 186.395 200.563 186.243 200.649L169.565 210.288C169.976 210.721 169.976 211.241 169.586 211.674L191.853 224.519C192.85 224.108 194.258 224.173 195.146 224.692C195.211 224.736 195.254 224.757 195.297 224.801L212.474 214.924C212.626 214.837 212.821 214.88 212.907 215.032C212.994 215.183 212.951 215.378 212.799 215.465L195.774 225.277C196.034 225.71 195.926 226.209 195.449 226.599L217.629 239.4C218.561 238.902 219.969 238.88 220.943 239.313L238.228 229.328C238.38 229.241 238.575 229.284 238.662 229.436C238.748 229.588 238.705 229.783 238.553 229.869L221.55 239.681C222.135 240.245 222.048 240.981 221.268 241.458L243.21 254.107C244.207 253.566 245.809 253.587 246.784 254.151C246.893 254.216 247.001 254.281 247.087 254.367L264.784 244.165C264.936 244.078 265.131 244.122 265.217 244.273C265.304 244.425 265.261 244.62 265.109 244.707L247.477 254.887C247.651 255.342 247.456 255.862 246.849 256.23L269.051 269.075C270.026 268.663 271.412 268.685 272.322 269.183L290.56 258.656C290.712 258.569 290.906 258.613 290.993 258.764C291.08 258.916 291.036 259.111 290.885 259.197L272.863 269.594C273.297 270.093 273.232 270.699 272.647 271.154L294.589 283.825C295.585 283.414 297.015 283.457 297.903 283.977C297.924 283.977 297.924 283.999 297.946 283.999L316.596 273.233C316.747 273.147 316.942 273.19 317.029 273.342C317.116 273.493 317.072 273.688 316.921 273.775L298.444 284.432C298.791 284.908 298.683 285.45 298.163 285.883L320.646 298.858C321.621 298.381 323.094 298.381 324.047 298.879L342.935 287.984C343.086 287.897 343.281 287.941 343.368 288.092C343.455 288.244 343.411 288.439 343.26 288.526L324.61 299.269C325.087 299.789 324.978 300.461 324.285 300.937L346.227 313.587C347.245 313.089 348.783 313.11 349.736 313.652C349.78 313.673 349.801 313.695 349.844 313.717L369.101 302.605C369.252 302.518 369.447 302.562 369.534 302.713C369.62 302.865 369.577 303.06 369.426 303.146L350.321 314.172C350.646 314.67 350.494 315.255 349.844 315.666L372.48 328.727C372.501 328.706 372.523 328.706 372.545 328.684C373.519 328.121 375.101 328.099 376.119 328.641L395.57 317.421C395.721 317.334 395.916 317.377 396.003 317.529C396.089 317.681 396.046 317.876 395.895 317.962L376.682 329.052C377.158 329.615 377.007 330.309 376.205 330.763C376.184 330.785 376.162 330.785 376.119 330.807L397.129 342.937C398.126 342.373 399.75 342.373 400.746 342.958C400.898 343.045 401.028 343.153 401.136 343.24L421.107 331.717C421.259 331.63 421.454 331.673 421.54 331.825C421.627 331.976 421.584 332.171 421.432 332.258L401.461 343.781C401.57 344.215 401.353 344.691 400.768 345.038L422.948 357.839C423.923 357.341 425.439 357.341 426.414 357.861L446.797 346.099C446.948 346.012 447.143 346.056 447.23 346.207C447.316 346.359 447.273 346.554 447.121 346.641L426.977 358.272C427.432 358.814 427.302 359.463 426.587 359.918L448.659 372.655C448.854 372.806 448.898 373.001 448.811 373.175ZM374.364 387.969L397.194 374.799C396.631 374.301 396.653 373.629 397.259 373.153L375.014 360.33C374.321 360.59 373.476 360.633 372.718 360.46L349.346 373.954C349.411 374.344 349.216 374.734 348.783 375.037L370.963 387.86C371.96 387.384 373.433 387.427 374.364 387.969ZM242.929 462.697L220.705 449.917C219.795 450.416 218.387 450.459 217.413 450.047L195.687 462.567C195.839 462.979 195.687 463.39 195.254 463.737L217.521 476.56C218.474 476.213 219.73 476.256 220.618 476.69L242.214 464.235C241.932 463.715 242.127 463.13 242.842 462.719C242.864 462.719 242.907 462.697 242.929 462.697ZM-36.1876 330.46L-13.8557 343.326C-12.9026 342.98 -11.6463 343.023 -10.7799 343.456L10.8372 331.002C10.5556 330.504 10.7289 329.94 11.3787 329.529L-10.8232 316.771C-10.8666 316.792 -10.8882 316.814 -10.9315 316.836C-11.9279 317.421 -13.5741 317.421 -14.5705 316.836C-14.6354 316.792 -14.7004 316.749 -14.7654 316.706L-36.2309 329.096C-35.8626 329.507 -35.841 330.027 -36.1876 330.46ZM117.58 241.393L140.063 254.389C141.016 254.151 142.164 254.237 142.944 254.692C143.009 254.735 143.074 254.757 143.117 254.8L165.947 241.652C165.189 241.111 165.189 240.331 165.947 239.768L143.767 226.988C143.746 226.988 143.746 227.01 143.724 227.01C142.793 227.552 141.298 227.595 140.302 227.118L117.385 240.353C117.688 240.678 117.731 241.046 117.58 241.393ZM166.034 212.303L143.941 225.061C144.547 225.494 144.655 226.079 144.309 226.577L166.662 239.465C167.572 239.162 168.742 239.205 169.586 239.595L191.637 226.902C191.572 226.88 191.528 226.837 191.463 226.815C190.575 226.295 190.467 225.494 191.16 224.909L168.98 212.108C168.179 212.519 166.987 212.584 166.034 212.303ZM372.003 329.226L349.151 316.034C348.502 316.251 347.722 316.273 347.029 316.121L324.805 328.944C325.325 329.442 325.303 330.07 324.718 330.568L347.397 343.651C348.263 343.218 349.52 343.175 350.473 343.521L372.523 330.785C371.83 330.352 371.657 329.745 372.003 329.226ZM371.462 358.251L350.321 346.056C349.433 346.337 348.328 346.294 347.527 345.947L324.588 359.182C324.978 359.702 324.827 360.33 324.155 360.763L345.166 372.915C346.184 372.438 347.678 372.46 348.632 373.001C348.805 373.11 348.956 373.218 349.065 373.348L371.938 360.157C371.895 360.135 371.851 360.113 371.83 360.092C370.942 359.615 370.833 358.835 371.462 358.251ZM195.189 433.152L217.738 420.134C217.391 419.658 217.499 419.095 218.041 418.683L195.384 405.622C194.431 406.142 192.936 406.142 191.962 405.665L169.738 418.488C170.496 418.943 170.669 419.614 170.236 420.156L193.088 433.282C193.716 433.066 194.496 433.022 195.189 433.152ZM41.4434 346.077L63.4937 358.77C64.3384 358.467 65.4215 358.467 66.2662 358.77L88.5548 345.904C87.8617 345.363 87.905 344.604 88.6631 344.063L66.6994 331.413C65.6814 331.911 64.1652 331.89 63.2121 331.327C63.1471 331.283 63.1038 331.262 63.0388 331.218L40.7936 344.063C40.9019 344.106 41.0102 344.15 41.0968 344.215C41.9849 344.713 42.0932 345.493 41.4434 346.077ZM143.464 256.36L165.753 269.248C166.706 268.901 167.962 268.945 168.828 269.378L191.702 256.165C191.29 255.71 191.312 255.125 191.81 254.692L169.586 241.891C168.742 242.281 167.55 242.324 166.641 242.021L143.572 255.299C143.767 255.645 143.724 256.013 143.464 256.36ZM346.812 344.063L324.069 330.958C323.224 331.305 322.119 331.305 321.253 331.002L298.206 344.301C298.444 344.734 298.314 345.211 297.859 345.601L320.516 358.684C321.534 358.164 323.094 358.186 324.047 358.749C324.047 358.749 324.069 358.749 324.069 358.77L346.899 345.579C346.4 345.124 346.379 344.518 346.812 344.063ZM217.521 390.156C217.283 389.701 217.413 389.203 217.911 388.813L195.926 376.142C194.929 376.575 193.478 376.532 192.568 376.012C192.395 375.904 192.243 375.795 192.135 375.687L169.673 388.64C169.738 388.662 169.803 388.705 169.868 388.748C170.669 389.203 170.821 389.918 170.345 390.46L192.46 403.218C193.218 403.001 194.128 403.001 194.864 403.239L217.521 390.156ZM92.8436 345.752L115.284 358.684C115.89 358.532 116.583 358.532 117.212 358.662L140.085 345.449C139.977 345.038 140.15 344.604 140.648 344.258L118.36 331.413C117.363 331.781 116.042 331.717 115.154 331.24L92.7353 344.171C93.2984 344.669 93.3201 345.276 92.8436 345.752ZM192.352 286.706L170.604 299.269C171.471 299.854 171.449 300.72 170.518 301.284L192.785 314.107C193.413 313.825 194.214 313.738 194.951 313.847L216.611 301.349C215.637 300.785 215.615 299.897 216.503 299.313L194.258 286.468C193.694 286.684 193.001 286.771 192.352 286.706ZM268.098 329.139L245.636 316.164C244.921 316.533 243.903 316.619 243.037 316.446L221.463 328.901C221.528 328.922 221.593 328.966 221.658 329.009C222.568 329.529 222.654 330.352 221.918 330.915L244.423 343.89C245.03 343.586 245.853 343.478 246.589 343.565L268.293 331.045C267.448 330.504 267.383 329.702 268.098 329.139ZM194.691 373.478L217.868 360.113C217.694 359.723 217.803 359.29 218.192 358.944L195.644 345.969C194.648 346.402 193.196 346.359 192.287 345.839C192.243 345.817 192.222 345.796 192.2 345.774L169.651 358.792C169.76 358.835 169.89 358.9 169.976 358.944C170.799 359.42 170.951 360.135 170.431 360.698L193.023 373.716C193.5 373.521 194.106 373.434 194.691 373.478ZM144.872 345.969L166.922 358.684C167.485 358.51 168.135 358.467 168.763 358.554L191.702 345.319C191.398 344.843 191.507 344.323 192.048 343.911L170.085 331.262C169.088 331.673 167.68 331.63 166.771 331.11C166.706 331.067 166.619 331.023 166.576 330.98L144.005 344.02C144.179 344.085 144.33 344.15 144.482 344.236C145.283 344.669 145.413 345.406 144.872 345.969ZM170.171 328.857C170.258 328.901 170.323 328.922 170.41 328.966C171.298 329.485 171.406 330.287 170.713 330.85L192.698 343.521C193.391 343.262 194.258 343.218 195.016 343.37L217.391 330.46C217.153 330.027 217.261 329.55 217.694 329.182L195.709 316.511C194.713 316.879 193.37 316.814 192.503 316.316C192.395 316.251 192.308 316.186 192.222 316.121L170.171 328.857ZM221.008 358.316L243.578 345.298C243.448 344.951 243.557 344.583 243.86 344.28L221.29 331.283C220.293 331.673 218.907 331.608 218.019 331.11C217.954 331.067 217.889 331.045 217.846 331.002L195.817 343.716C195.861 343.738 195.882 343.76 195.926 343.781C196.792 344.28 196.9 345.059 196.272 345.644L218.799 358.619C219.427 358.272 220.25 358.186 221.008 358.316ZM241.997 314.042L220.12 301.392C219.34 301.782 218.257 301.868 217.348 301.63L195.817 314.063C195.926 314.107 196.055 314.172 196.164 314.215C197.074 314.735 197.16 315.579 196.402 316.164L218.366 328.814C219.037 328.532 219.904 328.467 220.662 328.597L242.257 316.143C242.214 316.121 242.171 316.099 242.127 316.078C241.131 315.536 241.109 314.626 241.997 314.042ZM144.937 314.063C145.695 314.626 145.652 315.428 144.829 315.969L167.117 328.792C167.767 328.532 168.59 328.467 169.327 328.597L191.832 315.623C191.68 315.233 191.788 314.821 192.157 314.475L169.76 301.565C168.85 301.803 167.745 301.738 166.966 301.349L144.937 314.063ZM118.814 329.161C119.702 329.68 119.767 330.504 119.031 331.088L141.363 343.955C141.883 343.781 142.468 343.738 143.052 343.781L166.121 330.46C165.904 330.027 166.012 329.55 166.489 329.182L144.135 316.316C143.247 316.576 142.143 316.533 141.341 316.164L118.814 329.161ZM118.663 360.633L140.843 373.434C141.493 373.283 142.251 373.305 142.879 373.478L165.644 360.352C165.449 359.897 165.644 359.399 166.207 359.03L144.287 346.402C143.269 346.9 141.753 346.857 140.8 346.316C140.648 346.229 140.54 346.142 140.432 346.034L117.991 358.987C118.013 359.009 118.056 359.03 118.078 359.03C118.858 359.442 119.031 360.092 118.663 360.633ZM144.179 375.362L166.879 388.445C167.485 388.272 168.2 388.25 168.85 388.358L191.832 375.102C191.767 374.734 191.94 374.366 192.33 374.063L169.825 361.088C168.807 361.608 167.269 361.586 166.316 361.023C166.207 360.958 166.121 360.893 166.034 360.828L143.616 373.759C144.374 374.193 144.547 374.821 144.179 375.362ZM220.748 388.294L243.578 375.102C243.232 374.647 243.275 374.106 243.752 373.694L221.723 361.001C220.727 361.37 219.384 361.305 218.517 360.806C218.409 360.741 218.344 360.698 218.257 360.633L195.644 373.673C195.839 373.738 196.034 373.824 196.207 373.911C197.074 374.409 197.182 375.189 196.554 375.774L218.582 388.467C219.232 388.207 220.034 388.164 220.748 388.294ZM247.001 373.131L269.268 360.287C268.986 359.875 269.051 359.399 269.441 359.009L247.369 346.294C246.394 346.619 245.116 346.532 244.272 346.056C244.142 345.991 244.033 345.904 243.947 345.817L221.875 358.554C221.983 358.597 222.091 358.64 222.178 358.705C223.088 359.225 223.174 360.07 222.395 360.655L244.38 373.326C245.16 372.98 246.156 372.915 247.001 373.131ZM272.603 358.359L294.156 345.904C294.091 345.861 294.004 345.839 293.939 345.796C293.051 345.276 292.943 344.474 293.657 343.89L271.694 331.197C270.914 331.522 269.896 331.565 269.073 331.327L247.542 343.738C247.672 343.781 247.824 343.846 247.932 343.933C248.885 344.474 248.929 345.363 248.084 345.947L270.047 358.597C270.762 358.251 271.759 358.164 272.603 358.359ZM320.495 328.879L298.509 316.208C297.578 316.576 296.322 316.554 295.434 316.143L272.517 329.356C272.907 329.832 272.842 330.395 272.343 330.828L294.286 343.521C295.282 343.11 296.69 343.175 297.578 343.695C297.643 343.738 297.708 343.781 297.773 343.825L320.581 330.655C319.888 330.135 319.845 329.421 320.495 328.879ZM294.914 314.128L272.408 301.154C271.52 301.587 270.264 301.609 269.333 301.24L246.329 314.518C246.589 314.908 246.524 315.363 246.199 315.731L268.748 328.771C269.723 328.381 271.087 328.446 271.954 328.922L294.827 315.753C294.307 315.255 294.329 314.605 294.914 314.128ZM268.791 299.074L246.871 286.425C245.939 286.858 244.618 286.858 243.687 286.446L220.77 299.681C221.095 300.092 221.073 300.59 220.705 301.002L242.734 313.738C243.708 313.435 244.943 313.522 245.766 313.998C245.809 314.02 245.853 314.042 245.874 314.063L268.705 300.894C268.011 300.352 268.033 299.594 268.791 299.074ZM243.232 284.345L220.943 271.501C220.207 271.76 219.319 271.804 218.539 271.587L195.276 285.017C195.384 285.385 195.232 285.753 194.864 286.078L217.174 298.988C218.149 298.684 219.384 298.771 220.207 299.248L243.037 286.078C242.495 285.515 242.56 284.822 243.232 284.345ZM217.413 269.443L195.384 256.728C194.431 257.075 193.153 257.031 192.308 256.577L169.435 269.789C169.89 270.266 169.846 270.851 169.348 271.306L191.334 284.02C192.33 283.63 193.716 283.695 194.583 284.194C194.734 284.28 194.843 284.367 194.951 284.475L217.781 271.284C217.781 271.284 217.781 271.284 217.759 271.284C216.914 270.786 216.785 270.006 217.413 269.443ZM144.417 284.215C144.59 284.28 144.742 284.345 144.894 284.432C145.89 285.017 145.89 285.948 144.915 286.533L166.857 299.183C167.68 298.728 168.915 298.641 169.89 298.944L191.398 286.533C191.225 286.468 191.074 286.403 190.922 286.316C190.012 285.796 189.926 284.973 190.662 284.388L168.698 271.695C167.897 272.042 166.792 272.085 165.926 271.804L144.417 284.215ZM118.793 299.009C118.923 299.053 119.031 299.118 119.139 299.183C120.114 299.746 120.136 300.634 119.226 301.219L141.19 313.868C142.056 313.435 143.312 313.37 144.265 313.717L166.402 300.937C166.012 300.526 165.991 300.027 166.337 299.594L144.157 286.814C143.204 287.074 142.034 286.966 141.255 286.511C141.103 286.425 140.995 286.338 140.886 286.23L118.793 299.009ZM92.6053 314.15C92.8219 314.215 93.0168 314.302 93.1901 314.41C94.0999 314.93 94.1865 315.774 93.4284 316.338L115.414 329.009C116.193 328.684 117.212 328.619 118.056 328.857L140.713 315.774C140.237 315.32 140.193 314.756 140.626 314.302L118.511 301.565C117.536 301.847 116.302 301.76 115.5 301.305C115.392 301.24 115.284 301.175 115.197 301.11L92.6053 314.15ZM66.6561 329.117C66.7211 329.139 66.7861 329.182 66.8511 329.204C67.6742 329.68 67.8258 330.417 67.2626 330.98L89.3346 343.716C90.201 343.435 91.3057 343.456 92.1288 343.803L114.634 330.807C114.266 330.352 114.309 329.789 114.807 329.356L92.7786 316.663C91.7822 317.031 90.4176 316.966 89.5512 316.468C89.3779 316.359 89.2263 316.251 89.118 316.121L66.6561 329.117ZM67.046 360.806L89.4645 373.694C90.0277 373.543 90.6775 373.521 91.284 373.629L113.876 360.59C113.529 360.048 113.703 359.42 114.461 359.009C114.482 359.009 114.504 358.987 114.504 358.987L92.2587 346.164C91.3707 346.597 90.1143 346.619 89.1829 346.272L66.916 359.139C67.5659 359.615 67.6092 360.287 67.046 360.806ZM92.8869 375.665L115.089 388.423C115.695 388.294 116.367 388.272 116.973 388.423L139.457 375.449C139.024 374.907 139.175 374.214 139.955 373.759C139.977 373.738 140.02 373.738 140.042 373.716L118.143 361.088C118.121 361.088 118.1 361.11 118.1 361.11C117.103 361.695 115.457 361.695 114.461 361.11C114.439 361.088 114.396 361.066 114.374 361.045L92.1288 373.868C92.2154 373.911 92.2804 373.933 92.367 373.976C93.1252 374.452 93.2984 375.124 92.8869 375.665ZM118.446 390.351L141.19 403.434C141.731 403.283 142.338 403.239 142.922 403.326L165.623 390.243C165.341 389.745 165.536 389.182 166.186 388.77L143.724 375.817C143.702 375.839 143.681 375.86 143.637 375.86C142.641 376.445 141.016 376.445 140.02 375.882L117.796 388.705C117.84 388.727 117.861 388.748 117.905 388.77C118.619 389.182 118.814 389.831 118.446 390.351ZM144.634 405.427L166.814 418.185C167.507 418.012 168.308 418.012 168.98 418.185L191.377 405.254C190.857 404.712 190.965 403.997 191.745 403.521L169.803 390.871C168.807 391.413 167.204 391.391 166.229 390.828C166.164 390.784 166.099 390.763 166.056 390.719L143.789 403.564C143.919 403.607 144.027 403.672 144.135 403.737C144.915 404.171 145.088 404.864 144.634 405.427ZM221.095 418.207L243.925 405.037C243.817 404.69 243.925 404.322 244.25 403.997L221.528 390.914C220.532 391.348 219.081 391.304 218.171 390.784C218.106 390.741 218.041 390.698 217.976 390.654L195.579 403.586C196.272 404.041 196.38 404.69 195.926 405.232L218.691 418.358C219.405 418.055 220.315 418.012 221.095 418.207ZM246.936 403.283L269.961 389.983C269.744 389.615 269.809 389.203 270.112 388.857L247.326 375.73C246.329 376.099 244.965 376.034 244.098 375.536L221.571 388.532C221.636 388.575 221.723 388.597 221.788 388.64C222.654 389.138 222.763 389.918 222.135 390.503L244.835 403.586C245.441 403.304 246.221 403.196 246.936 403.283ZM273.21 388.12L295.672 375.146C295.52 374.821 295.585 374.474 295.802 374.171L272.972 361.023C271.997 361.348 270.697 361.283 269.853 360.785C269.809 360.763 269.788 360.741 269.766 360.72L247.759 373.434C248.669 373.954 248.755 374.799 247.997 375.384L270.676 388.445C271.369 388.077 272.343 387.969 273.21 388.12ZM298.791 373.348L320.43 360.85C320.43 360.85 320.408 360.85 320.408 360.828C319.585 360.352 319.433 359.637 319.953 359.095L297.231 345.969C296.56 346.229 295.737 346.294 295 346.164L273.405 358.64C273.448 358.662 273.47 358.684 273.513 358.684C274.466 359.225 274.51 360.092 273.686 360.676L296.343 373.716C296.993 373.348 297.946 373.218 298.791 373.348ZM345.664 314.02L323.592 301.284C322.834 301.522 321.924 301.522 321.144 301.305L299.029 314.063C299.744 314.583 299.766 315.298 299.137 315.839L321.144 328.532C322.076 328.164 323.332 328.186 324.22 328.597L346.249 315.883C346.206 315.861 346.162 315.839 346.119 315.818C345.296 315.32 345.144 314.583 345.664 314.02ZM320.105 299.269L297.535 286.251C296.82 286.533 295.888 286.576 295.087 286.381L272.907 299.183C273.448 299.659 273.47 300.266 272.993 300.742L295.563 313.738C296.387 313.413 297.491 313.392 298.358 313.695L320.43 300.959C319.693 300.504 319.585 299.811 320.105 299.269ZM293.961 284.194L271.997 271.522C271.217 271.825 270.221 271.847 269.419 271.609L247.304 284.367C247.954 284.843 248.019 285.515 247.477 286.035L269.484 298.728C270.351 298.446 271.455 298.468 272.279 298.814L294.307 286.1C294.285 286.1 294.264 286.078 294.264 286.078C293.397 285.558 293.289 284.778 293.961 284.194ZM268.423 269.464L246.069 256.577C245.528 256.728 244.921 256.771 244.358 256.706L221.94 269.638C222.308 270.136 222.2 270.721 221.615 271.154L243.925 284.02C244.748 283.739 245.788 283.739 246.611 284.042L268.683 271.306C267.881 270.764 267.795 270.006 268.423 269.464ZM242.604 254.562L220.488 241.804C219.687 242.042 218.734 242.021 217.954 241.739L195.904 254.475C196.727 255.017 196.77 255.818 196.034 256.382L217.998 269.053C219.016 268.598 220.467 268.641 221.398 269.183C221.398 269.183 221.398 269.183 221.42 269.183L243.449 256.468C243.319 256.425 243.189 256.36 243.08 256.295C242.3 255.818 242.127 255.125 242.604 254.562ZM217.023 239.811L194.756 226.967C194.084 227.227 193.218 227.292 192.46 227.14L170.171 239.963C170.648 240.418 170.648 241.003 170.171 241.479L192.417 254.302C193.218 253.956 194.301 253.891 195.189 254.172L217.283 241.414C216.676 240.938 216.59 240.31 217.023 239.811ZM140.323 257.161L118.706 269.616C118.749 269.638 118.814 269.659 118.858 269.703C119.789 270.244 119.854 271.089 119.074 271.652L141.255 284.432C141.861 284.085 142.684 283.955 143.464 284.02L165.211 271.457C164.41 270.937 164.366 270.136 165.103 269.594L142.944 256.793C142.251 257.205 141.233 257.335 140.323 257.161ZM93.0385 284.388C93.0602 284.41 93.1035 284.41 93.1252 284.432C94.0132 284.952 94.1215 285.753 93.4067 286.338L115.609 299.118C116.258 298.793 117.125 298.663 117.905 298.771L140.54 285.71C140.453 285.428 140.518 285.125 140.735 284.843L118.403 271.977C117.406 272.324 116.085 272.259 115.219 271.76C115.175 271.739 115.11 271.695 115.067 271.674L93.0385 284.388ZM66.8294 299.486C66.9594 299.529 67.0677 299.594 67.176 299.659C67.9991 300.136 68.1507 300.872 67.5875 301.435L89.8328 314.258C90.3526 314.042 91.0024 313.933 91.6306 313.977L114.829 300.569C114.699 300.222 114.764 299.854 115.046 299.551L92.7569 286.706C91.7605 287.096 90.3743 287.053 89.4862 286.533C89.4645 286.511 89.4212 286.49 89.3996 286.468L66.8294 299.486ZM40.7936 314.453C40.7936 314.475 40.8152 314.475 40.7936 314.453C41.5517 314.886 41.7466 315.536 41.3784 316.056L63.7536 328.966C64.3818 328.749 65.1399 328.727 65.833 328.857L88.8147 315.579C88.7498 315.255 88.9014 314.908 89.2263 314.626L67.0027 301.825C65.9846 302.323 64.4684 302.28 63.5153 301.738C63.407 301.673 63.2987 301.609 63.2121 301.544L40.7936 314.453ZM14.9094 329.377C14.9743 329.399 15.0393 329.442 15.0826 329.464C15.8841 329.919 16.0357 330.633 15.5592 331.175L37.8694 344.02C38.4759 343.781 39.234 343.716 39.9271 343.825L62.584 330.742C62.3024 330.265 62.4757 329.724 63.0605 329.312L40.9019 316.533C40.8802 316.554 40.8586 316.554 40.8369 316.576C39.8405 317.161 38.1943 317.161 37.1979 316.576C37.1979 316.576 37.1763 316.576 37.1763 316.554L14.9094 329.377ZM-10.3034 345.363L11.9202 358.164C12.8516 357.731 14.1946 357.709 15.1476 358.142L36.8081 345.644C36.6131 345.211 36.7647 344.756 37.2413 344.388L15.0177 331.608C14.0213 332.15 12.4184 332.128 11.4437 331.565C11.3787 331.522 11.3354 331.5 11.2704 331.457L-10.2384 343.825C-9.7835 344.301 -9.80517 344.908 -10.3034 345.363ZM15.5375 360.243L37.5012 372.893C38.5192 372.416 40.0138 372.46 40.9452 373.001C41.0535 373.066 41.1401 373.131 41.2268 373.196L62.6923 360.806C62.1291 360.287 62.1508 359.593 62.8222 359.095L40.8152 346.446C39.8189 346.879 38.3676 346.835 37.4579 346.316C37.3496 346.251 37.2846 346.207 37.1979 346.142L15.7325 358.532C16.2956 359.052 16.2307 359.745 15.5375 360.243ZM41.1401 374.994L63.4504 387.839C64.3818 387.514 65.6164 387.557 66.4612 387.969L88.0783 375.492C87.8183 374.994 88.0133 374.409 88.7281 373.998L66.4612 361.196C65.5514 361.608 64.2518 361.608 63.3421 361.196L41.66 373.716C41.8116 374.149 41.6383 374.626 41.1401 374.994ZM66.981 389.875L89.0097 402.568C89.9844 402.243 91.2407 402.308 92.0854 402.784L113.638 390.351C113.291 389.81 113.486 389.203 114.222 388.77C114.244 388.748 114.266 388.748 114.287 388.727L92.3454 376.12C91.349 376.705 89.7028 376.705 88.7064 376.12C88.6414 376.077 88.5765 376.034 88.5115 375.99L67.0243 388.38C67.5009 388.835 67.4792 389.42 66.981 389.875ZM92.5403 404.582L115.11 417.578C116.02 417.21 117.233 417.232 118.121 417.6L139.825 405.08C139.63 404.604 139.847 404.084 140.453 403.716L117.948 390.784C117.926 390.806 117.905 390.806 117.883 390.828C116.887 391.413 115.24 391.413 114.244 390.828C114.201 390.806 114.179 390.784 114.136 390.763L92.627 403.174C92.9952 403.629 92.9735 404.171 92.5403 404.582ZM118.684 419.658L140.691 432.329C141.688 431.939 143.074 432.004 143.962 432.502C143.984 432.524 144.027 432.546 144.049 432.567L165.558 420.156C165.124 419.614 165.276 418.943 166.056 418.488L144.092 405.86C143.096 406.423 141.471 406.402 140.496 405.838C140.388 405.773 140.302 405.708 140.215 405.644L118.749 418.033C119.291 418.51 119.269 419.16 118.684 419.658ZM144.287 434.387L166.987 447.448C167.962 446.972 169.413 446.993 170.366 447.491L191.94 435.037C191.658 434.56 191.81 434.019 192.395 433.607L169.716 420.568C168.72 421.131 167.095 421.131 166.099 420.568L144.547 433.001C144.85 433.477 144.764 433.975 144.287 434.387ZM170.604 449.549L191.68 461.679C192.676 461.267 194.106 461.311 195.016 461.831C195.146 461.896 195.232 461.982 195.319 462.047L216.784 449.657C216.135 449.094 216.221 448.315 217.066 447.795L196.012 435.686C194.994 436.163 193.5 436.141 192.547 435.6C192.482 435.578 192.438 435.535 192.395 435.492L170.908 447.903C171.363 448.444 171.276 449.094 170.604 449.549ZM242.625 434.755C241.889 434.214 241.911 433.434 242.69 432.892L221.636 420.762C220.64 421.196 219.189 421.152 218.279 420.633C218.257 420.633 218.257 420.611 218.236 420.611L196.012 433.434C196.077 433.455 196.12 433.499 196.185 433.52C197.03 433.997 197.16 434.755 196.597 435.318L217.824 447.513C218.626 447.296 219.6 447.318 220.358 447.621L242.625 434.755ZM268.726 419.701C268.293 419.225 268.358 418.64 268.899 418.185L247.781 406.012C246.784 406.358 245.485 406.272 244.64 405.795C244.51 405.708 244.402 405.644 244.293 405.557L221.875 418.488C221.896 418.488 221.918 418.51 221.918 418.51C222.784 419.008 222.893 419.788 222.243 420.373L243.362 432.546C244.25 432.242 245.398 432.286 246.221 432.654L268.726 419.701ZM294.827 404.647C294.264 404.171 294.242 403.542 294.762 403.044L273.578 390.849C272.603 391.131 271.39 391.044 270.567 390.59C270.502 390.546 270.437 390.525 270.394 390.481L247.846 403.499C247.997 403.564 248.149 403.629 248.279 403.694C249.21 404.236 249.275 405.102 248.474 405.665L269.549 417.795C270.329 417.47 271.369 417.448 272.214 417.687L294.827 404.647ZM320.495 389.831C320.018 389.377 319.996 388.813 320.43 388.358L299.202 376.12C298.249 376.359 297.101 376.272 296.322 375.817C296.235 375.752 296.148 375.709 296.062 375.644L274.033 388.358C274.098 388.38 274.163 388.423 274.228 388.467C275.203 389.03 275.224 389.94 274.315 390.525L295.369 402.654C296.257 402.243 297.491 402.221 298.401 402.589L320.495 389.831ZM345.556 375.384C345.339 375.319 345.144 375.232 344.971 375.124C344.126 374.647 343.996 373.889 344.581 373.326L323.44 361.11C322.747 361.326 321.924 361.326 321.209 361.153L299.679 373.586C299.787 373.629 299.896 373.673 299.982 373.738C300.979 374.323 300.979 375.254 299.982 375.839L321.014 387.947C321.859 387.514 323.094 387.449 324.047 387.795L345.556 375.384ZM400.746 372.741L422.797 360.005C422.039 359.528 421.909 358.835 422.407 358.294L400.032 345.384C399.577 345.514 399.057 345.558 398.559 345.514L376.032 358.51C376.335 358.987 376.205 359.528 375.664 359.94L397.909 372.763C398.754 372.438 399.88 372.416 400.746 372.741ZM375.36 331.153C374.689 331.305 373.909 331.283 373.238 331.11L351.122 343.868C351.837 344.431 351.816 345.211 351.014 345.731L372.068 357.861C373.086 357.406 374.537 357.449 375.447 357.991C375.49 358.012 375.512 358.034 375.555 358.056L397.627 345.319C397.454 345.254 397.281 345.189 397.129 345.103C396.349 344.648 396.176 343.976 396.631 343.413L375.36 331.153ZM92.4754 254.779C92.6053 254.822 92.7136 254.887 92.8436 254.952C93.6883 255.45 93.8183 256.187 93.2335 256.771L115.479 269.594C116.172 269.27 117.103 269.205 117.905 269.356L139.522 256.923C139.457 256.901 139.392 256.858 139.327 256.815C138.33 256.23 138.33 255.299 139.327 254.714L117.168 241.912C117.103 241.977 117.017 242.021 116.93 242.064C116.15 242.519 114.959 242.606 114.006 242.346L92.4754 254.779ZM66.8511 269.573C66.9377 269.616 67.0243 269.659 67.0893 269.703C67.9124 270.179 68.064 270.894 67.5225 271.457L89.7895 284.28C90.5042 283.977 91.414 283.934 92.2154 284.107L114.591 271.219C114.331 270.807 114.417 270.331 114.829 269.941L92.6053 257.14C91.5873 257.616 90.1144 257.573 89.1613 257.031C89.053 256.966 88.9447 256.901 88.858 256.815L66.8511 269.573ZM40.6636 284.692C40.8369 284.757 40.9885 284.822 41.1401 284.908C41.8983 285.342 42.0715 285.991 41.7033 286.533L64.0785 299.421C64.6417 299.226 65.3132 299.183 65.9413 299.269L88.923 286.035C88.6198 285.58 88.7064 285.06 89.2046 284.648L67.0027 271.847C65.9846 272.345 64.4468 272.324 63.4937 271.782C63.4071 271.739 63.3421 271.695 63.2771 271.631L40.6636 284.692ZM14.6927 299.681C14.7144 299.702 14.7578 299.702 14.7794 299.724C15.4292 300.092 15.6675 300.634 15.4509 301.132L38.021 314.15C38.6492 313.998 39.3856 314.02 40.0138 314.172L62.8222 301.045C62.6489 300.612 62.8222 300.114 63.3637 299.767L41.1835 286.988C41.1618 287.009 41.1401 287.009 41.1185 287.031C40.1221 287.616 38.4759 287.616 37.4795 287.031C37.3279 286.944 37.2196 286.858 37.1113 286.749L14.6927 299.681ZM-11.1698 314.605C-11.1048 314.648 -11.0182 314.67 -10.9532 314.713C-10.2167 315.125 -10.0218 315.753 -10.3684 316.273L12.0719 329.182C12.6784 329.009 13.4148 328.966 14.0646 329.096L36.6348 316.099C36.2232 315.558 36.3965 314.886 37.1763 314.453C37.1979 314.431 37.2196 314.431 37.2629 314.41L15.0826 301.609C14.996 301.674 14.9094 301.738 14.8011 301.803C13.8047 302.388 12.1585 302.388 11.1621 301.803C11.1404 301.782 11.0971 301.76 11.0755 301.738L-11.1698 314.605ZM245.463 462.372L268.011 449.354C267.643 448.834 267.816 448.228 268.51 447.795L246.308 434.993C245.441 435.405 244.228 435.448 243.297 435.123L221.008 447.99C221.571 448.423 221.636 449.008 221.247 449.506L243.708 462.437C244.272 462.285 244.9 462.264 245.463 462.372ZM271.369 447.426L294.221 434.235C294.091 433.824 294.264 433.412 294.719 433.066L272.473 420.243C271.499 420.633 270.177 420.589 269.268 420.113L246.828 433.066C247.326 433.52 247.347 434.127 246.871 434.582L269.203 447.47C269.896 447.275 270.676 447.253 271.369 447.426ZM297.21 432.502L320.256 419.203C320.018 418.77 320.126 418.293 320.581 417.925L298.293 405.102C297.426 405.405 296.3 405.384 295.455 405.037L272.907 418.033C273.73 418.553 273.795 419.333 273.102 419.896L295.369 432.719C295.932 432.502 296.582 432.437 297.21 432.502ZM323.484 417.34L345.946 404.366C345.772 403.976 345.881 403.564 346.249 403.239L323.917 390.373C323.029 390.655 321.903 390.59 321.101 390.221L299.051 402.936C299.722 403.477 299.701 404.214 298.986 404.734L321.231 417.535C321.881 417.275 322.726 417.21 323.484 417.34ZM370.725 390.07C369.837 389.571 369.729 388.792 370.357 388.229L348.09 375.362C347.613 375.514 347.072 375.579 346.552 375.557L324.718 388.142C325.498 388.705 325.455 389.507 324.632 390.048L346.834 402.849C347.483 402.546 348.307 402.459 349.065 402.568L370.725 390.07Z" fill="#D3DAED"/>
<path d="M397.004 382.609C403.302 386.23 403.46 392.214 397.004 395.993L255.921 478.029C249.622 481.65 239.23 481.65 232.932 478.029L90.9041 395.993C84.6057 392.371 84.4483 386.388 90.9041 382.609L231.987 300.573C238.285 296.951 248.678 296.951 254.976 300.573L397.004 382.609Z" fill="#D9D9DC"/>
<path d="M397.004 336.316C403.302 339.938 403.46 345.921 397.004 349.7L255.921 431.736C249.622 435.358 239.23 435.358 232.932 431.736L90.9041 349.7C84.6057 346.079 84.4483 340.095 90.9041 336.316L231.987 254.28C238.285 250.659 248.678 250.659 254.976 254.28L397.004 336.316Z" fill="#FCFCFC"/>
<path d="M398.421 335.528C405.507 339.622 405.664 346.393 398.579 350.487L257.496 432.523C250.41 436.617 238.916 436.617 231.673 432.523L89.4874 350.487C82.4017 346.393 82.2443 339.622 89.3299 335.528L230.413 253.492C237.499 249.398 248.993 249.398 256.236 253.492L398.421 335.528ZM255.921 431.736L397.004 349.7C403.302 346.078 403.302 340.095 397.004 336.316L254.976 254.28C248.678 250.658 238.286 250.658 231.987 254.28L90.9045 336.316C84.6061 339.937 84.6061 345.921 90.9045 349.7L232.932 431.736C239.388 435.357 249.623 435.357 255.921 431.736Z" fill="#FCFCFC"/>
<path d="M403.776 343.086V359.147C403.776 361.824 402.044 364.501 398.423 366.548V350.487C402.044 348.44 403.776 345.763 403.776 343.086Z" fill="#E5E5E5"/>
<path d="M403.777 343.245V359.305C403.777 359.62 403.777 359.935 403.619 360.408V344.347C403.777 343.874 403.777 343.56 403.777 343.245Z" fill="#E5E5E5"/>
<path d="M403.773 344.346V360.407C403.773 360.722 403.615 361.037 403.458 361.509V345.448C403.615 344.976 403.615 344.661 403.773 344.346Z" fill="#E5E5E5"/>
<path d="M403.462 345.289V361.349C403.304 361.664 403.147 361.979 402.989 362.452V346.391C403.147 345.918 403.304 345.603 403.462 345.289Z" fill="#E5E5E5"/>
<path d="M402.987 346.394V362.454C402.83 362.769 402.515 363.242 402.2 363.557V347.496C402.515 347.023 402.673 346.708 402.987 346.394Z" fill="#E5E5E5"/>
<path d="M402.201 347.495V363.556C401.886 364.028 401.571 364.343 401.099 364.816V348.755C401.571 348.282 401.886 347.81 402.201 347.495Z" fill="#E5E5E5"/>
<path d="M401.096 348.597V364.657C400.466 365.287 399.679 365.76 398.734 366.389V350.329C399.679 349.856 400.466 349.227 401.096 348.597Z" fill="#E5E5E5"/>
<path d="M398.736 350.33V366.391L398.578 366.548V350.488C398.578 350.488 398.736 350.33 398.736 350.33Z" fill="#E5E5E5"/>
<path d="M84.1348 359.147V343.086C84.1348 345.763 85.8668 348.597 89.4884 350.644V366.705C85.8668 364.501 84.1348 361.824 84.1348 359.147Z" fill="#E5E5E5"/>
<path d="M89.4884 350.486V366.547C85.8668 364.5 84.1348 361.823 84.1348 358.989V342.928C84.1348 345.605 85.8668 348.439 89.4884 350.486Z" fill="#E5E5E5"/>
<path d="M398.58 350.486V366.547L257.34 448.583V432.522L398.58 350.486Z" fill="#E5E5E5"/>
<path d="M231.672 432.522L231.514 448.583L89.4863 366.547V350.486L231.672 432.522Z" fill="#E5E5E5"/>
<path d="M257.337 432.521V448.582C250.251 452.676 238.757 452.676 231.514 448.582V432.521C238.757 436.615 250.251 436.615 257.337 432.521Z" fill="#E5E5E5"/>
<path d="M257.339 432.521V448.582C256.079 449.212 254.819 449.842 253.402 450.314V434.254C254.819 433.781 256.237 433.151 257.339 432.521Z" fill="#E5E5E5"/>
<path d="M253.401 434.254V450.315C252.298 450.63 251.196 450.945 249.937 451.102V435.042C251.196 434.884 252.298 434.569 253.401 434.254Z" fill="#E5E5E5"/>
<path d="M249.939 435.042V451.103C249.152 451.26 248.364 451.418 247.577 451.418V435.357C248.364 435.357 249.152 435.199 249.939 435.042Z" fill="#E5E5E5"/>
<path d="M247.576 435.515V451.575C246.946 451.575 246.159 451.733 245.529 451.733V435.672C246.317 435.515 246.946 435.515 247.576 435.515Z" fill="#E5E5E5"/>
<path d="M245.527 435.515V451.575C244.897 451.575 244.268 451.575 243.638 451.575V435.515C244.425 435.672 244.897 435.672 245.527 435.515Z" fill="#E5E5E5"/>
<path d="M243.796 435.514V451.575C243.166 451.575 242.536 451.575 242.063 451.418V435.357C242.536 435.514 243.166 435.514 243.796 435.514Z" fill="#E5E5E5"/>
<path d="M241.909 435.514V451.575C241.279 451.575 240.649 451.418 240.177 451.418V435.357C240.807 435.357 241.279 435.514 241.909 435.514Z" fill="#E5E5E5"/>
<path d="M240.172 435.357V451.418C239.543 451.26 238.913 451.26 238.44 451.103V435.042C238.913 435.042 239.543 435.199 240.172 435.357Z" fill="#E5E5E5"/>
<path d="M238.288 435.042V451.102C237.658 450.945 237.028 450.788 236.398 450.63V434.569C237.028 434.727 237.658 434.884 238.288 435.042Z" fill="#E5E5E5"/>
<path d="M236.395 434.57V450.63C235.608 450.473 234.82 450.158 234.19 449.843V433.782C234.978 434.097 235.608 434.255 236.395 434.57Z" fill="#E5E5E5"/>
<path d="M234.19 433.781V449.842C233.246 449.527 232.458 449.055 231.514 448.582V432.521C232.458 432.994 233.246 433.466 234.19 433.781Z" fill="#E5E5E5"/>
<path d="M371.495 336.472V349.383C371.495 351.903 369.921 354.265 366.614 356.154V343.242C369.921 341.51 371.495 338.991 371.495 336.472Z" fill="#E5E5E5"/>
<path d="M371.499 336.63V349.541C371.499 349.856 371.499 350.171 371.342 350.486V337.575C371.499 337.417 371.499 336.945 371.499 336.63Z" fill="#E5E5E5"/>
<path d="M371.495 337.731V350.643C371.495 350.958 371.337 351.273 371.18 351.588V338.676C371.337 338.361 371.337 338.046 371.495 337.731Z" fill="#E5E5E5"/>
<path d="M371.185 338.674V351.585C371.028 351.9 370.87 352.215 370.713 352.53V339.619C370.87 339.304 371.028 338.989 371.185 338.674Z" fill="#E5E5E5"/>
<path d="M370.708 339.621V352.532C370.55 352.847 370.236 353.162 370.078 353.477V340.565C370.236 340.25 370.55 339.936 370.708 339.621Z" fill="#E5E5E5"/>
<path d="M370.079 340.566V353.478C369.764 353.793 369.449 354.265 368.977 354.58V341.669C369.449 341.354 369.764 340.881 370.079 340.566Z" fill="#E5E5E5"/>
<path d="M368.976 341.668V354.58C368.346 355.209 367.716 355.682 366.929 356.154V343.243C367.716 342.77 368.346 342.298 368.976 341.668Z" fill="#E5E5E5"/>
<path d="M366.931 343.243V356.154L366.773 356.312V343.4C366.773 343.4 366.773 343.243 366.931 343.243Z" fill="#E5E5E5"/>
<path d="M117.356 349.384V336.473C117.356 338.992 118.931 341.511 122.238 343.401V356.312C119.089 354.423 117.356 351.904 117.356 349.384Z" fill="#E5E5E5"/>
<path d="M122.396 343.401V356.313C119.089 354.423 117.357 351.904 117.515 349.385V336.473C117.515 338.992 119.089 341.512 122.396 343.401Z" fill="#E5E5E5"/>
<path d="M366.613 343.4V356.312L256.707 420.24V407.329L366.613 343.4Z" fill="#E5E5E5"/>
<path d="M233.091 407.329L232.933 420.24L122.397 356.312V343.4L233.091 407.329Z" fill="#E5E5E5"/>
<path d="M256.709 407.329V420.24C250.253 424.019 239.546 424.019 232.933 420.24V407.329C239.546 411.108 250.253 411.108 256.709 407.329Z" fill="#E5E5E5"/>
<path d="M256.707 407.329V420.24C255.604 420.87 254.345 421.5 253.085 421.815V408.903C254.345 408.431 255.604 407.958 256.707 407.329Z" fill="#E5E5E5"/>
<path d="M253.085 408.903V421.814C252.14 422.129 251.038 422.444 249.936 422.602V409.69C251.038 409.533 252.14 409.218 253.085 408.903Z" fill="#E5E5E5"/>
<path d="M249.936 409.69V422.602C249.306 422.759 248.519 422.759 247.731 422.916V410.005C248.519 409.847 249.149 409.847 249.936 409.69Z" fill="#E5E5E5"/>
<path d="M247.735 410.004V422.916C247.105 422.916 246.476 423.073 245.846 423.073V410.162C246.476 410.004 247.105 410.004 247.735 410.004Z" fill="#E5E5E5"/>
<path d="M245.842 410.004V422.916C245.213 422.916 244.74 422.916 244.11 422.916V410.004C244.74 410.162 245.37 410.162 245.842 410.004Z" fill="#E5E5E5"/>
<path d="M244.111 410.162V423.073C243.481 423.073 243.009 423.073 242.379 422.916V410.004C243.009 410.004 243.639 410.004 244.111 410.162Z" fill="#E5E5E5"/>
<path d="M242.536 410.007V422.918C242.063 422.918 241.433 422.761 240.961 422.761V409.849C241.433 409.849 241.906 410.007 242.536 410.007Z" fill="#E5E5E5"/>
<path d="M240.962 409.849V422.76C240.333 422.603 239.86 422.603 239.23 422.445V409.534C239.703 409.691 240.333 409.691 240.962 409.849Z" fill="#E5E5E5"/>
<path d="M239.232 409.533V422.445C238.602 422.288 238.13 422.13 237.5 421.973V409.061C238.13 409.218 238.602 409.376 239.232 409.533Z" fill="#E5E5E5"/>
<path d="M237.5 409.06V421.972C236.87 421.814 236.083 421.499 235.453 421.342V408.43C236.083 408.745 236.713 408.903 237.5 409.06Z" fill="#E5E5E5"/>
<path d="M235.45 408.431V421.342C234.662 421.028 233.718 420.555 233.088 420.24V407.329C233.718 407.644 234.662 408.116 235.45 408.431Z" fill="#E5E5E5"/>
<path d="M366.616 329.703C373.23 333.482 373.23 339.623 366.616 343.402L256.71 407.33C250.255 411.109 239.547 411.109 232.934 407.33L122.241 343.402C115.627 339.623 115.627 333.482 122.083 329.703L231.989 265.775C238.445 261.996 249.152 261.996 255.766 265.775L366.616 329.703Z" fill="white"/>
<path d="M313.552 174.92C314.811 175.55 314.811 176.81 313.552 177.439C312.292 178.069 310.403 178.069 309.143 177.439C307.883 176.81 307.883 175.55 309.143 174.92C310.403 174.29 312.45 174.29 313.552 174.92Z" fill="#FF812D"/>
<g opacity="0.8333">
<path opacity="0.8333" d="M313.394 178.857C314.496 179.486 314.496 180.431 313.394 181.061C312.292 181.691 310.559 181.691 309.615 181.061C308.513 180.431 308.513 179.486 309.615 178.857C310.559 178.227 312.292 178.227 313.394 178.857Z" fill="#FE9650"/>
</g>
<g opacity="0.6667">
<path opacity="0.6667" d="M313.081 182.635C314.025 183.107 314.025 184.052 313.081 184.524C312.136 184.996 310.719 184.996 309.774 184.524C308.829 184.052 308.829 183.107 309.774 182.635C310.719 182.162 312.136 182.162 313.081 182.635Z" fill="#FEAA72"/>
</g>
<g opacity="0.5">
<path opacity="0.5" d="M312.766 186.415C313.553 186.888 313.553 187.518 312.766 187.99C311.978 188.462 310.719 188.462 309.931 187.99C309.144 187.518 309.144 186.888 309.931 186.415C310.719 185.943 311.978 185.943 312.766 186.415Z" fill="#FEBF95"/>
</g>
<g opacity="0.3333">
<path opacity="0.3333" d="M312.607 190.352C313.237 190.667 313.237 191.297 312.607 191.612C311.977 191.926 310.875 191.926 310.245 191.612C309.615 191.297 309.615 190.667 310.245 190.352C310.875 189.879 311.977 189.879 312.607 190.352Z" fill="#FDD3B7"/>
</g>
<g opacity="0.1667">
<path opacity="0.1667" d="M312.293 194.13C312.766 194.445 312.766 194.917 312.293 195.232C311.821 195.547 311.034 195.547 310.561 195.232C310.089 194.917 310.089 194.445 310.561 194.13C311.034 193.815 311.821 193.815 312.293 194.13Z" fill="#FDE7D9"/>
</g>
<path d="M242.379 115.402C243.166 115.874 243.166 116.661 242.379 116.976C241.592 117.449 240.332 117.449 239.545 116.976C238.757 116.504 238.757 115.717 239.545 115.402C240.332 114.929 241.592 114.929 242.379 115.402Z" fill="#FCCF3A"/>
<g opacity="0.8333">
<path opacity="0.8333" d="M242.221 121.385C242.851 121.857 242.851 122.487 242.221 122.802C241.591 123.274 240.489 123.274 239.859 122.802C239.229 122.329 239.229 121.7 239.859 121.385C240.489 121.07 241.591 121.07 242.221 121.385Z" fill="#FDD75B"/>
</g>
<g opacity="0.6667">
<path opacity="0.6667" d="M242.067 127.367C242.697 127.681 242.697 128.311 242.067 128.626C241.437 128.941 240.65 128.941 240.02 128.626C239.39 128.311 239.39 127.681 240.02 127.367C240.493 127.052 241.437 127.052 242.067 127.367Z" fill="#FDDF7C"/>
</g>
<g opacity="0.5">
<path opacity="0.5" d="M241.906 133.351C242.378 133.665 242.378 134.138 241.906 134.295C241.433 134.61 240.646 134.61 240.174 134.295C239.701 133.98 239.701 133.508 240.174 133.351C240.646 133.193 241.433 133.193 241.906 133.351Z" fill="#FEE79D"/>
</g>
<g opacity="0.3333">
<path opacity="0.3333" d="M241.594 139.493C241.909 139.65 241.909 140.123 241.594 140.28C241.279 140.438 240.649 140.438 240.177 140.28C239.862 140.123 239.862 139.65 240.177 139.493C240.649 139.178 241.279 139.178 241.594 139.493Z" fill="#FEEFBD"/>
</g>
<g opacity="0.1667">
<path opacity="0.1667" d="M241.433 145.474C241.748 145.632 241.748 145.946 241.433 146.104C241.118 146.261 240.646 146.261 240.488 146.104C240.173 145.946 240.173 145.632 240.488 145.474C240.803 145.317 241.275 145.317 241.433 145.474Z" fill="#FEF7DE"/>
</g>
<path d="M317.013 284.354C317.958 284.827 317.958 285.614 317.013 286.086C316.069 286.559 314.651 286.559 313.707 286.086C312.762 285.614 312.762 284.827 313.707 284.354C314.651 283.882 316.069 283.882 317.013 284.354Z" fill="#8BC4FC"/>
<g opacity="0.8333">
<path opacity="0.8333" d="M316.856 287.976C317.644 288.448 317.644 289.078 316.856 289.55C316.069 290.023 314.809 290.023 314.022 289.55C313.235 289.078 313.235 288.448 314.022 287.976C314.809 287.503 316.069 287.503 316.856 287.976Z" fill="#9ECEFD"/>
</g>
<g opacity="0.6667">
<path opacity="0.6667" d="M316.7 291.439C317.33 291.754 317.33 292.384 316.7 292.699C316.07 293.014 314.968 293.014 314.18 292.699C313.551 292.384 313.551 291.754 314.18 291.439C314.81 291.124 315.912 291.124 316.7 291.439Z" fill="#B2D8FD"/>
</g>
<g opacity="0.5">
<path opacity="0.5" d="M316.383 295.062C317.012 295.377 317.012 295.849 316.383 296.164C315.753 296.479 314.965 296.479 314.336 296.164C313.706 295.849 313.706 295.377 314.336 295.062C314.965 294.747 315.91 294.747 316.383 295.062Z" fill="#C5E2FE"/>
</g>
<g opacity="0.3333">
<path opacity="0.3333" d="M316.227 298.525C316.699 298.84 316.699 299.155 316.227 299.47C315.755 299.785 314.967 299.785 314.495 299.47C314.023 299.155 314.023 298.84 314.495 298.525C314.967 298.21 315.755 298.21 316.227 298.525Z" fill="#D8EBFE"/>
</g>
<g opacity="0.1667">
<path opacity="0.1667" d="M316.069 301.989C316.384 302.147 316.384 302.462 316.069 302.619C315.754 302.776 315.124 302.776 314.809 302.619C314.495 302.462 314.495 302.147 314.809 301.989C315.124 301.832 315.754 301.832 316.069 301.989Z" fill="#ECF5FE"/>
</g>
<path d="M178.607 202.002C179.709 202.632 179.709 203.577 178.607 204.207C177.505 204.836 175.773 204.836 174.67 204.207C173.568 203.577 173.568 202.632 174.67 202.002C175.773 201.372 177.505 201.372 178.607 202.002Z" fill="#FCCF3A"/>
<g opacity="0.8333">
<path opacity="0.8333" d="M178.293 207.513C179.238 207.986 179.238 208.931 178.293 209.56C177.348 210.033 175.773 210.033 174.829 209.56C173.884 209.088 173.884 208.143 174.829 207.513C175.931 207.041 177.348 207.041 178.293 207.513Z" fill="#FDD75B"/>
</g>
<g opacity="0.6667">
<path opacity="0.6667" d="M178.136 213.024C178.923 213.497 178.923 214.284 178.136 214.756C177.349 215.229 176.089 215.229 175.144 214.756C174.357 214.284 174.357 213.497 175.144 213.024C175.931 212.552 177.349 212.552 178.136 213.024Z" fill="#FDDF7C"/>
</g>
<g opacity="0.5">
<path opacity="0.5" d="M177.82 218.537C178.449 218.852 178.449 219.482 177.82 219.955C177.19 220.269 176.088 220.269 175.458 219.955C174.828 219.64 174.828 219.01 175.458 218.537C176.088 218.065 177.19 218.065 177.82 218.537Z" fill="#FEE79D"/>
</g>
<g opacity="0.3333">
<path opacity="0.3333" d="M177.662 224.048C178.134 224.363 178.134 224.835 177.662 225.15C177.189 225.465 176.245 225.465 175.772 225.15C175.3 224.835 175.3 224.363 175.772 224.048C176.245 223.733 177.032 223.733 177.662 224.048Z" fill="#FEEFBD"/>
</g>
<g opacity="0.1667">
<path opacity="0.1667" d="M177.348 229.559C177.663 229.717 177.82 230.189 177.348 230.347C177.033 230.504 176.403 230.504 175.931 230.347C175.616 230.189 175.459 229.717 175.931 229.559C176.403 229.245 177.033 229.245 177.348 229.559Z" fill="#FEF7DE"/>
</g>
<path d="M264.263 241.21C265.838 242.154 265.838 243.571 264.263 244.359C262.689 245.303 260.327 245.303 258.752 244.359C257.178 243.414 257.178 241.997 258.752 241.21C260.169 240.265 262.689 240.265 264.263 241.21Z" fill="#FCCF3A"/>
<g opacity="0.8333">
<path opacity="0.8333" d="M263.792 247.508C265.209 248.296 265.209 249.555 263.792 250.343C262.532 251.13 260.328 251.13 258.911 250.343C257.493 249.555 257.493 248.296 258.911 247.508C260.328 246.721 262.532 246.721 263.792 247.508Z" fill="#FDD75B"/>
</g>
<g opacity="0.6667">
<path opacity="0.6667" d="M263.478 253.807C264.58 254.437 264.58 255.539 263.478 256.169C262.376 256.798 260.486 256.798 259.384 256.169C258.282 255.539 258.282 254.437 259.384 253.807C260.486 253.019 262.376 253.019 263.478 253.807Z" fill="#FDDF7C"/>
</g>
<g opacity="0.5">
<path opacity="0.5" d="M263.163 260.105C264.108 260.577 264.108 261.522 263.163 262.152C262.218 262.782 260.644 262.624 259.699 262.152C258.754 261.679 258.754 260.735 259.699 260.105C260.644 259.475 262.218 259.475 263.163 260.105Z" fill="#FEE79D"/>
</g>
<g opacity="0.3333">
<path opacity="0.3333" d="M262.85 266.403C263.638 266.875 263.638 267.505 262.85 267.978C262.063 268.45 260.961 268.45 260.173 267.978C259.386 267.505 259.386 266.875 260.173 266.403C260.961 265.931 262.063 265.931 262.85 266.403Z" fill="#FEEFBD"/>
</g>
<g opacity="0.1667">
<path opacity="0.1667" d="M262.537 272.702C263.167 273.017 263.167 273.489 262.537 273.804C261.907 274.119 261.12 274.119 260.49 273.804C259.86 273.489 259.86 273.017 260.49 272.702C260.962 272.387 261.907 272.387 262.537 272.702Z" fill="#FEF7DE"/>
</g>
<path d="M311.817 58.5589C312.762 59.0312 312.762 59.8185 311.817 60.2909C310.872 60.7633 309.455 60.7633 308.51 60.2909C307.566 59.8185 307.566 59.0312 308.51 58.5589C309.455 58.0865 311.03 58.0865 311.817 58.5589Z" fill="#8BC4FC"/>
<g opacity="0.8333">
<path opacity="0.8333" d="M311.659 68.4793C312.446 68.9517 312.446 69.5815 311.659 70.0539C310.872 70.5262 309.612 70.5262 308.825 70.0539C308.038 69.5815 308.038 68.9517 308.825 68.4793C309.612 68.0069 310.872 68.0069 311.659 68.4793Z" fill="#9ECEFD"/>
</g>
<g opacity="0.6667">
<path opacity="0.6667" d="M311.503 78.3963C312.133 78.7113 312.133 79.3411 311.503 79.656C310.874 79.9709 309.771 79.9709 308.984 79.656C308.354 79.3411 308.354 78.7113 308.984 78.3963C309.614 78.0814 310.874 78.0814 311.503 78.3963Z" fill="#B2D8FD"/>
</g>
<g opacity="0.5">
<path opacity="0.5" d="M311.348 88.3172C311.978 88.6322 311.978 89.1045 311.348 89.4195C310.719 89.7344 309.931 89.7344 309.301 89.4195C308.672 89.1045 308.672 88.6322 309.301 88.3172C309.774 88.0023 310.719 88.0023 311.348 88.3172Z" fill="#C5E2FE"/>
</g>
<g opacity="0.3333">
<path opacity="0.3333" d="M311.031 98.2372C311.503 98.5522 311.503 98.8671 311.031 99.182C310.558 99.4969 309.771 99.4969 309.299 99.182C308.826 98.8671 308.826 98.5522 309.299 98.2372C309.928 98.0798 310.558 98.0798 311.031 98.2372Z" fill="#D8EBFE"/>
</g>
<g opacity="0.1667">
<path opacity="0.1667" d="M310.872 108.157C311.187 108.315 311.187 108.63 310.872 108.787C310.557 108.944 309.927 108.944 309.612 108.787C309.297 108.63 309.297 108.315 309.612 108.157C309.927 108 310.557 108 310.872 108.157Z" fill="#ECF5FE"/>
</g>
<path d="M328.193 328.443C332.602 330.962 332.759 335.214 328.193 337.891L251.825 382.294C247.417 384.813 240.173 384.813 235.607 382.294L158.767 337.733C154.358 335.214 154.201 330.962 158.767 328.286L235.135 283.882C239.544 281.363 246.787 281.363 251.353 283.882L328.193 328.443Z" fill="url(#paint1_linear)"/>
<path d="M181.285 107.844C182.229 108.316 182.229 109.103 181.285 109.576C180.34 110.048 178.923 110.048 177.978 109.576C177.033 109.103 177.033 108.316 177.978 107.844C178.923 107.371 180.34 107.371 181.285 107.844Z" fill="#8BC4FC"/>
<g opacity="0.8333">
<path opacity="0.8333" d="M181.128 113.983C181.915 114.455 181.915 115.085 181.128 115.557C180.341 116.03 179.081 116.03 178.294 115.557C177.506 115.085 177.506 114.455 178.294 113.983C178.923 113.668 180.341 113.668 181.128 113.983Z" fill="#9ECEFD"/>
</g>
<g opacity="0.6667">
<path opacity="0.6667" d="M180.816 120.282C181.446 120.597 181.446 121.226 180.816 121.541C180.186 121.856 179.084 121.856 178.297 121.541C177.667 121.226 177.667 120.597 178.297 120.282C179.084 119.967 180.186 119.967 180.816 120.282Z" fill="#B2D8FD"/>
</g>
<g opacity="0.5">
<path opacity="0.5" d="M180.654 126.424C181.284 126.739 181.284 127.212 180.654 127.526C180.024 127.841 179.237 127.841 178.607 127.526C177.977 127.212 177.977 126.739 178.607 126.424C179.237 126.267 180.024 126.267 180.654 126.424Z" fill="#C5E2FE"/>
</g>
<g opacity="0.3333">
<path opacity="0.3333" d="M180.498 132.722C180.971 133.037 180.971 133.352 180.498 133.667C180.026 133.982 179.239 133.982 178.766 133.667C178.294 133.352 178.294 133.037 178.766 132.722C179.239 132.407 180.026 132.564 180.498 132.722Z" fill="#D8EBFE"/>
</g>
<g opacity="0.1667">
<path opacity="0.1667" d="M180.341 139.02C180.656 139.177 180.656 139.492 180.341 139.65C180.026 139.807 179.396 139.807 179.081 139.65C178.766 139.492 178.766 139.177 179.081 139.02C179.396 138.862 179.868 138.862 180.341 139.02Z" fill="#ECF5FE"/>
</g>
<path d="M328.194 328.443C332.603 330.962 332.76 335.214 328.194 337.891L251.826 382.294C247.418 384.813 240.174 384.813 235.608 382.294L158.768 337.733C154.359 335.214 154.202 330.962 158.768 328.286L235.136 283.882C239.545 281.363 246.788 281.363 251.354 283.882L328.194 328.443Z" fill="url(#paint2_linear)"/>
<g opacity="0.8333">
<path opacity="0.8333" d="M332.445 325.627C337.326 328.461 337.326 332.87 332.445 335.704L250.251 383.414C245.37 386.248 237.654 386.248 232.773 383.414L149.95 335.704C145.069 332.87 145.069 328.461 149.95 325.627L151.919 53.3695C220.058 46.7523 251.905 63.2962 339.954 56.6789L332.445 325.627Z" fill="url(#paint3_linear)" fill-opacity="0.3"/>
</g>
<path d="M157.35 336.788C157.822 336.473 158.137 336.158 158.767 335.844L235.134 291.44C239.543 288.921 246.786 288.921 251.353 291.44L328.35 335.844C328.822 336.158 329.295 336.473 329.767 336.788C332.759 334.269 332.286 330.647 328.35 328.286L251.353 283.882C246.944 281.363 239.543 281.363 235.134 283.882L158.767 328.286C154.673 330.647 154.358 334.269 157.35 336.788Z" fill="#FFD2B3"/>
<path d="M137.195 322.459C137.195 322.459 139.4 341.984 139.4 346.078C139.4 350.172 139.085 353.006 139.085 353.006L145.226 351.589C145.226 351.589 141.447 322.459 141.132 322.459C140.974 322.616 137.195 322.459 137.195 322.459Z" fill="#E8A489"/>
<path d="M106.335 391.583C106.335 391.583 99.564 401.345 100.981 403.865C102.398 406.699 106.02 403.55 107.28 401.975C108.224 400.716 107.909 398.511 110.429 398.039C112.633 397.566 112.791 393.473 112.791 393.473L106.335 391.583Z" fill="#15154F"/>
<path d="M119.401 396.151C119.401 396.151 113.418 406.229 115.15 408.591C117.197 411.11 119.558 408.906 121.29 407.016C122.393 405.756 123.023 403.394 124.282 402.45C126.172 401.033 125.699 397.568 125.699 397.568L119.401 396.151Z" fill="#2A2A66"/>
<path d="M142.547 349.227C132.155 352.691 118.771 355.367 115.937 360.091C113.26 364.815 105.859 392.055 105.859 392.055C105.859 392.055 109.953 394.732 112.788 394.417C117.196 387.804 121.605 368.122 126.329 364.815C131.053 361.351 152.152 356.312 154.829 350.959C148.058 350.329 142.547 349.227 142.547 349.227Z" fill="#77A6E8"/>
<path d="M153.255 349.856C153.255 349.856 131.369 358.989 128.692 365.13C126.015 371.27 118.457 396.621 118.457 396.621C118.457 396.621 123.653 399.456 126.33 398.196C128.219 394.102 133.416 374.42 137.51 369.696C141.603 364.972 159.711 366.232 163.805 361.193C167.584 356.469 164.12 348.439 164.12 348.439L153.255 349.856Z" fill="#8BC4FC"/>
<path d="M157.033 307.028C157.033 307.028 156.089 312.854 156.718 317.42C152.625 320.727 151.207 322.616 151.207 322.616L143.649 319.625C143.649 319.625 145.854 315.688 146.484 310.807C154.357 308.445 157.033 307.028 157.033 307.028Z" fill="#F7AF8F"/>
<path d="M143.65 311.279C143.65 311.279 139.398 311.909 137.509 318.522C135.777 324.82 136.249 324.978 137.509 325.293C138.768 325.608 141.445 326.395 141.445 326.395L143.65 311.279Z" fill="#E1B517"/>
<path d="M147.902 319.624C145.855 318.995 146.013 312.854 147.272 311.122C142.076 310.964 142.391 311.437 141.604 312.854C140.344 314.901 139.085 324.506 139.714 331.434C140.344 338.362 141.446 346.55 141.446 349.542C141.446 352.691 161.444 352.848 163.806 351.274C166.01 349.699 163.963 338.677 164.75 331.119C165.065 327.34 167.585 319.467 164.435 316.948C161.444 314.428 156.72 313.326 156.72 313.326C156.72 313.326 151.366 320.884 147.902 319.624Z" fill="#FFC700"/>
<path d="M152.154 357.73V356.785L140.345 363.713V364.501L152.154 357.73Z" fill="#BCBCBC"/>
<path d="M152.156 356.786L133.418 345.921L121.451 352.849L140.346 363.714L152.156 356.786Z" fill="#EDEDED"/>
<path d="M148.373 293.958C145.066 295.218 143.334 298.682 144.122 302.618C144.594 304.823 144.594 305.61 143.807 307.185C143.177 308.444 144.909 307.815 145.224 308.444C145.539 309.232 146.011 313.326 147.428 313.168C150.892 312.696 155.931 310.176 157.821 306.87C159.867 303.248 157.978 296.95 156.246 295.218C153.727 293.013 151.207 292.856 148.373 293.958Z" fill="#E8A489"/>
<path d="M159.081 322.931L158.923 339.149C158.923 339.149 141.603 350.013 139.398 349.541C138.139 349.226 137.351 348.439 137.036 348.911C136.564 349.384 138.296 350.013 137.666 350.013C137.036 350.013 134.36 350.486 134.202 350.958C134.202 351.431 136.249 350.958 136.721 351.273C137.036 351.431 136.721 351.588 136.721 351.903C136.721 352.06 136.722 352.218 136.879 352.375C137.036 352.533 136.879 352.69 137.036 353.005C137.036 353.32 137.351 353.32 137.351 353.32C137.351 353.478 137.194 353.95 137.509 353.95C137.824 353.95 139.871 354.58 141.918 352.218C143.177 350.801 149.318 350.801 155.931 347.967C162.23 345.29 165.536 345.605 165.851 339.306C166.166 333.48 166.639 321.986 166.639 321.986L159.081 322.931Z" fill="#E8A489"/>
<path d="M140.346 364.502L138.614 349.701L119.246 338.521L120.821 353.322L140.346 364.502Z" fill="#D8D8D8"/>
<path d="M140.346 364.502L140.661 364.344L138.929 349.543L138.614 349.7L140.346 364.502Z" fill="#BCBCBC"/>
<path d="M138.614 349.7L119.246 338.52L119.404 338.363L138.928 349.542L138.614 349.7Z" fill="#BCBCBC"/>
<path d="M151.681 298.211C149.476 300.415 142.706 303.092 141.761 298.368C140.974 294.589 144.91 294.274 148.217 292.385C152.468 289.866 157.664 292.7 157.664 294.904C159.554 295.377 160.499 296.636 160.971 298.368C161.758 301.203 161.443 306.399 156.562 308.446C155.932 307.501 155.617 305.611 155.617 305.611C155.617 305.611 157.979 304.667 157.664 302.777C157.349 301.045 155.617 300.415 154.83 301.675C152.468 301.045 152.468 299.628 151.681 298.211Z" fill="#454239"/>
<path d="M163.336 316.634C157.825 316.634 155.621 331.277 158.612 332.065C161.447 332.695 167.115 332.695 167.902 330.963C168.69 329.23 169.005 316.634 163.336 316.634Z" fill="#E1B517"/>
<path d="M349.452 405.439C347.247 406.226 344.098 396.306 342.051 397.723C339.689 399.298 350.396 413.469 353.703 410.792C356.695 408.43 347.09 395.676 344.255 396.936C341.579 398.353 349.452 405.439 349.452 405.439Z" fill="#2A2A66"/>
<path d="M323.941 408.589C323.941 408.589 322.209 411.109 322.996 412.998C323.941 414.888 325.201 415.045 326.933 417.092C329.767 420.399 332.916 422.918 334.963 421.344C336.853 419.926 332.916 413.628 329.767 409.534C326.145 404.495 323.941 408.589 323.941 408.589Z" fill="#2A2A66"/>
<path d="M311.663 355.525C311.663 355.525 334.652 367.334 334.652 369.854C334.652 372.53 328.668 404.495 329.928 408.274C331.345 412.997 335.912 418.823 333.865 419.925C331.818 421.185 329.928 418.351 327.094 415.989C325.047 414.1 322.685 413.627 323.787 409.061C324.574 406.227 325.047 404.18 324.26 397.409C322.528 382.608 323.472 378.199 323.787 374.42C313.237 372.058 301.9 355.21 301.9 355.21H311.663V355.525Z" fill="#F7AF8F"/>
<path d="M322.21 377.255C322.682 377.885 323.154 378.357 323.627 379.144C328.036 385.758 334.491 390.481 338.428 395.205C342.364 399.929 341.262 399.299 343.781 402.448C345.199 404.338 349.135 408.432 351.025 406.542C352.442 405.125 347.875 399.299 342.994 392.056C338.113 384.813 336.223 379.774 334.019 375.523C332.917 373.476 331.657 371.586 329.61 369.539C327.406 367.65 319.69 374.421 322.21 377.255Z" fill="#F9C0AA"/>
<path d="M299.692 297.265C299.692 297.265 299.535 295.061 297.173 293.486C294.811 291.754 290.087 290.967 286.151 295.533C282.214 300.099 283.159 309.389 283.001 314.586C282.529 323.876 276.703 328.599 276.703 328.599C276.703 328.599 285.993 331.119 290.717 324.505C294.968 318.68 292.292 310.019 292.606 305.768C292.921 301.359 294.653 299.155 295.756 299.627C296.7 300.099 299.692 297.265 299.692 297.265Z" fill="#2A2A66"/>
<path d="M293.083 311.437C293.24 311.752 294.973 317.263 294.185 322.616C297.649 324.506 301.586 328.757 303.79 328.6C306.152 328.442 306.467 323.718 306.467 323.404C306.467 322.931 303.633 316.79 303.318 313.956C303.16 311.122 293.083 311.437 293.083 311.437Z" fill="#F7AF8F"/>
<path d="M314.969 330.331C315.284 337.417 313.394 345.762 313.867 350.801C314.339 355.84 314.497 359.146 314.497 359.146L308.828 357.257L309.773 340.724L313.237 329.702L314.969 330.331Z" fill="#E8A489"/>
<path d="M305.99 317.577C305.99 317.577 308.352 317.105 311.029 320.411C313.076 322.931 316.068 330.174 315.28 331.433C313.706 333.008 310.871 332.851 310.871 332.851L305.99 317.577Z" fill="#DD4D11"/>
<path d="M291.823 357.413C291.823 357.413 289.146 361.98 290.563 368.121C292.295 375.836 307.884 378.513 315.442 378.041C321.74 378.985 323 383.394 323 383.394C323 383.394 325.834 384.181 328.826 377.096C330.243 373.632 334.022 376.781 334.967 370.797C333.392 362.61 311.978 355.524 311.978 355.524L291.823 357.413Z" fill="#2A2A66"/>
<path d="M287.729 326.552C287.886 324.505 290.72 322.458 294.184 321.985C296.546 322.93 303.474 327.182 303.474 327.182C303.474 327.182 305.206 320.726 303.474 317.262C305.206 317.262 307.726 317.419 308.356 319.309C308.985 321.198 309.93 322.615 310.718 324.347C311.662 326.237 314.182 327.969 314.182 331.433C314.182 335.055 313.394 335.369 312.764 340.093C312.135 344.817 312.292 353.95 312.764 356.311C313.079 358.673 294.342 357.886 291.665 357.571C292.137 350.643 294.342 348.124 291.665 339.463C289.775 332.22 288.201 333.165 287.729 326.552Z" fill="#F76820"/>
<path d="M301.11 298.998C306.463 300.257 309.298 303.721 308.038 306.713C305.991 311.909 308.51 313.641 307.408 314.114C306.149 314.586 306.621 314.271 306.149 315.688C305.361 317.893 304.574 320.884 300.952 318.995C296.858 316.79 292.607 314.114 291.82 309.232C291.032 304.194 295.441 297.738 301.11 298.998Z" fill="#F9C0AA"/>
<path d="M293.867 302.618C293.71 302.776 290.403 301.673 293.237 299.311C296.544 296.635 301.898 296.005 301.268 299.469C300.795 301.358 293.867 302.618 293.867 302.618Z" fill="#F76820"/>
<path d="M298.117 365.288V364.343L311.029 371.743V372.688L298.117 365.288Z" fill="#BCBCBC"/>
<path d="M298.117 364.343L318.429 352.534L331.341 359.934L311.029 371.744L298.117 364.343Z" fill="#EDEDED"/>
<path d="M292.292 336.473L292.45 350.801C292.45 350.801 307.881 360.406 309.77 359.934C310.872 359.776 311.502 358.989 311.817 359.462C312.132 359.934 310.715 360.406 311.187 360.406C311.66 360.406 314.179 360.721 314.179 361.194C314.179 361.666 312.289 361.194 311.975 361.351C311.66 361.508 311.975 361.508 311.975 361.823C311.975 361.981 311.975 362.138 311.817 362.138C311.66 362.296 311.817 362.453 311.817 362.611C311.817 362.926 311.66 362.926 311.502 362.926C311.502 362.926 311.66 363.398 311.345 363.555C311.03 363.555 309.298 364.185 307.408 362.138C306.306 360.879 300.795 360.879 294.969 358.359C289.3 355.997 286.466 356.155 286.151 350.644C285.836 345.448 285.521 335.213 285.521 335.213L292.292 336.473Z" fill="#F9C0AA"/>
<path d="M311.031 372.688L312.763 356.785L333.705 344.661L331.973 360.564L311.031 372.688Z" fill="#D8D8D8"/>
<path d="M311.029 372.688L310.714 372.531L312.446 356.47L312.761 356.785L311.029 372.688Z" fill="#BCBCBC"/>
<path d="M312.765 356.785L333.707 344.661L333.392 344.346L312.45 356.47L312.765 356.785Z" fill="#BCBCBC"/>
<path d="M308.352 307.343C307.25 309.39 301.266 307.815 299.849 306.083C298.747 309.075 296.543 309.232 296.543 309.232C296.543 309.232 295.913 306.556 294.338 307.973C293.078 309.075 294.338 310.492 294.968 311.279C294.81 312.224 294.653 313.169 293.551 313.484C290.717 312.539 288.512 306.398 292.606 301.832C296.7 297.423 301.739 298.21 305.045 300.1C308.667 301.989 309.139 305.926 308.352 307.343Z" fill="#15154F"/>
<path d="M290.562 323.718C284.893 323.089 283.948 335.843 285.365 336.787C286.782 337.732 293.711 338.834 294.341 337.26C294.813 335.685 296.387 324.348 290.562 323.718Z" fill="#FF812D"/>
<path d="M323.94 408.588C323.94 408.588 323.94 410.163 324.885 411.58C326.145 413.627 328.349 416.934 330.553 417.878C333.545 418.981 334.018 417.721 332.915 414.414C332.6 413.47 334.805 418.351 334.805 418.351V420.87C334.805 420.87 332.758 421.5 331.026 420.398C329.294 419.296 326.617 415.674 325.042 414.887C322.995 413.942 321.421 411.895 323.94 408.588Z" fill="#2A2A66"/>
<path d="M305.207 300.1C302.687 298.683 299.223 297.895 295.917 299.47C294.184 302.147 293.555 306.241 294.342 308.288C294.499 308.13 294.499 307.973 294.657 307.815C296.231 306.398 296.861 309.075 296.861 309.075C296.861 309.075 299.066 308.917 300.168 305.926C301.585 307.5 307.569 309.232 308.671 307.185C309.143 305.926 308.671 301.989 305.207 300.1Z" fill="#2A2A66"/>
<path d="M295.287 250.5L305.207 244.674V256.484L295.287 262.31V250.5Z" fill="#DD4D11"/>
<path d="M285.05 244.516L294.97 238.69L305.205 244.674L295.285 250.5L285.05 244.516Z" fill="#FF812D"/>
<path d="M295.285 250.501V262.31L285.05 256.327V244.518L295.285 250.501Z" fill="#F76820"/>
<g opacity="0.5">
<g opacity="0.5">
<path opacity="0.5" d="M295.286 246.879L311.504 237.432L311.347 256.012L295.286 265.459V246.879Z" fill="#DD4D11"/>
</g>
<g opacity="0.5">
<path opacity="0.5" d="M279.067 237.431L295.286 228.141L311.504 237.431L295.286 246.879L279.067 237.431Z" fill="#FF812D"/>
</g>
<g opacity="0.5">
<path opacity="0.5" d="M295.286 246.879V265.459L279.067 256.169V237.432L295.286 246.879Z" fill="#F76820"/>
</g>
</g>
<path d="M205.691 210.349L212.462 206.57L212.305 214.443L205.691 218.222V210.349Z" fill="#DD4D11"/>
<path d="M198.921 206.413L205.534 202.476L212.462 206.57L205.692 210.349L198.921 206.413Z" fill="#FF812D"/>
<path d="M205.692 210.348V218.221L198.921 214.285V206.412L205.692 210.348Z" fill="#F76820"/>
<g opacity="0.5">
<g opacity="0.5">
<path opacity="0.5" d="M205.691 207.987L216.556 201.688V214.128L205.691 220.426V207.987Z" fill="#DD4D11"/>
</g>
<g opacity="0.5">
<path opacity="0.5" d="M194.826 201.689L205.691 195.391L216.555 201.689L205.691 207.987L194.826 201.689Z" fill="#FF812D"/>
</g>
<g opacity="0.5">
<path opacity="0.5" d="M205.69 207.987V220.426L194.825 214.128V201.688L205.69 207.987Z" fill="#F76820"/>
</g>
</g>
<path d="M271.663 128.941L278.434 125.005V133.035L271.663 136.972V128.941Z" fill="#DD4D11"/>
<path d="M264.736 124.85L271.507 120.913L278.435 125.007L271.665 128.943L264.736 124.85Z" fill="#FF812D"/>
<path d="M271.664 128.943V136.973L264.735 132.88V124.849L271.664 128.943Z" fill="#F76820"/>
<g opacity="0.5">
<g opacity="0.5">
<path opacity="0.5" d="M271.666 126.424L282.688 120.125V132.722L271.666 139.178V126.424Z" fill="#DD4D11"/>
</g>
<g opacity="0.5">
<path opacity="0.5" d="M260.646 120.125L271.668 113.669L282.69 120.125L271.668 126.423L260.646 120.125Z" fill="#FF812D"/>
</g>
<g opacity="0.5">
<path opacity="0.5" d="M271.667 126.424V139.178L260.645 132.722V120.125L271.667 126.424Z" fill="#F76820"/>
</g>
</g>
<path d="M204.585 102.018L208.679 99.6562V104.537L204.585 106.899V102.018Z" fill="#DD4D11"/>
<path d="M200.336 99.4981L204.43 97.1362L208.681 99.6556L204.587 102.017L200.336 99.4981Z" fill="#FF812D"/>
<path d="M204.585 102.017V106.899L200.334 104.379V99.498L204.585 102.017Z" fill="#F76820"/>
<g opacity="0.5">
<g opacity="0.5">
<path opacity="0.5" d="M204.59 100.6L211.361 96.6636L211.203 104.379L204.59 108.158V100.6Z" fill="#DD4D11"/>
</g>
<g opacity="0.5">
<path opacity="0.5" d="M197.975 96.6635L204.588 92.7271L211.359 96.6635L204.588 100.6L197.975 96.6635Z" fill="#FF812D"/>
</g>
<g opacity="0.5">
<path opacity="0.5" d="M204.588 100.6V108.158L197.975 104.379V96.6636L204.588 100.6Z" fill="#F76820"/>
</g>
</g>
<path d="M242.575 330.797L255.329 323.396L255.172 338.512L242.575 345.755V330.797Z" fill="#12A4E3"/>
<path d="M229.505 323.238L242.259 315.837L255.328 323.395L242.574 330.796L229.505 323.238Z" fill="#43C6FF"/>
<path d="M242.574 330.797V345.756L229.505 338.355V323.239L242.574 330.797Z" fill="#00ADEE"/>
<g opacity="0.5">
<g opacity="0.5">
<path opacity="0.5" d="M242.574 326.389L263.201 314.422L263.044 338.198L242.574 350.008V326.389Z" fill="#15154F"/>
</g>
<g opacity="0.5">
<path opacity="0.5" d="M221.95 314.422L242.577 302.612L263.204 314.422L242.577 326.389L221.95 314.422Z" fill="#264196"/>
</g>
<g opacity="0.5">
<path opacity="0.5" d="M242.576 326.389V350.008L221.949 338.198V314.422L242.576 326.389Z" fill="#2A2A66"/>
</g>
</g>
<path d="M213.879 156.025L218.288 153.506V158.702L213.879 161.379V156.025Z" fill="#1292D0"/>
<path d="M209.156 153.349L213.723 150.83L218.289 153.506L213.88 156.026L209.156 153.349Z" fill="#3FB5F2"/>
<path d="M213.878 156.024V161.378L209.154 158.701V153.348L213.878 156.024Z" fill="#059CDD"/>
<g opacity="0.5">
<g opacity="0.5">
<path opacity="0.5" d="M213.881 154.45L221.124 150.198V158.701L213.881 162.952V154.45Z" fill="#15154F"/>
</g>
<g opacity="0.5">
<path opacity="0.5" d="M206.477 150.2L213.877 146.106L221.12 150.2L213.877 154.451L206.477 150.2Z" fill="#264196"/>
</g>
<g opacity="0.5">
<path opacity="0.5" d="M213.877 154.45V162.952L206.477 158.701V150.198L213.877 154.45Z" fill="#2A2A66"/>
</g>
</g>
<path d="M198.472 268.417L202.881 265.898V271.094L198.472 273.771V268.417Z" fill="#1292D0"/>
<path d="M193.749 265.742L198.315 263.222L202.882 265.899L198.473 268.418L193.749 265.742Z" fill="#3FB5F2"/>
<path d="M198.472 268.417V273.77L193.748 271.093V265.74L198.472 268.417Z" fill="#059CDD"/>
<g opacity="0.5">
<g opacity="0.5">
<path opacity="0.5" d="M198.475 266.842L205.718 262.591V271.094L198.475 275.345V266.842Z" fill="#15154F"/>
</g>
<g opacity="0.5">
<path opacity="0.5" d="M191.069 262.592L198.47 258.499L205.713 262.592L198.47 266.844L191.069 262.592Z" fill="#264196"/>
</g>
<g opacity="0.5">
<path opacity="0.5" d="M198.47 266.842V275.345L191.069 271.094V262.591L198.47 266.842Z" fill="#2A2A66"/>
</g>
</g>
<path d="M255.289 81.5474L260.328 78.5557V84.5391L255.289 87.3734V81.5474Z" fill="#1282C0"/>
<path d="M250.095 78.5537L255.133 75.562L260.33 78.5537L255.291 81.5454L250.095 78.5537Z" fill="#3CA7E7"/>
<path d="M255.289 81.5474V87.3734L250.093 84.3816V78.5557L255.289 81.5474Z" fill="#098ECE"/>
<g opacity="0.5">
<g opacity="0.5">
<path opacity="0.5" d="M255.294 79.8156L263.324 75.0918V84.3819L255.294 89.1056V79.8156Z" fill="#15154F"/>
</g>
<g opacity="0.5">
<path opacity="0.5" d="M247.104 75.0919L255.291 70.3682L263.322 75.0919L255.291 79.8157L247.104 75.0919Z" fill="#264196"/>
</g>
<g opacity="0.5">
<path opacity="0.5" d="M255.291 79.8156V89.1056L247.104 84.3819V75.0918L255.291 79.8156Z" fill="#2A2A66"/>
</g>
</g>
<path d="M260.173 192.555L269.148 187.358V197.908L260.173 203.104V192.555Z" fill="#1292D0"/>
<path d="M250.882 187.202L259.857 182.006L269.147 187.36L260.172 192.556L250.882 187.202Z" fill="#3FB5F2"/>
<path d="M260.172 192.557V203.106L250.882 197.753V187.203L260.172 192.557Z" fill="#059CDD"/>
<g opacity="0.5">
<g opacity="0.5">
<path opacity="0.5" d="M260.173 189.408L274.659 180.905V197.753L260.173 206.098V189.408Z" fill="#15154F"/>
</g>
<g opacity="0.5">
<path opacity="0.5" d="M245.529 180.904L260.173 172.559L274.659 180.904L260.173 189.407L245.529 180.904Z" fill="#264196"/>
</g>
<g opacity="0.5">
<path opacity="0.5" d="M260.173 189.408V206.098L245.529 197.753V180.905L260.173 189.408Z" fill="#2A2A66"/>
</g>
</g>
<defs>
<linearGradient id="paint0_linear" x1="560.957" y1="264.315" x2="8.40555" y2="140.71" gradientUnits="userSpaceOnUse">
<stop stop-color="white"/>
<stop offset="0.765425" stop-color="#D9EFFB"/>
</linearGradient>
<linearGradient id="paint1_linear" x1="295.246" y1="357.178" x2="173.678" y2="300.586" gradientUnits="userSpaceOnUse">
<stop stop-color="#F76820"/>
<stop offset="1" stop-color="#FCCF3A"/>
</linearGradient>
<linearGradient id="paint2_linear" x1="243.481" y1="281.993" x2="243.481" y2="384.183" gradientUnits="userSpaceOnUse">
<stop stop-color="#FFC5AC"/>
<stop offset="1" stop-color="white" stop-opacity="0"/>
</linearGradient>
<linearGradient id="paint3_linear" x1="242.903" y1="62.7436" x2="243.121" y2="385.54" gradientUnits="userSpaceOnUse">
<stop stop-color="#FB4B00" stop-opacity="0"/>
<stop offset="1" stop-color="#FB4B00"/>
</linearGradient>
</defs>
</svg>
