<svg width="59" height="57" viewBox="0 0 59 57" fill="none" xmlns="http://www.w3.org/2000/svg">
<path d="M37.0027 0.545654H13.4168L9.12763 10.8388L0 13.9624V51.0806C0 53.9015 2.28598 56.1875 5.10693 56.1875H37.0027C39.8237 56.1875 42.1096 53.9015 42.1096 51.0806V5.65259C42.1096 2.83163 39.8237 0.545654 37.0027 0.545654Z" fill="#EAEAEB"/>
<path d="M0 13.9624H10.0678C11.9174 13.9624 13.4168 12.463 13.4168 10.6135V0.545654L0 13.9624Z" fill="#A8A7A9"/>
<path d="M27.5133 23.0753H5.75118C5.26539 23.0753 4.87158 22.6815 4.87158 22.1957C4.87158 21.7099 5.26539 21.3161 5.75118 21.3161H27.5133C27.9991 21.3161 28.3929 21.7099 28.3929 22.1957C28.3929 22.6815 27.9991 23.0753 27.5133 23.0753Z" fill="#164600"/>
<path d="M27.5133 29.2463H5.75118C5.26539 29.2463 4.87158 28.8525 4.87158 28.3667C4.87158 27.8809 5.26539 27.4871 5.75118 27.4871H27.5133C27.9991 27.4871 28.3929 27.8809 28.3929 28.3667C28.3929 28.8524 27.9991 29.2463 27.5133 29.2463Z" fill="#164600"/>
<path d="M27.5133 35.4172H5.75118C5.26539 35.4172 4.87158 35.0234 4.87158 34.5376C4.87158 34.0518 5.26539 33.658 5.75118 33.658H27.5133C27.9991 33.658 28.3929 34.0518 28.3929 34.5376C28.3929 35.0233 27.9991 35.4172 27.5133 35.4172Z" fill="#164600"/>
<path d="M27.5133 41.5884H5.75118C5.26539 41.5884 4.87158 41.1946 4.87158 40.7088C4.87158 40.223 5.26539 39.8292 5.75118 39.8292H27.5133C27.9991 39.8292 28.3929 40.223 28.3929 40.7088C28.3929 41.1944 27.9991 41.5884 27.5133 41.5884Z" fill="#164600"/>
<path d="M48.422 41.9384C55.4669 44.9098 61.0625 49.7572 56.8205 53.9993C52.5785 58.2414 47.731 52.6458 44.7595 45.6009L48.422 41.9384Z" fill="#00ADEE"/>
<path d="M47.8528 38.9925C46.6319 37.7716 44.2901 38.134 42.6222 39.8019C40.9543 41.4698 40.5919 43.8116 41.8128 45.0325C43.0337 46.2534 45.3755 45.891 47.0434 44.2231C48.7113 42.5552 49.0737 40.2134 47.8528 38.9925Z" fill="#BAB8B9"/>
<path d="M27.5135 21.3159H20.4695C20.0469 21.8838 19.6629 22.4715 19.3169 23.0752H27.5134C27.9992 23.0752 28.393 22.6814 28.393 22.1956C28.393 21.7098 27.9993 21.3159 27.5135 21.3159Z" fill="#3C474D"/>
<path d="M27.5134 27.4869H17.5277C17.379 28.0681 17.2597 28.6553 17.1704 29.2462H27.5134C27.9992 29.2462 28.393 28.8524 28.393 28.3667C28.393 27.8807 27.9992 27.4869 27.5134 27.4869Z" fill="#3C474D"/>
<path d="M27.5134 33.6578H17.0527C17.11 34.2475 17.1971 34.8346 17.3129 35.4171H27.5133C27.9991 35.4171 28.3929 35.0233 28.3929 34.5376C28.3929 34.0516 27.9992 33.6578 27.5134 33.6578Z" fill="#3C474D"/>
<path d="M27.5134 39.8289H18.8123C19.11 40.43 19.4445 41.0173 19.8141 41.5882H27.5134C27.9992 41.5882 28.393 41.1944 28.393 40.7086C28.393 40.2227 27.9992 39.8289 27.5134 39.8289Z" fill="#3C474D"/>
<path d="M34.7458 46.1904C42.625 46.1904 49.0124 39.803 49.0124 31.9238C49.0124 24.0446 42.625 17.6573 34.7458 17.6573C26.8666 17.6573 20.4792 24.0446 20.4792 31.9238C20.4792 39.803 26.8666 46.1904 34.7458 46.1904Z" fill="#FFC700"/>
<path d="M34.7456 41.7957C40.1977 41.7957 44.6175 37.3759 44.6175 31.9239C44.6175 26.4718 40.1977 22.052 34.7456 22.052C29.2936 22.052 24.8738 26.4718 24.8738 31.9239C24.8738 37.3759 29.2936 41.7957 34.7456 41.7957Z" fill="#95CEE3"/>
</svg>
