<svg width="41" height="44" viewBox="0 0 41 44" fill="none" xmlns="http://www.w3.org/2000/svg">
<path d="M23.2745 20.2124L7.06883 3.91481L5.84829 5.12846L22.0539 21.4261L23.2745 20.2124Z" fill="#164600"/>
<path d="M34.6487 6.03369L33.2491 5.03006L22.8429 19.5417L24.2425 20.5453L34.6487 6.03369Z" fill="#164600"/>
<path d="M22.4469 20.646L21.1937 19.4651L4.8474 36.8121L6.10065 37.993L22.4469 20.646Z" fill="#164600"/>
<path d="M37.0425 34.1899L24.1523 21.6947L22.9542 22.9308L35.8443 35.426L37.0425 34.1899Z" fill="#164600"/>
<path d="M22.6554 13.6738C26.6113 13.6709 29.8205 16.8753 29.8234 20.8312C29.8263 24.7871 26.622 27.9963 22.6661 27.9992C18.7102 28.0021 15.5009 24.7978 15.498 20.8419C15.498 20.8384 15.498 20.8346 15.498 20.8312C15.5012 16.8793 18.7038 13.6767 22.6554 13.6738Z" fill="#FB4B00"/>
<path d="M6.7284 0C9.33757 0 11.4529 2.11508 11.4529 4.72426C11.4529 7.33343 9.33786 9.4488 6.7284 9.4488C4.11922 9.4488 2.00385 7.33372 2.00385 4.72455C2.00675 2.11653 4.12038 0.00289618 6.7284 0Z" fill="#00ADEE"/>
<path d="M34.2384 2.64839e-06C37.1685 -0.00289354 39.5462 2.36995 39.5494 5.30002C39.5526 8.23009 37.1795 10.6079 34.2494 10.6108C31.3193 10.6137 28.9415 8.24081 28.9387 5.31074C28.9387 5.309 28.9387 5.30726 28.9387 5.30523C28.9384 2.37748 31.3103 0.00289883 34.2384 2.64839e-06Z" fill="#00ADEE"/>
<path d="M6.83149 29.7801C10.6043 29.7801 13.6627 32.8384 13.6627 36.6116C13.6627 40.3845 10.6043 43.4428 6.8312 43.4428C3.05834 43.4428 -2.95639e-05 40.3842 -2.95639e-05 36.6113C-2.95639e-05 36.6096 -2.95639e-05 36.6078 -2.95639e-05 36.6058C-2.95639e-05 32.8358 3.05602 29.7798 6.82599 29.7798C6.82772 29.7801 6.82975 29.7801 6.83149 29.7801Z" fill="#00ADEE"/>
<path d="M35.3027 28.5747C38.2328 28.5718 40.6106 30.9447 40.6135 33.8747C40.6164 36.8048 38.2435 39.1826 35.3134 39.1857C32.3834 39.1886 30.0056 36.8158 30.0027 33.8857C30.0027 33.8823 30.0027 33.8785 30.0027 33.875C30.0027 30.9476 32.3756 28.5747 35.3027 28.5747Z" fill="#00ADEE"/>
</svg>
