<?xml version="1.0" encoding="UTF-8"?>
<svg xmlns="http://www.w3.org/2000/svg" width="137" height="44" viewBox="0 0 137 44" fill="none">
  <path d="M86.743 21.316c-3.653 0-6.828 2.101-8.437 5.187V13.819a.568.568 0 0 0-.561-.575.568.568 0 0 0-.561.575v16.726h.017c-.011.19-.017.381-.017.575 0 5.414 4.282 9.804 9.562 9.804 5.28 0 9.56-4.39 9.56-9.804 0-5.414-4.282-9.804-9.563-9.804zm.003 18.454c-4.66 0-8.437-3.872-8.437-8.65 0-4.778 3.777-8.65 8.437-8.65 4.66 0 8.438 3.872 8.438 8.65 0 4.778-3.777 8.65-8.438 8.65zM9.626 27.084C6.519 27.084 4 29.667 4 32.852c0 3.185 2.52 5.768 5.626 5.768 3.107 0 5.626-2.583 5.626-5.768 0-3.185-2.52-5.768-5.626-5.768zm0 9.229c-1.863 0-3.376-1.55-3.376-3.461 0-1.91 1.513-3.46 3.376-3.46 1.864 0 3.376 1.546 3.376 3.46 0 1.91-1.512 3.46-3.376 3.46zM23.376 37.974c2.76-.459 4.634-3.124 4.186-5.953-.448-2.83-3.048-4.751-5.808-4.292-2.76.46-4.633 3.125-4.185 5.954.448 2.83 3.048 4.75 5.807 4.291zM129.707 21.013h-.384a.973.973 0 0 0-.91.654l-1.001 2.852-.989-2.85a.974.974 0 0 0-.913-.66.69.69 0 0 0-.682.7v3.752c0 .248.195.448.437.448a.44.44 0 0 0 .437-.445V21.96l1.208 3.581c.074.221.278.37.508.37a.542.542 0 0 0 .508-.37l1.202-3.582v3.504c0 .248.195.448.437.448s.437-.2.437-.448v-4.148a.3.3 0 0 0-.295-.303zM123.615 21.014h-3.275a.403.403 0 0 0-.399.408c0 .227.178.41.399.41h1.164v3.596c0 .27.212.488.475.488a.485.485 0 0 0 .473-.488v-3.597h1.163a.402.402 0 0 0 .399-.409.402.402 0 0 0-.399-.408zM115.439 21.315a.571.571 0 0 0-.564.579V32.85c0 3.824-3.021 6.922-6.751 6.922-3.731 0-6.752-3.1-6.752-6.922V21.894a.568.568 0 0 0-.561-.575.568.568 0 0 0-.561.575V32.85c0 4.457 3.523 8.072 7.874 8.072 4.35 0 7.876-3.615 7.876-8.075V21.891a.57.57 0 0 0-.561-.576zM42.252 21.315c-4.35 0-7.877 3.616-7.877 8.075v10.958c0 .318.251.575.561.575.31 0 .561-.257.561-.575V29.391c0-3.822 3.022-6.922 6.752-6.922 3.727 0 6.75 3.097 6.75 6.921v10.958a.573.573 0 0 0 .568.575c.31 0 .56-.257.56-.575V29.391c0-4.46-3.525-8.076-7.876-8.076zM63.654 21.315c-5.28 0-9.56 4.388-9.56 9.801 0 5.414 4.282 9.804 9.563 9.804 3.653 0 6.828-2.101 8.437-5.186v4.611c0 .318.251.575.561.575.31 0 .561-.257.561-.575v-8.65H73.2a9.29 9.29 0 0 0 .017-.576c0-5.413-4.282-9.804-9.562-9.804zm0 18.455c-4.66 0-8.438-3.873-8.438-8.65 0-4.779 3.777-8.651 8.438-8.651 4.66 0 8.437 3.872 8.437 8.65 0 4.778-3.777 8.65-8.437 8.65zM5.763 9.647c0-.694.06-1.196.177-1.517.1-.297.284-.557.532-.745.23-.176.508-.266.797-.266.237-.007.473.066.68.2.183.139.319.357.413.641.089.285.136.751.136 1.393v3.47h1.775V9.586c0-.684.053-1.18.171-1.49.1-.29.29-.545.532-.726.236-.17.52-.267.809-.26.39 0 .691.145.886.43.195.287.295.838.295 1.65v3.636h1.77v-4.2c0-.869-.078-1.486-.249-1.868a2.047 2.047 0 0 0-.815-.926 2.395 2.395 0 0 0-1.311-.358c-.46 0-.922.11-1.33.333-.419.23-.773.558-1.033.963a2.351 2.351 0 0 0-.844-.963 2.145 2.145 0 0 0-1.182-.333c-.413 0-.82.085-1.199.255a2.961 2.961 0 0 0-1.004.757v-.824H4v7.173h1.763V9.647zM36.415 12.68c.437-.23.82-.55 1.128-.944v1.096h.791v-6.37h-.785V7.63a3.238 3.238 0 0 0-1.093-.999 2.92 2.92 0 0 0-1.388-.333c-.889 0-1.645.327-2.271.981a3.277 3.277 0 0 0-.945 2.353c0 .935.307 1.729.933 2.383.626.653 1.38.98 2.26.98.472.007.944-.102 1.37-.314zm-3.426-1.734a2.633 2.633 0 0 1 0-2.577 2.42 2.42 0 0 1 2.141-1.284 2.354 2.354 0 0 1 1.745.745c.479.5.715 1.111.715 1.85.006.454-.1.902-.319 1.302a2.347 2.347 0 0 1-.904.92c-.378.225-.809.34-1.246.34a2.29 2.29 0 0 1-1.223-.34 2.498 2.498 0 0 1-.91-.956zM40.932 9.97l3.128 2.868h1.134l-3.618-3.334 3.417-3.036h-1.181l-2.88 2.564V4h-.803v8.838h.803V9.971zM29.52 7.63a3.218 3.218 0 0 0-1.087-.999 2.92 2.92 0 0 0-1.388-.333c-.884.006-1.645.333-2.272.981a3.277 3.277 0 0 0-.945 2.353c0 .935.308 1.729.934 2.383.626.653 1.379.98 2.259.98.473.007.945-.102 1.37-.314.437-.23.821-.551 1.128-.945v1.096h.792V4h-.792v3.63zm-.266 3.352a2.346 2.346 0 0 1-.904.92c-.378.225-.81.34-1.246.34a2.29 2.29 0 0 1-1.223-.34 2.498 2.498 0 0 1-.91-.956 2.633 2.633 0 0 1 0-2.577c.426-.8 1.25-1.29 2.136-1.284a2.367 2.367 0 0 1 1.75.745c.48.5.716 1.111.716 1.85.005.454-.1.902-.32 1.302zM19.156 7.079v-.781c-1.604.109-2.885 1.417-3.015 3.073h.762c.118-1.22 1.066-2.177 2.253-2.292z" fill="#fff"></path>
  <path d="M22.61 9.638c0-1.775-1.334-3.231-3.027-3.346v.781c1.29.121 2.277 1.232 2.271 2.559 0 1.42-1.113 2.57-2.483 2.57-1.314-.006-2.401-1.05-2.484-2.389h-.762c.089 1.771 1.506 3.176 3.24 3.176 1.792 0 3.245-1.501 3.245-3.351z" fill="#fff"></path>
</svg>
