<svg width="636" height="624" viewBox="0 0 636 624" fill="none" xmlns="http://www.w3.org/2000/svg">
<circle cx="181.314" cy="549" r="75" fill="#FFC700"/>
<path d="M499.594 1.35884L539.839 23.3742" stroke="black"/>
<path d="M484.375 3.34698L551.859 41.1949" stroke="black"/>
<path d="M472.72 8.18339L561.505 57.3106" stroke="black"/>
<path d="M462.257 14.1628L568.794 72.883" stroke="black"/>
<path d="M455.331 21.2473L574.883 86.7314" stroke="black"/>
<path d="M447.233 28.351L579.213 100.608" stroke="black"/>
<path d="M439.721 35.4451L582.947 113.914" stroke="black"/>
<path d="M432.21 42.5392L584.903 126.085" stroke="black"/>
<path d="M426.475 50.7667L586.252 137.104" stroke="black"/>
<path d="M421.905 58.3945L584.094 148.761" stroke="black"/>
<path d="M414.989 66.0602L582.485 158.085" stroke="black"/>
<path d="M409.842 74.2785L578.519 166.865" stroke="black"/>
<path d="M405.3 83.6491L573.977 176.236" stroke="black"/>
<path d="M432.093 108.205L564.091 181.625" stroke="black"/>
<path d="M453.003 131.694L552.446 187.042" stroke="black"/>
<path d="M469.155 151.191L539.6 190.735" stroke="black"/>
<path d="M482.962 170.727L522.63 193.333" stroke="black"/>
<path d="M496.163 189.11L504.458 194.206" stroke="black"/>
<path d="M20.1264 292.416C20.8582 206.675 157.589 125.716 225.863 95.9543C466.239 -24.9187 528.567 96.3136 548.86 183.572C558.893 226.712 573.763 267.547 539.855 441.184C505.947 614.821 372.618 606.133 310.192 580.085C185.556 535.451 19.2117 399.592 20.1264 292.416Z" fill="url(#paint0_linear)"/>
<path opacity="0.3" d="M601.718 420.4C601.653 420.508 601.545 420.551 601.437 420.551C601.372 420.551 601.328 420.53 601.285 420.508L578.823 407.533C578.087 407.75 577.199 407.75 576.462 407.555L554.347 420.313C555.018 420.833 555.04 421.526 554.412 422.046L576.397 434.76C576.549 434.847 576.592 435.042 576.505 435.194C576.44 435.302 576.332 435.345 576.224 435.345C576.159 435.345 576.116 435.324 576.072 435.302L553.74 422.436C552.831 422.804 551.596 422.804 550.708 422.414L527.77 435.649C528.138 436.147 528.029 436.732 527.445 437.165L550.058 450.226C550.21 450.313 550.253 450.508 550.166 450.659C550.101 450.768 549.993 450.811 549.885 450.811C549.82 450.811 549.776 450.789 549.733 450.768L526.773 437.49C526.037 437.75 525.149 437.793 524.369 437.598L502.838 450.031C502.947 450.074 503.055 450.118 503.163 450.183C504.095 450.724 504.16 451.569 503.358 452.154L525.279 464.782C525.43 464.868 525.474 465.063 525.387 465.215C525.322 465.323 525.214 465.367 525.105 465.367C525.04 465.367 524.997 465.345 524.954 465.323L502.665 452.5C501.669 452.847 500.347 452.782 499.503 452.284C499.394 452.219 499.308 452.175 499.243 452.111L477.192 464.825C477.257 464.868 477.344 464.89 477.409 464.933C478.297 465.453 478.405 466.255 477.691 466.84L499.936 479.663C500.087 479.749 500.131 479.944 500.044 480.096C499.979 480.204 499.871 480.247 499.763 480.247C499.719 480.247 499.654 480.226 499.611 480.204L477.041 467.208C476.044 467.598 474.658 467.554 473.77 467.035C473.705 466.991 473.64 466.948 473.575 466.905L451.005 479.922C451.157 479.987 451.308 480.052 451.438 480.117C452.305 480.616 452.413 481.395 451.806 481.959L474.095 494.803C474.247 494.89 474.29 495.085 474.203 495.236C474.138 495.345 474.03 495.388 473.922 495.388C473.857 495.388 473.813 495.366 473.77 495.345L451.178 482.327C450.16 482.782 448.709 482.738 447.778 482.197C447.648 482.11 447.518 482.024 447.431 481.937L425.012 494.89C425.034 494.911 425.056 494.911 425.077 494.933C425.879 495.388 426.031 496.103 425.554 496.666L448.449 509.857C448.601 509.944 448.644 510.139 448.557 510.29C448.492 510.399 448.384 510.442 448.276 510.442C448.211 510.442 448.167 510.42 448.124 510.399L424.991 497.056C423.994 497.597 422.413 497.576 421.438 497.013C421.417 496.991 421.395 496.991 421.374 496.969L399.15 509.792C399.215 509.814 399.28 509.857 399.345 509.9C400.081 510.334 400.276 510.962 399.93 511.482L423.063 524.825C423.215 524.911 423.258 525.106 423.171 525.258C423.106 525.366 422.998 525.409 422.89 525.409C422.846 525.409 422.781 525.388 422.738 525.366L399.475 511.98C399.453 512.002 399.41 512.023 399.388 512.045C398.392 512.63 396.746 512.63 395.749 512.045C395.684 512.002 395.619 511.98 395.576 511.937L374.089 524.326C374.522 524.803 374.5 525.366 374.002 525.821L397.894 539.575C398.045 539.662 398.089 539.857 398.002 540.008C397.937 540.117 397.829 540.16 397.72 540.16C397.655 540.16 397.612 540.138 397.569 540.117L373.374 526.189C372.573 526.536 371.468 526.579 370.601 526.319L348.205 539.25C348.161 539.272 348.096 539.294 348.053 539.294C347.945 539.294 347.836 539.229 347.771 539.142C347.685 538.99 347.728 538.795 347.88 538.709L369.887 526.016C369.085 525.496 369.042 524.695 369.757 524.131L347.511 511.308C346.927 511.547 346.212 511.612 345.54 511.525L323.035 524.521C322.992 524.543 322.927 524.565 322.884 524.565C322.775 524.565 322.667 524.5 322.602 524.413C322.515 524.261 322.559 524.066 322.71 523.98L344.652 511.33C344.522 511.287 344.392 511.222 344.262 511.157C343.374 510.659 343.266 509.857 343.938 509.272L322.797 497.099C322.039 497.359 321.086 497.359 320.328 497.121L297.281 510.42C297.238 510.442 297.173 510.464 297.129 510.464C297.021 510.464 296.913 510.399 296.848 510.312C296.761 510.16 296.804 509.965 296.956 509.879L319.591 496.818C318.833 496.341 318.725 495.626 319.266 495.085L296.523 481.98C295.808 482.283 294.877 482.327 294.075 482.153L271.375 495.258C271.332 495.28 271.267 495.301 271.223 495.301C271.115 495.301 271.007 495.236 270.942 495.15C270.855 494.998 270.899 494.803 271.05 494.717L293.274 481.872C293.252 481.85 293.209 481.85 293.187 481.829C292.277 481.309 292.191 480.486 292.906 479.922L270.899 467.251C270.032 467.598 268.884 467.619 268.018 467.273L245.642 480.204C245.599 480.226 245.534 480.247 245.491 480.247C245.383 480.247 245.274 480.182 245.209 480.096C245.123 479.944 245.166 479.749 245.318 479.663L267.411 466.926C266.74 466.406 266.74 465.713 267.368 465.193L244.863 452.219C244.083 452.587 243 452.652 242.112 452.414L219.715 465.345C219.672 465.367 219.607 465.388 219.563 465.388C219.455 465.388 219.347 465.323 219.282 465.237C219.195 465.085 219.238 464.89 219.39 464.803L241.375 452.111C240.466 451.569 240.422 450.724 241.245 450.139L219.303 437.511C218.48 437.88 217.354 437.923 216.444 437.641L194.286 450.421C194.242 450.443 194.177 450.464 194.134 450.464C194.026 450.464 193.917 450.399 193.852 450.313C193.766 450.161 193.809 449.966 193.961 449.879L215.751 437.316C214.971 436.775 214.95 435.995 215.686 435.454L193.376 422.609C192.791 422.804 192.12 422.869 191.47 422.782L168.466 436.06C168.423 436.082 168.358 436.103 168.315 436.103C168.206 436.103 168.098 436.038 168.033 435.952C167.947 435.8 167.99 435.605 168.141 435.519L190.582 422.566C190.452 422.522 190.343 422.457 190.235 422.392C189.39 421.894 189.26 421.158 189.845 420.595L167.773 407.88C166.95 408.161 165.932 408.162 165.131 407.858L142.127 421.136C142.084 421.158 142.019 421.179 141.976 421.179C141.867 421.179 141.759 421.114 141.694 421.028C141.608 420.876 141.651 420.681 141.802 420.595L164.459 407.512C163.809 407.035 163.744 406.364 164.264 405.844L142.019 393.021C141.196 393.389 140.091 393.411 139.203 393.129L116.481 406.212C116.438 406.234 116.373 406.255 116.33 406.255C116.221 406.255 116.113 406.19 116.048 406.104C115.962 405.952 116.005 405.757 116.156 405.671L138.488 392.804C137.709 392.284 137.665 391.483 138.402 390.941L116.2 378.162C115.377 378.617 114.142 378.703 113.167 378.4L90.8354 391.31C90.7921 391.331 90.7272 391.353 90.6838 391.353C90.5755 391.353 90.4672 391.288 90.4023 391.201C90.3156 391.05 90.3589 390.855 90.5106 390.768L112.474 378.097C111.608 377.512 111.651 376.646 112.561 376.104L87.1532 361.462C87.0016 361.375 86.9583 361.18 87.0449 361.028C87.1315 360.877 87.3265 360.834 87.4781 360.92L113.319 375.801C114.229 375.541 115.333 375.628 116.113 376.017L137.709 363.541C137.427 363.021 137.644 362.458 138.337 362.046C138.38 362.025 138.423 362.003 138.467 361.981L112.712 347.166C112.561 347.079 112.518 346.884 112.604 346.733C112.691 346.581 112.886 346.538 113.037 346.624L139.29 361.722C139.831 361.613 140.416 361.592 140.958 361.7L163.528 348.66C163.16 348.119 163.355 347.491 164.113 347.057C164.221 346.993 164.329 346.949 164.438 346.906L139.203 332.35C139.052 332.263 139.008 332.068 139.095 331.917C139.182 331.765 139.376 331.722 139.528 331.809L165.326 346.689C165.845 346.624 166.387 346.646 166.864 346.754L189.737 333.541C189.607 333.087 189.845 332.61 190.452 332.263C190.473 332.242 190.495 332.242 190.517 332.22L165.347 317.729C165.196 317.643 165.152 317.448 165.239 317.296C165.326 317.144 165.521 317.101 165.672 317.188L191.296 331.96C191.73 331.852 192.228 331.83 192.683 331.874L215.751 318.552C215.513 318.076 215.686 317.556 216.271 317.166L191.686 303C191.535 302.914 191.491 302.719 191.578 302.567C191.665 302.415 191.86 302.372 192.011 302.459L216.986 316.841C217.592 316.646 218.307 316.603 218.957 316.711L241.462 303.715C241.289 303.282 241.462 302.827 241.96 302.459L217.137 288.163C216.986 288.076 216.942 287.881 217.029 287.73C217.116 287.578 217.311 287.535 217.462 287.621L242.653 302.134C243.238 301.939 243.91 301.874 244.559 301.96L266.22 289.441C265.245 288.856 265.245 287.925 266.242 287.361C266.328 287.318 266.436 287.275 266.523 287.231L242.675 273.455C242.523 273.369 242.48 273.174 242.567 273.022C242.653 272.871 242.848 272.827 243 272.914L267.39 287.015C268.234 286.885 269.187 286.993 269.859 287.383L292.646 273.975C292.061 273.412 292.169 272.654 293.036 272.156C293.057 272.156 293.057 272.134 293.079 272.134L268.819 258.141C268.668 258.055 268.624 257.86 268.711 257.708C268.797 257.557 268.992 257.513 269.144 257.6L293.837 271.831C294.595 271.658 295.461 271.679 296.176 271.918L318.248 259.181C317.382 258.618 317.403 257.773 318.27 257.21L294.66 243.586C294.508 243.499 294.465 243.304 294.552 243.152C294.638 243.001 294.833 242.958 294.985 243.044L319.006 256.907C319.938 256.625 321.086 256.69 321.887 257.102L338.826 247.333C338.977 247.246 339.172 247.29 339.259 247.441C339.345 247.593 339.302 247.788 339.151 247.874L322.472 257.513C322.884 257.947 322.884 258.466 322.494 258.9L344.761 271.744C345.757 271.333 347.165 271.398 348.053 271.918C348.118 271.961 348.161 271.982 348.205 272.026L365.381 262.149C365.533 262.062 365.728 262.105 365.815 262.257C365.901 262.409 365.858 262.604 365.706 262.69L348.681 272.502C348.941 272.936 348.833 273.434 348.356 273.824L370.536 286.625C371.468 286.127 372.876 286.105 373.851 286.538L391.136 276.553C391.287 276.466 391.482 276.51 391.569 276.661C391.655 276.813 391.612 277.008 391.46 277.094L374.457 286.906C375.042 287.47 374.955 288.206 374.175 288.683L396.117 301.332C397.114 300.791 398.717 300.812 399.691 301.376C399.8 301.441 399.908 301.506 399.995 301.592L417.691 291.39C417.843 291.304 418.038 291.347 418.124 291.499C418.211 291.65 418.168 291.845 418.016 291.932L400.385 302.112C400.558 302.567 400.363 303.087 399.756 303.455L421.958 316.3C422.933 315.888 424.319 315.91 425.229 316.408L443.467 305.881C443.619 305.794 443.814 305.838 443.9 305.989C443.987 306.141 443.944 306.336 443.792 306.423L425.771 316.82C426.204 317.318 426.139 317.924 425.554 318.379L447.496 331.05C448.492 330.639 449.922 330.682 450.81 331.202C450.832 331.202 450.832 331.224 450.853 331.224L469.503 320.458C469.655 320.372 469.85 320.415 469.936 320.567C470.023 320.718 469.979 320.913 469.828 321L451.352 331.657C451.698 332.133 451.59 332.675 451.07 333.108L473.553 346.083C474.528 345.606 476.001 345.606 476.954 346.104L495.842 335.209C495.994 335.123 496.189 335.166 496.275 335.318C496.362 335.469 496.319 335.664 496.167 335.751L477.517 346.494C477.994 347.014 477.886 347.686 477.192 348.162L499.134 360.812C500.152 360.314 501.69 360.335 502.643 360.877C502.687 360.898 502.708 360.92 502.752 360.942L522.008 349.83C522.159 349.743 522.354 349.787 522.441 349.938C522.528 350.09 522.484 350.285 522.333 350.372L503.228 361.397C503.553 361.895 503.402 362.48 502.752 362.891L525.387 375.952C525.409 375.931 525.43 375.931 525.452 375.909C526.427 375.346 528.008 375.324 529.026 375.866L548.477 364.646C548.628 364.559 548.823 364.602 548.91 364.754C548.997 364.906 548.953 365.101 548.802 365.187L529.589 376.277C530.066 376.841 529.914 377.534 529.112 377.989C529.091 378.01 529.069 378.01 529.026 378.032L550.036 390.162C551.033 389.599 552.657 389.599 553.654 390.183C553.805 390.27 553.935 390.378 554.044 390.465L574.015 378.942C574.166 378.855 574.361 378.898 574.448 379.05C574.534 379.202 574.491 379.396 574.339 379.483L554.369 391.006C554.477 391.44 554.26 391.916 553.675 392.263L575.856 405.064C576.83 404.566 578.347 404.566 579.321 405.086L599.704 393.324C599.855 393.237 600.05 393.281 600.137 393.432C600.224 393.584 600.18 393.779 600.029 393.866L579.884 405.497C580.339 406.039 580.209 406.689 579.495 407.143L601.567 419.88C601.762 420.031 601.805 420.226 601.718 420.4ZM527.271 435.194L550.101 422.024C549.538 421.526 549.56 420.855 550.166 420.378L527.921 407.555C527.228 407.815 526.383 407.858 525.625 407.685L502.254 421.179C502.319 421.569 502.124 421.959 501.69 422.262L523.871 435.085C524.867 434.609 526.34 434.652 527.271 435.194ZM395.836 509.922L373.612 497.142C372.703 497.641 371.295 497.684 370.32 497.272L348.594 509.792C348.746 510.204 348.594 510.615 348.161 510.962L370.428 523.785C371.381 523.438 372.638 523.482 373.526 523.915L395.121 511.46C394.839 510.94 395.034 510.355 395.749 509.944C395.771 509.944 395.814 509.922 395.836 509.922ZM116.72 377.685L139.052 390.552C140.005 390.205 141.261 390.248 142.127 390.682L163.744 378.227C163.463 377.729 163.636 377.165 164.286 376.754L142.084 363.996C142.041 364.018 142.019 364.039 141.976 364.061C140.979 364.646 139.333 364.646 138.337 364.061C138.272 364.018 138.207 363.974 138.142 363.931L116.676 376.321C117.045 376.732 117.066 377.252 116.72 377.685ZM270.487 288.618L292.971 301.614C293.924 301.376 295.072 301.462 295.851 301.917C295.916 301.96 295.981 301.982 296.025 302.025L318.855 288.878C318.097 288.336 318.097 287.556 318.855 286.993L296.674 274.213C296.653 274.213 296.653 274.235 296.631 274.235C295.7 274.777 294.205 274.82 293.209 274.343L270.292 287.578C270.595 287.903 270.639 288.271 270.487 288.618ZM318.941 259.528L296.848 272.286C297.454 272.719 297.563 273.304 297.216 273.802L319.57 286.69C320.479 286.387 321.649 286.43 322.494 286.82L344.544 274.127C344.479 274.105 344.436 274.062 344.371 274.04C343.483 273.52 343.374 272.719 344.067 272.134L321.887 259.333C321.086 259.744 319.894 259.809 318.941 259.528ZM524.91 376.451L502.059 363.259C501.409 363.476 500.629 363.498 499.936 363.346L477.712 376.169C478.232 376.667 478.21 377.295 477.626 377.794L500.304 390.876C501.171 390.443 502.427 390.4 503.38 390.747L525.43 378.01C524.737 377.577 524.564 376.971 524.91 376.451ZM524.369 405.476L503.228 393.281C502.34 393.562 501.235 393.519 500.434 393.172L477.496 406.407C477.886 406.927 477.734 407.555 477.062 407.988L498.073 420.14C499.091 419.663 500.586 419.685 501.539 420.226C501.712 420.335 501.864 420.443 501.972 420.573L524.845 407.382C524.802 407.36 524.759 407.338 524.737 407.317C523.849 406.84 523.741 406.06 524.369 405.476ZM348.096 480.377L370.645 467.359C370.298 466.883 370.407 466.32 370.948 465.908L348.291 452.847C347.338 453.367 345.844 453.367 344.869 452.89L322.645 465.713C323.403 466.168 323.577 466.84 323.143 467.381L345.995 480.507C346.623 480.291 347.403 480.247 348.096 480.377ZM194.351 393.302L216.401 405.995C217.246 405.692 218.329 405.692 219.173 405.995L241.462 393.129C240.769 392.588 240.812 391.83 241.57 391.288L219.607 378.638C218.589 379.137 217.072 379.115 216.119 378.552C216.054 378.508 216.011 378.487 215.946 378.443L193.701 391.288C193.809 391.331 193.917 391.375 194.004 391.44C194.892 391.938 195 392.718 194.351 393.302ZM296.371 303.585L318.66 316.473C319.613 316.126 320.869 316.17 321.736 316.603L344.609 303.39C344.197 302.935 344.219 302.35 344.717 301.917L322.494 289.116C321.649 289.506 320.458 289.549 319.548 289.246L296.479 302.524C296.674 302.87 296.631 303.238 296.371 303.585ZM499.719 391.288L476.976 378.183C476.131 378.53 475.026 378.53 474.16 378.227L451.113 391.526C451.352 391.96 451.222 392.436 450.767 392.826L473.424 405.909C474.442 405.389 476.001 405.411 476.954 405.974C476.954 405.974 476.976 405.974 476.976 405.995L499.806 392.804C499.308 392.349 499.286 391.743 499.719 391.288ZM370.428 437.381C370.19 436.927 370.32 436.428 370.818 436.038L348.833 423.367C347.836 423.8 346.385 423.757 345.475 423.237C345.302 423.129 345.15 423.021 345.042 422.912L322.58 435.865C322.645 435.887 322.71 435.93 322.775 435.973C323.577 436.428 323.728 437.143 323.252 437.685L345.367 450.443C346.125 450.226 347.035 450.226 347.771 450.464L370.428 437.381ZM245.751 392.978L268.191 405.909C268.797 405.757 269.491 405.757 270.119 405.887L292.992 392.674C292.884 392.263 293.057 391.83 293.555 391.483L271.267 378.638C270.27 379.007 268.949 378.942 268.061 378.465L245.642 391.396C246.206 391.895 246.227 392.501 245.751 392.978ZM345.259 333.931L323.512 346.494C324.378 347.079 324.356 347.946 323.425 348.509L345.692 361.332C346.32 361.05 347.122 360.963 347.858 361.072L369.518 348.574C368.544 348.011 368.522 347.122 369.41 346.538L347.165 333.693C346.602 333.91 345.909 333.996 345.259 333.931ZM421.005 376.364L398.543 363.389C397.829 363.758 396.811 363.844 395.944 363.671L374.37 376.126C374.435 376.147 374.5 376.191 374.565 376.234C375.475 376.754 375.562 377.577 374.825 378.14L397.33 391.115C397.937 390.812 398.76 390.703 399.496 390.79L421.2 378.27C420.355 377.729 420.29 376.927 421.005 376.364ZM347.598 420.703L370.775 407.338C370.601 406.949 370.71 406.515 371.1 406.169L348.551 393.194C347.555 393.627 346.104 393.584 345.194 393.064C345.15 393.043 345.129 393.021 345.107 392.999L322.559 406.017C322.667 406.06 322.797 406.125 322.884 406.169C323.707 406.645 323.858 407.36 323.338 407.923L345.93 420.941C346.407 420.746 347.013 420.66 347.598 420.703ZM297.779 393.194L319.829 405.909C320.393 405.736 321.042 405.692 321.671 405.779L344.609 392.544C344.306 392.068 344.414 391.548 344.956 391.136L322.992 378.487C321.995 378.898 320.588 378.855 319.678 378.335C319.613 378.292 319.526 378.248 319.483 378.205L296.913 391.245C297.086 391.31 297.238 391.375 297.389 391.461C298.191 391.895 298.321 392.631 297.779 393.194ZM323.079 376.082C323.165 376.126 323.23 376.147 323.317 376.191C324.205 376.711 324.313 377.512 323.62 378.075L345.605 390.747C346.298 390.487 347.165 390.443 347.923 390.595L370.298 377.685C370.06 377.252 370.168 376.776 370.601 376.407L348.616 363.736C347.62 364.104 346.277 364.039 345.41 363.541C345.302 363.476 345.215 363.411 345.129 363.346L323.079 376.082ZM373.916 405.541L396.486 392.523C396.356 392.176 396.464 391.808 396.767 391.505L374.197 378.508C373.201 378.898 371.814 378.833 370.926 378.335C370.861 378.292 370.796 378.27 370.753 378.227L348.724 390.941C348.768 390.963 348.789 390.985 348.833 391.006C349.699 391.505 349.807 392.284 349.179 392.869L371.706 405.844C372.334 405.497 373.157 405.411 373.916 405.541ZM394.904 361.267L373.027 348.617C372.248 349.007 371.165 349.094 370.255 348.855L348.724 361.288C348.833 361.332 348.963 361.397 349.071 361.44C349.981 361.96 350.067 362.805 349.309 363.389L371.273 376.039C371.944 375.758 372.811 375.693 373.569 375.823L395.164 363.368C395.121 363.346 395.078 363.324 395.034 363.303C394.038 362.761 394.016 361.852 394.904 361.267ZM297.844 361.288C298.602 361.852 298.559 362.653 297.736 363.194L320.024 376.017C320.674 375.758 321.497 375.693 322.234 375.823L344.739 362.848C344.587 362.458 344.696 362.046 345.064 361.7L322.667 348.79C321.757 349.029 320.653 348.964 319.873 348.574L297.844 361.288ZM271.722 376.386C272.61 376.906 272.675 377.729 271.938 378.313L294.27 391.18C294.79 391.006 295.375 390.963 295.96 391.006L319.028 377.685C318.811 377.252 318.92 376.776 319.396 376.407L297.043 363.541C296.155 363.801 295.05 363.758 294.249 363.389L271.722 376.386ZM271.57 407.858L293.75 420.66C294.4 420.508 295.158 420.53 295.786 420.703L318.551 407.577C318.357 407.122 318.551 406.624 319.115 406.255L297.194 393.627C296.176 394.126 294.66 394.082 293.707 393.541C293.555 393.454 293.447 393.367 293.339 393.259L270.899 406.212C270.92 406.234 270.964 406.255 270.985 406.255C271.765 406.667 271.938 407.317 271.57 407.858ZM297.086 422.587L319.786 435.67C320.393 435.497 321.107 435.475 321.757 435.584L344.739 422.327C344.674 421.959 344.847 421.591 345.237 421.288L322.732 408.313C321.714 408.833 320.176 408.811 319.223 408.248C319.115 408.183 319.028 408.118 318.941 408.053L296.523 420.984C297.281 421.418 297.454 422.046 297.086 422.587ZM373.656 435.519L396.486 422.327C396.139 421.873 396.182 421.331 396.659 420.92L374.63 408.226C373.634 408.595 372.291 408.53 371.425 408.032C371.316 407.967 371.251 407.923 371.165 407.858L348.551 420.898C348.746 420.963 348.941 421.049 349.114 421.136C349.981 421.634 350.089 422.414 349.461 422.999L371.49 435.692C372.139 435.432 372.941 435.389 373.656 435.519ZM399.908 420.356L422.175 407.512C421.893 407.1 421.958 406.624 422.348 406.234L400.276 393.519C399.302 393.844 398.024 393.757 397.179 393.281C397.049 393.216 396.941 393.129 396.854 393.043L374.782 405.779C374.89 405.822 374.999 405.866 375.085 405.93C375.995 406.45 376.082 407.295 375.302 407.88L397.287 420.551C398.067 420.205 399.063 420.14 399.908 420.356ZM425.511 405.584L447.063 393.129C446.998 393.086 446.911 393.064 446.846 393.021C445.958 392.501 445.85 391.7 446.565 391.115L424.601 378.422C423.821 378.747 422.803 378.79 421.98 378.552L400.45 390.963C400.579 391.006 400.731 391.071 400.839 391.158C401.792 391.7 401.836 392.588 400.991 393.172L422.955 405.822C423.67 405.476 424.666 405.389 425.511 405.584ZM473.402 376.104L451.417 363.433C450.485 363.801 449.229 363.779 448.341 363.368L425.424 376.581C425.814 377.057 425.749 377.62 425.251 378.054L447.193 390.747C448.189 390.335 449.597 390.4 450.485 390.92C450.55 390.963 450.615 391.006 450.68 391.05L473.488 377.88C472.795 377.36 472.752 376.646 473.402 376.104ZM447.821 361.353L425.316 348.379C424.428 348.812 423.171 348.834 422.24 348.465L399.237 361.743C399.496 362.133 399.432 362.588 399.107 362.956L421.655 375.996C422.63 375.606 423.994 375.671 424.861 376.147L447.734 362.978C447.214 362.48 447.236 361.83 447.821 361.353ZM421.698 346.299L399.778 333.65C398.847 334.083 397.525 334.083 396.594 333.671L373.677 346.906C374.002 347.317 373.981 347.816 373.612 348.227L395.641 360.963C396.616 360.66 397.85 360.747 398.673 361.223C398.717 361.245 398.76 361.267 398.782 361.288L421.612 348.119C420.919 347.577 420.94 346.819 421.698 346.299ZM396.139 331.57L373.851 318.726C373.114 318.986 372.226 319.029 371.446 318.812L348.183 332.242C348.291 332.61 348.14 332.978 347.771 333.303L370.082 346.213C371.056 345.909 372.291 345.996 373.114 346.473L395.944 333.303C395.403 332.74 395.468 332.047 396.139 331.57ZM370.32 316.668L348.291 303.953C347.338 304.3 346.06 304.256 345.215 303.802L322.342 317.014C322.797 317.491 322.754 318.076 322.255 318.531L344.241 331.245C345.237 330.855 346.623 330.92 347.49 331.419C347.641 331.505 347.75 331.592 347.858 331.7L370.688 318.509C370.688 318.509 370.688 318.509 370.666 318.509C369.822 318.011 369.692 317.231 370.32 316.668ZM297.324 331.44C297.498 331.505 297.649 331.57 297.801 331.657C298.797 332.242 298.797 333.173 297.822 333.758L319.764 346.408C320.588 345.953 321.822 345.866 322.797 346.169L344.306 333.758C344.132 333.693 343.981 333.628 343.829 333.541C342.919 333.022 342.833 332.198 343.569 331.614L321.606 318.921C320.804 319.267 319.699 319.31 318.833 319.029L297.324 331.44ZM271.7 346.234C271.83 346.278 271.938 346.343 272.047 346.408C273.021 346.971 273.043 347.859 272.133 348.444L294.097 361.093C294.963 360.66 296.22 360.595 297.173 360.942L319.31 348.162C318.92 347.751 318.898 347.252 319.245 346.819L297.064 334.04C296.111 334.299 294.942 334.191 294.162 333.736C294.01 333.65 293.902 333.563 293.794 333.455L271.7 346.234ZM245.513 361.375C245.729 361.44 245.924 361.527 246.097 361.635C247.007 362.155 247.094 363 246.336 363.563L268.321 376.234C269.101 375.909 270.119 375.844 270.964 376.082L293.62 363C293.144 362.545 293.1 361.981 293.534 361.527L271.418 348.79C270.444 349.072 269.209 348.985 268.408 348.53C268.299 348.465 268.191 348.4 268.104 348.335L245.513 361.375ZM219.563 376.342C219.628 376.364 219.693 376.407 219.758 376.429C220.581 376.906 220.733 377.642 220.17 378.205L242.242 390.941C243.108 390.66 244.213 390.682 245.036 391.028L267.541 378.032C267.173 377.577 267.216 377.014 267.714 376.581L245.686 363.888C244.689 364.256 243.325 364.191 242.458 363.693C242.285 363.584 242.134 363.476 242.025 363.346L219.563 376.342ZM219.953 408.032L242.372 420.92C242.935 420.768 243.585 420.746 244.191 420.855L266.783 407.815C266.436 407.273 266.61 406.645 267.368 406.234C267.39 406.234 267.411 406.212 267.411 406.212L245.166 393.389C244.278 393.822 243.022 393.844 242.09 393.497L219.823 406.364C220.473 406.84 220.516 407.512 219.953 408.032ZM245.794 422.891L267.996 435.649C268.603 435.519 269.274 435.497 269.881 435.649L292.364 422.674C291.931 422.132 292.082 421.439 292.862 420.984C292.884 420.963 292.927 420.963 292.949 420.941L271.05 408.313C271.029 408.313 271.007 408.335 271.007 408.335C270.01 408.92 268.364 408.92 267.368 408.335C267.346 408.313 267.303 408.291 267.281 408.27L245.036 421.093C245.123 421.136 245.188 421.158 245.274 421.201C246.032 421.678 246.206 422.349 245.794 422.891ZM271.353 437.576L294.097 450.659C294.638 450.508 295.245 450.464 295.83 450.551L318.53 437.468C318.248 436.97 318.443 436.407 319.093 435.995L296.631 423.042C296.609 423.064 296.588 423.086 296.544 423.086C295.548 423.67 293.924 423.67 292.927 423.107L270.704 435.93C270.747 435.952 270.769 435.973 270.812 435.995C271.527 436.407 271.722 437.056 271.353 437.576ZM297.541 452.652L319.721 465.41C320.414 465.237 321.216 465.237 321.887 465.41L344.284 452.479C343.764 451.937 343.872 451.222 344.652 450.746L322.71 438.096C321.714 438.638 320.111 438.616 319.136 438.053C319.071 438.01 319.006 437.988 318.963 437.945L296.696 450.789C296.826 450.833 296.934 450.898 297.043 450.962C297.822 451.396 297.996 452.089 297.541 452.652ZM374.002 465.432L396.832 452.262C396.724 451.916 396.832 451.547 397.157 451.222L374.435 438.14C373.439 438.573 371.988 438.529 371.078 438.01C371.013 437.966 370.948 437.923 370.883 437.88L348.486 450.811C349.179 451.266 349.288 451.916 348.833 452.457L371.598 465.583C372.313 465.28 373.222 465.237 374.002 465.432ZM399.843 450.508L422.868 437.208C422.651 436.84 422.716 436.428 423.02 436.082L400.233 422.956C399.237 423.324 397.872 423.259 397.006 422.761L374.479 435.757C374.544 435.8 374.63 435.822 374.695 435.865C375.562 436.363 375.67 437.143 375.042 437.728L397.742 450.811C398.348 450.529 399.128 450.421 399.843 450.508ZM426.117 435.345L448.579 422.371C448.427 422.046 448.492 421.699 448.709 421.396L425.879 408.248C424.904 408.573 423.605 408.508 422.76 408.01C422.716 407.988 422.695 407.967 422.673 407.945L400.666 420.66C401.576 421.179 401.663 422.024 400.904 422.609L423.583 435.67C424.276 435.302 425.251 435.194 426.117 435.345ZM451.698 420.573L473.337 408.075C473.337 408.075 473.315 408.075 473.315 408.053C472.492 407.577 472.34 406.862 472.86 406.32L450.139 393.194C449.467 393.454 448.644 393.519 447.908 393.389L426.312 405.866C426.355 405.887 426.377 405.909 426.42 405.909C427.373 406.45 427.417 407.317 426.594 407.902L449.25 420.941C449.9 420.573 450.853 420.443 451.698 420.573ZM498.571 361.245L476.499 348.509C475.741 348.747 474.831 348.747 474.052 348.53L451.936 361.288C452.651 361.808 452.673 362.523 452.045 363.065L474.052 375.758C474.983 375.389 476.239 375.411 477.127 375.823L499.156 363.108C499.113 363.086 499.069 363.065 499.026 363.043C498.203 362.545 498.051 361.808 498.571 361.245ZM473.012 346.494L450.442 333.476C449.727 333.758 448.796 333.801 447.994 333.606L425.814 346.408C426.355 346.884 426.377 347.491 425.901 347.967L448.471 360.963C449.294 360.639 450.398 360.617 451.265 360.92L473.337 348.184C472.6 347.729 472.492 347.036 473.012 346.494ZM446.868 331.419L424.904 318.747C424.124 319.051 423.128 319.072 422.327 318.834L400.211 331.592C400.861 332.068 400.926 332.74 400.385 333.26L422.392 345.953C423.258 345.671 424.363 345.693 425.186 346.039L447.214 333.325C447.193 333.325 447.171 333.303 447.171 333.303C446.305 332.783 446.196 332.003 446.868 331.419ZM421.33 316.69L398.977 303.802C398.435 303.953 397.829 303.997 397.265 303.932L374.847 316.863C375.215 317.361 375.107 317.946 374.522 318.379L396.832 331.245C397.655 330.964 398.695 330.964 399.518 331.267L421.59 318.531C420.789 317.989 420.702 317.231 421.33 316.69ZM395.511 301.787L373.396 289.029C372.594 289.267 371.641 289.246 370.861 288.964L348.811 301.701C349.634 302.242 349.678 303.043 348.941 303.607L370.905 316.278C371.923 315.823 373.374 315.866 374.305 316.408C374.305 316.408 374.305 316.408 374.327 316.408L396.356 303.693C396.226 303.65 396.096 303.585 395.987 303.52C395.208 303.044 395.034 302.35 395.511 301.787ZM369.93 287.036L347.663 274.192C346.992 274.452 346.125 274.517 345.367 274.365L323.079 287.188C323.555 287.643 323.555 288.228 323.079 288.704L345.324 301.527C346.125 301.181 347.208 301.116 348.096 301.397L370.19 288.639C369.583 288.163 369.497 287.535 369.93 287.036ZM293.23 304.386L271.613 316.841C271.657 316.863 271.722 316.885 271.765 316.928C272.696 317.469 272.761 318.314 271.982 318.877L294.162 331.657C294.768 331.31 295.591 331.18 296.371 331.245L318.118 318.682C317.317 318.162 317.273 317.361 318.01 316.82L295.851 304.018C295.158 304.43 294.14 304.56 293.23 304.386ZM245.946 331.614C245.967 331.635 246.011 331.635 246.032 331.657C246.92 332.177 247.029 332.978 246.314 333.563L268.516 346.343C269.166 346.018 270.032 345.888 270.812 345.996L293.447 332.935C293.36 332.653 293.425 332.35 293.642 332.068L271.31 319.202C270.314 319.549 268.992 319.484 268.126 318.986C268.083 318.964 268.018 318.921 267.974 318.899L245.946 331.614ZM219.737 346.711C219.867 346.754 219.975 346.819 220.083 346.884C220.906 347.361 221.058 348.097 220.495 348.66L242.74 361.483C243.26 361.267 243.91 361.158 244.538 361.202L267.736 347.794C267.606 347.447 267.671 347.079 267.953 346.776L245.664 333.931C244.668 334.321 243.281 334.278 242.393 333.758C242.372 333.736 242.328 333.715 242.307 333.693L219.737 346.711ZM193.701 361.678C193.701 361.7 193.722 361.7 193.701 361.678C194.459 362.111 194.654 362.761 194.286 363.281L216.661 376.191C217.289 375.974 218.047 375.952 218.74 376.082L241.722 362.805C241.657 362.48 241.809 362.133 242.134 361.852L219.91 349.05C218.892 349.548 217.376 349.505 216.423 348.964C216.314 348.899 216.206 348.834 216.119 348.769L193.701 361.678ZM167.817 376.602C167.882 376.624 167.947 376.667 167.99 376.689C168.791 377.144 168.943 377.859 168.466 378.4L190.777 391.245C191.383 391.006 192.141 390.941 192.834 391.05L215.491 377.967C215.21 377.49 215.383 376.949 215.968 376.537L193.809 363.758C193.787 363.779 193.766 363.779 193.744 363.801C192.748 364.386 191.102 364.386 190.105 363.801C190.105 363.801 190.083 363.801 190.083 363.779L167.817 376.602ZM142.604 392.588L164.827 405.389C165.759 404.956 167.102 404.934 168.055 405.367L189.715 392.869C189.52 392.436 189.672 391.981 190.148 391.613L167.925 378.833C166.928 379.375 165.326 379.353 164.351 378.79C164.286 378.747 164.243 378.725 164.178 378.682L142.669 391.05C143.124 391.526 143.102 392.133 142.604 392.588ZM168.445 407.468L190.408 420.118C191.426 419.642 192.921 419.685 193.852 420.226C193.961 420.291 194.047 420.356 194.134 420.421L215.599 408.032C215.036 407.512 215.058 406.819 215.729 406.32L193.722 393.671C192.726 394.104 191.275 394.061 190.365 393.541C190.257 393.476 190.192 393.432 190.105 393.367L168.64 405.757C169.203 406.277 169.138 406.97 168.445 407.468ZM194.047 422.219L216.358 435.064C217.289 434.739 218.524 434.782 219.368 435.194L240.986 422.717C240.726 422.219 240.921 421.634 241.635 421.223L219.368 408.421C218.459 408.833 217.159 408.833 216.249 408.421L194.567 420.941C194.719 421.374 194.546 421.851 194.047 422.219ZM219.888 437.1L241.917 449.793C242.892 449.468 244.148 449.533 244.993 450.009L266.545 437.576C266.198 437.035 266.393 436.428 267.13 435.995C267.151 435.973 267.173 435.973 267.195 435.952L245.253 423.345C244.256 423.93 242.61 423.93 241.614 423.345C241.549 423.302 241.484 423.259 241.419 423.215L219.932 435.605C220.408 436.06 220.386 436.645 219.888 437.1ZM245.448 451.807L268.018 464.803C268.927 464.435 270.14 464.457 271.029 464.825L292.732 452.305C292.537 451.829 292.754 451.309 293.36 450.941L270.855 438.01C270.834 438.031 270.812 438.031 270.79 438.053C269.794 438.638 268.148 438.638 267.151 438.053C267.108 438.031 267.086 438.01 267.043 437.988L245.534 450.399C245.902 450.854 245.881 451.396 245.448 451.807ZM271.592 466.883L293.599 479.554C294.595 479.164 295.981 479.229 296.869 479.728C296.891 479.749 296.934 479.771 296.956 479.792L318.465 467.381C318.032 466.84 318.183 466.168 318.963 465.713L296.999 453.085C296.003 453.648 294.378 453.627 293.404 453.064C293.295 452.999 293.209 452.934 293.122 452.869L271.657 465.258C272.198 465.735 272.177 466.385 271.592 466.883ZM297.194 481.612L319.894 494.673C320.869 494.197 322.32 494.218 323.273 494.717L344.847 482.262C344.566 481.785 344.717 481.244 345.302 480.832L322.624 467.793C321.627 468.356 320.003 468.356 319.006 467.793L297.454 480.226C297.757 480.702 297.671 481.2 297.194 481.612ZM323.512 496.774L344.587 508.904C345.584 508.493 347.013 508.536 347.923 509.056C348.053 509.121 348.14 509.207 348.226 509.272L369.692 496.883C369.042 496.319 369.129 495.54 369.973 495.02L348.919 482.912C347.901 483.388 346.407 483.366 345.454 482.825C345.389 482.803 345.345 482.76 345.302 482.717L323.815 495.128C324.27 495.67 324.183 496.319 323.512 496.774ZM395.533 481.98C394.796 481.439 394.818 480.659 395.598 480.117L374.544 467.988C373.547 468.421 372.096 468.377 371.186 467.858C371.165 467.858 371.165 467.836 371.143 467.836L348.919 480.659C348.984 480.681 349.028 480.724 349.093 480.746C349.937 481.222 350.067 481.98 349.504 482.543L370.731 494.738C371.533 494.522 372.508 494.543 373.266 494.846L395.533 481.98ZM421.633 466.926C421.2 466.45 421.265 465.865 421.807 465.41L400.688 453.237C399.691 453.583 398.392 453.497 397.547 453.02C397.417 452.934 397.309 452.869 397.2 452.782L374.782 465.713C374.804 465.713 374.825 465.735 374.825 465.735C375.692 466.233 375.8 467.013 375.15 467.598L396.269 479.771C397.157 479.468 398.305 479.511 399.128 479.879L421.633 466.926ZM447.734 451.872C447.171 451.396 447.149 450.768 447.669 450.269L426.485 438.075C425.511 438.356 424.298 438.269 423.475 437.815C423.41 437.771 423.345 437.75 423.301 437.706L400.753 450.724C400.904 450.789 401.056 450.854 401.186 450.919C402.117 451.461 402.182 452.327 401.381 452.89L422.457 465.02C423.236 464.695 424.276 464.674 425.121 464.912L447.734 451.872ZM473.402 437.057C472.925 436.602 472.904 436.038 473.337 435.584L452.11 423.345C451.157 423.584 450.009 423.497 449.229 423.042C449.142 422.977 449.056 422.934 448.969 422.869L426.94 435.584C427.005 435.605 427.07 435.649 427.135 435.692C428.11 436.255 428.132 437.165 427.222 437.75L448.276 449.879C449.164 449.468 450.398 449.446 451.308 449.814L473.402 437.057ZM498.463 422.609C498.246 422.544 498.051 422.457 497.878 422.349C497.033 421.873 496.903 421.114 497.488 420.551L476.348 408.335C475.655 408.551 474.831 408.551 474.117 408.378L452.586 420.811C452.694 420.855 452.803 420.898 452.889 420.963C453.886 421.548 453.886 422.479 452.889 423.064L473.922 435.172C474.766 434.739 476.001 434.674 476.954 435.02L498.463 422.609ZM553.654 419.966L575.704 407.23C574.946 406.754 574.816 406.06 575.314 405.519L552.939 392.609C552.484 392.739 551.964 392.783 551.466 392.739L528.939 405.736C529.242 406.212 529.112 406.754 528.571 407.165L550.816 419.988C551.661 419.663 552.787 419.642 553.654 419.966ZM528.268 378.378C527.596 378.53 526.816 378.508 526.145 378.335L504.03 391.093C504.744 391.656 504.723 392.436 503.921 392.956L524.975 405.086C525.993 404.631 527.445 404.674 528.354 405.216C528.398 405.237 528.419 405.259 528.463 405.281L550.535 392.544C550.361 392.479 550.188 392.414 550.036 392.328C549.257 391.873 549.083 391.201 549.538 390.638L528.268 378.378ZM245.383 302.004C245.513 302.047 245.621 302.112 245.751 302.177C246.596 302.675 246.726 303.412 246.141 303.997L268.386 316.82C269.079 316.495 270.01 316.43 270.812 316.581L292.429 304.148C292.364 304.127 292.299 304.083 292.234 304.04C291.238 303.455 291.238 302.524 292.234 301.939L270.075 289.138C270.01 289.203 269.924 289.246 269.837 289.289C269.057 289.744 267.866 289.831 266.913 289.571L245.383 302.004ZM219.758 316.798C219.845 316.841 219.932 316.885 219.997 316.928C220.82 317.404 220.971 318.119 220.43 318.682L242.697 331.505C243.411 331.202 244.321 331.159 245.123 331.332L267.498 318.444C267.238 318.033 267.325 317.556 267.736 317.166L245.513 304.365C244.495 304.841 243.022 304.798 242.069 304.256C241.96 304.192 241.852 304.127 241.765 304.04L219.758 316.798ZM193.571 331.917C193.744 331.982 193.896 332.047 194.047 332.133C194.805 332.567 194.979 333.216 194.611 333.758L216.986 346.646C217.549 346.451 218.22 346.408 218.849 346.494L241.83 333.26C241.527 332.805 241.614 332.285 242.112 331.874L219.91 319.072C218.892 319.57 217.354 319.549 216.401 319.007C216.314 318.964 216.249 318.921 216.184 318.856L193.571 331.917ZM167.6 346.906C167.622 346.928 167.665 346.928 167.687 346.949C168.336 347.317 168.575 347.859 168.358 348.357L190.928 361.375C191.556 361.223 192.293 361.245 192.921 361.397L215.729 348.27C215.556 347.837 215.729 347.339 216.271 346.992L194.091 334.213C194.069 334.235 194.047 334.235 194.026 334.256C193.029 334.841 191.383 334.841 190.387 334.256C190.235 334.17 190.127 334.083 190.019 333.975L167.6 346.906ZM141.737 361.83C141.802 361.873 141.889 361.895 141.954 361.938C142.691 362.35 142.885 362.978 142.539 363.498L164.979 376.407C165.586 376.234 166.322 376.191 166.972 376.321L189.542 363.324C189.13 362.783 189.304 362.111 190.083 361.678C190.105 361.657 190.127 361.657 190.17 361.635L167.99 348.834C167.903 348.899 167.817 348.964 167.708 349.029C166.712 349.613 165.066 349.613 164.069 349.029C164.048 349.007 164.004 348.985 163.983 348.964L141.737 361.83ZM398.37 509.597L420.919 496.579C420.55 496.059 420.724 495.453 421.417 495.02L399.215 482.218C398.348 482.63 397.135 482.673 396.204 482.348L373.916 495.215C374.479 495.648 374.544 496.233 374.154 496.731L396.616 509.662C397.179 509.511 397.807 509.489 398.37 509.597ZM424.276 494.652L447.128 481.46C446.998 481.049 447.171 480.637 447.626 480.291L425.381 467.468C424.406 467.858 423.085 467.814 422.175 467.338L399.735 480.291C400.233 480.746 400.255 481.352 399.778 481.807L422.11 494.695C422.803 494.5 423.583 494.478 424.276 494.652ZM450.117 479.728L473.164 466.428C472.925 465.995 473.034 465.518 473.488 465.15L451.2 452.327C450.333 452.63 449.207 452.609 448.362 452.262L425.814 465.258C426.637 465.778 426.702 466.558 426.009 467.121L448.276 479.944C448.839 479.728 449.489 479.663 450.117 479.728ZM476.391 464.565L498.853 451.591C498.68 451.201 498.788 450.789 499.156 450.464L476.824 437.598C475.936 437.88 474.81 437.815 474.008 437.446L451.958 450.161C452.63 450.703 452.608 451.439 451.893 451.959L474.138 464.76C474.788 464.5 475.633 464.435 476.391 464.565ZM523.632 437.295C522.744 436.797 522.636 436.017 523.264 435.454L500.997 422.587C500.521 422.739 499.979 422.804 499.459 422.782L477.626 435.367C478.405 435.93 478.362 436.732 477.539 437.273L499.741 450.074C500.391 449.771 501.214 449.685 501.972 449.793L523.632 437.295Z" fill="#D3DAED"/>
<path d="M134.861 311.973C133.272 311.973 131.683 311.599 130.561 310.945L111.869 300.197C110.654 299.449 110 298.514 110 297.486C110 296.458 110.654 295.43 111.869 294.776L130.561 284.028C131.683 283.374 133.272 283 134.861 283C136.449 283 138.038 283.374 139.16 284.028L157.852 294.776C159.067 295.524 159.721 296.458 159.721 297.486C159.721 298.514 159.067 299.543 157.852 300.197L139.16 310.945C138.038 311.599 136.449 311.973 134.861 311.973ZM134.861 283.748C133.365 283.748 132.057 284.028 131.029 284.682L112.337 295.43C111.402 295.991 110.935 296.645 110.935 297.393C110.935 298.141 111.402 298.795 112.337 299.356L131.029 310.104C132.057 310.664 133.365 311.038 134.861 311.038C136.356 311.038 137.664 310.758 138.692 310.104L157.385 299.356C158.319 298.795 158.786 298.141 158.786 297.393C158.786 296.645 158.319 295.991 157.385 295.43L138.692 284.682C137.664 284.028 136.356 283.748 134.861 283.748Z" fill="#C2D6FF"/>
<path d="M172.861 418.973C171.272 418.973 169.683 418.599 168.561 417.945L149.869 407.197C148.654 406.449 148 405.514 148 404.486C148 403.458 148.654 402.43 149.869 401.776L168.561 391.028C169.683 390.374 171.272 390 172.861 390C174.449 390 176.038 390.374 177.16 391.028L195.852 401.776C197.067 402.524 197.721 403.458 197.721 404.486C197.721 405.514 197.067 406.543 195.852 407.197L177.16 417.945C176.038 418.599 174.449 418.973 172.861 418.973ZM172.861 390.748C171.365 390.748 170.057 391.028 169.029 391.682L150.337 402.43C149.402 402.991 148.935 403.645 148.935 404.393C148.935 405.141 149.402 405.795 150.337 406.356L169.029 417.104C170.057 417.664 171.365 418.038 172.861 418.038C174.356 418.038 175.664 417.758 176.692 417.104L195.385 406.356C196.319 405.795 196.786 405.141 196.786 404.393C196.786 403.645 196.319 402.991 195.385 402.43L176.692 391.682C175.664 391.028 174.356 390.748 172.861 390.748Z" fill="#C2D6FF"/>
<path opacity="0.5" fill-rule="evenodd" clip-rule="evenodd" d="M334.148 334.565L364.635 317.055C366.057 316.255 367.923 315.811 369.79 315.811C371.657 315.811 373.523 316.255 374.945 317.055L466.318 369.585C469.162 371.185 469.162 373.852 466.318 375.541L435.831 393.051C434.409 393.851 432.542 394.295 430.675 394.295C428.809 394.295 426.942 393.851 425.52 393.051L334.148 340.52C331.303 338.831 331.303 336.165 334.148 334.565Z" fill="url(#paint1_linear)"/>
<path d="M273.262 342.031V369.852C273.262 370.296 273.173 370.652 272.995 371.007C272.64 371.63 272.017 372.252 271.129 372.785L240.641 390.295C239.219 391.095 237.353 391.54 235.486 391.54C233.619 391.54 231.753 391.095 230.331 390.295L199.844 372.785C198.688 372.163 197.71 371.096 197.71 369.852V342.031H273.262Z" fill="url(#paint2_linear)"/>
<path d="M277.795 323.81V361.319C277.795 361.763 277.706 362.208 277.439 362.652C277.084 363.363 276.373 364.074 275.395 364.608L241.175 384.251C239.575 385.14 237.442 385.584 235.397 385.584C233.264 385.584 231.22 385.14 229.62 384.251L195.4 364.608C194.155 363.897 193 362.741 193 361.319V323.81H277.795Z" fill="#FFC700"/>
<path d="M235.397 336.876C233.264 336.876 231.22 337.32 229.62 338.209L195.4 357.853C192.2 359.719 192.2 362.652 195.4 364.519L229.62 384.162C231.22 385.051 233.353 385.495 235.397 385.495C237.53 385.495 239.575 385.051 241.175 384.162L275.395 364.608C278.595 362.741 278.595 359.808 275.395 357.941L241.175 338.298C239.575 337.409 237.53 336.876 235.397 336.876Z" fill="#EDBD13"/>
<path d="M235.397 300.7C233.264 300.7 231.22 301.145 229.62 302.033L195.4 321.677C192.2 323.543 192.2 326.477 195.4 328.343L229.62 347.986C231.22 348.875 233.353 349.32 235.397 349.32C237.53 349.32 239.575 348.875 241.175 347.986L275.395 328.343C278.595 326.477 278.595 323.543 275.395 321.677L241.175 302.033C239.575 301.145 237.53 300.7 235.397 300.7Z" fill="url(#paint3_linear)"/>
<path d="M235.397 300.611C233.264 300.611 231.22 301.056 229.62 301.945L195.4 321.588C192.2 323.454 192.2 326.388 195.4 328.254L229.62 347.898C231.22 348.786 233.353 349.231 235.397 349.231C237.53 349.231 239.575 348.786 241.175 347.898L275.395 328.254C278.595 326.388 278.595 323.454 275.395 321.588L241.175 301.945C239.575 301.056 237.53 300.611 235.397 300.611Z" fill="#E6ECFF"/>
<path d="M468.007 342.031V369.852C468.007 370.296 467.918 370.652 467.74 371.007C467.385 371.63 466.762 372.252 465.874 372.785L435.386 390.295C433.964 391.095 432.098 391.54 430.231 391.54C428.365 391.54 426.498 391.095 425.076 390.295L394.589 372.785C393.433 372.163 392.455 371.096 392.455 369.852V342.031H468.007Z" fill="url(#paint4_linear)"/>
<path d="M472.629 323.81V361.319C472.629 361.763 472.54 362.208 472.273 362.652C471.918 363.363 471.207 364.074 470.229 364.608L436.009 384.251C434.409 385.14 432.276 385.584 430.231 385.584C428.098 385.584 426.054 385.14 424.454 384.251L390.233 364.608C388.989 363.897 387.834 362.741 387.834 361.319V323.81H472.629Z" fill="#FB4B00"/>
<path d="M430.231 336.876C428.098 336.876 426.054 337.32 424.454 338.209L390.233 357.853C387.034 359.719 387.034 362.652 390.233 364.519L424.454 384.162C426.054 385.051 428.187 385.495 430.231 385.495C432.364 385.495 434.409 385.051 436.009 384.162L470.229 364.608C473.429 362.741 473.429 359.808 470.229 357.941L436.009 338.298C434.409 337.409 432.364 336.876 430.231 336.876Z" fill="#CE511B"/>
<path d="M430.231 300.7C428.098 300.7 426.054 301.145 424.454 302.033L390.233 321.677C387.034 323.543 387.034 326.477 390.233 328.343L424.454 347.986C426.054 348.875 428.187 349.32 430.231 349.32C432.364 349.32 434.409 348.875 436.009 347.986L470.229 328.343C473.429 326.477 473.429 323.543 470.229 321.677L436.009 302.033C434.409 301.145 432.364 300.7 430.231 300.7Z" fill="url(#paint5_linear)"/>
<path d="M430.231 300.611C428.098 300.611 426.054 301.056 424.454 301.945L390.233 321.588C387.034 323.454 387.034 326.388 390.233 328.254L424.454 347.898C426.054 348.786 428.187 349.231 430.231 349.231C432.364 349.231 434.409 348.786 436.009 347.898L470.229 328.254C473.429 326.388 473.429 323.454 470.229 321.588L436.009 301.945C434.409 301.056 432.364 300.611 430.231 300.611Z" fill="#E6ECFF"/>
<path d="M275.574 404.25C288.284 393.939 309.083 387.184 332.726 387.184C356.28 387.184 377.168 393.939 389.878 404.25H402.855V427.626C402.855 449.936 371.479 468.069 332.815 468.069C294.15 468.069 262.774 449.936 262.774 427.626V404.25H275.574Z" fill="#E6ECFF"/>
<path d="M332.637 444.692C293.955 444.692 262.597 426.586 262.597 404.25C262.597 381.914 293.955 363.808 332.637 363.808C371.319 363.808 402.678 381.914 402.678 404.25C402.678 426.586 371.319 444.692 332.637 444.692Z" fill="#F4FAFA"/>
<path d="M332.637 428.96C308.976 428.96 289.795 417.897 289.795 404.25C289.795 390.603 308.976 379.54 332.637 379.54C356.298 379.54 375.479 390.603 375.479 404.25C375.479 417.897 356.298 428.96 332.637 428.96Z" fill="url(#paint6_linear)"/>
<path d="M280.729 379.985C292.284 370.652 311.216 364.519 332.637 364.519C354.058 364.519 372.991 370.652 384.546 379.985H396.278V401.228C396.278 421.494 367.747 438.026 332.549 438.026C297.351 438.026 268.819 421.582 268.819 401.228V379.985H280.729Z" fill="url(#paint7_linear)"/>
<path d="M275.574 361.408C288.284 351.097 309.083 344.342 332.726 344.342C356.28 344.342 377.168 351.097 389.878 361.408H402.855V384.784C402.855 407.094 371.479 425.227 332.815 425.227C294.15 425.227 262.774 407.094 262.774 384.784V361.408H275.574Z" fill="#E6ECFF"/>
<path d="M332.637 401.85C293.955 401.85 262.597 383.744 262.597 361.408C262.597 339.072 293.955 320.966 332.637 320.966C371.319 320.966 402.678 339.072 402.678 361.408C402.678 383.744 371.319 401.85 332.637 401.85Z" fill="#F4FAFA"/>
<path d="M332.637 386.118C308.976 386.118 289.795 375.055 289.795 361.408C289.795 347.761 308.976 336.698 332.637 336.698C356.298 336.698 375.479 347.761 375.479 361.408C375.479 375.055 356.298 386.118 332.637 386.118Z" fill="url(#paint8_linear)"/>
<path d="M280.729 337.143C292.284 327.81 311.216 321.677 332.637 321.677C354.058 321.677 372.991 327.81 384.546 337.143H396.278V358.386C396.278 378.651 367.747 395.184 332.549 395.184C297.351 395.184 268.819 378.74 268.819 358.386V337.143H280.729Z" fill="url(#paint9_linear)"/>
<path d="M275.574 318.655C288.284 308.344 309.083 301.589 332.726 301.589C356.28 301.589 377.168 308.344 389.878 318.655H402.855V342.031C402.855 364.341 371.479 382.473 332.815 382.473C294.15 382.473 262.774 364.341 262.774 342.031V318.655H275.574Z" fill="#E6ECFF"/>
<path d="M332.637 359.097C293.955 359.097 262.597 340.99 262.597 318.655C262.597 296.319 293.955 278.213 332.637 278.213C371.319 278.213 402.678 296.319 402.678 318.655C402.678 340.99 371.319 359.097 332.637 359.097Z" fill="#F4FAFA"/>
<path d="M332.637 343.365C308.976 343.365 289.795 332.302 289.795 318.655C289.795 305.008 308.976 293.945 332.637 293.945C356.298 293.945 375.479 305.008 375.479 318.655C375.479 332.302 356.298 343.365 332.637 343.365Z" fill="url(#paint10_linear)"/>
<path d="M280.729 294.389C292.284 285.057 311.216 278.924 332.637 278.924C354.058 278.924 372.991 285.057 384.546 294.389H396.278V315.633C396.278 335.898 367.747 352.431 332.549 352.431C297.351 352.431 268.819 335.987 268.819 315.633V294.389H280.729Z" fill="url(#paint11_linear)"/>
<path d="M275.574 275.902C288.284 265.591 309.083 258.836 332.726 258.836C356.28 258.836 377.168 265.591 389.878 275.902H402.855V299.278C402.855 321.588 371.479 339.72 332.815 339.72C294.15 339.72 262.774 321.588 262.774 299.278V275.902H275.574Z" fill="#E6ECFF"/>
<path d="M332.637 316.344C293.955 316.344 262.597 298.237 262.597 275.902C262.597 253.566 293.955 235.459 332.637 235.459C371.319 235.459 402.678 253.566 402.678 275.902C402.678 298.237 371.319 316.344 332.637 316.344Z" fill="#F4FAFA"/>
<path d="M468.007 454.292V482.112C468.007 482.557 467.918 482.912 467.74 483.268C467.385 483.89 466.762 484.512 465.874 485.046L435.386 502.556C433.964 503.356 432.098 503.8 430.231 503.8C428.365 503.8 426.498 503.356 425.076 502.556L394.589 485.046C393.433 484.423 392.455 483.357 392.455 482.112V454.292H468.007Z" fill="url(#paint12_linear)"/>
<path d="M472.629 436.159V473.668C472.629 474.113 472.54 474.557 472.273 475.002C471.918 475.713 471.207 476.424 470.229 476.957L436.009 496.6C434.409 497.489 432.276 497.934 430.231 497.934C428.098 497.934 426.054 497.489 424.454 496.6L390.233 476.957C388.989 476.246 387.834 475.091 387.834 473.668V436.159H472.629Z" fill="#0DA800"/>
<path d="M430.231 449.225C428.098 449.225 426.054 449.67 424.454 450.559L390.233 470.202C387.034 472.068 387.034 475.002 390.233 476.868L424.454 496.512C426.054 497.4 428.187 497.845 430.231 497.845C432.364 497.845 434.409 497.4 436.009 496.512L470.229 476.868C473.429 475.002 473.429 472.068 470.229 470.202L436.009 450.559C434.409 449.67 432.364 449.225 430.231 449.225Z" fill="#168C0C"/>
<path d="M430.231 413.05C428.098 413.05 426.054 413.494 424.454 414.383L390.233 434.026C387.034 435.893 387.034 438.826 390.233 440.692L424.454 460.336C426.054 461.225 428.187 461.669 430.231 461.669C432.364 461.669 434.409 461.225 436.009 460.336L470.229 440.692C473.429 438.826 473.429 435.893 470.229 434.026L436.009 414.383C434.409 413.494 432.364 413.05 430.231 413.05Z" fill="url(#paint13_linear)"/>
<path d="M430.231 412.961C428.098 412.961 426.054 413.405 424.454 414.294L390.233 433.937C387.034 435.804 387.034 438.737 390.233 440.604L424.454 460.247C426.054 461.136 428.187 461.58 430.231 461.58C432.364 461.58 434.409 461.136 436.009 460.247L470.229 440.604C473.429 438.737 473.429 435.804 470.229 433.937L436.009 414.294C434.409 413.405 432.364 412.961 430.231 412.961Z" fill="#E6ECFF"/>
<path d="M273.262 454.292V482.112C273.262 482.557 273.173 482.912 272.995 483.268C272.64 483.89 272.017 484.512 271.129 485.046L240.641 502.556C239.219 503.356 237.353 503.8 235.486 503.8C233.619 503.8 231.753 503.356 230.331 502.556L199.844 485.046C198.688 484.423 197.71 483.357 197.71 482.112V454.292H273.262Z" fill="url(#paint14_linear)"/>
<path d="M277.795 436.159V473.668C277.795 474.113 277.706 474.557 277.439 475.002C277.084 475.713 276.373 476.424 275.395 476.957L241.175 496.6C239.575 497.489 237.442 497.934 235.397 497.934C233.264 497.934 231.22 497.489 229.62 496.6L195.4 476.957C194.155 476.246 193 475.091 193 473.668V436.159H277.795Z" fill="#00ADEE"/>
<path d="M235.397 449.225C233.264 449.225 231.22 449.67 229.62 450.559L195.4 470.202C192.2 472.068 192.2 475.002 195.4 476.868L229.62 496.512C231.22 497.4 233.353 497.845 235.397 497.845C237.53 497.845 239.575 497.4 241.175 496.512L275.395 476.868C278.595 475.002 278.595 472.068 275.395 470.202L241.175 450.559C239.575 449.67 237.53 449.225 235.397 449.225Z" fill="#17A4D9"/>
<path d="M235.397 413.05C233.264 413.05 231.22 413.494 229.62 414.383L195.4 434.026C192.2 435.893 192.2 438.826 195.4 440.692L229.62 460.336C231.22 461.225 233.353 461.669 235.397 461.669C237.53 461.669 239.575 461.225 241.175 460.336L275.395 440.692C278.595 438.826 278.595 435.893 275.395 434.026L241.175 414.383C239.575 413.494 237.53 413.05 235.397 413.05Z" fill="url(#paint15_linear)"/>
<path d="M235.397 412.961C233.264 412.961 231.22 413.405 229.62 414.294L195.4 433.937C192.2 435.804 192.2 438.737 195.4 440.604L229.62 460.247C231.22 461.136 233.353 461.58 235.397 461.58C237.53 461.58 239.575 461.136 241.175 460.247L275.395 440.604C278.595 438.737 278.595 435.804 275.395 433.937L241.175 414.294C239.575 413.405 237.53 412.961 235.397 412.961Z" fill="#E6ECFF"/>
<path d="M332.636 280.168C303.33 280.168 279.573 256.411 279.573 227.104C279.573 197.798 303.33 174.041 332.636 174.041C361.943 174.041 385.7 197.798 385.7 227.104C385.7 256.411 361.943 280.168 332.636 280.168Z" fill="#8ADFFF"/>
<path d="M298.061 245.059C301.438 242.748 303.749 243.726 305.082 239.015C305.794 236.704 303.394 232.971 304.105 230.304C305.082 223.904 313.171 222.927 318.859 220.26C324.904 217.594 328.548 217.594 334.947 217.594L336.281 218.927C336.992 223.282 344.014 222.927 345.614 226.926C346.947 230.571 344.28 234.926 341.614 236.97C334.236 241.681 327.926 237.948 327.926 249.681C327.926 255.725 333.259 267.724 325.615 270.746C319.215 273.057 308.549 263.369 305.527 259.725C303.216 256.347 302.505 254.392 299.127 251.725C295.039 248.436 293.705 248.081 298.061 245.059ZM296.994 187.818C300.638 189.684 306.416 190.573 309.527 191.64C318.237 195.017 313.526 194.662 314.238 202.039C311.927 202.75 309.882 201.683 308.549 199.728C306.238 206.394 314.593 205.061 317.615 205.061C319.304 205.061 320.637 204.35 322.326 205.061C324.992 206.394 321.615 211.105 325.348 207.728C327.037 206.75 325.704 203.728 328.015 202.039C328.992 201.328 334.414 201.061 335.392 201.683C339.392 204.35 334.059 208.705 331.037 211.016C328.726 213.061 329.703 213.683 326.059 214.394C324.015 214.749 322.059 213.061 320.015 213.683C316.015 214.66 314.326 218.749 309.971 220.082C304.638 221.771 301.972 221.416 299.572 226.749C298.238 230.126 297.883 233.771 295.927 237.504C292.55 242.481 288.195 245.859 284.906 239.548C283.395 236.348 284.284 232.793 280.195 233.415C279.928 231.371 279.839 229.237 279.839 227.193C279.573 211.55 286.328 197.506 296.994 187.818ZM363.124 251.725C364.101 250.747 364.812 246.392 365.79 245.059C366.146 244.081 367.835 244.081 368.457 243.37C369.168 242.392 368.101 240.348 369.434 239.726C371.479 238.393 373.434 239.015 375.479 238.393C378.856 237.415 377.167 238.748 379.834 235.726C381.878 233.682 383.3 229.771 385.7 227.726C385.522 245.148 376.901 260.613 363.746 270.124C362.057 268.169 360.102 266.48 358.057 264.88C355.035 262.213 350.058 261.858 352.369 256.88C354.413 251.37 360.457 254.036 363.124 251.725ZM379.123 223.727C378.145 223.371 375.745 218.394 374.767 217.06C372.723 215.016 360.013 210.394 365.701 207.372C364.99 206.394 364.368 206.039 363.035 205.683C362.324 207.728 361.346 209.061 359.391 209.327C358.057 203.283 358.057 200.972 363.035 197.595C366.235 195.195 368.99 192.617 372.279 191.906C379.123 199.639 383.745 209.327 385.167 220.082C382.234 219.994 383.389 225.682 379.123 223.727ZM360.102 186.573C360.102 184.884 360.99 183.729 362.324 183.018C364.99 184.795 367.568 186.929 369.879 189.151C368.634 190.306 367.746 191.551 365.879 191.551C365.079 191.64 360.102 186.929 360.102 186.573ZM344.103 188.173C343.569 185.684 341.347 184.44 339.036 183.373C335.481 181.862 329.259 183.64 329.97 178.396C330.237 176.529 331.659 175.107 333.703 174.129C340.725 174.307 347.391 175.729 353.435 178.396C352.991 178.662 352.458 179.018 352.013 179.196C354.235 182.929 355.569 183.729 352.991 188.262C351.213 191.995 348.458 191.551 345.169 194.573C342.858 191.64 344.814 190.662 344.103 188.173ZM336.992 185.951V186.218C340.547 191.017 329.437 191.995 331.214 187.462C333.97 188.262 334.236 185.507 336.992 185.951Z" fill="white"/>
<path d="M328.459 137.598L323.66 147.375L325.793 147.909L325.082 140.887C325.082 140.442 324.637 140.087 324.193 140.176C323.748 140.176 323.482 140.531 323.482 140.976V147.998C323.482 148.62 324.015 149.153 324.637 149.153C325.082 149.153 325.437 148.975 325.615 148.62L325.704 148.531L331.481 139.287C332.015 138.487 331.748 137.42 330.948 136.887C330.148 136.354 329.081 136.62 328.548 137.42C328.459 137.509 328.459 137.509 328.459 137.598Z" fill="#8EE0FF"/>
<path d="M328.726 185.862C328.459 186.129 327.748 186.129 327.392 186.129C326.237 186.307 325.526 187.195 324.37 187.195C323.926 187.195 323.748 186.218 324.193 185.951C324.726 185.595 326.237 184.796 326.859 184.351C327.037 184.351 328.548 184.084 328.637 184.173C328.903 184.173 328.992 185.595 328.726 185.862Z" fill="#2F3640"/>
<path d="M328.637 185.329C328.37 185.595 327.659 185.507 327.304 185.595C326.237 185.773 325.526 186.573 324.37 186.573C323.926 186.573 323.748 185.595 324.193 185.329C324.637 184.973 326.148 184.262 326.77 183.818C326.948 183.818 328.459 183.551 328.548 183.64C328.815 183.729 328.903 185.151 328.637 185.329Z" fill="#495E6C"/>
<path d="M335.926 185.062C335.926 185.062 335.926 185.329 335.926 185.418C335.837 185.862 336.192 186.662 336.637 187.373C336.903 187.906 337.348 188.351 337.614 188.618C337.881 188.884 339.126 189.151 339.214 188.618C339.214 188.529 339.303 188.262 339.214 188.084C339.126 187.64 338.681 187.462 338.592 187.018C338.326 186.04 338.326 185.24 337.792 184.884C337.081 184.44 336.015 184.618 335.926 185.062Z" fill="#2F3640"/>
<path d="M328.549 155.108C328.282 159.819 327.749 164.53 327.304 169.33C326.86 174.129 326.682 179.018 326.771 183.818L328.815 183.907C329.26 179.196 330.06 174.485 331.038 169.863C332.015 165.241 333.082 160.53 333.971 155.73L328.549 155.108Z" fill="#2F3542"/>
<path d="M336.015 185.329C336.104 185.773 336.37 186.395 336.637 186.929C336.904 187.462 337.348 187.906 337.615 188.173C337.97 188.44 339.481 188.795 339.215 187.906C339.126 187.462 338.681 187.018 338.593 186.662C338.326 185.684 338.326 184.707 337.793 184.351C337.437 184.084 336.548 184.173 336.282 184.262C335.926 184.351 335.926 185.151 336.015 185.329Z" fill="#495E6C"/>
<path d="M333.704 156.619C333.793 156.797 333.882 157.419 333.971 157.953C334.06 158.486 334.148 159.108 334.237 159.641C334.415 160.797 334.504 161.952 334.593 163.197C334.86 165.597 335.037 167.996 335.215 170.307C335.571 175.107 335.837 179.907 336.104 184.707H338.148C338.504 179.907 338.77 175.107 338.948 170.219C339.037 167.819 339.126 165.419 339.215 162.93C339.215 161.686 339.215 160.53 339.215 159.286C339.215 158.664 339.215 158.041 339.215 157.419C339.215 156.797 339.215 156.175 338.948 155.197L333.704 156.619Z" fill="#2F3542"/>
<path d="M338.858 153.953C338.77 152.708 336.103 152.62 334.77 152.531C334.414 152.531 332.992 152.531 332.637 152.531C331.303 152.62 328.637 152.797 328.548 153.953C328.104 158.308 329.703 158.397 332.814 158.753C333.081 158.753 334.325 158.753 334.592 158.753C337.703 158.397 339.303 158.308 338.858 153.953Z" fill="#2F3542"/>
<path d="M340.459 140.709C340.548 138.398 339.748 136.709 339.126 136.176C338.504 135.554 336.459 135.554 334.326 135.554C332.193 135.554 330.237 135.643 329.526 136.176C328.904 136.709 328.193 138.398 328.104 140.709C327.926 144.62 328.193 148.442 328.282 152.353C328.282 153.242 327.749 154.042 328.282 154.664C328.637 155.108 331.926 155.464 333.615 155.464C335.304 155.464 338.592 155.108 339.037 154.664C339.57 154.042 339.126 153.242 339.215 152.353C339.57 148.442 340.37 144.62 340.459 140.709Z" fill="#8EE0FF"/>
<path d="M334.237 136.887C333.881 136.798 333.703 136.443 333.703 135.643C333.703 135.198 333.526 133.865 333.703 133.421C333.881 132.976 334.859 131.821 335.214 132.176C335.392 132.976 335.481 133.598 335.481 133.865C335.659 134.754 335.748 135.287 335.748 135.643C335.837 136.62 334.77 137.065 334.237 136.887Z" fill="#F4ACC8"/>
<path d="M335.481 132.709C336.903 131.643 337.17 128.976 335.925 127.732C334.859 126.665 332.37 126.843 331.303 128.71C330.503 129.954 330.681 133.865 332.37 134.487C333.259 134.843 335.303 133.598 335.481 132.709Z" fill="#F4ACC8"/>
<path d="M337.703 129.599C337.614 128.887 337.17 128.088 336.37 127.999C336.459 127.021 335.392 126.221 334.503 126.132C333.792 126.132 332.103 126.665 331.392 127.021C331.303 127.021 331.215 127.11 331.126 127.11C330.415 127.288 329.881 127.91 329.97 128.621C330.148 129.954 332.192 130.487 334.592 129.865C334.503 130.576 334.77 131.287 334.948 131.998C335.392 131.643 335.837 131.465 336.014 131.998C335.925 132.887 334.592 133.243 335.837 134.043C336.281 134.309 336.548 133.865 336.725 133.509C337.259 131.643 337.792 130.576 337.703 129.599Z" fill="#171A1F"/>
<path d="M336.637 138.398L334.504 148.62L335.748 147.553L326.593 149.064C326.149 149.153 325.882 149.509 325.882 149.953C325.971 150.397 326.326 150.664 326.682 150.664L336.015 150.397C336.637 150.397 337.081 149.953 337.259 149.42V149.331L340.015 139.287C340.281 138.398 339.748 137.42 338.77 137.154C337.881 136.887 336.904 137.42 336.637 138.398Z" fill="#8EE0FF"/>
<path d="M307.394 116.71V109.6L276.729 112.266L307.394 116.71Z" fill="#FB4B00"/>
<path d="M307.394 116.71L302.949 111.466L307.394 109.6V116.71Z" fill="#BC3F0A"/>
<path d="M302.95 111.466L325.438 112.355V104.178L302.95 105.155V111.466Z" fill="#FB4B00"/>
<path d="M325.437 183.196C325.526 183.196 325.615 183.107 325.615 183.018V104.178C325.615 104.089 325.526 104 325.437 104C325.349 104 325.26 104.089 325.26 104.178V183.018C325.171 183.107 325.26 183.196 325.437 183.196Z" fill="#2D65B9"/>
<path d="M324.726 148.442C325.082 148.442 325.437 148.531 325.704 148.709C325.97 148.886 326.059 149.064 326.059 149.331C326.059 149.597 326.326 149.864 326.593 149.864C326.859 149.864 327.126 149.597 327.126 149.331V149.242C327.037 148.975 326.948 148.709 326.77 148.531C326.593 148.353 326.326 148.175 326.148 148.086C325.704 147.909 325.171 147.909 324.815 147.998C324.637 147.998 324.548 148.175 324.548 148.264C324.459 148.353 324.548 148.442 324.726 148.442Z" fill="#F4ACC8"/>
<path d="M327.127 149.331C327.304 149.597 327.127 150.042 326.771 150.486C326.504 150.753 325.438 150.664 324.816 150.575C324.282 150.309 324.46 148.709 325.082 148.709C325.882 148.531 326.682 148.62 327.127 149.331Z" fill="#F4ACC8"/>
<path d="M323.749 149.064C324.282 148.975 324.815 149.153 325.26 149.42C325.438 149.509 325.615 149.509 325.793 149.331C325.882 149.153 325.882 148.975 325.704 148.798C325.704 148.798 325.704 148.798 325.615 148.798C324.993 148.531 324.282 148.531 323.66 148.709C323.571 148.709 323.482 148.886 323.482 148.975C323.571 148.975 323.66 149.064 323.749 149.064Z" fill="#F4ACC8"/>
<path d="M323.749 149.597C324.282 149.509 324.904 149.597 325.26 149.864C325.438 149.953 325.615 149.953 325.793 149.775C325.882 149.597 325.882 149.42 325.704 149.242C325.704 149.242 325.704 149.242 325.615 149.242C325.26 149.064 324.904 149.064 324.549 149.064C324.193 149.064 323.927 149.153 323.66 149.242C323.571 149.242 323.482 149.42 323.482 149.509C323.571 149.509 323.66 149.597 323.749 149.597Z" fill="#F4ACC8"/>
<path d="M323.837 150.131C324.282 149.953 324.815 149.953 325.259 150.131C325.437 150.22 325.615 150.042 325.704 149.864C325.793 149.686 325.615 149.509 325.437 149.42C325.437 149.42 325.437 149.42 325.348 149.42C324.726 149.42 324.104 149.509 323.66 149.775C323.571 149.864 323.482 149.953 323.571 150.042C323.66 150.131 323.748 150.131 323.837 150.131Z" fill="#F4ACC8"/>
<path d="M324.104 150.575C324.371 150.486 324.726 150.486 325.082 150.575C325.26 150.575 325.437 150.486 325.526 150.22C325.526 150.042 325.437 149.864 325.171 149.775H325.082C324.726 149.864 324.193 149.864 323.838 150.22C323.749 150.309 323.749 150.397 323.838 150.486C323.926 150.664 324.015 150.664 324.104 150.575Z" fill="#F4ACC8"/>
<path d="M325.882 138.576C325.437 138.487 324.993 138.487 324.549 138.665C324.282 138.754 324.104 138.931 323.926 139.109C323.749 139.287 323.66 139.554 323.571 139.82C323.482 140.087 323.66 140.354 324.015 140.442C324.282 140.531 324.548 140.354 324.637 139.998V139.909C324.637 139.642 324.726 139.465 324.993 139.287C325.26 139.109 325.615 139.02 325.971 139.02C326.148 139.02 326.237 138.843 326.237 138.754C326.148 138.665 326.06 138.576 325.882 138.576Z" fill="#F4ACC8"/>
<path d="M323.482 139.998C323.304 140.265 323.482 140.709 323.837 141.153C324.104 141.42 325.17 141.331 325.793 141.242C326.326 140.976 326.148 139.376 325.526 139.376C324.726 139.198 323.837 139.198 323.482 139.998Z" fill="#F4ACC8"/>
<path d="M326.503 139.642C326.148 139.376 325.615 139.198 325.081 139.376H324.992C324.815 139.465 324.726 139.642 324.815 139.82C324.904 139.998 325.081 140.087 325.259 139.998C325.259 139.998 325.348 139.998 325.348 139.909C325.526 139.731 325.881 139.731 326.237 139.909C326.326 139.998 326.503 139.909 326.503 139.82C326.592 139.82 326.503 139.731 326.503 139.642Z" fill="#F4ACC8"/>
<path d="M326.503 140.176C326.326 139.998 326.148 139.909 325.881 139.82C325.615 139.731 325.348 139.643 324.992 139.82L324.815 139.909C324.637 139.998 324.548 140.265 324.637 140.442C324.726 140.62 324.992 140.709 325.17 140.62C325.259 140.62 325.348 140.531 325.348 140.442C325.348 140.354 325.526 140.354 325.704 140.354C325.881 140.354 326.059 140.442 326.237 140.531C326.326 140.62 326.503 140.531 326.503 140.442C326.592 140.354 326.503 140.265 326.503 140.176Z" fill="#F4ACC8"/>
<path d="M326.415 140.709C326.149 140.354 325.704 140.087 325.171 139.998C324.993 139.998 324.815 140.087 324.726 140.265C324.726 140.442 324.815 140.62 324.993 140.709H325.082C325.438 140.709 325.793 140.798 326.06 141.065C326.149 141.154 326.326 141.065 326.326 140.976C326.504 140.887 326.504 140.798 326.415 140.709Z" fill="#F4ACC8"/>
<path d="M326.326 141.242C326.148 140.887 325.793 140.709 325.526 140.62C325.348 140.531 325.082 140.62 324.993 140.798C324.904 140.976 324.993 141.242 325.171 141.331H325.26C325.526 141.331 325.793 141.42 325.971 141.509C326.059 141.598 326.237 141.598 326.326 141.509C326.326 141.42 326.326 141.331 326.326 141.242Z" fill="#F4ACC8"/>
<path d="M409.521 425.938C409.61 425.938 409.699 425.938 409.877 425.849C410.321 425.671 410.588 425.138 410.41 424.693L369.257 319.455C369.079 319.01 368.546 318.744 368.101 318.921C367.657 319.099 367.39 319.632 367.568 320.077L408.721 425.315C408.81 425.76 409.166 425.938 409.521 425.938Z" fill="#D5E5FD"/>
<path d="M425.609 416.694C425.698 416.694 425.787 416.694 425.965 416.605C426.409 416.427 426.676 415.894 426.498 415.449L385.345 310.211C385.167 309.766 384.634 309.5 384.189 309.677C383.745 309.855 383.478 310.389 383.656 310.833L424.809 416.072C424.898 416.427 425.254 416.694 425.609 416.694Z" fill="#D5E5FD"/>
<path d="M406.765 418.916C406.943 418.916 407.032 418.916 407.21 418.827L423.298 409.583C423.742 409.316 423.831 408.783 423.653 408.339C423.387 407.894 422.853 407.805 422.409 407.983L406.321 417.227C405.877 417.494 405.788 418.027 405.965 418.471C406.143 418.738 406.41 418.916 406.765 418.916Z" fill="#D5E5FD"/>
<path d="M404.011 411.894C404.188 411.894 404.277 411.894 404.455 411.805L420.543 402.561C420.987 402.295 421.076 401.761 420.899 401.317C420.632 400.872 420.099 400.783 419.654 400.961L403.566 410.205C403.122 410.472 403.033 411.005 403.211 411.45C403.388 411.716 403.744 411.894 404.011 411.894Z" fill="#D5E5FD"/>
<path d="M401.255 404.872C401.432 404.872 401.521 404.872 401.699 404.783L417.787 395.539C418.232 395.273 418.32 394.739 418.143 394.295C417.876 393.851 417.343 393.762 416.898 393.939L400.81 403.183C400.366 403.45 400.277 403.983 400.455 404.428C400.633 404.694 400.988 404.872 401.255 404.872Z" fill="#D5E5FD"/>
<path d="M398.5 397.85C398.678 397.85 398.766 397.85 398.944 397.761L415.032 388.518C415.477 388.251 415.566 387.718 415.388 387.273C415.121 386.829 414.588 386.74 414.143 386.918L398.055 396.162C397.611 396.428 397.522 396.961 397.7 397.406C397.878 397.673 398.233 397.85 398.5 397.85Z" fill="#D5E5FD"/>
<path d="M395.744 390.829C395.922 390.829 396.011 390.829 396.188 390.74L412.276 381.496C412.721 381.229 412.81 380.696 412.632 380.251C412.365 379.807 411.832 379.718 411.388 379.896L395.3 389.14C394.855 389.406 394.766 389.94 394.944 390.384C395.211 390.651 395.477 390.829 395.744 390.829Z" fill="#D5E5FD"/>
<path d="M393.078 383.807C393.256 383.807 393.345 383.807 393.522 383.718L409.61 374.474C410.055 374.207 410.144 373.674 409.966 373.23C409.699 372.785 409.166 372.696 408.722 372.874L392.634 382.118C392.189 382.385 392.1 382.918 392.278 383.362C392.456 383.629 392.722 383.807 393.078 383.807Z" fill="#D5E5FD"/>
<path d="M390.322 376.785C390.5 376.785 390.589 376.785 390.767 376.696L406.855 367.452C407.299 367.185 407.388 366.652 407.21 366.208C406.943 365.763 406.41 365.674 405.966 365.852L389.878 375.096C389.433 375.363 389.344 375.896 389.522 376.34C389.7 376.696 389.967 376.785 390.322 376.785Z" fill="#D5E5FD"/>
<path d="M387.566 369.852C387.744 369.852 387.833 369.852 388.011 369.763L404.099 360.519C404.543 360.252 404.632 359.719 404.454 359.275C404.188 358.83 403.654 358.741 403.21 358.919L387.122 368.163C386.677 368.43 386.589 368.963 386.766 369.407C386.944 369.674 387.211 369.852 387.566 369.852Z" fill="#D5E5FD"/>
<path d="M384.811 362.83C384.989 362.83 385.078 362.83 385.256 362.741L401.344 353.497C401.788 353.231 401.877 352.697 401.699 352.253C401.433 351.808 400.899 351.72 400.455 351.897L384.367 361.141C383.923 361.408 383.834 361.941 384.011 362.386C384.189 362.652 384.545 362.83 384.811 362.83Z" fill="#D5E5FD"/>
<path d="M382.056 355.808C382.234 355.808 382.323 355.808 382.501 355.719L398.589 346.475C399.033 346.209 399.122 345.675 398.944 345.231C398.678 344.787 398.144 344.698 397.7 344.875L381.612 354.119C381.168 354.386 381.079 354.919 381.257 355.364C381.434 355.63 381.79 355.808 382.056 355.808Z" fill="#D5E5FD"/>
<path d="M379.301 348.786C379.478 348.786 379.567 348.786 379.745 348.698L395.833 339.454C396.277 339.187 396.366 338.654 396.189 338.209C395.922 337.765 395.389 337.676 394.944 337.854L378.856 347.098C378.412 347.364 378.323 347.898 378.501 348.342C378.767 348.609 379.034 348.786 379.301 348.786Z" fill="#D5E5FD"/>
<path d="M376.635 341.765C376.812 341.765 376.901 341.765 377.079 341.676L393.167 332.432C393.611 332.165 393.7 331.632 393.523 331.187C393.256 330.743 392.723 330.654 392.278 330.832L376.19 340.076C375.746 340.342 375.657 340.876 375.835 341.32C376.012 341.587 376.279 341.765 376.635 341.765Z" fill="#D5E5FD"/>
<path d="M373.879 334.743C374.057 334.743 374.145 334.743 374.323 334.654L390.411 325.41C390.856 325.143 390.944 324.61 390.767 324.166C390.5 323.721 389.967 323.632 389.522 323.81L373.434 333.054C372.99 333.321 372.901 333.854 373.079 334.298C373.257 334.565 373.523 334.743 373.879 334.743Z" fill="#D5E5FD"/>
<path d="M371.124 327.721C371.302 327.721 371.391 327.721 371.568 327.632L387.656 318.388C388.101 318.121 388.19 317.588 388.012 317.144C387.745 316.699 387.212 316.61 386.767 316.788L370.679 326.032C370.235 326.299 370.146 326.832 370.324 327.277C370.502 327.632 370.768 327.721 371.124 327.721Z" fill="#D5E5FD"/>
<path d="M393.878 502.556C394.234 502.556 394.589 502.378 394.678 502.022L413.521 453.936C413.699 453.492 413.433 452.958 412.988 452.781C412.544 452.603 412.01 452.87 411.833 453.314L392.989 501.4C392.812 501.845 393.078 502.378 393.523 502.556C393.611 502.556 393.789 502.556 393.878 502.556Z" fill="#D5E5FD"/>
<path d="M377.701 493.312C378.057 493.312 378.412 493.134 378.501 492.778L397.345 444.603C397.522 444.159 397.256 443.626 396.811 443.448C396.367 443.27 395.834 443.537 395.656 443.981L376.813 492.067C376.635 492.512 376.901 493.045 377.346 493.223C377.524 493.223 377.612 493.312 377.701 493.312Z" fill="#D5E5FD"/>
<path d="M396.189 496.512C396.456 496.512 396.811 496.334 396.989 496.067C397.256 495.623 397.078 495.089 396.633 494.823L380.545 485.579C380.101 485.312 379.568 485.49 379.301 485.934C379.034 486.379 379.212 486.912 379.657 487.179L395.745 496.423C395.922 496.512 396.1 496.512 396.189 496.512Z" fill="#D5E5FD"/>
<path d="M398.945 489.49C399.212 489.49 399.567 489.312 399.745 489.045C400.011 488.601 399.834 488.068 399.389 487.801L383.301 478.557C382.857 478.29 382.324 478.468 382.057 478.913C381.79 479.357 381.968 479.89 382.412 480.157L398.5 489.401C398.678 489.49 398.856 489.49 398.945 489.49Z" fill="#D5E5FD"/>
<path d="M401.7 482.468C401.966 482.468 402.322 482.29 402.5 482.023C402.766 481.579 402.589 481.046 402.144 480.779L386.056 471.535C385.612 471.268 385.078 471.446 384.812 471.891C384.545 472.335 384.723 472.868 385.167 473.135L401.255 482.379C401.433 482.468 401.522 482.468 401.7 482.468Z" fill="#D5E5FD"/>
<path d="M404.455 475.446C404.721 475.446 405.077 475.268 405.255 475.002C405.521 474.557 405.343 474.024 404.899 473.757L388.811 464.513C388.367 464.247 387.833 464.424 387.567 464.869C387.3 465.313 387.478 465.847 387.922 466.113L404.01 475.357C404.188 475.446 404.277 475.446 404.455 475.446Z" fill="#D5E5FD"/>
<path d="M407.211 468.513C407.477 468.513 407.833 468.335 408.01 468.069C408.277 467.624 408.099 467.091 407.655 466.824L391.567 457.58C391.123 457.314 390.589 457.492 390.323 457.936C390.056 458.38 390.234 458.914 390.678 459.18L406.766 468.424C406.855 468.424 407.033 468.513 407.211 468.513Z" fill="#D5E5FD"/>
<path d="M409.966 461.491C410.233 461.491 410.589 461.313 410.766 461.047C411.033 460.602 410.855 460.069 410.411 459.802L394.323 450.559C393.878 450.292 393.345 450.47 393.078 450.914C392.812 451.358 392.99 451.892 393.434 452.158L409.522 461.402C409.611 461.402 409.789 461.491 409.966 461.491Z" fill="#D5E5FD"/>
<path d="M414.943 362.119L405.966 360.964L406.854 361.497L400.188 354.386C399.922 354.031 399.388 354.031 399.033 354.386C398.766 354.653 398.677 355.097 398.944 355.453L404.632 363.363C404.81 363.63 405.077 363.808 405.343 363.808H405.521L414.41 365.586C415.387 365.763 416.276 365.141 416.454 364.252C416.632 363.275 416.01 362.386 415.121 362.208C415.032 362.119 415.032 362.119 414.943 362.119Z" fill="#2E85DD"/>
<path d="M420.099 408.872C418.676 408.783 419.21 408.783 418.321 408.694C417.965 408.605 417.521 408.516 417.432 408.605C417.343 408.694 417.432 408.961 417.432 409.05C417.876 409.494 419.21 410.65 420.454 411.094C421.254 411.272 421.698 411.005 421.698 410.65C421.787 409.939 421.787 409.316 421.61 408.872H420.099Z" fill="#2F3640"/>
<path d="M420.099 408.516C418.676 408.428 419.21 408.428 418.321 408.339C417.699 408.25 417.343 408.516 417.432 408.605C417.876 409.05 419.21 410.205 420.454 410.65C421.254 410.827 421.698 410.561 421.698 410.205C421.787 409.494 421.787 408.872 421.61 408.428L420.099 408.516Z" fill="#616D7D"/>
<path d="M417.165 380.607C417.343 385.407 417.521 390.117 417.876 394.917C418.232 399.717 418.854 404.517 419.654 409.228L421.698 409.05C421.431 404.339 421.431 399.628 421.609 394.917C421.787 390.206 422.231 385.496 422.587 380.785L417.165 380.607Z" fill="#2F3640"/>
<path d="M407.832 399.184C406.41 399.095 405.166 399.45 404.277 399.361C404.01 399.45 404.099 399.984 404.277 400.072C405.077 400.517 406.588 400.961 408.366 401.406C409.166 401.584 409.61 401.317 409.61 400.961C409.699 400.25 409.521 399.628 409.344 399.184H407.832Z" fill="#2F3640"/>
<path d="M407.832 398.828C406.41 398.739 405.255 399.361 404.366 399.273C404.099 399.361 404.099 399.628 404.277 399.717C405.077 400.161 406.588 400.606 408.366 401.05C409.166 401.228 409.61 400.961 409.61 400.606C409.699 399.895 409.521 399.273 409.344 398.828H407.832Z" fill="#616D7D"/>
<path d="M415.921 381.14C413.877 381.051 411.743 380.874 409.255 381.496C408.632 381.673 408.01 381.94 407.388 382.296C406.766 382.651 406.144 383.185 405.699 383.807C404.81 385.051 404.544 386.473 404.455 387.629C404.455 389.94 404.988 391.895 405.521 393.851C406.055 395.717 406.766 397.584 407.388 399.361L409.343 398.828C408.988 396.962 408.632 395.095 408.366 393.228C408.099 391.362 407.921 389.495 408.188 387.984C408.277 387.273 408.632 386.74 408.899 386.473C409.166 386.207 409.61 386.118 410.232 386.029C411.566 385.851 413.343 386.118 415.032 386.562L415.921 381.14Z" fill="#2F3640"/>
<path d="M412.898 384.251C412.81 383.896 412.81 381.851 412.81 381.851C412.81 380.696 414.676 379.985 418.765 379.54C420.098 379.363 422.587 379.007 422.765 380.162C423.209 384.429 421.609 384.873 418.587 385.851C415.476 386.74 413.165 386.74 412.898 384.251Z" fill="#2F3640"/>
<path d="M411.121 364.074C410.765 363.986 410.587 363.541 410.676 362.83C410.676 362.386 410.587 361.052 410.854 360.697C411.121 360.252 412.099 359.186 412.454 359.63C412.543 360.43 412.543 361.052 412.632 361.319C412.721 362.208 412.81 362.741 412.81 363.097C412.721 363.897 411.565 364.252 411.121 364.074Z" fill="#F4ACC8"/>
<path d="M412.899 360.252C414.321 359.275 414.677 356.608 413.521 355.275C412.454 354.119 409.966 354.208 408.81 356.075C408.01 357.319 408.01 361.23 409.61 361.941C410.499 362.208 412.632 361.141 412.899 360.252Z" fill="#F4ACC8"/>
<path d="M409.255 356.875C409.166 357.586 409.344 358.297 409.521 359.008C409.966 358.653 410.588 358.297 410.677 358.83C410.766 359.719 409.077 360.252 410.321 361.052C410.766 361.319 412.543 361.941 412.632 361.586C413.343 359.808 414.943 358.564 414.321 355.986C414.054 354.742 410.055 354.475 409.255 356.875Z" fill="#37384F"/>
<path d="M413.965 355.542C414.143 354.564 413.076 353.675 412.098 353.586C411.387 353.497 409.61 354.031 408.987 354.297C407.921 354.119 407.565 354.386 407.654 355.097C407.832 356.43 409.698 357.764 412.098 357.23L413.965 355.542Z" fill="#37384F"/>
<path d="M415.565 361.941C421.076 364.074 420.987 372.341 422.943 378.029C423.298 378.918 422.943 380.074 422.321 380.874C421.787 381.585 417.254 382.918 416.01 383.007C413.166 383.185 412.543 382.029 412.454 380.874C412.454 380.34 411.477 375.896 411.477 375.896C410.143 373.585 407.388 371.096 406.499 369.141C404.81 365.319 412.899 361.23 415.565 361.941Z" fill="#2E85DD"/>
<path d="M396.544 371.185C396.633 371.541 396.721 371.985 396.633 372.341C396.633 372.696 396.455 373.052 396.277 373.23C396.099 373.407 396.099 373.763 396.277 373.941C396.455 374.118 396.81 374.118 396.988 373.941L397.077 373.852V373.763C397.344 373.23 397.433 372.696 397.344 372.252C397.255 371.807 397.166 371.363 396.899 370.919C396.81 370.83 396.633 370.741 396.544 370.83C396.544 370.919 396.455 371.096 396.544 371.185Z" fill="#F4ACC8"/>
<path d="M395.655 371.274C395.655 371.274 395.655 371.185 395.655 371.274C395.477 371.274 395.566 371.274 395.566 371.363C395.655 371.452 395.744 371.541 395.744 371.718C395.833 371.985 395.922 372.252 395.922 372.518C395.922 372.696 396.1 372.874 396.277 372.874C396.455 372.874 396.633 372.696 396.633 372.518C396.633 372.518 396.633 372.518 396.633 372.43C396.544 372.074 396.455 371.807 396.277 371.452C396.188 371.274 396.1 371.185 395.922 371.007C395.833 371.007 395.744 370.83 395.388 370.919C395.211 371.096 395.211 371.185 395.211 371.363C395.211 371.452 395.3 371.63 395.388 371.63C395.477 371.541 395.566 371.452 395.655 371.274C395.655 371.363 395.655 371.274 395.655 371.274Z" fill="#F4ACC8"/>
<path d="M394.855 371.718C394.855 371.63 394.944 371.541 394.944 371.452C394.944 371.363 395.033 371.363 394.944 371.363C394.855 371.363 395.033 371.452 395.122 371.63C395.299 371.896 395.566 372.252 395.744 372.518C395.833 372.696 396.099 372.785 396.277 372.607C396.455 372.518 396.544 372.252 396.366 372.074C396.099 371.807 395.922 371.452 395.566 371.185C395.477 371.096 395.388 371.007 395.299 371.007C395.21 370.919 395.033 370.83 394.766 370.919C394.499 371.007 394.499 371.185 394.411 371.274C394.411 371.363 394.322 371.452 394.322 371.541C394.322 371.63 394.411 371.807 394.499 371.807C394.766 371.896 394.855 371.807 394.855 371.718Z" fill="#F4ACC8"/>
<path d="M394.233 372.252C394.322 372.163 394.411 372.074 394.5 372.074C394.5 372.074 394.588 372.163 394.677 372.252C394.855 372.43 394.944 372.696 395.033 373.052C395.033 373.23 395.3 373.407 395.477 373.318C395.655 373.318 395.833 373.052 395.744 372.874C395.744 372.874 395.744 372.874 395.744 372.785C395.655 372.43 395.477 372.074 395.122 371.807C394.944 371.63 394.766 371.541 394.411 371.541C394.144 371.63 393.966 371.807 393.877 371.985C393.789 372.074 393.877 372.252 393.966 372.252C394.055 372.341 394.144 372.341 394.233 372.252Z" fill="#F4ACC8"/>
<path d="M393.966 372.874C394.055 372.785 394.144 372.696 394.055 372.785C393.966 372.785 394.055 372.785 394.144 372.874C394.322 372.963 394.41 373.141 394.588 373.318C394.766 373.496 394.944 373.496 395.122 373.318C395.299 373.141 395.299 372.963 395.122 372.785C395.122 372.785 395.122 372.785 395.033 372.696C394.855 372.607 394.677 372.43 394.41 372.341C394.322 372.341 394.144 372.163 393.877 372.252C393.611 372.341 393.611 372.518 393.522 372.607C393.433 372.696 393.522 372.874 393.611 372.874C393.788 373.052 393.877 372.963 393.966 372.874Z" fill="#F4ACC8"/>
<path d="M397.255 373.585C397.255 373.941 396.544 374.474 396.188 374.385C395.566 374.207 394.944 373.852 394.588 373.407C394.322 372.874 395.299 371.719 395.833 371.896C396.633 372.252 397.255 373.141 397.255 373.585Z" fill="#F4ACC8"/>
<path d="M406.499 367.719L402.588 377.763L404.632 377.14L397.433 373.496C397.077 373.318 396.544 373.496 396.366 373.852C396.188 374.207 396.277 374.652 396.633 374.918L403.21 379.629C403.832 380.074 404.632 379.896 405.077 379.363C405.166 379.274 405.166 379.185 405.166 379.185L405.255 379.007L409.699 369.23C410.143 368.341 409.699 367.363 408.81 366.919C407.921 366.474 406.943 366.919 406.499 367.808C406.588 367.719 406.588 367.719 406.499 367.719Z" fill="#2E85DD"/>
<path d="M396.633 354.297C396.989 354.653 397.344 354.919 397.7 355.097C398.144 355.275 398.678 355.453 399.211 355.364H399.3C399.566 355.275 399.744 355.008 399.744 354.742C399.655 354.475 399.389 354.297 399.122 354.297C399.033 354.297 399.033 354.297 398.944 354.386C398.678 354.475 398.322 354.475 397.966 354.386C397.611 354.297 397.255 354.119 396.9 353.942C396.811 353.853 396.633 353.853 396.544 354.031C396.544 354.119 396.544 354.208 396.633 354.297Z" fill="#F4ACC8"/>
<path d="M397.434 353.586C397.345 353.497 397.434 353.408 397.434 353.408C397.434 353.497 397.434 353.497 397.434 353.586C397.611 353.586 397.789 353.764 397.967 353.942C398.056 354.119 398.322 354.119 398.5 354.031C398.678 353.942 398.678 353.675 398.589 353.497C398.589 353.497 398.589 353.497 398.5 353.408C398.234 353.231 398.056 352.964 397.611 352.875C397.434 352.875 397.078 352.786 396.9 353.142C396.811 353.408 396.9 353.675 396.989 353.764C397.078 353.853 397.167 353.853 397.256 353.853C397.522 353.853 397.522 353.675 397.434 353.586Z" fill="#F4ACC8"/>
<path d="M397.611 353.053C397.611 352.875 397.611 352.697 397.7 352.697C397.7 352.697 397.611 352.697 397.611 352.786L397.7 352.875C397.878 353.053 398.056 353.408 398.234 353.675C398.322 353.853 398.589 353.942 398.767 353.853C398.945 353.764 399.034 353.497 398.945 353.319C398.945 353.319 398.945 353.32 398.945 353.231C398.678 352.964 398.5 352.608 398.145 352.342C398.056 352.253 397.967 352.253 397.878 352.164C397.789 352.164 397.7 352.075 397.611 352.164C397.522 352.164 397.345 352.253 397.345 352.342C397.167 352.697 397.256 352.875 397.256 353.053C397.256 353.142 397.345 353.231 397.522 353.231C397.522 353.32 397.611 353.142 397.611 353.053Z" fill="#F4ACC8"/>
<path d="M398.055 352.52C398.144 352.431 398.144 352.431 398.144 352.431C398.233 352.431 398.233 352.52 398.322 352.608C398.411 352.786 398.5 353.142 398.5 353.319C398.5 353.497 398.678 353.675 398.855 353.675C399.033 353.675 399.211 353.497 399.211 353.319V353.231C399.122 352.875 399.033 352.52 398.855 352.164C398.766 351.986 398.589 351.897 398.322 351.808C398.055 351.72 397.7 351.986 397.7 352.164C397.7 352.253 397.7 352.431 397.878 352.431C397.878 352.608 397.967 352.608 398.055 352.52Z" fill="#F4ACC8"/>
<path d="M398.589 352.431C398.678 352.342 398.766 352.342 398.766 352.431C398.766 352.431 398.766 352.431 398.766 352.52C398.855 352.697 398.855 352.875 398.855 353.053C398.855 353.231 399.033 353.408 399.211 353.408C399.389 353.408 399.566 353.231 399.566 353.053V352.964C399.478 352.697 399.389 352.52 399.3 352.253C399.211 352.164 399.122 351.986 398.855 351.897C398.589 351.897 398.5 351.986 398.411 352.075C398.322 352.164 398.322 352.253 398.411 352.342C398.411 352.52 398.5 352.52 398.589 352.431Z" fill="#F4ACC8"/>
<path d="M400.1 355.008C400.011 355.275 399.122 355.542 398.855 355.275C398.411 354.919 397.966 354.297 397.789 353.764C397.7 353.142 399.122 352.431 399.478 352.875C400.1 353.497 400.277 354.564 400.1 355.008Z" fill="#F4ACC8"/>
<defs>
<linearGradient id="paint0_linear" x1="464" y1="221" x2="106.929" y2="506.042" gradientUnits="userSpaceOnUse">
<stop stop-color="#DAF2FF"/>
<stop offset="1" stop-color="white"/>
</linearGradient>
<linearGradient id="paint1_linear" x1="372.324" y1="310.591" x2="427.131" y2="398.021" gradientUnits="userSpaceOnUse">
<stop stop-color="white"/>
<stop offset="1" stop-color="#326A8C"/>
</linearGradient>
<linearGradient id="paint2_linear" x1="245.365" y1="366.793" x2="227.512" y2="366.793" gradientUnits="userSpaceOnUse">
<stop stop-color="#86AFF0"/>
<stop offset="1" stop-color="#C5DCFD"/>
</linearGradient>
<linearGradient id="paint3_linear" x1="235.42" y1="344.428" x2="235.42" y2="311.223" gradientUnits="userSpaceOnUse">
<stop stop-color="#1B93A4"/>
<stop offset="1"/>
</linearGradient>
<linearGradient id="paint4_linear" x1="440.178" y1="366.793" x2="422.325" y2="366.793" gradientUnits="userSpaceOnUse">
<stop stop-color="#86AFF0"/>
<stop offset="1" stop-color="#C5DCFD"/>
</linearGradient>
<linearGradient id="paint5_linear" x1="430.233" y1="344.428" x2="430.233" y2="311.223" gradientUnits="userSpaceOnUse">
<stop stop-color="#1B93A4"/>
<stop offset="1"/>
</linearGradient>
<linearGradient id="paint6_linear" x1="374.291" y1="404.225" x2="289.965" y2="404.225" gradientUnits="userSpaceOnUse">
<stop stop-color="#0299ED"/>
<stop offset="1" stop-color="#0C5FE7"/>
</linearGradient>
<linearGradient id="paint7_linear" x1="349.438" y1="401.237" x2="319.355" y2="401.237" gradientUnits="userSpaceOnUse">
<stop stop-color="#86AFF0"/>
<stop offset="1" stop-color="#C5DCFD"/>
</linearGradient>
<linearGradient id="paint8_linear" x1="374.291" y1="361.437" x2="289.965" y2="361.437" gradientUnits="userSpaceOnUse">
<stop stop-color="#0299ED"/>
<stop offset="1" stop-color="#0C5FE7"/>
</linearGradient>
<linearGradient id="paint9_linear" x1="349.438" y1="358.448" x2="319.355" y2="358.448" gradientUnits="userSpaceOnUse">
<stop stop-color="#86AFF0"/>
<stop offset="1" stop-color="#C5DCFD"/>
</linearGradient>
<linearGradient id="paint10_linear" x1="374.291" y1="318.648" x2="289.965" y2="318.648" gradientUnits="userSpaceOnUse">
<stop stop-color="#0299ED"/>
<stop offset="1" stop-color="#0C5FE7"/>
</linearGradient>
<linearGradient id="paint11_linear" x1="349.438" y1="315.66" x2="319.355" y2="315.66" gradientUnits="userSpaceOnUse">
<stop stop-color="#86AFF0"/>
<stop offset="1" stop-color="#C5DCFD"/>
</linearGradient>
<linearGradient id="paint12_linear" x1="440.178" y1="479.121" x2="422.325" y2="479.121" gradientUnits="userSpaceOnUse">
<stop stop-color="#86AFF0"/>
<stop offset="1" stop-color="#C5DCFD"/>
</linearGradient>
<linearGradient id="paint13_linear" x1="430.233" y1="456.756" x2="430.233" y2="423.551" gradientUnits="userSpaceOnUse">
<stop stop-color="#1B93A4"/>
<stop offset="1"/>
</linearGradient>
<linearGradient id="paint14_linear" x1="245.365" y1="479.121" x2="227.512" y2="479.121" gradientUnits="userSpaceOnUse">
<stop stop-color="#86AFF0"/>
<stop offset="1" stop-color="#C5DCFD"/>
</linearGradient>
<linearGradient id="paint15_linear" x1="235.42" y1="456.756" x2="235.42" y2="423.551" gradientUnits="userSpaceOnUse">
<stop stop-color="#1B93A4"/>
<stop offset="1"/>
</linearGradient>
</defs>
</svg>
