<svg width="74" height="50" viewBox="0 0 74 50" fill="none" xmlns="http://www.w3.org/2000/svg">
<path d="M17.2325 34.4649C19.1885 34.4649 21.0608 34.1239 22.8136 33.5232C16.3115 50.2938 1.90301 49.4782 20.1175 49.4782C37.9455 36.388 34.4841 17.7583 34.464 17.256C34.464 17.2482 34.4649 17.2404 34.4649 17.2325C34.4649 7.71515 26.7499 0 17.2325 0C7.71501 0 0 7.71501 0 17.2325C0 26.75 7.71586 34.4649 17.2325 34.4649Z" fill="#E8E8E8"/>
<path d="M56.4857 34.4649C58.4417 34.4649 60.314 34.1239 62.0668 33.5232C55.5647 50.2938 41.1562 49.4782 59.3707 49.4782C77.1987 36.388 73.7373 17.7583 73.7172 17.256C73.7172 17.2482 73.7181 17.2404 73.7181 17.2325C73.7181 7.71515 66.0031 0 56.4857 0C46.9682 0 39.2532 7.71501 39.2532 17.2325C39.2532 26.75 46.969 34.4649 56.4857 34.4649Z" fill="#E8E8E8"/>
</svg>
