<svg width="56" height="71" viewBox="0 0 56 71" fill="none" xmlns="http://www.w3.org/2000/svg">
<path d="M27.8044 7.79204C27.4101 7.79204 27.0296 7.73191 26.6714 7.62042V13.0212H28.9374V7.62042C28.5793 7.73206 28.1987 7.79204 27.8044 7.79204Z" fill="#C1E0EA"/>
<path d="M27.8044 7.9433C29.9979 7.9433 31.7761 6.16513 31.7761 3.97165C31.7761 1.77817 29.9979 0 27.8044 0C25.6109 0 23.8328 1.77817 23.8328 3.97165C23.8328 6.16513 25.6109 7.9433 27.8044 7.9433Z" fill="#9EC9D6"/>
<g opacity="0.15">
<path opacity="0.15" d="M27.1758 3.97165C27.1758 2.37559 28.1177 1.00009 29.476 0.368764C28.9677 0.13264 28.4017 0 27.8044 0C25.6109 0 23.8328 1.77825 23.8328 3.97165C23.8328 6.16505 25.6109 7.94315 27.8044 7.94315C28.4017 7.94315 28.9677 7.81051 29.476 7.57438C28.1177 6.94321 27.1758 5.56771 27.1758 3.97165Z" fill="#FB4B00"/>
</g>
<path d="M53.1199 19.2204H50.7778V40.8262H53.1199C54.4038 40.8262 55.4544 39.7758 55.4544 38.4919V21.5547C55.4544 20.2709 54.4038 19.2204 53.1199 19.2204Z" fill="#A7D0DD"/>
<path d="M4.83094 19.2204H2.33435C1.0504 19.2204 0 20.2709 0 21.5547V38.4917C0 39.7757 1.0504 40.8261 2.33435 40.8261H4.83079L4.83094 19.2204Z" fill="#A7D0DD"/>
<path d="M32.9711 46.8394H22.6394V50.7002H32.9711V46.8394Z" fill="#A7D0DD"/>
<path opacity="0.15" d="M26.4042 46.8394H22.6394V50.7002H26.4042V46.8394Z" fill="#9EA0A2"/>
<path d="M39.9578 54.3855V51.874C39.9578 51.1358 39.3538 50.5319 38.6157 50.5319H16.5405C15.8022 50.5319 15.1982 51.1358 15.1982 51.874V54.3855H39.9578Z" fill="#C1E0EA"/>
<path opacity="0.15" d="M19.8529 54.3855V51.874C19.8529 51.1358 20.4569 50.5319 21.1953 50.5319H16.5405C15.8022 50.5319 15.1982 51.1358 15.1982 51.874V54.3855H19.8529Z" fill="#ADAEAF"/>
<path d="M50.929 44.6848C50.929 45.9688 49.8785 47.0192 48.5947 47.0192H7.01428C5.73048 47.0192 4.67993 45.9688 4.67993 44.6848V15.2047C4.67993 13.9208 5.73048 12.8704 7.01428 12.8704H48.5947C49.8785 12.8704 50.929 13.9208 50.929 15.2047V44.6848Z" fill="#D7E7EC"/>
<g opacity="0.15">
<path opacity="0.15" d="M9.12881 44.6848V15.2047C9.12881 13.9208 10.1794 12.8704 11.4633 12.8704H7.01428C5.73048 12.8704 4.67993 13.9208 4.67993 15.2047V44.685C4.67993 45.9689 5.73048 47.0193 7.01428 47.0193H11.4633C10.1794 47.0192 9.12881 45.9688 9.12881 44.6848Z" fill="#440075"/>
</g>
<path d="M45.4048 29.9886C45.4048 34.442 41.7947 38.0516 37.3415 38.0516H18.2675C13.8141 38.0516 10.2041 34.4419 10.2041 29.9886C10.2041 25.5353 13.8141 21.9257 18.2675 21.9257H37.3415C41.7947 21.9257 45.4048 25.5353 45.4048 29.9886Z" fill="#A7D0DD"/>
<g opacity="0.15">
<path opacity="0.15" d="M14.7315 29.9886C14.7315 25.5353 18.3415 21.9257 22.7949 21.9257H18.2675C13.8141 21.9257 10.2041 25.5355 10.2041 29.9886C10.2041 34.442 13.8141 38.0516 18.2675 38.0516H22.7949C18.3415 38.0516 14.7315 34.4419 14.7315 29.9886Z" fill="#440075"/>
</g>
<path d="M17.4622 33.1367C19.1938 33.1367 20.5976 31.7275 20.5976 29.989C20.5976 28.2506 19.1938 26.8413 17.4622 26.8413C15.7306 26.8413 14.3269 28.2506 14.3269 29.989C14.3269 31.7275 15.7306 33.1367 17.4622 33.1367Z" fill="#00ADEE"/>
<path d="M38.2073 33.1367C39.9389 33.1367 41.3427 31.7275 41.3427 29.989C41.3427 28.2506 39.9389 26.8413 38.2073 26.8413C36.4758 26.8413 35.072 28.2506 35.072 29.989C35.072 31.7275 36.4758 33.1367 38.2073 33.1367Z" fill="#00ADEE"/>
<path d="M21 68L27.5 55L30.5 54.5L36.5 68L29 69L21 68Z" fill="white"/>
<path d="M19.4059 66.0235L26.4788 53.0025C27.0126 52.1039 27.9555 51.5671 29.0008 51.5671C30.0461 51.5671 30.9889 52.1039 31.5227 53.0025C31.5267 53.0094 31.5301 53.0163 31.5342 53.0232L38.5835 66.003C39.1288 66.9206 39.1391 68.0226 38.6116 68.9505C38.0829 69.879 37.1304 70.4328 36.0622 70.4328H21.9784C20.9102 70.4328 19.9185 69.879 19.3899 68.9505C18.8624 68.0226 18.8726 66.9205 19.4059 66.0235ZM30.1738 57.5292C30.1738 56.8813 29.6486 56.3562 29.0008 56.3562C28.3529 56.3562 27.8277 56.8814 27.8277 57.5292V62.2214C27.8277 62.8692 28.3529 63.3945 29.0008 63.3945C29.6486 63.3945 30.1738 62.8692 30.1738 62.2214V57.5292ZM29.0008 68.0867C29.971 68.0867 30.7604 67.2975 30.7604 66.3271C30.7604 65.3569 29.9711 64.5676 29.0008 64.5676C28.0305 64.5676 27.2412 65.3569 27.2412 66.3271C27.2412 67.2974 28.0305 68.0867 29.0008 68.0867Z" fill="#FB4B00"/>
</svg>
