<svg width="70" height="70" viewBox="0 0 70 70" fill="none" xmlns="http://www.w3.org/2000/svg">
<path d="M46.9 41.3452L68.3516 60.0306C68.8002 60.395 69.1678 60.849 69.4309 61.3635C69.6941 61.878 69.847 62.4417 69.88 63.0187C69.9129 63.5957 69.8251 64.1732 69.6222 64.7143C69.4193 65.2554 69.1058 65.7482 68.7016 66.1613C67.9444 66.7434 67.0077 67.0428 66.0533 67.0078C65.0989 66.9727 64.1866 66.6054 63.4742 65.9694L41.2661 46.9565L46.9 41.3452Z" fill="#FB4B00"/>
<path d="M25.9677 51.9355C40.3093 51.9355 51.9355 40.3093 51.9355 25.9677C51.9355 11.6262 40.3093 0 25.9677 0C11.6262 0 0 11.6262 0 25.9677C0 40.3093 11.6262 51.9355 25.9677 51.9355Z" fill="#4596B4"/>
<path d="M26 46C37.0457 46 46 37.0457 46 26C46 14.9543 37.0457 6 26 6C14.9543 6 6 14.9543 6 26C6 37.0457 14.9543 46 26 46Z" fill="#C8EFFE"/>
<path d="M22.5245 64.3548H15.8068C15.5073 64.3548 15.2202 64.2359 15.0084 64.0242C14.7967 63.8124 14.6777 63.5252 14.6777 63.2258C14.6777 62.9264 14.7967 62.6392 15.0084 62.4275C15.2202 62.2157 15.5073 62.0968 15.8068 62.0968H21.3955V23.5484C21.3955 23.2489 21.5144 22.9618 21.7262 22.75C21.9379 22.5383 22.2251 22.4194 22.5245 22.4194C22.8239 22.4194 23.1111 22.5383 23.3229 22.75C23.5346 22.9618 23.6535 23.2489 23.6535 23.5484V63.2258C23.6535 63.5252 23.5346 63.8124 23.3229 64.0242C23.1111 64.2359 22.8239 64.3548 22.5245 64.3548Z" fill="#164600"/>
<path d="M63.2261 37.2016C62.9266 37.2016 62.6394 37.0827 62.4277 36.8709C62.216 36.6592 62.097 36.372 62.097 36.0726V30.4839H33.8712C33.5718 30.4839 33.2846 30.3649 33.0729 30.1532C32.8611 29.9415 32.7422 29.6543 32.7422 29.3548C32.7422 29.0554 32.8611 28.7682 33.0729 28.5565C33.2846 28.3448 33.5718 28.2258 33.8712 28.2258H63.2261C63.5255 28.2258 63.8127 28.3448 64.0244 28.5565C64.2361 28.7682 64.3551 29.0554 64.3551 29.3548V36.0726C64.3551 36.372 64.2361 36.6592 64.0244 36.8709C63.8127 37.0827 63.5255 37.2016 63.2261 37.2016Z" fill="#164600"/>
<path d="M36.1292 67.7419H30.484C30.1846 67.7419 29.8974 67.623 29.6857 67.4112C29.4739 67.1995 29.355 66.9123 29.355 66.6129V47.4194C29.355 47.1199 29.4739 46.8327 29.6857 46.621C29.8974 46.4093 30.1846 46.2903 30.484 46.2903C30.7835 46.2903 31.0706 46.4093 31.2824 46.621C31.4941 46.8327 31.613 47.1199 31.613 47.4194V65.4839H36.1292C36.4286 65.4839 36.7158 65.6028 36.9275 65.8146C37.1393 66.0263 37.2582 66.3135 37.2582 66.6129C37.2582 66.9123 37.1393 67.1995 36.9275 67.4112C36.7158 67.623 36.4286 67.7419 36.1292 67.7419Z" fill="#164600"/>
<path d="M66.6131 22.5806H38.3873C38.0879 22.5806 37.8007 22.4617 37.589 22.25C37.3773 22.0382 37.2583 21.7511 37.2583 21.4516C37.2583 21.1522 37.3773 20.865 37.589 20.6533C37.8007 20.4415 38.0879 20.3226 38.3873 20.3226H65.4841V12.4194C65.4841 12.1199 65.6031 11.8327 65.8148 11.621C66.0265 11.4093 66.3137 11.2903 66.6131 11.2903C66.9126 11.2903 67.1998 11.4093 67.4115 11.621C67.6232 11.8327 67.7422 12.1199 67.7422 12.4194V21.4516C67.7422 21.7511 67.6232 22.0382 67.4115 22.25C67.1998 22.4617 66.9126 22.5806 66.6131 22.5806Z" fill="#164600"/>
<path d="M12.4193 66.6129C14.29 66.6129 15.8064 65.0964 15.8064 63.2258C15.8064 61.3552 14.29 59.8387 12.4193 59.8387C10.5487 59.8387 9.03223 61.3552 9.03223 63.2258C9.03223 65.0964 10.5487 66.6129 12.4193 66.6129Z" fill="#FFC700"/>
<path d="M39.516 70C41.3866 70 42.9031 68.4835 42.9031 66.6129C42.9031 64.7423 41.3866 63.2258 39.516 63.2258C37.6454 63.2258 36.1289 64.7423 36.1289 66.6129C36.1289 68.4835 37.6454 70 39.516 70Z" fill="#FFC700"/>
<path d="M63.2484 42.8468C65.1191 42.8468 66.6355 41.3303 66.6355 39.4597C66.6355 37.589 65.1191 36.0726 63.2484 36.0726C61.3778 36.0726 59.8613 37.589 59.8613 39.4597C59.8613 41.3303 61.3778 42.8468 63.2484 42.8468Z" fill="#FFC700"/>
<path d="M66.6127 12.4193C68.4833 12.4193 69.9998 10.9029 69.9998 9.03225C69.9998 7.16161 68.4833 5.64515 66.6127 5.64515C64.742 5.64515 63.2256 7.16161 63.2256 9.03225C63.2256 10.9029 64.742 12.4193 66.6127 12.4193Z" fill="#FFC700"/>
<path d="M46.9 41.3452L41.2549 46.9903L44.1113 49.4403C47.0356 48.8139 49.8383 47.7156 52.4097 46.1887L46.9 41.3452Z" fill="#B73235"/>
</svg>
