<svg width="37" height="56" viewBox="0 0 37 56" fill="none" xmlns="http://www.w3.org/2000/svg">
<path d="M18.3333 0.5C9.47792 0.510098 2.30183 7.68629 2.29173 16.5416V26.8541C2.29173 27.4869 2.80478 27.9999 3.4376 27.9999H8.02085C8.65367 27.9999 9.16672 27.4869 9.16672 26.8541V16.5416C9.16672 11.479 13.2708 7.37499 18.3333 7.37499C23.3959 7.37499 27.4999 11.479 27.4999 16.5416V26.8541C27.4999 27.4869 28.013 27.9999 28.6458 27.9999H33.2292C33.862 27.9999 34.375 27.4869 34.375 26.8541V16.5416C34.3648 7.68629 27.1887 0.510098 18.3333 0.5Z" fill="#164600"/>
<path d="M33.2292 25.7075H3.43749C1.53903 25.7075 0 27.2465 0 29.145V49.77C0 52.9341 2.56501 55.4991 5.72912 55.4991H30.9374C34.1015 55.4991 36.6666 52.9341 36.6666 49.77V29.145C36.6667 27.2465 35.1276 25.7075 33.2292 25.7075Z" fill="#00ADEE"/>
<path d="M21.4293 40.5346C22.3809 39.6737 22.9216 38.449 22.9166 37.1659C22.9166 34.6346 20.8645 32.5825 18.3332 32.5825C15.8019 32.5825 13.7499 34.6346 13.7499 37.1659C13.7449 38.449 14.2856 39.6737 15.2371 40.5346L13.8071 44.8246C13.6071 45.425 13.9317 46.0738 14.5321 46.2738C14.6493 46.3128 14.7721 46.3327 14.8956 46.3326H21.7706C22.4034 46.3334 22.9171 45.8211 22.9179 45.1882C22.918 45.0647 22.8982 44.9419 22.8591 44.8247L21.4293 40.5346Z" fill="white"/>
</svg>
