<svg width="84" height="67" viewBox="0 0 84 67" fill="none" xmlns="http://www.w3.org/2000/svg">
<path d="M46.7758 40.1107C45.5063 40.1107 44.2658 39.9844 43.0654 39.7457V64.1694H50.1929V39.802C49.0841 40.0042 47.9421 40.1107 46.7758 40.1107Z" fill="#00ADEE"/>
<path d="M37.7916 64.1693V44.8671C37.7916 44.5333 37.5209 44.2627 37.1871 44.2627H31.2685C30.9347 44.2627 30.6641 44.5333 30.6641 44.8671V64.1695H37.7916V64.1693Z" fill="#FFC700"/>
<path d="M25.3902 64.1699V34.1605C25.3902 33.8267 25.1196 33.556 24.7858 33.556H18.8671C18.5333 33.556 18.2627 33.8267 18.2627 34.1605V64.1699H25.3902Z" fill="#00ADEE"/>
<path d="M12.9879 64.1699V22.0595C12.9879 21.7257 12.7172 21.4551 12.3834 21.4551H6.4648C6.13098 21.4551 5.86035 21.7257 5.86035 22.0595V64.1701H12.9879V64.1699Z" fill="#164600"/>
<path d="M54.8273 66.462H1.22789C0.549605 66.462 0 65.9122 0 65.2341C0 64.556 0.549605 64.0062 1.22789 64.0062H54.8273C55.5055 64.0062 56.0551 64.556 56.0551 65.2341C56.0551 65.9122 55.5054 66.462 54.8273 66.462Z" fill="#A8D3D8"/>
<path d="M67.8841 38.3736L61.9861 32.4755C60.8928 33.936 59.5943 35.2345 58.1338 36.3278L64.0319 42.2259L67.8841 38.3736Z" fill="#A7D2E3"/>
<path d="M83.0948 54.2804L80.0454 57.3298C79.0719 58.3033 77.4935 58.3033 76.52 57.3298L63.3165 44.1263C62.9231 43.7329 62.9231 43.0949 63.3165 42.7015L68.4665 37.5515C68.8599 37.1581 69.4979 37.1581 69.8913 37.5515L83.0948 50.755C84.0684 51.7285 84.0684 53.3069 83.0948 54.2804Z" fill="#4596B4"/>
<path d="M46.7787 1.96326C43.6569 1.96326 40.7096 2.71047 38.1055 4.03529V12.0845C38.1055 12.2692 37.9554 12.4193 37.7707 12.4193H29.7078C28.3747 15.03 27.6226 17.9869 27.6226 21.1195C27.6226 31.6992 36.1992 40.2757 46.7787 40.2757C57.3582 40.2757 65.9348 31.6991 65.9348 21.1194C65.9348 10.5397 57.3584 1.96326 46.7787 1.96326Z" fill="#4596B4"/>
<path d="M46.9996 5.00037C42.9117 5.00037 39.1786 6.54345 36.3472 9.07504V9.90349C36.3472 10.1303 36.1628 10.3147 35.936 10.3147H35.1029C32.5539 13.1499 30.9995 16.8964 30.9995 21.0003C30.9995 29.8228 38.177 37.0004 46.9994 37.0004C55.822 37.0004 62.9995 29.8228 62.9995 21.0003C62.9997 12.1779 55.8222 5.00037 46.9996 5.00037Z" fill="#C8EFFE"/>
<path d="M36.4667 21.0005C36.4667 13.7946 40.8241 7.60736 46.9995 5.007C46.9131 5.0056 46.8276 5.00037 46.7409 5.00037C42.7191 5.00037 39.0464 6.54345 36.2608 9.07504V9.90349C36.2608 10.1303 36.0794 10.3147 35.8562 10.3147H35.0366C32.5287 13.1499 30.9995 16.8964 30.9995 21.0003C30.9995 29.8228 38.061 37.0004 46.7407 37.0004C46.8274 37.0004 46.9131 36.9951 46.9995 36.9937C40.8241 34.3938 36.4667 28.2066 36.4667 21.0005Z" fill="#99E6FC"/>
<path d="M46.7111 21.2831H54.8534L55.2556 21.1194C55.2556 16.4454 51.4529 12.6428 46.7791 12.6428C44.4402 12.6428 42.3194 13.5952 40.7842 15.1323L40.9779 15.5572L46.7111 21.2831Z" fill="#FB4B00"/>
<path d="M46.7778 21.1189H55.2544C55.2544 25.769 51.4279 29.5955 46.7778 29.5955C42.1277 29.5955 38.3013 25.769 38.3013 21.1189C38.3013 18.8735 39.1934 16.7176 40.7801 15.1289L46.7778 21.1189Z" fill="#00ADEE"/>
<path d="M37.7687 12.583H6.35888C6.0835 12.583 5.86035 12.3599 5.86035 12.0845V0.708485C5.86035 0.43311 6.0835 0.209961 6.35888 0.209961H37.7687C38.0441 0.209961 38.2673 0.43311 38.2673 0.708485V12.0843C38.2674 12.3597 38.0441 12.583 37.7687 12.583Z" fill="#FB4B00"/>
<path d="M15.4854 7.62376H11.3431C10.6648 7.62376 10.1152 7.07399 10.1152 6.39586C10.1152 5.71774 10.6648 5.16797 11.3431 5.16797H15.4854C16.1637 5.16797 16.7133 5.71774 16.7133 6.39586C16.7133 7.07399 16.1635 7.62376 15.4854 7.62376Z" fill="#B73235"/>
<path d="M32.781 7.62351H19.3197C18.6414 7.62351 18.0918 7.07374 18.0918 6.39562C18.0918 5.71749 18.6414 5.16772 19.3197 5.16772H32.781C33.4593 5.16772 34.0089 5.71749 34.0089 6.39562C34.0089 7.07374 33.4593 7.62351 32.781 7.62351Z" fill="#B73235"/>
</svg>
