<svg width="581" height="584" viewBox="0 0 581 584" fill="none" xmlns="http://www.w3.org/2000/svg">
<circle cx="189.657" cy="502" r="75" fill="#00ADEE"/>
<path d="M501.425 507.028C444.033 606.147 286.519 544.144 217.059 501.465C188.783 484.092 117.381 442.789 45.5324 349.8C-49.7763 226.448 103.892 127.947 183.109 82.0039C262.325 36.0606 407.604 -33.2972 497.398 46.8647C587.192 127.027 574.651 380.561 501.425 507.028Z" fill="url(#paint0_linear)"/>
<path d="M465.005 398.329V387.076L456.441 388.213L454.648 393.607L465.005 398.329Z" fill="#93CAF5"/>
<path d="M157.517 344.476L157.482 356.608L169.132 361.381L169.718 354.075L164.513 346.371L157.517 344.476Z" fill="#93CAF5"/>
<path d="M459.887 390.574L288.16 291.105C284.292 289.151 280.018 288.133 275.684 288.133C271.349 288.133 267.076 289.151 263.207 291.105L162.635 349.422C155.742 353.403 155.742 359.865 162.635 363.829L334.362 463.297C338.228 465.259 342.503 466.282 346.839 466.282C351.174 466.282 355.449 465.259 359.315 463.297L459.887 405.015C466.763 401.017 466.763 394.555 459.887 390.574Z" fill="#B3DDFF"/>
<path d="M359.315 452.303C355.447 454.257 351.173 455.275 346.839 455.275C342.504 455.275 338.231 454.257 334.362 452.303L162.635 352.834C155.742 348.853 155.742 342.391 162.635 338.427L263.207 280.111C267.073 278.149 271.348 277.126 275.684 277.126C280.019 277.126 284.294 278.149 288.16 280.111L459.887 379.579C466.78 383.543 466.78 389.919 459.887 393.986L359.315 452.303Z" fill="#FCFEFF"/>
<path d="M357.231 451.096C354.009 452.727 350.45 453.577 346.839 453.577C343.229 453.577 339.669 452.727 336.448 451.096L164.704 351.593C158.982 348.284 158.982 342.977 164.704 339.53L265.293 281.196C268.514 279.565 272.074 278.716 275.684 278.716C279.295 278.716 282.854 279.565 286.076 281.196L457.837 380.786C463.558 384.094 463.558 389.402 457.837 392.849L357.231 451.096Z" fill="#6967D1"/>
<path d="M456.251 391.884L355.679 450.2C352.941 451.594 349.912 452.321 346.839 452.321C343.766 452.321 340.737 451.594 337.998 450.2L166.271 350.731C161.395 347.905 161.395 343.338 166.271 340.53L266.843 282.213C269.582 280.819 272.611 280.093 275.684 280.093C278.757 280.093 281.786 280.819 284.524 282.213L456.251 381.682C461.128 384.491 461.128 389.058 456.251 391.884Z" fill="#5453A3"/>
<path d="M444.567 380.631L336.447 443.307L170.597 347.233L278.717 284.557L444.567 380.631Z" fill="#A3DCFF"/>
<path d="M445.343 380.786L336.62 443.807L327.262 438.396L435.985 375.375L445.343 380.786Z" fill="#27ADE3"/>
<path d="M289.849 291.14L181.85 353.73L170.597 347.233L278.579 284.626L289.849 291.14Z" fill="#27ADE3"/>
<path d="M237.254 304.513L211.405 319.419C211.03 319.606 210.617 319.703 210.198 319.703C209.78 319.703 209.367 319.606 208.992 319.419C208.848 319.368 208.723 319.273 208.635 319.148C208.547 319.023 208.5 318.874 208.5 318.721C208.5 318.568 208.547 318.419 208.635 318.294C208.723 318.169 208.848 318.075 208.992 318.023L234.842 303.117C235.214 302.922 235.628 302.82 236.048 302.82C236.468 302.82 236.882 302.922 237.254 303.117C237.398 303.168 237.523 303.263 237.611 303.388C237.699 303.513 237.746 303.662 237.746 303.815C237.746 303.967 237.699 304.117 237.611 304.242C237.523 304.367 237.398 304.461 237.254 304.513Z" fill="#242838"/>
<g opacity="0.13">
<g style="mix-blend-mode:screen">
<path d="M417.305 122.291L405.379 129.184L393.454 122.291L405.379 115.398L417.305 122.291Z" fill="#6FBDED"/>
</g>
<path style="mix-blend-mode:screen" d="M417.373 274.32L405.345 281.265L393.333 274.32L405.345 267.375L417.373 274.32Z" fill="url(#paint1_linear)"/>
<path style="mix-blend-mode:screen" d="M393.333 122.256V274.32L405.345 281.265V129.201L393.333 122.256Z" fill="url(#paint2_linear)"/>
<path style="mix-blend-mode:screen" d="M417.373 122.256V274.32L405.345 281.265V129.201L417.373 122.256Z" fill="url(#paint3_linear)"/>
</g>
<g opacity="0.13">
<g style="mix-blend-mode:screen">
<path d="M441.037 166.097L429.112 172.99L417.187 166.097L429.112 159.204L441.037 166.097Z" fill="#6FBDED"/>
</g>
<path style="mix-blend-mode:screen" d="M441.106 285.522L429.094 292.467L417.083 285.522L429.094 278.594L441.106 285.522Z" fill="url(#paint4_linear)"/>
<path style="mix-blend-mode:screen" d="M417.083 166.062V285.522L429.094 292.467V172.99L417.083 166.062Z" fill="url(#paint5_linear)"/>
<path style="mix-blend-mode:screen" d="M441.106 166.062V285.522L429.094 292.467V172.99L441.106 166.062Z" fill="url(#paint6_linear)"/>
</g>
<g opacity="0.13">
<g style="mix-blend-mode:screen">
<path d="M464.853 215.608L452.928 222.501L441.003 215.608L452.928 208.714L464.853 215.608Z" fill="#6FBDED"/>
</g>
<path style="mix-blend-mode:screen" d="M464.922 296.103L452.911 303.048L440.899 296.103L452.911 289.175L464.922 296.103Z" fill="url(#paint7_linear)"/>
<path style="mix-blend-mode:screen" d="M440.899 215.556V296.103L452.911 303.048V222.501L440.899 215.556Z" fill="url(#paint8_linear)"/>
<path style="mix-blend-mode:screen" d="M464.922 215.556V296.103L452.911 303.048V222.501L464.922 215.556Z" fill="url(#paint9_linear)"/>
</g>
<path d="M307.582 405.446C346.118 405.446 377.358 387.407 377.358 365.155C377.358 342.904 346.118 324.865 307.582 324.865C269.046 324.865 237.806 342.904 237.806 365.155C237.806 387.407 269.046 405.446 307.582 405.446Z" fill="#8FD5FF"/>
<path d="M307.582 397.967C338.961 397.967 364.399 383.277 364.399 365.155C364.399 347.034 338.961 332.344 307.582 332.344C276.203 332.344 250.765 347.034 250.765 365.155C250.765 383.277 276.203 397.967 307.582 397.967Z" fill="#68C1F7"/>
<path d="M307.582 390.488C331.814 390.488 351.457 379.146 351.457 365.155C351.457 351.165 331.814 339.823 307.582 339.823C283.351 339.823 263.707 351.165 263.707 365.155C263.707 379.146 283.351 390.488 307.582 390.488Z" fill="#40ADEE"/>
<path d="M307.582 383.009C324.656 383.009 338.498 375.016 338.498 365.155C338.498 355.295 324.656 347.302 307.582 347.302C290.508 347.302 276.666 355.295 276.666 365.155C276.666 375.016 290.508 383.009 307.582 383.009Z" fill="#1999E6"/>
<path d="M307.737 162.289L273.444 196.634C267.085 202.993 260.209 202.148 259.33 194.911L258.675 189.396C257.158 176.919 261.484 161.082 270.204 147.106L279.355 132.424C289.694 115.794 306.152 111.4 310.529 124.066L315.699 138.783C317.853 145.245 314.355 155.637 307.737 162.289Z" fill="#EDEDED"/>
<path d="M279.32 267.72L267.55 271.115L277.993 216.745L289.763 213.333L279.32 267.72Z" fill="#2B3436"/>
<path d="M283.869 234.753L262.328 240.992L268.532 208.645C269.962 201.184 275.787 193.808 281.526 192.136C287.678 190.413 291.417 195.393 289.884 203.389L283.869 234.753Z" fill="#EDEDED"/>
<path d="M256.4 277.491L247.352 276.543L215.506 316.765L214.679 330.776L216.936 336.118C227.08 328.308 236.823 319.991 246.129 311.199C254.341 303.224 261.312 294.064 266.809 284.022L256.4 277.491Z" fill="#EDEDED"/>
<path d="M283.507 268.737L289.642 277.25L252.436 323.986L246.284 315.455L283.507 268.737Z" fill="#2B3436"/>
<path d="M274.408 264.515L280.56 273.045L243.337 319.781L237.202 311.251L274.408 264.515Z" fill="#4F6269"/>
<path d="M290.228 265.015L289.711 264.704C289.539 264.596 289.361 264.499 289.177 264.411L288.66 264.101C288.488 263.993 288.309 263.896 288.126 263.808C287.964 263.689 287.791 263.585 287.609 263.498C287.437 263.39 287.258 263.292 287.075 263.205C286.915 263.082 286.742 262.978 286.558 262.895L286.041 262.602C285.873 262.482 285.694 262.378 285.506 262.292L284.989 261.999C284.821 261.884 284.642 261.786 284.455 261.706C284.296 261.582 284.122 261.478 283.938 261.396L283.421 261.103C283.253 260.983 283.074 260.879 282.887 260.792L282.37 260.499C282.202 260.38 282.023 260.276 281.836 260.189L281.319 259.896C281.151 259.776 280.972 259.673 280.785 259.586C280.62 259.475 280.448 259.377 280.268 259.293L279.751 258.983C279.578 258.875 279.4 258.777 279.216 258.69C279.052 258.579 278.879 258.482 278.699 258.397C278.531 258.277 278.353 258.173 278.165 258.087C278.001 257.975 277.828 257.877 277.648 257.794L277.131 257.484C276.162 256.96 275.063 256.725 273.964 256.804C272.865 256.883 271.812 257.275 270.927 257.932C268.474 259.531 266.433 261.686 264.969 264.222C263.505 266.758 262.659 269.604 262.5 272.528C262.373 273.628 262.565 274.741 263.054 275.735C263.543 276.728 264.308 277.559 265.258 278.129L265.775 278.422C265.943 278.542 266.122 278.645 266.309 278.732C266.473 278.843 266.646 278.941 266.826 279.025C266.99 279.141 267.163 279.245 267.343 279.335C267.515 279.443 267.694 279.541 267.877 279.628C268.042 279.744 268.214 279.848 268.394 279.938C268.566 280.046 268.745 280.144 268.928 280.231C269.091 280.345 269.264 280.444 269.445 280.524C269.613 280.644 269.792 280.748 269.98 280.834C270.14 280.952 270.313 281.05 270.496 281.127C270.661 281.243 270.834 281.347 271.013 281.438C271.186 281.545 271.364 281.643 271.548 281.731C271.712 281.846 271.885 281.95 272.065 282.041C272.237 282.149 272.415 282.246 272.599 282.334C272.758 282.457 272.932 282.561 273.116 282.644L273.633 282.937C273.801 283.057 273.98 283.161 274.167 283.247L274.684 283.54C274.853 283.654 275.031 283.752 275.218 283.833C275.38 283.953 275.554 284.056 275.735 284.143C275.908 284.251 276.086 284.349 276.27 284.436C276.429 284.559 276.603 284.664 276.787 284.746L277.304 285.039C277.472 285.159 277.65 285.263 277.838 285.349L278.355 285.642C279.322 286.172 280.42 286.413 281.52 286.337C282.62 286.261 283.674 285.87 284.559 285.212C287.012 283.612 289.053 281.457 290.517 278.921C291.981 276.385 292.827 273.539 292.986 270.615C292.986 267.755 291.917 265.807 290.228 265.015Z" fill="#E0EFFF"/>
<path d="M292.986 270.598C292.827 273.522 291.982 276.368 290.517 278.904C289.053 281.44 287.012 283.595 284.559 285.194C279.906 287.883 276.132 285.694 276.132 280.317C276.293 277.394 277.14 274.549 278.604 272.014C280.068 269.478 282.108 267.322 284.559 265.721C289.212 263.067 292.986 265.238 292.986 270.598Z" fill="#BED7F0"/>
<path d="M273.168 259.19C276.27 257.466 278.975 257.759 280.44 259.793L288.884 215.763L277.114 219.209L268.653 263.36C269.857 261.676 271.394 260.257 273.168 259.19Z" fill="#4F6269"/>
<path d="M268.653 263.309L277.493 268.478L284.042 246.627L275.649 251.866L268.653 263.309Z" fill="#4F6269"/>
<path d="M282.06 264.342C285.162 262.619 287.867 262.929 289.332 264.963L297.776 220.915L286.024 224.362L277.545 268.513C278.764 266.842 280.298 265.426 282.06 264.342Z" fill="#2B3436"/>
<path d="M262.328 240.992L278.975 250.608L303.842 202.441L286.833 192.55L272.944 212.04L262.328 240.992Z" fill="#EDEDED"/>
<path d="M300.516 244.369L278.975 250.59L285.179 218.261C286.609 210.799 292.417 203.424 298.155 201.752C304.325 200.029 308.064 205.009 306.531 213.005L300.516 244.369Z" fill="#BED7F0"/>
<path d="M293.451 228.446C290.004 229.428 287.988 226.723 288.781 222.311L289.763 216.934C290.108 215.184 290.8 213.52 291.797 212.04C292.794 210.56 294.077 209.295 295.571 208.318C296.026 208.048 296.512 207.834 297.018 207.68C297.745 207.401 298.543 207.362 299.294 207.57C300.045 207.778 300.709 208.221 301.189 208.835C301.682 209.648 302.003 210.554 302.134 211.497C302.264 212.439 302.201 213.398 301.947 214.315L301.189 218.503C300.379 222.966 296.898 227.429 293.451 228.429V228.446Z" fill="#45CBDE"/>
<path d="M273.047 287.107L264 286.159L232.084 326.381L231.257 340.374L233.514 345.717C243.663 337.912 253.406 329.595 262.707 320.798C270.921 312.831 277.892 303.676 283.387 293.639L273.047 287.107Z" fill="#BED7F0"/>
<path d="M216.936 336.101L233.583 345.717L231.326 340.374L214.679 330.776L216.936 336.101Z" fill="#CCDDEB"/>
<path d="M215.506 316.765L232.153 326.381L231.326 340.374L214.679 330.776L215.506 316.765Z" fill="#D0E2F5"/>
<path d="M247.37 276.543L264 286.159L232.153 326.381L215.506 316.765L247.37 276.543Z" fill="#E0EFFF"/>
<path d="M256.4 277.491L273.047 287.107L264 286.159L247.37 276.543L256.4 277.491Z" fill="#B0CDED"/>
<path d="M230.086 332.637L229.655 337.962L223.055 346.992L221.486 334.946L230.086 332.637Z" fill="#272F33"/>
<path d="M201.237 331.534L191.966 338.599L188.398 345.786L189.794 349.801L199.203 340.96L205.287 342.063L199.203 356.16L187.175 363.501L188.571 366L200.065 362.588L213.92 349.456L217.074 325.606L201.237 331.534Z" fill="#4C585C"/>
<path d="M204.322 333.292L195.051 340.34L191.483 347.526L192.879 351.541L202.288 342.701L208.372 343.804L202.288 357.9L190.26 365.242L191.656 367.758L203.15 364.328L217.005 351.197L220.159 327.346L204.322 333.292Z" fill="#272F33"/>
<path d="M191.966 338.599L195.05 340.34L191.483 347.526L188.398 345.786L191.966 338.599Z" fill="#3D4B4F"/>
<path d="M192.879 351.541L191.483 347.526L188.398 345.786L189.794 349.801L192.879 351.541Z" fill="#2B3538"/>
<path d="M201.237 331.551L200.289 332.275L206.011 334.756L205.304 342.063L199.204 356.16L187.192 363.501L188.571 366.017L200.083 362.588L213.921 349.456L217.074 325.606L201.237 331.551Z" fill="#4C585C"/>
<path d="M199.204 356.16L205.304 342.063L199.204 356.16Z" fill="#384347"/>
<path d="M203.322 374.651L215.971 367.982L223.14 352.282L224.933 339.151L218.625 340.667L212.663 352.076L200.255 366.465L200.531 371.308L203.322 374.651Z" fill="#272F33"/>
<path d="M205.304 342.063L199.204 356.16L213.955 364.794L220.056 350.697L205.304 342.063Z" fill="#384347"/>
<path d="M187.192 363.501L201.927 372.135L203.322 374.651L188.416 365.896L187.192 363.501Z" fill="#272F33"/>
<path d="M199.204 356.16L213.955 364.794L201.927 372.135L187.192 363.501L199.204 356.16Z" fill="#4C585C"/>
<path d="M220.056 350.697L217.471 340.547L206.011 334.756L205.304 342.063L220.056 350.697Z" fill="#272F33"/>
<path d="M217.074 325.606L230.085 332.637L224.933 339.151L220.331 341.925L215.558 339.823L207.131 335.584L217.074 325.606Z" fill="#4C585C"/>
<path d="M306.824 381.561C324.498 381.561 338.826 373.29 338.826 363.087C338.826 352.885 324.498 344.614 306.824 344.614C289.15 344.614 274.822 352.885 274.822 363.087C274.822 373.29 289.15 381.561 306.824 381.561Z" fill="#2B2E31"/>
<path d="M306.824 374.547C324.498 374.547 338.826 366.276 338.826 356.074C338.826 345.871 324.498 337.6 306.824 337.6C289.15 337.6 274.822 345.871 274.822 356.074C274.822 366.276 289.15 374.547 306.824 374.547Z" fill="#51575C"/>
<path d="M306.824 370.48C322.166 370.48 334.603 363.297 334.603 354.436C334.603 345.576 322.166 338.393 306.824 338.393C291.481 338.393 279.044 345.576 279.044 354.436C279.044 363.297 291.481 370.48 306.824 370.48Z" fill="#2B2E31"/>
<path d="M306.824 364.38C322.166 364.38 334.603 357.197 334.603 348.336C334.603 339.475 322.166 332.292 306.824 332.292C291.481 332.292 279.044 339.475 279.044 348.336C279.044 357.197 291.481 364.38 306.824 364.38Z" fill="#D0E3F5"/>
<path d="M354.766 262.171L334 351.851L279.785 344.114L262.966 240.44L354.766 262.171Z" fill="#D0E3F5"/>
<path d="M269.997 228.412L262.966 240.44L276.821 255.123L294.743 265.48L320.179 273.476L340.997 269.409L354.766 262.171L347.097 253.038L331.691 244.145L313.751 233.788L298.345 224.896L282.525 220.467L269.997 228.412Z" fill="#BAD2E8"/>
<path d="M340.997 269.409L321.954 344.631L314.803 334.791L320.179 273.476L340.997 269.409Z" fill="#BED3EB"/>
<path d="M319.059 280.903L297.949 300.739L296.536 308.2L311.856 294.552L319.059 280.903Z" fill="#35D6F0"/>
<path d="M318.284 293.518L297.173 313.353L295.76 320.815L311.08 307.166L318.284 293.518Z" fill="#35D6F0"/>
<path d="M276.442 289.02L268.205 272.08L267.567 276.974L277.855 298.602L276.442 289.02Z" fill="#35D6F0"/>
<path d="M294.744 265.48L290.211 361.933L284.68 359.882L276.821 255.123L294.744 265.48Z" fill="#35D6F0"/>
<path d="M276.959 302.083L268.722 285.143L268.067 290.037L278.372 311.682L276.959 302.083Z" fill="#35D6F0"/>
<path d="M363.848 219.674C362.618 218.231 361.142 217.018 359.488 216.09L359.04 215.832L358.592 215.573L358.144 215.315L357.713 215.056L357.265 214.798L356.817 214.539L356.369 214.281L355.921 214.039C355.778 213.943 355.628 213.857 355.473 213.781L355.042 213.522L354.594 213.264L354.146 213.005L353.698 212.747L353.25 212.488L352.802 212.23L352.371 211.971L351.923 211.73L351.475 211.472L351.027 211.213L350.579 210.955L350.131 210.696L349.7 210.438L349.252 210.179L348.804 209.921L348.356 209.679C348.212 209.583 348.063 209.497 347.907 209.421L347.459 209.162L347.011 208.904L346.581 208.645L346.132 208.387L345.684 208.128L345.236 207.87L344.788 207.611L344.357 207.37L343.909 207.112L343.461 206.853L343.013 206.595L342.565 206.336L342.117 206.078L341.669 205.819L341.238 205.561L340.79 205.319L340.342 205.061L339.894 204.802L339.446 204.544L339.015 204.285L338.567 204.027L338.119 203.768L337.671 203.51L337.223 203.251L336.775 203.01C336.632 202.914 336.482 202.828 336.327 202.752L335.896 202.493L335.448 202.235L335 201.976L334.552 201.718L334.104 201.459L333.656 201.201L333.225 200.959L332.777 200.701L332.329 200.442L331.881 200.184L331.433 199.925L330.985 199.667L330.554 199.409L330.106 199.15L329.658 198.892L329.21 198.65C329.066 198.554 328.917 198.468 328.762 198.392L328.314 198.133L327.883 197.875L327.435 197.616L326.987 197.358L326.539 197.099L326.09 196.841L325.642 196.6C325.505 196.496 325.35 196.427 325.212 196.341L324.764 196.083L324.315 195.824L323.867 195.566L323.419 195.307L322.971 195.049L322.54 194.79L322.092 194.532L321.644 194.29L321.196 194.032L320.748 193.773L320.3 193.515L319.869 193.256L319.421 192.998L318.973 192.739L318.525 192.481L318.077 192.24C317.934 192.143 317.784 192.057 317.629 191.981L317.198 191.723L316.75 191.464L316.302 191.206L315.854 190.947L315.406 190.689L314.958 190.43C312.355 188.874 309.374 188.063 306.341 188.086C303.911 188.113 301.5 188.538 299.207 189.344L293.589 191.326C280.199 195.927 267.619 212.54 264.948 229.239L259.881 257.57C258.503 266.186 260.054 273.769 264.259 278.698C265.49 280.151 266.972 281.371 268.636 282.299L269.084 282.558L269.532 282.816L269.98 283.075L270.411 283.333L270.859 283.574L271.307 283.833L271.755 284.091L272.203 284.35L272.651 284.608L273.082 284.867L273.53 285.125L273.978 285.384L274.426 285.625L274.426 285.62C274.874 285.879 274.874 285.879 275.323 286.138L275.753 286.401L276.201 286.659L276.649 286.918L277.097 287.176L277.545 287.435L277.993 287.693L278.424 287.934L278.872 288.193L279.32 288.451L279.768 288.71L280.216 288.968L280.664 289.227L281.095 289.485L281.543 289.744L281.991 289.985L282.439 290.244L282.887 290.502L283.335 290.761L283.766 291.019L284.214 291.278L284.662 291.536L285.11 291.795L285.558 292.053L286.007 292.294C286.144 292.398 286.3 292.467 286.437 292.553L286.885 292.811L287.333 293.07L287.782 293.328L288.23 293.587L288.678 293.845L289.108 294.104L289.557 294.345L290.005 294.604L290.453 294.862L290.901 295.121L291.349 295.379L291.78 295.638L292.228 295.896L292.676 296.155L293.124 296.413L293.572 296.654C293.715 296.751 293.865 296.837 294.02 296.913L294.451 297.171L294.899 297.43L295.347 297.688L295.795 297.947L296.243 298.205L296.691 298.464L297.122 298.705L297.57 298.964L298.018 299.222L298.466 299.48L298.914 299.739L299.362 299.997L299.793 300.256L300.241 300.514L300.689 300.773L301.137 301.014C301.28 301.11 301.43 301.197 301.585 301.273L302.033 301.531L302.464 301.79L302.912 302.048L303.36 302.307L303.808 302.565L304.256 302.824L304.704 303.065C304.842 303.168 304.997 303.237 305.135 303.323L305.583 303.582L306.031 303.84L306.479 304.099L306.927 304.357L307.375 304.616L307.806 304.874L308.254 305.133L308.702 305.374L309.15 305.633L309.599 305.891L310.047 306.15L310.477 306.408L310.925 306.667L311.374 306.925L311.822 307.184L312.27 307.425C312.413 307.521 312.563 307.608 312.718 307.683L313.149 307.942C315.752 309.498 318.732 310.315 321.765 310.303C324.198 310.278 326.609 309.847 328.899 309.028L334.5 307.115C347.89 302.514 360.47 285.901 363.141 269.202L368.225 240.802C369.621 232.117 368.07 224.62 363.848 219.674Z" fill="#D3E4F7"/>
<path d="M321.799 310.234C319.414 310.267 317.051 309.772 314.88 308.786C312.708 307.8 310.781 306.347 309.236 304.53C305.014 299.601 303.463 292.105 304.842 283.402L309.925 255.088C312.596 238.476 325.159 221.863 338.549 217.262L344.15 215.332C346.444 214.528 348.854 214.103 351.285 214.074C353.668 214.038 356.03 214.529 358.202 215.512C360.374 216.495 362.301 217.946 363.847 219.761C368.069 224.707 369.62 232.203 368.242 240.888L363.175 269.237C360.504 285.849 347.924 302.462 334.534 307.149L328.933 309.062C326.637 309.846 324.226 310.242 321.799 310.234Z" fill="#BED7F0"/>
<path d="M336.016 303.461L330.415 305.374C319.024 309.286 311.666 300.721 313.975 286.246L319.042 257.966C321.351 243.49 332.432 228.67 343.823 224.689L349.423 222.759C360.797 218.847 368.156 227.412 365.846 241.888L360.797 270.167C358.488 284.643 347.39 299.549 336.016 303.461Z" fill="#AAC9E6"/>
<path d="M280.612 209.18C280.612 209.18 271.548 217.934 269.29 229.859C267.567 238.82 266.05 253.658 266.05 253.658L270.255 263.86L291.297 277.491L301.188 273.924C301.188 273.924 306.031 248.074 309.805 238.631C313.579 229.187 317.094 228.119 317.094 228.119L280.612 209.18Z" fill="#62C8D6"/>
<path d="M353.284 188.397L318.99 222.759C312.631 229.118 305.755 228.274 304.876 221.036L304.221 215.521C302.705 203.045 307.03 187.208 315.75 173.232L324.901 158.584C335.241 141.954 351.698 137.559 356.075 150.226L361.245 164.943C363.399 171.353 359.918 181.762 353.284 188.397Z" fill="#B7D2EB"/>
<path d="M260.812 198.909C260.812 198.909 271.548 220.364 307.599 226.395L342.565 188.483L350.992 144.159L304.911 117.466L278.837 166.924L260.812 198.909Z" fill="#EDEDED"/>
<path d="M275.649 137.68C275.649 137.68 290.556 162.289 327.469 165.735L304.152 205.681C304.152 205.681 278.303 197.685 258.812 176.54C258.812 176.54 256.658 162.719 275.649 137.68Z" fill="#35415C"/>
<path d="M353.284 188.397L318.99 222.759C312.631 229.118 305.755 228.274 304.876 221.036L304.221 215.521C302.705 203.045 307.03 187.208 315.75 173.232L324.901 158.584C335.241 141.954 351.698 137.559 356.075 150.226L361.245 164.943C363.399 171.353 359.918 181.762 353.284 188.397Z" fill="#B7D2EB"/>
<path d="M348.555 173.297C353.099 165.425 353.102 156.918 348.56 154.296C344.019 151.674 336.653 155.93 332.108 163.801C327.564 171.673 327.561 180.179 332.103 182.802C336.644 185.424 344.01 181.168 348.555 173.297Z" fill="#73D1DE"/>
<path d="M355.541 163.943C355.319 167.98 354.148 171.908 352.124 175.408C350.1 178.908 347.28 181.882 343.892 184.088C337.464 187.811 332.259 184.795 332.259 177.367C332.478 173.332 333.646 169.404 335.667 165.904C337.688 162.404 340.506 159.429 343.892 157.222C350.319 153.5 355.541 156.516 355.541 163.943Z" fill="#48BBCC"/>
<path d="M350.992 166.614C350.846 169.033 350.136 171.384 348.918 173.479C347.7 175.574 346.008 177.354 343.978 178.677C340.118 180.917 336.981 179.108 336.981 174.627C337.125 172.21 337.833 169.86 339.048 167.765C340.262 165.67 341.951 163.889 343.978 162.564C347.769 160.307 350.992 162.134 350.992 166.614Z" fill="#8CE1ED"/>
<path d="M297.156 251.952L274.34 238.062C273.859 237.727 273.485 237.262 273.259 236.722C273.033 236.182 272.965 235.589 273.064 235.012C273.079 234.779 273.156 234.554 273.287 234.361C273.418 234.167 273.598 234.013 273.809 233.913C274.02 233.812 274.254 233.77 274.487 233.791C274.719 233.812 274.942 233.894 275.132 234.03L297.966 247.919C298.443 248.253 298.816 248.715 299.042 249.252C299.267 249.788 299.337 250.378 299.241 250.952C299.231 251.19 299.157 251.42 299.026 251.618C298.895 251.817 298.713 251.976 298.499 252.078C298.285 252.181 298.046 252.224 297.81 252.201C297.573 252.179 297.347 252.093 297.156 251.952Z" fill="#049CB3"/>
<path d="M293.968 257.742L274.805 246.058C274.401 245.78 274.084 245.392 273.892 244.941C273.699 244.489 273.64 243.992 273.72 243.508C273.736 243.315 273.802 243.131 273.911 242.971C274.021 242.812 274.169 242.684 274.343 242.599C274.516 242.514 274.708 242.475 274.901 242.486C275.094 242.498 275.281 242.559 275.443 242.663L294.606 254.347C295.007 254.628 295.321 255.016 295.51 255.468C295.699 255.919 295.756 256.415 295.674 256.898C295.661 257.09 295.597 257.275 295.49 257.435C295.383 257.595 295.236 257.724 295.063 257.809C294.891 257.894 294.699 257.933 294.507 257.921C294.315 257.91 294.129 257.848 293.968 257.742Z" fill="#049CB3"/>
<path d="M290.78 263.515L275.27 254.072C274.948 253.842 274.696 253.526 274.544 253.161C274.392 252.795 274.345 252.394 274.409 252.004C274.416 251.843 274.467 251.687 274.555 251.553C274.643 251.419 274.766 251.311 274.911 251.24C275.055 251.17 275.216 251.139 275.376 251.152C275.537 251.165 275.691 251.221 275.822 251.314L291.331 260.775C291.66 261 291.917 261.314 292.073 261.681C292.229 262.047 292.277 262.451 292.21 262.843C292.202 263.005 292.15 263.162 292.059 263.297C291.969 263.431 291.843 263.539 291.696 263.608C291.55 263.677 291.387 263.705 291.225 263.688C291.064 263.672 290.91 263.612 290.78 263.515Z" fill="#049CB3"/>
<path d="M287.592 269.288L275.718 262.068C275.477 261.886 275.288 261.643 275.17 261.365C275.052 261.087 275.009 260.782 275.046 260.482C275.054 260.36 275.095 260.242 275.164 260.141C275.232 260.04 275.327 259.958 275.437 259.906C275.548 259.853 275.671 259.831 275.793 259.841C275.915 259.852 276.032 259.895 276.132 259.965L288.005 267.203C288.254 267.374 288.447 267.613 288.564 267.891C288.68 268.169 288.713 268.475 288.66 268.771C288.656 268.893 288.618 269.012 288.551 269.114C288.484 269.216 288.391 269.298 288.281 269.351C288.171 269.404 288.049 269.426 287.928 269.415C287.806 269.404 287.69 269.36 287.592 269.288Z" fill="#049CB3"/>
<path d="M343.582 298.067L331.812 301.462L342.238 247.075L354.008 243.68L343.582 298.067Z" fill="#2B3436"/>
<path d="M348.131 265.101L326.59 271.339L332.794 238.993C334.224 231.531 340.032 224.155 345.77 222.483C351.94 220.76 355.679 225.741 354.145 233.737L348.131 265.101Z" fill="#EDEDED"/>
<path d="M320.661 307.838L311.614 306.891L279.768 347.112L278.94 361.123L281.198 366.448C291.343 358.639 301.086 350.322 310.391 341.529C318.604 333.562 325.575 324.407 331.07 314.37L320.661 307.838Z" fill="#EDEDED"/>
<path d="M347.752 299.084L353.904 307.597L316.681 354.333L310.546 345.803L347.752 299.084Z" fill="#2B3436"/>
<path d="M338.67 294.862L344.823 303.392L307.599 350.128L301.464 341.598L338.67 294.862Z" fill="#4F6269"/>
<path d="M354.439 295.345C354.267 295.237 354.088 295.139 353.905 295.052C353.74 294.941 353.567 294.843 353.388 294.759C353.22 294.639 353.041 294.535 352.853 294.448C352.689 294.337 352.516 294.239 352.336 294.155C352.168 294.036 351.99 293.932 351.802 293.845C351.638 293.734 351.465 293.636 351.285 293.552C351.121 293.436 350.948 293.333 350.768 293.242C350.596 293.134 350.418 293.036 350.234 292.949C350.072 292.83 349.899 292.726 349.717 292.639C349.545 292.531 349.366 292.433 349.183 292.346C349.023 292.223 348.85 292.119 348.666 292.036L348.149 291.743C347.98 291.629 347.801 291.53 347.615 291.45C347.45 291.334 347.277 291.23 347.098 291.14C346.925 291.032 346.747 290.934 346.563 290.847C346.401 290.727 346.228 290.623 346.046 290.537C345.874 290.429 345.696 290.331 345.512 290.244C345.353 290.12 345.179 290.016 344.995 289.933L344.478 289.64C344.31 289.521 344.131 289.417 343.944 289.33L343.427 289.037C343.258 288.923 343.08 288.825 342.893 288.744C342.733 288.621 342.56 288.517 342.376 288.434C342.211 288.324 342.038 288.226 341.859 288.141C341.691 288.021 341.512 287.917 341.325 287.831C339.791 286.797 337.585 286.866 335.138 288.279C332.682 289.875 330.638 292.03 329.174 294.567C327.709 297.103 326.865 299.95 326.711 302.875C326.711 305.719 327.762 307.666 329.451 308.476C329.623 308.584 329.802 308.682 329.985 308.769C330.147 308.889 330.32 308.993 330.502 309.079C330.674 309.187 330.853 309.285 331.036 309.372C331.196 309.496 331.369 309.6 331.553 309.682L332.07 309.975C332.239 310.09 332.418 310.188 332.605 310.268C332.769 310.384 332.942 310.488 333.122 310.579C333.29 310.693 333.469 310.791 333.656 310.871C333.818 310.991 333.991 311.095 334.173 311.182C334.345 311.29 334.523 311.387 334.707 311.475C334.867 311.598 335.04 311.702 335.224 311.785L335.741 312.078C335.909 312.198 336.088 312.301 336.275 312.388L336.792 312.681C336.96 312.801 337.139 312.905 337.326 312.991C337.491 313.103 337.664 313.201 337.843 313.284C338.008 313.395 338.181 313.493 338.36 313.577C338.528 313.697 338.707 313.801 338.895 313.887L339.412 314.18C339.58 314.3 339.759 314.404 339.946 314.49L340.463 314.783C340.631 314.903 340.81 315.007 340.997 315.094C341.161 315.205 341.334 315.303 341.514 315.387L342.031 315.697C342.203 315.805 342.382 315.902 342.565 315.99C343.53 316.516 344.625 316.755 345.722 316.679C346.818 316.602 347.869 316.214 348.752 315.559C351.203 313.957 353.243 311.802 354.707 309.266C356.171 306.73 357.018 303.886 357.179 300.963C357.231 298.171 356.162 296.155 354.439 295.345Z" fill="#E0EFFF"/>
<path d="M357.23 300.962C357.069 303.886 356.222 306.73 354.758 309.266C353.294 311.802 351.254 313.957 348.803 315.559C344.15 318.247 340.376 316.059 340.376 310.682C340.535 307.758 341.38 304.912 342.844 302.376C344.308 299.84 346.35 297.685 348.803 296.086C353.456 293.397 357.23 295.586 357.23 300.962Z" fill="#BED7F0"/>
<path d="M337.412 289.554C340.514 287.831 343.22 288.141 344.685 290.175L353.146 246.144L341.376 249.591L332.897 293.742C334.115 292.065 335.649 290.643 337.412 289.554Z" fill="#4F6269"/>
<path d="M332.897 293.656L341.755 298.826L348.287 276.974L339.894 282.213L332.897 293.656Z" fill="#4F6269"/>
<path d="M346.27 294.724C349.372 293.001 352.078 293.311 353.543 295.345L361.987 251.297L350.217 254.744L341.755 298.877C342.972 297.209 344.506 295.797 346.27 294.724Z" fill="#2B3436"/>
<path d="M326.59 271.339L343.237 280.938L368.087 232.789L351.095 222.897L337.205 242.388L326.59 271.339Z" fill="#EDEDED"/>
<path d="M364.779 274.699L343.237 280.938L349.441 248.609C350.872 241.147 356.679 233.754 362.418 232.099C368.57 230.376 372.327 235.356 370.793 243.353L364.779 274.699Z" fill="#BED7F0"/>
<path d="M357.696 258.793C354.249 259.776 352.233 257.07 353.043 252.658L354.025 247.282C354.366 245.532 355.054 243.868 356.049 242.388C357.043 240.908 358.324 239.642 359.815 238.665C360.278 238.399 360.769 238.185 361.28 238.028C362.004 237.746 362.8 237.707 363.548 237.915C364.297 238.123 364.958 238.568 365.433 239.182C365.926 239.996 366.25 240.901 366.383 241.843C366.516 242.785 366.457 243.744 366.209 244.662L365.45 248.833C364.641 253.313 361.142 257.777 357.696 258.776V258.793Z" fill="#45CBDE"/>
<path d="M337.309 317.455L328.262 316.507L296.398 356.763L295.588 370.756L297.845 376.098C307.986 368.292 317.724 359.975 327.021 351.179C335.262 343.216 342.262 334.061 347.787 324.02L337.309 317.455Z" fill="#BED7F0"/>
<path d="M281.198 366.448L297.845 376.064L295.57 370.722L278.94 361.123L281.198 366.448Z" fill="#CCDDEB"/>
<path d="M279.75 347.112L296.397 356.729L295.57 370.722L278.94 361.123L279.75 347.112Z" fill="#D0E2F5"/>
<path d="M311.615 306.891L328.262 316.507L296.398 356.728L279.751 347.112L311.615 306.891Z" fill="#E0EFFF"/>
<path d="M320.662 307.838L337.309 317.454L328.261 316.507L311.614 306.891L320.662 307.838Z" fill="#B0CDED"/>
<path d="M296.174 366.034L293.089 364.294L287.144 368.757L290.504 371.635L296.174 366.034Z" fill="#4C585C"/>
<path d="M267.946 370.256L266.964 377.15L260.863 391.229L248.8 398.57L250.196 401.086L261.691 397.64L275.477 384.491L281.319 357.401L273.099 361.812C271.578 362.648 270.302 363.867 269.398 365.348C268.494 366.829 267.993 368.522 267.946 370.256Z" fill="#4C585C"/>
<path d="M260.863 391.229L266.964 377.132L260.863 391.229Z" fill="#384347"/>
<path d="M266.964 377.115L281.715 385.732L275.615 399.828L260.863 391.194L266.964 377.115Z" fill="#384347"/>
<path d="M274.581 373.479L265.309 380.527L261.742 387.713L263.138 391.729L272.53 382.888L278.63 383.991L272.53 398.088L260.519 405.429L261.914 407.945L273.409 404.516L287.247 391.384L293.089 364.294L274.581 373.479Z" fill="#4C585C"/>
<path d="M277.666 375.219L268.394 382.268L264.827 389.454L266.223 393.486L275.615 384.629L281.715 385.732L275.615 399.828L263.604 407.169L264.999 409.685L276.494 406.256L290.332 393.125L296.174 366.034L277.666 375.219Z" fill="#272F33"/>
<path d="M248.852 398.536L263.603 407.169L264.999 409.686L250.093 400.931L248.852 398.536Z" fill="#272F33"/>
<path d="M260.863 391.194L275.615 399.828L263.603 407.169L248.852 398.536L260.863 391.194Z" fill="#4C585C"/>
<path d="M265.309 380.527L268.394 382.268L264.827 389.454L261.742 387.713L265.309 380.527Z" fill="#3D4B4F"/>
<path d="M266.223 393.486L264.827 389.454L261.742 387.713L263.138 391.729L266.223 393.486Z" fill="#2B3538"/>
<path d="M281.422 357.401L272.427 362.226C272.875 362.364 273.323 362.536 273.771 362.708C273.997 362.75 274.213 362.836 274.406 362.962C274.599 363.087 274.766 363.249 274.896 363.439C275.026 363.628 275.118 363.842 275.166 364.067C275.214 364.292 275.217 364.524 275.175 364.75C275.133 364.977 275.047 365.193 274.922 365.386C274.797 365.579 274.635 365.745 274.445 365.876C274.255 366.006 274.042 366.098 273.817 366.146C273.592 366.194 273.359 366.197 273.133 366.155C273.174 366.513 273.102 366.874 272.926 367.189C272.815 367.389 272.661 367.563 272.477 367.7C272.293 367.837 272.082 367.933 271.858 367.982L277.924 373.565L296.174 366.069L281.422 357.401Z" fill="#4C585C"/>
<path d="M303.773 174.179L295.071 169.165C294.278 168.699 293.623 169.165 293.623 169.992C293.651 170.495 293.796 170.985 294.048 171.422C294.299 171.859 294.649 172.231 295.071 172.508L303.773 177.54C304.583 178.005 305.221 177.643 305.221 176.713C305.199 176.206 305.056 175.711 304.804 175.271C304.552 174.83 304.199 174.456 303.773 174.179ZM303.377 176.23L295.467 171.681C295.316 171.579 295.19 171.444 295.101 171.285C295.011 171.126 294.959 170.949 294.95 170.767C294.95 170.423 295.174 170.285 295.467 170.457L303.377 175.024C303.532 175.122 303.662 175.257 303.755 175.416C303.848 175.575 303.901 175.753 303.911 175.937C303.911 176.265 303.67 176.402 303.377 176.23Z" fill="#35D6F0"/>
<path d="M280.612 160.807L271.996 155.792C271.203 155.326 270.548 155.792 270.548 156.619C270.576 157.122 270.721 157.612 270.973 158.049C271.224 158.486 271.575 158.858 271.996 159.135L280.612 164.15C281.405 164.615 282.06 164.15 282.06 163.323C282.032 162.819 281.887 162.329 281.636 161.892C281.384 161.455 281.034 161.083 280.612 160.807ZM280.216 162.857L272.306 158.291C272.154 158.194 272.028 158.062 271.938 157.906C271.848 157.75 271.797 157.574 271.789 157.394C271.789 157.05 272.013 156.912 272.306 157.084L280.216 161.651C280.372 161.749 280.503 161.883 280.596 162.042C280.689 162.201 280.742 162.38 280.75 162.564C280.75 162.892 280.509 163.03 280.216 162.857Z" fill="#35D6F0"/>
<path d="M318.094 132.941C318.075 132.62 317.966 132.312 317.78 132.05C317.594 131.788 317.339 131.583 317.043 131.459L314.372 129.908C313.584 129.508 312.713 129.3 311.83 129.3C310.947 129.3 310.076 129.508 309.288 129.908L306.617 131.459C306.321 131.583 306.066 131.788 305.88 132.05C305.695 132.312 305.586 132.62 305.566 132.941V134.905C305.586 135.226 305.695 135.534 305.88 135.796C306.066 136.058 306.321 136.263 306.617 136.387L309.288 137.938C310.076 138.338 310.947 138.546 311.83 138.546C312.713 138.546 313.584 138.338 314.372 137.938L317.043 136.387C317.339 136.263 317.594 136.058 317.78 135.796C317.966 135.534 318.075 135.226 318.094 134.905V132.941Z" fill="#BDD9F5"/>
<path d="M317.043 134.457L314.372 136.008C313.582 136.399 312.712 136.602 311.83 136.602C310.949 136.602 310.079 136.399 309.288 136.008L306.617 134.457C306.313 134.351 306.05 134.154 305.863 133.891C305.676 133.629 305.576 133.315 305.576 132.992C305.576 132.67 305.676 132.356 305.863 132.094C306.05 131.831 306.313 131.634 306.617 131.528L309.288 129.977C310.076 129.577 310.947 129.369 311.83 129.369C312.714 129.369 313.585 129.577 314.372 129.977L317.043 131.528C317.347 131.634 317.611 131.831 317.798 132.094C317.984 132.356 318.085 132.67 318.085 132.992C318.085 133.315 317.984 133.629 317.798 133.891C317.611 134.154 317.347 134.351 317.043 134.457Z" fill="#D1E4F5"/>
<path d="M314.337 132.286C314.381 132.128 314.381 131.961 314.337 131.803C314.389 131.641 314.389 131.466 314.337 131.304C314.389 131.147 314.389 130.978 314.337 130.821C314.38 130.657 314.38 130.485 314.337 130.321C314.389 130.159 314.389 129.984 314.337 129.822C314.389 129.665 314.389 129.496 314.337 129.339C314.38 129.175 314.38 129.003 314.337 128.839C314.389 128.677 314.389 128.502 314.337 128.34C314.397 128.184 314.397 128.012 314.337 127.857C314.389 127.694 314.389 127.52 314.337 127.357C314.381 127.199 314.381 127.033 314.337 126.875C314.398 126.714 314.398 126.536 314.337 126.375C314.389 126.212 314.389 126.038 314.337 125.875C314.381 125.717 314.381 125.551 314.337 125.393C314.398 125.232 314.398 125.054 314.337 124.893C314.397 124.738 314.397 124.566 314.337 124.41C314.349 124.077 314.349 123.744 314.337 123.411C314.397 123.256 314.397 123.084 314.337 122.928C314.349 122.595 314.349 122.262 314.337 121.929C314.397 121.774 314.397 121.602 314.337 121.446C314.389 121.284 314.389 121.109 314.337 120.947C314.389 120.79 314.389 120.621 314.337 120.464C314.398 120.303 314.398 120.125 314.337 119.964C314.397 119.803 314.397 119.626 314.337 119.465C314.389 119.308 314.389 119.139 314.337 118.982C314.398 118.821 314.398 118.643 314.337 118.482C314.397 118.327 314.397 118.155 314.337 118C314.349 117.667 314.349 117.333 314.337 117C314.397 116.845 314.397 116.673 314.337 116.518C314.349 116.185 314.349 115.851 314.337 115.518C314.397 115.363 314.397 115.191 314.337 115.036C314.398 114.875 314.398 114.697 314.337 114.536C314.397 114.381 314.397 114.209 314.337 114.053C314.337 113.554 314.337 113.554 314.337 113.054C314.397 112.899 314.397 112.727 314.337 112.571C314.398 112.41 314.398 112.233 314.337 112.072C314.397 111.91 314.397 111.733 314.337 111.572C314.397 111.417 314.397 111.245 314.337 111.089C314.371 111.01 314.388 110.925 314.388 110.839C314.388 110.754 314.371 110.669 314.337 110.59C314.397 110.434 314.397 110.262 314.337 110.107C314.398 109.946 314.398 109.768 314.337 109.607C314.371 109.528 314.388 109.443 314.388 109.357C314.388 109.272 314.371 109.187 314.337 109.108C314.397 108.952 314.397 108.78 314.337 108.625C314.398 108.464 314.398 108.286 314.337 108.125C314.372 108.049 314.389 107.967 314.389 107.884C314.389 107.801 314.372 107.719 314.337 107.643C314.371 107.564 314.388 107.479 314.388 107.393C314.388 107.307 314.371 107.222 314.337 107.143C314.397 106.982 314.397 106.805 314.337 106.643C314.372 106.567 314.389 106.485 314.389 106.402C314.389 106.319 314.372 106.237 314.337 106.161C314.371 106.082 314.388 105.997 314.388 105.911C314.388 105.825 314.371 105.74 314.337 105.661C314.397 105.5 314.397 105.323 314.337 105.161C314.397 105.006 314.397 104.834 314.337 104.679C314.375 104.601 314.395 104.515 314.395 104.429C314.395 104.342 314.375 104.257 314.337 104.179C314.372 104.103 314.389 104.021 314.389 103.938C314.389 103.854 314.372 103.772 314.337 103.696C314.398 103.535 314.398 103.358 314.337 103.197C314.375 103.119 314.395 103.033 314.395 102.947C314.395 102.86 314.375 102.775 314.337 102.697C314.372 102.621 314.389 102.539 314.389 102.456C314.389 102.372 314.372 102.29 314.337 102.214C314.398 102.053 314.398 101.876 314.337 101.715C314.371 101.636 314.388 101.551 314.388 101.465C314.388 101.379 314.371 101.294 314.337 101.215C314.375 101.14 314.395 101.057 314.395 100.974C314.395 100.89 314.375 100.807 314.337 100.732C314.371 100.653 314.388 100.568 314.388 100.482C314.388 100.397 314.371 100.312 314.337 100.233C314.372 100.157 314.389 100.075 314.389 99.9913C314.389 99.9081 314.372 99.8259 314.337 99.7501C314.375 99.6723 314.395 99.5868 314.395 99.5002C314.395 99.4136 314.375 99.3281 314.337 99.2503C314.371 99.1713 314.388 99.0863 314.388 99.0004C314.388 98.9145 314.371 98.8296 314.337 98.7505C314.372 98.6747 314.389 98.5925 314.389 98.5093C314.389 98.4261 314.372 98.3438 314.337 98.268C314.375 98.1902 314.395 98.1048 314.395 98.0181C314.395 97.9315 314.375 97.8461 314.337 97.7683C314.375 97.6935 314.395 97.6108 314.395 97.527C314.395 97.4432 314.375 97.3605 314.337 97.2857C314.349 96.9527 314.349 96.6193 314.337 96.2862C314.375 96.2114 314.395 96.1288 314.395 96.045C314.395 95.9611 314.375 95.8785 314.337 95.8037C314.349 95.4706 314.349 95.1373 314.337 94.8042C314.375 94.7294 314.395 94.6468 314.395 94.5629C314.395 94.4791 314.375 94.3965 314.337 94.3217C314.375 94.2439 314.395 94.1584 314.395 94.0718C314.395 93.9852 314.375 93.8997 314.337 93.8219C314.38 93.7486 314.402 93.6653 314.402 93.5806C314.402 93.4959 314.38 93.4127 314.337 93.3394C314.337 92.8396 314.337 92.8396 314.337 92.3399C314.38 92.2665 314.402 92.1833 314.402 92.0986C314.402 92.0139 314.38 91.9307 314.337 91.8573C314.375 91.7795 314.395 91.6941 314.395 91.6075C314.395 91.5209 314.375 91.4354 314.337 91.3576C314.375 91.2828 314.395 91.2002 314.395 91.1163C314.395 91.0325 314.375 90.9499 314.337 90.8751C314.326 90.542 314.326 90.2086 314.337 89.8756C314.375 89.8008 314.395 89.7181 314.395 89.6343C314.395 89.5505 314.375 89.4678 314.337 89.393C314.38 89.3165 314.402 89.2306 314.402 89.1432C314.402 89.0558 314.38 88.9698 314.337 88.8933C314.383 88.8212 314.408 88.7375 314.408 88.652C314.408 88.5665 314.383 88.4828 314.337 88.4107C314.349 88.0777 314.349 87.7443 314.337 87.4112C314.383 87.3392 314.408 87.2555 314.408 87.17C314.408 87.0845 314.383 87.0008 314.337 86.9287C314.349 86.5956 314.349 86.2623 314.337 85.9292C314.383 85.8572 314.408 85.7734 314.408 85.6879C314.408 85.6024 314.383 85.5187 314.337 85.4467C314.383 85.3713 314.407 85.2849 314.407 85.1968C314.407 85.1087 314.383 85.0223 314.337 84.9469C314.383 84.8749 314.408 84.7912 314.408 84.7057C314.408 84.6202 314.383 84.5364 314.337 84.4644C314.338 83.9649 314.338 83.9649 314.338 83.4654C314.383 83.3928 314.408 83.3091 314.408 83.2236C314.408 83.1381 314.383 83.0544 314.337 82.9824C314.492 82.7239 314.337 82.4137 314.044 82.2069C313.759 82.0707 313.447 82 313.131 82C312.815 82 312.503 82.0707 312.218 82.2069C311.856 82.4137 311.752 82.7239 311.907 82.9824C311.861 83.0544 311.837 83.1381 311.837 83.2236C311.837 83.3091 311.861 83.3928 311.907 83.4649C311.919 83.798 311.919 84.1313 311.907 84.4644C311.861 84.5364 311.837 84.6202 311.837 84.7057C311.837 84.7912 311.861 84.8749 311.907 84.9469C311.865 85.0234 311.843 85.1094 311.843 85.1968C311.843 85.2842 311.865 85.3702 311.907 85.4467C311.865 85.52 311.843 85.6032 311.843 85.6879C311.843 85.7726 311.865 85.8558 311.907 85.9292C311.862 86.0046 311.838 86.091 311.838 86.1791C311.838 86.2672 311.862 86.3536 311.907 86.429C311.865 86.5055 311.843 86.5914 311.843 86.6788C311.843 86.7662 311.865 86.8522 311.907 86.9287C311.865 87.0021 311.843 87.0853 311.843 87.17C311.843 87.2547 311.865 87.3379 311.907 87.4112C311.907 87.9107 311.907 87.9107 311.907 88.4102C311.87 88.4855 311.85 88.5682 311.85 88.652C311.85 88.7358 311.87 88.8185 311.907 88.8933C311.865 88.9698 311.843 89.0558 311.843 89.1432C311.843 89.2306 311.865 89.3165 311.907 89.393C311.861 89.4651 311.837 89.5488 311.837 89.6343C311.837 89.7198 311.861 89.8035 311.907 89.8756C311.865 89.9521 311.843 90.038 311.843 90.1254C311.843 90.2128 311.865 90.2988 311.907 90.3753C311.869 90.4531 311.85 90.5386 311.85 90.6252C311.85 90.7118 311.869 90.7973 311.907 90.8751C311.865 90.9484 311.843 91.0316 311.843 91.1163C311.843 91.201 311.865 91.2842 311.907 91.3576C311.865 91.4341 311.843 91.5201 311.843 91.6075C311.843 91.6949 311.865 91.7808 311.907 91.8573C311.87 91.9321 311.85 92.0148 311.85 92.0986C311.85 92.1824 311.87 92.2651 311.907 92.3399C311.919 92.6729 311.919 93.0063 311.907 93.3394C311.87 93.4142 311.85 93.4968 311.85 93.5806C311.85 93.6645 311.87 93.7471 311.907 93.8219C311.869 93.8997 311.85 93.9852 311.85 94.0718C311.85 94.1584 311.869 94.2439 311.907 94.3217C311.87 94.3965 311.85 94.4791 311.85 94.5629C311.85 94.6468 311.87 94.7294 311.907 94.8042C311.869 94.882 311.85 94.9675 311.85 95.0541C311.85 95.1407 311.869 95.2261 311.907 95.3039C311.869 95.3817 311.85 95.4672 311.85 95.5538C311.85 95.6404 311.869 95.7259 311.907 95.8037C311.87 95.8785 311.85 95.9611 311.85 96.045C311.85 96.1288 311.87 96.2114 311.907 96.2862C311.907 96.7857 311.907 96.7857 311.907 97.2852C311.87 97.3605 311.85 97.4432 311.85 97.527C311.85 97.6108 311.87 97.6935 311.907 97.7683C311.874 97.8473 311.856 97.9323 311.856 98.0181C311.856 98.104 311.874 98.189 311.907 98.268C311.87 98.3428 311.85 98.4255 311.85 98.5093C311.85 98.5931 311.87 98.6758 311.907 98.7505C311.869 98.8283 311.85 98.9138 311.85 99.0004C311.85 99.087 311.869 99.1725 311.907 99.2503C311.874 99.3293 311.856 99.4143 311.856 99.5002C311.856 99.5861 311.874 99.6711 311.907 99.7501C311.87 99.8249 311.85 99.9075 311.85 99.9913C311.85 100.075 311.87 100.158 311.907 100.233C311.869 100.31 311.85 100.396 311.85 100.482C311.85 100.569 311.869 100.655 311.907 100.732C311.848 100.888 311.848 101.06 311.907 101.215C311.874 101.294 311.856 101.379 311.856 101.465C311.856 101.551 311.874 101.636 311.907 101.715C311.869 101.792 311.85 101.878 311.85 101.965C311.85 102.051 311.869 102.137 311.907 102.214C311.873 102.29 311.855 102.372 311.855 102.456C311.855 102.539 311.873 102.621 311.907 102.697C311.874 102.776 311.856 102.861 311.856 102.947C311.856 103.033 311.874 103.118 311.907 103.197C311.869 103.274 311.85 103.36 311.85 103.447C311.85 103.533 311.869 103.619 311.907 103.696C311.873 103.772 311.855 103.854 311.855 103.938C311.855 104.021 311.873 104.103 311.907 104.179C311.847 104.34 311.847 104.518 311.907 104.679C311.873 104.755 311.855 104.837 311.855 104.92C311.855 105.003 311.873 105.085 311.907 105.161C311.874 105.24 311.856 105.325 311.856 105.411C311.856 105.497 311.874 105.582 311.907 105.661C311.847 105.822 311.847 106 311.907 106.161C311.873 106.237 311.855 106.319 311.855 106.402C311.855 106.485 311.873 106.567 311.907 106.643C311.874 106.722 311.856 106.807 311.856 106.893C311.856 106.979 311.874 107.064 311.907 107.143C311.847 107.304 311.847 107.482 311.907 107.643C311.848 107.798 311.848 107.97 311.907 108.125C311.847 108.286 311.847 108.464 311.907 108.625C311.873 108.701 311.855 108.783 311.855 108.866C311.855 108.95 311.873 109.032 311.907 109.108C311.848 109.269 311.848 109.446 311.907 109.607C311.874 109.686 311.856 109.771 311.856 109.857C311.856 109.943 311.874 110.028 311.907 110.107C311.873 110.183 311.855 110.265 311.855 110.348C311.855 110.432 311.873 110.514 311.907 110.59C311.847 110.751 311.847 110.928 311.907 111.089C311.848 111.245 311.848 111.417 311.907 111.572C311.919 111.905 311.919 112.238 311.907 112.571C311.848 112.727 311.848 112.899 311.907 113.054C311.919 113.387 311.919 113.72 311.907 114.053C311.848 114.209 311.848 114.381 311.907 114.536C311.847 114.697 311.847 114.875 311.907 115.036C311.856 115.192 311.856 115.361 311.907 115.518C311.848 115.68 311.848 115.857 311.907 116.018C311.847 116.179 311.847 116.357 311.907 116.518C311.848 116.673 311.848 116.845 311.907 117C311.907 117.5 311.907 117.5 311.907 118C311.856 118.157 311.856 118.326 311.907 118.482C311.856 118.645 311.856 118.819 311.907 118.982C311.848 119.137 311.848 119.309 311.907 119.465C311.896 119.798 311.896 120.131 311.907 120.464C311.848 120.619 311.848 120.791 311.907 120.947C311.856 121.109 311.856 121.284 311.907 121.446C311.856 121.603 311.856 121.772 311.907 121.929C311.907 122.428 311.907 122.428 311.907 122.928C311.864 123.086 311.864 123.253 311.907 123.411C311.856 123.574 311.856 123.748 311.907 123.911C311.847 124.072 311.847 124.249 311.907 124.41C311.864 124.568 311.864 124.735 311.907 124.893C311.856 125.056 311.856 125.23 311.907 125.393C311.848 125.548 311.848 125.72 311.907 125.875C311.896 126.208 311.896 126.542 311.907 126.875C311.848 127.03 311.848 127.202 311.907 127.357C311.856 127.52 311.856 127.694 311.907 127.857C311.864 128.015 311.864 128.182 311.907 128.34C311.919 128.673 311.919 129.006 311.907 129.339C311.864 129.497 311.864 129.664 311.907 129.822C311.856 129.984 311.856 130.159 311.907 130.321C311.847 130.482 311.847 130.66 311.907 130.821C311.864 130.979 311.864 131.146 311.907 131.304C311.864 131.467 311.864 131.64 311.907 131.803C311.856 131.96 311.856 132.129 311.907 132.286C311.752 132.751 311.994 133.234 312.597 133.578C313.132 133.847 313.722 133.986 314.32 133.986C314.918 133.986 315.509 133.847 316.043 133.578C316.125 133.354 316.133 133.108 316.065 132.879C315.997 132.649 315.858 132.448 315.667 132.303C315.476 132.159 315.244 132.079 315.005 132.076C314.766 132.073 314.532 132.146 314.337 132.286Z" fill="#EBF5FF"/>
<path d="M303.17 420.99L306.583 419.043L295.588 392.918L303.17 420.99Z" fill="#B3CFFF"/>
<path d="M306.583 419.043L183.246 347.819V258.276L306.583 329.5V419.043Z" fill="#B3CFFF"/>
<path d="M303.17 420.99L179.816 349.766V260.224L303.17 331.448V420.99Z" fill="#E6F0FF"/>
<path d="M273.237 387.472L186.848 337.6V274.751L188.674 275.802V336.549L273.237 385.37V387.472Z" fill="#6986B3"/>
<path d="M188.605 337.927L186.899 336.221L198.704 305.512L205.959 324.882L217.884 293.363L224.915 318.161L238.271 315.18L253.884 324.193L259.692 334.239L267.963 330.862L272.875 365.586L281.888 371.566L284.093 382.199L282.336 381.751L280.475 372.738L271.341 366.672L266.723 334.119L259.588 337.031L253.143 325.864L238.84 317.592L224.071 320.901L217.953 299.36L206.304 330.155L199.031 310.768L188.605 337.927Z" fill="#5DC900"/>
<path d="M192.897 339.926L191.225 338.151L207.424 302.496L218.333 323.038L225.346 327.088L230.689 336.824L239.064 325.899L246.577 333.136L261.122 317.592L265.086 336.032L275.925 330.293L282.526 346.44L282.75 356.832L289.005 366.155L287.868 367.154L280.957 356.832L280.733 346.027L275.563 333.378L264.172 339.427L260.416 321.987L247.301 336.032L239.857 328.863L230.999 340.443L224.554 328.725L217.505 324.658L207.993 306.718L192.897 339.926Z" fill="#FF6A00"/>
<path d="M187.864 282.661L184.521 280.731L186.193 275.94L187.864 271.167L189.553 277.888L191.225 284.591L187.864 282.661Z" fill="#6986B3"/>
<path d="M268.532 383.267V379.39L273.512 384.198L278.475 389.006L273.512 388.075L268.532 387.145V383.267Z" fill="#6986B3"/>
<path d="M179.816 260.224L183.246 258.276L306.582 329.5L303.17 331.448L179.816 260.224Z" fill="white"/>
<path d="M495.146 472L497.783 470.518L489.959 456.163L495.146 472Z" fill="#B3CFFF"/>
<path d="M497.783 470.518L429.075 430.848V323.228L497.783 362.898V470.518Z" fill="#B3CFFF"/>
<path d="M495.146 472L426.438 432.33V324.71L495.146 364.38V472Z" fill="#E6F0FF"/>
<path d="M439.208 341.15L431.057 336.428C430.593 336.131 430.207 335.728 429.931 335.251C429.655 334.774 429.497 334.238 429.471 333.688C429.471 332.671 430.178 332.258 431.057 332.775L439.208 337.479C439.677 337.776 440.068 338.181 440.347 338.661C440.626 339.141 440.785 339.682 440.81 340.237C440.81 341.253 440.087 341.65 439.208 341.15Z" fill="#6986B3"/>
<path d="M457.13 351.748L447.376 346.113C446.912 345.816 446.526 345.412 446.25 344.936C445.974 344.459 445.817 343.923 445.791 343.373C445.791 342.356 446.497 341.943 447.376 342.46L457.13 348.078C457.596 348.376 457.984 348.782 458.26 349.262C458.536 349.742 458.692 350.282 458.715 350.835C458.715 351.852 458.009 352.248 457.13 351.748Z" fill="#6986B3"/>
<path d="M486.943 369.222L463.024 355.436C462.558 355.138 462.17 354.731 461.894 354.251C461.618 353.771 461.462 353.232 461.438 352.679C461.438 351.662 462.145 351.266 463.024 351.765L486.943 365.552C487.41 365.85 487.797 366.257 488.073 366.737C488.349 367.217 488.505 367.756 488.529 368.309C488.529 369.326 487.822 369.722 486.943 369.222Z" fill="#6986B3"/>
<path d="M434.348 349.456L430.712 347.371C430.246 347.072 429.858 346.666 429.582 346.186C429.306 345.706 429.15 345.167 429.126 344.614C429.126 343.597 429.833 343.183 430.712 343.7L434.348 345.786C434.808 346.091 435.19 346.499 435.465 346.978C435.74 347.456 435.901 347.992 435.934 348.543C435.934 349.56 435.21 349.956 434.348 349.456Z" fill="#6986B3"/>
<path d="M469.9 369.877L440.311 352.799C439.845 352.501 439.457 352.094 439.181 351.615C438.905 351.135 438.749 350.595 438.726 350.042C438.726 349.043 439.432 348.629 440.311 349.129L469.9 366.207C470.366 366.505 470.754 366.911 471.03 367.391C471.306 367.871 471.462 368.411 471.486 368.964C471.52 369.981 470.813 370.394 469.9 369.877Z" fill="#6986B3"/>
<path d="M441.827 409.944L432.418 404.498C431.954 404.202 431.568 403.798 431.292 403.321C431.016 402.844 430.859 402.308 430.833 401.758C430.833 400.742 431.539 400.328 432.418 400.845L441.827 406.273C442.293 406.572 442.681 406.978 442.957 407.458C443.233 407.938 443.389 408.477 443.413 409.031C443.413 410.03 442.706 410.444 441.827 409.944Z" fill="#6986B3"/>
<path d="M473.57 428.004L450.943 414.976C450.476 414.681 450.087 414.278 449.808 413.802C449.529 413.325 449.369 412.788 449.341 412.236C449.341 411.219 450.065 410.806 450.943 411.305L473.501 424.334C473.968 424.632 474.355 425.038 474.631 425.518C474.907 425.998 475.064 426.538 475.087 427.091C475.156 428.108 474.449 428.504 473.57 428.004Z" fill="#6986B3"/>
<path d="M453.718 426.109L431.625 413.339C431.162 413.042 430.775 412.638 430.5 412.162C430.224 411.685 430.066 411.149 430.04 410.599C430.04 409.582 430.747 409.168 431.625 409.668L453.718 422.438C454.182 422.741 454.568 423.148 454.847 423.626C455.125 424.105 455.287 424.642 455.321 425.195C455.321 426.195 454.597 426.608 453.718 426.109Z" fill="#6986B3"/>
<path d="M483.083 443.445L461.283 430.865C460.819 430.568 460.433 430.164 460.157 429.688C459.881 429.211 459.724 428.675 459.698 428.125C459.698 427.108 460.404 426.694 461.283 427.211L483.152 439.843C483.619 440.138 484.009 440.541 484.287 441.018C484.566 441.495 484.727 442.032 484.755 442.583C484.686 443.548 483.962 443.962 483.083 443.445Z" fill="#6986B3"/>
<path d="M436.571 397.519L431.729 394.727V357.9L436.571 360.692V397.519Z" fill="#00ADEE"/>
<path d="M446.394 403.189L441.551 400.397V379.459L446.394 382.251V403.189Z" fill="#F76A2E"/>
<path d="M456.216 408.876L451.374 406.084V395.778L456.216 398.57V408.876Z" fill="#E67A55"/>
<path d="M466.039 414.545L461.214 411.753V382.768L466.039 385.577V414.545Z" fill="#28B53A"/>
<path d="M475.88 420.215L471.037 417.423V395.778L475.88 398.57V420.215Z" fill="#00ADEE"/>
<path d="M485.702 425.885L480.859 423.093V414.718L485.702 417.509V425.885Z" fill="#F76A2E"/>
<path d="M426.438 324.71L429.075 323.228L497.783 362.898L495.146 364.38L426.438 324.71Z" fill="white"/>
<g style="mix-blend-mode:multiply">
<path d="M195.516 237.631L136.579 203.596V99.4744L195.516 133.51V237.631Z" fill="#47BFFF"/>
</g>
<g style="mix-blend-mode:screen">
<g style="mix-blend-mode:screen">
<path d="M144.523 115.329L139.319 112.313V106.316L144.523 109.314V115.329Z" fill="#26B3FF"/>
</g>
<g style="mix-blend-mode:screen">
<path d="M144.523 128.322L139.319 125.324V119.309L144.523 122.308V128.322Z" fill="#26B3FF"/>
</g>
<g style="mix-blend-mode:screen">
<path d="M144.523 141.316L139.319 138.318V132.303L144.523 135.302V141.316Z" fill="#26B3FF"/>
</g>
<g style="mix-blend-mode:screen">
<path d="M144.523 154.31L139.319 151.311V145.297L144.523 148.295V154.31Z" fill="#26B3FF"/>
</g>
<g style="mix-blend-mode:screen">
<path d="M144.523 167.303L139.319 164.305V158.291L144.523 161.306V167.303Z" fill="#26B3FF"/>
</g>
<g style="mix-blend-mode:screen">
<path d="M144.523 180.314L139.319 177.298V171.301L144.523 174.3V180.314Z" fill="#26B3FF"/>
</g>
<g style="mix-blend-mode:screen">
<path d="M144.523 193.308L139.319 190.292V184.295L144.523 187.294V193.308Z" fill="#26B3FF"/>
</g>
</g>
<g style="mix-blend-mode:screen">
<path d="M161.756 124.445L148.814 116.983C148.522 116.792 148.276 116.539 148.094 116.24C147.912 115.942 147.799 115.607 147.763 115.26C147.736 115.128 147.751 114.991 147.806 114.869C147.861 114.746 147.954 114.644 148.07 114.577C148.187 114.51 148.322 114.482 148.455 114.496C148.589 114.511 148.715 114.567 148.814 114.657L161.756 122.136C162.053 122.323 162.301 122.576 162.484 122.874C162.666 123.173 162.777 123.51 162.808 123.859C162.808 124.514 162.342 124.79 161.756 124.445Z" fill="#26B3FF"/>
</g>
<g style="mix-blend-mode:screen">
<path d="M153.691 133.165L147.642 129.718C147.35 129.528 147.106 129.275 146.926 128.976C146.747 128.677 146.639 128.342 146.608 127.995C146.608 127.323 147.074 127.064 147.642 127.392L153.691 130.838C153.983 131.028 154.228 131.282 154.407 131.581C154.586 131.879 154.695 132.215 154.725 132.562C154.725 133.234 154.26 133.492 153.691 133.165Z" fill="#26B3FF"/>
</g>
<g style="mix-blend-mode:screen">
<path d="M171.976 143.729L157.276 135.233C156.98 135.046 156.731 134.793 156.549 134.494C156.366 134.195 156.255 133.858 156.225 133.509C156.225 132.855 156.69 132.579 157.276 132.924L171.976 141.35C172.267 141.541 172.511 141.795 172.69 142.094C172.869 142.392 172.978 142.727 173.01 143.074C173.01 143.78 172.544 144.056 171.976 143.729Z" fill="#26B3FF"/>
</g>
<g style="mix-blend-mode:screen">
<path d="M157.207 148.123L147.246 142.367C146.954 142.177 146.709 141.924 146.53 141.625C146.351 141.326 146.242 140.991 146.212 140.644C146.212 139.972 146.677 139.696 147.246 140.041L157.207 145.779C157.498 145.97 157.742 146.224 157.921 146.523C158.1 146.821 158.209 147.156 158.241 147.503C158.241 148.244 157.775 148.45 157.207 148.123Z" fill="#26B3FF"/>
</g>
<g style="mix-blend-mode:screen">
<path d="M163.842 151.88L161.636 150.587C161.34 150.4 161.091 150.148 160.908 149.849C160.726 149.55 160.615 149.213 160.584 148.864C160.584 148.192 161.05 147.933 161.636 148.261L163.842 149.536C164.144 149.736 164.395 150.003 164.574 150.318C164.754 150.632 164.857 150.984 164.875 151.346C164.875 151.932 164.41 152.207 163.842 151.88Z" fill="#26B3FF"/>
</g>
<g style="mix-blend-mode:screen">
<path d="M179.454 160.669L169.115 154.654C168.823 154.464 168.579 154.209 168.4 153.911C168.221 153.613 168.112 153.278 168.081 152.931C168.081 152.276 168.546 152 169.115 152.328L179.454 158.342C179.745 158.533 179.99 158.787 180.169 159.085C180.348 159.384 180.457 159.719 180.488 160.065C180.488 160.72 180.023 160.996 179.454 160.669Z" fill="#26B3FF"/>
</g>
<g style="mix-blend-mode:screen">
<path d="M166.599 167.39L147.935 156.602C147.639 156.415 147.391 156.162 147.208 155.863C147.026 155.564 146.915 155.227 146.884 154.878C146.884 154.206 147.35 153.931 147.935 154.275L166.599 164.977C166.904 165.175 167.159 165.441 167.341 165.756C167.524 166.07 167.63 166.423 167.65 166.786C167.685 167.441 167.219 167.717 166.599 167.39Z" fill="#26B3FF"/>
</g>
<g style="mix-blend-mode:screen">
<path d="M175.215 172.37L170.2 169.492C169.91 169.3 169.667 169.046 169.488 168.748C169.309 168.449 169.199 168.115 169.167 167.769C169.167 167.114 169.632 166.838 170.2 167.166L175.215 169.94C175.506 170.131 175.751 170.385 175.93 170.683C176.109 170.982 176.218 171.317 176.249 171.663C176.266 172.37 175.801 172.68 175.215 172.37Z" fill="#26B3FF"/>
</g>
<g style="mix-blend-mode:screen">
<path d="M153.106 172.043L148.091 169.147C147.799 168.958 147.554 168.704 147.375 168.405C147.196 168.107 147.087 167.771 147.057 167.424C147.057 166.752 147.522 166.476 148.091 166.821L153.106 169.716C153.398 169.906 153.643 170.16 153.822 170.458C154.001 170.757 154.11 171.092 154.14 171.439C154.14 172.111 153.675 172.37 153.106 172.043Z" fill="#26B3FF"/>
</g>
<g style="mix-blend-mode:screen">
<path d="M165.6 179.263L157.466 174.559C157.175 174.368 156.93 174.114 156.751 173.815C156.572 173.517 156.463 173.182 156.432 172.835C156.432 172.18 156.897 171.905 157.466 172.249L165.6 176.937C165.902 177.136 166.153 177.404 166.332 177.718C166.512 178.032 166.615 178.385 166.634 178.746C166.599 179.263 166.168 179.591 165.6 179.263Z" fill="#26B3FF"/>
</g>
<g style="mix-blend-mode:screen">
<path d="M159.706 189.103L147.798 182.21C147.507 182.018 147.264 181.764 147.085 181.466C146.906 181.168 146.796 180.833 146.764 180.487C146.764 179.832 147.229 179.556 147.798 179.884L159.706 186.777C159.997 186.967 160.241 187.222 160.42 187.52C160.599 187.818 160.708 188.153 160.74 188.5C160.774 189.155 160.309 189.431 159.706 189.103Z" fill="#26B3FF"/>
</g>
<g style="mix-blend-mode:screen">
<path d="M184.849 203.389L163.583 191.102C163.287 190.915 163.039 190.662 162.856 190.364C162.674 190.065 162.563 189.728 162.532 189.379C162.532 188.707 162.998 188.448 163.583 188.776L184.849 201.063C185.145 201.25 185.394 201.503 185.576 201.802C185.759 202.1 185.869 202.437 185.9 202.786C185.9 203.51 185.435 203.768 184.849 203.389Z" fill="#26B3FF"/>
</g>
<g style="mix-blend-mode:screen">
<path d="M169.236 207.801L147.97 195.514C147.674 195.327 147.425 195.074 147.243 194.775C147.061 194.476 146.95 194.139 146.919 193.791C146.919 193.118 147.384 192.86 147.97 193.187L169.236 205.475C169.532 205.661 169.781 205.914 169.963 206.213C170.145 206.512 170.256 206.849 170.287 207.198C170.287 207.87 169.822 208.128 169.236 207.801Z" fill="#26B3FF"/>
</g>
<g style="mix-blend-mode:screen">
<path d="M175.56 132.493L166.048 127.013C165.746 126.812 165.496 126.544 165.317 126.23C165.137 125.916 165.033 125.564 165.014 125.203C165.014 124.548 165.479 124.273 166.048 124.6L175.56 130.08C175.861 130.281 176.112 130.549 176.291 130.863C176.471 131.177 176.574 131.528 176.594 131.89C176.594 132.562 176.129 132.82 175.56 132.493Z" fill="#26B3FF"/>
</g>
<path d="M380.357 426.143L330.381 397.295V329.862L380.357 358.71V426.143Z" fill="#A4CCE3"/>
<path d="M377.41 427.884L380.357 426.143L369.121 407.979L377.41 427.884Z" fill="#A4CCE3"/>
<path d="M377.41 427.884L327.451 399.035V331.62L377.41 360.468V427.884Z" fill="#E6F0FF"/>
<path d="M364.301 398.067C370.862 394.279 370.865 382.001 364.307 370.643C357.75 359.285 347.115 353.148 340.554 356.936C333.993 360.724 333.99 373.003 340.548 384.361C347.105 395.719 357.74 401.855 364.301 398.067Z" fill="#FB4B00"/>
<path d="M350.878 373.431C351.255 374.423 350.03 375.242 349.258 374.514L327.034 353.585C326.479 353.063 326.689 352.136 327.416 351.904L340.146 347.848C340.652 347.687 341.196 347.949 341.384 348.446L350.878 373.431Z" fill="#5EC3F2"/>
<path d="M352.155 374.534C352.241 375.489 353.491 375.787 353.999 374.975L362.905 360.746C363.197 360.278 363.056 359.662 362.589 359.368L351.788 352.581C351.087 352.141 350.186 352.693 350.26 353.518L352.155 374.534Z" fill="#5DCC00"/>
<path d="M352.867 374.758C352.717 375.683 351.492 375.911 351.018 375.104L331.298 341.522C330.826 340.719 331.613 339.764 332.492 340.073L356.319 348.438C356.776 348.598 357.052 349.064 356.975 349.542L352.867 374.758Z" fill="#FCCF3A"/>
<path d="M345.77 396.985L333.225 389.73V387.886L345.77 395.124V396.985Z" fill="#5A6469"/>
<path d="M340.549 398.139L333.328 393.969V392.108L340.549 396.278V398.139Z" fill="#5A6469"/>
<path d="M361.814 410.409L342.858 399.466V397.622L361.814 408.565V410.409Z" fill="#5A6469"/>
<path d="M354.8 402.31L347.873 398.312V396.451L354.8 400.449V402.31Z" fill="#5A6469"/>
<path d="M327.451 331.62L330.381 329.862L380.356 358.71L377.41 360.468L327.451 331.62Z" fill="white"/>
<defs>
<linearGradient id="paint0_linear" x1="496.554" y1="26.0752" x2="-103.327" y2="523.353" gradientUnits="userSpaceOnUse">
<stop stop-color="#D9F2FF"/>
<stop offset="1" stop-color="white"/>
</linearGradient>
<linearGradient id="paint1_linear" x1="405.345" y1="265.911" x2="405.345" y2="181.658" gradientUnits="userSpaceOnUse">
<stop/>
<stop offset="1" stop-color="#1A8AE8"/>
</linearGradient>
<linearGradient id="paint2_linear" x1="399.348" y1="261.964" x2="399.348" y2="155.964" gradientUnits="userSpaceOnUse">
<stop stop-color="#015FC4"/>
<stop offset="1" stop-color="#1D98FF"/>
</linearGradient>
<linearGradient id="paint3_linear" x1="411.359" y1="261.964" x2="411.359" y2="155.964" gradientUnits="userSpaceOnUse">
<stop stop-color="#015FC4"/>
<stop offset="1" stop-color="#005FC4"/>
</linearGradient>
<linearGradient id="paint4_linear" x1="8330.67" y1="2425.93" x2="8330.67" y2="1747.56" gradientUnits="userSpaceOnUse">
<stop/>
<stop offset="1" stop-color="#1A8AE8"/>
</linearGradient>
<linearGradient id="paint5_linear" x1="4331.96" y1="19732.1" x2="4331.96" y2="13551" gradientUnits="userSpaceOnUse">
<stop/>
<stop offset="1" stop-color="#1D98FF"/>
</linearGradient>
<linearGradient id="paint6_linear" x1="4427.81" y1="19732.1" x2="4427.81" y2="13551" gradientUnits="userSpaceOnUse">
<stop/>
<stop offset="1" stop-color="#005FC4"/>
</linearGradient>
<linearGradient id="paint7_linear" x1="8672.55" y1="2521.69" x2="8672.55" y2="1843.32" gradientUnits="userSpaceOnUse">
<stop/>
<stop offset="1" stop-color="#1A8AE8"/>
</linearGradient>
<linearGradient id="paint8_linear" x1="4514.81" y1="14535.4" x2="4514.81" y2="11574.6" gradientUnits="userSpaceOnUse">
<stop stop-color="#FFFBFB"/>
<stop offset="1" stop-color="#1D98FF"/>
</linearGradient>
<linearGradient id="paint9_linear" x1="4610.66" y1="14535.4" x2="4610.66" y2="11574.6" gradientUnits="userSpaceOnUse">
<stop/>
<stop offset="1" stop-color="#005FC4"/>
</linearGradient>
</defs>
</svg>
