<?xml version="1.0" encoding="utf-8"?>
<!-- Generator: Adobe Illustrator 24.3.0, SVG Export Plug-In . SVG Version: 6.00 Build 0)  -->
<svg version="1.1" id="Layer_1" xmlns="http://www.w3.org/2000/svg" xmlns:xlink="http://www.w3.org/1999/xlink" x="0px" y="0px"
	 viewBox="0 0 554 580" style="enable-background:new 0 0 554 580;" xml:space="preserve">
<style type="text/css">
	.st0{clip-path:url(#SVGID_2_);}
	.st1{fill:#FFC700;}
	.st2{fill:url(#SVGID_3_);}
	.st3{opacity:0.4;fill:#D3DAED;enable-background:new    ;}
	.st4{fill:#C4C4C4;filter:url(#Adobe_OpacityMaskFilter);}
	.st5{mask:url(#mask0_1_);}
	.st6{fill:none;}
	.st7{opacity:0.7;}
	.st8{fill:#FFFFFF;}
	.st9{opacity:0.5;}
	.st10{fill:#00ADEE;}
	.st11{fill:#02225E;}
	.st12{fill:none;stroke:#ECF7FD;}
	.st13{fill:#062E3D;}
</style>
<g>
	<defs>
		<rect id="SVGID_1_" width="554" height="580"/>
	</defs>
	<clipPath id="SVGID_2_">
		<use xlink:href="#SVGID_1_"  style="overflow:visible;"/>
	</clipPath>
	<g class="st0">
		<circle class="st1" cx="172.3" cy="504" r="75"/>
		
			<linearGradient id="SVGID_3_" gradientUnits="userSpaceOnUse" x1="197.8754" y1="681.3859" x2="344.7024" y2="72.4827" gradientTransform="matrix(1 0 0 -1 0 582)">
			<stop  offset="0" style="stop-color:#FFFFFF"/>
			<stop  offset="0.7654" style="stop-color:#D9EFFB"/>
		</linearGradient>
		<path class="st2" d="M76.7,122.5c-212.9,155.7,66.4,352.4,228.7,427.2c29,10.8,79.9,12.1,129.1-11.9c21-10.3,49.8-39.4,70.7-84.7
			C542.4,359,576,204,520,72.4C456.6-76.5,188,44.7,76.7,122.5z"/>
		<path class="st3" d="M546.1,327.6c-0.1,0.1-0.2,0.2-0.3,0.2c-0.1,0-0.1,0-0.2,0l-22.5-13c-0.7,0.2-1.6,0.2-2.4,0l-22.1,12.8
			c0.7,0.5,0.7,1.2,0.1,1.7l22,12.7c0.2,0.1,0.2,0.3,0.1,0.4c-0.1,0.1-0.2,0.2-0.3,0.2c-0.1,0-0.1,0-0.2,0l-22.3-12.9
			c-0.9,0.4-2.1,0.4-3,0l-22.9,13.2c0.4,0.5,0.3,1.1-0.3,1.5l22.6,13.1c0.2,0.1,0.2,0.3,0.1,0.4c-0.1,0.1-0.2,0.2-0.3,0.2
			c-0.1,0-0.1,0-0.2,0l-23-13.3c-0.7,0.3-1.6,0.3-2.4,0.1l-21.5,12.4c0.1,0,0.2,0.1,0.3,0.2c0.9,0.5,1,1.4,0.2,2l21.9,12.6
			c0.2,0.1,0.2,0.3,0.1,0.4c-0.1,0.1-0.2,0.2-0.3,0.2c-0.1,0-0.1,0-0.2,0L447,359.7c-1,0.3-2.3,0.3-3.2-0.2
			c-0.1-0.1-0.2-0.1-0.3-0.2L421.5,372c0.1,0,0.2,0.1,0.2,0.1c0.9,0.5,1,1.3,0.3,1.9l22.2,12.8c0.2,0.1,0.2,0.3,0.1,0.4
			c-0.1,0.1-0.2,0.2-0.3,0.2c0,0-0.1,0-0.2,0l-22.6-13c-1,0.4-2.4,0.3-3.3-0.2c-0.1,0-0.1-0.1-0.2-0.1l-22.6,13
			c0.2,0.1,0.3,0.1,0.4,0.2c0.9,0.5,1,1.3,0.4,1.8l22.3,12.8c0.2,0.1,0.2,0.3,0.1,0.4c-0.1,0.1-0.2,0.2-0.3,0.2c-0.1,0-0.1,0-0.2,0
			l-22.6-13c-1,0.5-2.5,0.4-3.4-0.1c-0.1-0.1-0.3-0.2-0.3-0.3l-22.4,13c0,0,0,0,0.1,0c0.8,0.5,1,1.2,0.5,1.7l22.9,13.2
			c0.2,0.1,0.2,0.3,0.1,0.4c-0.1,0.1-0.2,0.2-0.3,0.2c-0.1,0-0.1,0-0.2,0l-23.1-13.3c-1,0.5-2.6,0.5-3.6,0c0,0,0,0-0.1,0L343.5,417
			c0.1,0,0.1,0.1,0.2,0.1c0.7,0.4,0.9,1.1,0.6,1.6l23.1,13.3c0.2,0.1,0.2,0.3,0.1,0.4c-0.1,0.1-0.2,0.2-0.3,0.2c0,0-0.1,0-0.2,0
			l-23.3-13.4c0,0-0.1,0-0.1,0.1c-1,0.6-2.6,0.6-3.6,0c-0.1,0-0.1-0.1-0.2-0.1l-21.5,12.4c0.4,0.5,0.4,1-0.1,1.5l23.9,13.8
			c0.2,0.1,0.2,0.3,0.1,0.4c-0.1,0.1-0.2,0.2-0.3,0.2c-0.1,0-0.1,0-0.2,0l-24.2-13.9c-0.8,0.3-1.9,0.4-2.8,0.1l-22.4,12.9
			c0,0-0.1,0-0.2,0c-0.1,0-0.2-0.1-0.3-0.2c-0.1-0.2,0-0.3,0.1-0.4l22-12.7c-0.8-0.5-0.8-1.3-0.1-1.9l-22.2-12.8
			c-0.6,0.2-1.3,0.3-2,0.2l-22.5,13c0,0-0.1,0-0.2,0c-0.1,0-0.2-0.1-0.3-0.2c-0.1-0.2,0-0.3,0.1-0.4l21.9-12.7
			c-0.1,0-0.3-0.1-0.4-0.2c-0.9-0.5-1-1.3-0.3-1.9l-21.1-12.2c-0.8,0.3-1.7,0.3-2.5,0l-23,13.3c0,0-0.1,0-0.2,0
			c-0.1,0-0.2-0.1-0.3-0.2c-0.1-0.2,0-0.3,0.1-0.4l22.6-13.1c-0.8-0.5-0.9-1.2-0.3-1.7l-22.7-13.1c-0.7,0.3-1.6,0.3-2.4,0.2
			l-22.7,13.1c0,0-0.1,0-0.2,0c-0.1,0-0.2-0.1-0.3-0.2c-0.1-0.2,0-0.3,0.1-0.4l22.2-12.8c0,0-0.1,0-0.1,0c-0.9-0.5-1-1.3-0.3-1.9
			l-22-12.7c-0.9,0.3-2,0.4-2.9,0L190,387.4c0,0-0.1,0-0.2,0c-0.1,0-0.2-0.1-0.3-0.2c-0.1-0.2,0-0.3,0.1-0.4l22.1-12.7
			c-0.7-0.5-0.7-1.2,0-1.7l-22.5-13c-0.8,0.4-1.9,0.4-2.8,0.2l-22.4,12.9c0,0-0.1,0-0.2,0c-0.1,0-0.2-0.1-0.3-0.2
			c-0.1-0.2,0-0.3,0.1-0.4l22-12.7c-0.9-0.5-1-1.4-0.1-2l-21.9-12.6c-0.8,0.4-1.9,0.4-2.9,0.1l-22.2,12.8c0,0-0.1,0-0.2,0
			c-0.1,0-0.2-0.1-0.3-0.2c-0.1-0.2,0-0.3,0.1-0.4l21.8-12.6c-0.8-0.5-0.8-1.3-0.1-1.9l-22.3-12.8c-0.6,0.2-1.3,0.3-1.9,0.2
			l-23,13.3c0,0-0.1,0-0.2,0c-0.1,0-0.2-0.1-0.3-0.2c-0.1-0.2,0-0.3,0.1-0.4l22.4-13c-0.1,0-0.2-0.1-0.3-0.2c-0.8-0.5-1-1.2-0.4-1.8
			l-22.1-12.7c-0.8,0.3-1.8,0.3-2.6,0l-23,13.3c0,0-0.1,0-0.2,0c-0.1,0-0.2-0.1-0.3-0.2c-0.1-0.2,0-0.3,0.1-0.4l22.7-13.1
			c-0.6-0.5-0.7-1.1-0.2-1.7l-22.2-12.8c-0.8,0.4-1.9,0.4-2.8,0.1l-22.7,13.1c0,0-0.1,0-0.2,0c-0.1,0-0.2-0.1-0.3-0.2
			c-0.1-0.2,0-0.3,0.1-0.4L82.8,300c-0.8-0.5-0.8-1.3-0.1-1.9l-22.2-12.8c-0.8,0.5-2.1,0.5-3,0.2l-22.3,12.9c0,0-0.1,0-0.2,0
			c-0.1,0-0.2-0.1-0.3-0.2c-0.1-0.2,0-0.3,0.1-0.4l22-12.7c-0.9-0.6-0.8-1.5,0.1-2l-25.4-14.6c-0.2-0.1-0.2-0.3-0.1-0.4
			c0.1-0.2,0.3-0.2,0.4-0.1L57.7,283c0.9-0.3,2-0.2,2.8,0.2l21.6-12.5c-0.3-0.5-0.1-1.1,0.6-1.5c0,0,0.1,0,0.1-0.1l-25.8-14.8
			c-0.2-0.1-0.2-0.3-0.1-0.4c0.1-0.2,0.3-0.2,0.4-0.1l26.3,15.1c0.5-0.1,1.1-0.1,1.7,0l22.6-13c-0.4-0.5-0.2-1.2,0.6-1.6
			c0.1-0.1,0.2-0.1,0.3-0.2l-25.2-14.6c-0.2-0.1-0.2-0.3-0.1-0.4c0.1-0.2,0.3-0.2,0.4-0.1l25.8,14.9c0.5-0.1,1.1,0,1.5,0.1
			l22.9-13.2c-0.1-0.5,0.1-0.9,0.7-1.3c0,0,0,0,0.1,0l-25.2-14.5c-0.2-0.1-0.2-0.3-0.1-0.4c0.1-0.2,0.3-0.2,0.4-0.1l25.6,14.8
			c0.4-0.1,0.9-0.1,1.4-0.1l23.1-13.3c-0.2-0.5-0.1-1,0.5-1.4L136,210.2c-0.2-0.1-0.2-0.3-0.1-0.4c0.1-0.2,0.3-0.2,0.4-0.1l25,14.4
			c0.6-0.2,1.3-0.2,2-0.1l22.5-13c-0.2-0.4,0-0.9,0.5-1.3l-24.8-14.3c-0.2-0.1-0.2-0.3-0.1-0.4c0.1-0.2,0.3-0.2,0.4-0.1l25.2,14.5
			c0.6-0.2,1.3-0.3,1.9-0.2l21.7-12.5c-1-0.6-1-1.5,0-2.1c0.1,0,0.2-0.1,0.3-0.1L187,180.7c-0.2-0.1-0.2-0.3-0.1-0.4
			c0.1-0.2,0.3-0.2,0.4-0.1l24.4,14.1c0.8-0.1,1.8,0,2.5,0.4l22.8-13.4c-0.6-0.6-0.5-1.3,0.4-1.8c0,0,0,0,0,0l-24.3-14
			c-0.2-0.1-0.2-0.3-0.1-0.4c0.1-0.2,0.3-0.2,0.4-0.1l24.7,14.2c0.8-0.2,1.6-0.2,2.3,0.1l22.1-12.7c-0.9-0.6-0.8-1.4,0-2L239,150.8
			c-0.2-0.1-0.2-0.3-0.1-0.4c0.1-0.2,0.3-0.2,0.4-0.1l24,13.9c0.9-0.3,2.1-0.2,2.9,0.2l16.9-9.8c0.2-0.1,0.3,0,0.4,0.1
			c0.1,0.2,0,0.3-0.1,0.4l-16.7,9.6c0.4,0.4,0.4,1,0,1.4l22.3,12.8c1-0.4,2.4-0.3,3.3,0.2c0.1,0,0.1,0.1,0.2,0.1l17.2-9.9
			c0.2-0.1,0.3,0,0.4,0.1c0.1,0.2,0,0.3-0.1,0.4l-17,9.8c0.3,0.4,0.2,0.9-0.3,1.3l22.2,12.8c0.9-0.5,2.3-0.5,3.3-0.1l17.3-10
			c0.2-0.1,0.3,0,0.4,0.1c0.1,0.2,0,0.3-0.1,0.4l-17,9.8c0.6,0.6,0.5,1.3-0.3,1.8l21.9,12.7c1-0.5,2.6-0.5,3.6,0
			c0.1,0.1,0.2,0.1,0.3,0.2l17.7-10.2c0.2-0.1,0.3,0,0.4,0.1c0.1,0.2,0,0.3-0.1,0.4l-17.6,10.2c0.2,0.5,0,1-0.6,1.3l22.2,12.8
			c1-0.4,2.4-0.4,3.3,0.1l18.2-10.5c0.2-0.1,0.3,0,0.4,0.1c0.1,0.2,0,0.3-0.1,0.4l-18,10.4c0.4,0.5,0.4,1.1-0.2,1.6l21.9,12.7
			c1-0.4,2.4-0.4,3.3,0.2c0,0,0,0,0,0l18.6-10.8c0.2-0.1,0.3,0,0.4,0.1c0.1,0.2,0,0.3-0.1,0.4l-18.5,10.7c0.3,0.5,0.2,1-0.3,1.5
			l22.5,13c1-0.5,2.4-0.5,3.4,0l18.9-10.9c0.2-0.1,0.3,0,0.4,0.1c0.1,0.2,0,0.3-0.1,0.4l-18.6,10.7c0.5,0.5,0.4,1.2-0.3,1.7
			l21.9,12.7c1-0.5,2.6-0.5,3.5,0.1c0,0,0.1,0,0.1,0.1l19.3-11.1c0.2-0.1,0.3,0,0.4,0.1c0.1,0.2,0,0.3-0.1,0.4l-19.1,11
			c0.3,0.5,0.2,1.1-0.5,1.5l22.6,13.1c0,0,0,0,0.1,0c1-0.6,2.6-0.6,3.6,0l19.5-11.2c0.2-0.1,0.3,0,0.4,0.1c0.1,0.2,0,0.3-0.1,0.4
			l-19.2,11.1c0.5,0.6,0.3,1.3-0.5,1.7c0,0,0,0-0.1,0l21,12.1c1-0.6,2.6-0.6,3.6,0c0.2,0.1,0.3,0.2,0.4,0.3l20-11.5
			c0.2-0.1,0.3,0,0.4,0.1c0.1,0.2,0,0.3-0.1,0.4l-20,11.5c0.1,0.4-0.1,0.9-0.7,1.3l22.2,12.8c1-0.5,2.5-0.5,3.5,0l20.4-11.8
			c0.2-0.1,0.3,0,0.4,0.1c0.1,0.2,0,0.3-0.1,0.4l-20.1,11.6c0.5,0.5,0.3,1.2-0.4,1.6l22.1,12.7C546.1,327.2,546.2,327.4,546.1,327.6
			z M471.6,342.4l22.8-13.2c-0.6-0.5-0.5-1.2,0.1-1.6l-22.2-12.8c-0.7,0.3-1.5,0.3-2.3,0.1l-23.4,13.5c0.1,0.4-0.1,0.8-0.6,1.1
			l22.2,12.8C469.2,341.8,470.7,341.9,471.6,342.4z M340.2,417.1L318,404.4c-0.9,0.5-2.3,0.5-3.3,0.1L292.9,417
			c0.2,0.4,0,0.8-0.4,1.2l22.3,12.8c1-0.3,2.2-0.3,3.1,0.1l21.6-12.5C339.2,418.2,339.4,417.6,340.2,417.1
			C340.1,417.2,340.2,417.1,340.2,417.1z M61.1,284.9l22.3,12.9c1-0.3,2.2-0.3,3.1,0.1l21.6-12.5c-0.3-0.5-0.1-1.1,0.5-1.5
			l-22.2-12.8c0,0-0.1,0-0.1,0.1c-1,0.6-2.6,0.6-3.6,0c-0.1,0-0.1-0.1-0.2-0.1L61,283.5C61.4,283.9,61.4,284.5,61.1,284.9z
			 M214.8,195.8l22.5,13c1-0.2,2.1-0.2,2.9,0.3c0.1,0,0.1,0.1,0.2,0.1l22.8-13.1c-0.8-0.5-0.8-1.3,0-1.9L241,181.4c0,0,0,0,0,0
			c-0.9,0.5-2.4,0.6-3.4,0.1l-22.9,13.2C214.9,195.1,215,195.5,214.8,195.8z M263.3,166.7l-22.1,12.8c0.6,0.4,0.7,1,0.4,1.5
			l22.4,12.9c0.9-0.3,2.1-0.3,2.9,0.1l22.1-12.7c-0.1,0-0.1-0.1-0.2-0.1c-0.9-0.5-1-1.3-0.3-1.9l-22.2-12.8
			C265.4,167,264.2,167,263.3,166.7z M469.3,283.7l-22.9-13.2c-0.6,0.2-1.4,0.2-2.1,0.1l-22.2,12.8c0.5,0.5,0.5,1.1-0.1,1.6
			l22.7,13.1c0.9-0.4,2.1-0.5,3.1-0.1l22-12.7C469.1,284.8,468.9,284.2,469.3,283.7z M468.7,312.7l-21.1-12.2
			c-0.9,0.3-2,0.2-2.8-0.1l-22.9,13.2c0.4,0.5,0.2,1.1-0.4,1.6l21,12.2c1-0.5,2.5-0.5,3.5,0.1c0.2,0.1,0.3,0.2,0.4,0.3l22.9-13.2
			c0,0-0.1,0-0.1-0.1C468.2,314.1,468.1,313.3,468.7,312.7z M292.4,387.6l22.5-13c-0.3-0.5-0.2-1,0.3-1.5l-22.7-13.1
			c-1,0.5-2.4,0.5-3.4,0L267,372.9c0.8,0.5,0.9,1.1,0.5,1.7l22.9,13.1C291,387.5,291.8,387.5,292.4,387.6z M138.7,300.5l22.1,12.7
			c0.8-0.3,1.9-0.3,2.8,0l22.3-12.9c-0.7-0.5-0.7-1.3,0.1-1.8l-22-12.6c-1,0.5-2.5,0.5-3.5-0.1c-0.1,0-0.1-0.1-0.2-0.1l-22.2,12.8
			c0.1,0,0.2,0.1,0.3,0.2C139.2,299.2,139.4,299.9,138.7,300.5z M240.7,210.8l22.3,12.9c1-0.3,2.2-0.3,3.1,0.1l22.9-13.2
			c-0.4-0.5-0.4-1,0.1-1.5l-22.2-12.8c-0.8,0.4-2,0.4-2.9,0.1l-23.1,13.3C241,210.1,241,210.5,240.7,210.8z M444.1,298.5l-22.7-13.1
			c-0.8,0.3-2,0.3-2.8,0l-23,13.3c0.2,0.4,0.1,0.9-0.3,1.3l22.7,13.1c1-0.5,2.6-0.5,3.5,0.1c0,0,0,0,0,0l22.8-13.2
			C443.7,299.6,443.6,299,444.1,298.5z M314.8,344.6c-0.2-0.5-0.1-1,0.4-1.3l-22-12.7c-1,0.4-2.4,0.4-3.4-0.1
			c-0.2-0.1-0.3-0.2-0.4-0.3l-22.5,13c0.1,0,0.1,0.1,0.2,0.1c0.8,0.5,1,1.2,0.5,1.7l22.1,12.8c0.8-0.2,1.7-0.2,2.4,0L314.8,344.6z
			 M190.1,300.2l22.4,12.9c0.6-0.2,1.3-0.2,1.9,0l22.9-13.2c-0.1-0.4,0.1-0.8,0.6-1.2l-22.3-12.8c-1,0.4-2.3,0.3-3.2-0.2L190,298.6
			C190.6,299.1,190.6,299.7,190.1,300.2z M289.6,241.1l-21.7,12.6c0.9,0.6,0.8,1.5-0.1,2l22.3,12.8c0.6-0.3,1.4-0.4,2.2-0.3
			l21.7-12.5c-1-0.6-1-1.5-0.1-2l-22.2-12.8C291,241.1,290.3,241.2,289.6,241.1z M365.4,283.6l-22.5-13c-0.7,0.4-1.7,0.5-2.6,0.3
			l-21.6,12.5c0.1,0,0.1,0.1,0.2,0.1c0.9,0.5,1,1.3,0.3,1.9l22.5,13c0.6-0.3,1.4-0.4,2.2-0.3l21.7-12.5
			C364.7,284.9,364.6,284.1,365.4,283.6z M291.9,327.9l23.2-13.4c-0.2-0.4-0.1-0.8,0.3-1.2l-22.5-13c-1,0.4-2.4,0.4-3.4-0.1
			c0,0-0.1,0-0.1-0.1l-22.5,13c0.1,0,0.2,0.1,0.3,0.2c0.8,0.5,1,1.2,0.5,1.8l22.6,13C290.8,328,291.4,327.9,291.9,327.9z
			 M242.1,300.4l22.1,12.7c0.6-0.2,1.2-0.2,1.8-0.1l22.9-13.2c-0.3-0.5-0.2-1,0.3-1.4l-22-12.6c-1,0.4-2.4,0.4-3.3-0.2
			c-0.1,0-0.2-0.1-0.2-0.1l-22.6,13c0.2,0.1,0.3,0.1,0.5,0.2C242.5,299.1,242.7,299.8,242.1,300.4z M267.4,283.3
			c0.1,0,0.2,0.1,0.2,0.1c0.9,0.5,1,1.3,0.3,1.9l22,12.7c0.7-0.3,1.6-0.3,2.3-0.2l22.4-12.9c-0.2-0.4-0.1-0.9,0.3-1.3L293,271
			c-1,0.4-2.3,0.3-3.2-0.2c-0.1-0.1-0.2-0.1-0.3-0.2L267.4,283.3z M318.3,312.8l22.6-13c-0.1-0.3,0-0.7,0.3-1l-22.6-13
			c-1,0.4-2.4,0.3-3.3-0.2c-0.1,0-0.1-0.1-0.2-0.1l-22,12.7c0,0,0.1,0,0.1,0.1c0.9,0.5,1,1.3,0.3,1.9l22.5,13
			C316.7,312.7,317.5,312.6,318.3,312.8z M339.3,268.5l-21.9-12.7c-0.8,0.4-1.9,0.5-2.8,0.2l-21.5,12.4c0.1,0,0.2,0.1,0.3,0.2
			c0.9,0.5,1,1.4,0.2,1.9l22,12.6c0.7-0.3,1.5-0.3,2.3-0.2l21.6-12.5c0,0-0.1,0-0.1-0.1C338.4,270,338.4,269.1,339.3,268.5z
			 M242.2,268.5c0.8,0.6,0.7,1.4-0.1,1.9l22.3,12.8c0.6-0.3,1.5-0.3,2.2-0.2l22.5-13c-0.2-0.4,0-0.8,0.3-1.1L267,256
			c-0.9,0.2-2,0.2-2.8-0.2L242.2,268.5z M216.1,283.6c0.9,0.5,1,1.3,0.2,1.9l22.3,12.9c0.5-0.2,1.1-0.2,1.7-0.2l23.1-13.3
			c-0.2-0.4-0.1-0.9,0.4-1.3l-22.4-12.9c-0.9,0.3-2,0.2-2.8-0.2L216.1,283.6z M215.9,315.1l22.2,12.8c0.6-0.2,1.4-0.1,2,0l22.8-13.1
			c-0.2-0.5,0-1,0.6-1.3l-21.9-12.6c-1,0.5-2.5,0.5-3.5-0.1c-0.2-0.1-0.3-0.2-0.4-0.3l-22.4,13c0,0,0.1,0,0.1,0
			C216.1,313.9,216.3,314.5,215.9,315.1z M241.4,329.8l22.7,13.1c0.6-0.2,1.3-0.2,2-0.1l23-13.3c-0.1-0.4,0.1-0.7,0.5-1l-22.5-13
			c-1,0.5-2.6,0.5-3.5-0.1c-0.1-0.1-0.2-0.1-0.3-0.2l-22.4,12.9C241.6,328.6,241.8,329.3,241.4,329.8z M318,342.7l22.8-13.2
			c-0.3-0.5-0.3-1,0.2-1.4l-22-12.7c-1,0.4-2.3,0.3-3.2-0.2c-0.1-0.1-0.2-0.1-0.3-0.2l-22.6,13c0.2,0.1,0.4,0.2,0.6,0.2
			c0.9,0.5,1,1.3,0.3,1.9l22,12.7C316.5,342.6,317.3,342.6,318,342.7z M344.3,327.6l22.3-12.8c-0.3-0.4-0.2-0.9,0.2-1.3l-22.1-12.7
			c-1,0.3-2.3,0.2-3.1-0.2c-0.1-0.1-0.2-0.2-0.3-0.2L319.1,313c0.1,0,0.2,0.1,0.3,0.2c0.9,0.5,1,1.4,0.2,2l22,12.7
			C342.4,327.4,343.4,327.4,344.3,327.6z M369.9,312.8l21.6-12.5c-0.1,0-0.2-0.1-0.2-0.1c-0.9-0.5-1-1.3-0.3-1.9l-22-12.7
			c-0.8,0.3-1.8,0.4-2.6,0.1l-21.5,12.4c0.1,0,0.3,0.1,0.4,0.2c1,0.5,1,1.4,0.2,2l22,12.6C368,312.7,369,312.6,369.9,312.8z
			 M417.8,283.3l-22-12.7c-0.9,0.4-2.2,0.3-3.1-0.1l-22.9,13.2c0.4,0.5,0.3,1-0.2,1.5l21.9,12.7c1-0.4,2.4-0.3,3.3,0.2
			c0.1,0,0.1,0.1,0.2,0.1l22.8-13.2C417.1,284.6,417.1,283.9,417.8,283.3z M392.2,268.6l-22.5-13c-0.9,0.4-2.1,0.5-3.1,0.1l-23,13.3
			c0.3,0.4,0.2,0.8-0.1,1.2l22.5,13c1-0.4,2.3-0.3,3.2,0.2l22.9-13.2C391.6,269.7,391.6,269,392.2,268.6z M366,253.5l-21.9-12.6
			c-0.9,0.4-2.3,0.4-3.2,0L318,254.1c0.3,0.4,0.3,0.9-0.1,1.3l22,12.7c1-0.3,2.2-0.2,3,0.3c0,0,0.1,0,0.1,0.1l22.8-13.2
			C365.3,254.8,365.3,254,366,253.5z M340.5,238.8l-22.3-12.8c-0.7,0.3-1.6,0.3-2.4,0.1l-23.3,13.4c0.1,0.4,0,0.7-0.4,1.1l22.3,12.9
			c1-0.3,2.2-0.2,3,0.3l22.8-13.2C339.8,240,339.8,239.3,340.5,238.8z M314.7,223.9l-22-12.7c-1,0.3-2.2,0.3-3.1-0.2l-22.9,13.2
			c0.5,0.5,0.4,1.1-0.1,1.5l22,12.7c1-0.4,2.4-0.3,3.2,0.2c0.2,0.1,0.3,0.2,0.4,0.3l22.8-13.2c0,0,0,0,0,0
			C314.2,225.2,314,224.4,314.7,223.9z M241.7,238.7c0.2,0.1,0.3,0.1,0.5,0.2c1,0.6,1,1.5,0,2.1l21.9,12.6c0.8-0.5,2.1-0.5,3-0.2
			l21.5-12.4c-0.2-0.1-0.3-0.1-0.5-0.2c-0.9-0.5-1-1.3-0.3-1.9l-22-12.7c-0.8,0.3-1.9,0.4-2.8,0.1L241.7,238.7z M216,253.4
			c0.1,0,0.2,0.1,0.3,0.2c1,0.6,1,1.5,0.1,2l22,12.6c0.9-0.4,2.1-0.5,3.1-0.2l22.1-12.8c-0.4-0.4-0.4-0.9-0.1-1.3l-22.2-12.8
			c-1,0.3-2.1,0.2-2.9-0.3c-0.2-0.1-0.3-0.2-0.4-0.3L216,253.4z M189.9,268.6c0.2,0.1,0.4,0.2,0.6,0.3c0.9,0.5,1,1.4,0.2,1.9
			l22,12.7c0.8-0.3,1.8-0.4,2.6-0.2l22.7-13.1c-0.5-0.5-0.5-1-0.1-1.5L215.8,256c-1,0.3-2.2,0.2-3-0.3c-0.1-0.1-0.2-0.1-0.3-0.2
			L189.9,268.6z M163.9,283.6c0.1,0,0.1,0.1,0.2,0.1c0.8,0.5,1,1.2,0.4,1.8l22.1,12.7c0.9-0.3,2-0.3,2.8,0.1l22.5-13
			c-0.4-0.5-0.3-1,0.2-1.5l-22-12.7c-1,0.4-2.4,0.3-3.2-0.2c-0.2-0.1-0.3-0.2-0.4-0.3L163.9,283.6z M164.3,315.2l22.4,12.9
			c0.6-0.2,1.2-0.2,1.8-0.1l22.6-13c-0.3-0.5-0.2-1.2,0.6-1.6c0,0,0,0,0,0l-22.2-12.8c-0.9,0.4-2.1,0.5-3.1,0.1l-22.3,12.9
			C164.8,314.1,164.9,314.7,164.3,315.2z M190.1,330.1l22.2,12.8c0.6-0.1,1.3-0.2,1.9,0l22.5-13c-0.4-0.5-0.3-1.2,0.5-1.7
			c0,0,0.1,0,0.1,0l-21.9-12.6c0,0,0,0,0,0c-1,0.6-2.6,0.6-3.6,0c0,0-0.1,0-0.1-0.1l-22.2,12.8c0.1,0,0.2,0.1,0.2,0.1
			C190.4,328.9,190.6,329.6,190.1,330.1z M215.7,344.8l22.7,13.1c0.5-0.2,1.1-0.2,1.7-0.1l22.7-13.1c-0.3-0.5-0.1-1.1,0.6-1.5
			l-22.5-13c0,0,0,0-0.1,0c-1,0.6-2.6,0.6-3.6,0l-22.2,12.8c0,0,0.1,0,0.1,0.1C215.9,343.6,216.1,344.3,215.7,344.8z M241.9,359.9
			l22.2,12.8c0.7-0.2,1.5-0.2,2.2,0l22.4-12.9c-0.5-0.5-0.4-1.3,0.4-1.7l-21.9-12.6c-1,0.5-2.6,0.5-3.6,0c-0.1,0-0.1-0.1-0.2-0.1
			L241,358c0.1,0,0.2,0.1,0.3,0.2C242.2,358.6,242.3,359.3,241.9,359.9z M318.4,372.6l22.8-13.2c-0.1-0.3,0-0.7,0.3-1l-22.7-13.1
			c-1,0.4-2.4,0.4-3.4-0.1c-0.1,0-0.1-0.1-0.2-0.1L292.8,358c0.7,0.5,0.8,1.1,0.3,1.6l22.8,13.1
			C316.7,372.5,317.6,372.5,318.4,372.6z M344.2,357.7l23-13.3c-0.2-0.4-0.2-0.8,0.2-1.1l-22.8-13.1c-1,0.4-2.4,0.3-3.2-0.2
			l-22.5,13c0.1,0,0.2,0.1,0.2,0.1c0.9,0.5,1,1.3,0.3,1.9l22.7,13.1C342.7,357.7,343.5,357.6,344.2,357.7z M370.5,342.6l22.5-13
			c-0.2-0.3-0.1-0.7,0.1-1l-22.8-13.1c-1,0.3-2.3,0.3-3.1-0.2c0,0-0.1,0-0.1-0.1l-22,12.7c0.9,0.5,1,1.4,0.2,2l22.7,13.1
			C368.6,342.5,369.6,342.4,370.5,342.6z M396,327.8l21.6-12.5c0,0,0,0,0,0c-0.8-0.5-1-1.2-0.5-1.7l-22.7-13.1
			c-0.7,0.3-1.5,0.3-2.2,0.2l-21.6,12.5c0,0,0.1,0,0.1,0c1,0.5,1,1.4,0.2,2l22.7,13C394.2,327.8,395.2,327.7,396,327.8z
			 M442.9,268.5l-22.1-12.7c-0.8,0.2-1.7,0.2-2.4,0l-22.1,12.8c0.7,0.5,0.7,1.2,0.1,1.8l22,12.7c0.9-0.4,2.2-0.3,3.1,0.1l22-12.7
			c0,0-0.1,0-0.1-0.1C442.6,269.8,442.4,269,442.9,268.5z M417.4,253.7l-22.6-13c-0.7,0.3-1.6,0.3-2.4,0.1l-22.2,12.8
			c0.5,0.5,0.6,1.1,0.1,1.6l22.6,13c0.8-0.3,1.9-0.3,2.8,0l22.1-12.7C417,254.9,416.8,254.3,417.4,253.7z M391.2,238.6l-22-12.7
			c-0.8,0.3-1.8,0.3-2.6,0.1l-22.1,12.8c0.6,0.5,0.7,1.1,0.2,1.7l22,12.7c0.9-0.3,2-0.3,2.8,0.1l22-12.7c0,0,0,0,0,0
			C390.7,240,390.5,239.2,391.2,238.6z M365.7,223.9L343.3,211c-0.5,0.2-1.1,0.2-1.7,0.1l-22.4,12.9c0.4,0.5,0.3,1.1-0.3,1.5
			l22.3,12.9c0.8-0.3,1.9-0.3,2.7,0l22.1-12.7C365.1,225.2,365.1,224.4,365.7,223.9z M339.9,209l-22.1-12.8
			c-0.8,0.2-1.8,0.2-2.5-0.1l-22.1,12.7c0.8,0.5,0.9,1.3,0.1,1.9l22,12.7c1-0.5,2.5-0.4,3.4,0.1c0,0,0,0,0,0l22-12.7
			c-0.1,0-0.3-0.1-0.4-0.2C339.6,210.3,339.4,209.6,339.9,209z M314.3,194.3L292,181.4c-0.7,0.3-1.5,0.3-2.3,0.2l-22.3,12.8
			c0.5,0.5,0.5,1,0,1.5l22.2,12.8c0.8-0.3,1.9-0.4,2.8-0.1l22.1-12.8C313.9,195.4,313.8,194.8,314.3,194.3z M237.6,211.6L216,224.1
			c0,0,0.1,0,0.2,0.1c0.9,0.5,1,1.4,0.2,1.9l22.2,12.8c0.6-0.3,1.4-0.5,2.2-0.4l21.7-12.6c-0.8-0.5-0.8-1.3-0.1-1.9l-22.2-12.8
			C239.5,211.6,238.5,211.8,237.6,211.6z M190.3,238.8C190.3,238.9,190.4,238.9,190.3,238.8c1,0.6,1.1,1.4,0.4,2l22.2,12.8
			c0.6-0.3,1.5-0.5,2.3-0.3l22.6-13.1c-0.1-0.3,0-0.6,0.2-0.9l-22.3-12.9c-1,0.3-2.3,0.3-3.2-0.2c0,0-0.1-0.1-0.2-0.1L190.3,238.8z
			 M164.1,253.9c0.1,0,0.2,0.1,0.3,0.2c0.8,0.5,1,1.2,0.4,1.8l22.2,12.8c0.5-0.2,1.2-0.3,1.8-0.3l23.2-13.4c-0.1-0.3-0.1-0.7,0.2-1
			L190,241.1c-1,0.4-2.4,0.3-3.3-0.2c0,0-0.1,0-0.1-0.1L164.1,253.9z M138.1,268.9C138.1,268.9,138.1,268.9,138.1,268.9
			c0.8,0.4,1,1.1,0.6,1.6l22.4,12.9c0.6-0.2,1.4-0.2,2.1-0.1l23-13.3c-0.1-0.3,0.1-0.7,0.4-1l-22.2-12.8c-1,0.5-2.5,0.5-3.5-0.1
			c-0.1-0.1-0.2-0.1-0.3-0.2L138.1,268.9z M112.2,283.8c0.1,0,0.1,0.1,0.2,0.1c0.8,0.5,1,1.2,0.5,1.7l22.3,12.8
			c0.6-0.2,1.4-0.3,2.1-0.2l22.7-13.1c-0.3-0.5-0.1-1,0.5-1.4L138.2,271c0,0,0,0-0.1,0c-1,0.6-2.6,0.6-3.6,0c0,0,0,0,0,0
			L112.2,283.8z M87,299.8l22.2,12.8c0.9-0.4,2.3-0.5,3.2,0l21.7-12.5c-0.2-0.4,0-0.9,0.4-1.3L112.3,286c-1,0.5-2.6,0.5-3.6,0
			c-0.1,0-0.1-0.1-0.2-0.1L87,298.3C87.5,298.7,87.5,299.3,87,299.8z M112.8,314.7l22,12.7c1-0.5,2.5-0.4,3.4,0.1
			c0.1,0.1,0.2,0.1,0.3,0.2l21.5-12.4c-0.6-0.5-0.5-1.2,0.1-1.7l-22-12.6c-1,0.4-2.4,0.4-3.4-0.1c-0.1-0.1-0.2-0.1-0.3-0.2L113,313
			C113.6,313.5,113.5,314.2,112.8,314.7z M138.4,329.4l22.3,12.8c0.9-0.3,2.2-0.3,3,0.1l21.6-12.5c-0.3-0.5-0.1-1.1,0.6-1.5
			l-22.3-12.8c-0.9,0.4-2.2,0.4-3.1,0l-21.7,12.5C139.1,328.6,138.9,329.1,138.4,329.4z M164.2,344.3l22,12.7c1-0.3,2.2-0.3,3.1,0.2
			l21.6-12.4c-0.3-0.5-0.2-1.1,0.6-1.6c0,0,0,0,0.1,0l-21.9-12.6c-1,0.6-2.6,0.6-3.6,0c-0.1,0-0.1-0.1-0.2-0.1l-21.5,12.4
			C164.8,343.3,164.7,343.9,164.2,344.3z M189.8,359l22.6,13c0.9-0.4,2.1-0.3,3,0l21.7-12.5c-0.2-0.5,0-1,0.6-1.4l-22.5-12.9
			c0,0,0,0-0.1,0c-1,0.6-2.6,0.6-3.6,0c0,0-0.1,0-0.1-0.1l-21.5,12.4C190.3,358.1,190.2,358.6,189.8,359z M215.9,374.1l22,12.7
			c1-0.4,2.4-0.3,3.3,0.2c0,0,0.1,0,0.1,0.1l21.5-12.4c-0.4-0.5-0.3-1.2,0.5-1.7l-22-12.6c-1,0.6-2.6,0.5-3.6,0
			c-0.1-0.1-0.2-0.1-0.3-0.2L216,372.5C216.5,373,216.5,373.6,215.9,374.1z M241.5,388.8l22.7,13.1c1-0.5,2.4-0.5,3.4,0l21.6-12.5
			c-0.3-0.5-0.1-1,0.5-1.4L267,375c-1,0.6-2.6,0.6-3.6,0l-21.6,12.4C242.1,387.9,242,388.4,241.5,388.8z M267.9,404l21.1,12.1
			c1-0.4,2.4-0.4,3.3,0.2c0.1,0.1,0.2,0.2,0.3,0.2l21.5-12.4c-0.6-0.6-0.6-1.3,0.3-1.9l-21.1-12.1c-1,0.5-2.5,0.5-3.5-0.1
			c-0.1,0-0.1-0.1-0.2-0.1l-21.5,12.4C268.6,402.9,268.5,403.5,267.9,404z M339.9,389.2c-0.7-0.5-0.7-1.3,0.1-1.9l-21.1-12.1
			c-1,0.4-2.4,0.4-3.4-0.1c0,0,0,0,0,0l-22.2,12.8c0.1,0,0.1,0.1,0.2,0.1c0.8,0.5,1,1.2,0.4,1.8l21.2,12.2c0.8-0.2,1.8-0.2,2.5,0.1
			L339.9,389.2z M366,374.1c-0.4-0.5-0.4-1.1,0.2-1.5L345,360.5c-1,0.3-2.3,0.3-3.1-0.2c-0.1-0.1-0.2-0.2-0.3-0.2l-22.4,12.9
			c0,0,0,0,0,0c0.9,0.5,1,1.3,0.3,1.9l21.1,12.2c0.9-0.3,2-0.3,2.9,0.1L366,374.1z M392.1,359.1c-0.6-0.5-0.6-1.1-0.1-1.6
			l-21.2-12.2c-1,0.3-2.2,0.2-3-0.3c-0.1,0-0.1-0.1-0.2-0.1l-22.5,13c0.2,0.1,0.3,0.1,0.4,0.2c0.9,0.5,1,1.4,0.2,2l21.1,12.1
			c0.8-0.3,1.8-0.3,2.7-0.1L392.1,359.1z M417.8,344.3c-0.5-0.5-0.5-1-0.1-1.5l-21.2-12.2c-1,0.2-2.1,0.2-2.9-0.3
			c-0.1-0.1-0.2-0.1-0.3-0.2l-22,12.7c0.1,0,0.1,0.1,0.2,0.1c1,0.6,1,1.5,0.1,2.1l21.1,12.1c0.9-0.4,2.1-0.4,3-0.1L417.8,344.3z
			 M442.8,329.8c-0.2-0.1-0.4-0.2-0.6-0.3c-0.8-0.5-1-1.2-0.4-1.8l-21.1-12.2c-0.7,0.2-1.5,0.2-2.2,0L396.9,328
			c0.1,0,0.2,0.1,0.3,0.2c1,0.6,1,1.5,0,2.1l21,12.1c0.8-0.4,2.1-0.5,3-0.2L442.8,329.8z M498,327.2l22-12.7
			c-0.8-0.5-0.9-1.2-0.4-1.7l-22.4-12.9c-0.5,0.1-1,0.2-1.5,0.1l-22.5,13c0.3,0.5,0.2,1-0.4,1.4l22.2,12.8
			C496,326.9,497.1,326.9,498,327.2z M472.6,285.6c-0.7,0.2-1.5,0.1-2.1,0l-22.1,12.8c0.7,0.6,0.7,1.3-0.1,1.9l21.1,12.1
			c1-0.5,2.5-0.4,3.4,0.1c0,0,0.1,0,0.1,0.1l22.1-12.7c-0.2-0.1-0.3-0.1-0.5-0.2c-0.8-0.5-1-1.1-0.5-1.7L472.6,285.6z M189.7,209.2
			c0.1,0,0.2,0.1,0.4,0.2c0.8,0.5,1,1.2,0.4,1.8l22.2,12.8c0.7-0.3,1.6-0.4,2.4-0.2l21.6-12.4c-0.1,0-0.1-0.1-0.2-0.1
			c-1-0.6-1-1.5,0-2.1l-22.2-12.8c-0.1,0.1-0.2,0.1-0.2,0.2c-0.8,0.5-2,0.5-2.9,0.3L189.7,209.2z M164.1,224c0.1,0,0.2,0.1,0.2,0.1
			c0.8,0.5,1,1.2,0.4,1.8l22.3,12.8c0.7-0.3,1.6-0.3,2.4-0.2l22.4-12.9c-0.3-0.4-0.2-0.9,0.2-1.3l-22.2-12.8c-1,0.5-2.5,0.4-3.4-0.1
			c-0.1-0.1-0.2-0.1-0.3-0.2L164.1,224z M137.9,239.1c0.2,0.1,0.3,0.1,0.5,0.2c0.8,0.4,0.9,1.1,0.6,1.6l22.4,12.9
			c0.6-0.2,1.2-0.2,1.9-0.2l23-13.2c-0.3-0.5-0.2-1,0.3-1.4l-22.2-12.8c-1,0.5-2.6,0.5-3.5-0.1c-0.1,0-0.2-0.1-0.2-0.2L137.9,239.1z
			 M111.9,254.1C112,254.1,112,254.1,111.9,254.1c0.7,0.4,1,1,0.8,1.5l22.6,13c0.6-0.2,1.4-0.1,2,0l22.8-13.1
			c-0.2-0.4,0-0.9,0.5-1.3l-22.2-12.8c0,0,0,0-0.1,0c-1,0.6-2.6,0.6-3.6,0c-0.2-0.1-0.3-0.2-0.4-0.3L111.9,254.1z M86.1,269
			c0.1,0,0.2,0.1,0.2,0.1c0.7,0.4,0.9,1,0.6,1.6l22.4,12.9c0.6-0.2,1.3-0.2,2-0.1l22.6-13c-0.4-0.5-0.2-1.2,0.5-1.6c0,0,0,0,0.1,0
			L112.3,256c-0.1,0.1-0.2,0.1-0.3,0.2c-1,0.6-2.6,0.6-3.6,0c0,0-0.1,0-0.1-0.1L86.1,269z M342.7,416.8l22.5-13
			c-0.4-0.5-0.2-1.1,0.5-1.6l-22.2-12.8c-0.9,0.4-2.1,0.5-3,0.1l-22.3,12.9c0.6,0.4,0.6,1,0.2,1.5l22.5,12.9
			C341.5,416.7,342.2,416.7,342.7,416.8z M368.6,401.9l22.9-13.2c-0.1-0.4,0-0.8,0.5-1.2l-22.2-12.8c-1,0.4-2.3,0.3-3.2-0.1
			l-22.4,13c0.5,0.5,0.5,1.1,0,1.5l22.3,12.9C367.2,401.7,367.9,401.7,368.6,401.9z M394.5,386.9l23-13.3c-0.2-0.4-0.1-0.9,0.3-1.3
			l-22.3-12.8c-0.9,0.3-2,0.3-2.8-0.1l-22.5,13c0.8,0.5,0.9,1.3,0.2,1.9l22.3,12.8C393.2,386.9,393.8,386.9,394.5,386.9z
			 M420.7,371.8l22.5-13c-0.2-0.4-0.1-0.8,0.3-1.1l-22.3-12.9c-0.9,0.3-2,0.2-2.8-0.2l-22,12.7c0.7,0.5,0.6,1.3-0.1,1.8l22.2,12.8
			C419.1,371.7,420,371.7,420.7,371.8z M468,344.5c-0.9-0.5-1-1.3-0.4-1.8l-22.3-12.9c-0.5,0.2-1,0.2-1.5,0.2L422,342.6
			c0.8,0.6,0.7,1.4-0.1,1.9l22.2,12.8c0.6-0.3,1.5-0.4,2.2-0.3L468,344.5z"/>
		<defs>
			<filter id="Adobe_OpacityMaskFilter" filterUnits="userSpaceOnUse" x="171.4" y="169.2" width="304" height="203">
				<feColorMatrix  type="matrix" values="1 0 0 0 0  0 1 0 0 0  0 0 1 0 0  0 0 0 1 0"/>
			</filter>
		</defs>
		<mask maskUnits="userSpaceOnUse" x="171.4" y="169.2" width="304" height="203" id="mask0_1_">
			<path class="st4" d="M315.1,371.2c-115.4,0-125.6-79.7-125.6-79.7l-1.6-47.6l-1.6-47.6c0,0,16.5-15.6,128.8-17
				c112.2-1.4,129.2,17,129.2,17V283C444.4,283,430.5,371.2,315.1,371.2z"/>
		</mask>
		<g class="st5">
			<rect x="171.4" y="169.2" class="st6" width="304" height="203"/>
		</g>
		<g class="st7">
			<path class="st8" d="M218.4,84.2h44c5.5,0,10,4.5,10,10v44c0,5.5-4.5,10-10,10h-44c-5.5,0-10-4.5-10-10v-44
				C208.4,88.7,212.8,84.2,218.4,84.2z"/>
		</g>
		<g class="st9">
			<path class="st8" d="M201.4,381.2h44c5.5,0,10,4.5,10,10v44c0,5.5-4.5,10-10,10h-44c-5.5,0-10-4.5-10-10v-44
				C191.4,385.7,195.8,381.2,201.4,381.2z"/>
		</g>
		<g class="st7">
			<path class="st8" d="M368.4,84.2h44c5.5,0,10,4.5,10,10v44c0,5.5-4.5,10-10,10h-44c-5.5,0-10-4.5-10-10v-44
				C358.4,88.7,362.8,84.2,368.4,84.2z"/>
		</g>
		<path class="st10" d="M253.1,105.3c-0.1,0-0.2,0-0.3-0.1c-0.5-0.2-0.7-0.7-0.6-1.2c0.2-0.5,0.3-1,0.3-1.6c0-3-2.7-5.5-6.1-5.5
			c-2.2,0-4.1,1-5.3,2.7c-0.3,0.5-1.2,0.5-1.5,0c-1.1-1.7-3.1-2.7-5.3-2.7c-3.4,0-6.1,2.5-6.1,5.5c0,0.5,0.1,1.1,0.3,1.6
			c0.2,0.5-0.1,1-0.6,1.2c-0.5,0.2-1-0.1-1.2-0.6c-0.2-0.7-0.4-1.4-0.4-2.1c0-4,3.6-7.3,7.9-7.3c2.4,0,4.5,0.9,6,2.6
			c1.5-1.6,3.7-2.6,6-2.6c4.4,0,7.9,3.3,7.9,7.3c0,0.7-0.1,1.5-0.4,2.1C253.8,105.1,253.5,105.3,253.1,105.3z"/>
		<path class="st10" d="M246.4,139.2c-2.4,0-4.5-0.9-6-2.6c-1.5,1.6-3.7,2.6-6,2.6c-4.4,0-7.9-3.3-7.9-7.3c0-0.2,0-0.5,0-0.7
			c-3.7-1.4-6.1-4.7-6.1-8.4c0-1.6,0.5-3.2,1.3-4.6c-2.1-1.6-3.3-3.9-3.3-6.4c0-4.5,4-8.2,8.9-8.2c2.7,0,4.9,2.1,4.9,4.6
			c0,0.5-0.4,0.9-0.9,0.9c-0.5,0-0.9-0.4-0.9-0.9c0-1.5-1.4-2.8-3.1-2.8c-3.9,0-7.1,2.9-7.1,6.4c0,2.2,1.2,4.2,3.3,5.4
			c0.2,0.1,0.4,0.4,0.4,0.6c0,0.3,0,0.5-0.2,0.7c-1,1.2-1.5,2.7-1.5,4.2c0,3.2,2.2,6,5.5,6.9c0.5,0.1,0.7,0.6,0.6,1.1
			c-0.1,0.4-0.1,0.8-0.1,1.1c0,3,2.7,5.5,6.1,5.5c2.2,0,4.1-1,5.3-2.7c0.3-0.5,1.2-0.5,1.5,0c1.1,1.7,3.1,2.7,5.3,2.7
			c3.4,0,6.1-2.5,6.1-5.5c0-0.4,0-0.8-0.1-1.1c-0.1-0.5,0.2-1,0.6-1.1c3.3-1,5.5-3.8,5.5-6.9c0-1.5-0.5-3-1.5-4.2
			c-0.2-0.2-0.2-0.5-0.2-0.7c0-0.3,0.2-0.5,0.4-0.6c2-1.2,3.3-3.2,3.3-5.4c0-3.5-3.2-6.4-7.1-6.4c-1.7,0-3.1,1.2-3.1,2.8
			c0,1.5,1.4,2.8,3.1,2.8c0.5,0,0.9,0.4,0.9,0.9c0,0.5-0.4,0.9-0.9,0.9c-2.7,0-4.9-2.1-4.9-4.6c0-2.5,2.2-4.6,4.9-4.6
			c4.9,0,8.9,3.7,8.9,8.2c0,2.5-1.2,4.9-3.3,6.4c0.9,1.4,1.3,2.9,1.3,4.6c0,3.7-2.4,7-6.1,8.4c0,0.2,0,0.5,0,0.7
			C254.3,135.9,250.8,139.2,246.4,139.2z"/>
		<path class="st10" d="M244.9,126.4h-9.2c-1.5,0-2.8-1.2-2.8-2.8v-9.2c0-1.5,1.2-2.8,2.8-2.8h9.2c1.5,0,2.8,1.2,2.8,2.8v9.2
			C247.7,125.1,246.4,126.4,244.9,126.4z M235.8,113.5c-0.5,0-0.9,0.4-0.9,0.9v9.2c0,0.5,0.4,0.9,0.9,0.9h9.2c0.5,0,0.9-0.4,0.9-0.9
			v-9.2c0-0.5-0.4-0.9-0.9-0.9H235.8z"/>
		<path class="st10" d="M252.3,117.2h-5.5c-0.5,0-0.9-0.4-0.9-0.9c0-0.5,0.4-0.9,0.9-0.9h5.5c0.5,0,0.9,0.4,0.9,0.9
			C253.2,116.8,252.8,117.2,252.3,117.2z"/>
		<path class="st10" d="M252.3,122.7h-5.5c-0.5,0-0.9-0.4-0.9-0.9c0-0.5,0.4-0.9,0.9-0.9h5.5c0.5,0,0.9,0.4,0.9,0.9
			C253.2,122.3,252.8,122.7,252.3,122.7z"/>
		<path class="st10" d="M233.9,117.2h-5.5c-0.5,0-0.9-0.4-0.9-0.9c0-0.5,0.4-0.9,0.9-0.9h5.5c0.5,0,0.9,0.4,0.9,0.9
			C234.9,116.8,234.4,117.2,233.9,117.2z"/>
		<path class="st10" d="M233.9,122.7h-5.5c-0.5,0-0.9-0.4-0.9-0.9c0-0.5,0.4-0.9,0.9-0.9h5.5c0.5,0,0.9,0.4,0.9,0.9
			C234.9,122.3,234.4,122.7,233.9,122.7z"/>
		<path class="st10" d="M243.1,131.9c-0.5,0-0.9-0.4-0.9-0.9v-5.5c0-0.5,0.4-0.9,0.9-0.9s0.9,0.4,0.9,0.9v5.5
			C244,131.5,243.6,131.9,243.1,131.9z"/>
		<path class="st10" d="M237.6,131.9c-0.5,0-0.9-0.4-0.9-0.9v-5.5c0-0.5,0.4-0.9,0.9-0.9s0.9,0.4,0.9,0.9v5.5
			C238.5,131.5,238.1,131.9,237.6,131.9z"/>
		<path class="st10" d="M243.1,113.5c-0.5,0-0.9-0.4-0.9-0.9v-5.5c0-0.5,0.4-0.9,0.9-0.9s0.9,0.4,0.9,0.9v5.5
			C244,113.1,243.6,113.5,243.1,113.5z"/>
		<path class="st10" d="M237.6,113.5c-0.5,0-0.9-0.4-0.9-0.9v-5.5c0-0.5,0.4-0.9,0.9-0.9s0.9,0.4,0.9,0.9v5.5
			C238.5,113.1,238.1,113.5,237.6,113.5z"/>
		<path class="st10" d="M376,125.8h-4.4c-1.2,0-2.2,1-2.2,2.2v9.5c0,0.4,0.3,0.7,0.7,0.7h7.3c0.4,0,0.7-0.3,0.7-0.7V128
			C378.1,126.7,377.2,125.8,376,125.8z M376.7,136.8h-5.9V128c0-0.4,0.3-0.7,0.7-0.7h4.4c0.4,0,0.7,0.3,0.7,0.7V136.8L376.7,136.8z"
			/>
		<path class="st10" d="M387.7,115.5h-4.4c-1.2,0-2.2,1-2.2,2.2v19.8c0,0.4,0.3,0.7,0.7,0.7h7.3c0.4,0,0.7-0.3,0.7-0.7v-19.8
			C389.9,116.5,388.9,115.5,387.7,115.5z M388.4,136.8h-5.9v-19.1c0-0.4,0.3-0.7,0.7-0.7h4.4c0.4,0,0.7,0.3,0.7,0.7V136.8
			L388.4,136.8z"/>
		<path class="st10" d="M399.4,119.9H395c-1.2,0-2.2,1-2.2,2.2v15.4c0,0.4,0.3,0.7,0.7,0.7h7.3c0.4,0,0.7-0.3,0.7-0.7v-15.4
			C401.6,120.9,400.6,119.9,399.4,119.9z M400.1,136.8h-5.9v-14.7c0-0.4,0.3-0.7,0.7-0.7h4.4c0.4,0,0.7,0.3,0.7,0.7V136.8
			L400.1,136.8z"/>
		<path class="st10" d="M411.1,114h-4.4c-1.2,0-2.2,1-2.2,2.2v21.3c0,0.4,0.3,0.7,0.7,0.7h7.3c0.4,0,0.7-0.3,0.7-0.7v-21.3
			C413.3,115,412.4,114,411.1,114z M411.9,136.8H406v-20.5c0-0.4,0.3-0.7,0.7-0.7h4.4c0.4,0,0.7,0.3,0.7,0.7V136.8L411.9,136.8z"/>
		<path class="st10" d="M405.7,103c1.3,1.5,3.5,1.9,5.3,1c1.8-0.9,2.7-3,2.2-4.9c-0.5-2-2.2-3.3-4.3-3.3c-1.5,0-2.8,0.7-3.7,2
			c-0.8,1.2-1,2.8-0.4,4.1l-4.4,2.7c-0.8-0.9-1.9-1.4-3.1-1.5c-1.2-0.1-2.4,0.4-3.2,1.2l-4.8-3.6c1-2,0.4-4.4-1.4-5.6
			c-1.8-1.3-4.3-1-5.8,0.7c-1.5,1.6-1.5,4.1-0.1,5.8l-6.1,7.3c-2-1.2-4.5-0.6-5.8,1.3c-1.3,1.9-1,4.4,0.8,5.9c1.8,1.5,4.3,1.4,6-0.3
			c1.6-1.6,1.7-4.2,0.2-6l6.1-7.3c1.7,1,3.8,0.8,5.3-0.6l4.8,3.6c-0.9,1.8-0.5,4,1,5.4c1.5,1.3,3.8,1.4,5.4,0.2s2.3-3.4,1.5-5.2
			L405.7,103z M408.9,97.2c1.6,0,2.9,1.3,2.9,2.9c0,1.6-1.3,2.9-2.9,2.9c-1.6,0-2.9-1.3-2.9-2.9C406,98.5,407.3,97.2,408.9,97.2z
			 M373.8,115.5c-1.6,0-2.9-1.3-2.9-2.9c0-1.6,1.3-2.9,2.9-2.9s2.9,1.3,2.9,2.9C376.7,114.2,375.4,115.5,373.8,115.5z M385.5,101.6
			c-1.6,0-2.9-1.3-2.9-2.9c0-1.6,1.3-2.9,2.9-2.9c1.6,0,2.9,1.3,2.9,2.9C388.4,100.2,387.1,101.6,385.5,101.6z M397.2,110.4
			c-1.6,0-2.9-1.3-2.9-2.9c0-1.6,1.3-2.9,2.9-2.9c1.6,0,2.9,1.3,2.9,2.9C400.1,109,398.8,110.4,397.2,110.4z"/>
		<path class="st11" d="M295,378.1C295,378.1,295,378.1,295,378.1c0,0.3-0.1,0.6-0.1,0.9c0,0,0,0,0,0c0,0.3,0.2,0.7,0.5,0.7
			c0.4,0.1,0.7-0.2,0.7-0.5c0-0.3,0.1-0.6,0.1-0.9c0-0.3-0.2-0.7-0.6-0.7C295.4,377.5,295,377.8,295,378.1z"/>
		<path class="st11" d="M240,189.2l-2.7-4.7l1-0.6l1.8,3.1l2-3l0.9,0.6L240,189.2z"/>
		
			<image style="overflow:visible;" width="259" height="193" xlink:href="Mask Group.png"  transform="matrix(1 0 0 1 190.1525 180.7652)">
		</image>
		<path d="M240.7,146.1h-1.1H240.7L240.7,146.1z"/>
		<path class="st11" d="M240.7,187.1h-1.1H240.7L240.7,187.1z M240.7,185.3h-1.1H240.7L240.7,185.3z M240.7,185.3h-1.1v-1.8h1.1
			V185.3z M240.7,183.5h-1.1H240.7L240.7,183.5z M240.7,181.8h-1.1H240.7L240.7,181.8z M240.7,181.8h-1.1V180h1.1V181.8z M240.7,180
			h-1.1H240.7L240.7,180z M240.7,178.2h-1.1H240.7L240.7,178.2z M239.5,178.2v-1.8l1.1,0v1.8H239.5z M240.7,174.6h-1.1H240.7
			L240.7,174.6z M240.7,174.6h-1.1v-1.8h1.1V174.6z M240.7,172.8h-1.1H240.7L240.7,172.8z M240.7,171.1h-1.1H240.7L240.7,171.1z
			 M240.7,171.1h-1.1v-1.8h1.1V171.1z M240.7,169.3h-1.1H240.7L240.7,169.3z M240.7,167.5h-1.1H240.7L240.7,167.5z M240.7,167.5
			h-1.1v-1.8h1.1V167.5z M240.7,165.7h-1.1H240.7L240.7,165.7z M240.7,163.9h-1.1H240.7L240.7,163.9z M240.7,163.9h-1.1v-1.8h1.1
			V163.9z M240.7,162.1h-1.1H240.7L240.7,162.1z M240.7,160.4h-1.1H240.7L240.7,160.4z M240.7,160.4l-1.1,0v-1.8h1.1V160.4z
			 M240.7,158.6h-1.1H240.7L240.7,158.6z M240.7,156.8h-1.1H240.7L240.7,156.8z M240.7,156.8h-1.1V155h1.1V156.8z M240.7,155h-1.1
			H240.7L240.7,155z M240.7,153.2h-1.1H240.7L240.7,153.2z M240.7,153.2h-1.1v-1.8h1.1V153.2z M240.7,151.4h-1.1H240.7L240.7,151.4z
			"/>
		<path d="M239.5,187.1h1.1v0.9h-1.1V187.1z"/>
		<path class="st11" d="M389,189.2l-2.7-4.7l1-0.6l1.8,3.1l2-3l0.9,0.6L389,189.2z"/>
		<path d="M389.7,146.1h-1.1H389.7L389.7,146.1z"/>
		<path class="st11" d="M389.7,187.1h-1.1H389.7L389.7,187.1z M389.7,185.3h-1.1H389.7L389.7,185.3z M389.7,185.3h-1.1v-1.8h1.1
			V185.3z M389.7,183.5h-1.1H389.7L389.7,183.5z M389.7,181.8h-1.1H389.7L389.7,181.8z M389.7,181.8h-1.1V180h1.1V181.8z M389.7,180
			h-1.1H389.7L389.7,180z M389.7,178.2h-1.1H389.7L389.7,178.2z M388.5,178.2v-1.8l1.1,0v1.8H388.5z M389.7,174.6h-1.1H389.7
			L389.7,174.6z M389.7,174.6h-1.1v-1.8h1.1V174.6z M389.7,172.8h-1.1H389.7L389.7,172.8z M389.7,171.1h-1.1H389.7L389.7,171.1z
			 M389.7,171.1h-1.1v-1.8h1.1V171.1z M389.7,169.3h-1.1H389.7L389.7,169.3z M389.7,167.5h-1.1H389.7L389.7,167.5z M389.7,167.5
			h-1.1v-1.8h1.1V167.5z M389.7,165.7h-1.1H389.7L389.7,165.7z M389.7,163.9h-1.1H389.7L389.7,163.9z M389.7,163.9h-1.1v-1.8h1.1
			V163.9z M389.7,162.1h-1.1H389.7L389.7,162.1z M389.7,160.4h-1.1H389.7L389.7,160.4z M389.7,160.4l-1.1,0v-1.8h1.1V160.4z
			 M389.7,158.6h-1.1H389.7L389.7,158.6z M389.7,156.8h-1.1H389.7L389.7,156.8z M389.7,156.8h-1.1V155h1.1V156.8z M389.7,155h-1.1
			H389.7L389.7,155z M389.7,153.2h-1.1H389.7L389.7,153.2z M389.7,153.2h-1.1v-1.8h1.1V153.2z M389.7,151.4h-1.1H389.7L389.7,151.4z
			"/>
		<path d="M388.5,187.1h1.1v0.9h-1.1V187.1z"/>
		<path class="st10" d="M242.6,403.3c-1.6-1.6-3.7-2.6-6-2.8c-0.5-2.2-1.7-4.2-3.5-5.7c-1.9-1.7-4.4-2.6-7-2.6
			c-3.4,0-6.6,1.6-8.6,4.3c-0.9-0.3-1.8-0.4-2.8-0.4c-1,0-1.9,0.1-2.8,0.4c-0.5,0.1-0.7,0.6-0.5,1.1c0.1,0.5,0.6,0.7,1.1,0.5
			c0.7-0.2,1.5-0.4,2.3-0.4c1,0,1.9,0.2,2.8,0.6c0.4,0.2,0.8,0,1-0.3c1.7-2.6,4.5-4.1,7.6-4.1c4.4,0,8.2,3.2,8.9,7.5
			c0.1,0.4,0.4,0.7,0.8,0.7c4.3,0.1,7.8,3.6,7.8,7.9c0,4.4-3.5,7.9-7.9,7.9h-1v-5c0-1-0.6-2.4-3.7-3.5c-2.1-0.7-4.8-1.2-7.8-1.2
			c-2.9,0-5.7,0.4-7.8,1.2c-3,1.1-3.7,2.5-3.7,3.5v5h-3.3c-3,0-5.5-2.5-5.5-5.5c0-2.4,1.5-4.5,3.8-5.2c0.4-0.1,0.6-0.5,0.6-1
			c-0.1-0.4-0.1-0.8-0.1-1.2c0-0.7,0.1-1.4,0.3-2.1c0.1-0.5-0.1-0.9-0.6-1.1c-0.5-0.1-0.9,0.1-1.1,0.6c-0.3,0.8-0.4,1.7-0.4,2.6
			c0,0.2,0,0.5,0,0.7c-2.6,1.1-4.3,3.7-4.3,6.6c0,4,3.2,7.2,7.2,7.2h3.3v11.9c0,1,0.6,2.4,3.7,3.5c2.1,0.7,4.8,1.2,7.8,1.2
			c2.9,0,5.7-0.4,7.8-1.2c3-1.1,3.7-2.5,3.7-3.5v-11.9h1c5.3,0,9.6-4.3,9.6-9.6C245.4,407.6,244.4,405.2,242.6,403.3L242.6,403.3z
			 M233.1,419.2c0,0.4-0.7,1.2-2.5,1.9c-1.9,0.7-4.5,1.1-7.2,1.1c-2.7,0-5.3-0.4-7.2-1.1c-1.9-0.7-2.5-1.4-2.5-1.9v-3.6
			c0.5,0.3,1.1,0.6,1.9,0.9c2.1,0.7,4.8,1.2,7.8,1.2c2.9,0,5.7-0.4,7.8-1.2c0.8-0.3,1.4-0.6,1.9-0.9V419.2z M213.6,421.8
			c0.5,0.3,1.1,0.6,1.9,0.9c2.1,0.7,4.8,1.2,7.8,1.2c2.9,0,5.7-0.4,7.8-1.2c0.8-0.3,1.4-0.6,1.9-0.9v3.6c0,0.4-0.7,1.2-2.5,1.9
			c-1.9,0.7-4.5,1.1-7.2,1.1c-2.7,0-5.3-0.4-7.2-1.1c-1.9-0.7-2.5-1.4-2.5-1.9V421.8z M216.2,411.2c1.9-0.7,4.5-1.1,7.2-1.1
			c2.7,0,5.3,0.4,7.2,1.1c1.9,0.7,2.5,1.4,2.5,1.9s-0.7,1.2-2.5,1.9c-1.9,0.7-4.5,1.1-7.2,1.1c-2.7,0-5.3-0.4-7.2-1.1
			c-1.9-0.7-2.5-1.4-2.5-1.9S214.3,411.8,216.2,411.2L216.2,411.2z M230.5,433.4c-1.9,0.7-4.5,1.1-7.2,1.1c-2.7,0-5.3-0.4-7.2-1.1
			c-1.9-0.7-2.5-1.4-2.5-1.9V428c0.5,0.3,1.1,0.6,1.9,0.9c2.1,0.7,4.8,1.2,7.8,1.2c2.9,0,5.7-0.4,7.8-1.2c0.8-0.3,1.4-0.6,1.9-0.9
			v3.6C233.1,432,232.4,432.8,230.5,433.4z"/>
		<path class="st10" d="M208.8,400.3c0.2,0,0.4-0.1,0.6-0.3c0.2-0.2,0.3-0.4,0.3-0.6c0-0.2-0.1-0.4-0.3-0.6
			c-0.2-0.2-0.4-0.3-0.6-0.3s-0.4,0.1-0.6,0.3c-0.2,0.2-0.3,0.4-0.3,0.6c0,0.2,0.1,0.4,0.3,0.6C208.4,400.2,208.6,400.3,208.8,400.3
			L208.8,400.3z"/>
		<path d="M202.8,66.2c0-0.1,0.1-0.1,0.2-0.1h0.7c0.1,0,0.1,0,0.1,0.1v8.8c0,0.1,0,0.1-0.1,0.1h-0.7c-0.1,0-0.1,0-0.1-0.1v-7.2
			c0,0,0,0,0-0.1c0,0,0,0,0,0l-2.1,3.2c0,0.1-0.1,0.1-0.2,0.1h-0.3c-0.1,0-0.1,0-0.2-0.1l-2.1-3.2c0,0,0,0,0,0c0,0,0,0,0,0.1v7.2
			c0,0.1,0,0.1-0.1,0.1H197c-0.1,0-0.1,0-0.1-0.1v-8.8c0-0.1,0-0.1,0.1-0.1h0.7c0.1,0,0.1,0,0.2,0.1l2.4,3.7c0,0,0,0,0,0
			c0,0,0,0,0,0L202.8,66.2z M208.1,68.5c0.8,0,1.4,0.2,1.8,0.6c0.4,0.4,0.6,0.9,0.6,1.6v4.4c0,0.1,0,0.1-0.1,0.1h-0.7
			c-0.1,0-0.1,0-0.1-0.1v-0.5c0,0,0,0,0,0c0,0,0,0,0,0c-0.2,0.3-0.5,0.5-0.8,0.6c-0.3,0.1-0.7,0.2-1.2,0.2c-0.6,0-1.1-0.2-1.5-0.5
			c-0.4-0.3-0.6-0.8-0.6-1.4c0-0.6,0.2-1.2,0.7-1.5c0.5-0.4,1.1-0.6,2-0.6h1.5c0,0,0.1,0,0.1-0.1v-0.5c0-0.4-0.1-0.8-0.4-1
			c-0.2-0.3-0.6-0.4-1.1-0.4c-0.4,0-0.8,0.1-1,0.2c-0.3,0.2-0.4,0.4-0.5,0.7c0,0.1-0.1,0.1-0.2,0.1l-0.7-0.1c-0.1,0-0.1-0.1-0.1-0.1
			c0.1-0.5,0.3-0.9,0.8-1.2C206.9,68.7,207.4,68.5,208.1,68.5z M207.8,74.5c0.5,0,1-0.1,1.3-0.4c0.4-0.3,0.6-0.6,0.6-1v-1
			c0,0,0-0.1-0.1-0.1h-1.4c-0.6,0-1,0.1-1.4,0.4c-0.3,0.2-0.5,0.6-0.5,1c0,0.4,0.1,0.7,0.4,0.9C207,74.4,207.3,74.5,207.8,74.5z
			 M214.8,75.3c-0.6,0-1.2-0.2-1.6-0.5c-0.4-0.3-0.7-0.8-0.9-1.3c-0.1-0.4-0.2-0.9-0.2-1.6c0-0.6,0.1-1.2,0.2-1.6
			c0.2-0.5,0.5-1,0.9-1.3c0.4-0.3,1-0.5,1.6-0.5c0.6,0,1.2,0.2,1.6,0.5c0.5,0.3,0.8,0.7,0.9,1.2c0,0.2,0.1,0.3,0.1,0.4v0
			c0,0.1,0,0.1-0.1,0.1l-0.7,0.1h0c-0.1,0-0.1,0-0.1-0.1l0-0.2c-0.1-0.3-0.3-0.6-0.6-0.8c-0.3-0.2-0.7-0.4-1.1-0.4
			c-0.4,0-0.8,0.1-1.1,0.4c-0.3,0.2-0.5,0.5-0.6,0.9c-0.1,0.3-0.1,0.8-0.1,1.3c0,0.6,0,1,0.1,1.3c0.1,0.4,0.3,0.7,0.6,0.9
			c0.3,0.2,0.7,0.3,1.1,0.3c0.4,0,0.8-0.1,1.1-0.3c0.3-0.2,0.5-0.5,0.6-0.9v-0.1l0-0.1c0-0.1,0.1-0.1,0.2-0.1l0.6,0.1
			c0.1,0,0.1,0.1,0.1,0.1l-0.1,0.3c-0.1,0.5-0.4,0.9-0.9,1.2C216,75.2,215.5,75.3,214.8,75.3z M221.7,68.5c0.7,0,1.2,0.2,1.7,0.6
			c0.4,0.4,0.6,1,0.6,1.6v4.3c0,0.1,0,0.1-0.1,0.1h-0.7c-0.1,0-0.1,0-0.1-0.1V71c0-0.5-0.1-0.9-0.4-1.2c-0.3-0.3-0.7-0.5-1.1-0.5
			c-0.5,0-0.9,0.1-1.2,0.4c-0.3,0.3-0.4,0.7-0.4,1.2v4.1c0,0.1,0,0.1-0.1,0.1h-0.7c-0.1,0-0.1,0-0.1-0.1v-8.8c0-0.1,0-0.1,0.1-0.1
			h0.7c0.1,0,0.1,0,0.1,0.1v3.1c0,0,0,0,0,0c0,0,0,0,0,0C220.3,68.8,220.9,68.5,221.7,68.5z M226.5,67.4c-0.2,0-0.4-0.1-0.5-0.2
			c-0.1-0.1-0.2-0.3-0.2-0.5c0-0.2,0.1-0.4,0.2-0.5c0.1-0.1,0.3-0.2,0.5-0.2c0.2,0,0.4,0.1,0.5,0.2c0.1,0.1,0.2,0.3,0.2,0.5
			c0,0.2-0.1,0.4-0.2,0.5C226.9,67.4,226.7,67.4,226.5,67.4z M226.1,75.2c-0.1,0-0.1,0-0.1-0.1v-6.3c0-0.1,0-0.1,0.1-0.1h0.7
			c0.1,0,0.1,0,0.1,0.1v6.3c0,0.1,0,0.1-0.1,0.1H226.1z M231.8,68.5c0.7,0,1.2,0.2,1.7,0.6c0.4,0.4,0.6,1,0.6,1.6v4.3
			c0,0.1,0,0.1-0.1,0.1h-0.7c-0.1,0-0.1,0-0.1-0.1V71c0-0.5-0.1-0.9-0.4-1.2c-0.3-0.3-0.7-0.5-1.1-0.5c-0.5,0-0.9,0.1-1.2,0.4
			c-0.3,0.3-0.4,0.7-0.4,1.2v4.1c0,0.1,0,0.1-0.1,0.1h-0.7c-0.1,0-0.1,0-0.1-0.1v-6.3c0-0.1,0-0.1,0.1-0.1h0.7c0.1,0,0.1,0,0.1,0.1
			v0.6c0,0,0,0,0,0c0,0,0,0,0,0C230.4,68.8,231,68.5,231.8,68.5z M240.9,70.8c0,0.2,0.1,0.5,0.1,0.9v0.4c0,0.1,0,0.1-0.1,0.1h-4.2
			c0,0-0.1,0-0.1,0.1c0,0.5,0,0.8,0.1,0.9c0.1,0.4,0.3,0.7,0.6,0.9c0.3,0.2,0.7,0.3,1.2,0.3c0.4,0,0.7-0.1,1-0.2
			c0.3-0.2,0.5-0.4,0.7-0.7c0.1-0.1,0.1-0.1,0.2-0.1l0.5,0.3c0.1,0,0.1,0.1,0.1,0.2c-0.2,0.4-0.5,0.7-1,1c-0.4,0.2-0.9,0.4-1.5,0.4
			c-0.6,0-1.1-0.2-1.5-0.4c-0.4-0.3-0.7-0.7-0.9-1.2c-0.2-0.4-0.2-1-0.2-1.8c0-0.4,0-0.7,0-0.9c0-0.2,0.1-0.4,0.1-0.6
			c0.1-0.6,0.4-1,0.9-1.4c0.5-0.3,1-0.5,1.6-0.5c0.8,0,1.4,0.2,1.8,0.6C240.5,69.5,240.8,70.1,240.9,70.8z M238.3,69.3
			c-0.4,0-0.8,0.1-1.1,0.3c-0.3,0.2-0.5,0.5-0.5,0.9c-0.1,0.2-0.1,0.5-0.1,0.9c0,0,0,0.1,0.1,0.1h3.4c0,0,0.1,0,0.1-0.1
			c0-0.4,0-0.7-0.1-0.8c-0.1-0.4-0.3-0.7-0.6-0.9C239.1,69.5,238.7,69.3,238.3,69.3z M245.4,75.2c-0.1,0-0.1,0-0.1-0.1v-8.8
			c0-0.1,0-0.1,0.1-0.1h0.7c0.1,0,0.1,0,0.1,0.1v8.1c0,0,0,0.1,0.1,0.1h4.6c0.1,0,0.1,0,0.1,0.1v0.5c0,0.1,0,0.1-0.1,0.1H245.4z
			 M257.4,70.8c0,0.2,0.1,0.5,0.1,0.9v0.4c0,0.1,0,0.1-0.1,0.1h-4.2c0,0-0.1,0-0.1,0.1c0,0.5,0,0.8,0.1,0.9c0.1,0.4,0.3,0.7,0.6,0.9
			c0.3,0.2,0.7,0.3,1.2,0.3c0.4,0,0.7-0.1,1-0.2c0.3-0.2,0.5-0.4,0.6-0.7c0.1-0.1,0.1-0.1,0.2-0.1l0.5,0.3c0.1,0,0.1,0.1,0.1,0.2
			c-0.2,0.4-0.5,0.7-1,1c-0.4,0.2-0.9,0.4-1.5,0.4c-0.6,0-1.1-0.2-1.5-0.4c-0.4-0.3-0.7-0.7-0.9-1.2c-0.2-0.4-0.2-1-0.2-1.8
			c0-0.4,0-0.7,0-0.9c0-0.2,0.1-0.4,0.1-0.6c0.1-0.6,0.4-1,0.9-1.4c0.4-0.3,1-0.5,1.6-0.5c0.8,0,1.4,0.2,1.8,0.6
			C257,69.5,257.3,70.1,257.4,70.8z M254.8,69.3c-0.4,0-0.8,0.1-1.1,0.3c-0.3,0.2-0.5,0.5-0.5,0.9c-0.1,0.2-0.1,0.5-0.1,0.9
			c0,0,0,0.1,0.1,0.1h3.4c0,0,0.1,0,0.1-0.1c0-0.4,0-0.7-0.1-0.8c-0.1-0.4-0.3-0.7-0.6-0.9C255.6,69.5,255.2,69.3,254.8,69.3z
			 M261.4,68.5c0.8,0,1.4,0.2,1.8,0.6c0.4,0.4,0.6,0.9,0.6,1.6v4.4c0,0.1,0,0.1-0.1,0.1H263c-0.1,0-0.1,0-0.1-0.1v-0.5c0,0,0,0,0,0
			c0,0,0,0,0,0c-0.2,0.3-0.5,0.5-0.8,0.6c-0.3,0.1-0.7,0.2-1.2,0.2c-0.6,0-1.1-0.2-1.5-0.5c-0.4-0.3-0.6-0.8-0.6-1.4
			c0-0.6,0.2-1.2,0.7-1.5c0.5-0.4,1.1-0.6,2-0.6h1.5c0,0,0.1,0,0.1-0.1v-0.5c0-0.4-0.1-0.8-0.4-1c-0.2-0.3-0.6-0.4-1.1-0.4
			c-0.4,0-0.8,0.1-1,0.2c-0.3,0.2-0.4,0.4-0.5,0.7c0,0.1-0.1,0.1-0.2,0.1l-0.7-0.1c-0.1,0-0.1-0.1-0.1-0.1c0.1-0.5,0.3-0.9,0.8-1.2
			C260.1,68.7,260.7,68.5,261.4,68.5z M261,74.5c0.5,0,1-0.1,1.3-0.4c0.4-0.3,0.6-0.6,0.6-1v-1c0,0,0-0.1-0.1-0.1h-1.4
			c-0.6,0-1,0.1-1.4,0.4c-0.3,0.2-0.5,0.6-0.5,1c0,0.4,0.1,0.7,0.4,0.9C260.2,74.4,260.6,74.5,261,74.5z M268.3,68.6
			c0.3,0,0.5,0.1,0.7,0.2c0.1,0,0.1,0.1,0.1,0.2l-0.1,0.6c0,0.1-0.1,0.1-0.2,0.1c-0.1-0.1-0.3-0.1-0.5-0.1l-0.2,0
			c-0.5,0-0.8,0.2-1.1,0.5c-0.3,0.3-0.4,0.7-0.4,1.2v3.8c0,0.1,0,0.1-0.1,0.1h-0.7c-0.1,0-0.1,0-0.1-0.1v-6.3c0-0.1,0-0.1,0.1-0.1
			h0.7c0.1,0,0.1,0,0.1,0.1v0.8c0,0,0,0,0,0.1c0,0,0,0,0,0c0.2-0.3,0.4-0.6,0.7-0.7C267.6,68.7,267.9,68.6,268.3,68.6z M272.9,68.5
			c0.7,0,1.2,0.2,1.7,0.6c0.4,0.4,0.6,1,0.6,1.6v4.3c0,0.1,0,0.1-0.1,0.1h-0.7c-0.1,0-0.1,0-0.1-0.1V71c0-0.5-0.1-0.9-0.4-1.2
			c-0.3-0.3-0.7-0.5-1.1-0.5c-0.5,0-0.9,0.1-1.2,0.4c-0.3,0.3-0.4,0.7-0.4,1.2v4.1c0,0.1,0,0.1-0.1,0.1h-0.7c-0.1,0-0.1,0-0.1-0.1
			v-6.3c0-0.1,0-0.1,0.1-0.1h0.7c0.1,0,0.1,0,0.1,0.1v0.6c0,0,0,0,0,0c0,0,0,0,0,0C271.6,68.8,272.1,68.5,272.9,68.5z M277.7,67.4
			c-0.2,0-0.4-0.1-0.5-0.2c-0.1-0.1-0.2-0.3-0.2-0.5c0-0.2,0.1-0.4,0.2-0.5c0.1-0.1,0.3-0.2,0.5-0.2s0.4,0.1,0.5,0.2
			c0.1,0.1,0.2,0.3,0.2,0.5c0,0.2-0.1,0.4-0.2,0.5C278.1,67.4,277.9,67.4,277.7,67.4z M277.3,75.2c-0.1,0-0.1,0-0.1-0.1v-6.3
			c0-0.1,0-0.1,0.1-0.1h0.7c0.1,0,0.1,0,0.1,0.1v6.3c0,0.1,0,0.1-0.1,0.1H277.3z M283,68.5c0.7,0,1.2,0.2,1.7,0.6
			c0.4,0.4,0.6,1,0.6,1.6v4.3c0,0.1,0,0.1-0.1,0.1h-0.7c-0.1,0-0.1,0-0.1-0.1V71c0-0.5-0.1-0.9-0.4-1.2c-0.3-0.3-0.7-0.5-1.1-0.5
			c-0.5,0-0.9,0.1-1.2,0.4c-0.3,0.3-0.4,0.7-0.4,1.2v4.1c0,0.1,0,0.1-0.1,0.1h-0.7c-0.1,0-0.1,0-0.1-0.1v-6.3c0-0.1,0-0.1,0.1-0.1
			h0.7c0.1,0,0.1,0,0.1,0.1v0.6c0,0,0,0,0,0c0,0,0,0,0,0C281.6,68.8,282.2,68.5,283,68.5z M291.2,68.8c0-0.1,0-0.1,0.1-0.1h0.7
			c0.1,0,0.1,0,0.1,0.1V75c0,1-0.3,1.7-0.8,2.1c-0.6,0.5-1.3,0.7-2.3,0.7c-0.2,0-0.4,0-0.5,0c-0.1,0-0.1-0.1-0.1-0.1l0-0.6
			c0,0,0-0.1,0-0.1c0,0,0.1,0,0.1,0l0.4,0c0.8,0,1.4-0.2,1.8-0.5c0.4-0.3,0.5-0.8,0.5-1.5v-0.5c0,0,0,0,0,0c0,0,0,0,0,0
			c-0.4,0.5-1,0.8-1.7,0.8c-0.6,0-1.1-0.2-1.5-0.5c-0.4-0.3-0.7-0.7-0.9-1.3c-0.1-0.4-0.2-0.9-0.2-1.6c0-0.4,0-0.7,0-1
			c0-0.3,0.1-0.5,0.1-0.7c0.2-0.5,0.4-0.9,0.8-1.2c0.4-0.3,0.9-0.5,1.5-0.5c0.8,0,1.4,0.3,1.8,0.8c0,0,0,0,0,0c0,0,0,0,0,0V68.8z
			 M291.1,73.2c0-0.1,0-0.3,0.1-0.5c0-0.2,0-0.5,0-0.8c0-0.4,0-0.7,0-0.9c0-0.2,0-0.3-0.1-0.4c-0.1-0.4-0.2-0.7-0.5-0.9
			c-0.3-0.2-0.6-0.4-1-0.4c-0.4,0-0.8,0.1-1,0.4c-0.3,0.2-0.5,0.5-0.6,0.9c-0.1,0.3-0.1,0.7-0.1,1.3c0,0.6,0,1.1,0.1,1.3
			c0.1,0.4,0.3,0.7,0.6,0.9c0.3,0.2,0.6,0.4,1.1,0.4c0.4,0,0.8-0.1,1-0.4C290.9,73.9,291.1,73.6,291.1,73.2z"/>
		<path d="M195.2,462.3c-0.6,0-1.2-0.1-1.6-0.4s-0.8-0.6-1.1-1.1c-0.3-0.5-0.4-1-0.4-1.6V456c0-0.6,0.1-1.1,0.4-1.6
			c0.3-0.5,0.6-0.8,1.1-1.1s1-0.4,1.6-0.4c0.6,0,1.2,0.1,1.6,0.4c0.5,0.3,0.8,0.6,1.1,1.1c0.3,0.5,0.4,1,0.4,1.6v3.3
			c0,0.6-0.1,1.1-0.4,1.6c-0.3,0.5-0.6,0.8-1.1,1.1C196.3,462.2,195.8,462.3,195.2,462.3z M195.2,461.5c0.7,0,1.2-0.2,1.6-0.6
			c0.4-0.4,0.6-0.9,0.6-1.6V456c0-0.7-0.2-1.2-0.6-1.6c-0.4-0.4-0.9-0.6-1.6-0.6c-0.6,0-1.2,0.2-1.6,0.6c-0.4,0.4-0.6,0.9-0.6,1.6
			v3.3c0,0.7,0.2,1.2,0.6,1.6C194,461.3,194.5,461.5,195.2,461.5z M202.9,455.5c0.7,0,1.2,0.2,1.7,0.6c0.4,0.4,0.6,1,0.6,1.6v4.3
			c0,0.1,0,0.1-0.1,0.1h-0.7c-0.1,0-0.1,0-0.1-0.1V458c0-0.5-0.1-0.9-0.4-1.2c-0.3-0.3-0.7-0.5-1.1-0.5c-0.5,0-0.9,0.1-1.2,0.4
			c-0.3,0.3-0.4,0.7-0.4,1.2v4.1c0,0.1,0,0.1-0.1,0.1h-0.7c-0.1,0-0.1,0-0.1-0.1v-6.3c0-0.1,0-0.1,0.1-0.1h0.7c0.1,0,0.1,0,0.1,0.1
			v0.6c0,0,0,0,0,0c0,0,0,0,0,0C201.5,455.8,202.1,455.5,202.9,455.5z M206.5,458.6c-0.1,0-0.1,0-0.1-0.1v-0.5c0-0.1,0-0.1,0.1-0.1
			h3.8c0.1,0,0.1,0,0.1,0.1v0.5c0,0.1,0,0.1-0.1,0.1H206.5z M215.6,453.1c0.8,0,1.4,0.2,1.8,0.7c0.5,0.5,0.7,1.1,0.7,1.8
			c0,0.8-0.2,1.4-0.7,1.8c-0.5,0.5-1.1,0.7-1.9,0.7H213c0,0-0.1,0-0.1,0.1v3.9c0,0.1,0,0.1-0.1,0.1h-0.7c-0.1,0-0.1,0-0.1-0.1v-8.9
			c0-0.1,0-0.1,0.1-0.1H215.6z M215.5,457.4c0.5,0,0.9-0.2,1.2-0.5c0.3-0.3,0.5-0.7,0.5-1.3c0-0.5-0.2-1-0.5-1.3
			c-0.3-0.3-0.7-0.5-1.2-0.5H213c0,0-0.1,0-0.1,0.1v3.4c0,0,0,0.1,0.1,0.1H215.5z M222.1,455.6c0.3,0,0.5,0.1,0.7,0.2
			c0.1,0,0.1,0.1,0.1,0.2l-0.1,0.6c0,0.1-0.1,0.1-0.2,0.1c-0.1-0.1-0.3-0.1-0.5-0.1l-0.2,0c-0.5,0-0.8,0.2-1.1,0.5
			c-0.3,0.3-0.4,0.7-0.4,1.2v3.8c0,0.1,0,0.1-0.1,0.1h-0.7c-0.1,0-0.1,0-0.1-0.1v-6.3c0-0.1,0-0.1,0.1-0.1h0.7c0.1,0,0.1,0,0.1,0.1
			v0.8c0,0,0,0,0,0.1c0,0,0,0,0,0c0.2-0.3,0.4-0.6,0.7-0.7C221.4,455.7,221.8,455.6,222.1,455.6z M229.1,457.8
			c0,0.2,0.1,0.5,0.1,0.9v0.4c0,0.1,0,0.1-0.1,0.1h-4.2c0,0-0.1,0-0.1,0.1c0,0.5,0,0.8,0.1,0.9c0.1,0.4,0.3,0.7,0.6,0.9
			s0.7,0.3,1.2,0.3c0.4,0,0.7-0.1,1-0.2c0.3-0.2,0.5-0.4,0.6-0.7c0.1-0.1,0.1-0.1,0.2-0.1l0.5,0.3c0.1,0,0.1,0.1,0.1,0.2
			c-0.2,0.4-0.5,0.7-1,1c-0.4,0.2-0.9,0.4-1.5,0.4c-0.6,0-1.1-0.2-1.5-0.4c-0.4-0.3-0.7-0.7-0.9-1.2c-0.2-0.4-0.2-1-0.2-1.8
			c0-0.4,0-0.7,0-0.9c0-0.2,0.1-0.4,0.1-0.6c0.1-0.6,0.4-1,0.9-1.4c0.4-0.3,1-0.5,1.6-0.5c0.8,0,1.4,0.2,1.8,0.6
			C228.7,456.5,229,457.1,229.1,457.8z M226.5,456.3c-0.4,0-0.8,0.1-1.1,0.3c-0.3,0.2-0.5,0.5-0.5,0.9c-0.1,0.2-0.1,0.5-0.1,0.9
			c0,0,0,0.1,0.1,0.1h3.4c0,0,0.1,0,0.1-0.1c0-0.4,0-0.7-0.1-0.8c-0.1-0.4-0.3-0.7-0.6-0.9C227.3,456.5,226.9,456.3,226.5,456.3z
			 M237.5,455.5c0.6,0,1.2,0.2,1.5,0.6c0.4,0.4,0.6,0.9,0.6,1.6v4.4c0,0.1,0,0.1-0.1,0.1h-0.7c-0.1,0-0.1,0-0.1-0.1v-4.2
			c0-0.5-0.1-0.9-0.4-1.1c-0.3-0.3-0.6-0.4-1.1-0.4c-0.5,0-0.8,0.1-1.1,0.4c-0.3,0.3-0.4,0.6-0.4,1.1v4.2c0,0.1,0,0.1-0.1,0.1h-0.7
			c-0.1,0-0.1,0-0.1-0.1v-4.2c0-0.5-0.1-0.9-0.4-1.1c-0.3-0.3-0.6-0.4-1.1-0.4c-0.5,0-0.8,0.1-1.1,0.4c-0.3,0.3-0.4,0.6-0.4,1.1v4.2
			c0,0.1,0,0.1-0.1,0.1H231c-0.1,0-0.1,0-0.1-0.1v-6.3c0-0.1,0-0.1,0.1-0.1h0.7c0.1,0,0.1,0,0.1,0.1v0.5c0,0,0,0,0,0c0,0,0,0,0.1,0
			c0.2-0.3,0.4-0.4,0.7-0.6c0.3-0.1,0.6-0.2,1-0.2c0.5,0,0.8,0.1,1.2,0.3c0.3,0.2,0.6,0.4,0.7,0.8c0,0,0,0,0.1,0
			c0.2-0.4,0.5-0.6,0.8-0.8C236.7,455.6,237,455.5,237.5,455.5z M242.1,454.4c-0.2,0-0.4-0.1-0.5-0.2c-0.1-0.1-0.2-0.3-0.2-0.5
			c0-0.2,0.1-0.4,0.2-0.5c0.1-0.1,0.3-0.2,0.5-0.2c0.2,0,0.4,0.1,0.5,0.2c0.1,0.1,0.2,0.3,0.2,0.5c0,0.2-0.1,0.4-0.2,0.5
			C242.5,454.4,242.3,454.4,242.1,454.4z M241.7,462.2c-0.1,0-0.1,0-0.1-0.1v-6.3c0-0.1,0-0.1,0.1-0.1h0.7c0.1,0,0.1,0,0.1,0.1v6.3
			c0,0.1,0,0.1-0.1,0.1H241.7z M246.8,462.3c-0.5,0-0.9-0.1-1.3-0.2c-0.4-0.2-0.7-0.4-0.9-0.6c-0.2-0.3-0.3-0.6-0.3-0.9v-0.2
			c0-0.1,0-0.1,0.1-0.1h0.6c0.1,0,0.1,0,0.1,0.1v0.1c0,0.3,0.1,0.5,0.4,0.8c0.3,0.2,0.7,0.3,1.1,0.3c0.4,0,0.8-0.1,1.1-0.3
			c0.3-0.2,0.4-0.5,0.4-0.8c0-0.2-0.1-0.4-0.2-0.5c-0.1-0.1-0.3-0.2-0.5-0.3c-0.2-0.1-0.5-0.2-0.9-0.3c-0.5-0.1-0.9-0.3-1.2-0.4
			c-0.3-0.1-0.6-0.3-0.8-0.6c-0.2-0.3-0.3-0.6-0.3-0.9c0-0.6,0.2-1,0.7-1.3c0.4-0.3,1-0.5,1.7-0.5c0.5,0,0.9,0.1,1.3,0.2
			c0.4,0.2,0.7,0.4,0.9,0.6c0.2,0.3,0.3,0.6,0.3,0.9v0c0,0.1,0,0.1-0.1,0.1h-0.6c-0.1,0-0.1,0-0.1-0.1v0c0-0.3-0.1-0.5-0.4-0.7
			c-0.3-0.2-0.7-0.3-1.1-0.3c-0.4,0-0.8,0.1-1.1,0.3c-0.3,0.2-0.4,0.4-0.4,0.7c0,0.3,0.1,0.5,0.4,0.7s0.7,0.3,1.2,0.5
			c0.5,0.1,0.9,0.3,1.2,0.4s0.6,0.3,0.8,0.6c0.2,0.2,0.3,0.6,0.3,1c0,0.6-0.2,1-0.7,1.4C248.1,462.1,247.5,462.3,246.8,462.3z
			 M255.8,457.8c0,0.2,0.1,0.5,0.1,0.9v0.4c0,0.1,0,0.1-0.1,0.1h-4.2c0,0-0.1,0-0.1,0.1c0,0.5,0,0.8,0.1,0.9
			c0.1,0.4,0.3,0.7,0.6,0.9s0.7,0.3,1.2,0.3c0.4,0,0.7-0.1,1-0.2c0.3-0.2,0.5-0.4,0.6-0.7c0.1-0.1,0.1-0.1,0.2-0.1l0.5,0.3
			c0.1,0,0.1,0.1,0.1,0.2c-0.2,0.4-0.5,0.7-1,1c-0.4,0.2-0.9,0.4-1.5,0.4c-0.6,0-1.1-0.2-1.5-0.4c-0.4-0.3-0.7-0.7-0.9-1.2
			c-0.2-0.4-0.2-1-0.2-1.8c0-0.4,0-0.7,0-0.9c0-0.2,0.1-0.4,0.1-0.6c0.1-0.6,0.4-1,0.9-1.4c0.4-0.3,1-0.5,1.6-0.5
			c0.8,0,1.4,0.2,1.8,0.6C255.4,456.5,255.7,457.1,255.8,457.8z M253.2,456.3c-0.4,0-0.8,0.1-1.1,0.3c-0.3,0.2-0.5,0.5-0.5,0.9
			c-0.1,0.2-0.1,0.5-0.1,0.9c0,0,0,0.1,0.1,0.1h3.4c0,0,0.1,0,0.1-0.1c0-0.4,0-0.7-0.1-0.8c-0.1-0.4-0.3-0.7-0.6-0.9
			C254,456.5,253.6,456.3,253.2,456.3z M259.6,462.3c-0.5,0-0.9-0.1-1.3-0.2c-0.4-0.2-0.7-0.4-0.9-0.6c-0.2-0.3-0.3-0.6-0.3-0.9
			v-0.2c0-0.1,0-0.1,0.1-0.1h0.6c0.1,0,0.1,0,0.1,0.1v0.1c0,0.3,0.1,0.5,0.4,0.8c0.3,0.2,0.7,0.3,1.1,0.3c0.5,0,0.8-0.1,1.1-0.3
			c0.3-0.2,0.4-0.5,0.4-0.8c0-0.2-0.1-0.4-0.2-0.5c-0.1-0.1-0.3-0.2-0.5-0.3c-0.2-0.1-0.5-0.2-0.9-0.3c-0.5-0.1-0.9-0.3-1.2-0.4
			s-0.6-0.3-0.8-0.6c-0.2-0.3-0.3-0.6-0.3-0.9c0-0.6,0.2-1,0.7-1.3c0.4-0.3,1-0.5,1.7-0.5c0.5,0,0.9,0.1,1.3,0.2
			c0.4,0.2,0.7,0.4,0.9,0.6c0.2,0.3,0.3,0.6,0.3,0.9v0c0,0.1,0,0.1-0.1,0.1h-0.6c-0.1,0-0.1,0-0.1-0.1v0c0-0.3-0.1-0.5-0.4-0.7
			c-0.3-0.2-0.7-0.3-1.1-0.3c-0.4,0-0.8,0.1-1.1,0.3c-0.3,0.2-0.4,0.4-0.4,0.7c0,0.3,0.1,0.5,0.4,0.7c0.3,0.2,0.7,0.3,1.2,0.5
			c0.5,0.1,0.9,0.3,1.2,0.4c0.3,0.1,0.6,0.3,0.8,0.6c0.2,0.2,0.3,0.6,0.3,1c0,0.6-0.2,1-0.7,1.4
			C260.9,462.1,260.3,462.3,259.6,462.3z M185.5,478.2c-0.1,0-0.1,0-0.1-0.1v-8.8c0-0.1,0-0.1,0.1-0.1h3.1c0.9,0,1.5,0.2,2,0.7
			c0.5,0.5,0.8,1.1,0.8,1.8v4.1c0,0.8-0.3,1.4-0.8,1.8c-0.5,0.5-1.2,0.7-2,0.7H185.5z M186.3,477.4
			C186.3,477.4,186.4,477.4,186.3,477.4l2.3,0.1c0.6,0,1-0.2,1.3-0.5c0.3-0.3,0.5-0.8,0.5-1.3v-3.8c0-0.6-0.2-1-0.5-1.3
			c-0.3-0.3-0.8-0.5-1.4-0.5h-2.3c0,0-0.1,0-0.1,0.1V477.4z M195.3,471.5c0.8,0,1.4,0.2,1.8,0.6c0.4,0.4,0.6,0.9,0.6,1.6v4.4
			c0,0.1,0,0.1-0.1,0.1H197c-0.1,0-0.1,0-0.1-0.1v-0.5c0,0,0,0,0,0c0,0,0,0,0,0c-0.2,0.3-0.5,0.5-0.8,0.6c-0.3,0.1-0.7,0.2-1.2,0.2
			c-0.6,0-1.1-0.2-1.5-0.5c-0.4-0.3-0.6-0.8-0.6-1.4c0-0.6,0.2-1.2,0.7-1.5c0.5-0.4,1.1-0.6,2-0.6h1.5c0,0,0.1,0,0.1-0.1v-0.5
			c0-0.4-0.1-0.8-0.4-1c-0.2-0.3-0.6-0.4-1.1-0.4c-0.4,0-0.8,0.1-1,0.2c-0.3,0.2-0.4,0.4-0.5,0.7c0,0.1-0.1,0.1-0.2,0.1l-0.7-0.1
			c-0.1,0-0.1-0.1-0.1-0.1c0.1-0.5,0.3-0.9,0.8-1.2C194.1,471.7,194.7,471.5,195.3,471.5z M195,477.5c0.5,0,1-0.1,1.3-0.4
			c0.4-0.3,0.6-0.6,0.6-1v-1c0,0,0-0.1-0.1-0.1h-1.4c-0.6,0-1,0.1-1.4,0.4c-0.3,0.2-0.5,0.6-0.5,1c0,0.4,0.1,0.7,0.4,0.9
			C194.2,477.4,194.6,477.5,195,477.5z M202.5,472.3c0,0.1,0,0.1-0.1,0.1h-1.5c0,0-0.1,0-0.1,0.1v3.8c0,0.4,0.1,0.7,0.3,0.9
			c0.2,0.2,0.5,0.2,0.9,0.2h0.3c0.1,0,0.1,0,0.1,0.1v0.5c0,0.1,0,0.1-0.1,0.1c-0.1,0-0.3,0-0.5,0c-0.6,0-1.1-0.1-1.4-0.4
			c-0.3-0.2-0.5-0.7-0.5-1.3v-4.1c0,0,0-0.1-0.1-0.1h-0.8c-0.1,0-0.1,0-0.1-0.1v-0.5c0-0.1,0-0.1,0.1-0.1h0.8c0,0,0.1,0,0.1-0.1
			v-1.5c0-0.1,0-0.1,0.1-0.1h0.6c0.1,0,0.1,0,0.1,0.1v1.5c0,0,0,0.1,0.1,0.1h1.5c0.1,0,0.1,0,0.1,0.1V472.3z M206.4,471.5
			c0.8,0,1.4,0.2,1.8,0.6c0.4,0.4,0.6,0.9,0.6,1.6v4.4c0,0.1,0,0.1-0.1,0.1h-0.7c-0.1,0-0.1,0-0.1-0.1v-0.5c0,0,0,0,0,0c0,0,0,0,0,0
			c-0.2,0.3-0.5,0.5-0.8,0.6c-0.3,0.1-0.7,0.2-1.2,0.2c-0.6,0-1.1-0.2-1.5-0.5c-0.4-0.3-0.6-0.8-0.6-1.4c0-0.6,0.2-1.2,0.7-1.5
			c0.5-0.4,1.1-0.6,2-0.6h1.5c0,0,0.1,0,0.1-0.1v-0.5c0-0.4-0.1-0.8-0.4-1c-0.2-0.3-0.6-0.4-1.1-0.4c-0.4,0-0.8,0.1-1,0.2
			c-0.3,0.2-0.4,0.4-0.5,0.7c0,0.1-0.1,0.1-0.2,0.1l-0.7-0.1c-0.1,0-0.1-0.1-0.1-0.1c0.1-0.5,0.3-0.9,0.8-1.2
			C205.2,471.7,205.7,471.5,206.4,471.5z M206,477.5c0.5,0,1-0.1,1.3-0.4c0.4-0.3,0.6-0.6,0.6-1v-1c0,0,0-0.1-0.1-0.1h-1.4
			c-0.6,0-1,0.1-1.4,0.4c-0.3,0.2-0.5,0.6-0.5,1c0,0.4,0.1,0.7,0.4,0.9C205.3,477.4,205.6,477.5,206,477.5z M219.2,469.2
			c0-0.1,0.1-0.1,0.2-0.1h0.7c0.1,0,0.1,0,0.1,0.1v8.8c0,0.1,0,0.1-0.1,0.1h-0.7c-0.1,0-0.1,0-0.1-0.1v-7.2c0,0,0,0,0-0.1s0,0,0,0
			l-2.1,3.2c0,0.1-0.1,0.1-0.2,0.1h-0.3c-0.1,0-0.1,0-0.2-0.1l-2.1-3.2c0,0,0,0,0,0s0,0,0,0.1v7.2c0,0.1,0,0.1-0.1,0.1h-0.7
			c-0.1,0-0.1,0-0.1-0.1v-8.8c0-0.1,0-0.1,0.1-0.1h0.7c0.1,0,0.1,0,0.2,0.1l2.4,3.7c0,0,0,0,0,0s0,0,0,0L219.2,469.2z M224.8,478.3
			c-0.6,0-1.2-0.2-1.6-0.5c-0.5-0.3-0.8-0.8-0.9-1.3c-0.1-0.4-0.2-0.9-0.2-1.6s0.1-1.2,0.2-1.6c0.2-0.6,0.5-1,0.9-1.3
			c0.5-0.3,1-0.5,1.6-0.5c0.6,0,1.1,0.2,1.6,0.5c0.5,0.3,0.8,0.8,0.9,1.3c0.1,0.4,0.2,0.9,0.2,1.6c0,0.7-0.1,1.2-0.2,1.6
			c-0.2,0.6-0.5,1-0.9,1.3C225.9,478.2,225.4,478.3,224.8,478.3z M224.8,477.5c0.4,0,0.8-0.1,1.1-0.3c0.3-0.2,0.5-0.5,0.6-0.9
			c0.1-0.3,0.1-0.8,0.1-1.3c0-0.6,0-1-0.1-1.3c-0.1-0.4-0.3-0.7-0.6-0.9c-0.3-0.2-0.7-0.4-1.1-0.4s-0.8,0.1-1.1,0.4
			c-0.3,0.2-0.5,0.5-0.6,0.9c-0.1,0.3-0.1,0.7-0.1,1.3s0,1,0.1,1.3c0.1,0.4,0.3,0.7,0.6,0.9C224,477.4,224.3,477.5,224.8,477.5z
			 M230.6,478.2c-0.1,0-0.1,0-0.2-0.1l-2.1-6.3l0-0.1c0-0.1,0-0.1,0.1-0.1h0.7c0.1,0,0.1,0,0.2,0.1l1.6,5.1c0,0,0,0,0,0c0,0,0,0,0,0
			l1.6-5.1c0-0.1,0.1-0.1,0.2-0.1l0.7,0c0.1,0,0.1,0,0.1,0.1l-2.1,6.3c0,0.1-0.1,0.1-0.2,0.1H230.6z M239.8,473.8
			c0,0.2,0.1,0.5,0.1,0.9v0.4c0,0.1,0,0.1-0.1,0.1h-4.2c0,0-0.1,0-0.1,0.1c0,0.5,0,0.8,0.1,0.9c0.1,0.4,0.3,0.7,0.6,0.9
			s0.7,0.3,1.2,0.3c0.4,0,0.7-0.1,1-0.2c0.3-0.2,0.5-0.4,0.7-0.7c0.1-0.1,0.1-0.1,0.2-0.1l0.5,0.3c0.1,0,0.1,0.1,0.1,0.2
			c-0.2,0.4-0.5,0.7-1,1c-0.4,0.2-0.9,0.4-1.5,0.4c-0.6,0-1.1-0.2-1.5-0.4c-0.4-0.3-0.7-0.7-0.9-1.2c-0.2-0.4-0.2-1-0.2-1.8
			c0-0.4,0-0.7,0-0.9c0-0.2,0.1-0.4,0.1-0.6c0.1-0.6,0.4-1,0.9-1.4c0.5-0.3,1-0.5,1.6-0.5c0.8,0,1.4,0.2,1.8,0.6
			C239.5,472.5,239.7,473.1,239.8,473.8z M237.2,472.3c-0.4,0-0.8,0.1-1.1,0.3c-0.3,0.2-0.5,0.5-0.5,0.9c-0.1,0.2-0.1,0.5-0.1,0.9
			c0,0,0,0.1,0.1,0.1h3.4c0,0,0.1,0,0.1-0.1c0-0.4,0-0.7-0.1-0.8c-0.1-0.4-0.3-0.7-0.6-0.9C238,472.5,237.7,472.3,237.2,472.3z
			 M248.3,471.5c0.6,0,1.2,0.2,1.5,0.6c0.4,0.4,0.6,0.9,0.6,1.6v4.4c0,0.1,0,0.1-0.1,0.1h-0.7c-0.1,0-0.1,0-0.1-0.1v-4.2
			c0-0.5-0.1-0.9-0.4-1.1c-0.3-0.3-0.6-0.4-1.1-0.4c-0.5,0-0.8,0.1-1.1,0.4c-0.3,0.3-0.4,0.6-0.4,1.1v4.2c0,0.1,0,0.1-0.1,0.1h-0.7
			c-0.1,0-0.1,0-0.1-0.1v-4.2c0-0.5-0.1-0.9-0.4-1.1c-0.3-0.3-0.6-0.4-1.1-0.4c-0.5,0-0.8,0.1-1.1,0.4c-0.3,0.3-0.4,0.6-0.4,1.1v4.2
			c0,0.1,0,0.1-0.1,0.1h-0.7c-0.1,0-0.1,0-0.1-0.1v-6.3c0-0.1,0-0.1,0.1-0.1h0.7c0.1,0,0.1,0,0.1,0.1v0.5c0,0,0,0,0,0c0,0,0,0,0.1,0
			c0.2-0.3,0.4-0.4,0.7-0.6c0.3-0.1,0.6-0.2,1-0.2c0.5,0,0.8,0.1,1.2,0.3c0.3,0.2,0.6,0.4,0.7,0.8c0,0,0,0,0.1,0
			c0.2-0.4,0.5-0.6,0.8-0.8C247.4,471.6,247.8,471.5,248.3,471.5z M257.2,473.8c0,0.2,0.1,0.5,0.1,0.9v0.4c0,0.1,0,0.1-0.1,0.1h-4.2
			c0,0-0.1,0-0.1,0.1c0,0.5,0,0.8,0.1,0.9c0.1,0.4,0.3,0.7,0.6,0.9s0.7,0.3,1.2,0.3c0.4,0,0.7-0.1,1-0.2c0.3-0.2,0.5-0.4,0.6-0.7
			c0.1-0.1,0.1-0.1,0.2-0.1l0.5,0.3c0.1,0,0.1,0.1,0.1,0.2c-0.2,0.4-0.5,0.7-1,1c-0.4,0.2-0.9,0.4-1.5,0.4c-0.6,0-1.1-0.2-1.5-0.4
			c-0.4-0.3-0.7-0.7-0.9-1.2c-0.2-0.4-0.2-1-0.2-1.8c0-0.4,0-0.7,0-0.9c0-0.2,0.1-0.4,0.1-0.6c0.1-0.6,0.4-1,0.9-1.4
			c0.5-0.3,1-0.5,1.6-0.5c0.8,0,1.4,0.2,1.8,0.6C256.8,472.5,257.1,473.1,257.2,473.8z M254.6,472.3c-0.4,0-0.8,0.1-1.1,0.3
			c-0.3,0.2-0.5,0.5-0.5,0.9c-0.1,0.2-0.1,0.5-0.1,0.9c0,0,0,0.1,0.1,0.1h3.4c0,0,0.1,0,0.1-0.1c0-0.4,0-0.7-0.1-0.8
			c-0.1-0.4-0.3-0.7-0.6-0.9C255.4,472.5,255,472.3,254.6,472.3z M261.7,471.5c0.7,0,1.2,0.2,1.7,0.6c0.4,0.4,0.6,1,0.6,1.6v4.3
			c0,0.1,0,0.1-0.1,0.1h-0.7c-0.1,0-0.1,0-0.1-0.1V474c0-0.5-0.1-0.9-0.4-1.2c-0.3-0.3-0.7-0.5-1.1-0.5c-0.5,0-0.9,0.1-1.2,0.4
			c-0.3,0.3-0.4,0.7-0.4,1.2v4.1c0,0.1,0,0.1-0.1,0.1h-0.7c-0.1,0-0.1,0-0.1-0.1v-6.3c0-0.1,0-0.1,0.1-0.1h0.7c0.1,0,0.1,0,0.1,0.1
			v0.6c0,0,0,0,0,0c0,0,0,0,0,0C260.3,471.8,260.9,471.5,261.7,471.5z M268.8,472.3c0,0.1,0,0.1-0.1,0.1h-1.5c0,0-0.1,0-0.1,0.1v3.8
			c0,0.4,0.1,0.7,0.3,0.9c0.2,0.2,0.5,0.2,0.9,0.2h0.3c0.1,0,0.1,0,0.1,0.1v0.5c0,0.1,0,0.1-0.1,0.1c-0.1,0-0.3,0-0.5,0
			c-0.6,0-1.1-0.1-1.4-0.4c-0.3-0.2-0.5-0.7-0.5-1.3v-4.1c0,0,0-0.1-0.1-0.1h-0.8c-0.1,0-0.1,0-0.1-0.1v-0.5c0-0.1,0-0.1,0.1-0.1
			h0.8c0,0,0.1,0,0.1-0.1v-1.5c0-0.1,0-0.1,0.1-0.1h0.6c0.1,0,0.1,0,0.1,0.1v1.5c0,0,0,0.1,0.1,0.1h1.5c0.1,0,0.1,0,0.1,0.1V472.3z"
			/>
		<g class="st9">
			<path class="st8" d="M414.4,377.2h44c5.5,0,10,4.5,10,10v44c0,5.5-4.5,10-10,10h-44c-5.5,0-10-4.5-10-10v-44
				C404.4,381.7,408.8,377.2,414.4,377.2z"/>
		</g>
		<path class="st10" d="M455,410.6c0,10.4-8.5,18.9-18.9,18.9c-10.4,0-18.9-8.4-18.9-18.8h-2.8l4.2-6.3l4.2,6.3h-2.4
			c0,8.7,7.1,15.7,15.8,15.7c8.7,0,15.8-7.1,15.8-15.8s-7.1-15.8-15.8-15.8c-0.9,0-1.6-0.7-1.6-1.6c0-0.9,0.7-1.6,1.6-1.6
			C446.5,391.7,455,400.2,455,410.6z M436.1,422.4c-6.5,0-11.7-5.3-11.7-11.7c0-0.3-0.2-0.5-0.5-0.5c-0.3,0-0.5,0.2-0.5,0.5
			c0,7.1,5.7,12.8,12.8,12.8c7,0,12.8-5.7,12.8-12.8c0-7-5.7-12.8-12.8-12.8c-0.3,0-0.5,0.2-0.5,0.5c0,0.3,0.2,0.5,0.5,0.5
			c6.5,0,11.7,5.3,11.7,11.7C447.8,417.1,442.5,422.4,436.1,422.4z M430,418.3c0.3,0.3,0.7,0.5,1.1,0.5c0.4,0,0.8-0.2,1.1-0.5l5-5
			c0.3-0.3,0.5-0.7,0.5-1.1v-8.9c0-0.9-0.7-1.6-1.6-1.6c-0.9,0-1.6,0.7-1.6,1.6v8.3l-4.5,4.5C429.4,416.7,429.4,417.7,430,418.3z
			 M418,397.8c0-4.2,3.4-7.6,7.6-7.6c4.2,0,7.6,3.4,7.6,7.6c0,4.2-3.4,7.6-7.6,7.6C421.4,405.5,418,402,418,397.8z"/>
		<path class="st12" d="M421.8,398.2l2,2c0.2,0.2,0.5,0.3,0.7,0.3c0.3,0,0.5-0.1,0.7-0.3l5.2-4.8 M455,410.6
			c0,10.4-8.5,18.9-18.9,18.9c-10.4,0-18.9-8.4-18.9-18.8h-2.8l4.2-6.3l4.2,6.3h-2.4c0,8.7,7.1,15.7,15.8,15.7
			c8.7,0,15.8-7.1,15.8-15.8s-7.1-15.8-15.8-15.8c-0.9,0-1.6-0.7-1.6-1.6c0-0.9,0.7-1.6,1.6-1.6C446.5,391.7,455,400.2,455,410.6z
			 M436.1,422.4c-6.5,0-11.7-5.3-11.7-11.7c0-0.3-0.2-0.5-0.5-0.5c-0.3,0-0.5,0.2-0.5,0.5c0,7.1,5.7,12.8,12.8,12.8
			c7,0,12.8-5.7,12.8-12.8c0-7-5.7-12.8-12.8-12.8c-0.3,0-0.5,0.2-0.5,0.5c0,0.3,0.2,0.5,0.5,0.5c6.5,0,11.7,5.3,11.7,11.7
			C447.8,417.1,442.5,422.4,436.1,422.4z M430,418.3c0.3,0.3,0.7,0.5,1.1,0.5c0.4,0,0.8-0.2,1.1-0.5l5-5c0.3-0.3,0.5-0.7,0.5-1.1
			v-8.9c0-0.9-0.7-1.6-1.6-1.6c-0.9,0-1.6,0.7-1.6,1.6v8.3l-4.5,4.5C429.4,416.7,429.4,417.7,430,418.3z M418,397.8
			c0-4.2,3.4-7.6,7.6-7.6c4.2,0,7.6,3.4,7.6,7.6c0,4.2-3.4,7.6-7.6,7.6C421.4,405.5,418,402,418,397.8z"/>
		<path d="M413.7,458.2c-0.1,0-0.1,0-0.2-0.1l-1.9-4c0,0,0,0-0.1,0h-2.2c0,0-0.1,0-0.1,0.1v4c0,0.1,0,0.1-0.1,0.1h-0.7
			c-0.1,0-0.1,0-0.1-0.1v-8.8c0-0.1,0-0.1,0.1-0.1h3.4c0.7,0,1.3,0.2,1.8,0.7c0.5,0.5,0.7,1.1,0.7,1.8c0,0.6-0.2,1.1-0.5,1.5
			s-0.8,0.7-1.3,0.8c0,0,0,0,0,0.1l1.9,4c0,0,0,0,0,0.1c0,0.1,0,0.1-0.1,0.1H413.7z M409.3,449.9
			C409.3,449.9,409.3,449.9,409.3,449.9l-0.1,3.3c0,0,0,0.1,0.1,0.1h2.4c0.5,0,0.9-0.2,1.2-0.5c0.3-0.3,0.5-0.7,0.5-1.2
			s-0.2-0.9-0.5-1.2c-0.3-0.3-0.7-0.5-1.2-0.5H409.3z M421,453.8c0,0.2,0.1,0.5,0.1,0.9v0.4c0,0.1,0,0.1-0.1,0.1h-4.2
			c0,0-0.1,0-0.1,0.1c0,0.5,0,0.8,0.1,0.9c0.1,0.4,0.3,0.7,0.6,0.9c0.3,0.2,0.7,0.3,1.2,0.3c0.4,0,0.7-0.1,1-0.2
			c0.3-0.2,0.5-0.4,0.6-0.7c0.1-0.1,0.1-0.1,0.2-0.1l0.5,0.3c0.1,0,0.1,0.1,0.1,0.2c-0.2,0.4-0.5,0.7-1,1c-0.4,0.2-0.9,0.4-1.5,0.4
			c-0.6,0-1.1-0.2-1.5-0.4c-0.4-0.3-0.7-0.7-0.9-1.2c-0.2-0.4-0.2-1-0.2-1.8c0-0.4,0-0.7,0-0.9c0-0.2,0.1-0.4,0.1-0.6
			c0.1-0.6,0.4-1,0.9-1.4c0.5-0.3,1-0.5,1.6-0.5c0.8,0,1.4,0.2,1.8,0.6C420.7,452.5,420.9,453.1,421,453.8z M418.4,452.3
			c-0.4,0-0.8,0.1-1.1,0.3c-0.3,0.2-0.5,0.5-0.5,0.9c-0.1,0.2-0.1,0.5-0.1,0.9c0,0,0,0.1,0.1,0.1h3.4c0,0,0.1,0,0.1-0.1
			c0-0.4,0-0.7-0.1-0.8c-0.1-0.4-0.3-0.7-0.6-0.9C419.2,452.5,418.9,452.3,418.4,452.3z M425,451.5c0.8,0,1.4,0.2,1.8,0.6
			c0.4,0.4,0.6,0.9,0.6,1.6v4.4c0,0.1,0,0.1-0.1,0.1h-0.7c-0.1,0-0.1,0-0.1-0.1v-0.5c0,0,0,0,0,0c0,0,0,0,0,0
			c-0.2,0.3-0.5,0.5-0.8,0.6c-0.3,0.1-0.7,0.2-1.2,0.2c-0.6,0-1.1-0.2-1.5-0.5c-0.4-0.3-0.6-0.8-0.6-1.4c0-0.6,0.2-1.2,0.7-1.5
			c0.5-0.4,1.1-0.6,2-0.6h1.5c0,0,0.1,0,0.1-0.1v-0.5c0-0.4-0.1-0.8-0.4-1c-0.2-0.3-0.6-0.4-1.1-0.4c-0.4,0-0.8,0.1-1,0.2
			c-0.3,0.2-0.4,0.4-0.5,0.7c0,0.1-0.1,0.1-0.2,0.1l-0.7-0.1c-0.1,0-0.1-0.1-0.1-0.1c0.1-0.5,0.3-0.9,0.8-1.2
			C423.8,451.7,424.3,451.5,425,451.5z M424.6,457.5c0.5,0,1-0.1,1.3-0.4c0.4-0.3,0.6-0.6,0.6-1v-1c0,0,0-0.1-0.1-0.1h-1.4
			c-0.6,0-1,0.1-1.4,0.4c-0.3,0.2-0.5,0.6-0.5,1c0,0.4,0.1,0.7,0.4,0.9C423.9,457.4,424.2,457.5,424.6,457.5z M429.4,458.2
			c-0.1,0-0.1,0-0.1-0.1v-8.8c0-0.1,0-0.1,0.1-0.1h0.7c0.1,0,0.1,0,0.1,0.1v8.8c0,0.1,0,0.1-0.1,0.1H429.4z M431.7,454.6
			c-0.1,0-0.1,0-0.1-0.1v-0.5c0-0.1,0-0.1,0.1-0.1h3.8c0.1,0,0.1,0,0.1,0.1v0.5c0,0.1,0,0.1-0.1,0.1H431.7z M442,449.1
			c0.1,0,0.1,0,0.1,0.1v0.6c0,0.1,0,0.1-0.1,0.1h-2.5c0,0-0.1,0-0.1,0.1v8.1c0,0.1,0,0.1-0.1,0.1h-0.7c-0.1,0-0.1,0-0.1-0.1V450
			c0,0,0-0.1-0.1-0.1H436c-0.1,0-0.1,0-0.1-0.1v-0.6c0-0.1,0-0.1,0.1-0.1H442z M444.1,450.4c-0.2,0-0.4-0.1-0.5-0.2
			c-0.1-0.1-0.2-0.3-0.2-0.5c0-0.2,0.1-0.4,0.2-0.5c0.1-0.1,0.3-0.2,0.5-0.2c0.2,0,0.4,0.1,0.5,0.2c0.1,0.1,0.2,0.3,0.2,0.5
			c0,0.2-0.1,0.4-0.2,0.5C444.5,450.4,444.3,450.4,444.1,450.4z M443.7,458.2c-0.1,0-0.1,0-0.1-0.1v-6.3c0-0.1,0-0.1,0.1-0.1h0.7
			c0.1,0,0.1,0,0.1,0.1v6.3c0,0.1,0,0.1-0.1,0.1H443.7z M453.3,451.5c0.7,0,1.2,0.2,1.5,0.6c0.4,0.4,0.6,0.9,0.6,1.6v4.4
			c0,0.1,0,0.1-0.1,0.1h-0.6c-0.1,0-0.1,0-0.1-0.1v-4.2c0-0.5-0.1-0.9-0.4-1.1c-0.3-0.3-0.6-0.4-1.1-0.4c-0.5,0-0.8,0.1-1.1,0.4
			c-0.3,0.3-0.4,0.6-0.4,1.1v4.2c0,0.1,0,0.1-0.1,0.1h-0.7c-0.1,0-0.1,0-0.1-0.1v-4.2c0-0.5-0.1-0.9-0.4-1.1
			c-0.3-0.3-0.6-0.4-1.1-0.4c-0.5,0-0.8,0.1-1.1,0.4c-0.3,0.3-0.4,0.6-0.4,1.1v4.2c0,0.1,0,0.1-0.1,0.1h-0.7c-0.1,0-0.1,0-0.1-0.1
			v-6.3c0-0.1,0-0.1,0.1-0.1h0.7c0.1,0,0.1,0,0.1,0.1v0.5c0,0,0,0,0,0c0,0,0,0,0.1,0c0.2-0.3,0.4-0.4,0.7-0.6c0.3-0.1,0.6-0.2,1-0.2
			c0.5,0,0.8,0.1,1.2,0.3c0.3,0.2,0.6,0.4,0.7,0.8c0,0,0,0,0.1,0c0.2-0.4,0.5-0.6,0.8-0.8C452.5,451.6,452.9,451.5,453.3,451.5z
			 M462.2,453.8c0,0.2,0.1,0.5,0.1,0.9v0.4c0,0.1,0,0.1-0.1,0.1H458c0,0-0.1,0-0.1,0.1c0,0.5,0,0.8,0.1,0.9c0.1,0.4,0.3,0.7,0.6,0.9
			s0.7,0.3,1.2,0.3c0.4,0,0.7-0.1,1-0.2c0.3-0.2,0.5-0.4,0.7-0.7c0.1-0.1,0.1-0.1,0.2-0.1l0.5,0.3c0.1,0,0.1,0.1,0.1,0.2
			c-0.2,0.4-0.5,0.7-1,1c-0.4,0.2-0.9,0.4-1.5,0.4c-0.6,0-1.1-0.2-1.5-0.4c-0.4-0.3-0.7-0.7-0.9-1.2c-0.2-0.4-0.2-1-0.2-1.8
			c0-0.4,0-0.7,0-0.9c0-0.2,0.1-0.4,0.1-0.6c0.1-0.6,0.4-1,0.9-1.4c0.5-0.3,1-0.5,1.6-0.5c0.8,0,1.4,0.2,1.8,0.6
			C461.9,452.5,462.1,453.1,462.2,453.8z M459.6,452.3c-0.4,0-0.8,0.1-1.1,0.3c-0.3,0.2-0.5,0.5-0.5,0.9c-0.1,0.2-0.1,0.5-0.1,0.9
			c0,0,0,0.1,0.1,0.1h3.4c0,0,0.1,0,0.1-0.1c0-0.4,0-0.7-0.1-0.8c-0.1-0.4-0.3-0.7-0.6-0.9C460.4,452.5,460.1,452.3,459.6,452.3z
			 M395,474.2c-0.1,0-0.1,0-0.1-0.1v-8.8c0-0.1,0-0.1,0.1-0.1h3.1c0.9,0,1.5,0.2,2,0.7c0.5,0.5,0.8,1.1,0.8,1.8v4.1
			c0,0.8-0.3,1.4-0.8,1.8c-0.5,0.5-1.2,0.7-2,0.7H395z M395.8,473.4C395.8,473.4,395.9,473.4,395.8,473.4l2.3,0.1
			c0.6,0,1-0.2,1.3-0.5c0.3-0.3,0.5-0.8,0.5-1.3v-3.8c0-0.6-0.2-1-0.5-1.3c-0.3-0.3-0.8-0.5-1.4-0.5h-2.3c0,0-0.1,0-0.1,0.1V473.4z
			 M404.8,467.5c0.8,0,1.4,0.2,1.8,0.6c0.4,0.4,0.6,0.9,0.6,1.6v4.4c0,0.1,0,0.1-0.1,0.1h-0.7c-0.1,0-0.1,0-0.1-0.1v-0.5
			c0,0,0,0,0,0c0,0,0,0,0,0c-0.2,0.3-0.5,0.5-0.8,0.6c-0.3,0.1-0.7,0.2-1.2,0.2c-0.6,0-1.1-0.2-1.5-0.5c-0.4-0.3-0.6-0.8-0.6-1.4
			c0-0.6,0.2-1.2,0.7-1.5c0.5-0.4,1.1-0.6,2-0.6h1.5c0,0,0.1,0,0.1-0.1v-0.5c0-0.4-0.1-0.8-0.4-1c-0.2-0.3-0.6-0.4-1.1-0.4
			c-0.4,0-0.8,0.1-1,0.2c-0.3,0.2-0.4,0.4-0.5,0.7c0,0.1-0.1,0.1-0.2,0.1l-0.7-0.1c-0.1,0-0.1-0.1-0.1-0.1c0.1-0.5,0.3-0.9,0.8-1.2
			C403.6,467.7,404.2,467.5,404.8,467.5z M404.5,473.5c0.5,0,1-0.1,1.3-0.4c0.4-0.3,0.6-0.6,0.6-1v-1c0,0,0-0.1-0.1-0.1h-1.4
			c-0.6,0-1,0.1-1.4,0.4c-0.3,0.2-0.5,0.6-0.5,1c0,0.4,0.1,0.7,0.4,0.9C403.7,473.4,404,473.5,404.5,473.5z M412,468.3
			c0,0.1,0,0.1-0.1,0.1h-1.5c0,0-0.1,0-0.1,0.1v3.8c0,0.4,0.1,0.7,0.3,0.9c0.2,0.2,0.5,0.2,0.9,0.2h0.3c0.1,0,0.1,0,0.1,0.1v0.5
			c0,0.1,0,0.1-0.1,0.1c-0.1,0-0.3,0-0.5,0c-0.6,0-1.1-0.1-1.4-0.4c-0.3-0.2-0.5-0.7-0.5-1.3v-4.1c0,0,0-0.1-0.1-0.1h-0.8
			c-0.1,0-0.1,0-0.1-0.1v-0.5c0-0.1,0-0.1,0.1-0.1h0.8c0,0,0.1,0,0.1-0.1v-1.5c0-0.1,0-0.1,0.1-0.1h0.6c0.1,0,0.1,0,0.1,0.1v1.5
			c0,0,0,0.1,0.1,0.1h1.5c0.1,0,0.1,0,0.1,0.1V468.3z M415.9,467.5c0.8,0,1.4,0.2,1.8,0.6c0.4,0.4,0.6,0.9,0.6,1.6v4.4
			c0,0.1,0,0.1-0.1,0.1h-0.7c-0.1,0-0.1,0-0.1-0.1v-0.5c0,0,0,0,0,0c0,0,0,0,0,0c-0.2,0.3-0.5,0.5-0.8,0.6c-0.3,0.1-0.7,0.2-1.2,0.2
			c-0.6,0-1.1-0.2-1.5-0.5c-0.4-0.3-0.6-0.8-0.6-1.4c0-0.6,0.2-1.2,0.7-1.5c0.5-0.4,1.1-0.6,2-0.6h1.5c0,0,0.1,0,0.1-0.1v-0.5
			c0-0.4-0.1-0.8-0.4-1c-0.2-0.3-0.6-0.4-1.1-0.4c-0.4,0-0.8,0.1-1,0.2c-0.3,0.2-0.4,0.4-0.5,0.7c0,0.1-0.1,0.1-0.2,0.1l-0.7-0.1
			c-0.1,0-0.1-0.1-0.1-0.1c0.1-0.5,0.3-0.9,0.8-1.2C414.7,467.7,415.2,467.5,415.9,467.5z M415.5,473.5c0.5,0,1-0.1,1.3-0.4
			c0.4-0.3,0.6-0.6,0.6-1v-1c0,0,0-0.1-0.1-0.1H416c-0.6,0-1,0.1-1.4,0.4c-0.3,0.2-0.5,0.6-0.5,1c0,0.4,0.1,0.7,0.4,0.9
			C414.8,473.4,415.1,473.5,415.5,473.5z M428.7,465.2c0-0.1,0.1-0.1,0.2-0.1h0.7c0.1,0,0.1,0,0.1,0.1v8.8c0,0.1,0,0.1-0.1,0.1h-0.7
			c-0.1,0-0.1,0-0.1-0.1v-7.2c0,0,0,0,0-0.1s0,0,0,0l-2.1,3.2c0,0.1-0.1,0.1-0.2,0.1h-0.3c-0.1,0-0.1,0-0.2-0.1l-2.1-3.2
			c0,0,0,0,0,0s0,0,0,0.1v7.2c0,0.1,0,0.1-0.1,0.1h-0.7c-0.1,0-0.1,0-0.1-0.1v-8.8c0-0.1,0-0.1,0.1-0.1h0.7c0.1,0,0.1,0,0.2,0.1
			l2.4,3.7c0,0,0,0,0,0s0,0,0,0L428.7,465.2z M434.3,474.3c-0.6,0-1.2-0.2-1.6-0.5c-0.5-0.3-0.8-0.8-0.9-1.3
			c-0.1-0.4-0.2-0.9-0.2-1.6s0.1-1.2,0.2-1.6c0.2-0.6,0.5-1,0.9-1.3c0.5-0.3,1-0.5,1.6-0.5c0.6,0,1.1,0.2,1.6,0.5
			c0.5,0.3,0.8,0.8,0.9,1.3c0.1,0.4,0.2,0.9,0.2,1.6c0,0.7-0.1,1.2-0.2,1.6c-0.2,0.6-0.5,1-0.9,1.3
			C435.4,474.2,434.9,474.3,434.3,474.3z M434.3,473.5c0.4,0,0.8-0.1,1.1-0.3c0.3-0.2,0.5-0.5,0.6-0.9c0.1-0.3,0.1-0.8,0.1-1.3
			c0-0.6,0-1-0.1-1.3c-0.1-0.4-0.3-0.7-0.6-0.9c-0.3-0.2-0.7-0.4-1.1-0.4c-0.4,0-0.8,0.1-1.1,0.4c-0.3,0.2-0.5,0.5-0.6,0.9
			c-0.1,0.3-0.1,0.7-0.1,1.3s0,1,0.1,1.3c0.1,0.4,0.3,0.7,0.6,0.9C433.5,473.4,433.8,473.5,434.3,473.5z M440.1,474.2
			c-0.1,0-0.1,0-0.2-0.1l-2.1-6.3l0-0.1c0-0.1,0-0.1,0.1-0.1h0.7c0.1,0,0.1,0,0.2,0.1l1.6,5.1c0,0,0,0,0,0s0,0,0,0l1.6-5.1
			c0-0.1,0.1-0.1,0.2-0.1l0.7,0c0.1,0,0.1,0,0.1,0.1l-2.1,6.3c0,0.1-0.1,0.1-0.2,0.1H440.1z M449.3,469.8c0,0.2,0.1,0.5,0.1,0.9v0.4
			c0,0.1,0,0.1-0.1,0.1h-4.2c0,0-0.1,0-0.1,0.1c0,0.5,0,0.8,0.1,0.9c0.1,0.4,0.3,0.7,0.6,0.9c0.3,0.2,0.7,0.3,1.2,0.3
			c0.4,0,0.7-0.1,1-0.2c0.3-0.2,0.5-0.4,0.6-0.7c0.1-0.1,0.1-0.1,0.2-0.1l0.5,0.3c0.1,0,0.1,0.1,0.1,0.2c-0.2,0.4-0.5,0.7-1,1
			c-0.4,0.2-0.9,0.4-1.5,0.4c-0.6,0-1.1-0.2-1.5-0.4c-0.4-0.3-0.7-0.7-0.9-1.2c-0.2-0.4-0.2-1-0.2-1.8c0-0.4,0-0.7,0-0.9
			c0-0.2,0.1-0.4,0.1-0.6c0.1-0.6,0.4-1,0.9-1.4c0.5-0.3,1-0.5,1.6-0.5c0.8,0,1.4,0.2,1.8,0.6C449,468.5,449.2,469.1,449.3,469.8z
			 M446.7,468.3c-0.4,0-0.8,0.1-1.1,0.3c-0.3,0.2-0.5,0.5-0.5,0.9c-0.1,0.2-0.1,0.5-0.1,0.9c0,0,0,0.1,0.1,0.1h3.4
			c0,0,0.1,0,0.1-0.1c0-0.4,0-0.7-0.1-0.8c-0.1-0.4-0.3-0.7-0.6-0.9C447.5,468.5,447.2,468.3,446.7,468.3z M457.8,467.5
			c0.6,0,1.2,0.2,1.5,0.6c0.4,0.4,0.6,0.9,0.6,1.6v4.4c0,0.1,0,0.1-0.1,0.1h-0.6c-0.1,0-0.1,0-0.1-0.1v-4.2c0-0.5-0.1-0.9-0.4-1.1
			c-0.3-0.3-0.6-0.4-1.1-0.4c-0.5,0-0.8,0.1-1.1,0.4c-0.3,0.3-0.4,0.6-0.4,1.1v4.2c0,0.1,0,0.1-0.1,0.1h-0.7c-0.1,0-0.1,0-0.1-0.1
			v-4.2c0-0.5-0.1-0.9-0.4-1.1c-0.3-0.3-0.6-0.4-1.1-0.4c-0.5,0-0.8,0.1-1.1,0.4c-0.3,0.3-0.4,0.6-0.4,1.1v4.2c0,0.1,0,0.1-0.1,0.1
			h-0.7c-0.1,0-0.1,0-0.1-0.1v-6.3c0-0.1,0-0.1,0.1-0.1h0.7c0.1,0,0.1,0,0.1,0.1v0.5c0,0,0,0,0,0c0,0,0,0,0.1,0
			c0.2-0.3,0.4-0.4,0.7-0.6c0.3-0.1,0.6-0.2,1-0.2c0.4,0,0.8,0.1,1.2,0.3c0.3,0.2,0.6,0.4,0.7,0.8c0,0,0,0,0.1,0
			c0.2-0.4,0.5-0.6,0.8-0.8C456.9,467.6,457.3,467.5,457.8,467.5z M466.7,469.8c0,0.2,0.1,0.5,0.1,0.9v0.4c0,0.1,0,0.1-0.1,0.1h-4.2
			c0,0-0.1,0-0.1,0.1c0,0.5,0,0.8,0.1,0.9c0.1,0.4,0.3,0.7,0.6,0.9c0.3,0.2,0.7,0.3,1.2,0.3c0.4,0,0.7-0.1,1-0.2
			c0.3-0.2,0.5-0.4,0.6-0.7c0.1-0.1,0.1-0.1,0.2-0.1l0.5,0.3c0.1,0,0.1,0.1,0.1,0.2c-0.2,0.4-0.5,0.7-1,1c-0.4,0.2-0.9,0.4-1.5,0.4
			c-0.6,0-1.1-0.2-1.5-0.4c-0.4-0.3-0.7-0.7-0.9-1.2c-0.2-0.4-0.2-1-0.2-1.8c0-0.4,0-0.7,0-0.9c0-0.2,0.1-0.4,0.1-0.6
			c0.1-0.6,0.4-1,0.9-1.4c0.5-0.3,1-0.5,1.6-0.5c0.8,0,1.4,0.2,1.8,0.6C466.3,468.5,466.6,469.1,466.7,469.8z M464.1,468.3
			c-0.4,0-0.8,0.1-1.1,0.3c-0.3,0.2-0.5,0.5-0.5,0.9c-0.1,0.2-0.1,0.5-0.1,0.9c0,0,0,0.1,0.1,0.1h3.4c0,0,0.1,0,0.1-0.1
			c0-0.4,0-0.7-0.1-0.8c-0.1-0.4-0.3-0.7-0.6-0.9C464.9,468.5,464.5,468.3,464.1,468.3z M471.2,467.5c0.7,0,1.2,0.2,1.7,0.6
			c0.4,0.4,0.6,1,0.6,1.6v4.3c0,0.1,0,0.1-0.1,0.1h-0.7c-0.1,0-0.1,0-0.1-0.1V470c0-0.5-0.1-0.9-0.4-1.2c-0.3-0.3-0.7-0.5-1.1-0.5
			c-0.5,0-0.9,0.1-1.2,0.4c-0.3,0.3-0.4,0.7-0.4,1.2v4.1c0,0.1,0,0.1-0.1,0.1h-0.7c-0.1,0-0.1,0-0.1-0.1v-6.3c0-0.1,0-0.1,0.1-0.1
			h0.7c0.1,0,0.1,0,0.1,0.1v0.6c0,0,0,0,0,0c0,0,0,0,0,0C469.8,467.8,470.4,467.5,471.2,467.5z M478.3,468.3c0,0.1,0,0.1-0.1,0.1
			h-1.5c0,0-0.1,0-0.1,0.1v3.8c0,0.4,0.1,0.7,0.3,0.9c0.2,0.2,0.5,0.2,0.9,0.2h0.3c0.1,0,0.1,0,0.1,0.1v0.5c0,0.1,0,0.1-0.1,0.1
			c-0.1,0-0.3,0-0.5,0c-0.6,0-1.1-0.1-1.4-0.4c-0.3-0.2-0.5-0.7-0.5-1.3v-4.1c0,0,0-0.1-0.1-0.1h-0.8c-0.1,0-0.1,0-0.1-0.1v-0.5
			c0-0.1,0-0.1,0.1-0.1h0.8c0,0,0.1,0,0.1-0.1v-1.5c0-0.1,0-0.1,0.1-0.1h0.6c0.1,0,0.1,0,0.1,0.1v1.5c0,0,0,0.1,0.1,0.1h1.5
			c0.1,0,0.1,0,0.1,0.1V468.3z"/>
		<path d="M373.2,75.2c-0.1,0-0.1,0-0.2-0.1l-0.5-1.6c0,0,0,0-0.1,0h-3.9c0,0,0,0-0.1,0l-0.5,1.6c0,0.1-0.1,0.1-0.2,0.1h-0.7
			c-0.1,0-0.1,0-0.1-0.1l2.9-8.9c0-0.1,0.1-0.1,0.2-0.1h0.9c0.1,0,0.1,0,0.2,0.1l2.9,8.9l0,0.1c0,0.1,0,0.1-0.1,0.1H373.2z
			 M368.8,72.6C368.8,72.6,368.8,72.7,368.8,72.6C368.8,72.7,368.8,72.7,368.8,72.6l3.4,0.1c0,0,0,0,0,0c0,0,0,0,0-0.1l-1.7-5.3
			c0,0,0,0,0,0c0,0,0,0,0,0L368.8,72.6z M378.1,68.5c0.7,0,1.2,0.2,1.7,0.6c0.4,0.4,0.6,1,0.6,1.6v4.3c0,0.1,0,0.1-0.1,0.1h-0.7
			c-0.1,0-0.1,0-0.1-0.1V71c0-0.5-0.1-0.9-0.4-1.2c-0.3-0.3-0.7-0.5-1.1-0.5c-0.5,0-0.9,0.1-1.2,0.4c-0.3,0.3-0.4,0.7-0.4,1.2v4.1
			c0,0.1,0,0.1-0.1,0.1h-0.7c-0.1,0-0.1,0-0.1-0.1v-6.3c0-0.1,0-0.1,0.1-0.1h0.7c0.1,0,0.1,0,0.1,0.1v0.6c0,0,0,0,0,0c0,0,0,0,0,0
			C376.7,68.8,377.3,68.5,378.1,68.5z M384.5,68.5c0.8,0,1.4,0.2,1.8,0.6c0.4,0.4,0.6,0.9,0.6,1.6v4.4c0,0.1,0,0.1-0.1,0.1h-0.7
			c-0.1,0-0.1,0-0.1-0.1v-0.5c0,0,0,0,0,0c0,0,0,0,0,0c-0.2,0.3-0.5,0.5-0.8,0.6c-0.3,0.1-0.7,0.2-1.2,0.2c-0.6,0-1.1-0.2-1.5-0.5
			c-0.4-0.3-0.6-0.8-0.6-1.4c0-0.6,0.2-1.2,0.7-1.5c0.5-0.4,1.1-0.6,2-0.6h1.5c0,0,0.1,0,0.1-0.1v-0.5c0-0.4-0.1-0.8-0.4-1
			c-0.2-0.3-0.6-0.4-1.1-0.4c-0.4,0-0.8,0.1-1,0.2c-0.3,0.2-0.4,0.4-0.5,0.7c0,0.1-0.1,0.1-0.2,0.1l-0.7-0.1c-0.1,0-0.1-0.1-0.1-0.1
			c0.1-0.5,0.3-0.9,0.8-1.2C383.3,68.7,383.9,68.5,384.5,68.5z M384.2,74.5c0.5,0,1-0.1,1.3-0.4c0.4-0.3,0.6-0.6,0.6-1v-1
			c0,0,0-0.1-0.1-0.1h-1.4c-0.6,0-1,0.1-1.4,0.4c-0.3,0.2-0.5,0.6-0.5,1c0,0.4,0.1,0.7,0.4,0.9C383.4,74.4,383.7,74.5,384.2,74.5z
			 M388.9,75.2c-0.1,0-0.1,0-0.1-0.1v-8.8c0-0.1,0-0.1,0.1-0.1h0.7c0.1,0,0.1,0,0.1,0.1v8.8c0,0.1,0,0.1-0.1,0.1H388.9z M391.3,77.8
			c-0.1,0-0.1,0-0.1-0.1v-0.5c0-0.1,0-0.1,0.1-0.1h0.1c0.3,0,0.6-0.1,0.8-0.2c0.2-0.1,0.4-0.3,0.5-0.5c0.1-0.2,0.3-0.6,0.4-1.1
			c0,0,0-0.1,0-0.1l-2.2-6.4l0-0.1c0-0.1,0-0.1,0.1-0.1h0.7c0.1,0,0.1,0,0.2,0.1l1.7,5.3c0,0,0,0,0,0c0,0,0,0,0,0l1.7-5.3
			c0-0.1,0.1-0.1,0.2-0.1h0.7c0.1,0,0.1,0,0.1,0.1l-2.4,7c-0.2,0.6-0.4,1-0.6,1.3c-0.2,0.3-0.4,0.5-0.7,0.6
			C392.3,77.8,391.9,77.8,391.3,77.8L391.3,77.8z M400.4,69.3c0,0.1,0,0.1-0.1,0.1h-1.5c0,0-0.1,0-0.1,0.1v3.8
			c0,0.4,0.1,0.7,0.3,0.9c0.2,0.2,0.5,0.2,0.9,0.2h0.3c0.1,0,0.1,0,0.1,0.1v0.5c0,0.1,0,0.1-0.1,0.1c-0.1,0-0.3,0-0.5,0
			c-0.6,0-1.1-0.1-1.4-0.4c-0.3-0.2-0.5-0.7-0.5-1.3v-4.1c0,0,0-0.1-0.1-0.1h-0.8c-0.1,0-0.1,0-0.1-0.1v-0.5c0-0.1,0-0.1,0.1-0.1
			h0.8c0,0,0.1,0,0.1-0.1v-1.5c0-0.1,0-0.1,0.1-0.1h0.6c0.1,0,0.1,0,0.1,0.1v1.5c0,0,0,0.1,0.1,0.1h1.5c0.1,0,0.1,0,0.1,0.1V69.3z
			 M402.7,67.4c-0.2,0-0.4-0.1-0.5-0.2c-0.1-0.1-0.2-0.3-0.2-0.5c0-0.2,0.1-0.4,0.2-0.5c0.1-0.1,0.3-0.2,0.5-0.2s0.4,0.1,0.5,0.2
			c0.1,0.1,0.2,0.3,0.2,0.5c0,0.2-0.1,0.4-0.2,0.5C403.1,67.4,402.9,67.4,402.7,67.4z M402.4,75.2c-0.1,0-0.1,0-0.1-0.1v-6.3
			c0-0.1,0-0.1,0.1-0.1h0.7c0.1,0,0.1,0,0.1,0.1v6.3c0,0.1,0,0.1-0.1,0.1H402.4z M407.8,75.3c-0.6,0-1.2-0.2-1.6-0.5
			c-0.4-0.3-0.7-0.8-0.9-1.3c-0.1-0.4-0.2-0.9-0.2-1.6c0-0.6,0.1-1.2,0.2-1.6c0.2-0.5,0.5-1,0.9-1.3c0.4-0.3,1-0.5,1.6-0.5
			c0.6,0,1.2,0.2,1.6,0.5c0.5,0.3,0.8,0.7,0.9,1.2c0,0.2,0.1,0.3,0.1,0.4v0c0,0.1,0,0.1-0.1,0.1l-0.6,0.1h0c-0.1,0-0.1,0-0.1-0.1
			l0-0.2c-0.1-0.3-0.3-0.6-0.6-0.8c-0.3-0.2-0.7-0.4-1.1-0.4c-0.4,0-0.8,0.1-1.1,0.4c-0.3,0.2-0.5,0.5-0.6,0.9
			c-0.1,0.3-0.1,0.8-0.1,1.3c0,0.6,0,1,0.1,1.3c0.1,0.4,0.3,0.7,0.6,0.9c0.3,0.2,0.7,0.3,1.1,0.3c0.4,0,0.8-0.1,1.1-0.3
			c0.3-0.2,0.5-0.5,0.6-0.9v-0.1l0-0.1c0-0.1,0.1-0.1,0.2-0.1l0.6,0.1c0.1,0,0.1,0.1,0.1,0.1l-0.1,0.3c-0.1,0.5-0.4,0.9-0.9,1.2
			C409,75.2,408.4,75.3,407.8,75.3z M414.1,75.3c-0.5,0-0.9-0.1-1.3-0.2c-0.4-0.2-0.7-0.4-0.9-0.6c-0.2-0.3-0.3-0.6-0.3-0.9v-0.2
			c0-0.1,0-0.1,0.1-0.1h0.6c0.1,0,0.1,0,0.1,0.1v0.1c0,0.3,0.1,0.5,0.4,0.8c0.3,0.2,0.7,0.3,1.1,0.3c0.5,0,0.8-0.1,1.1-0.3
			c0.3-0.2,0.4-0.5,0.4-0.8c0-0.2-0.1-0.4-0.2-0.5c-0.1-0.1-0.3-0.2-0.5-0.3c-0.2-0.1-0.5-0.2-0.9-0.3c-0.5-0.1-0.9-0.3-1.2-0.4
			c-0.3-0.1-0.6-0.3-0.8-0.6c-0.2-0.3-0.3-0.6-0.3-0.9c0-0.6,0.2-1,0.7-1.3c0.4-0.3,1-0.5,1.7-0.5c0.5,0,0.9,0.1,1.3,0.2
			c0.4,0.2,0.7,0.4,0.9,0.7c0.2,0.3,0.3,0.6,0.3,0.9v0c0,0.1,0,0.1-0.1,0.1h-0.6c-0.1,0-0.1,0-0.1-0.1v0c0-0.3-0.1-0.5-0.4-0.7
			c-0.3-0.2-0.7-0.3-1.1-0.3c-0.4,0-0.8,0.1-1.1,0.3c-0.3,0.2-0.4,0.4-0.4,0.7c0,0.3,0.1,0.5,0.4,0.7c0.3,0.2,0.7,0.3,1.2,0.5
			c0.5,0.1,0.9,0.3,1.2,0.4s0.6,0.3,0.8,0.6c0.2,0.2,0.3,0.6,0.3,1c0,0.6-0.2,1-0.7,1.4C415.4,75.1,414.8,75.3,414.1,75.3z"/>
		<path class="st11" d="M261.4,414.5c0,0.1,0,0.1,0,0.2c0.1,0.3,0.3,0.5,0.5,0.5c0.1,0,0.1,0,0.2,0l0,0c0,0,0,0,0,0l0,0
			c0.7-0.1,1.3-0.2,1.8-0.3c0,0,0,0,0,0l0,0c0.3-0.1,0.6-0.4,0.5-0.7c-0.1-0.3-0.3-0.5-0.5-0.5c-0.1,0-0.2,0-0.2,0
			c-0.6,0.1-1.2,0.2-1.8,0.3C261.7,414,261.5,414.3,261.4,414.5z M265.2,413.8c0,0.1,0,0.2,0,0.3c0.1,0.2,0.3,0.4,0.5,0.5
			c0.1,0,0.2,0,0.3,0c0.6-0.1,1.2-0.3,1.9-0.5c0.3-0.1,0.5-0.5,0.4-0.8c-0.1-0.2-0.3-0.4-0.5-0.4c-0.1,0-0.2,0-0.3,0
			c-0.6,0.2-1.2,0.3-1.8,0.5C265.4,413.3,265.2,413.5,265.2,413.8z M268.8,412.8c0,0.1,0,0.2,0,0.3c0.1,0.2,0.3,0.4,0.5,0.4
			c0.1,0,0.1,0,0.2,0l-0.1,0l0.2-0.1c0.6-0.2,1.2-0.4,1.8-0.6c0.3-0.1,0.5-0.5,0.3-0.8c-0.1-0.2-0.3-0.4-0.5-0.4c-0.1,0-0.2,0-0.3,0
			c-0.6,0.2-1.2,0.4-1.7,0.6l0,0C269,412.3,268.9,412.5,268.8,412.8z M272.4,411.4c0,0.1,0,0.2,0.1,0.4c0.1,0.2,0.3,0.3,0.5,0.4
			c0.1,0,0.2,0,0.4,0c0.6-0.2,1.2-0.5,1.7-0.8c0.3-0.1,0.4-0.5,0.3-0.8c-0.1-0.2-0.3-0.3-0.5-0.3c-0.1,0-0.3,0-0.4,0.1
			c-0.6,0.3-1.1,0.5-1.7,0.8C272.5,411,272.4,411.2,272.4,411.4z M275.7,409.7c0,0.1,0,0.3,0.1,0.4c0.1,0.2,0.3,0.3,0.5,0.3
			c0.1,0,0.3,0,0.4-0.1c0.5-0.3,1.1-0.6,1.6-1l0,0c0.3-0.2,0.4-0.6,0.2-0.9c-0.1-0.2-0.3-0.3-0.4-0.3c-0.2,0-0.3,0-0.4,0.1
			c-0.5,0.3-1.1,0.6-1.6,0.9C275.9,409.4,275.8,409.5,275.7,409.7z M278.9,407.7c0,0.2,0,0.3,0.1,0.5c0.1,0.1,0.3,0.2,0.4,0.3
			c0.2,0,0.3,0,0.5-0.1c0.5-0.4,1-0.8,1.5-1.1c0.3-0.2,0.3-0.6,0.1-0.9c-0.1-0.1-0.2-0.2-0.4-0.2c-0.2,0-0.4,0-0.5,0.1
			c-0.5,0.4-1,0.7-1.5,1.1C279,407.4,278.9,407.6,278.9,407.7z M281.9,405.4c0,0.2,0,0.4,0.2,0.5c0.1,0.1,0.2,0.2,0.4,0.2
			c0.2,0,0.4,0,0.5-0.1c0.5-0.4,1-0.9,1.4-1.3c0.2-0.2,0.2-0.6,0-0.9c-0.1-0.1-0.2-0.2-0.4-0.2c-0.2,0-0.4,0-0.5,0.2
			c-0.4,0.4-0.9,0.8-1.3,1.2l0,0C281.9,405.2,281.9,405.3,281.9,405.4z M284.5,402.8c0,0.2,0,0.4,0.2,0.6c0.1,0.1,0.2,0.1,0.3,0.2
			c0.2,0,0.4,0,0.6-0.2c0.4-0.5,0.8-0.9,1.2-1.4c0.2-0.3,0.2-0.7-0.1-0.9c-0.1-0.1-0.2-0.1-0.3-0.1c-0.2,0-0.5,0-0.6,0.2
			c-0.4,0.5-0.8,0.9-1.2,1.4C284.6,402.6,284.5,402.7,284.5,402.8z M286.9,399.9c0,0.2,0.1,0.5,0.3,0.6c0.1,0.1,0.2,0.1,0.3,0.1
			c0.2,0,0.5-0.1,0.6-0.2c0.4-0.5,0.7-1,1.1-1.5c0,0,0,0,0,0l0,0l0,0c0.2-0.3,0.1-0.7-0.2-0.8c-0.1-0.1-0.2-0.1-0.3-0.1
			c-0.3,0-0.5,0.1-0.6,0.3c-0.3,0.5-0.7,1-1,1.5C286.9,399.8,286.9,399.8,286.9,399.9z M288.9,396.8c0,0.3,0.1,0.5,0.3,0.6
			c0.1,0,0.1,0.1,0.2,0.1c0.3,0,0.5-0.1,0.6-0.3c0.3-0.5,0.6-1.1,0.9-1.6c0.2-0.3,0-0.7-0.3-0.9c-0.1,0-0.1-0.1-0.2-0.1
			c-0.3,0-0.5,0.1-0.7,0.3c-0.3,0.5-0.6,1.1-0.9,1.6C289,396.7,288.9,396.8,288.9,396.8z M290.7,393.6c0,0.3,0.1,0.6,0.4,0.7
			c0.1,0,0.1,0,0.2,0.1c0.3,0.1,0.6-0.1,0.7-0.3c0.3-0.6,0.5-1.1,0.8-1.7c0.1-0.3,0-0.7-0.4-0.8c0,0-0.1,0-0.2,0
			c-0.3,0-0.6,0.1-0.7,0.4c-0.2,0.5-0.4,1-0.7,1.5l-0.1,0.2C290.7,393.4,290.7,393.5,290.7,393.6z M292.1,390.1
			c0,0.3,0.1,0.6,0.4,0.7c0,0,0.1,0,0.1,0c0.3,0.1,0.6-0.1,0.7-0.4c0.2-0.6,0.4-1.2,0.6-1.8c0.1-0.3-0.1-0.7-0.4-0.8
			c0,0-0.1,0-0.1,0c-0.3,0-0.6,0.1-0.7,0.4c-0.2,0.6-0.4,1.2-0.6,1.7C292.1,390,292.1,390.1,292.1,390.1z M293.3,386.6
			c0,0.3,0.2,0.6,0.5,0.7c0,0,0.1,0,0.1,0c0.3,0.1,0.6-0.1,0.7-0.4c0.2-0.6,0.3-1.2,0.5-1.8c0.1-0.3-0.1-0.7-0.5-0.8c0,0,0,0-0.1,0
			c-0.3-0.1-0.6,0.1-0.7,0.5C293.6,385.3,293.5,385.9,293.3,386.6C293.3,386.5,293.3,386.6,293.3,386.6z M294.2,383
			c0,0.3,0.2,0.6,0.5,0.7c0,0,0,0,0,0c0.3,0.1,0.7-0.2,0.7-0.5c0.1-0.6,0.3-1.2,0.4-1.8l0,0c0.1-0.3-0.2-0.7-0.5-0.7l0,0
			c-0.3-0.1-0.7,0.2-0.7,0.5C294.4,381.8,294.3,382.4,294.2,383C294.2,383,294.2,383,294.2,383z M294.9,379.3L294.9,379.3
			c-0.1,0.4,0.2,0.7,0.5,0.7c0.2,0,0.3,0,0.5-0.1c0.1-0.1,0.2-0.2,0.3-0.4l0,0c0-0.3-0.2-0.7-0.5-0.7c-0.2,0-0.3,0-0.5,0.1
			C295,379,294.9,379.1,294.9,379.3z"/>
		<path class="st11" d="M291.9,381c0,0.2,0,0.4,0.2,0.6c0.3,0.2,0.7,0.2,0.9,0l2.6-2.7l1.7,3.4c0.2,0.3,0.5,0.4,0.9,0.3
			c0.3-0.2,0.4-0.5,0.3-0.8l-2.6-5.1l-3.8,4.1C292,380.8,291.9,380.9,291.9,381L291.9,381z"/>
		<path class="st11" d="M400.2,408.9c0,0.1,0,0.1,0,0.2c0,0.3-0.2,0.5-0.5,0.6c-0.1,0-0.1,0-0.2,0l0,0c0,0,0,0,0,0l0,0
			c-0.7-0.1-1.3-0.1-1.9-0.2c0,0,0,0,0,0l0,0c-0.3,0-0.6-0.4-0.5-0.7c0-0.3,0.2-0.5,0.5-0.5c0.1,0,0.2,0,0.2,0
			c0.6,0.1,1.2,0.1,1.9,0.2C399.9,408.5,400.2,408.7,400.2,408.9z M396.4,408.5c0,0.1,0,0.2,0,0.3c0,0.3-0.2,0.5-0.5,0.5
			c-0.1,0-0.2,0-0.3,0c-0.6-0.1-1.3-0.2-1.9-0.3c-0.3-0.1-0.6-0.4-0.5-0.7c0.1-0.2,0.2-0.4,0.5-0.5c0.1,0,0.2,0,0.3,0
			c0.6,0.1,1.2,0.2,1.9,0.3C396.2,408.1,396.4,408.2,396.4,408.5z M392.7,407.7c0,0.1,0,0.2,0,0.3c-0.1,0.2-0.2,0.4-0.5,0.5
			c-0.1,0-0.1,0-0.2,0l0.1,0l-0.2-0.1c-0.6-0.2-1.2-0.3-1.8-0.5c-0.3-0.1-0.5-0.5-0.4-0.8c0.1-0.2,0.2-0.4,0.5-0.4
			c0.1,0,0.2,0,0.3,0c0.6,0.2,1.2,0.3,1.8,0.5l0,0C392.5,407.3,392.6,407.5,392.7,407.7z M389,406.7c0,0.1,0,0.2,0,0.4
			c-0.1,0.2-0.3,0.4-0.5,0.4c-0.1,0-0.2,0-0.4,0c-0.6-0.2-1.2-0.4-1.8-0.7c-0.3-0.1-0.5-0.5-0.3-0.8c0.1-0.2,0.3-0.3,0.5-0.4
			c0.1,0,0.3,0,0.4,0c0.6,0.2,1.2,0.4,1.8,0.6C388.8,406.3,389,406.5,389,406.7z M385.5,405.3c0,0.1,0,0.3,0,0.4
			c-0.1,0.2-0.2,0.3-0.4,0.3c-0.1,0-0.3,0-0.4,0c-0.6-0.3-1.1-0.5-1.7-0.8l0,0c-0.3-0.2-0.4-0.5-0.2-0.8c0.1-0.2,0.2-0.3,0.4-0.3
			c0.2,0,0.3,0,0.5,0c0.5,0.3,1.1,0.6,1.7,0.8C385.3,404.9,385.5,405.1,385.5,405.3z M382.1,403.5c0,0.2,0,0.3-0.1,0.5
			c-0.1,0.1-0.2,0.2-0.4,0.3c-0.2,0-0.3,0-0.5-0.1c-0.6-0.3-1.1-0.7-1.6-1c-0.3-0.2-0.4-0.6-0.2-0.9c0.1-0.1,0.2-0.2,0.4-0.3
			c0.2,0,0.4,0,0.5,0.1c0.5,0.3,1,0.7,1.6,1C382,403.2,382.1,403.4,382.1,403.5z M379,401.5c0,0.2,0,0.4-0.1,0.5
			c-0.1,0.1-0.2,0.2-0.4,0.2c-0.2,0-0.4,0-0.5-0.1c-0.5-0.4-1-0.8-1.5-1.2c-0.3-0.2-0.3-0.6-0.1-0.9c0.1-0.1,0.2-0.2,0.4-0.2
			c0.2,0,0.4,0,0.6,0.1c0.5,0.4,0.9,0.8,1.4,1.1l0,0C378.9,401.2,379,401.3,379,401.5z M376.1,399.1c0,0.2,0,0.4-0.2,0.6
			c-0.1,0.1-0.2,0.2-0.3,0.2c-0.2,0.1-0.4,0-0.6-0.1c-0.5-0.4-0.9-0.9-1.4-1.3c-0.2-0.2-0.2-0.7,0-0.9c0.1-0.1,0.2-0.1,0.3-0.2
			c0.2-0.1,0.5,0,0.6,0.2c0.4,0.4,0.9,0.9,1.3,1.3C376,398.9,376.1,399,376.1,399.1z M373.5,396.4c0.1,0.2,0,0.5-0.2,0.6
			c-0.1,0.1-0.2,0.1-0.3,0.1c-0.2,0.1-0.5,0-0.6-0.2c-0.4-0.5-0.8-1-1.2-1.4c0,0,0,0,0,0l0,0l0,0c-0.2-0.3-0.1-0.7,0.2-0.9
			c0.1-0.1,0.2-0.1,0.2-0.1c0.3-0.1,0.5,0,0.7,0.2c0.4,0.5,0.8,1,1.2,1.4C373.5,396.2,373.5,396.3,373.5,396.4z M371.2,393.5
			c0.1,0.2,0,0.5-0.3,0.7c-0.1,0-0.1,0.1-0.2,0.1c-0.3,0.1-0.5,0-0.7-0.2c-0.4-0.5-0.7-1-1.1-1.6c-0.2-0.3-0.1-0.7,0.2-0.9
			c0.1,0,0.1-0.1,0.2-0.1c0.3-0.1,0.6,0,0.7,0.3c0.3,0.5,0.7,1,1,1.5C371.2,393.3,371.2,393.4,371.2,393.5z M369.2,390.3
			c0.1,0.3-0.1,0.6-0.3,0.7c-0.1,0-0.1,0.1-0.2,0.1c-0.3,0.1-0.6,0-0.7-0.3c-0.3-0.5-0.6-1.1-0.9-1.7c-0.2-0.3,0-0.7,0.3-0.9
			c0,0,0.1,0,0.2-0.1c0.3-0.1,0.6,0.1,0.7,0.3c0.3,0.5,0.5,1,0.8,1.4l0.1,0.2C369.2,390.2,369.2,390.3,369.2,390.3z M367.5,387
			c0.1,0.3-0.1,0.6-0.4,0.7c0,0-0.1,0-0.1,0c-0.3,0.1-0.6-0.1-0.7-0.3c-0.3-0.6-0.5-1.1-0.8-1.7c-0.1-0.3,0-0.7,0.4-0.8
			c0,0,0.1,0,0.1,0c0.3-0.1,0.6,0.1,0.7,0.4c0.2,0.6,0.5,1.1,0.7,1.7C367.5,386.9,367.5,387,367.5,387z M366,383.6
			c0.1,0.3-0.1,0.6-0.4,0.7c0,0-0.1,0-0.1,0c-0.3,0.1-0.6-0.1-0.7-0.4c-0.2-0.6-0.4-1.2-0.6-1.8c-0.1-0.3,0.1-0.7,0.4-0.8
			c0,0,0,0,0.1,0c0.3-0.1,0.6,0.1,0.8,0.4C365.6,382.4,365.8,382.9,366,383.6C366,383.5,366,383.6,366,383.6z M364.9,380.1
			c0.1,0.3-0.1,0.7-0.5,0.8c0,0,0,0,0,0c-0.3,0.1-0.7-0.1-0.8-0.4c-0.2-0.6-0.3-1.2-0.5-1.8l0,0c-0.1-0.3,0.1-0.7,0.5-0.8l0,0
			c0.3-0.1,0.7,0.1,0.8,0.4C364.5,378.9,364.7,379.5,364.9,380.1C364.8,380,364.9,380.1,364.9,380.1z M363.9,376.4L363.9,376.4
			c0.1,0.4-0.1,0.7-0.5,0.8c-0.2,0-0.3,0-0.5-0.1c-0.1-0.1-0.2-0.2-0.3-0.4l0,0c-0.1-0.3,0.1-0.7,0.5-0.8c0.2,0,0.3,0,0.5,0.1
			C363.8,376.1,363.9,376.3,363.9,376.4z"/>
		<path class="st11" d="M363.7,375.4C363.7,375.4,363.7,375.4,363.7,375.4c0.1,0.3,0.1,0.6,0.2,0.9v0c0.1,0.3-0.1,0.7-0.5,0.8
			c-0.4,0.1-0.7-0.1-0.8-0.5c-0.1-0.3-0.1-0.6-0.2-0.9c-0.1-0.3,0.1-0.7,0.5-0.8C363.3,374.8,363.6,375,363.7,375.4z"/>
		<path class="st11" d="M367,378c0,0.2,0,0.4-0.2,0.6c-0.2,0.3-0.6,0.3-0.9,0l-2.8-2.5l-1.5,3.6c-0.1,0.3-0.5,0.5-0.8,0.4
			c-0.3-0.1-0.5-0.5-0.3-0.8l2.2-5.3l4.1,3.7C366.9,377.8,367,377.9,367,378L367,378z"/>
		<path class="st13" d="M261.7,295.6c0,3.8-1.1,6.6-3.2,8.6c-2.1,2-5.2,3-9.3,3h-6.5v-22.8h7.2c3.7,0,6.6,1,8.7,3
			C260.6,289.3,261.7,292,261.7,295.6z M256.6,295.7c0-4.9-2.2-7.4-6.5-7.4h-2.6v14.9h2.1C254.3,303.2,256.6,300.7,256.6,295.7z"/>
		<path class="st13" d="M277.8,307.2l-0.9-2.4h-0.1c-0.8,1-1.6,1.7-2.5,2.1c-0.8,0.4-1.9,0.6-3.3,0.6c-1.7,0-3-0.5-4-1.4
			c-1-1-1.4-2.3-1.4-4.1c0-1.9,0.6-3.2,1.9-4.1c1.3-0.9,3.3-1.4,5.9-1.5l3-0.1v-0.8c0-1.8-0.9-2.7-2.7-2.7c-1.4,0-3,0.4-4.9,1.3
			l-1.6-3.2c2-1.1,4.2-1.6,6.7-1.6c2.3,0,4.1,0.5,5.4,1.5s1.9,2.6,1.9,4.7v11.6H277.8z M276.4,299.1l-1.8,0.1
			c-1.4,0-2.4,0.3-3.1,0.8c-0.7,0.5-1,1.2-1,2.1c0,1.3,0.8,2,2.3,2c1.1,0,2-0.3,2.6-1c0.7-0.6,1-1.5,1-2.5V299.1z"/>
		<path class="st13" d="M294,303.7c0.8,0,1.8-0.2,3-0.5v3.5c-1.2,0.5-2.6,0.8-4.4,0.8c-1.9,0-3.3-0.5-4.2-1.4
			c-0.9-1-1.3-2.4-1.3-4.3v-8.4h-2.3v-2l2.6-1.6l1.4-3.7h3v3.7h4.9v3.6h-4.9v8.4c0,0.7,0.2,1.2,0.6,1.5
			C292.9,303.6,293.4,303.7,294,303.7z"/>
		<path class="st13" d="M312.3,307.2l-0.9-2.4h-0.1c-0.8,1-1.6,1.7-2.5,2.1c-0.8,0.4-1.9,0.6-3.3,0.6c-1.7,0-3-0.5-4-1.4
			c-1-1-1.4-2.3-1.4-4.1c0-1.9,0.6-3.2,1.9-4.1c1.3-0.9,3.3-1.4,5.9-1.5l3-0.1v-0.8c0-1.8-0.9-2.7-2.7-2.7c-1.4,0-3,0.4-4.9,1.3
			l-1.6-3.2c2-1.1,4.2-1.6,6.7-1.6c2.3,0,4.1,0.5,5.4,1.5s1.9,2.6,1.9,4.7v11.6H312.3z M310.9,299.1l-1.8,0.1
			c-1.4,0-2.4,0.3-3.1,0.8c-0.7,0.5-1,1.2-1,2.1c0,1.3,0.8,2,2.3,2c1.1,0,2-0.3,2.6-1c0.7-0.6,1-1.5,1-2.5V299.1z"/>
		<path class="st13" d="M326.9,307.2v-22.8h4.8v18.8h9.3v4H326.9z"/>
		<path class="st13" d="M356.4,307.2l-0.9-2.4h-0.1c-0.8,1-1.6,1.7-2.5,2.1c-0.8,0.4-1.9,0.6-3.3,0.6c-1.7,0-3-0.5-4-1.4
			c-1-1-1.4-2.3-1.4-4.1c0-1.9,0.6-3.2,1.9-4.1c1.3-0.9,3.3-1.4,5.9-1.5l3-0.1v-0.8c0-1.8-0.9-2.7-2.7-2.7c-1.4,0-3,0.4-4.9,1.3
			l-1.6-3.2c2-1.1,4.2-1.6,6.7-1.6c2.3,0,4.1,0.5,5.4,1.5s1.9,2.6,1.9,4.7v11.6H356.4z M355,299.1l-1.8,0.1c-1.4,0-2.4,0.3-3.1,0.8
			c-0.7,0.5-1,1.2-1,2.1c0,1.3,0.8,2,2.3,2c1.1,0,2-0.3,2.6-1c0.7-0.6,1-1.5,1-2.5V299.1z"/>
		<path class="st13" d="M369.9,297.7l2.1-2.7l4.9-5.3h5.4l-6.9,7.6l7.4,9.9h-5.5l-5-7.1l-2,1.6v5.4h-4.8v-24.3h4.8v10.8L369.9,297.7
			L369.9,297.7z"/>
		<path class="st13" d="M392.7,292.8c-1,0-1.8,0.3-2.4,1c-0.6,0.6-0.9,1.5-1,2.7h6.7c0-1.2-0.3-2.1-0.9-2.7
			C394.5,293.1,393.7,292.8,392.7,292.8z M393.4,307.5c-2.8,0-5-0.8-6.6-2.3c-1.6-1.6-2.4-3.8-2.4-6.6c0-2.9,0.7-5.2,2.2-6.8
			c1.5-1.6,3.5-2.4,6.1-2.4c2.5,0,4.4,0.7,5.8,2.1c1.4,1.4,2.1,3.3,2.1,5.8v2.3h-11.3c0.1,1.4,0.5,2.4,1.2,3.2s1.8,1.1,3.2,1.1
			c1.1,0,2-0.1,3-0.3c0.9-0.2,1.9-0.6,2.9-1v3.7c-0.8,0.4-1.7,0.7-2.7,0.9C395.9,307.4,394.7,307.5,393.4,307.5z"/>
	</g>
</g>
</svg>
