<svg width="68" height="67" viewBox="0 0 68 67" fill="none" xmlns="http://www.w3.org/2000/svg">
<path d="M24.1454 47.2909C26.7582 47.2909 29.2563 46.5327 31.3836 45.12L40.4709 55.7018C41.1473 56.4873 42.1236 56.9564 43.1546 57H43.2909C44.2673 57 45.2164 56.6073 45.9146 55.9091C46.64 55.1836 47.0382 54.18 47 53.1546C46.9564 52.1236 46.4873 51.1473 45.7018 50.4709L35.12 41.3836C36.5327 39.2563 37.2909 36.7582 37.2909 34.1454C37.2909 30.6327 35.9218 27.3327 33.44 24.8509C30.9582 22.3691 27.6582 21 24.1454 21C20.6327 21 17.3327 22.3691 14.8509 24.8509C12.3691 27.3327 11 30.6327 11 34.1454C11 37.6582 12.3691 40.9582 14.8509 43.44C17.3327 45.9218 20.6327 47.2909 24.1454 47.2909ZM15.62 25.62C17.9 23.3454 20.9273 22.0909 24.1454 22.0909C27.3636 22.0909 30.3909 23.3454 32.6654 25.62C34.9455 27.9 36.2 30.9273 36.2 34.1454C36.2 37.3636 34.9455 40.3909 32.6654 42.6654C30.3909 44.9454 27.3636 46.2 24.1454 46.2C20.9273 46.2 17.9 44.9454 15.62 42.6654C13.3454 40.3909 12.0909 37.3636 12.0909 34.1454C12.0909 30.9273 13.3454 27.9 15.62 25.62Z" fill="white"/>
<path d="M24.1457 44.6239C26.9439 44.6239 29.5785 43.5385 31.5585 41.5585C33.5385 39.5785 34.6239 36.9439 34.6239 34.1457C34.6239 32.7494 34.3512 31.3857 33.833 30.1312C33.3148 28.8767 32.5457 27.7203 31.5585 26.733C29.5785 24.753 26.9439 23.6621 24.1457 23.6621C21.3475 23.6621 18.713 24.753 16.733 26.733C14.753 28.713 13.6621 31.3475 13.6621 34.1457C13.6621 36.9439 14.753 39.5785 16.733 41.5585C18.713 43.5385 21.3475 44.6239 24.1457 44.6239ZM22.9241 39.2741C22.9241 39.5753 22.6799 39.8195 22.3787 39.8195C22.0774 39.8195 21.8332 39.5753 21.8332 39.2741V35.6892C21.8332 35.388 22.0774 35.1438 22.3787 35.1438C22.6799 35.1438 22.9241 35.388 22.9241 35.6892V39.2741ZM26.4983 39.2741C26.4983 39.5753 26.2541 39.8195 25.9529 39.8195C25.6517 39.8195 25.4074 39.5753 25.4074 39.2741V32.2729C25.4074 31.9717 25.6517 31.7275 25.9529 31.7275C26.2541 31.7275 26.4983 31.9717 26.4983 32.2729V39.2741ZM30.0723 39.2741C30.0723 39.5753 29.8281 39.8195 29.5268 39.8195C29.2256 39.8195 28.9814 39.5753 28.9814 39.2741V34.0923C28.9814 33.791 29.2256 33.5468 29.5268 33.5468C29.8281 33.5468 30.0723 33.791 30.0723 34.0923V39.2741ZM18.3466 29.2601C18.5104 29.0071 18.8471 28.9349 19.1011 29.099L21.9286 30.9311L25.653 28.4803C25.7949 28.3866 25.9721 28.3653 26.1316 28.4207L29.9474 29.7441C30.2321 29.8429 30.3828 30.1534 30.284 30.4381C30.1852 30.7231 29.8736 30.8741 29.59 30.7748L26.0283 29.5395L22.2308 32.0383C22.1398 32.0982 22.0354 32.128 21.931 32.128C21.8279 32.128 21.7245 32.0987 21.6343 32.0404L18.5077 30.0147C18.255 29.8509 18.1828 29.5132 18.3466 29.2601ZM18.259 33.5055C18.259 33.2043 18.5032 32.9601 18.8044 32.9601C19.1057 32.9601 19.3499 33.2043 19.3499 33.5055V39.2741C19.3499 39.5753 19.1057 39.8195 18.8044 39.8195C18.5032 39.8195 18.259 39.5753 18.259 39.2741V33.5055Z" fill="white"/>
<path d="M64.9867 57.9219C65.6407 58.5365 66.0087 59.3691 66.0227 60.2665C66.0367 61.1638 65.695 62.0076 65.0603 62.6421L61.9958 65.7066C61.3739 66.3286 60.5508 66.6693 59.6732 66.6693C59.6555 66.6693 59.6379 66.6692 59.6202 66.669C58.7229 66.6548 57.8902 66.2871 57.2759 65.6329L35.2207 42.1552L41.5931 35.9463L64.9867 57.9219Z" fill="#26640A"/>
<path d="M44.2923 38.4817C43.055 40.1918 41.6131 41.7446 40.0027 43.1034L62.3008 65.4014L61.9958 65.7063C61.3739 66.3283 60.5508 66.6691 59.6732 66.6691C59.6555 66.6691 59.6379 66.669 59.6202 66.6687C58.7229 66.6546 57.8902 66.2868 57.2759 65.6327L35.2207 42.1552L41.5931 35.9463L44.2923 38.4817Z" fill="#164600"/>
<path d="M23.4292 0C36.3481 0 46.8584 10.5104 46.8584 23.4292C46.8584 36.3479 36.3481 46.8584 23.4292 46.8584C10.5103 46.8584 0 36.3478 0 23.429C0 10.5102 10.5103 0 23.4292 0Z" fill="#8E959F"/>
<path d="M23.4292 3.28711C34.5356 3.28711 43.5713 12.3229 43.5713 23.4292C43.5713 34.5356 34.5356 43.5712 23.4292 43.5712C12.3229 43.5712 3.28711 34.5354 3.28711 23.4291C3.28711 12.3227 12.3227 3.28711 23.4292 3.28711Z" fill="#68727E"/>
<path d="M23.4279 5.59473C33.2616 5.59473 41.262 13.595 41.262 23.4289C41.262 33.2627 33.2616 41.263 23.4279 41.263C13.5941 41.263 5.59375 33.2626 5.59375 23.4289C5.59375 13.5951 13.594 5.59473 23.4279 5.59473Z" fill="#ECEDEF"/>
<path d="M23.4297 7.76367C32.068 7.76367 39.0958 14.7914 39.0958 23.4297C39.0958 32.068 32.0679 39.0958 23.4297 39.0958C14.7915 39.0958 7.76367 32.068 7.76367 23.4297C7.76367 14.7914 14.7914 7.76367 23.4297 7.76367Z" fill="#F6F6F7"/>
<path d="M23.4283 34.6192C17.2481 34.6192 12.2383 29.6092 12.2383 23.4292C12.2383 17.2492 17.2483 12.2393 23.4283 12.2393C29.6082 12.2393 34.6182 17.2492 34.6182 23.4292H23.4283V34.6192Z" fill="#04B3F4"/>
<path d="M23.4297 34.6187V23.4287H34.6197C34.6197 29.6086 29.6098 34.6187 23.4297 34.6187Z" fill="#FFC700"/>
<path d="M5.52567 54.6924H25.6678C26.2471 54.6924 26.7169 54.2229 26.7169 53.6433V49.1673C26.7169 48.5878 26.2472 48.1182 25.6678 48.1182C25.0883 48.1182 24.6187 48.5877 24.6187 49.1673V52.5942H5.52567C4.94635 52.5942 4.47656 53.0638 4.47656 53.6433C4.47656 54.2229 4.94635 54.6924 5.52567 54.6924Z" fill="#8E959F"/>
<path d="M23.43 59.1675H25.6679C26.2473 59.1675 26.717 58.698 26.717 58.1184C26.717 57.5389 26.2474 57.0693 25.6679 57.0693H23.43C22.8506 57.0693 22.3809 57.5389 22.3809 58.1184C22.3809 58.698 22.8505 59.1675 23.43 59.1675Z" fill="#8E959F"/>
<path d="M5.52567 59.1675H18.9537C19.5331 59.1675 20.0028 58.698 20.0028 58.1184C20.0028 57.5389 19.5332 57.0693 18.9537 57.0693H5.52567C4.94635 57.0693 4.47656 57.5389 4.47656 58.1184C4.47656 58.698 4.94635 59.1675 5.52567 59.1675Z" fill="#8E959F"/>
<path d="M5.52567 63.6441H18.9537C19.5331 63.6441 20.0028 63.1746 20.0028 62.595C20.0028 62.0154 19.5332 61.5459 18.9537 61.5459H5.52567C4.94635 61.5459 4.47656 62.0154 4.47656 62.595C4.47656 63.1746 4.94635 63.6441 5.52567 63.6441Z" fill="#FB4B00"/>
<path d="M49.1663 20.003C49.7456 20.003 50.2154 19.5335 50.2154 18.9539V15.5269H65.9514C66.5308 15.5269 67.0005 15.0574 67.0005 14.4778C67.0005 13.8982 66.5309 13.4287 65.9514 13.4287H49.1663C48.587 13.4287 48.1172 13.8982 48.1172 14.4778V18.9539C48.1172 19.5333 48.587 20.003 49.1663 20.003Z" fill="#8E959F"/>
<path d="M49.1663 11.0513H51.4043C51.9836 11.0513 52.4534 10.5818 52.4534 10.0022C52.4534 9.42278 51.9837 8.95312 51.4043 8.95312H49.1663C48.587 8.95312 48.1172 9.42265 48.1172 10.0022C48.1172 10.5818 48.587 11.0513 49.1663 11.0513Z" fill="#8E959F"/>
<path d="M55.8811 11.0513H65.9521C66.5314 11.0513 67.0012 10.5818 67.0012 10.0022C67.0012 9.42278 66.5316 8.95312 65.9521 8.95312H55.8811C55.3018 8.95312 54.832 9.42265 54.832 10.0022C54.832 10.5818 55.3018 11.0513 55.8811 11.0513Z" fill="#8E959F"/>
<path d="M55.8811 6.57477H65.9521C66.5314 6.57477 67.0012 6.10525 67.0012 5.52567C67.0012 4.94609 66.5316 4.47656 65.9521 4.47656H55.8811C55.3018 4.47656 54.832 4.94609 54.832 5.52567C54.832 6.10525 55.3018 6.57477 55.8811 6.57477Z" fill="#FB4B00"/>
</svg>
