<svg xmlns="http://www.w3.org/2000/svg" viewBox="0 0 84 67">
  <path d="M46.776 40.11c-1.27 0-2.51-.126-3.71-.364v24.423h7.127V39.802c-1.109.202-2.25.309-3.417.309z" fill="#00ADEE"/>
  <path d="M37.792 64.17V44.866a.604.604 0 00-.605-.604H31.27a.604.604 0 00-.605.604V64.17h7.128z" fill="#FFC700"/>
  <path d="M25.39 64.17V34.16a.604.604 0 00-.604-.604h-5.919a.604.604 0 00-.604.605V64.17h7.127z" fill="#00ADEE"/>
  <path d="M12.988 64.17V22.06a.604.604 0 00-.605-.605H6.465a.604.604 0 00-.605.605v42.11h7.128z" fill="#164600"/>
  <path d="M54.827 66.462h-53.6a1.228 1.228 0 110-2.456h53.6a1.228 1.228 0 010 2.456z" fill="#A8D3D8"/>
  <path d="M67.884 38.374l-5.898-5.899a19.149 19.149 0 01-3.852 3.853l5.898 5.898 3.852-3.852z" fill="#A7D2E3"/>
  <path d="M83.095 54.28l-3.05 3.05a2.493 2.493 0 01-3.525 0L63.317 44.126a1.008 1.008 0 010-1.424l5.15-5.15a1.008 1.008 0 011.424 0l13.204 13.203a2.493 2.493 0 010 3.525zM46.779 1.963c-3.122 0-6.07.747-8.674 2.072v8.05c0 .184-.15.334-.334.334h-8.063a19.076 19.076 0 00-2.085 8.7c0 10.58 8.576 19.157 19.156 19.157 10.58 0 19.156-8.577 19.156-19.157S57.358 1.963 46.779 1.963z" fill="#4596B4"/>
  <path d="M47 5a15.934 15.934 0 00-10.653 4.075v.828a.412.412 0 01-.411.412h-.833A15.935 15.935 0 0030.999 21c0 8.823 7.178 16 16 16 8.823 0 16-7.177 16-16 0-8.822-7.177-16-16-16z" fill="#C8EFFE"/>
  <path d="M36.467 21c0-7.205 4.357-13.393 10.532-15.993-.086-.001-.171-.007-.258-.007-4.022 0-7.695 1.543-10.48 4.075v.828a.408.408 0 01-.405.412h-.82A16.083 16.083 0 0031 21c0 8.823 7.062 16 15.742 16 .086 0 .172-.005.258-.006-6.175-2.6-10.532-8.787-10.532-15.994z" fill="#99E6FC"/>
  <path d="M46.711 21.283h8.142l.403-.164c0-4.674-3.803-8.476-8.477-8.476a8.45 8.45 0 00-5.995 2.49l.194.424 5.733 5.726z" fill="#FB4B00"/>
  <path d="M46.778 21.119h8.476c0 4.65-3.826 8.477-8.476 8.477S38.3 25.769 38.3 21.119a8.48 8.48 0 012.48-5.99l5.997 5.99z" fill="#00ADEE"/>
  <path d="M37.769 12.583H6.359a.498.498 0 01-.499-.498V.707c0-.275.223-.498.499-.498h31.41c.275 0 .498.223.498.498v11.376a.499.499 0 01-.498.499z" fill="#FB4B00"/>
  <path d="M15.485 7.624h-4.142a1.228 1.228 0 110-2.456h4.142a1.228 1.228 0 110 2.456zm17.296 0H19.32a1.228 1.228 0 110-2.456h13.46a1.228 1.228 0 110 2.456z" fill="#B73235"/>
</svg>
