<svg width="77" height="17" viewBox="0 0 77 17" fill="none" xmlns="http://www.w3.org/2000/svg">
<path d="M32 8.5C32 4.91824 34.9182 2 38.5 2C42.0818 2 45 4.91824 45 8.5C45 12.0818 42.0818 15 38.5 15C34.9182 15 32 12.0818 32 8.5Z" fill="#00ADEE" fill-opacity="0.2" stroke="#00ADEE" stroke-width="4"/>
<path d="M2 8.5C2 5.0244 5.03333 2 9 2C12.9667 2 16 5.0244 16 8.5C16 11.9756 12.9667 15 9 15C5.03333 15 2 11.9756 2 8.5Z" fill="#005676" fill-opacity="0.3" stroke="#005676" stroke-width="4"/>
<path d="M61 8.5C61 5.0244 64.0333 2 68 2C71.9667 2 75 5.0244 75 8.5C75 11.9756 71.9667 15 68 15C64.0333 15 61 11.9756 61 8.5Z" fill="#FFC700" fill-opacity="0.2" stroke="#FFC700" stroke-width="4"/>
</svg>
