<svg width="77" height="17" viewBox="0 0 77 17" fill="none" xmlns="http://www.w3.org/2000/svg">
<path d="M38.5 0C33.8137 0 30 3.81367 30 8.5C30 13.1863 33.8137 17 38.5 17C43.1863 17 47 13.1863 47 8.5C47 3.81367 43.1863 0 38.5 0Z" fill="#00ADEE"/>
<path d="M9 0C4.038 0 0 3.81367 0 8.5C0 13.1863 4.038 17 9 17C13.962 17 18 13.1863 18 8.5C18 3.81367 13.962 0 9 0Z" fill="#005676"/>
<path d="M68 0C63.038 0 59 3.81367 59 8.5C59 13.1863 63.038 17 68 17C72.962 17 77 13.1863 77 8.5C77 3.81367 72.962 0 68 0Z" fill="#FFC700"/>
</svg>
