<svg width="78" height="32" viewBox="0 0 78 32" fill="none" xmlns="http://www.w3.org/2000/svg">
<g clip-path="url(#clip0)">
<path d="M0 26.4852H1.91226C3.5871 26.4852 4.55742 27.2594 4.55742 29.0658V29.2387C4.55742 31.0142 3.64129 31.9148 1.92 31.9148H0V26.4852ZM1.90194 31.0142C2.84129 31.0142 3.28 30.5523 3.28 29.3161V29.0426C3.28 27.7523 2.76387 27.3755 1.84 27.3755H1.20774V31.0142H1.90194Z" fill="#58595B"/>
<path d="M7.3109 26.4852H8.56252L10.4722 31.9045H9.24381L8.81284 30.6529H6.89542L6.47219 31.9045H5.38574L7.3109 26.4852ZM7.15348 29.8245H8.53929L7.858 27.8065H7.82703L7.15348 29.8245Z" fill="#58595B"/>
<path d="M12.3096 27.3755H10.8154V26.4826H15.009V27.3755H13.507V31.9045H12.3096V27.3755Z" fill="#58595B"/>
<path d="M17.2645 26.4852H18.5161L20.4258 31.9045H19.1974L18.7665 30.6529H16.849L16.4258 31.9045H15.3394L17.2645 26.4852ZM17.1071 29.8245H18.4929L17.8065 27.8065H17.7806L17.1071 29.8245Z" fill="#58595B"/>
<path d="M23.6748 29.2929V29.0968C23.6748 27.1252 24.8413 26.3897 26.289 26.3897C26.7637 26.3694 27.2368 26.4577 27.6722 26.6477V27.5484C27.2801 27.3981 26.8638 27.3212 26.4438 27.3213C25.5355 27.3213 24.9574 27.8065 24.9574 28.9884V29.2465C24.9574 30.4052 25.3651 31.0529 26.4516 31.0529C26.8888 31.0553 27.3213 30.9619 27.7187 30.7794V31.6723C27.2454 31.8969 26.7248 32.004 26.2013 31.9845C24.6348 32 23.6748 31.1303 23.6748 29.2929Z" fill="#58595B"/>
<path d="M28.8232 29.2852V29.1123C28.8232 27.2903 29.9329 26.3897 31.3807 26.3897C32.8284 26.3897 33.8916 27.2594 33.8916 29.0968V29.2697C33.8916 31.0993 32.7819 32 31.3419 32C29.9019 32 28.8232 31.1303 28.8232 29.2852ZM32.6245 29.3781V29.1045C32.6245 27.9226 32.2658 27.2981 31.3342 27.2981C30.4981 27.2981 30.0826 27.9406 30.0826 29.0194V29.2774C30.0826 30.4826 30.4671 31.0993 31.3574 31.0993C32.209 31.0993 32.6245 30.4516 32.6245 29.3781Z" fill="#58595B"/>
<path d="M35.3907 26.4852H36.7042L38.7533 29.9974H38.7765V26.4852H39.8087V31.9045H38.6423L36.4436 28.1032H36.4126V31.9045H35.3804L35.3907 26.4852Z" fill="#58595B"/>
<path d="M41.5483 26.4852H45.058V27.3781H42.7587V28.8413H44.5496V29.7239H42.7587V31.9071H41.5483V26.4852Z" fill="#58595B"/>
<path d="M46.4282 26.4852H49.9637V27.3781H47.6179V28.6916H49.4398V29.5665H47.6179V31.0142H50.0205V31.9071H46.4282V26.4852Z" fill="#58595B"/>
<path d="M51.543 26.4852H53.5456C54.8359 26.4852 55.5094 27.0013 55.5094 28.1136C55.5307 28.4184 55.4489 28.7215 55.2771 28.9743C55.1053 29.227 54.8536 29.4147 54.5623 29.5071V29.5381L55.8527 31.9097H54.5804L53.463 29.8065H52.743V31.9097H51.5456L51.543 26.4852ZM53.3959 29.0271C54.0385 29.0271 54.2965 28.7458 54.2965 28.16C54.2965 27.5742 54.0385 27.3471 53.3881 27.3471H52.7223V29.0297L53.3959 29.0271Z" fill="#58595B"/>
<path d="M57.1562 26.4852H60.6917V27.3781H58.3459V28.6916H60.1679V29.5665H58.3459V31.0142H60.7485V31.9071H57.1562V26.4852Z" fill="#58595B"/>
<path d="M62.2711 26.4852H63.5846L65.6336 29.9974H65.6569V26.4852H66.6891V31.9045H65.5227L63.324 28.1032H63.293V31.9045H62.2607L62.2711 26.4852Z" fill="#58595B"/>
<path d="M68.1934 29.2929V29.0968C68.1934 27.1252 69.3598 26.3897 70.8076 26.3897C71.2823 26.3694 71.7553 26.4577 72.1908 26.6477V27.5484C71.7987 27.3981 71.3823 27.3211 70.9624 27.3213C70.054 27.3213 69.4759 27.8065 69.4759 28.9884V29.2465C69.4759 30.4052 69.8811 31.0529 70.9701 31.0529C71.4074 31.0553 71.8399 30.9619 72.2372 30.7794V31.6723C71.7621 31.9039 71.2378 32.0163 70.7095 32C69.1611 32 68.1934 31.1303 68.1934 29.2929Z" fill="#58595B"/>
<path d="M73.6904 26.4852H77.2259V27.3781H74.8801V28.6916H76.702V29.5665H74.8801V31.0142H77.2827V31.9071H73.6904V26.4852Z" fill="#58595B"/>
<path d="M12.609 1.36774C12.609 0.714839 12.9342 0.335484 13.489 0.335484C14.0439 0.335484 14.3355 0.727742 14.3355 1.36774V6.61419C14.3355 7.29806 14.0103 7.69032 13.4555 7.69032C13.306 7.68465 13.1601 7.64327 13.0299 7.56964C12.8997 7.49601 12.789 7.39227 12.7071 7.2671C12.6426 7.10452 12.6426 7.10452 12.4129 5.60516C12.0232 3.16129 9.80645 1.49935 6.96774 1.49935C4.12903 1.49935 2.06452 3.19226 2.06452 5.60516C2.06452 7.48387 3.09677 8.47226 6.32 9.54839L9.64387 10.689C13.3265 11.9277 14.7587 13.4916 14.7587 16.3665C14.7587 19.9794 12.0206 22.3948 7.94839 22.3948C4.82064 22.3948 2.73548 21.2206 1.72387 18.8748V21.0245C1.72387 21.6774 1.39871 22.0568 0.877419 22.0568C0.356129 22.0568 0 21.6774 0 21.0168V15.4839C0 14.8 0.325161 14.4077 0.88 14.4077C1.49935 14.4077 1.72645 14.7329 1.79097 15.6774C1.82452 16.7097 2.53935 18.3819 3.29032 19.1974C4.26839 20.2735 5.79871 20.8929 7.55871 20.8929C10.6865 20.8929 12.7716 19.1329 12.7716 16.5058C12.795 15.905 12.6597 15.3086 12.3792 14.7767C12.0988 14.2449 11.6832 13.7963 11.1742 13.4761C10.4051 13.0204 9.58587 12.6549 8.7329 12.3871L5.89419 11.409C3.64645 10.6348 2.60387 10.1394 1.78839 9.52C1.22915 9.06413 0.782661 8.48535 0.483664 7.82872C0.184666 7.17209 0.041229 6.45532 0.0645161 5.73419C0.0645161 2.32258 2.80258 0 6.77677 0C9.57935 0 11.5665 1.07613 12.609 3.19226V1.36774Z" fill="#D3002D"/>
<path d="M19.9097 17.889C19.9097 19.4865 19.9742 19.9097 20.3329 20.3974C20.5165 20.6362 20.7538 20.8284 21.0255 20.9585C21.2972 21.0885 21.5957 21.1527 21.8968 21.1458C22.8078 21.1458 23.4271 20.6581 23.7213 19.7445C23.8653 19.3364 23.942 18.9076 23.9484 18.4748C23.9501 18.3827 23.97 18.2917 24.0071 18.2073C24.0442 18.1229 24.0976 18.0467 24.1643 17.9831C24.2311 17.9195 24.3097 17.8698 24.3958 17.8368C24.4819 17.8038 24.5737 17.7882 24.6658 17.791C25.1536 17.791 25.4142 18.1497 25.4142 18.769C25.3837 19.5002 25.1831 20.2141 24.8284 20.8542C24.2091 21.9303 23.1665 22.5161 21.7652 22.5161C19.2878 22.5161 18.1523 21.0503 18.1523 17.889V8.92904C18.1523 8.47227 17.9562 8.27614 17.4994 8.27614H15.8684C15.3523 8.27614 15.022 8.01807 15.022 7.59226C15.022 7.16646 15.3471 6.93936 15.8684 6.93936H17.4968C17.9536 6.93936 18.1497 6.74323 18.1497 6.28646V4.22194C18.1497 3.53807 18.4749 3.14581 19.0297 3.14581C19.5846 3.14581 19.9097 3.53807 19.9097 4.22194V6.28646C19.9097 6.74323 20.1058 6.93936 20.5626 6.93936H24.1446C24.6607 6.93936 24.96 7.16646 24.96 7.62323C24.96 8.08001 24.6658 8.27614 24.1446 8.27614H20.56C20.1033 8.27614 19.9071 8.47227 19.9071 8.92904L19.9097 17.889Z" fill="#D3002D"/>
<path d="M30.8904 10.0361C31.2156 8.92903 31.5098 8.40774 32.1601 7.81935C33.1544 6.95569 34.4276 6.48089 35.7446 6.48258C36.5911 6.48258 37.0814 6.80774 37.0814 7.32903C37.0814 7.72129 36.8853 7.94839 36.5936 7.94839C36.4518 7.95015 36.3102 7.93892 36.1704 7.91484C36.0123 7.86747 35.8477 7.84569 35.6827 7.85032C34.8971 7.90999 34.1266 8.09739 33.4014 8.40516C31.773 9.15355 30.893 10.9471 30.893 13.5535V20.0723C30.893 20.529 31.0891 20.7252 31.5459 20.7252H33.4349C33.9511 20.7252 34.2504 20.9832 34.2504 21.409C34.2504 21.8348 33.9562 22.0619 33.4349 22.0619H27.1433C26.6272 22.0619 26.2969 21.8039 26.2969 21.3781C26.2969 20.9523 26.622 20.7252 27.1433 20.7252H28.4801C28.9369 20.7252 29.133 20.529 29.133 20.0723V8.92903C29.133 8.47226 28.9369 8.27613 28.4801 8.27613H27.1433C26.6272 8.27613 26.2969 8.01806 26.2969 7.59226C26.2969 7.16645 26.622 6.93935 27.1433 6.93935H30.1085C30.6633 6.93935 30.8827 7.16645 30.8827 7.71355L30.8904 10.0361Z" fill="#D3002D"/>
<path d="M47.8325 18.8671C46.6918 21.4477 44.9938 22.5161 42.0002 22.5161C38.6118 22.5161 36.5267 20.7897 36.5267 17.9226C36.4923 17.0338 36.7331 16.156 37.2162 15.4091C37.6993 14.6622 38.4012 14.0827 39.226 13.7497C40.3976 13.2336 42.1267 13.0013 44.8312 13.0013C45.417 13.0013 46.0699 13.0013 46.5912 13.0348C46.7855 13.059 46.9812 13.0702 47.177 13.0684C47.5693 13.0684 47.8299 12.8723 47.8299 12.5136V12.4155C47.8299 10.2968 47.6338 9.61291 46.7538 8.83098C46.0054 8.1471 44.9938 7.85291 43.4634 7.85291C40.857 7.85291 39.2931 8.92904 38.9989 10.9161C38.9859 11.1581 38.8773 11.385 38.6971 11.5468C38.5168 11.7087 38.2796 11.7924 38.0376 11.7794C37.7957 11.7664 37.5688 11.6578 37.4069 11.4775C37.2451 11.2972 37.1614 11.06 37.1744 10.8181C37.1744 9.4813 38.3151 7.88646 39.7809 7.16904C40.7254 6.71227 41.9976 6.48517 43.528 6.48517C45.8093 6.48517 47.4376 7.04001 48.4493 8.21162C49.3293 9.18968 49.5899 10.1987 49.5899 12.3819V20.0723C49.5899 20.529 49.786 20.7252 50.2428 20.7252H51.3551C51.8712 20.7252 52.1706 20.9832 52.1706 21.409C52.1706 21.8348 51.8712 22.0594 51.3551 22.0594H48.6144C48.0596 22.0594 47.8402 21.8323 47.8402 21.2852L47.8325 18.8671ZM38.3822 17.8581C38.3822 19.9432 39.848 21.1484 42.3564 21.1484C44.4209 21.1484 45.9693 20.3742 46.8518 18.9007C47.3086 18.1832 47.7654 16.1316 47.7654 14.8929C47.7713 14.7927 47.7478 14.6929 47.6978 14.6058C47.6479 14.5187 47.5736 14.4481 47.4841 14.4026C47.3525 14.3381 45.9202 14.271 44.5834 14.271C40.3718 14.271 38.3847 15.4452 38.3847 17.8555L38.3822 17.8581Z" fill="#D3002D"/>
<path d="M55.0994 17.889C55.0994 19.4865 55.1639 19.9097 55.5226 20.3974C55.706 20.6364 55.9433 20.8287 56.215 20.9587C56.4867 21.0888 56.7853 21.1529 57.0865 21.1458C58 21.1458 58.6168 20.6581 58.911 19.7445C59.0549 19.3364 59.1316 18.9076 59.1381 18.4748C59.1398 18.3827 59.1597 18.2917 59.1968 18.2073C59.2338 18.1229 59.2873 18.0467 59.354 17.9831C59.4207 17.9195 59.4994 17.8698 59.5855 17.8368C59.6716 17.8038 59.7634 17.7882 59.8555 17.791C60.3432 17.791 60.6039 18.1497 60.6039 18.769C60.5734 19.5002 60.3728 20.2141 60.0181 20.8542C59.3987 21.9303 58.3561 22.5161 56.9549 22.5161C54.4774 22.5161 53.342 21.0503 53.342 17.889V8.92904C53.342 8.47227 53.1458 8.27614 52.6916 8.27614H51.0632C50.5471 8.27614 50.2168 8.01807 50.2168 7.59226C50.2168 7.16646 50.542 6.93936 51.0632 6.93936H52.6916C53.1484 6.93936 53.342 6.74323 53.342 6.28646V4.22194C53.342 3.53807 53.6671 3.14581 54.222 3.14581C54.7768 3.14581 55.102 3.53807 55.102 4.22194V6.28646C55.102 6.74323 55.2981 6.93936 55.7523 6.93936H59.3368C59.8529 6.93936 60.1523 7.16646 60.1523 7.62323C60.1523 8.08001 59.8581 8.27614 59.3368 8.27614H55.742C55.2852 8.27614 55.0916 8.47227 55.0916 8.92904L55.0994 17.889Z" fill="#D3002D"/>
<path d="M73.0862 18.8671C71.9456 21.4477 70.2475 22.5161 67.2539 22.5161C63.8656 22.5161 61.7804 20.7897 61.7804 17.9226C61.7469 17.0336 61.9888 16.1559 62.4728 15.4095C62.9569 14.6631 63.6596 14.0843 64.4849 13.7522C65.6565 13.2361 67.3856 13.0039 70.0901 13.0039C70.6759 13.0039 71.3288 13.0039 71.8501 13.0374C72.0444 13.0616 72.2401 13.0728 72.4359 13.071C72.8281 13.071 73.0862 12.8748 73.0862 12.5161V12.4181C73.0862 10.2993 72.8901 9.61547 72.0101 8.83354C71.2617 8.14967 70.2501 7.85547 68.7198 7.85547C66.1133 7.85547 64.5494 8.9316 64.2552 10.9187C64.2422 11.1606 64.1337 11.3875 63.9534 11.5494C63.7731 11.7113 63.5359 11.7949 63.294 11.7819C63.052 11.7689 62.8251 11.6603 62.6633 11.4801C62.5014 11.2998 62.4177 11.0626 62.4307 10.8206C62.4307 9.48386 63.5714 7.88902 65.0372 7.1716C65.9817 6.71483 67.254 6.48773 68.7843 6.48773C71.0656 6.48773 72.6939 7.04257 73.7056 8.21418C74.5804 9.18967 74.8385 10.1987 74.8385 12.3871V20.0774C74.8385 20.5342 75.0346 20.7303 75.4914 20.7303H76.5985C77.1146 20.7303 77.4139 20.9884 77.4139 21.4142C77.4139 21.84 77.1198 22.0671 76.5985 22.0671H73.8681C73.3133 22.0671 73.0939 21.84 73.0939 21.2929L73.0862 18.8671ZM63.6359 17.8581C63.6359 19.9432 65.1017 21.1484 67.6101 21.1484C69.6746 21.1484 71.223 20.3742 72.1056 18.9006C72.5649 18.1806 73.032 16.129 73.032 14.8903C73.0362 14.7891 73.0106 14.6889 72.9583 14.6022C72.906 14.5155 72.8293 14.446 72.7378 14.4026C72.6088 14.3381 71.1739 14.271 69.8372 14.271C65.623 14.271 63.6359 15.4452 63.6359 17.8555V17.8581Z" fill="#D3002D"/>
</g>
<defs>
<clipPath id="clip0">
<rect width="77.4193" height="32" fill="white"/>
</clipPath>
</defs>
</svg>
