<svg width="300" height="303" viewBox="0 0 300 303" fill="none" xmlns="http://www.w3.org/2000/svg">
<circle cx="88.3755" cy="76.8631" r="43.1548" fill="#005676"/>
<path d="M29.0006 178.945C20.7339 141.369 68.8594 84.6731 94.0006 62.8003C180.362 -21.0986 227.024 28.1447 247.37 62.8009C257.428 79.9345 269.242 95.4346 278.034 174.329C286.826 253.223 228.78 267.326 198.658 264.516C107.501 256.012 40.0005 228.945 29.0006 178.945Z" fill="url(#paint0_linear)"/>
<path d="M112.011 204.406C116.988 204.406 121.023 202.077 121.023 199.203C121.023 196.33 116.988 194 112.011 194C107.035 194 103 196.33 103 199.203C103 202.077 107.035 204.406 112.011 204.406Z" fill="#D6DCEB"/>
<path d="M190.585 212.567L109.58 164.498C106.241 162.517 106.336 157.651 109.75 155.802L123.513 148.347C125.056 147.511 126.924 147.546 128.436 148.438L209.811 196.462C213.176 198.448 213.065 203.353 209.613 205.185L195.48 212.684C193.94 213.501 192.085 213.457 190.585 212.567Z" fill="#D7DCEB"/>
<path d="M222.033 181.763C222.033 186.712 220.261 190.224 217.452 191.861L203.308 200.087C206.117 198.449 207.889 194.937 207.889 189.956C207.923 179.925 200.868 167.754 192.208 162.739C191.238 162.203 190.302 161.769 189.366 161.402C187.76 151.772 181.04 141.374 172.948 136.692C170.106 135.054 167.398 134.318 165.024 134.419C162.383 122.449 153.957 109.977 144.026 104.226C137.907 100.681 132.357 100.381 128.345 102.688L142.488 94.4955C146.501 92.156 152.051 92.4905 158.17 96.0008C168.1 101.753 176.526 114.224 179.168 126.194C181.508 126.093 184.25 126.83 187.092 128.467C195.184 133.148 201.904 143.58 203.509 153.21C204.445 153.544 205.381 153.979 206.318 154.547C215.011 159.562 222.066 171.733 222.033 181.763Z" fill="#A7D2E3"/>
<path d="M133.958 112.75C134.861 113.253 135.763 113.854 136.599 114.555L122.456 122.748C121.62 122.079 120.717 121.478 119.814 120.977C115.434 118.435 111.455 118.201 108.58 119.839L122.723 111.648C125.599 109.976 129.577 110.21 133.958 112.75Z" fill="#A7D2E3"/>
<path d="M144.037 104.223C153.964 109.955 162.375 122.428 165.035 134.405C167.388 134.314 170.101 135.045 172.941 136.684C181.031 141.356 187.759 151.776 189.378 161.409C190.296 161.767 191.236 162.187 192.197 162.741C200.885 167.758 207.928 179.931 207.9 189.965C207.871 199.973 200.782 203.989 192.094 198.972L119.725 157.19C110.993 152.149 103.972 139.986 104 129.978C104.029 119.945 111.096 115.918 119.827 120.959C120.724 121.476 121.62 122.067 122.474 122.756C122.116 120.731 121.929 118.732 121.935 116.794C121.974 102.812 131.891 97.2105 144.037 104.223Z" fill="#4596B4"/>
<path d="M177.745 139.906C158.764 158.887 135.85 162.563 126.445 161.067C138.201 168.121 164.022 182.613 170.691 186.717C186.723 181.587 182.234 154.013 182.875 146.959C186.466 145.933 196.983 136.272 198.906 132.211C197.624 133.493 186.081 141.829 177.745 139.906Z" fill="white"/>
<path d="M182.232 145.677C189.414 142.599 198.264 134.134 198.905 131.569C198.477 137.554 191.851 145.035 185.439 149.524C190.056 169.531 182.874 186.076 178.385 191.206C177.316 190.778 174.024 189.154 169.407 186.076C182.232 180.304 183.515 155.937 182.232 145.677Z" fill="#005676"/>
<path d="M193.88 129.416L201.123 127.476L203.064 134.719L199.356 130.537L193.88 129.416Z" fill="#005676"/>
<path d="M114.513 202.589C114.513 202.589 118.312 200.122 118.416 199.521C118.521 198.921 117.594 198.268 116.954 198.294C116.314 198.32 113.625 198.542 113.625 198.542L112.764 199.521C112.764 199.521 111.223 203.202 114.513 202.589Z" fill="#181818"/>
<path d="M106.196 199.482C106.196 199.482 109.994 197.015 110.099 196.414C110.203 195.814 109.276 195.161 108.637 195.187C107.997 195.213 105.308 195.435 105.308 195.435L104.446 196.414C104.446 196.414 102.906 200.095 106.196 199.482Z" fill="#181818"/>
<path d="M115.77 168.035L115.887 199.313C115.887 199.313 114.151 200.37 112.154 199.234C112.154 199.234 108.616 172.212 108.551 171.572C108.498 170.985 108.055 196.232 108.055 196.232C108.055 196.232 105.862 197.485 104.191 195.775L102.219 165.854L115.77 168.035Z" fill="#103450"/>
<path d="M112.645 144.667C112.645 144.667 114.25 145.019 116.313 146.717L115.752 168.034C115.752 168.034 113.062 170.005 107.554 168.569C103.076 167.395 101.888 165.515 101.888 165.515C101.888 165.515 101.483 155.293 101.901 150.959C102.319 146.638 104.081 143.662 104.081 143.662C105.06 143.362 107.214 143.492 107.214 143.492L112.645 144.667Z" fill="#FB4B00"/>
<path d="M107.686 143.361L107.569 139.197C107.569 139.197 106.524 139.119 106.694 137.97C106.877 136.821 107.947 137.578 108.143 137.918C108.143 137.918 108.391 133.962 110.48 133.584C112.568 133.205 113.443 133.505 113.495 134.524C113.547 135.542 113.613 139.106 113.495 140.437C113.378 141.756 113.495 142.448 111.589 142.395L111.42 143.779C111.42 143.779 110.558 144.589 107.869 143.936L107.686 143.361Z" fill="#FFC6A0"/>
<path d="M112.645 144.665C112.631 143.856 112.501 143.412 110.608 143.19C108.715 142.981 107.175 142.472 106.992 143.19C106.796 143.908 107.188 144.365 109.081 144.522C110.961 144.692 112.645 144.665 112.645 144.665Z" fill="#B73235"/>
<path d="M110.18 138.085C110.088 137.772 110.167 137.328 110.545 137.25C110.833 137.184 111.068 137.315 111.25 137.55C111.564 137.928 111.772 138.555 111.942 138.973C112.138 138.803 112.334 138.646 112.53 138.49C112.517 138.359 112.517 138.242 112.504 138.111C112.477 137.798 112.464 137.485 112.53 137.184C112.66 136.649 113.117 136.466 113.483 136.114C113.9 135.722 114.266 135.239 114.475 134.704C114.827 133.777 114.631 132.694 113.691 132.25C113.182 132.002 112.582 131.976 112.021 132.015C110.519 132.132 108.404 132.224 107.569 133.751C106.903 133.62 106.433 133.882 106.133 134.508C105.807 135.213 105.989 135.84 106.159 136.558C106.577 138.307 107.19 139.991 107.634 141.727C107.7 141.949 108.209 142.04 108.444 141.975C108.666 141.91 108.848 141.753 109.031 141.597C109.853 140.853 110.532 139.952 111.028 138.973C110.976 139.064 110.219 138.216 110.18 138.085Z" fill="#62280C"/>
<path d="M116.234 169.011C116.182 169.272 115.986 169.533 115.725 169.546C115.425 169.546 115.216 169.233 115.085 168.959C114.994 168.789 114.916 168.606 114.824 168.436C114.759 168.293 114.681 168.136 114.694 167.98C114.707 167.823 114.811 167.692 114.811 167.536C114.824 167.235 114.511 167.04 114.419 166.752C114.315 166.413 114.576 166.087 114.811 165.826C114.968 165.643 115.137 165.46 115.333 165.33C116.143 164.82 116.861 165.734 116.704 166.517C116.639 166.87 116.404 167.183 116.299 167.536C116.169 168.045 116.325 168.515 116.234 169.011Z" fill="#FFC6A0"/>
<path d="M116.325 146.714C118.283 147.602 122.878 161.139 122.486 162.431C122.095 163.724 117.499 167.274 116.938 167.353C116.377 167.431 114.863 165.316 115.332 164.076C115.45 163.776 117.617 161.139 117.617 161.139C117.591 160.604 114.719 155.969 114.419 153.293C114.027 149.755 116.325 146.714 116.325 146.714Z" fill="#FB4B00"/>
<path d="M104.094 143.66C102.697 144.13 99.1206 153.698 99.0031 157.04C98.8856 160.382 103.376 162.249 103.376 162.249L104.094 143.66Z" fill="#FB4B00"/>
<defs>
<linearGradient id="paint0_linear" x1="53.3711" y1="222.013" x2="288.843" y2="171.444" gradientUnits="userSpaceOnUse">
<stop stop-color="#E7E7E7"/>
<stop offset="1" stop-color="#F8F8F8"/>
</linearGradient>
</defs>
</svg>
