<svg xmlns="http://www.w3.org/2000/svg" viewBox="0 0 300 303">
  <circle cx="88.376" cy="76.863" r="43.155" fill="#005676"/>
  <path d="M29 178.945C20.735 141.369 68.86 84.673 94 62.8c86.362-83.899 133.024-34.655 153.37 0 10.058 17.135 21.872 32.635 30.664 111.529 8.792 78.894-49.254 92.997-79.376 90.187-91.157-8.504-158.657-35.571-169.657-85.571z" fill="url(#Top_10_Pharma_Europe__paint0_linear)"/>
  <path d="M112.011 204.406c4.977 0 9.012-2.329 9.012-5.203 0-2.873-4.035-5.203-9.012-5.203-4.976 0-9.011 2.33-9.011 5.203 0 2.874 4.035 5.203 9.011 5.203z" fill="#D6DCEB"/>
  <path d="M190.585 212.567l-81.005-48.069c-3.339-1.981-3.244-6.847.17-8.696l13.763-7.455a5 5 0 014.923.091l81.375 48.024c3.365 1.986 3.254 6.891-.198 8.723l-14.133 7.499a5 5 0 01-4.895-.117z" fill="#D7DCEB"/>
  <path d="M222.033 181.763c0 4.949-1.772 8.461-4.581 10.098l-14.144 8.226c2.809-1.638 4.581-5.15 4.581-10.131.034-10.031-7.021-22.202-15.681-27.217-.97-.536-1.906-.97-2.842-1.337-1.606-9.63-8.326-20.028-16.418-24.71-2.842-1.638-5.55-2.374-7.924-2.273-2.641-11.97-11.067-24.442-20.998-30.193-6.119-3.545-11.669-3.845-15.681-1.538l14.143-8.192c4.013-2.34 9.563-2.005 15.682 1.505 9.93 5.752 18.356 18.223 20.998 30.193 2.34-.101 5.082.636 7.924 2.273 8.092 4.681 14.812 15.113 16.417 24.743a15.33 15.33 0 012.809 1.337c8.693 5.015 15.748 17.186 15.715 27.216zm-88.075-69.013a16.982 16.982 0 012.641 1.805l-14.143 8.193a19.1 19.1 0 00-2.642-1.771c-4.38-2.542-8.359-2.776-11.234-1.138l14.143-8.191c2.876-1.672 6.854-1.438 11.235 1.102z" fill="#A7D2E3"/>
  <path d="M144.037 104.223c9.927 5.732 18.338 18.205 20.998 30.182 2.353-.091 5.066.64 7.906 2.279 8.09 4.672 14.818 15.092 16.437 24.725.918.358 1.858.778 2.819 1.332 8.688 5.017 15.731 17.19 15.703 27.224-.029 10.008-7.118 14.024-15.806 9.007l-72.369-41.782c-8.732-5.041-15.753-17.204-15.725-27.212.029-10.033 7.096-14.06 15.827-9.019a20.524 20.524 0 012.647 1.797 33.737 33.737 0 01-.539-5.962c.039-13.982 9.956-19.584 22.102-12.571z" fill="#4596B4"/>
  <path d="M177.745 139.906c-18.981 18.981-41.895 22.657-51.3 21.161 11.756 7.054 37.577 21.546 44.246 25.65 16.032-5.13 11.543-32.704 12.184-39.758 3.591-1.026 14.108-10.687 16.031-14.748-1.282 1.282-12.825 9.618-21.161 7.695z" fill="#fff"/>
  <path d="M182.232 145.677c7.182-3.078 16.032-11.543 16.673-14.108-.428 5.985-7.054 13.466-13.466 17.955 4.617 20.007-2.565 36.552-7.054 41.682-1.069-.428-4.361-2.052-8.978-5.13 12.825-5.772 14.108-30.139 12.825-40.399zm11.648-16.261l7.243-1.94 1.941 7.243-3.708-4.182-5.476-1.121z" fill="#005676"/>
  <path d="M114.513 202.589s3.799-2.467 3.903-3.068c.105-.6-.822-1.253-1.462-1.227-.64.026-3.329.248-3.329.248l-.861.979s-1.541 3.681 1.749 3.068zm-8.317-3.107s3.798-2.467 3.903-3.068c.104-.6-.823-1.253-1.462-1.227-.64.026-3.329.248-3.329.248l-.862.979s-1.54 3.681 1.75 3.068z" fill="#181818"/>
  <path d="M115.77 168.035l.117 31.278s-1.736 1.057-3.733-.079c0 0-3.538-27.022-3.603-27.662-.053-.587-.496 24.66-.496 24.66s-2.193 1.253-3.864-.457l-1.972-29.921 13.551 2.181z" fill="#103450"/>
  <path d="M112.645 144.667s1.605.352 3.668 2.05l-.561 21.317s-2.69 1.971-8.198.535c-4.478-1.174-5.666-3.054-5.666-3.054s-.405-10.222.013-14.556c.418-4.321 2.18-7.297 2.18-7.297.979-.3 3.133-.17 3.133-.17l5.431 1.175z" fill="#FB4B00"/>
  <path d="M107.686 143.361l-.117-4.164s-1.045-.078-.875-1.227c.183-1.149 1.253-.392 1.449-.052 0 0 .248-3.956 2.337-4.334 2.088-.379 2.963-.079 3.015.94.052 1.018.118 4.582 0 5.913-.117 1.319 0 2.011-1.906 1.958l-.169 1.384s-.862.81-3.551.157l-.183-.575z" fill="#FFC6A0"/>
  <path d="M112.645 144.665c-.014-.809-.144-1.253-2.037-1.475-1.893-.209-3.433-.718-3.616 0-.196.718.196 1.175 2.089 1.332 1.88.17 3.564.143 3.564.143z" fill="#B73235"/>
  <path d="M110.18 138.085c-.092-.313-.013-.757.365-.835.288-.066.523.065.705.3.314.378.522 1.005.692 1.423.196-.17.392-.327.588-.483-.013-.131-.013-.248-.026-.379-.027-.313-.04-.626.026-.927.13-.535.587-.718.953-1.07.417-.392.783-.875.992-1.41.352-.927.156-2.01-.784-2.454-.509-.248-1.109-.274-1.67-.235-1.502.117-3.617.209-4.452 1.736-.666-.131-1.136.131-1.436.757-.326.705-.144 1.332.026 2.05.418 1.749 1.031 3.433 1.475 5.169.066.222.575.313.81.248.222-.065.404-.222.587-.378a9.097 9.097 0 001.997-2.624c-.052.091-.809-.757-.848-.888z" fill="#62280C"/>
  <path d="M116.234 169.011c-.052.261-.248.522-.509.535-.3 0-.509-.313-.64-.587-.091-.17-.169-.353-.261-.523-.065-.143-.143-.3-.13-.456.013-.157.117-.288.117-.444.013-.301-.3-.496-.392-.784-.104-.339.157-.665.392-.926a2.66 2.66 0 01.522-.496c.81-.51 1.528.404 1.371 1.187-.065.353-.3.666-.405 1.019-.13.509.026.979-.065 1.475z" fill="#FFC6A0"/>
  <path d="M116.325 146.714c1.958.888 6.553 14.425 6.161 15.717-.391 1.293-4.987 4.843-5.548 4.922-.561.078-2.075-2.037-1.606-3.277.118-.3 2.285-2.937 2.285-2.937-.026-.535-2.898-5.17-3.198-7.846-.392-3.538 1.906-6.579 1.906-6.579zm-12.231-3.054c-1.397.47-4.973 10.038-5.09 13.38-.118 3.342 4.372 5.209 4.372 5.209l.718-18.589z" fill="#FB4B00"/>
  <defs>
    <linearGradient id="Top_10_Pharma_Europe__paint0_linear" x1="53.371" y1="222.013" x2="288.843" y2="171.444" gradientUnits="userSpaceOnUse">
      <stop stop-color="#E7E7E7"/>
      <stop offset="1" stop-color="#F8F8F8"/>
    </linearGradient>
  </defs>
</svg>
