<svg width="253" height="253" viewBox="0 0 253 253" fill="none" xmlns="http://www.w3.org/2000/svg">
<circle cx="61.147" cy="62.6033" r="43.1548" fill="#005676"/>
<path d="M1.77213 164.685C-6.49461 127.109 41.6309 70.4133 66.7721 48.5406C153.133 -35.3583 199.795 13.8849 220.141 48.5411C230.2 65.6747 242.014 81.1748 250.806 160.069C259.597 238.963 201.552 253.067 171.43 250.256C80.2721 241.752 12.772 214.685 1.77213 164.685Z" fill="url(#paint0_linear)"/>
<path d="M84.7829 190.146C89.7598 190.146 93.7943 187.817 93.7943 184.943C93.7943 182.07 89.7598 179.74 84.7829 179.74C79.806 179.74 75.7715 182.07 75.7715 184.943C75.7715 187.817 79.806 190.146 84.7829 190.146Z" fill="#D6DCEB"/>
<path d="M163.357 198.307L82.3518 150.238C79.0126 148.257 79.1078 143.391 82.522 141.542L96.2846 134.087C97.8276 133.251 99.6959 133.286 101.207 134.178L182.582 182.202C185.947 184.188 185.836 189.094 182.385 190.925L168.252 198.424C166.711 199.241 164.856 199.197 163.357 198.307Z" fill="#D7DCEB"/>
<path d="M194.804 167.504C194.804 172.452 193.032 175.964 190.223 177.602L176.08 185.827C178.889 184.189 180.661 180.678 180.661 175.697C180.694 165.666 173.639 153.495 164.979 148.479C164.009 147.943 163.073 147.509 162.137 147.142C160.532 137.513 153.812 127.115 145.72 122.432C142.878 120.795 140.169 120.059 137.795 120.16C135.154 108.189 126.728 95.7177 116.798 89.966C110.679 86.4214 105.129 86.1212 101.116 88.4282L115.26 80.2357C119.272 77.8963 124.822 78.2308 130.941 81.7411C140.872 87.4928 149.298 99.9644 151.939 111.935C154.279 111.833 157.022 112.57 159.864 114.207C167.955 118.888 174.676 129.321 176.281 138.95C177.217 139.284 178.153 139.719 179.089 140.287C187.783 145.302 194.838 157.473 194.804 167.504Z" fill="#A7D2E3"/>
<path d="M106.729 98.4901C107.632 98.9929 108.535 99.5938 109.371 100.296L95.2271 108.488C94.3912 107.819 93.4886 107.218 92.5856 106.717C88.2051 104.175 84.2266 103.942 81.3511 105.579L95.4946 97.3878C98.3701 95.7162 102.349 95.9498 106.729 98.4901Z" fill="#A7D2E3"/>
<path d="M116.809 89.9637C126.736 95.6949 135.147 108.168 137.807 120.145C140.159 120.055 142.873 120.785 145.712 122.425C153.803 127.096 160.53 137.516 162.149 147.149C163.068 147.507 164.007 147.927 164.968 148.481C173.657 153.498 180.7 165.672 180.671 175.705C180.643 185.713 173.554 189.729 164.865 184.713L92.4961 142.93C83.7647 137.889 76.7431 125.726 76.7716 115.718C76.8 105.685 83.8678 101.658 92.5989 106.699C93.4954 107.217 94.3918 107.807 95.2451 108.496C94.8875 106.472 94.7004 104.472 94.7062 102.534C94.7458 88.5525 104.662 82.9507 116.809 89.9637V89.9637Z" fill="#4596B4"/>
<path d="M150.516 125.646C131.535 144.627 108.621 148.304 99.2163 146.807C110.973 153.861 136.794 168.353 143.463 172.457C159.494 167.327 155.005 139.753 155.646 132.7C159.237 131.674 169.754 122.012 171.678 117.951C170.395 119.233 158.853 127.57 150.516 125.646Z" fill="white"/>
<path d="M155.004 131.417C162.186 128.339 171.035 119.874 171.676 117.309C171.249 123.294 164.623 130.776 158.21 135.264C162.827 155.271 155.645 171.816 151.156 176.946C150.087 176.518 146.796 174.894 142.179 171.816C155.004 166.044 156.286 141.677 155.004 131.417Z" fill="#005676"/>
<path d="M166.652 115.157L173.895 113.216L175.835 120.459L172.127 116.277L166.652 115.157Z" fill="#005676"/>
<path d="M87.2845 188.329C87.2845 188.329 91.0833 185.862 91.1877 185.261C91.2921 184.661 90.3653 184.008 89.7256 184.034C89.086 184.06 86.3968 184.282 86.3968 184.282L85.5352 185.261C85.5352 185.261 83.9948 188.943 87.2845 188.329Z" fill="#181818"/>
<path d="M78.9671 185.222C78.9671 185.222 82.7659 182.755 82.8703 182.154C82.9747 181.554 82.0479 180.901 81.4082 180.927C80.7686 180.953 78.0794 181.175 78.0794 181.175L77.2178 182.154C77.2178 182.154 75.6774 185.836 78.9671 185.222Z" fill="#181818"/>
<path d="M88.5412 153.775L88.6587 185.053C88.6587 185.053 86.9225 186.11 84.9252 184.975C84.9252 184.975 81.3875 157.952 81.3222 157.313C81.27 156.725 80.8261 181.972 80.8261 181.972C80.8261 181.972 78.633 183.225 76.9621 181.515L74.9908 151.595L88.5412 153.775Z" fill="#103450"/>
<path d="M85.4162 130.407C85.4162 130.407 87.0219 130.76 89.0845 132.457L88.5231 153.774C88.5231 153.774 85.8339 155.746 80.325 154.31C75.8474 153.135 74.6595 151.255 74.6595 151.255C74.6595 151.255 74.2548 141.033 74.6725 136.699C75.0903 132.378 76.8526 129.402 76.8526 129.402C77.8316 129.102 79.9856 129.232 79.9856 129.232L85.4162 130.407Z" fill="#FB4B00"/>
<path d="M80.4575 129.102L80.34 124.937C80.34 124.937 79.2957 124.859 79.4654 123.71C79.6481 122.561 80.7186 123.319 80.9144 123.658C80.9144 123.658 81.1625 119.703 83.2511 119.324C85.3398 118.945 86.2145 119.246 86.2667 120.264C86.3189 121.282 86.3842 124.846 86.2667 126.178C86.1492 127.496 86.2666 128.188 84.3607 128.136L84.191 129.519C84.191 129.519 83.3295 130.329 80.6403 129.676L80.4575 129.102Z" fill="#FFC6A0"/>
<path d="M85.416 130.406C85.403 129.596 85.2724 129.153 83.3795 128.931C81.4866 128.722 79.9462 128.213 79.7635 128.931C79.5677 129.649 79.9593 130.105 81.8522 130.262C83.732 130.432 85.416 130.406 85.416 130.406Z" fill="#B73235"/>
<path d="M82.9513 123.825C82.86 123.512 82.9383 123.068 83.3169 122.99C83.6041 122.925 83.839 123.055 84.0218 123.29C84.3351 123.669 84.544 124.295 84.7137 124.713C84.9095 124.543 85.1053 124.387 85.3011 124.23C85.288 124.099 85.2881 123.982 85.275 123.851C85.2489 123.538 85.2358 123.225 85.3011 122.924C85.4316 122.389 85.8886 122.206 86.2541 121.854C86.6718 121.462 87.0374 120.979 87.2462 120.444C87.5987 119.517 87.4029 118.434 86.463 117.99C85.9538 117.742 85.3533 117.716 84.792 117.755C83.2908 117.872 81.176 117.964 80.3405 119.491C79.6747 119.361 79.2048 119.622 78.9045 120.248C78.5782 120.953 78.7609 121.58 78.9306 122.298C79.3484 124.047 79.9619 125.731 80.4057 127.467C80.471 127.689 80.9802 127.781 81.2151 127.715C81.4371 127.65 81.6198 127.493 81.8026 127.337C82.625 126.593 83.3038 125.692 83.7999 124.713C83.7477 124.804 82.9905 123.956 82.9513 123.825Z" fill="#62280C"/>
<path d="M89.0055 154.751C88.9533 155.012 88.7574 155.273 88.4964 155.286C88.1961 155.286 87.9873 154.973 87.8567 154.699C87.7653 154.529 87.687 154.346 87.5956 154.177C87.5303 154.033 87.452 153.876 87.4651 153.72C87.4781 153.563 87.5825 153.433 87.5825 153.276C87.5956 152.976 87.2823 152.78 87.1909 152.493C87.0865 152.153 87.3476 151.827 87.5825 151.566C87.7392 151.383 87.9089 151.2 88.1047 151.07C88.9141 150.561 89.6321 151.474 89.4754 152.258C89.4102 152.61 89.1752 152.923 89.0707 153.276C88.9402 153.785 89.0969 154.255 89.0055 154.751Z" fill="#FFC6A0"/>
<path d="M89.0961 132.454C91.0542 133.342 95.6493 146.879 95.2577 148.171C94.8661 149.464 90.271 153.015 89.7096 153.093C89.1483 153.171 87.634 151.056 88.104 149.816C88.2215 149.516 90.3885 146.879 90.3885 146.879C90.3624 146.344 87.4904 141.71 87.1902 139.033C86.7985 135.496 89.0961 132.454 89.0961 132.454Z" fill="#FB4B00"/>
<path d="M76.8657 129.4C75.4689 129.87 71.892 139.439 71.7746 142.781C71.6571 146.122 76.1478 147.989 76.1478 147.989L76.8657 129.4Z" fill="#FB4B00"/>
<defs>
<linearGradient id="paint0_linear" x1="26.1426" y1="207.753" x2="261.614" y2="157.184" gradientUnits="userSpaceOnUse">
<stop stop-color="#E7E7E7"/>
<stop offset="1" stop-color="#F8F8F8"/>
</linearGradient>
</defs>
</svg>
