<svg xmlns="http://www.w3.org/2000/svg" viewBox="0 0 329 326">
  <path d="M111.004 54.592c33.356-19.176 95.639 15.173 122.611 34.744 101.189 65.253 68.364 116.797 39.179 144.423-14.429 13.658-26.871 28.659-101.76 54.988-74.89 26.329-101.7-27.051-105.743-57.032-10.929-58.186 4.018-153.155 45.713-177.124z" fill="url(#Top_5_USA__paint0_linear)"/>
  <path opacity=".17" d="M258.977 204.631c-10.52-2.968-21.725-1.329-25.013 3.668a5.43 5.43 0 00-.845 2.135l-25.108-7.092-21.497-6.072c-9.299-16.669-44.645-55.006-55.77-58.27l35.266 48.693-.738 2.163 5.421-.027L81 163.42c5.274 6.69 66.532 34.28 94.202 39.559l10.95 14.454 11.084 14.628a25.282 25.282 0 00-3.798.362c-8.964 1.585-12.453 7.845-7.81 13.984 4.643 6.125 15.674 9.819 24.638 8.22 8.964-1.585 12.453-7.844 7.81-13.983-1.57-2.069-3.865-3.855-6.549-5.252h.121s-13.097-10.236-19.82-19.571c-3.059-4.231-4.791-8.275-3.408-11.096.134-.282.228-.617.255-.98 4.629.027 10.346 1.128 16.223 2.713 16.036 4.326 33.306 12.318 33.306 12.318v-.067c2.322 1.598 5.328 2.995 8.884 4.003 10.52 2.968 21.725 1.329 25-3.667 3.287-4.984-2.59-11.445-13.111-14.414zm-45.142 36.765c3.436 4.527.846 9.148-5.77 10.33-6.615 1.169-14.761-1.545-18.196-6.072-3.435-4.526-.846-9.147 5.77-10.316 6.616-1.195 14.761 1.532 18.196 6.058zm53.261-23.748c-2.429 3.68-10.695 4.902-18.465 2.7-7.77-2.19-12.104-6.959-9.675-10.652 2.429-3.681 10.695-4.903 18.464-2.7 7.77 2.189 12.104 6.958 9.676 10.652z" fill="#163891"/>
  <path opacity=".17" d="M114.707 172.074c14.966 0 27.099-7.006 27.099-15.648s-12.133-15.647-27.099-15.647c-14.966 0-27.099 7.005-27.099 15.647s12.133 15.648 27.099 15.648z" fill="#163891"/>
  <path d="M91.765 153.21l.13 4.641 2.419 1.804-.17-6.065-2.38-.38z" fill="url(#Top_5_USA__paint1_linear)"/>
  <path d="M137.646 152.165l.131 4.627-2.863 2.811-.641-6.941 3.373-.497z" fill="url(#Top_5_USA__paint2_linear)"/>
  <path d="M130.797 147.616c-9.099-4.915-23.622-4.51-32.432.915-8.811 5.425-8.576 13.804.523 18.732 9.098 4.915 23.621 4.51 32.432-.915 8.81-5.425 8.575-13.817-.523-18.732z" fill="url(#Top_5_USA__paint3_linear)"/>
  <path d="M130.666 143.001c9.098 4.915 9.333 13.308.523 18.733-8.811 5.425-23.334 5.83-32.432.915-9.099-4.915-9.334-13.308-.523-18.733 8.81-5.438 23.334-5.843 32.432-.915z" fill="url(#Top_5_USA__paint4_linear)"/>
  <path d="M130.103 143.341c8.785 4.745 9.007 12.837.51 18.066-8.497 5.229-22.51 5.621-31.295.876-8.784-4.745-9.006-12.837-.51-18.066 8.498-5.229 22.511-5.621 31.295-.876z" fill="url(#Top_5_USA__paint5_linear)"/>
  <path opacity=".82" d="M128.104 144.57c7.634 4.131 7.843 11.164.444 15.713-7.399 4.549-19.582 4.889-27.216.771-7.634-4.131-7.843-11.164-.444-15.713 7.385-4.549 19.569-4.889 27.216-.771z" fill="url(#Top_5_USA__paint6_linear)"/>
  <path opacity=".82" d="M101.214 145.524c7.347-4.523 19.412-4.889 27.06-.85-.053-.026-.105-.065-.17-.091-7.634-4.131-19.831-3.791-27.217.771-7.398 4.549-7.202 11.582.445 15.713.052.026.118.052.17.091-7.49-4.157-7.634-11.124-.288-15.634z" fill="#fff"/>
  <path opacity=".59" d="M126.653 145.459c6.811 3.686 6.994 9.961.392 14.026-6.601 4.066-17.477 4.366-24.288.68-6.81-3.686-6.993-9.961-.392-14.026 6.601-4.053 17.478-4.353 24.288-.68z" fill="url(#Top_5_USA__paint7_linear)"/>
  <path opacity=".82" d="M119.021 150.91l.026.732 1.111.496-.196-.941-.941-.287z" fill="#FAA925"/>
  <path d="M125.294 147.171l.027.732-.759.458-.536-.406 1.268-.784z" fill="#FAA925"/>
  <path opacity=".82" d="M104.09 158.675l1.608-.981c-1.229-.85-1.739-1.686-1.543-2.484.196-.81 1.046-1.673 2.549-2.588l.589-.366 3.843 2.092-.445.274c-1.111.68-1.307 1.203-.627 1.582.287.157.627.209 1.006.17.379-.039.745-.17 1.098-.392.249-.157.393-.51.432-1.059l-.066-3.634c-.026-1.334.628-2.406 1.948-3.216.968-.588 2.144-.941 3.543-1.02a9.611 9.611 0 014.065.615l1.307-.798 1.909 1.046-1.268.771c1.072.759 1.529 1.582 1.359 2.458-.156.876-.967 1.765-2.418 2.654l-3.948-2.144.889-.575c.183-.131.262-.288.236-.484-.04-.183-.157-.34-.393-.471-.261-.143-.549-.209-.889-.222-.339 0-.627.065-.875.222-.366.223-.523.745-.497 1.569l.118 3.503c.026.615-.157 1.203-.523 1.752-.366.549-.876 1.033-1.53 1.425a7.512 7.512 0 01-2.3.915c-.863.196-1.791.248-2.798.17a9.132 9.132 0 01-2.889-.719l-1.582.967-1.908-1.032z" fill="url(#Top_5_USA__paint8_linear)"/>
  <path d="M104.065 157.943l1.608-.981c-1.228-.85-1.738-1.686-1.542-2.484.196-.81 1.046-1.673 2.549-2.588l.588-.366 3.843 2.092-.444.274c-1.111.68-1.307 1.203-.628 1.582.288.157.628.209 1.007.17.379-.039.745-.17 1.098-.392.248-.157.392-.51.431-1.059l-.065-3.634c-.026-1.334.628-2.405 1.948-3.216.967-.588 2.144-.941 3.542-1.02a9.614 9.614 0 014.066.615l1.307-.798 1.909 1.046-1.268.771c1.071.759 1.529 1.582 1.359 2.458-.157.876-.967 1.765-2.418 2.654l-3.948-2.144.889-.575c.183-.131.261-.288.235-.484-.039-.183-.157-.34-.392-.471-.261-.143-.549-.209-.889-.222-.34 0-.627.066-.876.222-.366.223-.523.746-.497 1.569l.118 3.503c.026.615-.157 1.203-.523 1.752-.366.549-.876 1.033-1.529 1.425a7.508 7.508 0 01-2.301.915c-.863.196-1.791.248-2.797.17a9.125 9.125 0 01-2.889-.719l-1.582.967-1.909-1.032z" fill="#FFE169"/>
  <path d="M105.987 158.988l.039.732-1.934-1.045-.027-.732 1.922 1.045z" fill="#FAA925"/>
  <path d="M93 166.456v4.767l20.303 7.889 1.404-3.085L93 166.456z" fill="#B8D4F5"/>
  <path d="M206.581 229.435l.242-1.5 7.32 2.855 1.295 3.34-.472 2.625-3.956-2.516-4.429-4.804z" fill="#B73235"/>
  <path d="M198.897 229.689l.52-2.977-8.53 2.372-4.308 3.618v5.251l6.849 7.937 13.164 3.352 9.365-2.989 3.582-3.375v-5.53l-4.477 5.53-10.333 2.008-9.849-4.138-4.635-5.13 8.652-5.929z" fill="#B73235"/>
  <path d="M205.782 201.86v4.779l-6.377-1.5-7.066-5.687 12.934.738.509 1.67z" fill="#B8D4F5"/>
  <path d="M236.49 206.639l-1.052-3.57 9.062-3.073 8.688.69 9.982 5.445 1.392 3.763-1.803 1.137-2.965-2.214-8.01-3.303h-11.24l-4.054 1.125z" fill="#B73235"/>
  <path d="M236.213 217.928l12.172 3.933 14.58-1.961 4.199-4.065.036-5.191-10.732 6.123-17.714-3.643-6.171-1.597 3.63 6.401z" fill="#B73235"/>
  <path d="M137.854 149.226l51.037 67.274 5.106-1.439c-2.758-3.812-4.319-7.454-3.073-9.995 4.005-8.131-41.03-52.319-53.07-55.84z" fill="#CCE3F5"/>
  <path d="M188.37 204.34c4.538-.569 10.866.52 17.424 2.287l2.819-2.819L93 171.223c5.542 7.006 80.826 34.944 95.37 33.117z" fill="#B8D4F5"/>
  <path d="M211.77 232.69h.109s-11.809-9.22-17.871-17.629l-5.106 1.439 9.994 13.177a22.723 22.723 0 00-3.424.327c-8.083 1.427-11.229 7.066-7.042 12.596 4.186 5.517 14.132 8.844 22.215 7.405 8.083-1.428 11.229-7.067 7.042-12.596-1.416-1.851-3.485-3.461-5.917-4.719zm-3.121 14.701c-5.966 1.053-13.31-1.391-16.408-5.469-3.097-4.078-.762-8.24 5.203-9.293 5.965-1.052 13.31 1.392 16.407 5.469 3.098 4.078.775 8.24-5.202 9.293zm45.906-42.41c-9.486-2.674-19.589-1.197-22.554 3.304a4.9 4.9 0 00-.762 1.924L208.6 203.82l-2.819 2.819c14.459 3.896 30.032 11.096 30.032 11.096v-.061c2.093 1.44 4.803 2.698 8.01 3.606 9.486 2.674 19.589 1.198 22.542-3.303 2.976-4.502-2.324-10.322-11.81-12.996zm7.321 11.725c-2.19 3.315-9.644 4.417-16.65 2.432-7.005-1.972-10.914-6.268-8.724-9.595 2.191-3.315 9.644-4.416 16.65-2.432 7.005 1.984 10.914 6.268 8.724 9.595z" fill="#B73235"/>
  <path d="M170.062 191.672l1.235 1.621 17.931 5.058a41.483 41.483 0 00-.786-1.343l-18.38-5.336z" fill="#B8D4F5"/>
  <path d="M205.781 201.859v4.78l30.431 11.289-5.905-10.43-24.526-5.639z" fill="#B73235"/>
  <path d="M137.854 144.458l51.037 67.275 5.106-1.44c-2.758-3.811-4.319-7.454-3.073-9.994 4.005-8.131-41.03-52.32-53.07-55.841z" fill="#CCE3F5"/>
  <path d="M188.37 199.573c4.538-.569 10.866.52 17.424 2.287l2.819-2.82L93 166.456c5.542 7.006 80.826 34.932 95.37 33.117z" fill="#CCE3F5"/>
  <path d="M179.331 192.386c-1.234.447-1.44 1.439-.472 2.226.98.774 2.759 1.041 3.993.593 1.234-.448 1.44-1.44.472-2.227-.98-.786-2.771-1.04-3.993-.592z" fill="#679AE2"/>
  <path d="M211.77 227.91h.109s-11.809-9.22-17.871-17.629l-5.106 1.44 9.994 13.176a22.985 22.985 0 00-3.424.327c-8.083 1.428-11.229 7.066-7.042 12.596 4.186 5.517 14.132 8.845 22.215 7.405 8.083-1.428 11.229-7.066 7.042-12.596-1.416-1.839-3.485-3.448-5.917-4.719zm-3.121 14.714c-5.966 1.052-13.31-1.392-16.408-5.469-3.097-4.078-.762-8.24 5.203-9.293 5.965-1.053 13.31 1.391 16.407 5.469 3.098 4.078.775 8.24-5.202 9.293zm45.906-42.41c-9.486-2.674-19.589-1.198-22.554 3.303a4.906 4.906 0 00-.762 1.924l-22.639-6.389-2.819 2.82c14.459 3.896 30.032 11.095 30.032 11.095v-.06c2.093 1.439 4.803 2.698 8.01 3.605 9.486 2.674 19.589 1.198 22.542-3.303 2.976-4.501-2.324-10.321-11.81-12.995zm7.321 11.725c-2.19 3.315-9.644 4.416-16.65 2.432-7.005-1.973-10.914-6.268-8.724-9.596 2.191-3.315 9.644-4.416 16.65-2.432 7.005 1.973 10.914 6.268 8.724 9.596z" fill="#FB4B00"/>
  <path d="M170.062 186.904l1.235 1.622 17.931 5.057a43.754 43.754 0 00-.786-1.343l-18.38-5.336zm8.967 11.822v4.767l9.874 13.019v-4.779l-9.874-13.007z" fill="#B8D4F5"/>
  <path d="M188.902 211.733v4.779l6.558 8.724 3.437-.314-9.995-13.189z" fill="#B73235"/>
  <path d="M137.854 144.458v4.768l28.834 38.005 4.598 1.295-33.432-44.068zm53.202 55.514l-11.422-.436-.617-.81 12.136.701c.012 0-.061.424-.097.545z" fill="#B8D4F5"/>
  <path d="M218.787 223.938l.145 1.174a.84.84 0 01-.241.692c-.612.595-2.027 1.866-3.041 1.995-1.029.128-1.174-.419-1.239-.676-.064-.257.274-.708.274-.708l4.102-2.477z" fill="#2F2F7F"/>
  <path d="M218.784 223.94s-2.477 3.651-4.118 3.249c-1.335-.338 2.252-3.813 2.252-3.813l1.866.564z" fill="#41409E"/>
  <path d="M230.529 202.785a3.15 3.15 0 00-3.957-2.059 4.908 4.908 0 00-.273.097c-.982.402-1.947.836-2.912 1.271-.966.45-1.931.885-2.896 1.335l-5.759 2.719-.29.128a1.945 1.945 0 00-1.078 2.14l1.529 7.738 1.56 7.738a1.213 1.213 0 002.397-.338l-.627-7.867-.499-6 4.633-1.239c1.03-.273 2.043-.547 3.073-.836 1.013-.29 2.043-.596 3.04-.901 1.657-.483 2.59-2.269 2.059-3.926z" fill="#2196A8"/>
  <path d="M217.597 203.493l3.154-4.569.74-8.961.048-.305a2.157 2.157 0 014.199.981l-2.108 9.041-.112.499-.193.209-4.183 4.392a.983.983 0 01-1.287.128 1.043 1.043 0 01-.258-1.415z" fill="#F89AB5"/>
  <path d="M225.255 192.12l-.128.402s-1.496.982-3.797-.547l.064-.884 3.861 1.029z" fill="#E6E6E6"/>
  <path d="M221.023 190.993c.917 1.319 3.652 1.818 4.585.901l1.078-5.92c.177-1.126-.724-2.188-1.995-2.381-1.383-.209-2.654.611-2.831 1.834l-.837 5.566z" fill="#FFC700"/>
  <path d="M225.783 225.13l.354 1.142a.787.787 0 01-.129.724c-.499.692-1.689 2.188-2.671 2.478-.981.305-1.222-.209-1.335-.467-.112-.241.145-.756.145-.756l3.636-3.121z" fill="#2F2F7F"/>
  <path d="M225.783 225.129s-1.817 4.022-3.507 3.894c-1.367-.113 1.577-4.151 1.577-4.151l1.93.257z" fill="#41409E"/>
  <path d="M234.553 205.825a4.117 4.117 0 00-4.312-3.909 3.916 3.916 0 00-.756.112c-.885.209-1.769.451-2.654.676-.885.225-1.77.482-2.655.74l-5.292 1.625-.596.177a2.385 2.385 0 00-1.576 2.976.805.805 0 00.064.177l6.676 17.02c.242.627.95.933 1.577.692.563-.225.869-.821.74-1.4l-3.282-14.478 2.671.032c.917.016 1.834 0 2.751-.032.917-.033 1.834-.049 2.751-.097 2.268-.096 4.005-2.043 3.893-4.311z" fill="#24A8BF"/>
  <path d="M214.135 205.038l.322.032 4.826-2.446c.113-.064.29-.064.386 0l7.674 5.004.257.032-.016.193c0 .048-.032.08-.096.112l-5.373 2.719-7.545-4.923-.66-.434.016-.225.209-.064z" fill="#8AA8FF"/>
  <path d="M219.67 202.415l7.867 5.116c.096.065.08.161-.033.225l-5.373 2.719-8.204-5.341 5.373-2.719a.38.38 0 01.37 0z" fill="#DEEBFF"/>
  <path d="M216.596 204.36l-.209-.145c-.016-.016-.049-.016-.081 0l-.225.113c-.016.016-.032.032 0 .048l.209.145c.016.016.048.016.081 0l.225-.113c.016-.016.016-.032 0-.048zm.323.209l-.209-.144c-.016-.016-.048-.016-.08 0l-.226.112c-.016.016-.032.032 0 .049l.209.144c.017.016.049.016.081 0l.225-.112c.016-.016.016-.032 0-.049zm.322.209l-.209-.144c-.016-.016-.048-.016-.08 0l-.225.112c-.017.016-.033.032 0 .049l.209.144c.016.016.048.016.08 0l.225-.112c.016-.016.016-.032 0-.049zm.323.225l-.21-.144c-.016-.017-.048-.017-.08 0l-.225.112c-.016.016-.032.032 0 .048l.209.145c.016.016.048.016.08 0l.226-.112c.016-.033.016-.049 0-.049zm.319.21l-.209-.145c-.016-.016-.048-.016-.081 0l-.225.113c-.016.016-.032.032 0 .048l.209.145c.016.016.049.016.081 0l.225-.112c.016-.017.016-.049 0-.049zm.322.209l-.209-.145c-.016-.016-.048-.016-.08 0l-.226.113c-.016.016-.032.032 0 .048l.21.145c.016.016.048.016.08 0l.225-.113c.016-.016.016-.032 0-.048zm.485.306l-.21-.145c-.016-.016-.048-.016-.08 0l-.225.113c-.016.016-.032.032 0 .048l.209.145c.016.016.048.016.08 0l.226-.113c.016-.016.016-.032 0-.048zm.325.209l-.209-.144c-.016-.017-.049-.017-.081 0l-.225.112c-.016.016-.032.032 0 .048l.209.145c.016.016.048.016.081 0l.225-.112c.016-.016.016-.033 0-.049zm.32.209l-.209-.144c-.016-.017-.048-.017-.08 0l-.226.112c-.016.016-.032.032 0 .048l.209.145c.017.016.049.016.081 0l.225-.112c.016-.016.016-.033 0-.049zm.322.21l-.209-.144c-.016-.017-.048-.017-.08 0l-.225.112c-.016.016-.033.032 0 .048l.209.145c.016.016.048.016.08 0l.225-.112c.016-.016.016-.033 0-.049zm.325.209l-.21-.144c-.016-.017-.048-.017-.08 0l-.225.112c-.016.016-.032.032 0 .048l.209.145c.016.016.048.016.08 0l.226-.112c.016-.017.016-.033 0-.049zm.32.225l-.209-.145c-.016-.016-.048-.016-.081 0l-.225.113c-.016.016-.032.032 0 .048l.209.145c.016.016.049.016.081 0l.225-.113c.016-.032.032-.048 0-.048zm.478.304l-.209-.144c-.016-.017-.048-.017-.08 0l-.225.112c-.016.016-.033.032 0 .048l.209.145c.016.016.048.016.08 0l.225-.112c.017-.016.017-.033 0-.049zm.324.21l-.209-.145c-.017-.016-.049-.016-.081 0l-.225.112c-.016.016-.032.033 0 .049l.209.144c.016.017.048.017.08 0l.226-.112c.016-.016.016-.032 0-.048zm.32.208l-.209-.144c-.016-.017-.048-.017-.081 0l-.225.112c-.016.016-.032.032 0 .048l.209.145c.016.016.049.016.081 0l.225-.112c.016-.017.016-.033 0-.049zm.322.21l-.209-.145c-.016-.016-.048-.016-.08 0l-.226.113c-.016.016-.032.032 0 .048l.21.145c.016.016.048.016.08 0l.225-.112c.016-.017.016-.033 0-.049zm.324.209l-.209-.145c-.016-.016-.048-.016-.08 0l-.225.113c-.016.016-.032.032 0 .048l.209.145c.016.016.048.016.08 0l.225-.112c.017-.017.033-.033 0-.049zm.338.209l-.209-.145c-.016-.016-.048-.016-.08 0l-.225.113c-.017.016-.033.032 0 .048l.209.145c.016.016.048.016.08 0l.225-.112c.016-.017.016-.033 0-.049zm.399.275l-.209-.145c-.016-.016-.049-.016-.081 0l-.225.112c-.016.017-.032.033 0 .049l.209.145c.016.016.048.016.081 0l.225-.113c.016-.016.016-.032 0-.048zm.323.209l-.209-.145c-.016-.016-.048-.016-.081 0l-.225.113c-.016.016-.032.032 0 .048l.209.145c.016.016.049.016.081 0l.225-.113c.016-.016.016-.032 0-.048zm.32.209l-.209-.145c-.016-.016-.048-.016-.08 0l-.225.113c-.017.016-.033.032 0 .048l.209.145c.016.016.048.016.08 0l.225-.113c.016-.016.016-.032 0-.048zm.323.21l-.21-.145c-.016-.016-.048-.016-.08 0l-.225.113c-.016.016-.032.032 0 .048l.209.145c.016.016.048.016.08 0l.226-.113c.016-.016.032-.032 0-.048zm-5.055-5.68l.226-.112c.016-.017.032-.033 0-.049l-.21-.145c-.016-.016-.048-.016-.08 0l-.225.113c-.016.016-.032.032 0 .048l.209.145c.016.016.048.016.08 0zm-.352.176l.225-.112c.016-.017.032-.033 0-.049l-.209-.144c-.016-.017-.048-.017-.081 0l-.225.112c-.016.016-.032.032 0 .048l.209.145h.081zm-.338.178l.225-.112c.016-.016.032-.032 0-.048l-.209-.145c-.016-.016-.048-.016-.08 0l-.226.112c-.016.016-.032.033 0 .049l.209.144h.081zm-.355.177l.226-.112c.016-.016.032-.032 0-.049l-.21-.144c-.016-.016-.048-.016-.08 0l-.225.112c-.016.016-.032.033 0 .049l.209.144h.08zm-.337.161l.226-.113c.016-.016.032-.032 0-.048l-.209-.145c-.017-.016-.049-.016-.081 0l-.225.112c-.016.017-.032.033 0 .049l.209.145c.032.016.064.016.08 0zm-.337.176l.225-.113c.016-.016.032-.032 0-.048l-.209-.145c-.016-.016-.049-.016-.081 0l-.225.113c-.016.016-.032.032 0 .048l.209.145c.016.016.048.016.081 0zm2.044-.658l.225-.113c.016-.016.032-.032 0-.048l-.209-.145c-.016-.016-.049-.016-.081 0l-.225.113c-.016.016-.032.032 0 .048l.209.145c.016.016.048.016.081 0zm-.353.176l.225-.112c.016-.017.032-.033 0-.049l-.209-.145c-.016-.016-.048-.016-.08 0l-.226.113c-.016.016-.032.032 0 .048l.21.145c.032.016.064.016.08 0zm-.338.178l.225-.112c.016-.016.033-.032 0-.049l-.209-.144c-.016-.016-.048-.016-.08 0l-.225.112c-.017.016-.033.032 0 .049l.209.144h.08zm-.335.177l.225-.112c.016-.016.033-.032 0-.049l-.209-.144c-.016-.016-.048-.016-.08 0l-.225.112c-.017.016-.033.032 0 .049l.209.144h.08zm-.358.177l.225-.113c.016-.016.032-.032 0-.048l-.209-.145c-.016-.016-.048-.016-.081 0l-.225.113c-.016.016-.032.032 0 .048l.209.145h.081zm-.336.16l.225-.113c.016-.016.032-.032 0-.048l-.209-.145c-.016-.016-.048-.016-.081 0l-.225.113c-.016.016-.032.032 0 .048l.209.145c.016.016.049.016.081 0zm2.038-.659l.225-.113c.016-.016.032-.032 0-.048l-.209-.145c-.016-.016-.048-.016-.08 0l-.226.113c-.016.016-.032.032 0 .048l.209.145c.033.016.065.016.081 0zm-.337.176l.225-.112c.016-.017.032-.033 0-.049l-.209-.145c-.016-.016-.048-.016-.08 0l-.226.113c-.016.016-.032.032 0 .048l.21.145c.016.016.048.016.08 0zm-.354.179l.226-.112c.016-.016.032-.032 0-.049l-.209-.144c-.017-.016-.049-.016-.081 0l-.225.112c-.016.016-.032.032 0 .049l.209.144c.032.016.064.016.08 0zm-.335.176l.226-.112c.016-.016.032-.032 0-.049l-.209-.144c-.017-.016-.049-.016-.081 0l-.225.112c-.016.016-.032.032 0 .049l.209.144h.08zm-.356.177l.225-.113c.016-.016.032-.032 0-.048l-.209-.145c-.016-.016-.048-.016-.08 0l-.226.113c-.016.016-.032.032 0 .048l.21.145h.08zm-.338.177l.225-.113c.016-.016.033-.032 0-.048l-.209-.145c-.016-.016-.048-.016-.08 0l-.225.113c-.017.016-.033.032 0 .048l.209.145h.08zm2.043-.676l.225-.113c.016-.016.033-.032 0-.048l-.209-.145c-.016-.016-.048-.016-.08 0l-.225.113c-.017.016-.033.032 0 .048l.209.145c.032.016.064.016.08 0zm-.337.176l.225-.113c.017-.016.033-.032 0-.048l-.209-.145c-.016-.016-.048-.016-.08 0l-.225.113c-.016.016-.033.032 0 .048l.209.145c.016.016.048.016.08 0zm-.353.178l.225-.113c.016-.016.032-.032 0-.048l-.209-.145c-.016-.016-.048-.016-.081 0l-.225.113c-.016.016-.032.032 0 .048l.209.145c.032.016.065.016.081 0zm-.335.177l.225-.113c.016-.016.032-.032 0-.048l-.209-.145c-.016-.016-.048-.016-.081 0l-.225.113c-.016.016-.032.032 0 .048l.209.145c.016.016.049.016.081 0zm-.357.176l.226-.112c.016-.016.032-.032 0-.049l-.21-.144c-.016-.016-.048-.016-.08 0l-.225.112c-.016.016-.032.032 0 .049l.209.144h.08zm-.338.177l.226-.112c.016-.016.032-.032 0-.049l-.21-.144c-.016-.016-.048-.016-.08 0l-.225.112c-.016.016-.032.032 0 .049l.209.144h.08zm2.042-.674l.226-.113c.016-.016.032-.032 0-.048l-.21-.145c-.016-.016-.048-.016-.08 0l-.225.113c-.016.016-.032.032 0 .048l.209.145c.032.016.064.016.08 0zm-.337.176l.226-.113c.016-.016.032-.032 0-.048l-.209-.145c-.017-.016-.049-.016-.081 0l-.225.113c-.016.016-.032.032 0 .048l.209.145c.016.016.048.016.08 0zm-.353.178l.225-.113c.016-.016.032-.032 0-.048l-.209-.145c-.016-.016-.048-.016-.08 0l-.226.113c-.016.016-.032.032 0 .048l.21.145c.032.016.064.016.08 0zm-.335.177l.225-.113c.016-.016.032-.032 0-.048l-.209-.145c-.016-.016-.048-.016-.08 0l-.226.113c-.016.016-.032.032 0 .048l.21.145c.032.016.064.016.08 0zm-.342.176l.225-.112c.017-.016.033-.032 0-.049l-.209-.144c-.016-.016-.048-.016-.08 0l-.225.112c-.016.016-.033.032 0 .049l.209.144c.016.016.048.016.08 0zm-.352.177l.225-.112c.016-.016.032-.032 0-.049l-.209-.144c-.016-.016-.049-.016-.081 0l-.225.112c-.016.016-.032.032 0 .049l.209.144h.081zm2.038-.66l.225-.113c.016-.016.032-.032 0-.048l-.209-.145c-.016-.016-.048-.016-.081 0l-.225.113c-.016.016-.032.032 0 .048l.209.145h.081zm-.337.161l.225-.113c.016-.016.032-.032 0-.048l-.209-.145c-.016-.016-.048-.016-.081 0l-.225.113c-.016.016-.032.032 0 .048l.209.145c.033.016.065.016.081 0zm-.336.176l.225-.112c.016-.016.032-.032 0-.049l-.209-.144c-.016-.016-.048-.016-.08 0l-.226.112c-.016.016-.032.032 0 .049l.209.144c.017.016.049.016.081 0zm-.353.177l.226-.112c.016-.016.032-.032 0-.049l-.21-.144c-.016-.016-.048-.016-.08 0l-.225.112c-.016.016-.032.032 0 .049l.209.144c.032.016.064.016.08 0zm-.341.177l.225-.112c.016-.016.032-.032 0-.049l-.209-.144c-.016-.016-.049-.016-.081 0l-.225.112c-.016.016-.032.032 0 .049l.209.144c.016.016.048.016.081 0zm-.353.177l.225-.113c.016-.016.032-.032 0-.048l-.209-.145c-.016-.016-.048-.016-.08 0l-.226.113c-.016.016-.032.032 0 .048l.21.145c.032.016.064.016.08 0zm1.705-.498l.225-.113c.016-.016.032-.032 0-.048l-.209-.145c-.016-.016-.048-.016-.08 0l-.225.113c-.017.016-.033.032 0 .048l.209.145c.032.016.064.016.08 0zm-.336.176l.225-.113c.016-.016.033-.032 0-.048l-.209-.145c-.016-.016-.048-.016-.08 0l-.225.113c-.016.016-.033.032 0 .048l.209.145c.016.016.048.016.08 0zm-.352.178l.225-.112c.016-.016.032-.033 0-.049l-.209-.144c-.016-.016-.049-.016-.081 0l-.225.112c-.016.016-.032.032 0 .048l.209.145c.032.016.065.016.081 0zm-.342.177l.225-.112c.016-.016.032-.033 0-.049l-.209-.144c-.016-.016-.048-.016-.081 0l-.225.112c-.016.016-.032.032 0 .048l.209.145c.016.016.049.016.081 0zm-.353.177l.226-.113c.016-.016.032-.032 0-.048l-.21-.145c-.016-.016-.048-.016-.08 0l-.225.112c-.016.017-.032.033 0 .049l.209.145c.032.016.064.016.08 0zm1.705-.482l.226-.112c.016-.016.032-.032 0-.049l-.21-.144c-.016-.016-.048-.016-.08 0l-.225.112c-.016.016-.032.032 0 .049l.209.144h.08zm-.336.161l.226-.112c.016-.016.032-.032 0-.048l-.209-.145c-.017-.016-.049-.016-.081 0l-.225.112c-.016.017-.032.033 0 .049l.209.144c.016.017.048.017.08 0zm-.352.177l.225-.113c.016-.016.032-.032 0-.048l-.209-.145c-.016-.016-.048-.016-.08 0l-.226.113c-.016.016-.032.032 0 .048l.209.145c.033.016.065.016.081 0zm-.342.177l.225-.113c.016-.016.032-.032 0-.048l-.209-.145c-.016-.016-.048-.016-.08 0l-.225.113c-.017.016-.033.032 0 .048l.209.145c.032.016.064.016.08 0zm-.352.177l.225-.113c.016-.016.032-.032 0-.048l-.209-.145c-.016-.016-.049-.016-.081 0l-.225.113c-.016.016-.032.032 0 .048l.209.145c.032.016.064.016.081 0zm1.708-.5l.225-.113c.016-.016.032-.032 0-.048l-.209-.145c-.016-.016-.049-.016-.081 0l-.225.113c-.016.016-.032.032 0 .048l.209.145c.032.016.064.016.081 0zm-.338.176l.225-.113c.016-.016.032-.032 0-.048l-.209-.145c-.016-.016-.048-.016-.081 0l-.225.113c-.016.016-.032.032 0 .048l.209.145c.032.016.065.016.081 0zm-.335.178l.225-.112c.016-.016.032-.033 0-.049l-.209-.144c-.016-.017-.048-.017-.081 0l-.225.112c-.016.016-.032.032 0 .048l.209.145h.081zm-.357.177l.225-.112c.017-.016.033-.033 0-.049l-.209-.144c-.016-.017-.048-.017-.08 0l-.225.112c-.016.016-.032.032 0 .048l.209.145h.08zm-.338.16l.226-.112c.016-.016.032-.032 0-.048l-.21-.145c-.016-.016-.048-.016-.08 0l-.225.112c-.016.016-.032.033 0 .049l.209.144c.016.016.048.016.08 0zm1.69-.482l.225-.113c.016-.016.032-.032 0-.048l-.209-.145c-.016-.016-.048-.016-.081 0l-.225.113c-.016.016-.032.032 0 .048l.209.145c.033.016.065.016.081 0zm-.338.176l.225-.113c.016-.016.032-.032 0-.048l-.209-.145c-.016-.016-.048-.016-.08 0l-.226.113c-.016.016-.032.032 0 .048l.21.145c.032.016.064.016.08 0zm-.335.178l.225-.113c.016-.016.032-.032 0-.048l-.209-.145c-.016-.016-.048-.016-.08 0l-.226.113c-.016.016-.032.032 0 .048l.21.145c.016.016.048.016.08 0zm-.356.177l.225-.113c.016-.016.032-.032 0-.048l-.209-.145c-.016-.016-.049-.016-.081 0l-.225.113c-.016.016-.032.032 0 .048l.209.145h.081zm-.338.176l.225-.112c.016-.016.032-.033 0-.049l-.209-.144c-.016-.016-.049-.016-.081 0l-.225.112c-.016.016-.032.032 0 .048l.209.145h.081zm1.704-.496l.225-.113c.016-.016.032-.032 0-.048l-.209-.145c-.016-.016-.048-.016-.081 0l-.225.113c-.016.016-.032.032 0 .048l.209.145c.016.016.049.016.081 0zm-.354.176l.225-.113c.017-.016.033-.032 0-.048l-.209-.145c-.016-.016-.048-.016-.08 0l-.225.113c-.016.016-.033.032 0 .048l.209.145c.032.016.064.016.08 0zm-.335.179l.225-.113c.017-.016.033-.032 0-.048l-.209-.145c-.016-.016-.048-.016-.08 0l-.225.113c-.016.016-.032.032 0 .048l.209.145c.016.016.048.016.08 0zm-.356.176l.225-.113c.016-.016.032-.032 0-.048l-.209-.145c-.016-.016-.048-.016-.081 0l-.225.113c-.016.016-.032.032 0 .048l.209.145c.033.016.065.016.081 0zm-.338.176l.225-.112c.016-.017.032-.033 0-.049l-.209-.144c-.016-.017-.048-.017-.08 0l-.226.112c-.016.016-.032.032 0 .048l.209.145h.081zm1.705-.498l.225-.113c.016-.016.032-.032 0-.048l-.209-.145c-.016-.016-.048-.016-.08 0l-.226.113c-.016.016-.032.032 0 .048l.21.145c.016.016.048.016.08 0zm-.354.176l.226-.113c.016-.016.032-.032 0-.048l-.209-.145c-.017-.016-.049-.016-.081 0l-.225.113c-.016.016-.032.032 0 .048l.209.145c.032.016.064.016.08 0zm-.334.178l.225-.113c.016-.016.032-.032 0-.048l-.209-.145c-.016-.016-.049-.016-.081 0l-.225.113c-.016.016-.032.032 0 .048l.209.145c.016.016.048.016.081 0zm-.357.177l.225-.113c.016-.016.032-.032 0-.048l-.209-.145c-.016-.016-.048-.016-.08 0l-.225.113c-.017.016-.033.032 0 .048l.209.145c.032.016.064.016.08 0zm-.338.176l.225-.112c.016-.017.033-.033 0-.049l-.209-.144c-.016-.017-.048-.017-.08 0l-.225.112c-.016.016-.033.032 0 .048l.209.145c.032 0 .064.016.08 0zm1.705-.499l.225-.113c.017-.016.033-.032 0-.048l-.209-.145c-.016-.016-.048-.016-.08 0l-.225.113c-.016.016-.032.032 0 .048l.209.145c.016.016.048.016.08 0zm-.353.176l.225-.113c.016-.016.032-.032 0-.048l-.209-.145c-.016-.016-.048-.016-.081 0l-.225.113c-.016.016-.032.032 0 .048l.209.145c.033.016.065.016.081 0zm-.335.178l.225-.113c.016-.016.032-.032 0-.048l-.209-.145c-.016-.016-.048-.016-.081 0l-.225.113c-.016.016-.032.032 0 .048l.209.145c.033.016.065.016.081 0zm-.342.177l.225-.113c.016-.016.032-.032 0-.048l-.209-.145c-.016-.016-.048-.016-.08 0l-.226.113c-.016.016-.032.032 0 .048l.21.145c.016.016.048.016.08 0zm-.353.176l.226-.112c.016-.017.032-.033 0-.049l-.209-.144c-.017-.017-.049-.017-.081 0l-.225.112c-.016.016-.032.032 0 .048l.209.145c.032.016.064.016.08 0zm1.704-.482l.225-.113c.016-.016.032-.032 0-.048l-.209-.145c-.016-.016-.049-.016-.081 0l-.225.113c-.016.016-.032.032 0 .048l.209.145h.081zm-.336.161l.225-.113c.016-.016.032-.032 0-.048l-.209-.145c-.016-.016-.049-.016-.081 0l-.225.113c-.016.016-.032.032 0 .048l.209.145c.016.016.048.016.081 0zm-.353.176l.225-.112c.016-.017.033-.033 0-.049l-.209-.145c-.016-.016-.048-.016-.08 0l-.225.113c-.017.016-.033.032 0 .048l.209.145c.032.016.064.016.08 0zm-.342.177l.226-.112c.016-.017.032-.033 0-.049l-.21-.144c-.016-.017-.048-.017-.08 0l-.225.112c-.016.016-.032.032 0 .048l.209.145c.016.016.048.016.08 0zm-.352.177l.225-.112c.016-.017.032-.033 0-.049l-.209-.144c-.016-.017-.048-.017-.081 0l-.225.112c-.016.016-.032.032 0 .048l.209.145c.032.016.065.016.081 0zm1.706-.481l.225-.113c.016-.016.032-.032 0-.048l-.209-.145c-.016-.016-.048-.016-.081 0l-.225.113c-.016.016-.032.032 0 .048l.209.145h.081zm-.336.176l.225-.113c.016-.016.032-.032 0-.048l-.209-.145c-.016-.016-.048-.016-.08 0l-.226.113c-.016.016-.032.032 0 .048l.209.145h.081zm-.353.161l.226-.113c.016-.016.032-.032 0-.048l-.21-.145c-.016-.016-.048-.016-.08 0l-.225.113c-.016.016-.032.032 0 .048l.209.145c.032.016.064.016.08 0zm-.341.177l.225-.112c.016-.017.032-.033 0-.049l-.209-.145c-.016-.016-.049-.016-.081 0l-.225.113c-.016.016-.032.032 0 .048l.209.145c.016.016.048.016.081 0zm-.353.177l.225-.112c.016-.017.032-.033 0-.049l-.209-.145c-.016-.016-.048-.016-.08 0l-.226.113c-.016.016-.032.032 0 .048l.21.145c.032.016.064.016.08 0zm1.701-.484l.225-.112c.016-.016.033-.032 0-.048l-.209-.145c-.016-.016-.048-.016-.08 0l-.225.112c-.016.017-.033.033 0 .049l.209.144c.032 0 .064.017.08 0zm-.338.176l.226-.112c.016-.016.032-.032 0-.048l-.21-.145c-.016-.016-.048-.016-.08 0l-.225.112c-.016.017-.032.033 0 .049l.209.144h.08zm-.354.179l.225-.113c.016-.016.032-.032 0-.048l-.209-.145c-.016-.016-.048-.016-.081 0l-.225.113c-.016.016-.032.032 0 .048l.209.145h.081zm-.337.16l.225-.113c.016-.016.032-.032 0-.048l-.209-.145c-.016-.016-.048-.016-.08 0l-.226.113c-.016.016-.032.032 0 .048l.209.145c.033.016.065.016.081 0zm-.338.177l.225-.113c.016-.016.032-.032 0-.048l-.209-.145c-.016-.016-.048-.016-.08 0l-.226.113c-.016.016-.032.032 0 .048l.21.145c.016.016.048.016.08 0zm2.04-.658l.225-.113c.016-.016.032-.032 0-.048l-.209-.145c-.016-.016-.048-.016-.08 0l-.226.113c-.016.016-.032.032 0 .048l.21.145c.016.016.048.016.08 0zm-.353.176l.226-.113c.016-.016.032-.032 0-.048l-.209-.145c-.016-.016-.049-.016-.081 0l-.225.113c-.016.016-.032.032 0 .048l.209.145c.032.016.064.016.08 0zm-.337.178l.225-.112c.016-.017.032-.033 0-.049l-.209-.144c-.016-.017-.049-.017-.081 0l-.225.112c-.016.016-.032.032 0 .048l.209.145h.081zm-.355.177l.225-.112c.016-.017.033-.033 0-.049l-.209-.144c-.016-.017-.048-.017-.08 0l-.225.112c-.017.016-.033.032 0 .048l.209.145h.08zm-.337.176l.225-.112c.017-.016.033-.032 0-.048l-.209-.145c-.016-.016-.048-.016-.08 0l-.225.112c-.016.016-.033.033 0 .049l.209.144h.08zm-.338.161l.226-.113c.016-.016.032-.032 0-.048l-.21-.145c-.016-.016-.048-.016-.08 0l-.225.113c-.016.016-.032.032 0 .048l.209.145c.016.016.048.016.08 0zm2.043-.658l.226-.113c.016-.016.032-.032 0-.048l-.21-.145c-.016-.016-.048-.016-.08 0l-.225.113c-.016.016-.032.032 0 .048l.209.145c.016.016.064.016.08 0zm-.352.176l.225-.113c.016-.016.032-.032 0-.048l-.209-.145c-.016-.016-.048-.016-.081 0l-.225.113c-.016.016-.032.032 0 .048l.209.145c.032.016.065.016.081 0zm-.338.178l.225-.112c.016-.017.032-.033 0-.049l-.209-.145c-.016-.016-.048-.016-.081 0l-.225.113c-.016.016-.032.032 0 .048l.209.145c.033.016.065.016.081 0zm-.335.177l.225-.112c.016-.017.032-.033 0-.049l-.209-.145c-.016-.016-.048-.016-.08 0l-.226.113c-.016.016-.032.032 0 .048l.209.145h.081zm-.357.176l.226-.112c.016-.016.032-.032 0-.048l-.209-.145c-.017-.016-.049-.016-.081 0l-.225.112c-.016.016-.032.033 0 .049l.209.144h.08zm-.337.177l.225-.112c.016-.016.032-.032 0-.048l-.209-.145c-.016-.016-.049-.016-.081 0l-.225.112c-.016.016-.032.033 0 .049l.209.144h.081zm2.041-.675l.225-.113c.016-.016.032-.032 0-.048l-.209-.145c-.016-.016-.049-.016-.081 0l-.225.113c-.016.016-.032.032 0 .048l.209.145h.081zm-.353.176l.225-.113c.016-.016.032-.032 0-.048l-.209-.145c-.016-.016-.048-.016-.08 0l-.226.113c-.016.016-.032.032 0 .048l.21.145h.08zm-.336.178l.225-.112c.016-.017.032-.033 0-.049l-.209-.145c-.016-.016-.048-.016-.08 0l-.225.113c-.017.016-.033.032 0 .048l.209.145h.08zm-.352.16l.225-.112c.016-.016.032-.033 0-.049l-.209-.144c-.016-.016-.049-.016-.081 0l-.225.112c-.016.016-.032.032 0 .048l.209.145c.032.016.064.016.081 0zm-.342.177l.225-.112c.016-.016.032-.033 0-.049l-.209-.144c-.016-.016-.048-.016-.081 0l-.225.112c-.016.016-.032.032 0 .048l.209.145c.016.016.049.016.081 0zm-.353.177l.225-.113c.017-.016.033-.032 0-.048l-.209-.145c-.016-.016-.048-.016-.08 0l-.225.112c-.016.017-.033.033 0 .049l.209.145c.032.016.064.016.08 0zm2.059-.659l.225-.113c.016-.016.032-.032 0-.048l-.209-.145c-.016-.016-.048-.016-.081 0l-.225.113c-.016.016-.032.032 0 .048l.209.145c.016.016.049.016.081 0zm-.353.176l.225-.113c.017-.016.033-.032 0-.048l-.209-.145c-.016-.016-.048-.016-.08 0l-.225.113c-.016.016-.032.032 0 .048l.209.145h.08zm-.338.178l.226-.113c.016-.016.032-.032 0-.048l-.21-.145c-.016-.016-.048-.016-.08 0l-.225.113c-.016.016-.032.032 0 .048l.209.145h.08zm-.354.16l.225-.112c.016-.016.032-.033 0-.049l-.209-.144c-.016-.016-.048-.016-.08 0l-.226.112c-.016.016-.032.032 0 .048l.209.145c.033.016.065.016.081 0zm-.337.177l.225-.112c.016-.016.032-.033 0-.049l-.209-.144c-.016-.016-.048-.016-.08 0l-.226.112c-.016.016-.032.032 0 .048l.21.145c.032.016.064.016.08 0zm-.338.177l.225-.113c.016-.016.032-.032 0-.048l-.209-.145c-.016-.016-.048-.016-.08 0l-.225.112c-.017.017-.033.033 0 .049l.209.145c.016.016.048.016.08 0zm2.04-.66l.225-.113c.016-.016.033-.032 0-.048l-.209-.145c-.016-.016-.048-.016-.08 0l-.225.113c-.017.016-.033.032 0 .048l.209.145c.016.016.048.016.08 0zm-.352.176l.225-.113c.016-.016.032-.032 0-.048l-.209-.145c-.016-.016-.049-.016-.081 0l-.225.113c-.016.016-.032.032 0 .048l.209.145c.032.016.064.016.081 0zm-.338.179l.225-.113c.016-.016.032-.032 0-.048l-.209-.145c-.016-.016-.048-.016-.081 0l-.225.113c-.016.016-.032.032 0 .048l.209.145h.081zm-.335.176l.225-.113c.016-.016.032-.032 0-.048l-.209-.145c-.016-.016-.048-.016-.081 0l-.225.113c-.016.016-.032.032 0 .048l.209.145h.081zm-.357.16l.226-.113c.016-.016.032-.032 0-.048l-.21-.145c-.016-.016-.048-.016-.08 0l-.225.113c-.016.016-.032.032 0 .048l.209.145c.032.016.064.016.08 0zm-.338.176l.226-.112c.016-.016.032-.032 0-.049l-.21-.144c-.016-.016-.048-.016-.08 0l-.225.112c-.016.016-.032.032 0 .049l.209.144c.016.016.048.016.08 0zm2.04-.657l.226-.113c.016-.016.032-.032 0-.048l-.209-.145c-.017-.016-.049-.016-.081 0l-.225.113c-.016.016-.032.032 0 .048l.209.145c.016.016.064.016.08 0zm-.352.176l.225-.113c.016-.016.032-.032 0-.048l-.209-.145c-.016-.016-.048-.016-.08 0l-.226.113c-.016.016-.032.032 0 .048l.209.145c.033.016.065.016.081 0zm-.338.178l.225-.113c.016-.016.032-.032 0-.048l-.209-.145c-.016-.016-.048-.016-.08 0l-.226.113c-.016.016-.032.032 0 .048l.21.145c.032.016.064.016.08 0zm-.335.177l.225-.113c.016-.016.032-.032 0-.048l-.209-.145c-.016-.016-.048-.016-.08 0l-.226.113c-.016.016-.032.032 0 .048l.21.145h.08zm-.356.176l.225-.113c.016-.016.032-.032 0-.048l-.209-.145c-.016-.016-.049-.016-.081 0l-.225.113c-.016.016-.032.032 0 .048l.209.145h.081zm-.338.16l.225-.112c.016-.016.032-.033 0-.049l-.209-.144c-.016-.016-.048-.016-.081 0l-.225.112c-.016.016-.032.032 0 .048l.209.145c.016.016.049.016.081 0zm2.045-.657l.225-.113c.016-.016.032-.032 0-.048l-.209-.145c-.016-.016-.049-.016-.081 0l-.225.113c-.016.016-.032.032 0 .048l.209.145c.032.016.065.016.081 0zm-.337.176l.225-.113c.016-.016.032-.032 0-.048l-.209-.145c-.016-.016-.048-.016-.081 0l-.225.113c-.016.016-.032.032 0 .048l.209.145c.016.016.049.016.081 0zm-.355.178l.225-.113c.017-.016.033-.032 0-.048l-.209-.145c-.016-.016-.048-.016-.08 0l-.225.113c-.016.016-.033.032 0 .048l.209.145c.032.016.064.016.08 0zm-.334.177l.225-.113c.017-.016.033-.032 0-.048l-.209-.145c-.016-.016-.048-.016-.08 0l-.225.113c-.016.016-.033.032 0 .048l.209.145c.016.016.048.016.08 0zm-.356.176l.225-.113c.016-.016.032-.032 0-.048l-.209-.145c-.016-.016-.048-.016-.081 0l-.225.113c-.016.016-.032.032 0 .048l.209.145h.081zm-.338.177l.225-.113c.016-.016.032-.032 0-.048l-.209-.145c-.016-.016-.048-.016-.08 0l-.226.113c-.016.016-.032.032 0 .048l.209.145h.081zm-.305-2.495l-3.121-2.043c-.016-.016-.049-.016-.081 0l-.225.112c-.016.016-.032.033 0 .049l3.121 2.043c.016.016.048.016.08 0l.226-.113c.016-.016.016-.032 0-.048zm-1.687 4.103l.354-.177-.386-1.061h-.402l.434 1.238z" fill="#8AA8FF"/>
  <path d="M234.842 205.745s-2.075 2.977-7.641.821c-5.566-2.156-4.473-3.974-4.473-3.974s-.547-10.891 0-13.433c.547-2.541 1.223-4.198 2.462-4.954 0 0 6.113 2.22 7.336 3.523.724.772 1.013 6.789 1.544 11.534.338 3.218.772 6.483.772 6.483z" fill="#FFC700"/>
  <path d="M221.329 191.974l-.579 6.966-3.62 5.18 1.737.869 3.781-3.909-.161-8.51-1.158-.596zm7.688-8.543l.579 3.089s-.354 1.271-1.882.853c-1.529-.418-1.303-1.352-1.303-1.352l-.081-2.043 2.687-.547z" fill="#F89AB5"/>
  <path d="M226.33 184.059s.515 1.158 2.992.933l-.386-1.979-2.606 1.046z" fill="#DB8FAA"/>
  <path d="M224.254 180.745c.596 2.799 1.786 4.263 3.314 3.941 1.545-.337 3.25-1.753 2.59-4.842-.466-2.188-2.091-3.684-3.635-3.346-2.623.547-2.735 2.059-2.269 4.247z" fill="#F89AB5"/>
  <path d="M223.95 178.686a.677.677 0 01-.338-.837c.225-.643.756-1.64 1.963-1.946 1.383-.354 4.649-1.287 5.26 4.295v.692s-1.319-1.03-1.608-1.464c-.29-.434-.885-.74-1.673-.756-.676-.016-.998.064-1.529.466a.934.934 0 01-.997.097l-1.078-.547z" fill="#0A1A4E"/>
  <path d="M228.952 180.745a.992.992 0 001.175.756.992.992 0 00.756-1.174.993.993 0 00-1.175-.757.993.993 0 00-.756 1.175z" fill="#F89AB5"/>
  <path d="M226.203 187.662c.724.387 1.882.354 2.574-.096.691-.434.675-1.11-.049-1.496-.723-.386-1.882-.354-2.574.096-.691.451-.675 1.11.049 1.496z" fill="#E9A71A"/>
  <path d="M226.557 187.438c.724.386 1.85.338 2.542-.08.692-.435.66-1.094-.048-1.464-.724-.386-1.85-.338-2.542.08-.692.418-.66 1.078.048 1.464z" fill="#F89AB5"/>
  <path d="M227.763 178.67l1.174 1.77.595-.467-.193-.708-.933-1.061-.643.466z" fill="#0A1A4E"/>
  <path d="M229.099 193.615l-1.254 7.786.466-.756-4.746 4.666a1.01 1.01 0 00-.016 1.415c.354.354.917.402 1.303.113l5.357-3.942.29-.209.193-.563 2.558-7.464a2.15 2.15 0 00-1.335-2.735 2.15 2.15 0 00-2.735 1.335 2.862 2.862 0 00-.081.354z" fill="#F89AB5"/>
  <path d="M232.83 195.964l-.145.386s-1.657.836-3.893-.772l.161-.789 3.877 1.175z" fill="#E6E6E6"/>
  <path d="M228.583 194.822c.917 1.319 3.652 1.818 4.585.901l1.078-5.92c.177-1.126-.724-2.188-1.995-2.381-1.384-.209-2.655.611-2.831 1.834l-.837 5.566z" fill="#FFC700"/>
  <path d="M224.188 205.02l-1.319.837.097 1.19.177.821.209.772 2.043-1.931c.177-.177.306-.386.338-.643l.161-.885-1.706-.161z" fill="#F89AB5"/>
  <path d="M221.714 207.611c.129 0 .258-.08.322-.209.258-.531 1.287-1.013 1.641-1.142.193-.064.274-.273.209-.467-.064-.193-.273-.273-.466-.209-.161.065-1.609.628-2.043 1.513-.081.176-.016.402.177.482a.473.473 0 00.16.032z" fill="#F89AB5"/>
  <path d="M222.484 206.051h.033c1.029-.096 1.85-.338 1.882-.338a.349.349 0 00.241-.45.349.349 0 00-.45-.241s-.805.225-1.754.321a.357.357 0 00-.321.386.367.367 0 00.369.322zm-.53 2.349a.364.364 0 00.338-.242c.177-.563 1.142-1.174 1.48-1.351a.35.35 0 00.144-.483.349.349 0 00-.482-.144c-.161.08-1.512.836-1.818 1.769a.362.362 0 00.225.451h.113z" fill="#F89AB5"/>
  <path d="M222.602 208.69c.145 0 .29-.096.338-.241.177-.563 1.126-1.175 1.48-1.351a.351.351 0 00.145-.483.351.351 0 00-.483-.145c-.161.081-1.512.837-1.818 1.77a.36.36 0 00.226.45h.112z" fill="#F89AB5"/>
  <path d="M223.321 208.915c.177 0 .338-.129.354-.306.081-.563.821-1.158 1.094-1.335a.383.383 0 00.113-.499.379.379 0 00-.499-.112c-.129.08-1.271.852-1.416 1.85a.35.35 0 00.306.402h.048z" fill="#F89AB5"/>
  <path d="M222.468 210.298l-2.123-6.001a.676.676 0 00-.225-.289l-7.529-4.826c-.065-.033-.129-.033-.177.016-.049.048-.081.112-.049.177l1.899 5.791 8.204 5.132z" fill="#8AA8FF"/>
  <path d="M212.077 199.357l.354-.177c.016 0 .032-.016.048-.016h.016c.033 0 .065 0 .097.032l7.287 4.682.226.145c.064.032.112.08.144.144l-.37.177-7.335-4.697-.049.032-.418-.322z" fill="#D2E4FF"/>
  <path d="M222.116 210.473l-2.124-6a.666.666 0 00-.225-.29l-7.529-4.826c-.064-.032-.129-.032-.177.016-.048.048-.08.113-.048.177l1.898 5.791 8.205 5.132z" fill="#AEC5FF"/>
  <path d="M215.39 204.313c.08.724.691 1.561 1.351 1.85.66.29 1.142-.048 1.062-.788-.081-.724-.692-1.561-1.352-1.85-.659-.29-1.142.064-1.061.788z" fill="#8AA8FF"/>
  <path d="M215.153 179.459l4.798 2.772v-29.975l-4.798-2.771v29.974z" fill="#A7D2E3"/>
  <path d="M224.762 179.459l-4.811 2.772v-29.975l4.811-2.771v29.974z" fill="#4596B4"/>
  <path d="M215.153 149.485l4.798 2.771 4.81-2.771-4.81-2.771-4.798 2.771z" fill="#93C9DE"/>
  <path d="M204.578 172.78l4.811 2.771v-34.419l-4.811-2.771v34.419z" fill="#A7D2E3"/>
  <path d="M214.186 172.78l-4.797 2.771v-34.419l4.797-2.771v34.419z" fill="#4596B4"/>
  <path d="M204.577 138.361l4.811 2.771 4.797-2.771-4.797-2.772-4.811 2.772z" fill="#93C9DE"/>
  <path d="M193.885 165.864l4.81 2.772v-39.844l-4.81-2.771v39.843z" fill="#A7D2E3"/>
  <path d="M203.493 165.864l-4.798 2.772v-39.844l4.798-2.771v39.843z" fill="#4596B4"/>
  <path d="M193.885 126.021l4.81 2.771 4.798-2.771-4.798-2.772-4.81 2.772z" fill="#93C9DE"/>
  <path d="M183.23 159.903l4.798 2.785v-45.165l-4.798-2.771v45.151z" fill="#A7D2E3"/>
  <path d="M192.826 159.903l-4.798 2.785v-45.165l4.798-2.771v45.151z" fill="#4596B4"/>
  <path d="M183.23 114.752l4.798 2.772 4.797-2.772-4.797-2.771-4.798 2.771z" fill="#93C9DE"/>
  <path d="M172.669 153.969l4.811 2.771v-50.589l-4.811-2.772v50.59z" fill="#A7D2E3"/>
  <path d="M182.277 153.969l-4.798 2.771v-50.589l4.798-2.772v50.59z" fill="#4596B4"/>
  <path d="M172.669 103.379l4.811 2.772 4.797-2.772-4.797-2.771-4.811 2.771z" fill="#93C9DE"/>
  <path d="M161.896 147.681l4.811 2.771V94.556l-4.811-2.772v55.897z" fill="#A7D2E3"/>
  <path d="M171.505 147.681l-4.798 2.771V94.556l4.798-2.772v55.897z" fill="#4596B4"/>
  <path d="M161.896 91.784l4.811 2.772 4.798-2.772L166.707 89l-4.811 2.784z" fill="#93C9DE"/>
  <circle cx="283.5" cy="246.5" r="36.5" fill="#00ADEE"/>
  <defs>
    <linearGradient id="Top_5_USA__paint0_linear" x1="82.001" y1="101.556" x2="200.501" y2="274.056" gradientUnits="userSpaceOnUse">
      <stop stop-color="#EFEFEF"/>
      <stop offset="1" stop-color="#F8F8F8"/>
    </linearGradient>
    <linearGradient id="Top_5_USA__paint1_linear" x1="91.858" y1="156.46" x2="94.22" y2="156.394" gradientUnits="userSpaceOnUse">
      <stop stop-color="#FCE559"/>
      <stop offset="1" stop-color="#F6AA28"/>
    </linearGradient>
    <linearGradient id="Top_5_USA__paint2_linear" x1="134.362" y1="155.942" x2="137.75" y2="155.846" gradientUnits="userSpaceOnUse">
      <stop stop-color="#FCE559"/>
      <stop offset="1" stop-color="#F6AA28"/>
    </linearGradient>
    <linearGradient id="Top_5_USA__paint3_linear" x1="91.903" y1="158.081" x2="137.777" y2="156.792" gradientUnits="userSpaceOnUse">
      <stop stop-color="#FCE559"/>
      <stop offset="1" stop-color="#F6AA28"/>
    </linearGradient>
    <linearGradient id="Top_5_USA__paint4_linear" x1="98.227" y1="143.908" x2="115.235" y2="171.544" gradientUnits="userSpaceOnUse">
      <stop stop-color="#FCE559"/>
      <stop offset="1" stop-color="#F6AA28"/>
    </linearGradient>
    <linearGradient id="Top_5_USA__paint5_linear" x1="116.81" y1="140.141" x2="113.791" y2="166.056" gradientUnits="userSpaceOnUse">
      <stop stop-color="#FCE559"/>
      <stop offset="1" stop-color="#F6AA28"/>
    </linearGradient>
    <linearGradient id="Top_5_USA__paint6_linear" x1="116.613" y1="163.544" x2="116.731" y2="141.283" gradientUnits="userSpaceOnUse">
      <stop stop-color="#FCD835"/>
      <stop offset="1" stop-color="#FAA925"/>
    </linearGradient>
    <linearGradient id="Top_5_USA__paint7_linear" x1="116.408" y1="162.387" x2="116.514" y2="142.526" gradientUnits="userSpaceOnUse">
      <stop stop-color="#FFC533"/>
      <stop offset="1" stop-color="#F8BA26"/>
    </linearGradient>
    <linearGradient id="Top_5_USA__paint8_linear" x1="103.944" y1="153.594" x2="125.502" y2="152.988" gradientUnits="userSpaceOnUse">
      <stop stop-color="#FCD835"/>
      <stop offset="1" stop-color="#FAA925"/>
    </linearGradient>
  </defs>
</svg>
