<svg width="329" height="326" viewBox="0 0 329 326" fill="none" xmlns="http://www.w3.org/2000/svg">
<path d="M111.004 54.5915C144.36 35.4164 206.643 69.7646 233.615 89.3356C334.804 154.589 301.979 206.133 272.794 233.759C258.365 247.417 245.923 262.418 171.034 288.747C96.1447 315.076 69.3345 261.696 65.2905 231.715C54.3624 173.529 69.309 78.5604 111.004 54.5915Z" fill="url(#paint0_linear)"/>
<path opacity="0.17" d="M258.977 204.631C248.457 201.663 237.252 203.302 233.964 208.299C233.508 208.984 233.239 209.709 233.119 210.434L208.011 203.342L186.514 197.27C177.215 180.601 141.869 142.264 130.744 139L166.01 187.693L165.272 189.856L170.693 189.829L81 163.42C86.2737 170.11 147.532 197.7 175.202 202.979L186.152 217.433L197.236 232.061C195.948 232.088 194.673 232.208 193.438 232.423C184.474 234.008 180.985 240.268 185.628 246.407C190.271 252.532 201.302 256.226 210.266 254.627C219.23 253.042 222.719 246.783 218.076 240.644C216.506 238.575 214.211 236.789 211.527 235.392H211.648C211.648 235.392 198.551 225.156 191.828 215.821C188.769 211.59 187.037 207.546 188.42 204.725C188.554 204.443 188.648 204.108 188.675 203.745C193.304 203.772 199.021 204.873 204.898 206.458C220.934 210.784 238.204 218.776 238.204 218.776V218.709C240.526 220.307 243.532 221.704 247.088 222.712C257.608 225.68 268.813 224.041 272.088 219.045C275.375 214.061 269.498 207.6 258.977 204.631ZM213.835 241.396C217.271 245.923 214.681 250.544 208.065 251.726C201.45 252.895 193.304 250.181 189.869 245.654C186.434 241.128 189.023 236.507 195.639 235.338C202.255 234.143 210.4 236.87 213.835 241.396ZM267.096 217.648C264.667 221.328 256.401 222.55 248.631 220.348C240.861 218.158 236.527 213.389 238.956 209.696C241.385 206.015 249.651 204.793 257.42 206.996C265.19 209.185 269.524 213.954 267.096 217.648Z" fill="#163891"/>
<path opacity="0.17" d="M114.707 172.074C129.673 172.074 141.806 165.068 141.806 156.426C141.806 147.784 129.673 140.779 114.707 140.779C99.7409 140.779 87.6084 147.784 87.6084 156.426C87.6084 165.068 99.7409 172.074 114.707 172.074Z" fill="#163891"/>
<path d="M91.7646 153.21L91.8954 157.851L94.3137 159.655L94.1438 153.59L91.7646 153.21Z" fill="url(#paint1_linear)"/>
<path d="M137.646 152.165L137.777 156.792L134.914 159.603L134.273 152.662L137.646 152.165Z" fill="url(#paint2_linear)"/>
<path d="M130.797 147.616C121.698 142.701 107.175 143.106 98.3646 148.531C89.554 153.956 89.7893 162.335 98.8875 167.263C107.986 172.178 122.509 171.773 131.32 166.348C140.13 160.923 139.895 152.531 130.797 147.616Z" fill="url(#paint3_linear)"/>
<path d="M130.666 143.001C139.764 147.916 139.999 156.309 131.189 161.734C122.378 167.159 107.855 167.564 98.7566 162.649C89.6584 157.734 89.4231 149.341 98.2338 143.916C107.044 138.478 121.568 138.073 130.666 143.001Z" fill="url(#paint4_linear)"/>
<path d="M130.103 143.341C138.888 148.086 139.11 156.178 130.613 161.407C122.116 166.636 108.103 167.028 99.3184 162.283C90.5339 157.538 90.3117 149.446 98.8086 144.217C107.306 138.988 121.319 138.596 130.103 143.341Z" fill="url(#paint5_linear)"/>
<path opacity="0.82" d="M128.104 144.57C135.738 148.701 135.947 155.734 128.548 160.283C121.149 164.832 108.966 165.172 101.332 161.054C93.6978 156.923 93.4887 149.89 100.888 145.341C108.273 140.792 120.457 140.452 128.104 144.57Z" fill="url(#paint6_linear)"/>
<path opacity="0.82" d="M101.214 145.524C108.561 141.001 120.626 140.635 128.274 144.674C128.221 144.648 128.169 144.609 128.104 144.583C120.47 140.452 108.273 140.792 100.887 145.354C93.4886 149.903 93.6847 156.936 101.332 161.067C101.384 161.093 101.45 161.119 101.502 161.158C94.0115 157.001 93.8677 150.034 101.214 145.524Z" fill="white"/>
<path opacity="0.59" d="M126.653 145.459C133.464 149.145 133.647 155.42 127.045 159.485C120.444 163.551 109.568 163.851 102.757 160.165C95.9466 156.479 95.7636 150.204 102.365 146.139C108.966 142.086 119.843 141.786 126.653 145.459Z" fill="url(#paint7_linear)"/>
<path opacity="0.82" d="M119.021 150.91L119.047 151.642L120.158 152.138L119.962 151.197L119.021 150.91Z" fill="#FAA925"/>
<path d="M125.294 147.171L125.321 147.903L124.562 148.361L124.026 147.955L125.294 147.171Z" fill="#FAA925"/>
<g opacity="0.82">
<path opacity="0.82" d="M104.09 158.675L105.698 157.694C104.469 156.844 103.959 156.008 104.155 155.21C104.351 154.4 105.201 153.537 106.704 152.622L107.293 152.256L111.136 154.348L110.691 154.622C109.58 155.302 109.384 155.825 110.064 156.204C110.351 156.361 110.691 156.413 111.07 156.374C111.449 156.335 111.815 156.204 112.168 155.982C112.417 155.825 112.561 155.472 112.6 154.923L112.534 151.289C112.508 149.955 113.162 148.883 114.482 148.073C115.45 147.485 116.626 147.132 118.025 147.053C119.423 146.962 120.77 147.171 122.09 147.668L123.397 146.87L125.306 147.916L124.038 148.687C125.11 149.446 125.567 150.269 125.397 151.145C125.241 152.021 124.43 152.91 122.979 153.799L119.031 151.655L119.92 151.08C120.103 150.949 120.182 150.792 120.156 150.596C120.116 150.413 119.999 150.256 119.763 150.125C119.502 149.982 119.214 149.916 118.874 149.903C118.535 149.903 118.247 149.968 117.999 150.125C117.633 150.348 117.476 150.87 117.502 151.694L117.62 155.197C117.646 155.812 117.463 156.4 117.097 156.949C116.731 157.498 116.221 157.982 115.567 158.374C114.887 158.792 114.129 159.093 113.267 159.289C112.404 159.485 111.476 159.537 110.469 159.459C109.463 159.38 108.495 159.132 107.58 158.74L105.998 159.707L104.09 158.675Z" fill="url(#paint8_linear)"/>
</g>
<path d="M104.065 157.943L105.673 156.962C104.445 156.112 103.935 155.276 104.131 154.478C104.327 153.668 105.177 152.805 106.68 151.89L107.268 151.524L111.111 153.616L110.667 153.89C109.556 154.57 109.36 155.093 110.039 155.472C110.327 155.629 110.667 155.681 111.046 155.642C111.425 155.603 111.791 155.472 112.144 155.25C112.392 155.093 112.536 154.74 112.575 154.191L112.51 150.557C112.484 149.223 113.138 148.152 114.458 147.341C115.425 146.753 116.602 146.4 118 146.321C119.399 146.23 120.746 146.439 122.066 146.936L123.373 146.138L125.282 147.184L124.014 147.955C125.085 148.714 125.543 149.537 125.373 150.413C125.216 151.289 124.406 152.178 122.955 153.067L119.007 150.923L119.896 150.348C120.079 150.217 120.157 150.06 120.131 149.864C120.092 149.681 119.974 149.524 119.739 149.393C119.478 149.25 119.19 149.184 118.85 149.171C118.51 149.171 118.223 149.237 117.974 149.393C117.608 149.616 117.451 150.139 117.477 150.962L117.595 154.465C117.621 155.08 117.438 155.668 117.072 156.217C116.706 156.766 116.196 157.25 115.543 157.642C114.863 158.06 114.105 158.361 113.242 158.557C112.379 158.753 111.451 158.805 110.445 158.727C109.438 158.648 108.471 158.4 107.556 158.008L105.974 158.975L104.065 157.943Z" fill="#FFE169"/>
<path d="M105.987 158.988L106.026 159.72L104.092 158.675L104.065 157.943L105.987 158.988Z" fill="#FAA925"/>
<path d="M93 166.456V171.223L113.303 179.112L114.707 176.027L93 166.456Z" fill="#B8D4F5"/>
<path d="M206.581 229.435L206.823 227.935L214.143 230.79L215.438 234.13L214.966 236.755L211.01 234.239L206.581 229.435Z" fill="#B73235"/>
<path d="M198.897 229.689L199.417 226.712L190.887 229.084L186.579 232.702V237.953L193.428 245.89L206.592 249.242L215.957 246.253L219.539 242.878V237.348L215.062 242.878L204.729 244.886L194.88 240.748L190.245 235.618L198.897 229.689Z" fill="#B73235"/>
<path d="M205.782 201.86V206.639L199.405 205.139L192.339 199.452L205.273 200.19L205.782 201.86Z" fill="#B8D4F5"/>
<path d="M236.49 206.639L235.438 203.069L244.5 199.996L253.188 200.686L263.17 206.131L264.562 209.894L262.759 211.031L259.794 208.817L251.784 205.514H240.544L236.49 206.639Z" fill="#B73235"/>
<path d="M236.213 217.928L248.385 221.861L262.965 219.9L267.164 215.835L267.2 210.644L256.468 216.767L238.754 213.124L232.583 211.527L236.213 217.928Z" fill="#B73235"/>
<path d="M137.854 149.226L188.891 216.5L193.997 215.061C191.239 211.249 189.678 207.607 190.924 205.066C194.929 196.935 149.894 152.747 137.854 149.226Z" fill="#CCE3F5"/>
<path d="M188.37 204.34C192.908 203.771 199.236 204.86 205.794 206.627L208.613 203.808L93 171.223C98.5417 178.229 173.826 206.167 188.37 204.34Z" fill="#B8D4F5"/>
<path d="M211.77 232.69H211.879C211.879 232.69 200.07 223.47 194.008 215.061L188.902 216.5L198.896 229.677C197.735 229.701 196.585 229.81 195.472 230.004C187.389 231.431 184.243 237.07 188.43 242.6C192.616 248.117 202.562 251.444 210.645 250.005C218.728 248.577 221.874 242.938 217.687 237.409C216.271 235.558 214.202 233.948 211.77 232.69ZM208.649 247.391C202.683 248.444 195.339 246 192.241 241.922C189.144 237.844 191.479 233.682 197.444 232.629C203.409 231.577 210.754 234.021 213.851 238.098C216.949 242.176 214.626 246.338 208.649 247.391Z" fill="#B73235"/>
<path d="M254.555 204.981C245.069 202.307 234.966 203.784 232.001 208.285C231.59 208.902 231.348 209.555 231.239 210.209L208.6 203.82L205.781 206.639C220.24 210.535 235.813 217.735 235.813 217.735V217.674C237.906 219.114 240.616 220.372 243.823 221.28C253.309 223.954 263.412 222.478 266.365 217.977C269.341 213.475 264.041 207.655 254.555 204.981ZM261.876 216.706C259.686 220.021 252.232 221.123 245.226 219.138C238.221 217.166 234.312 212.87 236.502 209.543C238.693 206.228 246.146 205.127 253.152 207.111C260.157 209.095 264.066 213.379 261.876 216.706Z" fill="#B73235"/>
<path d="M170.062 191.672L171.297 193.293L189.228 198.351C188.986 197.915 188.72 197.467 188.442 197.008L170.062 191.672Z" fill="#B8D4F5"/>
<path d="M205.781 201.859V206.639L236.212 217.928L230.307 207.498L205.781 201.859Z" fill="#B73235"/>
<path d="M137.854 144.458L188.891 211.733L193.997 210.293C191.239 206.482 189.678 202.839 190.924 200.299C194.929 192.168 149.894 147.979 137.854 144.458Z" fill="#CCE3F5"/>
<path d="M188.37 199.573C192.908 199.004 199.236 200.093 205.794 201.86L208.613 199.04L93 166.456C98.5417 173.462 173.826 201.388 188.37 199.573Z" fill="#CCE3F5"/>
<path d="M179.331 192.386C178.097 192.833 177.891 193.825 178.859 194.612C179.839 195.386 181.618 195.653 182.852 195.205C184.086 194.757 184.292 193.765 183.324 192.978C182.344 192.192 180.553 191.938 179.331 192.386Z" fill="#679AE2"/>
<path d="M211.77 227.91H211.879C211.879 227.91 200.07 218.69 194.008 210.281L188.902 211.721L198.896 224.897C197.735 224.922 196.585 225.031 195.472 225.224C187.389 226.652 184.243 232.29 188.43 237.82C192.616 243.337 202.562 246.665 210.645 245.225C218.728 243.797 221.874 238.159 217.687 232.629C216.271 230.79 214.202 229.181 211.77 227.91ZM208.649 242.624C202.683 243.676 195.339 241.232 192.241 237.155C189.144 233.077 191.479 228.915 197.444 227.862C203.409 226.809 210.754 229.253 213.851 233.331C216.949 237.409 214.626 241.571 208.649 242.624Z" fill="#FB4B00"/>
<path d="M254.555 200.214C245.069 197.54 234.966 199.016 232.001 203.517C231.59 204.134 231.348 204.788 231.239 205.441L208.6 199.052L205.781 201.872C220.24 205.768 235.813 212.967 235.813 212.967V212.907C237.906 214.346 240.616 215.605 243.823 216.512C253.309 219.186 263.412 217.71 266.365 213.209C269.341 208.708 264.041 202.888 254.555 200.214ZM261.876 211.939C259.686 215.254 252.232 216.355 245.226 214.371C238.221 212.398 234.312 208.103 236.502 204.775C238.693 201.46 246.146 200.359 253.152 202.343C260.157 204.316 264.066 208.611 261.876 211.939Z" fill="#FB4B00"/>
<path d="M170.062 186.904L171.297 188.526L189.228 193.583C188.986 193.148 188.72 192.7 188.442 192.24L170.062 186.904Z" fill="#B8D4F5"/>
<path d="M179.029 198.726V203.493L188.903 216.512V211.733L179.029 198.726Z" fill="#B8D4F5"/>
<path d="M188.902 211.733V216.512L195.46 225.236L198.897 224.922L188.902 211.733Z" fill="#B73235"/>
<path d="M137.854 144.458V149.226L166.688 187.231L171.286 188.526L137.854 144.458Z" fill="#B8D4F5"/>
<path d="M191.056 199.972L179.634 199.536L179.017 198.726L191.153 199.427C191.165 199.427 191.092 199.851 191.056 199.972Z" fill="#B8D4F5"/>
<path d="M218.787 223.938L218.932 225.112C218.964 225.37 218.868 225.627 218.691 225.804C218.079 226.399 216.664 227.67 215.65 227.799C214.621 227.927 214.476 227.38 214.411 227.123C214.347 226.866 214.685 226.415 214.685 226.415L218.787 223.938Z" fill="#2F2F7F"/>
<path d="M218.784 223.94C218.784 223.94 216.307 227.591 214.666 227.189C213.331 226.851 216.918 223.376 216.918 223.376L218.784 223.94Z" fill="#41409E"/>
<path d="M230.529 202.785C230.015 201.128 228.229 200.195 226.572 200.726C226.475 200.758 226.379 200.791 226.299 200.823C225.317 201.225 224.352 201.659 223.387 202.094C222.421 202.544 221.456 202.979 220.491 203.429L214.732 206.148L214.442 206.276C213.622 206.662 213.187 207.563 213.364 208.416L214.893 216.154L216.453 223.892C216.582 224.552 217.225 224.97 217.885 224.841C218.496 224.712 218.898 224.165 218.85 223.554L218.223 215.687L217.724 209.687L222.357 208.448C223.387 208.175 224.4 207.901 225.43 207.612C226.443 207.322 227.473 207.016 228.47 206.711C230.127 206.228 231.06 204.442 230.529 202.785Z" fill="#2196A8"/>
<path d="M217.597 203.493L220.751 198.924L221.491 189.963C221.507 189.867 221.523 189.754 221.539 189.658C221.812 188.499 222.971 187.776 224.129 188.049C225.287 188.322 226.011 189.481 225.738 190.639L223.63 199.68L223.518 200.179L223.325 200.388L219.142 204.78C218.804 205.134 218.257 205.198 217.855 204.908C217.404 204.571 217.292 203.959 217.597 203.493Z" fill="#F89AB5"/>
<path d="M225.255 192.12L225.127 192.522C225.127 192.522 223.631 193.504 221.33 191.975L221.394 191.091L225.255 192.12Z" fill="#E6E6E6"/>
<path d="M221.023 190.993C221.94 192.312 224.675 192.811 225.608 191.894L226.686 185.974C226.863 184.848 225.962 183.786 224.691 183.593C223.308 183.384 222.037 184.204 221.86 185.427L221.023 190.993Z" fill="#FFC700"/>
<path d="M225.783 225.13L226.137 226.272C226.217 226.514 226.169 226.787 226.008 226.996C225.509 227.688 224.319 229.184 223.337 229.474C222.356 229.779 222.115 229.265 222.002 229.007C221.89 228.766 222.147 228.251 222.147 228.251L225.783 225.13Z" fill="#2F2F7F"/>
<path d="M225.783 225.129C225.783 225.129 223.966 229.151 222.276 229.023C220.909 228.91 223.853 224.872 223.853 224.872L225.783 225.129Z" fill="#41409E"/>
<path d="M234.553 205.825C234.44 203.556 232.51 201.803 230.241 201.916C229.984 201.932 229.726 201.964 229.485 202.028C228.6 202.237 227.716 202.479 226.831 202.704C225.946 202.929 225.061 203.186 224.176 203.444L218.884 205.069L218.288 205.246C217.034 205.632 216.326 206.967 216.712 208.222C216.728 208.286 216.744 208.334 216.776 208.399L223.452 225.419C223.694 226.046 224.402 226.352 225.029 226.111C225.592 225.886 225.898 225.29 225.769 224.711L222.487 210.233L225.158 210.265C226.075 210.281 226.992 210.265 227.909 210.233C228.826 210.2 229.743 210.184 230.66 210.136C232.928 210.04 234.665 208.093 234.553 205.825Z" fill="#24A8BF"/>
<path d="M214.135 205.038L214.457 205.07L219.283 202.624C219.396 202.56 219.573 202.56 219.669 202.624L227.343 207.628L227.6 207.66L227.584 207.853C227.584 207.901 227.552 207.933 227.488 207.965L222.115 210.684L214.57 205.761L213.91 205.327L213.926 205.102L214.135 205.038Z" fill="#8AA8FF"/>
<path d="M219.67 202.415L227.537 207.531C227.633 207.596 227.617 207.692 227.504 207.756L222.131 210.475L213.927 205.134L219.3 202.415C219.413 202.351 219.573 202.351 219.67 202.415Z" fill="#DEEBFF"/>
<path d="M216.596 204.36L216.387 204.215C216.371 204.199 216.338 204.199 216.306 204.215L216.081 204.328C216.065 204.344 216.049 204.36 216.081 204.376L216.29 204.521C216.306 204.537 216.338 204.537 216.371 204.521L216.596 204.408C216.612 204.392 216.612 204.376 216.596 204.36Z" fill="#8AA8FF"/>
<path d="M216.919 204.569L216.71 204.425C216.694 204.409 216.662 204.409 216.63 204.425L216.404 204.537C216.388 204.553 216.372 204.569 216.404 204.586L216.613 204.73C216.63 204.746 216.662 204.746 216.694 204.73L216.919 204.618C216.935 204.602 216.935 204.586 216.919 204.569Z" fill="#8AA8FF"/>
<path d="M217.241 204.778L217.032 204.634C217.016 204.618 216.984 204.618 216.952 204.634L216.727 204.746C216.71 204.762 216.694 204.778 216.727 204.795L216.936 204.939C216.952 204.955 216.984 204.955 217.016 204.939L217.241 204.827C217.257 204.811 217.257 204.795 217.241 204.778Z" fill="#8AA8FF"/>
<path d="M217.564 205.003L217.354 204.859C217.338 204.842 217.306 204.842 217.274 204.859L217.049 204.971C217.033 204.987 217.017 205.003 217.049 205.019L217.258 205.164C217.274 205.18 217.306 205.18 217.338 205.164L217.564 205.052C217.58 205.019 217.58 205.003 217.564 205.003Z" fill="#8AA8FF"/>
<path d="M217.883 205.213L217.674 205.068C217.658 205.052 217.626 205.052 217.593 205.068L217.368 205.181C217.352 205.197 217.336 205.213 217.368 205.229L217.577 205.374C217.593 205.39 217.626 205.39 217.658 205.374L217.883 205.262C217.899 205.245 217.899 205.213 217.883 205.213Z" fill="#8AA8FF"/>
<path d="M218.205 205.422L217.996 205.277C217.98 205.261 217.948 205.261 217.916 205.277L217.69 205.39C217.674 205.406 217.658 205.422 217.69 205.438L217.9 205.583C217.916 205.599 217.948 205.599 217.98 205.583L218.205 205.47C218.221 205.454 218.221 205.438 218.205 205.422Z" fill="#8AA8FF"/>
<path d="M218.69 205.728L218.48 205.583C218.464 205.567 218.432 205.567 218.4 205.583L218.175 205.696C218.159 205.712 218.143 205.728 218.175 205.744L218.384 205.889C218.4 205.905 218.432 205.905 218.464 205.889L218.69 205.776C218.706 205.76 218.706 205.744 218.69 205.728Z" fill="#8AA8FF"/>
<path d="M219.015 205.937L218.806 205.793C218.79 205.776 218.757 205.776 218.725 205.793L218.5 205.905C218.484 205.921 218.468 205.937 218.5 205.953L218.709 206.098C218.725 206.114 218.757 206.114 218.79 206.098L219.015 205.986C219.031 205.97 219.031 205.953 219.015 205.937Z" fill="#8AA8FF"/>
<path d="M219.335 206.146L219.126 206.002C219.11 205.985 219.078 205.985 219.046 206.002L218.82 206.114C218.804 206.13 218.788 206.146 218.82 206.162L219.029 206.307C219.046 206.323 219.078 206.323 219.11 206.307L219.335 206.195C219.351 206.179 219.351 206.162 219.335 206.146Z" fill="#8AA8FF"/>
<path d="M219.657 206.356L219.448 206.212C219.432 206.195 219.4 206.195 219.368 206.212L219.143 206.324C219.127 206.34 219.11 206.356 219.143 206.372L219.352 206.517C219.368 206.533 219.4 206.533 219.432 206.517L219.657 206.405C219.673 206.389 219.673 206.372 219.657 206.356Z" fill="#8AA8FF"/>
<path d="M219.982 206.565L219.772 206.421C219.756 206.404 219.724 206.404 219.692 206.421L219.467 206.533C219.451 206.549 219.435 206.565 219.467 206.581L219.676 206.726C219.692 206.742 219.724 206.742 219.756 206.726L219.982 206.614C219.998 206.597 219.998 206.581 219.982 206.565Z" fill="#8AA8FF"/>
<path d="M220.302 206.79L220.093 206.645C220.077 206.629 220.045 206.629 220.012 206.645L219.787 206.758C219.771 206.774 219.755 206.79 219.787 206.806L219.996 206.951C220.012 206.967 220.045 206.967 220.077 206.951L220.302 206.838C220.318 206.806 220.334 206.79 220.302 206.79Z" fill="#8AA8FF"/>
<path d="M220.78 207.094L220.571 206.95C220.555 206.933 220.523 206.933 220.491 206.95L220.266 207.062C220.25 207.078 220.233 207.094 220.266 207.11L220.475 207.255C220.491 207.271 220.523 207.271 220.555 207.255L220.78 207.143C220.797 207.127 220.797 207.11 220.78 207.094Z" fill="#8AA8FF"/>
<path d="M221.104 207.304L220.895 207.159C220.878 207.143 220.846 207.143 220.814 207.159L220.589 207.271C220.573 207.287 220.557 207.304 220.589 207.32L220.798 207.464C220.814 207.481 220.846 207.481 220.878 207.464L221.104 207.352C221.12 207.336 221.12 207.32 221.104 207.304Z" fill="#8AA8FF"/>
<path d="M221.424 207.512L221.215 207.368C221.199 207.351 221.167 207.351 221.134 207.368L220.909 207.48C220.893 207.496 220.877 207.512 220.909 207.528L221.118 207.673C221.134 207.689 221.167 207.689 221.199 207.673L221.424 207.561C221.44 207.544 221.44 207.528 221.424 207.512Z" fill="#8AA8FF"/>
<path d="M221.746 207.722L221.537 207.577C221.521 207.561 221.489 207.561 221.457 207.577L221.231 207.69C221.215 207.706 221.199 207.722 221.231 207.738L221.441 207.883C221.457 207.899 221.489 207.899 221.521 207.883L221.746 207.771C221.762 207.754 221.762 207.738 221.746 207.722Z" fill="#8AA8FF"/>
<path d="M222.07 207.931L221.861 207.786C221.845 207.77 221.813 207.77 221.781 207.786L221.556 207.899C221.54 207.915 221.524 207.931 221.556 207.947L221.765 208.092C221.781 208.108 221.813 208.108 221.845 208.092L222.07 207.98C222.087 207.963 222.103 207.947 222.07 207.931Z" fill="#8AA8FF"/>
<path d="M222.408 208.14L222.199 207.995C222.183 207.979 222.151 207.979 222.119 207.995L221.894 208.108C221.877 208.124 221.861 208.14 221.894 208.156L222.103 208.301C222.119 208.317 222.151 208.317 222.183 208.301L222.408 208.189C222.424 208.172 222.424 208.156 222.408 208.14Z" fill="#8AA8FF"/>
<path d="M222.807 208.415L222.598 208.27C222.582 208.254 222.549 208.254 222.517 208.27L222.292 208.382C222.276 208.399 222.26 208.415 222.292 208.431L222.501 208.576C222.517 208.592 222.549 208.592 222.582 208.576L222.807 208.463C222.823 208.447 222.823 208.431 222.807 208.415Z" fill="#8AA8FF"/>
<path d="M223.13 208.624L222.921 208.479C222.905 208.463 222.873 208.463 222.84 208.479L222.615 208.592C222.599 208.608 222.583 208.624 222.615 208.64L222.824 208.785C222.84 208.801 222.873 208.801 222.905 208.785L223.13 208.672C223.146 208.656 223.146 208.64 223.13 208.624Z" fill="#8AA8FF"/>
<path d="M223.45 208.833L223.241 208.688C223.225 208.672 223.193 208.672 223.161 208.688L222.936 208.801C222.919 208.817 222.903 208.833 222.936 208.849L223.145 208.994C223.161 209.01 223.193 209.01 223.225 208.994L223.45 208.881C223.466 208.865 223.466 208.849 223.45 208.833Z" fill="#8AA8FF"/>
<path d="M223.773 209.043L223.563 208.898C223.547 208.882 223.515 208.882 223.483 208.898L223.258 209.011C223.242 209.027 223.226 209.043 223.258 209.059L223.467 209.204C223.483 209.22 223.515 209.22 223.547 209.204L223.773 209.091C223.789 209.075 223.805 209.059 223.773 209.043Z" fill="#8AA8FF"/>
<path d="M218.718 203.363L218.944 203.251C218.96 203.234 218.976 203.218 218.944 203.202L218.734 203.057C218.718 203.041 218.686 203.041 218.654 203.057L218.429 203.17C218.413 203.186 218.397 203.202 218.429 203.218L218.638 203.363C218.654 203.379 218.686 203.379 218.718 203.363Z" fill="#8AA8FF"/>
<path d="M218.366 203.539L218.591 203.427C218.607 203.41 218.623 203.394 218.591 203.378L218.382 203.234C218.366 203.217 218.334 203.217 218.301 203.234L218.076 203.346C218.06 203.362 218.044 203.378 218.076 203.394L218.285 203.539C218.318 203.539 218.35 203.539 218.366 203.539Z" fill="#8AA8FF"/>
<path d="M218.028 203.717L218.253 203.605C218.269 203.589 218.285 203.573 218.253 203.557L218.044 203.412C218.028 203.396 217.996 203.396 217.964 203.412L217.738 203.524C217.722 203.54 217.706 203.557 217.738 203.573L217.947 203.717C217.964 203.717 218.012 203.717 218.028 203.717Z" fill="#8AA8FF"/>
<path d="M217.673 203.894L217.899 203.782C217.915 203.766 217.931 203.75 217.899 203.733L217.689 203.589C217.673 203.573 217.641 203.573 217.609 203.589L217.384 203.701C217.368 203.717 217.352 203.734 217.384 203.75L217.593 203.894C217.625 203.894 217.657 203.894 217.673 203.894Z" fill="#8AA8FF"/>
<path d="M217.336 204.055L217.562 203.942C217.578 203.926 217.594 203.91 217.562 203.894L217.353 203.749C217.336 203.733 217.304 203.733 217.272 203.749L217.047 203.861C217.031 203.878 217.015 203.894 217.047 203.91L217.256 204.055C217.288 204.071 217.32 204.071 217.336 204.055Z" fill="#8AA8FF"/>
<path d="M216.999 204.231L217.224 204.118C217.24 204.102 217.256 204.086 217.224 204.07L217.015 203.925C216.999 203.909 216.966 203.909 216.934 203.925L216.709 204.038C216.693 204.054 216.677 204.07 216.709 204.086L216.918 204.231C216.934 204.247 216.966 204.247 216.999 204.231Z" fill="#8AA8FF"/>
<path d="M219.043 203.573L219.268 203.46C219.284 203.444 219.3 203.428 219.268 203.412L219.059 203.267C219.043 203.251 219.01 203.251 218.978 203.267L218.753 203.38C218.737 203.396 218.721 203.412 218.753 203.428L218.962 203.573C218.978 203.589 219.01 203.589 219.043 203.573Z" fill="#8AA8FF"/>
<path d="M218.69 203.749L218.915 203.637C218.931 203.62 218.947 203.604 218.915 203.588L218.706 203.443C218.69 203.427 218.658 203.427 218.626 203.443L218.4 203.556C218.384 203.572 218.368 203.588 218.4 203.604L218.61 203.749C218.642 203.765 218.674 203.765 218.69 203.749Z" fill="#8AA8FF"/>
<path d="M218.352 203.927L218.577 203.815C218.593 203.799 218.61 203.783 218.577 203.766L218.368 203.622C218.352 203.606 218.32 203.606 218.288 203.622L218.063 203.734C218.046 203.75 218.03 203.766 218.063 203.783L218.272 203.927C218.304 203.927 218.336 203.927 218.352 203.927Z" fill="#8AA8FF"/>
<path d="M218.017 204.104L218.242 203.992C218.258 203.976 218.275 203.96 218.242 203.943L218.033 203.799C218.017 203.783 217.985 203.783 217.953 203.799L217.728 203.911C217.711 203.927 217.695 203.943 217.728 203.96L217.937 204.104C217.953 204.104 217.985 204.104 218.017 204.104Z" fill="#8AA8FF"/>
<path d="M217.659 204.281L217.884 204.168C217.9 204.152 217.916 204.136 217.884 204.12L217.675 203.975C217.659 203.959 217.627 203.959 217.594 203.975L217.369 204.088C217.353 204.104 217.337 204.12 217.369 204.136L217.578 204.281C217.61 204.281 217.643 204.281 217.659 204.281Z" fill="#8AA8FF"/>
<path d="M217.323 204.441L217.548 204.328C217.564 204.312 217.58 204.296 217.548 204.28L217.339 204.135C217.323 204.119 217.291 204.119 217.258 204.135L217.033 204.248C217.017 204.264 217.001 204.28 217.033 204.296L217.242 204.441C217.258 204.457 217.291 204.457 217.323 204.441Z" fill="#8AA8FF"/>
<path d="M219.361 203.782L219.586 203.669C219.602 203.653 219.618 203.637 219.586 203.621L219.377 203.476C219.361 203.46 219.329 203.46 219.297 203.476L219.071 203.589C219.055 203.605 219.039 203.621 219.071 203.637L219.28 203.782C219.313 203.798 219.345 203.798 219.361 203.782Z" fill="#8AA8FF"/>
<path d="M219.024 203.958L219.249 203.846C219.265 203.829 219.281 203.813 219.249 203.797L219.04 203.652C219.024 203.636 218.992 203.636 218.96 203.652L218.734 203.765C218.718 203.781 218.702 203.797 218.734 203.813L218.944 203.958C218.96 203.974 218.992 203.974 219.024 203.958Z" fill="#8AA8FF"/>
<path d="M218.67 204.137L218.896 204.025C218.912 204.009 218.928 203.993 218.896 203.976L218.687 203.832C218.67 203.816 218.638 203.816 218.606 203.832L218.381 203.944C218.365 203.96 218.349 203.976 218.381 203.993L218.59 204.137C218.622 204.153 218.654 204.153 218.67 204.137Z" fill="#8AA8FF"/>
<path d="M218.335 204.313L218.561 204.201C218.577 204.185 218.593 204.169 218.561 204.152L218.352 204.008C218.335 203.992 218.303 203.992 218.271 204.008L218.046 204.12C218.03 204.136 218.014 204.152 218.046 204.169L218.255 204.313C218.271 204.313 218.303 204.313 218.335 204.313Z" fill="#8AA8FF"/>
<path d="M217.979 204.49L218.204 204.377C218.22 204.361 218.236 204.345 218.204 204.329L217.995 204.184C217.979 204.168 217.947 204.168 217.915 204.184L217.689 204.297C217.673 204.313 217.657 204.329 217.689 204.345L217.899 204.49C217.931 204.49 217.963 204.49 217.979 204.49Z" fill="#8AA8FF"/>
<path d="M217.641 204.667L217.866 204.554C217.882 204.538 217.899 204.522 217.866 204.506L217.657 204.361C217.641 204.345 217.609 204.345 217.577 204.361L217.352 204.474C217.335 204.49 217.319 204.506 217.352 204.522L217.561 204.667C217.577 204.667 217.625 204.667 217.641 204.667Z" fill="#8AA8FF"/>
<path d="M219.684 203.991L219.909 203.878C219.925 203.862 219.942 203.846 219.909 203.83L219.7 203.685C219.684 203.669 219.652 203.669 219.62 203.685L219.395 203.798C219.378 203.814 219.362 203.83 219.395 203.846L219.604 203.991C219.636 204.007 219.668 204.007 219.684 203.991Z" fill="#8AA8FF"/>
<path d="M219.347 204.167L219.572 204.054C219.589 204.038 219.605 204.022 219.572 204.006L219.363 203.861C219.347 203.845 219.315 203.845 219.283 203.861L219.058 203.974C219.042 203.99 219.025 204.006 219.058 204.022L219.267 204.167C219.283 204.183 219.315 204.183 219.347 204.167Z" fill="#8AA8FF"/>
<path d="M218.994 204.345L219.219 204.232C219.235 204.216 219.251 204.2 219.219 204.184L219.01 204.039C218.994 204.023 218.962 204.023 218.929 204.039L218.704 204.152C218.688 204.168 218.672 204.184 218.704 204.2L218.913 204.345C218.945 204.361 218.978 204.361 218.994 204.345Z" fill="#8AA8FF"/>
<path d="M218.659 204.522L218.884 204.409C218.9 204.393 218.916 204.377 218.884 204.361L218.675 204.216C218.659 204.2 218.627 204.2 218.594 204.216L218.369 204.329C218.353 204.345 218.337 204.361 218.369 204.377L218.578 204.522C218.594 204.538 218.627 204.538 218.659 204.522Z" fill="#8AA8FF"/>
<path d="M218.302 204.698L218.528 204.586C218.544 204.57 218.56 204.554 218.528 204.537L218.318 204.393C218.302 204.377 218.27 204.377 218.238 204.393L218.013 204.505C217.997 204.521 217.981 204.537 218.013 204.554L218.222 204.698C218.254 204.698 218.286 204.698 218.302 204.698Z" fill="#8AA8FF"/>
<path d="M217.964 204.875L218.19 204.763C218.206 204.747 218.222 204.731 218.19 204.714L217.98 204.57C217.964 204.554 217.932 204.554 217.9 204.57L217.675 204.682C217.659 204.698 217.643 204.714 217.675 204.731L217.884 204.875C217.916 204.875 217.948 204.875 217.964 204.875Z" fill="#8AA8FF"/>
<path d="M220.006 204.201L220.232 204.088C220.248 204.072 220.264 204.056 220.232 204.04L220.022 203.895C220.006 203.879 219.974 203.879 219.942 203.895L219.717 204.008C219.701 204.024 219.685 204.04 219.717 204.056L219.926 204.201C219.958 204.217 219.99 204.217 220.006 204.201Z" fill="#8AA8FF"/>
<path d="M219.669 204.377L219.895 204.264C219.911 204.248 219.927 204.232 219.895 204.216L219.686 204.071C219.669 204.055 219.637 204.055 219.605 204.071L219.38 204.184C219.364 204.2 219.348 204.216 219.38 204.232L219.589 204.377C219.605 204.393 219.637 204.393 219.669 204.377Z" fill="#8AA8FF"/>
<path d="M219.316 204.555L219.541 204.442C219.557 204.426 219.573 204.41 219.541 204.394L219.332 204.249C219.316 204.233 219.284 204.233 219.252 204.249L219.026 204.362C219.01 204.378 218.994 204.394 219.026 204.41L219.236 204.555C219.268 204.571 219.3 204.571 219.316 204.555Z" fill="#8AA8FF"/>
<path d="M218.981 204.732L219.206 204.619C219.222 204.603 219.238 204.587 219.206 204.571L218.997 204.426C218.981 204.41 218.949 204.41 218.917 204.426L218.691 204.539C218.675 204.555 218.659 204.571 218.691 204.587L218.901 204.732C218.933 204.748 218.965 204.748 218.981 204.732Z" fill="#8AA8FF"/>
<path d="M218.639 204.908L218.864 204.796C218.881 204.78 218.897 204.764 218.864 204.747L218.655 204.603C218.639 204.587 218.607 204.587 218.575 204.603L218.35 204.715C218.334 204.731 218.317 204.747 218.35 204.764L218.559 204.908C218.575 204.924 218.607 204.924 218.639 204.908Z" fill="#8AA8FF"/>
<path d="M218.287 205.085L218.512 204.973C218.528 204.957 218.544 204.941 218.512 204.924L218.303 204.78C218.287 204.764 218.254 204.764 218.222 204.78L217.997 204.892C217.981 204.908 217.965 204.924 217.997 204.941L218.206 205.085C218.238 205.085 218.271 205.085 218.287 205.085Z" fill="#8AA8FF"/>
<path d="M220.325 204.425L220.55 204.312C220.566 204.296 220.582 204.28 220.55 204.264L220.341 204.119C220.325 204.103 220.293 204.103 220.26 204.119L220.035 204.232C220.019 204.248 220.003 204.264 220.035 204.28L220.244 204.425C220.276 204.425 220.309 204.425 220.325 204.425Z" fill="#8AA8FF"/>
<path d="M219.988 204.586L220.213 204.473C220.229 204.457 220.245 204.441 220.213 204.425L220.004 204.28C219.988 204.264 219.956 204.264 219.923 204.28L219.698 204.393C219.682 204.409 219.666 204.425 219.698 204.441L219.907 204.586C219.94 204.602 219.972 204.602 219.988 204.586Z" fill="#8AA8FF"/>
<path d="M219.652 204.762L219.877 204.65C219.893 204.634 219.909 204.618 219.877 204.601L219.668 204.457C219.652 204.441 219.62 204.441 219.588 204.457L219.362 204.569C219.346 204.585 219.33 204.601 219.362 204.618L219.571 204.762C219.588 204.778 219.62 204.778 219.652 204.762Z" fill="#8AA8FF"/>
<path d="M219.299 204.939L219.525 204.827C219.541 204.811 219.557 204.795 219.525 204.778L219.315 204.634C219.299 204.618 219.267 204.618 219.235 204.634L219.01 204.746C218.994 204.762 218.978 204.778 219.01 204.795L219.219 204.939C219.251 204.955 219.283 204.955 219.299 204.939Z" fill="#8AA8FF"/>
<path d="M218.958 205.116L219.183 205.004C219.199 204.988 219.215 204.972 219.183 204.955L218.974 204.811C218.958 204.795 218.925 204.795 218.893 204.811L218.668 204.923C218.652 204.939 218.636 204.955 218.668 204.972L218.877 205.116C218.893 205.132 218.925 205.132 218.958 205.116Z" fill="#8AA8FF"/>
<path d="M218.605 205.293L218.83 205.18C218.846 205.164 218.862 205.148 218.83 205.132L218.621 204.987C218.605 204.971 218.573 204.971 218.541 204.987L218.315 205.1C218.299 205.116 218.283 205.132 218.315 205.148L218.525 205.293C218.557 205.309 218.589 205.309 218.605 205.293Z" fill="#8AA8FF"/>
<path d="M220.31 204.795L220.535 204.682C220.551 204.666 220.567 204.65 220.535 204.634L220.326 204.489C220.31 204.473 220.278 204.473 220.246 204.489L220.021 204.602C220.004 204.618 219.988 204.634 220.021 204.65L220.23 204.795C220.262 204.811 220.294 204.811 220.31 204.795Z" fill="#8AA8FF"/>
<path d="M219.974 204.971L220.199 204.858C220.215 204.842 220.232 204.826 220.199 204.81L219.99 204.665C219.974 204.649 219.942 204.649 219.91 204.665L219.685 204.778C219.669 204.794 219.652 204.81 219.685 204.826L219.894 204.971C219.91 204.987 219.942 204.987 219.974 204.971Z" fill="#8AA8FF"/>
<path d="M219.622 205.149L219.847 205.037C219.863 205.021 219.879 205.004 219.847 204.988L219.638 204.844C219.622 204.828 219.589 204.828 219.557 204.844L219.332 204.956C219.316 204.972 219.3 204.988 219.332 205.004L219.541 205.149C219.573 205.165 219.606 205.165 219.622 205.149Z" fill="#8AA8FF"/>
<path d="M219.28 205.326L219.505 205.214C219.521 205.198 219.537 205.181 219.505 205.165L219.296 205.021C219.28 205.005 219.248 205.005 219.215 205.021L218.99 205.133C218.974 205.149 218.958 205.165 218.99 205.181L219.199 205.326C219.215 205.342 219.248 205.342 219.28 205.326Z" fill="#8AA8FF"/>
<path d="M218.927 205.503L219.153 205.39C219.169 205.374 219.185 205.358 219.153 205.342L218.943 205.197C218.927 205.181 218.895 205.181 218.863 205.197L218.638 205.309C218.622 205.326 218.606 205.342 218.638 205.358L218.847 205.503C218.879 205.519 218.911 205.519 218.927 205.503Z" fill="#8AA8FF"/>
<path d="M220.632 205.021L220.858 204.909C220.874 204.893 220.89 204.877 220.858 204.86L220.648 204.716C220.632 204.7 220.6 204.7 220.568 204.716L220.343 204.828C220.327 204.844 220.311 204.86 220.343 204.877L220.552 205.021C220.584 205.021 220.616 205.021 220.632 205.021Z" fill="#8AA8FF"/>
<path d="M220.296 205.182L220.522 205.07C220.538 205.054 220.554 205.038 220.522 205.022L220.313 204.877C220.296 204.861 220.264 204.861 220.232 204.877L220.007 204.989C219.991 205.006 219.975 205.022 220.007 205.038L220.216 205.182C220.232 205.199 220.264 205.199 220.296 205.182Z" fill="#8AA8FF"/>
<path d="M219.944 205.359L220.169 205.246C220.185 205.23 220.201 205.214 220.169 205.198L219.96 205.053C219.944 205.037 219.912 205.037 219.88 205.053L219.654 205.166C219.638 205.182 219.622 205.198 219.654 205.214L219.863 205.359C219.896 205.375 219.928 205.375 219.944 205.359Z" fill="#8AA8FF"/>
<path d="M219.602 205.536L219.827 205.423C219.843 205.407 219.859 205.391 219.827 205.375L219.618 205.23C219.602 205.214 219.57 205.214 219.538 205.23L219.313 205.343C219.296 205.359 219.28 205.375 219.313 205.391L219.522 205.536C219.554 205.552 219.586 205.552 219.602 205.536Z" fill="#8AA8FF"/>
<path d="M219.25 205.713L219.475 205.6C219.491 205.584 219.507 205.568 219.475 205.552L219.266 205.407C219.25 205.391 219.217 205.391 219.185 205.407L218.96 205.52C218.944 205.536 218.928 205.552 218.96 205.568L219.169 205.713C219.201 205.729 219.233 205.729 219.25 205.713Z" fill="#8AA8FF"/>
<path d="M220.958 205.213L221.183 205.1C221.199 205.084 221.215 205.068 221.183 205.052L220.974 204.907C220.958 204.891 220.925 204.891 220.893 204.907L220.668 205.02C220.652 205.036 220.636 205.052 220.668 205.068L220.877 205.213C220.909 205.229 220.941 205.229 220.958 205.213Z" fill="#8AA8FF"/>
<path d="M220.62 205.389L220.845 205.276C220.861 205.26 220.877 205.244 220.845 205.228L220.636 205.083C220.62 205.067 220.588 205.067 220.555 205.083L220.33 205.196C220.314 205.212 220.298 205.228 220.33 205.244L220.539 205.389C220.571 205.405 220.604 205.405 220.62 205.389Z" fill="#8AA8FF"/>
<path d="M220.285 205.567L220.51 205.455C220.526 205.439 220.542 205.422 220.51 205.406L220.301 205.262C220.285 205.245 220.253 205.245 220.22 205.262L219.995 205.374C219.979 205.39 219.963 205.406 219.995 205.422L220.204 205.567C220.22 205.567 220.253 205.567 220.285 205.567Z" fill="#8AA8FF"/>
<path d="M219.928 205.744L220.153 205.632C220.17 205.616 220.186 205.599 220.153 205.583L219.944 205.439C219.928 205.422 219.896 205.422 219.864 205.439L219.639 205.551C219.623 205.567 219.607 205.583 219.639 205.599L219.848 205.744C219.88 205.744 219.912 205.744 219.928 205.744Z" fill="#8AA8FF"/>
<path d="M219.59 205.904L219.816 205.792C219.832 205.776 219.848 205.76 219.816 205.744L219.606 205.599C219.59 205.583 219.558 205.583 219.526 205.599L219.301 205.711C219.285 205.727 219.269 205.744 219.301 205.76L219.51 205.904C219.526 205.92 219.558 205.92 219.59 205.904Z" fill="#8AA8FF"/>
<path d="M221.28 205.422L221.505 205.309C221.521 205.293 221.537 205.277 221.505 205.261L221.296 205.116C221.28 205.1 221.248 205.1 221.215 205.116L220.99 205.229C220.974 205.245 220.958 205.261 220.99 205.277L221.199 205.422C221.232 205.438 221.264 205.438 221.28 205.422Z" fill="#8AA8FF"/>
<path d="M220.942 205.598L221.167 205.485C221.183 205.469 221.199 205.453 221.167 205.437L220.958 205.292C220.942 205.276 220.91 205.276 220.878 205.292L220.652 205.405C220.636 205.421 220.62 205.437 220.652 205.453L220.862 205.598C220.894 205.614 220.926 205.614 220.942 205.598Z" fill="#8AA8FF"/>
<path d="M220.607 205.776L220.832 205.663C220.848 205.647 220.864 205.631 220.832 205.615L220.623 205.47C220.607 205.454 220.575 205.454 220.543 205.47L220.317 205.583C220.301 205.599 220.285 205.615 220.317 205.631L220.527 205.776C220.543 205.792 220.575 205.792 220.607 205.776Z" fill="#8AA8FF"/>
<path d="M220.251 205.953L220.476 205.84C220.492 205.824 220.508 205.808 220.476 205.792L220.267 205.647C220.251 205.631 220.218 205.631 220.186 205.647L219.961 205.76C219.945 205.776 219.929 205.792 219.961 205.808L220.17 205.953C220.202 205.953 220.234 205.953 220.251 205.953Z" fill="#8AA8FF"/>
<path d="M219.913 206.129L220.138 206.017C220.154 206.001 220.17 205.984 220.138 205.968L219.929 205.824C219.913 205.808 219.88 205.808 219.848 205.824L219.623 205.936C219.607 205.952 219.591 205.968 219.623 205.984L219.832 206.129C219.848 206.129 219.88 206.129 219.913 206.129Z" fill="#8AA8FF"/>
<path d="M221.617 205.633L221.842 205.52C221.858 205.504 221.874 205.488 221.842 205.472L221.633 205.327C221.617 205.311 221.585 205.311 221.552 205.327L221.327 205.44C221.311 205.456 221.295 205.472 221.327 205.488L221.536 205.633C221.552 205.649 221.585 205.649 221.617 205.633Z" fill="#8AA8FF"/>
<path d="M221.263 205.809L221.488 205.696C221.505 205.68 221.521 205.664 221.488 205.648L221.279 205.503C221.263 205.487 221.231 205.487 221.199 205.503L220.974 205.616C220.958 205.632 220.941 205.648 220.974 205.664L221.183 205.809C221.215 205.825 221.247 205.825 221.263 205.809Z" fill="#8AA8FF"/>
<path d="M220.928 205.988L221.153 205.875C221.17 205.859 221.186 205.843 221.153 205.827L220.944 205.682C220.928 205.666 220.896 205.666 220.864 205.682L220.639 205.795C220.623 205.811 220.607 205.827 220.639 205.843L220.848 205.988C220.864 206.004 220.896 206.004 220.928 205.988Z" fill="#8AA8FF"/>
<path d="M220.572 206.164L220.797 206.051C220.813 206.035 220.829 206.019 220.797 206.003L220.588 205.858C220.572 205.842 220.54 205.842 220.507 205.858L220.282 205.971C220.266 205.987 220.25 206.003 220.282 206.019L220.491 206.164C220.524 206.18 220.556 206.18 220.572 206.164Z" fill="#8AA8FF"/>
<path d="M220.234 206.34L220.459 206.228C220.475 206.211 220.491 206.195 220.459 206.179L220.25 206.035C220.234 206.018 220.202 206.018 220.17 206.035L219.944 206.147C219.928 206.163 219.912 206.179 219.944 206.195L220.153 206.34C220.186 206.34 220.218 206.34 220.234 206.34Z" fill="#8AA8FF"/>
<path d="M221.939 205.842L222.164 205.729C222.18 205.713 222.196 205.697 222.164 205.681L221.955 205.536C221.939 205.52 221.907 205.52 221.875 205.536L221.649 205.649C221.633 205.665 221.617 205.681 221.649 205.697L221.859 205.842C221.875 205.858 221.907 205.858 221.939 205.842Z" fill="#8AA8FF"/>
<path d="M221.585 206.018L221.811 205.905C221.827 205.889 221.843 205.873 221.811 205.857L221.602 205.712C221.585 205.696 221.553 205.696 221.521 205.712L221.296 205.825C221.28 205.841 221.264 205.857 221.296 205.873L221.505 206.018C221.537 206.034 221.569 206.034 221.585 206.018Z" fill="#8AA8FF"/>
<path d="M221.251 206.196L221.476 206.083C221.492 206.067 221.508 206.051 221.476 206.035L221.267 205.89C221.251 205.874 221.218 205.874 221.186 205.89L220.961 206.003C220.945 206.019 220.929 206.035 220.961 206.051L221.17 206.196C221.186 206.212 221.218 206.212 221.251 206.196Z" fill="#8AA8FF"/>
<path d="M220.894 206.373L221.119 206.26C221.135 206.244 221.151 206.228 221.119 206.212L220.91 206.067C220.894 206.051 220.862 206.051 220.83 206.067L220.605 206.18C220.588 206.196 220.572 206.212 220.605 206.228L220.814 206.373C220.846 206.389 220.878 206.389 220.894 206.373Z" fill="#8AA8FF"/>
<path d="M220.556 206.549L220.781 206.437C220.797 206.42 220.814 206.404 220.781 206.388L220.572 206.244C220.556 206.227 220.524 206.227 220.492 206.244L220.267 206.356C220.251 206.372 220.234 206.388 220.267 206.404L220.476 206.549C220.508 206.549 220.54 206.565 220.556 206.549Z" fill="#8AA8FF"/>
<path d="M222.261 206.05L222.486 205.937C222.503 205.921 222.519 205.905 222.486 205.889L222.277 205.744C222.261 205.728 222.229 205.728 222.197 205.744L221.972 205.857C221.956 205.873 221.94 205.889 221.972 205.905L222.181 206.05C222.197 206.066 222.229 206.066 222.261 206.05Z" fill="#8AA8FF"/>
<path d="M221.908 206.226L222.133 206.113C222.149 206.097 222.165 206.081 222.133 206.065L221.924 205.92C221.908 205.904 221.876 205.904 221.843 205.92L221.618 206.033C221.602 206.049 221.586 206.065 221.618 206.081L221.827 206.226C221.86 206.242 221.892 206.242 221.908 206.226Z" fill="#8AA8FF"/>
<path d="M221.573 206.404L221.798 206.291C221.814 206.275 221.83 206.259 221.798 206.243L221.589 206.098C221.573 206.082 221.541 206.082 221.508 206.098L221.283 206.211C221.267 206.227 221.251 206.243 221.283 206.259L221.492 206.404C221.525 206.42 221.557 206.42 221.573 206.404Z" fill="#8AA8FF"/>
<path d="M221.231 206.581L221.456 206.468C221.472 206.452 221.488 206.436 221.456 206.42L221.247 206.275C221.231 206.259 221.199 206.259 221.167 206.275L220.941 206.388C220.925 206.404 220.909 206.42 220.941 206.436L221.151 206.581C221.167 206.597 221.199 206.597 221.231 206.581Z" fill="#8AA8FF"/>
<path d="M220.878 206.757L221.104 206.645C221.12 206.628 221.136 206.612 221.104 206.596L220.895 206.452C220.878 206.435 220.846 206.435 220.814 206.452L220.589 206.564C220.573 206.58 220.557 206.596 220.589 206.612L220.798 206.757C220.83 206.773 220.862 206.773 220.878 206.757Z" fill="#8AA8FF"/>
<path d="M222.582 206.275L222.807 206.162C222.823 206.146 222.839 206.13 222.807 206.114L222.598 205.969C222.582 205.953 222.549 205.953 222.517 205.969L222.292 206.082C222.276 206.098 222.26 206.114 222.292 206.13L222.501 206.275C222.533 206.275 222.565 206.275 222.582 206.275Z" fill="#8AA8FF"/>
<path d="M222.246 206.436L222.471 206.323C222.487 206.307 222.503 206.291 222.471 206.275L222.262 206.13C222.246 206.114 222.213 206.114 222.181 206.13L221.956 206.243C221.94 206.259 221.924 206.275 221.956 206.291L222.165 206.436C222.181 206.452 222.213 206.452 222.246 206.436Z" fill="#8AA8FF"/>
<path d="M221.893 206.612L222.118 206.5C222.134 206.483 222.151 206.467 222.118 206.451L221.909 206.306C221.893 206.29 221.861 206.29 221.829 206.306L221.604 206.419C221.587 206.435 221.571 206.451 221.604 206.467L221.813 206.612C221.845 206.628 221.877 206.628 221.893 206.612Z" fill="#8AA8FF"/>
<path d="M221.551 206.789L221.777 206.677C221.793 206.66 221.809 206.644 221.777 206.628L221.567 206.484C221.551 206.467 221.519 206.467 221.487 206.484L221.262 206.596C221.246 206.612 221.23 206.628 221.262 206.644L221.471 206.789C221.487 206.805 221.519 206.805 221.551 206.789Z" fill="#8AA8FF"/>
<path d="M221.199 206.966L221.424 206.854C221.44 206.837 221.456 206.821 221.424 206.805L221.215 206.661C221.199 206.644 221.167 206.644 221.134 206.661L220.909 206.773C220.893 206.789 220.877 206.805 220.909 206.821L221.118 206.966C221.15 206.982 221.183 206.982 221.199 206.966Z" fill="#8AA8FF"/>
<path d="M222.905 206.485L223.13 206.372C223.146 206.356 223.162 206.34 223.13 206.324L222.921 206.179C222.905 206.163 222.873 206.163 222.84 206.179L222.615 206.292C222.599 206.308 222.583 206.324 222.615 206.34L222.824 206.485C222.857 206.485 222.889 206.485 222.905 206.485Z" fill="#8AA8FF"/>
<path d="M222.569 206.661L222.794 206.548C222.81 206.532 222.826 206.516 222.794 206.5L222.585 206.355C222.569 206.339 222.537 206.339 222.505 206.355L222.279 206.468C222.263 206.484 222.247 206.5 222.279 206.516L222.488 206.661C222.505 206.661 222.537 206.661 222.569 206.661Z" fill="#8AA8FF"/>
<path d="M222.216 206.822L222.442 206.709C222.458 206.693 222.474 206.677 222.442 206.661L222.232 206.516C222.216 206.5 222.184 206.5 222.152 206.516L221.927 206.629C221.911 206.645 221.895 206.661 221.927 206.677L222.136 206.822C222.168 206.838 222.2 206.838 222.216 206.822Z" fill="#8AA8FF"/>
<path d="M221.875 206.999L222.1 206.887C222.116 206.87 222.132 206.854 222.1 206.838L221.891 206.693C221.875 206.677 221.842 206.677 221.81 206.693L221.585 206.806C221.569 206.822 221.553 206.838 221.585 206.854L221.794 206.999C221.81 207.015 221.842 207.015 221.875 206.999Z" fill="#8AA8FF"/>
<path d="M221.522 207.176L221.747 207.064C221.763 207.047 221.779 207.031 221.747 207.015L221.538 206.87C221.522 206.854 221.49 206.854 221.458 206.87L221.232 206.983C221.216 206.999 221.2 207.015 221.232 207.031L221.442 207.176C221.474 207.192 221.506 207.192 221.522 207.176Z" fill="#8AA8FF"/>
<path d="M223.223 206.692L223.448 206.58C223.464 206.564 223.481 206.548 223.448 206.532L223.239 206.387C223.223 206.371 223.191 206.371 223.159 206.387L222.934 206.499C222.918 206.516 222.901 206.532 222.934 206.548L223.143 206.692C223.175 206.692 223.207 206.709 223.223 206.692Z" fill="#8AA8FF"/>
<path d="M222.885 206.868L223.111 206.756C223.127 206.74 223.143 206.724 223.111 206.708L222.901 206.563C222.885 206.547 222.853 206.547 222.821 206.563L222.596 206.675C222.58 206.692 222.564 206.708 222.596 206.724L222.805 206.868C222.821 206.868 222.853 206.868 222.885 206.868Z" fill="#8AA8FF"/>
<path d="M222.531 207.047L222.756 206.934C222.772 206.918 222.788 206.902 222.756 206.886L222.547 206.741C222.531 206.725 222.499 206.725 222.466 206.741L222.241 206.854C222.225 206.87 222.209 206.886 222.241 206.902L222.45 207.047C222.483 207.047 222.515 207.047 222.531 207.047Z" fill="#8AA8FF"/>
<path d="M222.194 207.207L222.419 207.094C222.435 207.078 222.451 207.062 222.419 207.046L222.21 206.901C222.194 206.885 222.162 206.885 222.13 206.901L221.904 207.014C221.888 207.03 221.872 207.046 221.904 207.062L222.113 207.207C222.146 207.223 222.178 207.223 222.194 207.207Z" fill="#8AA8FF"/>
<path d="M221.856 207.384L222.081 207.271C222.097 207.255 222.113 207.239 222.081 207.223L221.872 207.078C221.856 207.062 221.824 207.062 221.792 207.078L221.566 207.191C221.55 207.207 221.534 207.223 221.566 207.239L221.776 207.384C221.792 207.4 221.824 207.4 221.856 207.384Z" fill="#8AA8FF"/>
<path d="M223.896 206.726L224.121 206.613C224.137 206.597 224.153 206.581 224.121 206.565L223.912 206.42C223.896 206.404 223.864 206.404 223.832 206.42L223.606 206.533C223.59 206.549 223.574 206.565 223.606 206.581L223.816 206.726C223.832 206.742 223.864 206.742 223.896 206.726Z" fill="#8AA8FF"/>
<path d="M223.543 206.902L223.769 206.789C223.785 206.773 223.801 206.757 223.769 206.741L223.56 206.596C223.544 206.58 223.511 206.58 223.479 206.596L223.254 206.709C223.238 206.725 223.222 206.741 223.254 206.757L223.463 206.902C223.495 206.918 223.527 206.918 223.543 206.902Z" fill="#8AA8FF"/>
<path d="M223.206 207.08L223.431 206.968C223.447 206.951 223.463 206.935 223.431 206.919L223.222 206.775C223.206 206.758 223.173 206.758 223.141 206.775L222.916 206.887C222.9 206.903 222.884 206.919 222.916 206.935L223.125 207.08C223.157 207.08 223.19 207.08 223.206 207.08Z" fill="#8AA8FF"/>
<path d="M222.851 207.257L223.076 207.145C223.092 207.128 223.109 207.112 223.076 207.096L222.867 206.952C222.851 206.935 222.819 206.935 222.787 206.952L222.562 207.064C222.545 207.08 222.529 207.096 222.562 207.112L222.771 207.257C222.803 207.257 222.835 207.257 222.851 207.257Z" fill="#8AA8FF"/>
<path d="M222.514 207.433L222.739 207.321C222.756 207.305 222.772 207.289 222.739 207.273L222.53 207.128C222.514 207.112 222.482 207.112 222.45 207.128L222.225 207.24C222.209 207.256 222.192 207.273 222.225 207.289L222.434 207.433C222.466 207.433 222.498 207.433 222.514 207.433Z" fill="#8AA8FF"/>
<path d="M222.176 207.594L222.402 207.481C222.418 207.465 222.434 207.449 222.402 207.433L222.192 207.288C222.176 207.272 222.144 207.272 222.112 207.288L221.887 207.401C221.871 207.417 221.855 207.433 221.887 207.449L222.096 207.594C222.112 207.61 222.144 207.61 222.176 207.594Z" fill="#8AA8FF"/>
<path d="M224.219 206.936L224.445 206.823C224.461 206.807 224.477 206.791 224.445 206.775L224.235 206.63C224.219 206.614 224.187 206.614 224.155 206.63L223.93 206.743C223.914 206.759 223.898 206.775 223.93 206.791L224.139 206.936C224.155 206.952 224.203 206.952 224.219 206.936Z" fill="#8AA8FF"/>
<path d="M223.867 207.112L224.092 206.999C224.108 206.983 224.124 206.967 224.092 206.951L223.883 206.806C223.867 206.79 223.835 206.79 223.802 206.806L223.577 206.919C223.561 206.935 223.545 206.951 223.577 206.967L223.786 207.112C223.818 207.128 223.851 207.128 223.867 207.112Z" fill="#8AA8FF"/>
<path d="M223.529 207.29L223.754 207.178C223.77 207.161 223.786 207.145 223.754 207.129L223.545 206.984C223.529 206.968 223.497 206.968 223.464 206.984L223.239 207.097C223.223 207.113 223.207 207.129 223.239 207.145L223.448 207.29C223.481 207.306 223.513 207.306 223.529 207.29Z" fill="#8AA8FF"/>
<path d="M223.194 207.467L223.419 207.355C223.435 207.338 223.451 207.322 223.419 207.306L223.21 207.161C223.194 207.145 223.162 207.145 223.13 207.161L222.904 207.274C222.888 207.29 222.872 207.306 222.904 207.322L223.113 207.467C223.13 207.467 223.162 207.467 223.194 207.467Z" fill="#8AA8FF"/>
<path d="M222.837 207.643L223.063 207.531C223.079 207.515 223.095 207.499 223.063 207.483L222.854 207.338C222.837 207.322 222.805 207.322 222.773 207.338L222.548 207.45C222.532 207.466 222.516 207.483 222.548 207.499L222.757 207.643C222.789 207.643 222.821 207.643 222.837 207.643Z" fill="#8AA8FF"/>
<path d="M222.5 207.82L222.725 207.708C222.741 207.692 222.757 207.676 222.725 207.66L222.516 207.515C222.5 207.499 222.467 207.499 222.435 207.515L222.21 207.627C222.194 207.643 222.178 207.66 222.21 207.676L222.419 207.82C222.435 207.82 222.467 207.82 222.5 207.82Z" fill="#8AA8FF"/>
<path d="M224.541 207.145L224.766 207.032C224.782 207.016 224.798 207 224.766 206.984L224.557 206.839C224.541 206.823 224.508 206.823 224.476 206.839L224.251 206.952C224.235 206.968 224.219 206.984 224.251 207L224.46 207.145C224.476 207.145 224.508 207.145 224.541 207.145Z" fill="#8AA8FF"/>
<path d="M224.188 207.321L224.413 207.208C224.429 207.192 224.445 207.176 224.413 207.16L224.204 207.015C224.188 206.999 224.156 206.999 224.124 207.015L223.898 207.128C223.882 207.144 223.866 207.16 223.898 207.176L224.108 207.321C224.14 207.321 224.172 207.321 224.188 207.321Z" fill="#8AA8FF"/>
<path d="M223.852 207.499L224.077 207.387C224.093 207.37 224.109 207.354 224.077 207.338L223.868 207.193C223.852 207.177 223.82 207.177 223.788 207.193L223.563 207.306C223.546 207.322 223.53 207.338 223.563 207.354L223.772 207.499C223.788 207.499 223.82 207.499 223.852 207.499Z" fill="#8AA8FF"/>
<path d="M223.5 207.659L223.725 207.547C223.741 207.531 223.757 207.514 223.725 207.498L223.516 207.354C223.5 207.338 223.467 207.338 223.435 207.354L223.21 207.466C223.194 207.482 223.178 207.498 223.21 207.514L223.419 207.659C223.451 207.675 223.483 207.675 223.5 207.659Z" fill="#8AA8FF"/>
<path d="M223.158 207.836L223.383 207.724C223.399 207.708 223.415 207.691 223.383 207.675L223.174 207.531C223.158 207.515 223.126 207.515 223.093 207.531L222.868 207.643C222.852 207.659 222.836 207.675 222.868 207.691L223.077 207.836C223.093 207.852 223.126 207.852 223.158 207.836Z" fill="#8AA8FF"/>
<path d="M222.805 208.013L223.03 207.9C223.047 207.884 223.063 207.868 223.03 207.852L222.821 207.707C222.805 207.691 222.773 207.691 222.741 207.707L222.516 207.819C222.5 207.836 222.483 207.852 222.516 207.868L222.725 208.013C222.757 208.029 222.789 208.029 222.805 208.013Z" fill="#8AA8FF"/>
<path d="M224.864 207.354L225.089 207.241C225.105 207.225 225.121 207.209 225.089 207.193L224.88 207.048C224.864 207.032 224.832 207.032 224.799 207.048L224.574 207.161C224.558 207.177 224.542 207.193 224.574 207.209L224.783 207.354C224.799 207.37 224.832 207.37 224.864 207.354Z" fill="#8AA8FF"/>
<path d="M224.511 207.53L224.736 207.417C224.753 207.401 224.769 207.385 224.736 207.369L224.527 207.224C224.511 207.208 224.479 207.208 224.447 207.224L224.222 207.337C224.206 207.353 224.19 207.369 224.222 207.385L224.431 207.53C224.463 207.53 224.495 207.53 224.511 207.53Z" fill="#8AA8FF"/>
<path d="M224.173 207.708L224.399 207.595C224.415 207.579 224.431 207.563 224.399 207.547L224.189 207.402C224.173 207.386 224.141 207.386 224.109 207.402L223.884 207.515C223.868 207.531 223.852 207.547 223.884 207.563L224.093 207.708C224.109 207.708 224.141 207.708 224.173 207.708Z" fill="#8AA8FF"/>
<path d="M223.819 207.868L224.044 207.756C224.06 207.74 224.076 207.723 224.044 207.707L223.835 207.563C223.819 207.547 223.787 207.547 223.755 207.563L223.529 207.675C223.513 207.691 223.497 207.707 223.529 207.723L223.738 207.868C223.771 207.884 223.803 207.884 223.819 207.868Z" fill="#8AA8FF"/>
<path d="M223.482 208.045L223.707 207.933C223.723 207.917 223.739 207.9 223.707 207.884L223.498 207.74C223.482 207.724 223.45 207.724 223.418 207.74L223.192 207.852C223.176 207.868 223.16 207.884 223.192 207.9L223.402 208.045C223.434 208.061 223.466 208.061 223.482 208.045Z" fill="#8AA8FF"/>
<path d="M223.144 208.222L223.369 208.109C223.385 208.093 223.401 208.077 223.369 208.061L223.16 207.916C223.144 207.9 223.112 207.9 223.08 207.916L222.855 208.028C222.838 208.045 222.822 208.061 222.855 208.077L223.064 208.222C223.08 208.238 223.112 208.238 223.144 208.222Z" fill="#8AA8FF"/>
<path d="M225.184 207.562L225.409 207.449C225.425 207.433 225.442 207.417 225.409 207.401L225.2 207.256C225.184 207.24 225.152 207.24 225.12 207.256L224.895 207.369C224.878 207.385 224.862 207.401 224.895 207.417L225.104 207.562C225.12 207.578 225.152 207.578 225.184 207.562Z" fill="#8AA8FF"/>
<path d="M224.832 207.738L225.057 207.625C225.073 207.609 225.089 207.593 225.057 207.577L224.848 207.432C224.832 207.416 224.799 207.416 224.767 207.432L224.542 207.545C224.526 207.561 224.51 207.577 224.542 207.593L224.751 207.738C224.783 207.754 224.815 207.754 224.832 207.738Z" fill="#8AA8FF"/>
<path d="M224.494 207.917L224.719 207.804C224.735 207.788 224.751 207.772 224.719 207.756L224.51 207.611C224.494 207.595 224.462 207.595 224.429 207.611L224.204 207.724C224.188 207.74 224.172 207.756 224.204 207.772L224.413 207.917C224.445 207.917 224.478 207.917 224.494 207.917Z" fill="#8AA8FF"/>
<path d="M224.159 208.093L224.384 207.98C224.4 207.964 224.416 207.948 224.384 207.932L224.175 207.787C224.159 207.771 224.127 207.771 224.094 207.787L223.869 207.9C223.853 207.916 223.837 207.932 223.869 207.948L224.078 208.093C224.094 208.093 224.127 208.093 224.159 208.093Z" fill="#8AA8FF"/>
<path d="M223.802 208.253L224.028 208.14C224.044 208.124 224.06 208.108 224.028 208.092L223.818 207.947C223.802 207.931 223.77 207.931 223.738 207.947L223.513 208.06C223.497 208.076 223.481 208.092 223.513 208.108L223.722 208.253C223.754 208.269 223.786 208.269 223.802 208.253Z" fill="#8AA8FF"/>
<path d="M223.464 208.429L223.69 208.317C223.706 208.301 223.722 208.285 223.69 208.268L223.48 208.124C223.464 208.108 223.432 208.108 223.4 208.124L223.175 208.236C223.159 208.252 223.143 208.268 223.175 208.285L223.384 208.429C223.4 208.445 223.432 208.445 223.464 208.429Z" fill="#8AA8FF"/>
<path d="M225.504 207.772L225.73 207.659C225.746 207.643 225.762 207.627 225.73 207.611L225.521 207.466C225.504 207.45 225.472 207.45 225.44 207.466L225.215 207.579C225.199 207.595 225.183 207.611 225.215 207.627L225.424 207.772C225.44 207.788 225.488 207.788 225.504 207.772Z" fill="#8AA8FF"/>
<path d="M225.152 207.948L225.377 207.835C225.393 207.819 225.409 207.803 225.377 207.787L225.168 207.642C225.152 207.626 225.12 207.626 225.088 207.642L224.862 207.755C224.846 207.771 224.83 207.787 224.862 207.803L225.071 207.948C225.104 207.964 225.136 207.964 225.152 207.948Z" fill="#8AA8FF"/>
<path d="M224.814 208.126L225.039 208.013C225.055 207.997 225.071 207.981 225.039 207.965L224.83 207.82C224.814 207.804 224.782 207.804 224.75 207.82L224.524 207.933C224.508 207.949 224.492 207.965 224.524 207.981L224.734 208.126C224.766 208.142 224.798 208.142 224.814 208.126Z" fill="#8AA8FF"/>
<path d="M224.479 208.303L224.704 208.19C224.72 208.174 224.736 208.158 224.704 208.142L224.495 207.997C224.479 207.981 224.447 207.981 224.415 207.997L224.189 208.11C224.173 208.126 224.157 208.142 224.189 208.158L224.399 208.303C224.415 208.303 224.447 208.303 224.479 208.303Z" fill="#8AA8FF"/>
<path d="M224.123 208.479L224.348 208.366C224.364 208.35 224.38 208.334 224.348 208.318L224.139 208.173C224.123 208.157 224.09 208.157 224.058 208.173L223.833 208.286C223.817 208.302 223.801 208.318 223.833 208.334L224.042 208.479C224.074 208.479 224.107 208.479 224.123 208.479Z" fill="#8AA8FF"/>
<path d="M223.785 208.639L224.01 208.527C224.026 208.511 224.042 208.494 224.01 208.478L223.801 208.334C223.785 208.318 223.753 208.318 223.72 208.334L223.495 208.446C223.479 208.462 223.463 208.478 223.495 208.494L223.704 208.639C223.72 208.655 223.753 208.655 223.785 208.639Z" fill="#8AA8FF"/>
<path d="M225.83 207.982L226.055 207.869C226.071 207.853 226.087 207.837 226.055 207.821L225.846 207.676C225.83 207.66 225.797 207.66 225.765 207.676L225.54 207.789C225.524 207.805 225.508 207.821 225.54 207.837L225.749 207.982C225.781 207.998 225.814 207.998 225.83 207.982Z" fill="#8AA8FF"/>
<path d="M225.493 208.158L225.718 208.045C225.734 208.029 225.75 208.013 225.718 207.997L225.509 207.852C225.493 207.836 225.461 207.836 225.428 207.852L225.203 207.965C225.187 207.981 225.171 207.997 225.203 208.013L225.412 208.158C225.428 208.174 225.461 208.174 225.493 208.158Z" fill="#8AA8FF"/>
<path d="M225.138 208.336L225.363 208.223C225.38 208.207 225.396 208.191 225.363 208.175L225.154 208.03C225.138 208.014 225.106 208.014 225.074 208.03L224.849 208.143C224.833 208.159 224.816 208.175 224.849 208.191L225.058 208.336C225.09 208.352 225.122 208.352 225.138 208.336Z" fill="#8AA8FF"/>
<path d="M224.804 208.513L225.029 208.4C225.046 208.384 225.062 208.368 225.029 208.352L224.82 208.207C224.804 208.191 224.772 208.191 224.74 208.207L224.515 208.32C224.499 208.336 224.482 208.352 224.515 208.368L224.724 208.513C224.74 208.529 224.772 208.529 224.804 208.513Z" fill="#8AA8FF"/>
<path d="M224.448 208.689L224.673 208.576C224.689 208.56 224.705 208.544 224.673 208.528L224.464 208.383C224.448 208.367 224.416 208.367 224.383 208.383L224.158 208.496C224.142 208.512 224.126 208.528 224.158 208.544L224.367 208.689C224.4 208.689 224.432 208.689 224.448 208.689Z" fill="#8AA8FF"/>
<path d="M224.11 208.866L224.335 208.753C224.351 208.737 224.367 208.721 224.335 208.705L224.126 208.56C224.11 208.544 224.078 208.544 224.046 208.56L223.82 208.673C223.804 208.689 223.788 208.705 223.82 208.721L224.029 208.866C224.062 208.866 224.094 208.866 224.11 208.866Z" fill="#8AA8FF"/>
<path d="M223.805 206.371L220.684 204.328C220.668 204.312 220.635 204.312 220.603 204.328L220.378 204.44C220.362 204.456 220.346 204.473 220.378 204.489L223.499 206.532C223.515 206.548 223.547 206.548 223.579 206.532L223.805 206.419C223.821 206.403 223.821 206.387 223.805 206.371Z" fill="#8AA8FF"/>
<path d="M222.118 210.474L222.472 210.297L222.086 209.236H221.684L222.118 210.474Z" fill="#8AA8FF"/>
<path d="M234.842 205.745C234.842 205.745 232.767 208.722 227.201 206.566C221.635 204.41 222.728 202.592 222.728 202.592C222.728 202.592 222.181 191.701 222.728 189.159C223.275 186.618 223.951 184.961 225.19 184.205C225.19 184.205 231.303 186.425 232.526 187.728C233.25 188.5 233.539 194.517 234.07 199.262C234.408 202.48 234.842 205.745 234.842 205.745Z" fill="#FFC700"/>
<path d="M221.329 191.974L220.75 198.94L217.13 204.12L218.867 204.989L222.648 201.08L222.487 192.57L221.329 191.974Z" fill="#F89AB5"/>
<path d="M229.017 183.431L229.596 186.52C229.596 186.52 229.242 187.791 227.714 187.373C226.185 186.955 226.411 186.021 226.411 186.021L226.33 183.978L229.017 183.431Z" fill="#F89AB5"/>
<path d="M226.33 184.059C226.33 184.059 226.845 185.217 229.322 184.992L228.936 183.013L226.33 184.059Z" fill="#DB8FAA"/>
<path d="M224.254 180.745C224.85 183.544 226.04 185.008 227.568 184.686C229.113 184.349 230.818 182.933 230.158 179.844C229.692 177.656 228.067 176.16 226.523 176.498C223.9 177.045 223.788 178.557 224.254 180.745Z" fill="#F89AB5"/>
<path d="M223.95 178.686C223.644 178.541 223.5 178.187 223.612 177.849C223.837 177.206 224.368 176.209 225.575 175.903C226.958 175.549 230.224 174.616 230.835 180.198C230.835 180.198 230.835 180.295 230.835 180.89C230.835 180.89 229.516 179.86 229.227 179.426C228.937 178.992 228.342 178.686 227.554 178.67C226.878 178.654 226.556 178.734 226.025 179.136C225.736 179.362 225.35 179.394 225.028 179.233L223.95 178.686Z" fill="#0A1A4E"/>
<path d="M228.952 180.745C229.065 181.276 229.596 181.614 230.127 181.501C230.658 181.388 230.995 180.857 230.883 180.327C230.77 179.796 230.239 179.458 229.708 179.57C229.178 179.683 228.84 180.214 228.952 180.745Z" fill="#F89AB5"/>
<path d="M226.203 187.662C226.927 188.049 228.085 188.016 228.777 187.566C229.468 187.132 229.452 186.456 228.728 186.07C228.005 185.684 226.846 185.716 226.154 186.166C225.463 186.617 225.479 187.276 226.203 187.662Z" fill="#E9A71A"/>
<path d="M226.557 187.438C227.281 187.824 228.407 187.776 229.099 187.358C229.791 186.923 229.759 186.264 229.051 185.894C228.327 185.508 227.201 185.556 226.509 185.974C225.817 186.392 225.849 187.052 226.557 187.438Z" fill="#F89AB5"/>
<path d="M227.763 178.67L228.937 180.44L229.532 179.973L229.339 179.265L228.406 178.204L227.763 178.67Z" fill="#0A1A4E"/>
<path d="M229.099 193.615L227.845 201.401L228.311 200.645L223.565 205.311C223.179 205.697 223.163 206.324 223.549 206.726C223.903 207.08 224.466 207.128 224.852 206.839L230.209 202.897L230.499 202.688L230.692 202.125L233.25 194.661C233.636 193.535 233.041 192.312 231.915 191.926C230.789 191.54 229.566 192.135 229.18 193.261C229.148 193.374 229.115 193.503 229.099 193.615Z" fill="#F89AB5"/>
<path d="M232.83 195.964L232.685 196.35C232.685 196.35 231.028 197.186 228.792 195.578L228.953 194.789L232.83 195.964Z" fill="#E6E6E6"/>
<path d="M228.583 194.822C229.5 196.141 232.235 196.64 233.168 195.723L234.246 189.803C234.423 188.677 233.522 187.615 232.251 187.422C230.867 187.213 229.596 188.033 229.42 189.256L228.583 194.822Z" fill="#FFC700"/>
<path d="M224.188 205.02L222.869 205.857L222.966 207.047L223.143 207.868L223.352 208.64L225.395 206.709C225.572 206.532 225.701 206.323 225.733 206.066L225.894 205.181L224.188 205.02Z" fill="#F89AB5"/>
<path d="M221.714 207.611C221.843 207.611 221.972 207.531 222.036 207.402C222.294 206.871 223.323 206.389 223.677 206.26C223.87 206.196 223.951 205.987 223.886 205.793C223.822 205.6 223.613 205.52 223.42 205.584C223.259 205.649 221.811 206.212 221.377 207.097C221.296 207.273 221.361 207.499 221.554 207.579C221.602 207.595 221.65 207.611 221.714 207.611Z" fill="#F89AB5"/>
<path d="M222.484 206.051C222.501 206.051 222.501 206.051 222.517 206.051C223.546 205.955 224.367 205.713 224.399 205.713C224.592 205.665 224.705 205.456 224.64 205.263C224.592 205.07 224.383 204.957 224.19 205.022C224.19 205.022 223.385 205.247 222.436 205.343C222.243 205.359 222.098 205.536 222.115 205.729C222.131 205.906 222.291 206.051 222.484 206.051Z" fill="#F89AB5"/>
<path d="M221.954 208.4C222.099 208.4 222.243 208.303 222.292 208.158C222.469 207.595 223.434 206.984 223.772 206.807C223.949 206.71 224.013 206.501 223.916 206.324C223.82 206.147 223.611 206.083 223.434 206.18C223.273 206.26 221.922 207.016 221.616 207.949C221.552 208.142 221.664 208.335 221.841 208.4C221.873 208.4 221.922 208.4 221.954 208.4Z" fill="#F89AB5"/>
<path d="M222.602 208.69C222.747 208.69 222.892 208.594 222.94 208.449C223.117 207.886 224.066 207.274 224.42 207.098C224.597 207.001 224.661 206.792 224.565 206.615C224.468 206.438 224.259 206.374 224.082 206.47C223.921 206.551 222.57 207.307 222.264 208.24C222.2 208.433 222.313 208.626 222.49 208.69C222.522 208.69 222.554 208.69 222.602 208.69Z" fill="#F89AB5"/>
<path d="M223.321 208.915C223.498 208.915 223.659 208.786 223.675 208.609C223.756 208.046 224.496 207.451 224.769 207.274C224.93 207.162 224.978 206.936 224.882 206.775C224.769 206.615 224.56 206.566 224.383 206.663C224.254 206.743 223.112 207.515 222.967 208.513C222.935 208.706 223.08 208.899 223.273 208.915C223.289 208.915 223.305 208.915 223.321 208.915Z" fill="#F89AB5"/>
<path d="M222.468 210.298L220.345 204.297C220.297 204.185 220.216 204.072 220.12 204.008L212.591 199.182C212.526 199.149 212.462 199.149 212.414 199.198C212.365 199.246 212.333 199.31 212.365 199.375L214.264 205.166L222.468 210.298Z" fill="#8AA8FF"/>
<path d="M212.077 199.357L212.431 199.18C212.447 199.18 212.463 199.164 212.479 199.164C212.479 199.164 212.479 199.164 212.495 199.164C212.528 199.164 212.56 199.164 212.592 199.196L219.879 203.878L220.105 204.023C220.169 204.055 220.217 204.103 220.249 204.167L219.879 204.344L212.544 199.647L212.495 199.679L212.077 199.357Z" fill="#D2E4FF"/>
<path d="M222.116 210.473L219.992 204.473C219.944 204.36 219.864 204.247 219.767 204.183L212.238 199.357C212.174 199.325 212.109 199.325 212.061 199.373C212.013 199.421 211.981 199.486 212.013 199.55L213.911 205.341L222.116 210.473Z" fill="#AEC5FF"/>
<path d="M215.39 204.313C215.47 205.037 216.081 205.874 216.741 206.163C217.401 206.453 217.883 206.115 217.803 205.375C217.722 204.651 217.111 203.814 216.451 203.525C215.792 203.235 215.309 203.589 215.39 204.313Z" fill="#8AA8FF"/>
<path d="M215.153 179.459L219.951 182.231V152.256L215.153 149.485V179.459Z" fill="#A7D2E3"/>
<path d="M224.762 179.459L219.951 182.231V152.256L224.762 149.485V179.459Z" fill="#4596B4"/>
<path d="M215.153 149.485L219.951 152.256L224.761 149.485L219.951 146.714L215.153 149.485Z" fill="#93C9DE"/>
<path d="M204.578 172.78L209.389 175.551V141.132L204.578 138.361V172.78Z" fill="#A7D2E3"/>
<path d="M214.186 172.78L209.389 175.551V141.132L214.186 138.361V172.78Z" fill="#4596B4"/>
<path d="M204.577 138.361L209.388 141.132L214.185 138.361L209.388 135.589L204.577 138.361Z" fill="#93C9DE"/>
<path d="M193.885 165.864L198.695 168.636V128.792L193.885 126.021V165.864Z" fill="#A7D2E3"/>
<path d="M203.493 165.864L198.695 168.636V128.792L203.493 126.021V165.864Z" fill="#4596B4"/>
<path d="M193.885 126.021L198.695 128.792L203.493 126.021L198.695 123.249L193.885 126.021Z" fill="#93C9DE"/>
<path d="M183.23 159.903L188.028 162.688V117.523L183.23 114.752V159.903Z" fill="#A7D2E3"/>
<path d="M192.826 159.903L188.028 162.688V117.523L192.826 114.752V159.903Z" fill="#4596B4"/>
<path d="M183.23 114.752L188.028 117.524L192.825 114.752L188.028 111.981L183.23 114.752Z" fill="#93C9DE"/>
<path d="M172.669 153.969L177.48 156.74V106.151L172.669 103.379V153.969Z" fill="#A7D2E3"/>
<path d="M182.277 153.969L177.479 156.74V106.151L182.277 103.379V153.969Z" fill="#4596B4"/>
<path d="M172.669 103.379L177.48 106.151L182.277 103.379L177.48 100.608L172.669 103.379Z" fill="#93C9DE"/>
<path d="M161.896 147.681L166.707 150.452V94.5557L161.896 91.7844V147.681Z" fill="#A7D2E3"/>
<path d="M171.505 147.681L166.707 150.452V94.5557L171.505 91.7844V147.681Z" fill="#4596B4"/>
<path d="M161.896 91.7844L166.707 94.5557L171.505 91.7844L166.707 89L161.896 91.7844Z" fill="#93C9DE"/>
<circle cx="283.5" cy="246.5" r="36.5" fill="#00ADEE"/>
<defs>
<linearGradient id="paint0_linear" x1="82.001" y1="101.556" x2="200.501" y2="274.056" gradientUnits="userSpaceOnUse">
<stop stop-color="#EFEFEF"/>
<stop offset="1" stop-color="#F8F8F8"/>
</linearGradient>
<linearGradient id="paint1_linear" x1="91.8584" y1="156.46" x2="94.2202" y2="156.394" gradientUnits="userSpaceOnUse">
<stop stop-color="#FCE559"/>
<stop offset="1" stop-color="#F6AA28"/>
</linearGradient>
<linearGradient id="paint2_linear" x1="134.362" y1="155.942" x2="137.75" y2="155.846" gradientUnits="userSpaceOnUse">
<stop stop-color="#FCE559"/>
<stop offset="1" stop-color="#F6AA28"/>
</linearGradient>
<linearGradient id="paint3_linear" x1="91.9025" y1="158.081" x2="137.777" y2="156.792" gradientUnits="userSpaceOnUse">
<stop stop-color="#FCE559"/>
<stop offset="1" stop-color="#F6AA28"/>
</linearGradient>
<linearGradient id="paint4_linear" x1="98.2266" y1="143.908" x2="115.235" y2="171.544" gradientUnits="userSpaceOnUse">
<stop stop-color="#FCE559"/>
<stop offset="1" stop-color="#F6AA28"/>
</linearGradient>
<linearGradient id="paint5_linear" x1="116.81" y1="140.141" x2="113.791" y2="166.056" gradientUnits="userSpaceOnUse">
<stop stop-color="#FCE559"/>
<stop offset="1" stop-color="#F6AA28"/>
</linearGradient>
<linearGradient id="paint6_linear" x1="116.613" y1="163.544" x2="116.731" y2="141.283" gradientUnits="userSpaceOnUse">
<stop stop-color="#FCD835"/>
<stop offset="1" stop-color="#FAA925"/>
</linearGradient>
<linearGradient id="paint7_linear" x1="116.408" y1="162.387" x2="116.514" y2="142.526" gradientUnits="userSpaceOnUse">
<stop stop-color="#FFC533"/>
<stop offset="1" stop-color="#F8BA26"/>
</linearGradient>
<linearGradient id="paint8_linear" x1="103.944" y1="153.594" x2="125.502" y2="152.988" gradientUnits="userSpaceOnUse">
<stop stop-color="#FCD835"/>
<stop offset="1" stop-color="#FAA925"/>
</linearGradient>
</defs>
</svg>
