<svg width="301" height="285" viewBox="0 0 301 285" fill="none" xmlns="http://www.w3.org/2000/svg">
<path d="M83.0047 20.5915C116.361 1.41639 178.643 35.7646 205.615 55.3356C306.804 120.589 273.98 172.133 244.794 199.759C230.365 213.417 217.923 228.418 143.034 254.747C68.1452 281.076 41.3349 227.696 37.291 197.715C26.3629 139.529 41.3094 44.5604 83.0047 20.5915Z" fill="url(#paint0_linear)"/>
<path opacity="0.17" d="M230.977 170.631C220.457 167.663 209.252 169.302 205.964 174.299C205.508 174.984 205.239 175.709 205.119 176.434L180.011 169.342L158.514 163.27C149.215 146.601 113.869 108.264 102.744 105L138.01 153.693L137.272 155.856L142.693 155.829L53 129.42C58.2737 136.11 119.532 163.7 147.202 168.979L158.152 183.433L169.236 198.061C167.948 198.088 166.673 198.208 165.438 198.423C156.474 200.008 152.985 206.268 157.628 212.407C162.271 218.532 173.302 222.226 182.266 220.627C191.23 219.042 194.719 212.783 190.076 206.644C188.506 204.575 186.211 202.789 183.527 201.392H183.648C183.648 201.392 170.551 191.156 163.828 181.821C160.769 177.59 159.037 173.546 160.42 170.725C160.554 170.443 160.648 170.108 160.675 169.745C165.304 169.772 171.021 170.873 176.898 172.458C192.934 176.784 210.204 184.776 210.204 184.776V184.709C212.526 186.307 215.532 187.704 219.088 188.712C229.608 191.68 240.813 190.041 244.088 185.045C247.375 180.061 241.498 173.6 230.977 170.631ZM185.835 207.396C189.271 211.923 186.681 216.544 180.065 217.726C173.45 218.895 165.304 216.181 161.869 211.654C158.434 207.128 161.023 202.507 167.639 201.338C174.255 200.143 182.4 202.87 185.835 207.396ZM239.096 183.648C236.667 187.328 228.401 188.55 220.631 186.348C212.861 184.158 208.527 179.389 210.956 175.696C213.385 172.015 221.651 170.793 229.42 172.996C237.19 175.185 241.524 179.954 239.096 183.648Z" fill="#163891"/>
<path opacity="0.17" d="M86.7065 138.074C101.673 138.074 113.805 131.068 113.805 122.426C113.805 113.784 101.673 106.779 86.7065 106.779C71.7404 106.779 59.6079 113.784 59.6079 122.426C59.6079 131.068 71.7404 138.074 86.7065 138.074Z" fill="#163891"/>
<path d="M63.7646 119.21L63.8954 123.851L66.3137 125.655L66.1438 119.59L63.7646 119.21Z" fill="url(#paint1_linear)"/>
<path d="M109.646 118.165L109.777 122.792L106.914 125.603L106.273 118.662L109.646 118.165Z" fill="url(#paint2_linear)"/>
<path d="M102.797 113.616C93.6984 108.701 79.1753 109.106 70.3646 114.531C61.554 119.956 61.7893 128.335 70.8875 133.263C79.9857 138.178 94.5089 137.773 103.32 132.348C112.13 126.923 111.895 118.531 102.797 113.616Z" fill="url(#paint3_linear)"/>
<path d="M102.666 109.001C111.764 113.916 111.999 122.309 103.189 127.734C94.378 133.159 79.8549 133.564 70.7566 128.649C61.6584 123.734 61.4231 115.341 70.2338 109.916C79.0444 104.478 93.5676 104.073 102.666 109.001Z" fill="url(#paint4_linear)"/>
<path d="M102.104 109.341C110.888 114.086 111.111 122.178 102.614 127.407C94.1168 132.636 80.1034 133.028 71.3189 128.283C62.5344 123.538 62.3122 115.446 70.8091 110.217C79.306 104.988 93.3194 104.596 102.104 109.341Z" fill="url(#paint5_linear)"/>
<path opacity="0.82" d="M100.104 110.57C107.738 114.701 107.947 121.734 100.548 126.283C93.1494 130.832 80.9661 131.172 73.332 127.054C65.6978 122.923 65.4887 115.89 72.8875 111.341C80.2733 106.792 92.4566 106.452 100.104 110.57Z" fill="url(#paint6_linear)"/>
<path opacity="0.82" d="M73.2143 111.524C80.5608 107.001 92.6264 106.635 100.274 110.674C100.221 110.648 100.169 110.609 100.104 110.583C92.4695 106.452 80.2732 106.792 72.8874 111.354C65.4886 115.903 65.6847 122.936 73.3319 127.067C73.3842 127.093 73.4496 127.119 73.5018 127.158C66.0115 123.001 65.8677 116.034 73.2143 111.524Z" fill="white"/>
<path opacity="0.59" d="M98.6526 111.459C105.463 115.145 105.646 121.42 99.0448 125.485C92.4434 129.551 81.5673 129.851 74.7567 126.165C67.9461 122.479 67.7631 116.204 74.3646 112.139C80.966 108.086 91.842 107.786 98.6526 111.459Z" fill="url(#paint7_linear)"/>
<path opacity="0.82" d="M91.02 116.91L91.0462 117.642L92.1573 118.138L91.9612 117.197L91.02 116.91Z" fill="#FAA925"/>
<path d="M97.2948 113.171L97.321 113.903L96.5628 114.361L96.0269 113.955L97.2948 113.171Z" fill="#FAA925"/>
<g opacity="0.82">
<path opacity="0.82" d="M76.0898 124.675L77.6977 123.694C76.4689 122.844 75.9591 122.008 76.1552 121.21C76.3513 120.4 77.201 119.537 78.7043 118.622L79.2925 118.256L83.1357 120.348L82.6913 120.622C81.5802 121.302 81.3841 121.825 82.0638 122.204C82.3514 122.361 82.6913 122.413 83.0704 122.374C83.4495 122.335 83.8155 122.204 84.1684 121.982C84.4168 121.825 84.5606 121.472 84.5998 120.923L84.5345 117.289C84.5083 115.955 85.1619 114.883 86.4822 114.073C87.4496 113.485 88.6261 113.132 90.0248 113.053C91.4235 112.962 92.7699 113.171 94.0902 113.668L95.3974 112.87L97.306 113.916L96.038 114.687C97.1099 115.446 97.5674 116.269 97.3975 117.145C97.2406 118.021 96.4301 118.91 94.9791 119.799L91.0313 117.655L91.9202 117.08C92.1032 116.949 92.1817 116.792 92.1555 116.596C92.1163 116.413 91.9987 116.256 91.7634 116.125C91.5019 115.982 91.2143 115.916 90.8745 115.903C90.5346 115.903 90.247 115.968 89.9986 116.125C89.6326 116.348 89.4757 116.87 89.5019 117.694L89.6195 121.197C89.6457 121.812 89.4627 122.4 89.0967 122.949C88.7306 123.498 88.2208 123.982 87.5672 124.374C86.8875 124.792 86.1293 125.093 85.2665 125.289C84.4037 125.485 83.4756 125.537 82.4691 125.459C81.4625 125.38 80.4952 125.132 79.5801 124.74L77.9984 125.707L76.0898 124.675Z" fill="url(#paint8_linear)"/>
</g>
<path d="M76.0654 123.943L77.6733 122.962C76.4445 122.112 75.9347 121.276 76.1308 120.478C76.3269 119.668 77.1766 118.805 78.6799 117.89L79.2681 117.524L83.1113 119.616L82.6669 119.89C81.5557 120.57 81.3597 121.093 82.0394 121.472C82.327 121.629 82.6669 121.681 83.046 121.642C83.4251 121.603 83.7911 121.472 84.144 121.25C84.3924 121.093 84.5362 120.74 84.5754 120.191L84.51 116.557C84.4839 115.223 85.1375 114.152 86.4578 113.341C87.4251 112.753 88.6016 112.4 90.0004 112.321C91.3991 112.23 92.7455 112.439 94.0658 112.936L95.373 112.138L97.2816 113.184L96.0135 113.955C97.0855 114.714 97.543 115.537 97.3731 116.413C97.2162 117.289 96.4057 118.178 94.9547 119.067L91.0069 116.923L91.8958 116.348C92.0788 116.217 92.1573 116.06 92.1311 115.864C92.0919 115.681 91.9742 115.524 91.7389 115.393C91.4775 115.25 91.1899 115.184 90.85 115.171C90.5102 115.171 90.2226 115.237 89.9742 115.393C89.6082 115.616 89.4513 116.139 89.4775 116.962L89.5951 120.465C89.6213 121.08 89.4383 121.668 89.0722 122.217C88.7062 122.766 88.1964 123.25 87.5428 123.642C86.863 124.06 86.1049 124.361 85.2421 124.557C84.3793 124.753 83.4512 124.805 82.4446 124.727C81.4381 124.648 80.4707 124.4 79.5557 124.008L77.974 124.975L76.0654 123.943Z" fill="#FFE169"/>
<path d="M77.987 124.988L78.0263 125.72L76.0916 124.675L76.0654 123.943L77.987 124.988Z" fill="#FAA925"/>
<path d="M65 132.456V137.223L85.3034 145.112L86.7069 142.027L65 132.456Z" fill="#B8D4F5"/>
<path d="M178.581 195.435L178.823 193.935L186.143 196.79L187.438 200.13L186.966 202.755L183.009 200.239L178.581 195.435Z" fill="#B73235"/>
<path d="M170.897 195.689L171.417 192.712L162.887 195.084L158.579 198.702V203.953L165.428 211.89L178.592 215.242L187.957 212.253L191.539 208.878V203.348L187.062 208.878L176.729 210.886L166.88 206.748L162.245 201.618L170.897 195.689Z" fill="#B73235"/>
<path d="M177.782 167.86V172.639L171.405 171.139L164.339 165.452L177.273 166.19L177.782 167.86Z" fill="#B8D4F5"/>
<path d="M208.49 172.639L207.438 169.069L216.5 165.996L225.188 166.686L235.17 172.131L236.562 175.894L234.759 177.031L231.794 174.817L223.784 171.514H212.544L208.49 172.639Z" fill="#B73235"/>
<path d="M208.213 183.928L220.385 187.861L234.965 185.9L239.164 181.835L239.2 176.644L228.468 182.767L210.754 179.124L204.583 177.527L208.213 183.928Z" fill="#B73235"/>
<path d="M109.854 115.226L160.891 182.5L165.997 181.061C163.238 177.249 161.677 173.607 162.923 171.066C166.928 162.935 121.893 118.747 109.854 115.226Z" fill="#CCE3F5"/>
<path d="M160.37 170.34C164.908 169.771 171.236 170.86 177.794 172.627L180.613 169.808L65 137.223C70.5417 144.229 145.826 172.167 160.37 170.34Z" fill="#B8D4F5"/>
<path d="M183.77 198.69H183.879C183.879 198.69 172.07 189.47 166.008 181.061L160.902 182.5L170.896 195.677C169.735 195.701 168.585 195.81 167.472 196.004C159.389 197.431 156.243 203.07 160.43 208.6C164.616 214.117 174.562 217.444 182.645 216.005C190.728 214.577 193.874 208.938 189.687 203.409C188.271 201.558 186.202 199.948 183.77 198.69ZM180.649 213.391C174.683 214.444 167.339 212 164.241 207.922C161.144 203.844 163.479 199.682 169.444 198.629C175.409 197.577 182.754 200.021 185.851 204.098C188.949 208.176 186.626 212.338 180.649 213.391Z" fill="#B73235"/>
<path d="M226.556 170.981C217.07 168.307 206.966 169.784 204.002 174.285C203.59 174.902 203.348 175.555 203.24 176.209L180.601 169.82L177.782 172.639C192.241 176.535 207.813 183.735 207.813 183.735V183.674C209.907 185.114 212.617 186.372 215.823 187.28C225.31 189.954 235.413 188.478 238.365 183.977C241.342 179.475 236.042 173.655 226.556 170.981ZM233.876 182.706C231.686 186.021 224.233 187.123 217.227 185.138C210.221 183.166 206.313 178.87 208.503 175.543C210.693 172.228 218.146 171.127 225.152 173.111C232.158 175.095 236.066 179.379 233.876 182.706Z" fill="#B73235"/>
<path d="M142.062 157.672L143.297 159.293L161.228 164.351C160.986 163.915 160.72 163.467 160.442 163.008L142.062 157.672Z" fill="#B8D4F5"/>
<path d="M177.782 167.859V172.639L208.213 183.928L202.308 173.498L177.782 167.859Z" fill="#B73235"/>
<path d="M109.854 110.458L160.891 177.733L165.997 176.293C163.238 172.482 161.677 168.839 162.923 166.299C166.928 158.168 121.893 113.979 109.854 110.458Z" fill="#CCE3F5"/>
<path d="M160.37 165.573C164.908 165.004 171.236 166.093 177.794 167.86L180.613 165.04L65 132.456C70.5417 139.462 145.826 167.388 160.37 165.573Z" fill="#CCE3F5"/>
<path d="M151.331 158.386C150.097 158.833 149.891 159.825 150.859 160.612C151.839 161.386 153.618 161.653 154.852 161.205C156.086 160.757 156.292 159.765 155.324 158.978C154.344 158.192 152.553 157.938 151.331 158.386Z" fill="#679AE2"/>
<path d="M183.77 193.91H183.879C183.879 193.91 172.07 184.69 166.008 176.281L160.902 177.721L170.896 190.897C169.735 190.922 168.585 191.031 167.472 191.224C159.389 192.652 156.243 198.29 160.43 203.82C164.616 209.337 174.562 212.665 182.645 211.225C190.728 209.797 193.874 204.159 189.687 198.629C188.271 196.79 186.202 195.181 183.77 193.91ZM180.649 208.624C174.683 209.676 167.339 207.232 164.241 203.155C161.144 199.077 163.479 194.915 169.444 193.862C175.409 192.809 182.754 195.253 185.851 199.331C188.949 203.409 186.626 207.571 180.649 208.624Z" fill="#FB4B00"/>
<path d="M226.556 166.214C217.07 163.54 206.966 165.016 204.002 169.517C203.59 170.134 203.348 170.788 203.24 171.441L180.601 165.052L177.782 167.872C192.241 171.768 207.813 178.967 207.813 178.967V178.907C209.907 180.346 212.617 181.605 215.823 182.512C225.31 185.186 235.413 183.71 238.365 179.209C241.342 174.708 236.042 168.888 226.556 166.214ZM233.876 177.939C231.686 181.254 224.233 182.355 217.227 180.371C210.221 178.398 206.313 174.103 208.503 170.775C210.693 167.46 218.146 166.359 225.152 168.343C232.158 170.316 236.066 174.611 233.876 177.939Z" fill="#FB4B00"/>
<path d="M142.062 152.904L143.297 154.526L161.228 159.583C160.986 159.148 160.72 158.7 160.442 158.24L142.062 152.904Z" fill="#B8D4F5"/>
<path d="M151.029 164.726V169.493L160.903 182.512V177.733L151.029 164.726Z" fill="#B8D4F5"/>
<path d="M160.902 177.733V182.512L167.46 191.236L170.896 190.922L160.902 177.733Z" fill="#B73235"/>
<path d="M109.854 110.458V115.226L138.688 153.231L143.286 154.526L109.854 110.458Z" fill="#B8D4F5"/>
<path d="M163.056 165.972L151.634 165.536L151.017 164.726L163.153 165.427C163.165 165.427 163.092 165.851 163.056 165.972Z" fill="#B8D4F5"/>
<path d="M190.787 189.938L190.932 191.112C190.964 191.37 190.867 191.627 190.69 191.804C190.079 192.399 188.663 193.67 187.65 193.799C186.62 193.927 186.475 193.38 186.411 193.123C186.347 192.866 186.684 192.415 186.684 192.415L190.787 189.938Z" fill="#2F2F7F"/>
<path d="M190.784 189.94C190.784 189.94 188.307 193.591 186.666 193.189C185.331 192.851 188.918 189.376 188.918 189.376L190.784 189.94Z" fill="#41409E"/>
<path d="M202.529 168.785C202.015 167.128 200.229 166.195 198.572 166.726C198.475 166.758 198.379 166.791 198.299 166.823C197.317 167.225 196.352 167.659 195.387 168.094C194.421 168.544 193.456 168.979 192.491 169.429L186.732 172.148L186.442 172.276C185.622 172.662 185.187 173.563 185.364 174.416L186.893 182.154L188.453 189.892C188.582 190.552 189.225 190.97 189.885 190.841C190.496 190.712 190.898 190.165 190.85 189.554L190.223 181.687L189.724 175.687L194.357 174.448C195.387 174.175 196.4 173.901 197.43 173.612C198.443 173.322 199.473 173.016 200.47 172.711C202.127 172.228 203.06 170.442 202.529 168.785Z" fill="#2196A8"/>
<path d="M189.597 169.493L192.751 164.924L193.491 155.963C193.507 155.867 193.523 155.754 193.539 155.658C193.812 154.499 194.971 153.776 196.129 154.049C197.287 154.322 198.011 155.481 197.738 156.639L195.63 165.68L195.518 166.179L195.325 166.388L191.142 170.78C190.804 171.134 190.257 171.198 189.855 170.908C189.404 170.571 189.292 169.959 189.597 169.493Z" fill="#F89AB5"/>
<path d="M197.255 158.12L197.127 158.522C197.127 158.522 195.631 159.504 193.33 157.975L193.394 157.091L197.255 158.12Z" fill="#E6E6E6"/>
<path d="M193.024 156.993C193.941 158.312 196.676 158.811 197.609 157.894L198.687 151.974C198.864 150.848 197.963 149.786 196.692 149.593C195.308 149.384 194.037 150.204 193.86 151.427L193.024 156.993Z" fill="#FFC700"/>
<path d="M197.783 191.13L198.137 192.272C198.217 192.514 198.169 192.787 198.008 192.996C197.509 193.688 196.319 195.184 195.337 195.474C194.356 195.779 194.115 195.265 194.002 195.007C193.89 194.766 194.147 194.251 194.147 194.251L197.783 191.13Z" fill="#2F2F7F"/>
<path d="M197.783 191.129C197.783 191.129 195.966 195.151 194.276 195.023C192.909 194.91 195.853 190.872 195.853 190.872L197.783 191.129Z" fill="#41409E"/>
<path d="M206.553 171.825C206.441 169.556 204.51 167.803 202.242 167.916C201.984 167.932 201.727 167.964 201.486 168.028C200.601 168.237 199.716 168.479 198.831 168.704C197.946 168.929 197.062 169.186 196.177 169.444L190.884 171.069L190.289 171.246C189.034 171.632 188.326 172.967 188.712 174.222C188.728 174.286 188.745 174.334 188.777 174.399L195.453 191.419C195.694 192.046 196.402 192.352 197.03 192.111C197.593 191.886 197.898 191.29 197.77 190.711L194.488 176.233L197.158 176.265C198.075 176.281 198.992 176.265 199.909 176.233C200.826 176.2 201.743 176.184 202.66 176.136C204.928 176.04 206.666 174.093 206.553 171.825Z" fill="#24A8BF"/>
<path d="M186.135 171.038L186.457 171.07L191.283 168.624C191.396 168.56 191.573 168.56 191.669 168.624L199.343 173.628L199.6 173.66L199.584 173.853C199.584 173.901 199.552 173.933 199.488 173.965L194.115 176.684L186.57 171.761L185.91 171.327L185.926 171.102L186.135 171.038Z" fill="#8AA8FF"/>
<path d="M191.669 168.415L199.536 173.531C199.633 173.596 199.617 173.692 199.504 173.756L194.131 176.475L185.926 171.134L191.299 168.415C191.412 168.351 191.573 168.351 191.669 168.415Z" fill="#DEEBFF"/>
<path d="M188.596 170.36L188.387 170.215C188.371 170.199 188.338 170.199 188.306 170.215L188.081 170.328C188.065 170.344 188.049 170.36 188.081 170.376L188.29 170.521C188.306 170.537 188.338 170.537 188.371 170.521L188.596 170.408C188.612 170.392 188.612 170.376 188.596 170.36Z" fill="#8AA8FF"/>
<path d="M188.919 170.569L188.71 170.425C188.694 170.409 188.662 170.409 188.63 170.425L188.404 170.537C188.388 170.553 188.372 170.569 188.404 170.586L188.613 170.73C188.63 170.746 188.662 170.746 188.694 170.73L188.919 170.618C188.935 170.602 188.935 170.586 188.919 170.569Z" fill="#8AA8FF"/>
<path d="M189.242 170.778L189.033 170.634C189.017 170.618 188.984 170.618 188.952 170.634L188.727 170.746C188.711 170.762 188.695 170.778 188.727 170.795L188.936 170.939C188.952 170.955 188.984 170.955 189.017 170.939L189.242 170.827C189.258 170.811 189.258 170.795 189.242 170.778Z" fill="#8AA8FF"/>
<path d="M189.564 171.003L189.355 170.859C189.339 170.842 189.307 170.842 189.275 170.859L189.049 170.971C189.033 170.987 189.017 171.003 189.049 171.019L189.258 171.164C189.275 171.18 189.307 171.18 189.339 171.164L189.564 171.052C189.58 171.019 189.58 171.003 189.564 171.003Z" fill="#8AA8FF"/>
<path d="M189.882 171.213L189.673 171.068C189.657 171.052 189.625 171.052 189.593 171.068L189.368 171.181C189.352 171.197 189.336 171.213 189.368 171.229L189.577 171.374C189.593 171.39 189.625 171.39 189.657 171.374L189.882 171.262C189.899 171.245 189.899 171.213 189.882 171.213Z" fill="#8AA8FF"/>
<path d="M190.205 171.422L189.996 171.277C189.98 171.261 189.947 171.261 189.915 171.277L189.69 171.39C189.674 171.406 189.658 171.422 189.69 171.438L189.899 171.583C189.915 171.599 189.947 171.599 189.98 171.583L190.205 171.47C190.221 171.454 190.221 171.438 190.205 171.422Z" fill="#8AA8FF"/>
<path d="M190.689 171.728L190.48 171.583C190.464 171.567 190.432 171.567 190.4 171.583L190.174 171.696C190.158 171.712 190.142 171.728 190.174 171.744L190.383 171.889C190.4 171.905 190.432 171.905 190.464 171.889L190.689 171.776C190.705 171.76 190.705 171.744 190.689 171.728Z" fill="#8AA8FF"/>
<path d="M191.014 171.937L190.805 171.793C190.789 171.776 190.757 171.776 190.725 171.793L190.5 171.905C190.483 171.921 190.467 171.937 190.5 171.953L190.709 172.098C190.725 172.114 190.757 172.114 190.789 172.098L191.014 171.986C191.03 171.97 191.03 171.953 191.014 171.937Z" fill="#8AA8FF"/>
<path d="M191.335 172.146L191.125 172.002C191.109 171.985 191.077 171.985 191.045 172.002L190.82 172.114C190.804 172.13 190.788 172.146 190.82 172.162L191.029 172.307C191.045 172.323 191.077 172.323 191.109 172.307L191.335 172.195C191.351 172.179 191.351 172.162 191.335 172.146Z" fill="#8AA8FF"/>
<path d="M191.657 172.356L191.448 172.212C191.432 172.195 191.399 172.195 191.367 172.212L191.142 172.324C191.126 172.34 191.11 172.356 191.142 172.372L191.351 172.517C191.367 172.533 191.399 172.533 191.432 172.517L191.657 172.405C191.673 172.389 191.673 172.372 191.657 172.356Z" fill="#8AA8FF"/>
<path d="M191.982 172.565L191.772 172.421C191.756 172.404 191.724 172.404 191.692 172.421L191.467 172.533C191.451 172.549 191.435 172.565 191.467 172.581L191.676 172.726C191.692 172.742 191.724 172.742 191.756 172.726L191.982 172.614C191.998 172.597 191.998 172.581 191.982 172.565Z" fill="#8AA8FF"/>
<path d="M192.302 172.79L192.093 172.645C192.077 172.629 192.045 172.629 192.012 172.645L191.787 172.758C191.771 172.774 191.755 172.79 191.787 172.806L191.996 172.951C192.012 172.967 192.045 172.967 192.077 172.951L192.302 172.838C192.318 172.806 192.334 172.79 192.302 172.79Z" fill="#8AA8FF"/>
<path d="M192.781 173.094L192.572 172.95C192.556 172.933 192.524 172.933 192.491 172.95L192.266 173.062C192.25 173.078 192.234 173.094 192.266 173.11L192.475 173.255C192.491 173.271 192.524 173.271 192.556 173.255L192.781 173.143C192.797 173.127 192.797 173.11 192.781 173.094Z" fill="#8AA8FF"/>
<path d="M193.104 173.304L192.895 173.159C192.878 173.143 192.846 173.143 192.814 173.159L192.589 173.271C192.573 173.287 192.557 173.304 192.589 173.32L192.798 173.464C192.814 173.481 192.846 173.481 192.878 173.464L193.104 173.352C193.12 173.336 193.12 173.32 193.104 173.304Z" fill="#8AA8FF"/>
<path d="M193.424 173.512L193.215 173.368C193.199 173.351 193.167 173.351 193.134 173.368L192.909 173.48C192.893 173.496 192.877 173.512 192.909 173.528L193.118 173.673C193.134 173.689 193.167 173.689 193.199 173.673L193.424 173.561C193.44 173.544 193.44 173.528 193.424 173.512Z" fill="#8AA8FF"/>
<path d="M193.747 173.722L193.538 173.577C193.522 173.561 193.489 173.561 193.457 173.577L193.232 173.69C193.216 173.706 193.2 173.722 193.232 173.738L193.441 173.883C193.457 173.899 193.489 173.899 193.522 173.883L193.747 173.771C193.763 173.754 193.763 173.738 193.747 173.722Z" fill="#8AA8FF"/>
<path d="M194.071 173.931L193.862 173.786C193.846 173.77 193.814 173.77 193.781 173.786L193.556 173.899C193.54 173.915 193.524 173.931 193.556 173.947L193.765 174.092C193.781 174.108 193.814 174.108 193.846 174.092L194.071 173.98C194.087 173.963 194.103 173.947 194.071 173.931Z" fill="#8AA8FF"/>
<path d="M194.409 174.14L194.2 173.995C194.184 173.979 194.152 173.979 194.12 173.995L193.895 174.108C193.878 174.124 193.862 174.14 193.895 174.156L194.104 174.301C194.12 174.317 194.152 174.317 194.184 174.301L194.409 174.189C194.425 174.172 194.425 174.156 194.409 174.14Z" fill="#8AA8FF"/>
<path d="M194.807 174.415L194.598 174.27C194.582 174.254 194.549 174.254 194.517 174.27L194.292 174.382C194.276 174.399 194.26 174.415 194.292 174.431L194.501 174.576C194.517 174.592 194.549 174.592 194.582 174.576L194.807 174.463C194.823 174.447 194.823 174.431 194.807 174.415Z" fill="#8AA8FF"/>
<path d="M195.13 174.624L194.921 174.479C194.905 174.463 194.873 174.463 194.84 174.479L194.615 174.592C194.599 174.608 194.583 174.624 194.615 174.64L194.824 174.785C194.84 174.801 194.873 174.801 194.905 174.785L195.13 174.672C195.146 174.656 195.146 174.64 195.13 174.624Z" fill="#8AA8FF"/>
<path d="M195.45 174.833L195.241 174.688C195.225 174.672 195.193 174.672 195.161 174.688L194.936 174.801C194.919 174.817 194.903 174.833 194.936 174.849L195.145 174.994C195.161 175.01 195.193 175.01 195.225 174.994L195.45 174.881C195.466 174.865 195.466 174.849 195.45 174.833Z" fill="#8AA8FF"/>
<path d="M195.773 175.043L195.563 174.898C195.547 174.882 195.515 174.882 195.483 174.898L195.258 175.011C195.242 175.027 195.226 175.043 195.258 175.059L195.467 175.204C195.483 175.22 195.515 175.22 195.547 175.204L195.773 175.091C195.789 175.075 195.805 175.059 195.773 175.043Z" fill="#8AA8FF"/>
<path d="M190.718 169.363L190.943 169.251C190.959 169.234 190.975 169.218 190.943 169.202L190.734 169.057C190.718 169.041 190.686 169.041 190.653 169.057L190.428 169.17C190.412 169.186 190.396 169.202 190.428 169.218L190.637 169.363C190.653 169.379 190.686 169.379 190.718 169.363Z" fill="#8AA8FF"/>
<path d="M190.366 169.539L190.591 169.427C190.607 169.41 190.623 169.394 190.591 169.378L190.382 169.234C190.366 169.217 190.334 169.217 190.301 169.234L190.076 169.346C190.06 169.362 190.044 169.378 190.076 169.394L190.285 169.539C190.318 169.539 190.35 169.539 190.366 169.539Z" fill="#8AA8FF"/>
<path d="M190.027 169.717L190.253 169.605C190.269 169.589 190.285 169.573 190.253 169.557L190.043 169.412C190.027 169.396 189.995 169.396 189.963 169.412L189.738 169.524C189.722 169.54 189.706 169.557 189.738 169.573L189.947 169.717C189.963 169.717 190.011 169.717 190.027 169.717Z" fill="#8AA8FF"/>
<path d="M189.673 169.894L189.899 169.782C189.915 169.766 189.931 169.75 189.899 169.733L189.689 169.589C189.673 169.573 189.641 169.573 189.609 169.589L189.384 169.701C189.368 169.717 189.352 169.734 189.384 169.75L189.593 169.894C189.625 169.894 189.657 169.894 189.673 169.894Z" fill="#8AA8FF"/>
<path d="M189.337 170.055L189.562 169.942C189.578 169.926 189.594 169.91 189.562 169.894L189.353 169.749C189.337 169.733 189.305 169.733 189.273 169.749L189.047 169.861C189.031 169.878 189.015 169.894 189.047 169.91L189.257 170.055C189.289 170.071 189.321 170.071 189.337 170.055Z" fill="#8AA8FF"/>
<path d="M188.999 170.231L189.224 170.118C189.24 170.102 189.256 170.086 189.224 170.07L189.015 169.925C188.999 169.909 188.966 169.909 188.934 169.925L188.709 170.038C188.693 170.054 188.677 170.07 188.709 170.086L188.918 170.231C188.934 170.247 188.966 170.247 188.999 170.231Z" fill="#8AA8FF"/>
<path d="M191.043 169.573L191.268 169.46C191.284 169.444 191.3 169.428 191.268 169.412L191.059 169.267C191.043 169.251 191.01 169.251 190.978 169.267L190.753 169.38C190.737 169.396 190.721 169.412 190.753 169.428L190.962 169.573C190.978 169.589 191.01 169.589 191.043 169.573Z" fill="#8AA8FF"/>
<path d="M190.69 169.749L190.916 169.637C190.932 169.62 190.948 169.604 190.916 169.588L190.707 169.443C190.69 169.427 190.658 169.427 190.626 169.443L190.401 169.556C190.385 169.572 190.369 169.588 190.401 169.604L190.61 169.749C190.642 169.765 190.674 169.765 190.69 169.749Z" fill="#8AA8FF"/>
<path d="M190.352 169.927L190.577 169.815C190.593 169.799 190.61 169.783 190.577 169.766L190.368 169.622C190.352 169.606 190.32 169.606 190.288 169.622L190.063 169.734C190.046 169.75 190.03 169.766 190.063 169.783L190.272 169.927C190.304 169.927 190.336 169.927 190.352 169.927Z" fill="#8AA8FF"/>
<path d="M190.018 170.104L190.243 169.992C190.259 169.976 190.275 169.96 190.243 169.943L190.034 169.799C190.018 169.783 189.985 169.783 189.953 169.799L189.728 169.911C189.712 169.927 189.696 169.943 189.728 169.96L189.937 170.104C189.953 170.104 189.985 170.104 190.018 170.104Z" fill="#8AA8FF"/>
<path d="M189.66 170.281L189.885 170.168C189.901 170.152 189.917 170.136 189.885 170.12L189.676 169.975C189.66 169.959 189.628 169.959 189.595 169.975L189.37 170.088C189.354 170.104 189.338 170.12 189.37 170.136L189.579 170.281C189.611 170.281 189.644 170.281 189.66 170.281Z" fill="#8AA8FF"/>
<path d="M189.323 170.441L189.549 170.328C189.565 170.312 189.581 170.296 189.549 170.28L189.339 170.135C189.323 170.119 189.291 170.119 189.259 170.135L189.034 170.248C189.018 170.264 189.002 170.28 189.034 170.296L189.243 170.441C189.259 170.457 189.291 170.457 189.323 170.441Z" fill="#8AA8FF"/>
<path d="M191.361 169.782L191.586 169.669C191.602 169.653 191.618 169.637 191.586 169.621L191.377 169.476C191.361 169.46 191.329 169.46 191.297 169.476L191.071 169.589C191.055 169.605 191.039 169.621 191.071 169.637L191.28 169.782C191.313 169.798 191.345 169.798 191.361 169.782Z" fill="#8AA8FF"/>
<path d="M191.024 169.958L191.25 169.846C191.266 169.829 191.282 169.813 191.25 169.797L191.041 169.652C191.024 169.636 190.992 169.636 190.96 169.652L190.735 169.765C190.719 169.781 190.703 169.797 190.735 169.813L190.944 169.958C190.96 169.974 190.992 169.974 191.024 169.958Z" fill="#8AA8FF"/>
<path d="M190.67 170.137L190.896 170.025C190.912 170.009 190.928 169.993 190.896 169.976L190.687 169.832C190.67 169.816 190.638 169.816 190.606 169.832L190.381 169.944C190.365 169.96 190.349 169.976 190.381 169.993L190.59 170.137C190.622 170.153 190.654 170.153 190.67 170.137Z" fill="#8AA8FF"/>
<path d="M190.336 170.313L190.561 170.201C190.577 170.185 190.593 170.169 190.561 170.152L190.352 170.008C190.336 169.992 190.304 169.992 190.272 170.008L190.046 170.12C190.03 170.136 190.014 170.152 190.046 170.169L190.256 170.313C190.272 170.313 190.304 170.313 190.336 170.313Z" fill="#8AA8FF"/>
<path d="M189.98 170.49L190.205 170.377C190.221 170.361 190.237 170.345 190.205 170.329L189.996 170.184C189.98 170.168 189.948 170.168 189.916 170.184L189.69 170.297C189.674 170.313 189.658 170.329 189.69 170.345L189.9 170.49C189.932 170.49 189.964 170.49 189.98 170.49Z" fill="#8AA8FF"/>
<path d="M189.642 170.667L189.867 170.554C189.883 170.538 189.899 170.522 189.867 170.506L189.658 170.361C189.642 170.345 189.609 170.345 189.577 170.361L189.352 170.474C189.336 170.49 189.32 170.506 189.352 170.522L189.561 170.667C189.577 170.667 189.626 170.667 189.642 170.667Z" fill="#8AA8FF"/>
<path d="M191.683 169.991L191.908 169.878C191.924 169.862 191.941 169.846 191.908 169.83L191.699 169.685C191.683 169.669 191.651 169.669 191.619 169.685L191.394 169.798C191.377 169.814 191.361 169.83 191.394 169.846L191.603 169.991C191.635 170.007 191.667 170.007 191.683 169.991Z" fill="#8AA8FF"/>
<path d="M191.347 170.167L191.572 170.054C191.588 170.038 191.604 170.022 191.572 170.006L191.363 169.861C191.347 169.845 191.315 169.845 191.282 169.861L191.057 169.974C191.041 169.99 191.025 170.006 191.057 170.022L191.266 170.167C191.282 170.183 191.315 170.183 191.347 170.167Z" fill="#8AA8FF"/>
<path d="M190.993 170.345L191.218 170.232C191.234 170.216 191.25 170.2 191.218 170.184L191.009 170.039C190.993 170.023 190.961 170.023 190.928 170.039L190.703 170.152C190.687 170.168 190.671 170.184 190.703 170.2L190.912 170.345C190.944 170.361 190.977 170.361 190.993 170.345Z" fill="#8AA8FF"/>
<path d="M190.658 170.522L190.883 170.409C190.9 170.393 190.916 170.377 190.883 170.361L190.674 170.216C190.658 170.2 190.626 170.2 190.594 170.216L190.369 170.329C190.353 170.345 190.336 170.361 190.369 170.377L190.578 170.522C190.594 170.538 190.626 170.538 190.658 170.522Z" fill="#8AA8FF"/>
<path d="M190.302 170.698L190.528 170.586C190.544 170.57 190.56 170.554 190.528 170.537L190.318 170.393C190.302 170.377 190.27 170.377 190.238 170.393L190.013 170.505C189.997 170.521 189.981 170.537 190.013 170.554L190.222 170.698C190.254 170.698 190.286 170.698 190.302 170.698Z" fill="#8AA8FF"/>
<path d="M189.964 170.875L190.189 170.763C190.205 170.747 190.221 170.731 190.189 170.714L189.98 170.57C189.964 170.554 189.932 170.554 189.9 170.57L189.674 170.682C189.658 170.698 189.642 170.714 189.674 170.731L189.883 170.875C189.916 170.875 189.948 170.875 189.964 170.875Z" fill="#8AA8FF"/>
<path d="M192.006 170.201L192.231 170.088C192.247 170.072 192.263 170.056 192.231 170.04L192.022 169.895C192.006 169.879 191.974 169.879 191.942 169.895L191.716 170.008C191.7 170.024 191.684 170.04 191.716 170.056L191.925 170.201C191.958 170.217 191.99 170.217 192.006 170.201Z" fill="#8AA8FF"/>
<path d="M191.669 170.377L191.895 170.264C191.911 170.248 191.927 170.232 191.895 170.216L191.686 170.071C191.669 170.055 191.637 170.055 191.605 170.071L191.38 170.184C191.364 170.2 191.348 170.216 191.38 170.232L191.589 170.377C191.605 170.393 191.637 170.393 191.669 170.377Z" fill="#8AA8FF"/>
<path d="M191.315 170.555L191.541 170.442C191.557 170.426 191.573 170.41 191.541 170.394L191.332 170.249C191.315 170.233 191.283 170.233 191.251 170.249L191.026 170.362C191.01 170.378 190.994 170.394 191.026 170.41L191.235 170.555C191.267 170.571 191.299 170.571 191.315 170.555Z" fill="#8AA8FF"/>
<path d="M190.981 170.732L191.206 170.619C191.222 170.603 191.238 170.587 191.206 170.571L190.997 170.426C190.981 170.41 190.949 170.41 190.917 170.426L190.691 170.539C190.675 170.555 190.659 170.571 190.691 170.587L190.901 170.732C190.933 170.748 190.965 170.748 190.981 170.732Z" fill="#8AA8FF"/>
<path d="M190.639 170.908L190.864 170.796C190.88 170.78 190.896 170.764 190.864 170.747L190.655 170.603C190.639 170.587 190.607 170.587 190.574 170.603L190.349 170.715C190.333 170.731 190.317 170.747 190.349 170.764L190.558 170.908C190.574 170.924 190.607 170.924 190.639 170.908Z" fill="#8AA8FF"/>
<path d="M190.287 171.085L190.512 170.973C190.528 170.957 190.544 170.941 190.512 170.924L190.303 170.78C190.287 170.764 190.254 170.764 190.222 170.78L189.997 170.892C189.981 170.908 189.965 170.924 189.997 170.941L190.206 171.085C190.238 171.085 190.271 171.085 190.287 171.085Z" fill="#8AA8FF"/>
<path d="M192.324 170.425L192.549 170.312C192.566 170.296 192.582 170.28 192.549 170.264L192.34 170.119C192.324 170.103 192.292 170.103 192.26 170.119L192.035 170.232C192.019 170.248 192.003 170.264 192.035 170.28L192.244 170.425C192.276 170.425 192.308 170.425 192.324 170.425Z" fill="#8AA8FF"/>
<path d="M191.988 170.586L192.213 170.473C192.229 170.457 192.245 170.441 192.213 170.425L192.004 170.28C191.988 170.264 191.956 170.264 191.923 170.28L191.698 170.393C191.682 170.409 191.666 170.425 191.698 170.441L191.907 170.586C191.94 170.602 191.972 170.602 191.988 170.586Z" fill="#8AA8FF"/>
<path d="M191.652 170.762L191.877 170.65C191.893 170.634 191.909 170.618 191.877 170.601L191.668 170.457C191.652 170.441 191.62 170.441 191.588 170.457L191.362 170.569C191.346 170.585 191.33 170.601 191.362 170.618L191.571 170.762C191.588 170.778 191.62 170.778 191.652 170.762Z" fill="#8AA8FF"/>
<path d="M191.299 170.939L191.525 170.827C191.541 170.811 191.557 170.795 191.525 170.778L191.315 170.634C191.299 170.618 191.267 170.618 191.235 170.634L191.01 170.746C190.994 170.762 190.978 170.778 191.01 170.795L191.219 170.939C191.251 170.955 191.283 170.955 191.299 170.939Z" fill="#8AA8FF"/>
<path d="M190.957 171.116L191.182 171.004C191.198 170.988 191.214 170.972 191.182 170.955L190.973 170.811C190.957 170.795 190.925 170.795 190.893 170.811L190.668 170.923C190.651 170.939 190.635 170.955 190.668 170.972L190.877 171.116C190.893 171.132 190.925 171.132 190.957 171.116Z" fill="#8AA8FF"/>
<path d="M190.605 171.293L190.83 171.18C190.846 171.164 190.862 171.148 190.83 171.132L190.621 170.987C190.605 170.971 190.573 170.971 190.541 170.987L190.315 171.1C190.299 171.116 190.283 171.132 190.315 171.148L190.525 171.293C190.557 171.309 190.589 171.309 190.605 171.293Z" fill="#8AA8FF"/>
<path d="M192.31 170.795L192.535 170.682C192.551 170.666 192.567 170.65 192.535 170.634L192.326 170.489C192.31 170.473 192.278 170.473 192.246 170.489L192.021 170.602C192.004 170.618 191.988 170.634 192.021 170.65L192.23 170.795C192.262 170.811 192.294 170.811 192.31 170.795Z" fill="#8AA8FF"/>
<path d="M191.974 170.971L192.199 170.858C192.215 170.842 192.232 170.826 192.199 170.81L191.99 170.665C191.974 170.649 191.942 170.649 191.91 170.665L191.685 170.778C191.669 170.794 191.652 170.81 191.685 170.826L191.894 170.971C191.91 170.987 191.942 170.987 191.974 170.971Z" fill="#8AA8FF"/>
<path d="M191.622 171.149L191.847 171.037C191.863 171.021 191.879 171.004 191.847 170.988L191.638 170.844C191.622 170.828 191.589 170.828 191.557 170.844L191.332 170.956C191.316 170.972 191.3 170.988 191.332 171.004L191.541 171.149C191.573 171.165 191.606 171.165 191.622 171.149Z" fill="#8AA8FF"/>
<path d="M191.279 171.326L191.505 171.214C191.521 171.198 191.537 171.181 191.505 171.165L191.295 171.021C191.279 171.005 191.247 171.005 191.215 171.021L190.99 171.133C190.974 171.149 190.958 171.165 190.99 171.181L191.199 171.326C191.215 171.342 191.247 171.342 191.279 171.326Z" fill="#8AA8FF"/>
<path d="M190.927 171.503L191.153 171.39C191.169 171.374 191.185 171.358 191.153 171.342L190.943 171.197C190.927 171.181 190.895 171.181 190.863 171.197L190.638 171.309C190.622 171.326 190.606 171.342 190.638 171.358L190.847 171.503C190.879 171.519 190.911 171.519 190.927 171.503Z" fill="#8AA8FF"/>
<path d="M192.633 171.021L192.858 170.909C192.874 170.893 192.89 170.877 192.858 170.86L192.649 170.716C192.633 170.7 192.601 170.7 192.568 170.716L192.343 170.828C192.327 170.844 192.311 170.86 192.343 170.877L192.552 171.021C192.585 171.021 192.617 171.021 192.633 171.021Z" fill="#8AA8FF"/>
<path d="M192.297 171.182L192.522 171.07C192.538 171.054 192.554 171.038 192.522 171.022L192.313 170.877C192.297 170.861 192.265 170.861 192.233 170.877L192.007 170.989C191.991 171.006 191.975 171.022 192.007 171.038L192.216 171.182C192.233 171.199 192.265 171.199 192.297 171.182Z" fill="#8AA8FF"/>
<path d="M191.944 171.359L192.17 171.246C192.186 171.23 192.202 171.214 192.17 171.198L191.96 171.053C191.944 171.037 191.912 171.037 191.88 171.053L191.655 171.166C191.639 171.182 191.623 171.198 191.655 171.214L191.864 171.359C191.896 171.375 191.928 171.375 191.944 171.359Z" fill="#8AA8FF"/>
<path d="M191.602 171.536L191.827 171.423C191.843 171.407 191.859 171.391 191.827 171.375L191.618 171.23C191.602 171.214 191.57 171.214 191.538 171.23L191.313 171.343C191.296 171.359 191.28 171.375 191.313 171.391L191.522 171.536C191.554 171.552 191.586 171.552 191.602 171.536Z" fill="#8AA8FF"/>
<path d="M191.25 171.713L191.475 171.6C191.491 171.584 191.507 171.568 191.475 171.552L191.266 171.407C191.25 171.391 191.218 171.391 191.186 171.407L190.96 171.52C190.944 171.536 190.928 171.552 190.96 171.568L191.17 171.713C191.202 171.729 191.234 171.729 191.25 171.713Z" fill="#8AA8FF"/>
<path d="M192.958 171.213L193.183 171.1C193.199 171.084 193.215 171.068 193.183 171.052L192.974 170.907C192.958 170.891 192.926 170.891 192.894 170.907L192.668 171.02C192.652 171.036 192.636 171.052 192.668 171.068L192.878 171.213C192.91 171.229 192.942 171.229 192.958 171.213Z" fill="#8AA8FF"/>
<path d="M192.62 171.389L192.845 171.276C192.861 171.26 192.877 171.244 192.845 171.228L192.636 171.083C192.62 171.067 192.588 171.067 192.555 171.083L192.33 171.196C192.314 171.212 192.298 171.228 192.33 171.244L192.539 171.389C192.571 171.405 192.604 171.405 192.62 171.389Z" fill="#8AA8FF"/>
<path d="M192.285 171.567L192.51 171.455C192.527 171.439 192.543 171.422 192.51 171.406L192.301 171.262C192.285 171.245 192.253 171.245 192.221 171.262L191.996 171.374C191.98 171.39 191.963 171.406 191.996 171.422L192.205 171.567C192.221 171.567 192.253 171.567 192.285 171.567Z" fill="#8AA8FF"/>
<path d="M191.929 171.744L192.154 171.632C192.171 171.616 192.187 171.599 192.154 171.583L191.945 171.439C191.929 171.422 191.897 171.422 191.865 171.439L191.64 171.551C191.624 171.567 191.607 171.583 191.64 171.599L191.849 171.744C191.881 171.744 191.913 171.744 191.929 171.744Z" fill="#8AA8FF"/>
<path d="M191.591 171.904L191.816 171.792C191.832 171.776 191.848 171.76 191.816 171.744L191.607 171.599C191.591 171.583 191.559 171.583 191.526 171.599L191.301 171.711C191.285 171.727 191.269 171.744 191.301 171.76L191.51 171.904C191.527 171.92 191.559 171.92 191.591 171.904Z" fill="#8AA8FF"/>
<path d="M193.28 171.422L193.506 171.309C193.522 171.293 193.538 171.277 193.506 171.261L193.296 171.116C193.28 171.1 193.248 171.1 193.216 171.116L192.991 171.229C192.975 171.245 192.959 171.261 192.991 171.277L193.2 171.422C193.232 171.438 193.264 171.438 193.28 171.422Z" fill="#8AA8FF"/>
<path d="M192.942 171.598L193.167 171.485C193.183 171.469 193.199 171.453 193.167 171.437L192.958 171.292C192.942 171.276 192.91 171.276 192.878 171.292L192.652 171.405C192.636 171.421 192.62 171.437 192.652 171.453L192.862 171.598C192.894 171.614 192.926 171.614 192.942 171.598Z" fill="#8AA8FF"/>
<path d="M192.607 171.776L192.833 171.663C192.849 171.647 192.865 171.631 192.833 171.615L192.624 171.47C192.607 171.454 192.575 171.454 192.543 171.47L192.318 171.583C192.302 171.599 192.286 171.615 192.318 171.631L192.527 171.776C192.543 171.792 192.575 171.792 192.607 171.776Z" fill="#8AA8FF"/>
<path d="M192.251 171.953L192.477 171.84C192.493 171.824 192.509 171.808 192.477 171.792L192.268 171.647C192.252 171.631 192.219 171.631 192.187 171.647L191.962 171.76C191.946 171.776 191.93 171.792 191.962 171.808L192.171 171.953C192.203 171.953 192.235 171.953 192.251 171.953Z" fill="#8AA8FF"/>
<path d="M191.913 172.129L192.138 172.017C192.154 172.001 192.171 171.984 192.138 171.968L191.929 171.824C191.913 171.808 191.881 171.808 191.849 171.824L191.624 171.936C191.607 171.952 191.591 171.968 191.624 171.984L191.833 172.129C191.849 172.129 191.881 172.129 191.913 172.129Z" fill="#8AA8FF"/>
<path d="M193.616 171.633L193.841 171.52C193.858 171.504 193.874 171.488 193.841 171.472L193.632 171.327C193.616 171.311 193.584 171.311 193.552 171.327L193.327 171.44C193.311 171.456 193.295 171.472 193.327 171.488L193.536 171.633C193.552 171.649 193.584 171.649 193.616 171.633Z" fill="#8AA8FF"/>
<path d="M193.262 171.809L193.487 171.696C193.504 171.68 193.52 171.664 193.487 171.648L193.278 171.503C193.262 171.487 193.23 171.487 193.198 171.503L192.973 171.616C192.957 171.632 192.941 171.648 192.973 171.664L193.182 171.809C193.214 171.825 193.246 171.825 193.262 171.809Z" fill="#8AA8FF"/>
<path d="M192.928 171.988L193.153 171.875C193.169 171.859 193.185 171.843 193.153 171.827L192.944 171.682C192.928 171.666 192.896 171.666 192.863 171.682L192.638 171.795C192.622 171.811 192.606 171.827 192.638 171.843L192.847 171.988C192.863 172.004 192.896 172.004 192.928 171.988Z" fill="#8AA8FF"/>
<path d="M192.572 172.164L192.797 172.051C192.813 172.035 192.829 172.019 192.797 172.003L192.588 171.858C192.572 171.842 192.54 171.842 192.507 171.858L192.282 171.971C192.266 171.987 192.25 172.003 192.282 172.019L192.491 172.164C192.524 172.18 192.556 172.18 192.572 172.164Z" fill="#8AA8FF"/>
<path d="M192.233 172.34L192.459 172.228C192.475 172.211 192.491 172.195 192.459 172.179L192.25 172.035C192.233 172.018 192.201 172.018 192.169 172.035L191.944 172.147C191.928 172.163 191.912 172.179 191.944 172.195L192.153 172.34C192.185 172.34 192.217 172.34 192.233 172.34Z" fill="#8AA8FF"/>
<path d="M193.939 171.842L194.164 171.729C194.18 171.713 194.196 171.697 194.164 171.681L193.955 171.536C193.939 171.52 193.907 171.52 193.875 171.536L193.649 171.649C193.633 171.665 193.617 171.681 193.649 171.697L193.859 171.842C193.875 171.858 193.907 171.858 193.939 171.842Z" fill="#8AA8FF"/>
<path d="M193.585 172.018L193.81 171.905C193.826 171.889 193.842 171.873 193.81 171.857L193.601 171.712C193.585 171.696 193.553 171.696 193.521 171.712L193.295 171.825C193.279 171.841 193.263 171.857 193.295 171.873L193.505 172.018C193.537 172.034 193.569 172.034 193.585 172.018Z" fill="#8AA8FF"/>
<path d="M193.251 172.196L193.476 172.083C193.492 172.067 193.508 172.051 193.476 172.035L193.267 171.89C193.251 171.874 193.218 171.874 193.186 171.89L192.961 172.003C192.945 172.019 192.929 172.035 192.961 172.051L193.17 172.196C193.186 172.212 193.218 172.212 193.251 172.196Z" fill="#8AA8FF"/>
<path d="M192.895 172.373L193.12 172.26C193.136 172.244 193.152 172.228 193.12 172.212L192.911 172.067C192.895 172.051 192.862 172.051 192.83 172.067L192.605 172.18C192.589 172.196 192.573 172.212 192.605 172.228L192.814 172.373C192.846 172.389 192.878 172.389 192.895 172.373Z" fill="#8AA8FF"/>
<path d="M192.556 172.549L192.781 172.437C192.797 172.42 192.814 172.404 192.781 172.388L192.572 172.244C192.556 172.227 192.524 172.227 192.492 172.244L192.267 172.356C192.251 172.372 192.234 172.388 192.267 172.404L192.476 172.549C192.508 172.549 192.54 172.565 192.556 172.549Z" fill="#8AA8FF"/>
<path d="M194.261 172.05L194.486 171.937C194.503 171.921 194.519 171.905 194.486 171.889L194.277 171.744C194.261 171.728 194.229 171.728 194.197 171.744L193.972 171.857C193.956 171.873 193.94 171.889 193.972 171.905L194.181 172.05C194.197 172.066 194.229 172.066 194.261 172.05Z" fill="#8AA8FF"/>
<path d="M193.907 172.226L194.133 172.113C194.149 172.097 194.165 172.081 194.133 172.065L193.923 171.92C193.907 171.904 193.875 171.904 193.843 171.92L193.618 172.033C193.602 172.049 193.586 172.065 193.618 172.081L193.827 172.226C193.859 172.242 193.891 172.242 193.907 172.226Z" fill="#8AA8FF"/>
<path d="M193.573 172.404L193.798 172.291C193.814 172.275 193.83 172.259 193.798 172.243L193.589 172.098C193.573 172.082 193.541 172.082 193.508 172.098L193.283 172.211C193.267 172.227 193.251 172.243 193.283 172.259L193.492 172.404C193.525 172.42 193.557 172.42 193.573 172.404Z" fill="#8AA8FF"/>
<path d="M193.231 172.581L193.456 172.468C193.472 172.452 193.488 172.436 193.456 172.42L193.247 172.275C193.231 172.259 193.198 172.259 193.166 172.275L192.941 172.388C192.925 172.404 192.909 172.42 192.941 172.436L193.15 172.581C193.166 172.597 193.198 172.597 193.231 172.581Z" fill="#8AA8FF"/>
<path d="M192.878 172.757L193.104 172.645C193.12 172.628 193.136 172.612 193.104 172.596L192.895 172.452C192.878 172.435 192.846 172.435 192.814 172.452L192.589 172.564C192.573 172.58 192.557 172.596 192.589 172.612L192.798 172.757C192.83 172.773 192.862 172.773 192.878 172.757Z" fill="#8AA8FF"/>
<path d="M194.582 172.275L194.807 172.162C194.823 172.146 194.839 172.13 194.807 172.114L194.598 171.969C194.582 171.953 194.55 171.953 194.518 171.969L194.293 172.082C194.276 172.098 194.26 172.114 194.293 172.13L194.502 172.275C194.534 172.275 194.566 172.275 194.582 172.275Z" fill="#8AA8FF"/>
<path d="M194.246 172.436L194.471 172.323C194.487 172.307 194.504 172.291 194.471 172.275L194.262 172.13C194.246 172.114 194.214 172.114 194.182 172.13L193.957 172.243C193.94 172.259 193.924 172.275 193.957 172.291L194.166 172.436C194.182 172.452 194.214 172.452 194.246 172.436Z" fill="#8AA8FF"/>
<path d="M193.894 172.612L194.119 172.5C194.135 172.483 194.151 172.467 194.119 172.451L193.91 172.306C193.894 172.29 193.861 172.29 193.829 172.306L193.604 172.419C193.588 172.435 193.572 172.451 193.604 172.467L193.813 172.612C193.845 172.628 193.878 172.628 193.894 172.612Z" fill="#8AA8FF"/>
<path d="M193.551 172.789L193.777 172.677C193.793 172.66 193.809 172.644 193.777 172.628L193.567 172.484C193.551 172.467 193.519 172.467 193.487 172.484L193.262 172.596C193.246 172.612 193.23 172.628 193.262 172.644L193.471 172.789C193.487 172.805 193.519 172.805 193.551 172.789Z" fill="#8AA8FF"/>
<path d="M193.199 172.966L193.424 172.854C193.441 172.837 193.457 172.821 193.424 172.805L193.215 172.661C193.199 172.644 193.167 172.644 193.135 172.661L192.91 172.773C192.894 172.789 192.878 172.805 192.91 172.821L193.119 172.966C193.151 172.982 193.183 172.982 193.199 172.966Z" fill="#8AA8FF"/>
<path d="M194.904 172.485L195.13 172.372C195.146 172.356 195.162 172.34 195.13 172.324L194.92 172.179C194.904 172.163 194.872 172.163 194.84 172.179L194.615 172.292C194.599 172.308 194.583 172.324 194.615 172.34L194.824 172.485C194.856 172.485 194.888 172.485 194.904 172.485Z" fill="#8AA8FF"/>
<path d="M194.568 172.661L194.794 172.548C194.81 172.532 194.826 172.516 194.794 172.5L194.584 172.355C194.568 172.339 194.536 172.339 194.504 172.355L194.279 172.468C194.263 172.484 194.247 172.5 194.279 172.516L194.488 172.661C194.504 172.661 194.536 172.661 194.568 172.661Z" fill="#8AA8FF"/>
<path d="M194.216 172.822L194.441 172.709C194.457 172.693 194.473 172.677 194.441 172.661L194.232 172.516C194.216 172.5 194.184 172.5 194.152 172.516L193.926 172.629C193.91 172.645 193.894 172.661 193.926 172.677L194.135 172.822C194.168 172.838 194.2 172.838 194.216 172.822Z" fill="#8AA8FF"/>
<path d="M193.874 172.999L194.099 172.887C194.115 172.87 194.131 172.854 194.099 172.838L193.89 172.693C193.874 172.677 193.841 172.677 193.809 172.693L193.584 172.806C193.568 172.822 193.552 172.838 193.584 172.854L193.793 172.999C193.809 173.015 193.841 173.015 193.874 172.999Z" fill="#8AA8FF"/>
<path d="M193.522 173.176L193.747 173.064C193.763 173.047 193.779 173.031 193.747 173.015L193.538 172.87C193.522 172.854 193.489 172.854 193.457 172.87L193.232 172.983C193.216 172.999 193.2 173.015 193.232 173.031L193.441 173.176C193.473 173.192 193.505 173.192 193.522 173.176Z" fill="#8AA8FF"/>
<path d="M195.224 172.692L195.449 172.58C195.465 172.564 195.481 172.548 195.449 172.532L195.24 172.387C195.224 172.371 195.192 172.371 195.159 172.387L194.934 172.499C194.918 172.516 194.902 172.532 194.934 172.548L195.143 172.692C195.175 172.692 195.208 172.709 195.224 172.692Z" fill="#8AA8FF"/>
<path d="M194.885 172.868L195.111 172.756C195.127 172.74 195.143 172.724 195.111 172.708L194.901 172.563C194.885 172.547 194.853 172.547 194.821 172.563L194.596 172.675C194.58 172.692 194.564 172.708 194.596 172.724L194.805 172.868C194.821 172.868 194.853 172.868 194.885 172.868Z" fill="#8AA8FF"/>
<path d="M194.531 173.047L194.757 172.934C194.773 172.918 194.789 172.902 194.757 172.886L194.547 172.741C194.531 172.725 194.499 172.725 194.467 172.741L194.242 172.854C194.226 172.87 194.21 172.886 194.242 172.902L194.451 173.047C194.483 173.047 194.515 173.047 194.531 173.047Z" fill="#8AA8FF"/>
<path d="M194.195 173.207L194.42 173.094C194.436 173.078 194.452 173.062 194.42 173.046L194.211 172.901C194.195 172.885 194.163 172.885 194.131 172.901L193.905 173.014C193.889 173.03 193.873 173.046 193.905 173.062L194.114 173.207C194.147 173.223 194.179 173.223 194.195 173.207Z" fill="#8AA8FF"/>
<path d="M193.856 173.384L194.082 173.271C194.098 173.255 194.114 173.239 194.082 173.223L193.873 173.078C193.856 173.062 193.824 173.062 193.792 173.078L193.567 173.191C193.551 173.207 193.535 173.223 193.567 173.239L193.776 173.384C193.792 173.4 193.824 173.4 193.856 173.384Z" fill="#8AA8FF"/>
<path d="M195.896 172.726L196.121 172.613C196.137 172.597 196.153 172.581 196.121 172.565L195.912 172.42C195.896 172.404 195.864 172.404 195.832 172.42L195.606 172.533C195.59 172.549 195.574 172.565 195.606 172.581L195.816 172.726C195.832 172.742 195.864 172.742 195.896 172.726Z" fill="#8AA8FF"/>
<path d="M195.544 172.902L195.769 172.789C195.785 172.773 195.801 172.757 195.769 172.741L195.56 172.596C195.544 172.58 195.512 172.58 195.48 172.596L195.254 172.709C195.238 172.725 195.222 172.741 195.254 172.757L195.464 172.902C195.496 172.918 195.528 172.918 195.544 172.902Z" fill="#8AA8FF"/>
<path d="M195.206 173.08L195.431 172.968C195.447 172.951 195.463 172.935 195.431 172.919L195.222 172.775C195.206 172.758 195.173 172.758 195.141 172.775L194.916 172.887C194.9 172.903 194.884 172.919 194.916 172.935L195.125 173.08C195.157 173.08 195.19 173.08 195.206 173.08Z" fill="#8AA8FF"/>
<path d="M194.852 173.257L195.077 173.145C195.093 173.128 195.109 173.112 195.077 173.096L194.868 172.952C194.852 172.935 194.819 172.935 194.787 172.952L194.562 173.064C194.546 173.08 194.53 173.096 194.562 173.112L194.771 173.257C194.803 173.257 194.836 173.257 194.852 173.257Z" fill="#8AA8FF"/>
<path d="M194.515 173.433L194.74 173.321C194.756 173.305 194.773 173.289 194.74 173.273L194.531 173.128C194.515 173.112 194.483 173.112 194.451 173.128L194.226 173.24C194.21 173.256 194.193 173.273 194.226 173.289L194.435 173.433C194.467 173.433 194.499 173.433 194.515 173.433Z" fill="#8AA8FF"/>
<path d="M194.177 173.594L194.402 173.481C194.418 173.465 194.434 173.449 194.402 173.433L194.193 173.288C194.177 173.272 194.145 173.272 194.112 173.288L193.887 173.401C193.871 173.417 193.855 173.433 193.887 173.449L194.096 173.594C194.112 173.61 194.145 173.61 194.177 173.594Z" fill="#8AA8FF"/>
<path d="M196.218 172.936L196.444 172.823C196.46 172.807 196.476 172.791 196.444 172.775L196.234 172.63C196.218 172.614 196.186 172.614 196.154 172.63L195.929 172.743C195.913 172.759 195.897 172.775 195.929 172.791L196.138 172.936C196.154 172.952 196.202 172.952 196.218 172.936Z" fill="#8AA8FF"/>
<path d="M195.866 173.112L196.091 172.999C196.108 172.983 196.124 172.967 196.091 172.951L195.882 172.806C195.866 172.79 195.834 172.79 195.802 172.806L195.577 172.919C195.561 172.935 195.545 172.951 195.577 172.967L195.786 173.112C195.818 173.128 195.85 173.128 195.866 173.112Z" fill="#8AA8FF"/>
<path d="M195.528 173.29L195.753 173.178C195.769 173.161 195.785 173.145 195.753 173.129L195.544 172.984C195.528 172.968 195.496 172.968 195.464 172.984L195.238 173.097C195.222 173.113 195.206 173.129 195.238 173.145L195.447 173.29C195.48 173.306 195.512 173.306 195.528 173.29Z" fill="#8AA8FF"/>
<path d="M195.193 173.467L195.419 173.355C195.435 173.338 195.451 173.322 195.419 173.306L195.209 173.161C195.193 173.145 195.161 173.145 195.129 173.161L194.904 173.274C194.888 173.29 194.872 173.306 194.904 173.322L195.113 173.467C195.129 173.467 195.161 173.467 195.193 173.467Z" fill="#8AA8FF"/>
<path d="M194.837 173.643L195.063 173.531C195.079 173.515 195.095 173.499 195.063 173.483L194.854 173.338C194.837 173.322 194.805 173.322 194.773 173.338L194.548 173.45C194.532 173.466 194.516 173.483 194.548 173.499L194.757 173.643C194.789 173.643 194.821 173.643 194.837 173.643Z" fill="#8AA8FF"/>
<path d="M194.499 173.82L194.724 173.708C194.74 173.692 194.756 173.676 194.724 173.66L194.515 173.515C194.499 173.499 194.467 173.499 194.435 173.515L194.209 173.627C194.193 173.643 194.177 173.66 194.209 173.676L194.419 173.82C194.435 173.82 194.467 173.82 194.499 173.82Z" fill="#8AA8FF"/>
<path d="M196.541 173.145L196.766 173.032C196.782 173.016 196.798 173 196.766 172.984L196.557 172.839C196.541 172.823 196.509 172.823 196.477 172.839L196.251 172.952C196.235 172.968 196.219 172.984 196.251 173L196.461 173.145C196.477 173.145 196.509 173.145 196.541 173.145Z" fill="#8AA8FF"/>
<path d="M196.189 173.321L196.414 173.208C196.43 173.192 196.446 173.176 196.414 173.16L196.205 173.015C196.189 172.999 196.156 172.999 196.124 173.015L195.899 173.128C195.883 173.144 195.867 173.16 195.899 173.176L196.108 173.321C196.14 173.321 196.172 173.321 196.189 173.321Z" fill="#8AA8FF"/>
<path d="M195.853 173.499L196.078 173.387C196.094 173.37 196.11 173.354 196.078 173.338L195.869 173.193C195.853 173.177 195.82 173.177 195.788 173.193L195.563 173.306C195.547 173.322 195.531 173.338 195.563 173.354L195.772 173.499C195.788 173.499 195.82 173.499 195.853 173.499Z" fill="#8AA8FF"/>
<path d="M195.5 173.659L195.725 173.547C195.741 173.531 195.757 173.514 195.725 173.498L195.516 173.354C195.5 173.338 195.468 173.338 195.436 173.354L195.21 173.466C195.194 173.482 195.178 173.498 195.21 173.514L195.42 173.659C195.452 173.675 195.484 173.675 195.5 173.659Z" fill="#8AA8FF"/>
<path d="M195.158 173.836L195.383 173.724C195.399 173.708 195.415 173.691 195.383 173.675L195.174 173.531C195.158 173.515 195.126 173.515 195.093 173.531L194.868 173.643C194.852 173.659 194.836 173.675 194.868 173.691L195.077 173.836C195.093 173.852 195.126 173.852 195.158 173.836Z" fill="#8AA8FF"/>
<path d="M194.806 174.013L195.031 173.9C195.047 173.884 195.063 173.868 195.031 173.852L194.822 173.707C194.806 173.691 194.774 173.691 194.741 173.707L194.516 173.819C194.5 173.836 194.484 173.852 194.516 173.868L194.725 174.013C194.757 174.029 194.79 174.029 194.806 174.013Z" fill="#8AA8FF"/>
<path d="M196.863 173.354L197.089 173.241C197.105 173.225 197.121 173.209 197.089 173.193L196.879 173.048C196.863 173.032 196.831 173.032 196.799 173.048L196.574 173.161C196.558 173.177 196.542 173.193 196.574 173.209L196.783 173.354C196.799 173.37 196.831 173.37 196.863 173.354Z" fill="#8AA8FF"/>
<path d="M196.511 173.53L196.736 173.417C196.753 173.401 196.769 173.385 196.736 173.369L196.527 173.224C196.511 173.208 196.479 173.208 196.447 173.224L196.222 173.337C196.206 173.353 196.19 173.369 196.222 173.385L196.431 173.53C196.463 173.53 196.495 173.53 196.511 173.53Z" fill="#8AA8FF"/>
<path d="M196.173 173.708L196.398 173.595C196.414 173.579 196.43 173.563 196.398 173.547L196.189 173.402C196.173 173.386 196.141 173.386 196.109 173.402L195.883 173.515C195.867 173.531 195.851 173.547 195.883 173.563L196.092 173.708C196.109 173.708 196.141 173.708 196.173 173.708Z" fill="#8AA8FF"/>
<path d="M195.819 173.868L196.044 173.756C196.06 173.74 196.076 173.723 196.044 173.707L195.835 173.563C195.819 173.547 195.787 173.547 195.755 173.563L195.529 173.675C195.513 173.691 195.497 173.707 195.529 173.723L195.738 173.868C195.771 173.884 195.803 173.884 195.819 173.868Z" fill="#8AA8FF"/>
<path d="M195.482 174.045L195.708 173.933C195.724 173.917 195.74 173.9 195.708 173.884L195.499 173.74C195.482 173.724 195.45 173.724 195.418 173.74L195.193 173.852C195.177 173.868 195.161 173.884 195.193 173.9L195.402 174.045C195.434 174.061 195.466 174.061 195.482 174.045Z" fill="#8AA8FF"/>
<path d="M195.144 174.222L195.369 174.109C195.385 174.093 195.401 174.077 195.369 174.061L195.16 173.916C195.144 173.9 195.112 173.9 195.08 173.916L194.855 174.028C194.838 174.045 194.822 174.061 194.855 174.077L195.064 174.222C195.08 174.238 195.112 174.238 195.144 174.222Z" fill="#8AA8FF"/>
<path d="M197.184 173.562L197.409 173.449C197.425 173.433 197.442 173.417 197.409 173.401L197.2 173.256C197.184 173.24 197.152 173.24 197.12 173.256L196.895 173.369C196.878 173.385 196.862 173.401 196.895 173.417L197.104 173.562C197.12 173.578 197.152 173.578 197.184 173.562Z" fill="#8AA8FF"/>
<path d="M196.832 173.738L197.057 173.625C197.073 173.609 197.089 173.593 197.057 173.577L196.848 173.432C196.832 173.416 196.8 173.416 196.768 173.432L196.543 173.545C196.526 173.561 196.51 173.577 196.543 173.593L196.752 173.738C196.784 173.754 196.816 173.754 196.832 173.738Z" fill="#8AA8FF"/>
<path d="M196.494 173.917L196.719 173.804C196.735 173.788 196.751 173.772 196.719 173.756L196.51 173.611C196.494 173.595 196.462 173.595 196.429 173.611L196.204 173.724C196.188 173.74 196.172 173.756 196.204 173.772L196.413 173.917C196.445 173.917 196.478 173.917 196.494 173.917Z" fill="#8AA8FF"/>
<path d="M196.159 174.093L196.384 173.98C196.401 173.964 196.417 173.948 196.384 173.932L196.175 173.787C196.159 173.771 196.127 173.771 196.095 173.787L195.87 173.9C195.854 173.916 195.837 173.932 195.87 173.948L196.079 174.093C196.095 174.093 196.127 174.093 196.159 174.093Z" fill="#8AA8FF"/>
<path d="M195.803 174.253L196.028 174.14C196.045 174.124 196.061 174.108 196.028 174.092L195.819 173.947C195.803 173.931 195.771 173.931 195.739 173.947L195.514 174.06C195.498 174.076 195.482 174.092 195.514 174.108L195.723 174.253C195.755 174.269 195.787 174.269 195.803 174.253Z" fill="#8AA8FF"/>
<path d="M195.465 174.429L195.69 174.317C195.706 174.301 195.722 174.285 195.69 174.268L195.481 174.124C195.465 174.108 195.433 174.108 195.401 174.124L195.175 174.236C195.159 174.252 195.143 174.268 195.175 174.285L195.384 174.429C195.401 174.445 195.433 174.445 195.465 174.429Z" fill="#8AA8FF"/>
<path d="M197.504 173.772L197.73 173.659C197.746 173.643 197.762 173.627 197.73 173.611L197.521 173.466C197.504 173.45 197.472 173.45 197.44 173.466L197.215 173.579C197.199 173.595 197.183 173.611 197.215 173.627L197.424 173.772C197.44 173.788 197.488 173.788 197.504 173.772Z" fill="#8AA8FF"/>
<path d="M197.152 173.948L197.378 173.835C197.394 173.819 197.41 173.803 197.378 173.787L197.168 173.642C197.152 173.626 197.12 173.626 197.088 173.642L196.863 173.755C196.847 173.771 196.831 173.787 196.863 173.803L197.072 173.948C197.104 173.964 197.136 173.964 197.152 173.948Z" fill="#8AA8FF"/>
<path d="M196.814 174.126L197.039 174.013C197.055 173.997 197.071 173.981 197.039 173.965L196.83 173.82C196.814 173.804 196.782 173.804 196.75 173.82L196.524 173.933C196.508 173.949 196.492 173.965 196.524 173.981L196.734 174.126C196.766 174.142 196.798 174.142 196.814 174.126Z" fill="#8AA8FF"/>
<path d="M196.48 174.303L196.705 174.19C196.721 174.174 196.737 174.158 196.705 174.142L196.496 173.997C196.48 173.981 196.447 173.981 196.415 173.997L196.19 174.11C196.174 174.126 196.158 174.142 196.19 174.158L196.399 174.303C196.415 174.303 196.447 174.303 196.48 174.303Z" fill="#8AA8FF"/>
<path d="M196.124 174.479L196.349 174.366C196.365 174.35 196.381 174.334 196.349 174.318L196.14 174.173C196.124 174.157 196.091 174.157 196.059 174.173L195.834 174.286C195.818 174.302 195.802 174.318 195.834 174.334L196.043 174.479C196.075 174.479 196.107 174.479 196.124 174.479Z" fill="#8AA8FF"/>
<path d="M195.785 174.639L196.01 174.527C196.026 174.511 196.043 174.494 196.01 174.478L195.801 174.334C195.785 174.318 195.753 174.318 195.721 174.334L195.496 174.446C195.48 174.462 195.463 174.478 195.496 174.494L195.705 174.639C195.721 174.655 195.753 174.655 195.785 174.639Z" fill="#8AA8FF"/>
<path d="M197.829 173.982L198.054 173.869C198.07 173.853 198.087 173.837 198.054 173.821L197.845 173.676C197.829 173.66 197.797 173.66 197.765 173.676L197.54 173.789C197.523 173.805 197.507 173.821 197.54 173.837L197.749 173.982C197.781 173.998 197.813 173.998 197.829 173.982Z" fill="#8AA8FF"/>
<path d="M197.493 174.158L197.718 174.045C197.734 174.029 197.75 174.013 197.718 173.997L197.509 173.852C197.493 173.836 197.461 173.836 197.428 173.852L197.203 173.965C197.187 173.981 197.171 173.997 197.203 174.013L197.412 174.158C197.428 174.174 197.461 174.174 197.493 174.158Z" fill="#8AA8FF"/>
<path d="M197.139 174.336L197.364 174.223C197.38 174.207 197.396 174.191 197.364 174.175L197.155 174.03C197.139 174.014 197.107 174.014 197.074 174.03L196.849 174.143C196.833 174.159 196.817 174.175 196.849 174.191L197.058 174.336C197.09 174.352 197.123 174.352 197.139 174.336Z" fill="#8AA8FF"/>
<path d="M196.804 174.513L197.029 174.4C197.046 174.384 197.062 174.368 197.029 174.352L196.82 174.207C196.804 174.191 196.772 174.191 196.74 174.207L196.515 174.32C196.499 174.336 196.482 174.352 196.515 174.368L196.724 174.513C196.74 174.529 196.772 174.529 196.804 174.513Z" fill="#8AA8FF"/>
<path d="M196.448 174.689L196.673 174.576C196.69 174.56 196.706 174.544 196.673 174.528L196.464 174.383C196.448 174.367 196.416 174.367 196.384 174.383L196.159 174.496C196.143 174.512 196.127 174.528 196.159 174.544L196.368 174.689C196.4 174.689 196.432 174.689 196.448 174.689Z" fill="#8AA8FF"/>
<path d="M196.11 174.866L196.335 174.753C196.351 174.737 196.367 174.721 196.335 174.705L196.126 174.56C196.11 174.544 196.078 174.544 196.046 174.56L195.82 174.673C195.804 174.689 195.788 174.705 195.82 174.721L196.029 174.866C196.062 174.866 196.094 174.866 196.11 174.866Z" fill="#8AA8FF"/>
<path d="M195.804 172.371L192.683 170.328C192.667 170.312 192.635 170.312 192.603 170.328L192.377 170.44C192.361 170.456 192.345 170.473 192.377 170.489L195.498 172.532C195.514 172.548 195.547 172.548 195.579 172.532L195.804 172.419C195.82 172.403 195.82 172.387 195.804 172.371Z" fill="#8AA8FF"/>
<path d="M194.117 176.474L194.471 176.297L194.085 175.236H193.683L194.117 176.474Z" fill="#8AA8FF"/>
<path d="M206.842 171.745C206.842 171.745 204.767 174.722 199.201 172.566C193.635 170.41 194.728 168.592 194.728 168.592C194.728 168.592 194.181 157.701 194.728 155.159C195.275 152.618 195.951 150.961 197.19 150.205C197.19 150.205 203.303 152.425 204.526 153.728C205.25 154.5 205.539 160.517 206.07 165.262C206.408 168.48 206.842 171.745 206.842 171.745Z" fill="#FFC700"/>
<path d="M193.329 157.974L192.75 164.94L189.13 170.12L190.868 170.989L194.648 167.08L194.487 158.57L193.329 157.974Z" fill="#F89AB5"/>
<path d="M201.017 149.431L201.596 152.52C201.596 152.52 201.242 153.791 199.714 153.373C198.185 152.955 198.411 152.021 198.411 152.021L198.33 149.978L201.017 149.431Z" fill="#F89AB5"/>
<path d="M198.33 150.059C198.33 150.059 198.845 151.217 201.322 150.992L200.936 149.013L198.33 150.059Z" fill="#DB8FAA"/>
<path d="M196.255 146.745C196.85 149.544 198.041 151.008 199.569 150.686C201.113 150.349 202.818 148.933 202.159 145.844C201.692 143.656 200.068 142.16 198.523 142.498C195.901 143.045 195.788 144.557 196.255 146.745Z" fill="#F89AB5"/>
<path d="M195.95 144.686C195.644 144.541 195.499 144.187 195.612 143.849C195.837 143.206 196.368 142.209 197.574 141.903C198.958 141.549 202.224 140.616 202.835 146.198C202.835 146.198 202.835 146.295 202.835 146.89C202.835 146.89 201.516 145.86 201.226 145.426C200.937 144.992 200.341 144.686 199.553 144.67C198.877 144.654 198.556 144.734 198.025 145.136C197.735 145.362 197.349 145.394 197.027 145.233L195.95 144.686Z" fill="#0A1A4E"/>
<path d="M200.952 146.745C201.065 147.276 201.596 147.614 202.127 147.501C202.658 147.388 202.995 146.857 202.883 146.327C202.77 145.796 202.239 145.458 201.708 145.57C201.178 145.683 200.84 146.214 200.952 146.745Z" fill="#F89AB5"/>
<path d="M198.203 153.662C198.927 154.049 200.085 154.016 200.777 153.566C201.468 153.132 201.452 152.456 200.728 152.07C200.005 151.684 198.846 151.716 198.154 152.166C197.463 152.617 197.479 153.276 198.203 153.662Z" fill="#E9A71A"/>
<path d="M198.557 153.438C199.281 153.824 200.407 153.776 201.099 153.358C201.79 152.923 201.758 152.264 201.05 151.894C200.326 151.508 199.2 151.556 198.508 151.974C197.817 152.392 197.849 153.052 198.557 153.438Z" fill="#F89AB5"/>
<path d="M199.763 144.67L200.937 146.44L201.532 145.973L201.339 145.265L200.406 144.204L199.763 144.67Z" fill="#0A1A4E"/>
<path d="M201.099 159.615L199.845 167.401L200.311 166.645L195.565 171.311C195.179 171.697 195.163 172.324 195.549 172.726C195.903 173.08 196.466 173.128 196.852 172.839L202.209 168.897L202.499 168.688L202.692 168.125L205.25 160.661C205.636 159.535 205.041 158.312 203.915 157.926C202.789 157.54 201.566 158.135 201.18 159.261C201.148 159.374 201.115 159.503 201.099 159.615Z" fill="#F89AB5"/>
<path d="M204.829 161.964L204.685 162.35C204.685 162.35 203.028 163.186 200.792 161.578L200.952 160.789L204.829 161.964Z" fill="#E6E6E6"/>
<path d="M200.583 160.822C201.499 162.141 204.234 162.64 205.167 161.723L206.245 155.803C206.422 154.677 205.521 153.615 204.25 153.422C202.867 153.213 201.596 154.033 201.419 155.256L200.583 160.822Z" fill="#FFC700"/>
<path d="M196.188 171.02L194.869 171.857L194.965 173.047L195.142 173.868L195.351 174.64L197.394 172.709C197.571 172.532 197.7 172.323 197.732 172.066L197.893 171.181L196.188 171.02Z" fill="#F89AB5"/>
<path d="M193.714 173.611C193.843 173.611 193.971 173.531 194.036 173.402C194.293 172.871 195.323 172.389 195.677 172.26C195.87 172.196 195.95 171.987 195.886 171.793C195.821 171.6 195.612 171.52 195.419 171.584C195.258 171.649 193.811 172.212 193.376 173.097C193.296 173.273 193.36 173.499 193.553 173.579C193.601 173.595 193.65 173.611 193.714 173.611Z" fill="#F89AB5"/>
<path d="M194.484 172.051C194.5 172.051 194.5 172.051 194.516 172.051C195.545 171.955 196.366 171.713 196.398 171.713C196.591 171.665 196.704 171.456 196.639 171.263C196.591 171.07 196.382 170.957 196.189 171.022C196.189 171.022 195.384 171.247 194.435 171.343C194.242 171.359 194.097 171.536 194.114 171.729C194.13 171.906 194.29 172.051 194.484 172.051Z" fill="#F89AB5"/>
<path d="M193.953 174.4C194.098 174.4 194.243 174.303 194.291 174.158C194.468 173.595 195.433 172.984 195.771 172.807C195.948 172.71 196.012 172.501 195.916 172.324C195.819 172.147 195.61 172.083 195.433 172.18C195.272 172.26 193.921 173.016 193.615 173.949C193.551 174.142 193.664 174.335 193.841 174.4C193.873 174.4 193.921 174.4 193.953 174.4Z" fill="#F89AB5"/>
<path d="M194.602 174.69C194.747 174.69 194.891 174.594 194.94 174.449C195.117 173.886 196.066 173.274 196.42 173.098C196.597 173.001 196.661 172.792 196.564 172.615C196.468 172.438 196.259 172.374 196.082 172.47C195.921 172.551 194.57 173.307 194.264 174.24C194.2 174.433 194.312 174.626 194.489 174.69C194.521 174.69 194.553 174.69 194.602 174.69Z" fill="#F89AB5"/>
<path d="M195.32 174.915C195.497 174.915 195.658 174.786 195.674 174.609C195.755 174.046 196.495 173.451 196.768 173.274C196.929 173.162 196.977 172.936 196.881 172.775C196.768 172.615 196.559 172.566 196.382 172.663C196.253 172.743 195.111 173.515 194.966 174.513C194.934 174.706 195.079 174.899 195.272 174.915C195.288 174.915 195.304 174.915 195.32 174.915Z" fill="#F89AB5"/>
<path d="M194.468 176.298L192.344 170.297C192.296 170.185 192.216 170.072 192.119 170.008L184.59 165.182C184.526 165.149 184.462 165.149 184.413 165.198C184.365 165.246 184.333 165.31 184.365 165.375L186.263 171.166L194.468 176.298Z" fill="#8AA8FF"/>
<path d="M184.078 165.357L184.432 165.18C184.448 165.18 184.464 165.164 184.48 165.164C184.48 165.164 184.48 165.164 184.496 165.164C184.528 165.164 184.56 165.164 184.592 165.196L191.88 169.878L192.105 170.023C192.17 170.055 192.218 170.103 192.25 170.167L191.88 170.344L184.544 165.647L184.496 165.679L184.078 165.357Z" fill="#D2E4FF"/>
<path d="M194.116 176.473L191.992 170.473C191.944 170.36 191.864 170.247 191.767 170.183L184.238 165.357C184.174 165.325 184.109 165.325 184.061 165.373C184.013 165.421 183.981 165.486 184.013 165.55L185.911 171.341L194.116 176.473Z" fill="#AEC5FF"/>
<path d="M187.39 170.313C187.47 171.037 188.081 171.874 188.741 172.163C189.401 172.453 189.883 172.115 189.803 171.375C189.722 170.651 189.111 169.814 188.451 169.525C187.792 169.235 187.309 169.589 187.39 170.313Z" fill="#8AA8FF"/>
<path d="M187.154 145.459L191.951 148.231V118.256L187.154 115.485V145.459Z" fill="#A7D2E3"/>
<path d="M196.762 145.459L191.951 148.231V118.256L196.762 115.485V145.459Z" fill="#4596B4"/>
<path d="M187.154 115.485L191.952 118.256L196.762 115.485L191.952 112.714L187.154 115.485Z" fill="#93C9DE"/>
<path d="M176.578 138.78L181.389 141.551V107.132L176.578 104.361V138.78Z" fill="#A7D2E3"/>
<path d="M186.186 138.78L181.389 141.551V107.132L186.186 104.361V138.78Z" fill="#4596B4"/>
<path d="M176.578 104.361L181.388 107.132L186.186 104.361L181.388 101.589L176.578 104.361Z" fill="#93C9DE"/>
<path d="M165.886 131.864L170.696 134.636V94.7918L165.886 92.0205V131.864Z" fill="#A7D2E3"/>
<path d="M175.494 131.864L170.696 134.636V94.7918L175.494 92.0205V131.864Z" fill="#4596B4"/>
<path d="M165.886 92.0206L170.696 94.7919L175.494 92.0206L170.696 89.2493L165.886 92.0206Z" fill="#93C9DE"/>
<path d="M155.231 125.903L160.028 128.688V83.5235L155.231 80.7522V125.903Z" fill="#A7D2E3"/>
<path d="M164.826 125.903L160.028 128.688V83.5235L164.826 80.7522V125.903Z" fill="#4596B4"/>
<path d="M155.231 80.7523L160.029 83.5236L164.826 80.7523L160.029 77.981L155.231 80.7523Z" fill="#93C9DE"/>
<path d="M144.669 119.969L149.48 122.74V72.1507L144.669 69.3794V119.969Z" fill="#A7D2E3"/>
<path d="M154.277 119.969L149.479 122.74V72.1507L154.277 69.3794V119.969Z" fill="#4596B4"/>
<path d="M144.669 69.3795L149.48 72.1508L154.277 69.3795L149.48 66.6082L144.669 69.3795Z" fill="#93C9DE"/>
<path d="M133.897 113.681L138.708 116.452V60.5557L133.897 57.7844V113.681Z" fill="#A7D2E3"/>
<path d="M143.505 113.681L138.708 116.452V60.5557L143.505 57.7844V113.681Z" fill="#4596B4"/>
<path d="M133.897 57.7844L138.708 60.5557L143.506 57.7844L138.708 55L133.897 57.7844Z" fill="#93C9DE"/>
<circle cx="255.5" cy="212.5" r="36.5" fill="#00ADEE"/>
<defs>
<linearGradient id="paint0_linear" x1="54.0015" y1="67.5557" x2="172.501" y2="240.056" gradientUnits="userSpaceOnUse">
<stop stop-color="#EFEFEF"/>
<stop offset="1" stop-color="#F8F8F8"/>
</linearGradient>
<linearGradient id="paint1_linear" x1="63.8584" y1="122.46" x2="66.2202" y2="122.394" gradientUnits="userSpaceOnUse">
<stop stop-color="#FCE559"/>
<stop offset="1" stop-color="#F6AA28"/>
</linearGradient>
<linearGradient id="paint2_linear" x1="106.362" y1="121.942" x2="109.75" y2="121.846" gradientUnits="userSpaceOnUse">
<stop stop-color="#FCE559"/>
<stop offset="1" stop-color="#F6AA28"/>
</linearGradient>
<linearGradient id="paint3_linear" x1="63.9025" y1="124.081" x2="109.777" y2="122.792" gradientUnits="userSpaceOnUse">
<stop stop-color="#FCE559"/>
<stop offset="1" stop-color="#F6AA28"/>
</linearGradient>
<linearGradient id="paint4_linear" x1="70.2266" y1="109.908" x2="87.2349" y2="137.544" gradientUnits="userSpaceOnUse">
<stop stop-color="#FCE559"/>
<stop offset="1" stop-color="#F6AA28"/>
</linearGradient>
<linearGradient id="paint5_linear" x1="88.8109" y1="106.141" x2="85.7915" y2="132.056" gradientUnits="userSpaceOnUse">
<stop stop-color="#FCE559"/>
<stop offset="1" stop-color="#F6AA28"/>
</linearGradient>
<linearGradient id="paint6_linear" x1="88.6128" y1="129.544" x2="88.731" y2="107.283" gradientUnits="userSpaceOnUse">
<stop stop-color="#FCD835"/>
<stop offset="1" stop-color="#FAA925"/>
</linearGradient>
<linearGradient id="paint7_linear" x1="88.4076" y1="128.387" x2="88.5131" y2="108.526" gradientUnits="userSpaceOnUse">
<stop stop-color="#FFC533"/>
<stop offset="1" stop-color="#F8BA26"/>
</linearGradient>
<linearGradient id="paint8_linear" x1="75.944" y1="119.594" x2="97.5019" y2="118.988" gradientUnits="userSpaceOnUse">
<stop stop-color="#FCD835"/>
<stop offset="1" stop-color="#FAA925"/>
</linearGradient>
</defs>
</svg>
