<svg width="253" height="253" viewBox="0 0 253 253" fill="none" xmlns="http://www.w3.org/2000/svg">
<path d="M48.5915 6.84554C80.9222 -12.4188 141.29 22.0893 167.432 41.7514C265.51 107.309 233.695 159.092 205.407 186.847C191.422 200.569 179.362 215.639 106.775 242.091C34.1889 268.542 8.20294 214.914 4.28329 184.793C-6.30877 126.337 8.17823 30.926 48.5915 6.84554Z" fill="url(#paint0_linear)"/>
<path opacity="0.17" d="M192.015 157.584C181.818 154.601 170.957 156.248 167.771 161.268C167.329 161.956 167.068 162.685 166.951 163.414L142.616 156.288L121.78 150.189C112.766 133.441 78.5072 94.9263 67.7248 91.647L101.906 140.567L101.191 142.739L106.445 142.712L19.5098 116.181C24.6213 122.902 83.996 150.62 110.815 155.924L121.429 170.445L132.172 185.141C130.923 185.168 129.688 185.289 128.491 185.505C119.803 187.098 116.421 193.386 120.921 199.553C125.422 205.707 136.113 209.418 144.801 207.812C153.49 206.22 156.871 199.931 152.371 193.764C150.849 191.686 148.625 189.891 146.024 188.487H146.141C146.141 188.487 133.447 178.204 126.93 168.825C123.965 164.574 122.287 160.512 123.627 157.678C123.757 157.395 123.848 157.058 123.874 156.693C128.361 156.72 133.902 157.827 139.599 159.419C155.142 163.765 171.881 171.794 171.881 171.794V171.727C174.131 173.333 177.044 174.736 180.491 175.748C190.688 178.731 201.549 177.084 204.722 172.064C207.909 167.057 202.212 160.566 192.015 157.584ZM148.261 194.52C151.591 199.068 149.08 203.71 142.668 204.897C136.256 206.072 128.361 203.346 125.031 198.798C121.702 194.25 124.212 189.608 130.624 188.434C137.036 187.232 144.931 189.972 148.261 194.52ZM199.884 170.661C197.53 174.358 189.518 175.586 181.987 173.373C174.456 171.173 170.255 166.383 172.609 162.671C174.963 158.974 182.975 157.746 190.506 159.959C198.037 162.159 202.238 166.949 199.884 170.661Z" fill="#163891"/>
<path opacity="0.17" d="M52.18 124.874C66.686 124.874 78.4454 117.836 78.4454 109.154C78.4454 100.472 66.686 93.4338 52.18 93.4338C37.674 93.4338 25.9146 100.472 25.9146 109.154C25.9146 117.836 37.674 124.874 52.18 124.874Z" fill="#163891"/>
<path d="M29.9434 105.924L30.0701 110.586L32.4141 112.398L32.2493 106.304L29.9434 105.924Z" fill="url(#paint1_linear)"/>
<path d="M74.4139 104.873L74.5406 109.522L71.7659 112.346L71.145 105.372L74.4139 104.873Z" fill="url(#paint2_linear)"/>
<path d="M67.7763 100.303C58.9578 95.3649 44.8811 95.772 36.3414 101.222C27.8016 106.672 28.0297 115.091 36.8482 120.042C45.6667 124.98 59.7433 124.573 68.2831 119.122C76.8229 113.672 76.5948 105.241 67.7763 100.303Z" fill="url(#paint3_linear)"/>
<path d="M67.6488 95.6667C76.4673 100.605 76.6954 109.036 68.1557 114.486C59.6159 119.936 45.5392 120.344 36.7207 115.406C27.9022 110.468 27.6742 102.036 36.2139 96.586C44.7537 91.1227 58.8303 90.7155 67.6488 95.6667Z" fill="url(#paint4_linear)"/>
<path d="M67.1035 96.0079C75.6179 100.775 75.8333 108.905 67.5977 114.158C59.362 119.411 45.7795 119.805 37.2651 115.038C28.7506 110.27 28.5352 102.141 36.7709 96.8879C45.0066 91.6347 58.5891 91.2407 67.1035 96.0079Z" fill="url(#paint5_linear)"/>
<path opacity="0.82" d="M65.1649 97.2425C72.5643 101.393 72.7671 108.458 65.5957 113.028C58.4243 117.599 46.6156 117.94 39.2162 113.803C31.8168 109.653 31.6141 102.588 38.7854 98.0173C45.9441 93.4471 57.7528 93.1056 65.1649 97.2425Z" fill="url(#paint6_linear)"/>
<path opacity="0.82" d="M39.1024 98.2015C46.2231 93.6575 57.9178 93.2898 65.3299 97.3479C65.2792 97.3216 65.2285 97.2822 65.1651 97.256C57.7657 93.1059 45.9444 93.4474 38.7857 98.0308C31.6143 102.601 31.8044 109.667 39.2165 113.817C39.2671 113.843 39.3305 113.869 39.3812 113.909C32.1211 109.732 31.9817 102.732 39.1024 98.2015Z" fill="white"/>
<path opacity="0.59" d="M63.7587 98.136C70.3599 101.84 70.5373 108.143 64.1388 112.228C57.7403 116.312 47.1987 116.614 40.5975 112.911C33.9962 109.207 33.8189 102.903 40.2173 98.8189C46.6158 94.7477 57.1575 94.4457 63.7587 98.136Z" fill="url(#paint7_linear)"/>
<path opacity="0.82" d="M56.3608 103.612L56.3862 104.347L57.4632 104.846L57.2731 103.901L56.3608 103.612Z" fill="#FAA925"/>
<path d="M62.4424 99.856L62.4677 100.591L61.7329 101.051L61.2134 100.644L62.4424 99.856Z" fill="#FAA925"/>
<g opacity="0.82">
<path opacity="0.82" d="M41.8896 111.413L43.4481 110.428C42.2571 109.574 41.7629 108.734 41.953 107.933C42.1431 107.118 42.9666 106.252 44.4237 105.332L44.9939 104.965L48.7189 107.066L48.2881 107.342C47.2112 108.024 47.0211 108.55 47.68 108.931C47.9587 109.088 48.2881 109.141 48.6556 109.101C49.023 109.062 49.3778 108.931 49.7199 108.707C49.9606 108.55 50.1 108.195 50.138 107.644L50.0746 103.993C50.0493 102.653 50.6828 101.576 51.9625 100.762C52.9001 100.171 54.0404 99.8164 55.3961 99.7376C56.7519 99.6456 58.0569 99.8558 59.3366 100.355L60.6036 99.5537L62.4535 100.604L61.2245 101.379C62.2634 102.141 62.7069 102.968 62.5422 103.848C62.3901 104.728 61.6046 105.621 60.1982 106.514L56.3718 104.36L57.2333 103.783C57.4107 103.651 57.4867 103.494 57.4614 103.297C57.4234 103.113 57.3094 102.955 57.0813 102.824C56.8279 102.679 56.5491 102.614 56.2197 102.601C55.8903 102.601 55.6115 102.666 55.3708 102.824C55.016 103.047 54.864 103.572 54.8893 104.4L55.0034 107.919C55.0287 108.537 54.8513 109.128 54.4966 109.679C54.1418 110.231 53.6477 110.717 53.0141 111.111C52.3553 111.531 51.6204 111.833 50.7842 112.03C49.9479 112.227 49.0483 112.28 48.0727 112.201C47.0971 112.122 46.1595 111.872 45.2726 111.478L43.7395 112.45L41.8896 111.413Z" fill="url(#paint8_linear)"/>
</g>
<path d="M41.8662 110.678L43.4247 109.693C42.2336 108.839 41.7395 107.999 41.9296 107.197C42.1196 106.383 42.9432 105.516 44.4003 104.597L44.9704 104.229L48.6955 106.331L48.2647 106.606C47.1877 107.289 46.9977 107.815 47.6565 108.196C47.9353 108.353 48.2647 108.406 48.6321 108.366C48.9996 108.327 49.3543 108.196 49.6964 107.972C49.9372 107.815 50.0765 107.46 50.1145 106.909L50.0512 103.258C50.0259 101.918 50.6594 100.841 51.9391 100.027C52.8767 99.4359 54.017 99.0813 55.3727 99.0025C56.7284 98.9105 58.0335 99.1207 59.3132 99.6197L60.5802 98.8186L62.43 99.8692L61.201 100.644C62.24 101.406 62.6834 102.233 62.5187 103.113C62.3667 103.993 61.5811 104.886 60.1747 105.779L56.3483 103.625L57.2099 103.047C57.3873 102.916 57.4633 102.759 57.438 102.562C57.3999 102.378 57.2859 102.22 57.0578 102.089C56.8044 101.944 56.5257 101.879 56.1963 101.865C55.8668 101.865 55.5881 101.931 55.3474 102.089C54.9926 102.312 54.8406 102.837 54.8659 103.665L54.9799 107.184C55.0053 107.802 54.8279 108.393 54.4731 108.944C54.1184 109.496 53.6242 109.982 52.9907 110.376C52.3318 110.796 51.597 111.098 50.7607 111.295C49.9245 111.492 49.0249 111.544 48.0493 111.466C47.0737 111.387 46.1361 111.137 45.2492 110.743L43.7161 111.715L41.8662 110.678Z" fill="#FFE169"/>
<path d="M43.7287 111.728L43.7667 112.464L41.8915 111.413L41.8662 110.677L43.7287 111.728Z" fill="#FAA925"/>
<path d="M31.1406 119.23V124.02L50.8198 131.946L52.1802 128.846L31.1406 119.23Z" fill="#B8D4F5"/>
<path d="M141.229 182.503L141.464 180.995L148.559 183.864L149.814 187.219L149.356 189.857L145.521 187.329L141.229 182.503Z" fill="#B73235"/>
<path d="M133.781 182.758L134.285 179.767L126.017 182.15L121.842 185.785V191.06L128.48 199.035L141.24 202.402L150.317 199.399L153.789 196.008V190.452L149.449 196.008L139.434 198.026L129.888 193.868L125.396 188.714L133.781 182.758Z" fill="#B73235"/>
<path d="M140.454 154.799V159.6L134.274 158.093L127.425 152.38L139.962 153.121L140.454 154.799Z" fill="#B8D4F5"/>
<path d="M170.219 159.6L169.199 156.014L177.983 152.927L186.403 153.62L196.079 159.09L197.427 162.87L195.68 164.013L192.807 161.789L185.043 158.47H174.148L170.219 159.6Z" fill="#B73235"/>
<path d="M169.95 170.942L181.749 174.893L195.88 172.924L199.95 168.839L199.985 163.624L189.583 169.775L172.413 166.116L166.432 164.512L169.95 170.942Z" fill="#B73235"/>
<path d="M74.6157 101.92L124.083 169.508L129.032 168.061C126.358 164.232 124.846 160.573 126.054 158.021C129.935 149.852 86.2848 105.458 74.6157 101.92Z" fill="#CCE3F5"/>
<path d="M123.579 157.291C127.976 156.72 134.11 157.814 140.467 159.589L143.199 156.756L31.1406 124.02C36.5119 131.058 109.482 159.127 123.579 157.291Z" fill="#B8D4F5"/>
<path d="M146.259 185.773H146.364C146.364 185.773 134.918 176.51 129.043 168.061L124.094 169.508L133.781 182.746C132.655 182.77 131.541 182.879 130.462 183.074C122.628 184.508 119.578 190.173 123.636 195.728C127.694 201.272 137.334 204.615 145.168 203.168C153.002 201.734 156.052 196.069 151.994 190.514C150.622 188.654 148.616 187.037 146.259 185.773ZM143.233 200.542C137.451 201.6 130.333 199.144 127.33 195.048C124.328 190.951 126.592 186.769 132.373 185.712C138.155 184.654 145.274 187.11 148.276 191.206C151.278 195.303 149.027 199.485 143.233 200.542Z" fill="#B73235"/>
<path d="M187.73 157.935C178.535 155.249 168.742 156.732 165.869 161.254C165.47 161.874 165.236 162.53 165.13 163.187L143.188 156.768L140.455 159.601C154.47 163.515 169.563 170.748 169.563 170.748V170.687C171.592 172.133 174.219 173.398 177.327 174.309C186.522 176.996 196.314 175.513 199.176 170.991C202.061 166.469 196.924 160.622 187.73 157.935ZM194.825 169.714C192.702 173.045 185.478 174.151 178.687 172.158C171.897 170.176 168.109 165.861 170.232 162.518C172.355 159.187 179.579 158.081 186.369 160.075C193.16 162.068 196.948 166.371 194.825 169.714Z" fill="#B73235"/>
<path d="M105.834 144.564L107.03 146.193L124.411 151.274C124.176 150.836 123.918 150.386 123.648 149.925L105.834 144.564Z" fill="#B8D4F5"/>
<path d="M140.455 154.799V159.6L169.95 170.942L164.227 160.463L140.455 154.799Z" fill="#B73235"/>
<path d="M74.6157 97.1306L124.083 164.718L129.032 163.272C126.358 159.442 124.846 155.784 126.054 153.231C129.935 145.062 86.2848 100.668 74.6157 97.1306Z" fill="#CCE3F5"/>
<path d="M123.579 152.502C127.976 151.93 134.11 153.024 140.467 154.799L143.199 151.967L31.1406 119.23C36.5119 126.269 109.482 154.325 123.579 152.502Z" fill="#CCE3F5"/>
<path d="M114.818 145.281C113.621 145.73 113.422 146.727 114.36 147.517C115.31 148.295 117.034 148.563 118.23 148.113C119.427 147.663 119.626 146.666 118.688 145.876C117.738 145.086 116.002 144.831 114.818 145.281Z" fill="#679AE2"/>
<path d="M146.259 180.971H146.364C146.364 180.971 134.918 171.708 129.043 163.259L124.094 164.706L133.781 177.944C132.655 177.968 131.541 178.077 130.462 178.272C122.628 179.706 119.578 185.371 123.636 190.926C127.694 196.47 137.334 199.813 145.168 198.366C153.002 196.932 156.052 191.267 151.994 185.712C150.622 183.864 148.616 182.247 146.259 180.971ZM143.233 195.752C137.451 196.81 130.333 194.354 127.33 190.258C124.328 186.161 126.592 181.98 132.373 180.922C138.155 179.864 145.274 182.32 148.276 186.417C151.278 190.513 149.027 194.695 143.233 195.752Z" fill="#FB4B00"/>
<path d="M187.73 153.145C178.535 150.459 168.742 151.942 165.869 156.464C165.47 157.084 165.236 157.74 165.13 158.397L143.188 151.978L140.455 154.811C154.47 158.725 169.563 165.958 169.563 165.958V165.897C171.592 167.344 174.219 168.608 177.327 169.52C186.522 172.206 196.314 170.723 199.176 166.201C202.061 161.679 196.924 155.832 187.73 153.145ZM194.825 164.925C192.702 168.255 185.478 169.362 178.687 167.368C171.897 165.387 168.109 161.071 170.232 157.728C172.355 154.397 179.579 153.291 186.369 155.285C193.16 157.266 196.948 161.582 194.825 164.925Z" fill="#FB4B00"/>
<path d="M105.834 139.774L107.03 141.403L124.411 146.484C124.176 146.047 123.918 145.597 123.648 145.135L105.834 139.774Z" fill="#B8D4F5"/>
<path d="M114.525 151.65V156.44L124.095 169.52V164.718L114.525 151.65Z" fill="#B8D4F5"/>
<path d="M124.094 164.718V169.52L130.45 178.284L133.781 177.968L124.094 164.718Z" fill="#B73235"/>
<path d="M74.6157 97.1306V101.92L102.563 140.102L107.019 141.403L74.6157 97.1306Z" fill="#B8D4F5"/>
<path d="M126.182 152.902L115.111 152.465L114.513 151.65L126.276 152.355C126.287 152.355 126.217 152.781 126.182 152.902Z" fill="#B8D4F5"/>
<path d="M153.059 176.98L153.199 178.16C153.231 178.418 153.137 178.677 152.966 178.855C152.373 179.453 151.001 180.729 150.019 180.859C149.021 180.988 148.88 180.438 148.818 180.18C148.756 179.921 149.083 179.469 149.083 179.469L153.059 176.98Z" fill="#2F2F7F"/>
<path d="M153.057 176.982C153.057 176.982 150.656 180.65 149.066 180.246C147.771 179.907 151.248 176.416 151.248 176.416L153.057 176.982Z" fill="#41409E"/>
<path d="M164.441 155.729C163.942 154.064 162.212 153.127 160.606 153.66C160.512 153.693 160.419 153.725 160.341 153.757C159.389 154.161 158.454 154.598 157.518 155.034C156.583 155.487 155.647 155.923 154.712 156.376L149.129 159.107L148.849 159.236C148.054 159.624 147.633 160.529 147.804 161.386L149.285 169.16L150.798 176.934C150.923 177.596 151.546 178.017 152.186 177.887C152.778 177.758 153.168 177.209 153.121 176.594L152.513 168.691L152.03 162.663L156.52 161.418C157.518 161.143 158.501 160.869 159.499 160.578C160.481 160.287 161.479 159.98 162.446 159.673C164.052 159.188 164.956 157.394 164.441 155.729Z" fill="#2196A8"/>
<path d="M151.907 156.44L154.963 151.85L155.681 142.847C155.696 142.75 155.712 142.637 155.727 142.54C155.992 141.377 157.115 140.649 158.238 140.924C159.36 141.199 160.062 142.362 159.797 143.526L157.754 152.609L157.645 153.11L157.458 153.32L153.404 157.733C153.077 158.088 152.546 158.153 152.157 157.862C151.72 157.523 151.611 156.908 151.907 156.44Z" fill="#F89AB5"/>
<path d="M159.33 145.014L159.205 145.418C159.205 145.418 157.755 146.404 155.525 144.869L155.588 143.98L159.33 145.014Z" fill="#E6E6E6"/>
<path d="M155.228 143.882C156.117 145.207 158.768 145.708 159.672 144.787L160.717 138.84C160.888 137.708 160.015 136.641 158.783 136.447C157.442 136.237 156.21 137.062 156.039 138.29L155.228 143.882Z" fill="#FFC700"/>
<path d="M159.841 178.179L160.184 179.327C160.262 179.569 160.215 179.844 160.059 180.054C159.576 180.749 158.422 182.252 157.471 182.543C156.52 182.85 156.286 182.333 156.177 182.074C156.067 181.832 156.317 181.315 156.317 181.315L159.841 178.179Z" fill="#2F2F7F"/>
<path d="M159.841 178.177C159.841 178.177 158.079 182.217 156.442 182.088C155.117 181.975 157.97 177.918 157.97 177.918L159.841 178.177Z" fill="#41409E"/>
<path d="M168.342 158.783C168.233 156.504 166.361 154.742 164.163 154.855C163.913 154.871 163.664 154.904 163.43 154.968C162.572 155.178 161.715 155.421 160.857 155.647C160 155.873 159.142 156.132 158.284 156.391L153.154 158.023L152.578 158.201C151.361 158.589 150.675 159.93 151.049 161.191C151.065 161.255 151.081 161.304 151.112 161.369L157.583 178.468C157.817 179.098 158.503 179.406 159.111 179.163C159.657 178.937 159.953 178.339 159.828 177.757L156.647 163.211L159.236 163.243C160.124 163.26 161.013 163.243 161.902 163.211C162.791 163.179 163.68 163.163 164.568 163.114C166.767 163.017 168.451 161.062 168.342 158.783Z" fill="#24A8BF"/>
<path d="M148.551 157.992L148.863 158.024L153.541 155.567C153.65 155.503 153.822 155.503 153.915 155.567L161.353 160.594L161.602 160.626L161.587 160.82C161.587 160.868 161.556 160.901 161.493 160.933L156.285 163.665L148.972 158.719L148.333 158.283L148.349 158.056L148.551 157.992Z" fill="#8AA8FF"/>
<path d="M153.915 155.358L161.54 160.497C161.634 160.562 161.618 160.659 161.509 160.723L156.301 163.455L148.349 158.089L153.557 155.358C153.666 155.293 153.822 155.293 153.915 155.358Z" fill="#DEEBFF"/>
<path d="M150.936 157.311L150.734 157.166C150.718 157.15 150.687 157.15 150.656 157.166L150.437 157.279C150.422 157.295 150.406 157.311 150.437 157.327L150.64 157.473C150.656 157.489 150.687 157.489 150.718 157.473L150.936 157.36C150.952 157.343 150.952 157.327 150.936 157.311Z" fill="#8AA8FF"/>
<path d="M151.25 157.522L151.047 157.377C151.032 157.361 151 157.361 150.969 157.377L150.751 157.49C150.735 157.506 150.72 157.522 150.751 157.538L150.954 157.684C150.969 157.7 151 157.7 151.032 157.684L151.25 157.571C151.265 157.555 151.265 157.538 151.25 157.522Z" fill="#8AA8FF"/>
<path d="M151.563 157.731L151.36 157.586C151.345 157.57 151.313 157.57 151.282 157.586L151.064 157.699C151.048 157.715 151.033 157.731 151.064 157.747L151.267 157.893C151.282 157.909 151.313 157.909 151.345 157.893L151.563 157.78C151.578 157.764 151.578 157.747 151.563 157.731Z" fill="#8AA8FF"/>
<path d="M151.875 157.957L151.672 157.812C151.657 157.796 151.625 157.796 151.594 157.812L151.376 157.925C151.36 157.941 151.345 157.957 151.376 157.973L151.579 158.119C151.594 158.135 151.625 158.135 151.657 158.119L151.875 158.006C151.89 157.973 151.89 157.957 151.875 157.957Z" fill="#8AA8FF"/>
<path d="M152.183 158.168L151.981 158.023C151.965 158.006 151.934 158.006 151.903 158.023L151.685 158.136C151.669 158.152 151.653 158.168 151.685 158.184L151.887 158.33C151.903 158.346 151.934 158.346 151.965 158.33L152.183 158.217C152.199 158.2 152.199 158.168 152.183 158.168Z" fill="#8AA8FF"/>
<path d="M152.496 158.378L152.293 158.233C152.278 158.216 152.246 158.216 152.215 158.233L151.997 158.346C151.981 158.362 151.966 158.378 151.997 158.394L152.2 158.54C152.215 158.556 152.246 158.556 152.278 158.54L152.496 158.427C152.512 158.41 152.512 158.394 152.496 158.378Z" fill="#8AA8FF"/>
<path d="M152.965 158.685L152.762 158.54C152.747 158.524 152.716 158.524 152.685 158.54L152.466 158.653C152.451 158.669 152.435 158.685 152.466 158.702L152.669 158.847C152.685 158.863 152.716 158.863 152.747 158.847L152.965 158.734C152.981 158.718 152.981 158.702 152.965 158.685Z" fill="#8AA8FF"/>
<path d="M153.281 158.897L153.078 158.752C153.063 158.735 153.032 158.735 153 158.752L152.782 158.865C152.767 158.881 152.751 158.897 152.782 158.913L152.985 159.059C153 159.075 153.032 159.075 153.063 159.059L153.281 158.946C153.297 158.929 153.297 158.913 153.281 158.897Z" fill="#8AA8FF"/>
<path d="M153.591 159.106L153.388 158.96C153.372 158.944 153.341 158.944 153.31 158.96L153.092 159.073C153.076 159.09 153.061 159.106 153.092 159.122L153.294 159.267C153.31 159.284 153.341 159.284 153.372 159.267L153.591 159.154C153.606 159.138 153.606 159.122 153.591 159.106Z" fill="#8AA8FF"/>
<path d="M153.903 159.316L153.7 159.171C153.685 159.155 153.654 159.155 153.623 159.171L153.404 159.284C153.389 159.3 153.373 159.316 153.404 159.332L153.607 159.478C153.623 159.494 153.654 159.494 153.685 159.478L153.903 159.365C153.919 159.349 153.919 159.332 153.903 159.316Z" fill="#8AA8FF"/>
<path d="M154.218 159.526L154.015 159.381C154 159.365 153.969 159.365 153.937 159.381L153.719 159.494C153.704 159.51 153.688 159.526 153.719 159.543L153.922 159.688C153.937 159.704 153.969 159.704 154 159.688L154.218 159.575C154.234 159.559 154.234 159.543 154.218 159.526Z" fill="#8AA8FF"/>
<path d="M154.528 159.752L154.325 159.607C154.31 159.59 154.279 159.59 154.248 159.607L154.029 159.72C154.014 159.736 153.998 159.752 154.029 159.768L154.232 159.914C154.248 159.93 154.279 159.93 154.31 159.914L154.528 159.801C154.544 159.768 154.559 159.752 154.528 159.752Z" fill="#8AA8FF"/>
<path d="M154.993 160.058L154.79 159.913C154.775 159.896 154.744 159.896 154.712 159.913L154.494 160.026C154.478 160.042 154.463 160.058 154.494 160.074L154.697 160.22C154.712 160.236 154.744 160.236 154.775 160.22L154.993 160.106C155.009 160.09 155.009 160.074 154.993 160.058Z" fill="#8AA8FF"/>
<path d="M155.306 160.269L155.103 160.123C155.088 160.107 155.057 160.107 155.025 160.123L154.807 160.236C154.791 160.252 154.776 160.269 154.807 160.285L155.01 160.43C155.025 160.446 155.057 160.446 155.088 160.43L155.306 160.317C155.322 160.301 155.322 160.285 155.306 160.269Z" fill="#8AA8FF"/>
<path d="M155.617 160.478L155.414 160.332C155.398 160.316 155.367 160.316 155.336 160.332L155.118 160.446C155.102 160.462 155.086 160.478 155.118 160.494L155.32 160.639C155.336 160.656 155.367 160.656 155.398 160.639L155.617 160.526C155.632 160.51 155.632 160.494 155.617 160.478Z" fill="#8AA8FF"/>
<path d="M155.93 160.689L155.727 160.543C155.711 160.527 155.68 160.527 155.649 160.543L155.431 160.657C155.415 160.673 155.399 160.689 155.431 160.705L155.633 160.85C155.649 160.867 155.68 160.867 155.711 160.85L155.93 160.737C155.945 160.721 155.945 160.705 155.93 160.689Z" fill="#8AA8FF"/>
<path d="M156.243 160.899L156.04 160.753C156.025 160.737 155.994 160.737 155.962 160.753L155.744 160.866C155.728 160.882 155.713 160.899 155.744 160.915L155.947 161.06C155.962 161.076 155.994 161.076 156.025 161.06L156.243 160.947C156.259 160.931 156.274 160.915 156.243 160.899Z" fill="#8AA8FF"/>
<path d="M156.571 161.108L156.368 160.963C156.353 160.947 156.322 160.947 156.291 160.963L156.072 161.076C156.057 161.092 156.041 161.108 156.072 161.124L156.275 161.27C156.29 161.286 156.322 161.286 156.353 161.27L156.571 161.157C156.587 161.141 156.587 161.124 156.571 161.108Z" fill="#8AA8FF"/>
<path d="M156.956 161.384L156.754 161.239C156.738 161.223 156.707 161.223 156.676 161.239L156.457 161.352C156.442 161.368 156.426 161.384 156.457 161.401L156.66 161.546C156.676 161.562 156.707 161.562 156.738 161.546L156.956 161.433C156.972 161.417 156.972 161.401 156.956 161.384Z" fill="#8AA8FF"/>
<path d="M157.27 161.596L157.068 161.45C157.052 161.434 157.021 161.434 156.99 161.45L156.771 161.564C156.756 161.58 156.74 161.596 156.771 161.612L156.974 161.757C156.99 161.774 157.021 161.774 157.052 161.757L157.27 161.644C157.286 161.628 157.286 161.612 157.27 161.596Z" fill="#8AA8FF"/>
<path d="M157.58 161.805L157.378 161.659C157.362 161.643 157.331 161.643 157.3 161.659L157.081 161.772C157.066 161.789 157.05 161.805 157.081 161.821L157.284 161.966C157.3 161.983 157.331 161.983 157.362 161.966L157.58 161.853C157.596 161.837 157.596 161.821 157.58 161.805Z" fill="#8AA8FF"/>
<path d="M157.893 162.016L157.69 161.871C157.675 161.854 157.643 161.854 157.612 161.871L157.394 161.984C157.378 162 157.363 162.016 157.394 162.032L157.597 162.178C157.612 162.194 157.643 162.194 157.675 162.178L157.893 162.064C157.909 162.048 157.924 162.032 157.893 162.016Z" fill="#8AA8FF"/>
<path d="M152.994 156.309L153.212 156.196C153.228 156.18 153.243 156.164 153.212 156.148L153.01 156.002C152.994 155.986 152.963 155.986 152.932 156.002L152.713 156.115C152.698 156.131 152.682 156.148 152.713 156.164L152.916 156.309C152.932 156.325 152.963 156.325 152.994 156.309Z" fill="#8AA8FF"/>
<path d="M152.653 156.488L152.871 156.374C152.887 156.358 152.902 156.342 152.871 156.326L152.668 156.18C152.653 156.163 152.621 156.163 152.59 156.18L152.372 156.293C152.356 156.309 152.341 156.326 152.372 156.342L152.575 156.488C152.606 156.488 152.637 156.488 152.653 156.488Z" fill="#8AA8FF"/>
<path d="M152.325 156.666L152.543 156.553C152.559 156.536 152.575 156.52 152.543 156.504L152.341 156.358C152.325 156.342 152.294 156.342 152.263 156.358L152.044 156.472C152.029 156.488 152.013 156.504 152.044 156.52L152.247 156.666C152.263 156.666 152.309 156.666 152.325 156.666Z" fill="#8AA8FF"/>
<path d="M151.982 156.844L152.2 156.73C152.216 156.714 152.231 156.698 152.2 156.682L151.997 156.536C151.982 156.52 151.951 156.52 151.919 156.536L151.701 156.649C151.686 156.666 151.67 156.682 151.701 156.698L151.904 156.844C151.935 156.844 151.966 156.844 151.982 156.844Z" fill="#8AA8FF"/>
<path d="M151.657 157.004L151.875 156.891C151.89 156.875 151.906 156.859 151.875 156.842L151.672 156.697C151.657 156.681 151.625 156.681 151.594 156.697L151.376 156.81C151.36 156.826 151.345 156.842 151.376 156.859L151.579 157.004C151.61 157.02 151.641 157.02 151.657 157.004Z" fill="#8AA8FF"/>
<path d="M151.327 157.181L151.546 157.068C151.561 157.051 151.577 157.035 151.546 157.019L151.343 156.874C151.327 156.858 151.296 156.858 151.265 156.874L151.047 156.987C151.031 157.003 151.016 157.019 151.047 157.035L151.25 157.181C151.265 157.197 151.296 157.197 151.327 157.181Z" fill="#8AA8FF"/>
<path d="M153.308 156.521L153.527 156.408C153.542 156.392 153.558 156.376 153.527 156.359L153.324 156.214C153.308 156.198 153.277 156.198 153.246 156.214L153.028 156.327C153.012 156.343 152.997 156.359 153.028 156.376L153.23 156.521C153.246 156.537 153.277 156.537 153.308 156.521Z" fill="#8AA8FF"/>
<path d="M152.967 156.698L153.185 156.585C153.201 156.569 153.217 156.553 153.185 156.536L152.983 156.391C152.967 156.375 152.936 156.375 152.905 156.391L152.686 156.504C152.671 156.52 152.655 156.536 152.686 156.553L152.889 156.698C152.92 156.714 152.952 156.714 152.967 156.698Z" fill="#8AA8FF"/>
<path d="M152.64 156.878L152.858 156.764C152.873 156.748 152.889 156.732 152.858 156.715L152.655 156.57C152.639 156.553 152.608 156.553 152.577 156.57L152.359 156.683C152.343 156.699 152.328 156.715 152.359 156.732L152.562 156.878C152.593 156.878 152.624 156.878 152.64 156.878Z" fill="#8AA8FF"/>
<path d="M152.315 157.056L152.534 156.943C152.549 156.927 152.565 156.91 152.534 156.894L152.331 156.748C152.315 156.732 152.284 156.732 152.253 156.748L152.035 156.862C152.019 156.878 152.003 156.894 152.035 156.91L152.237 157.056C152.253 157.056 152.284 157.056 152.315 157.056Z" fill="#8AA8FF"/>
<path d="M151.969 157.232L152.187 157.118C152.203 157.102 152.219 157.086 152.187 157.07L151.985 156.924C151.969 156.908 151.938 156.908 151.907 156.924L151.688 157.037C151.673 157.053 151.657 157.07 151.688 157.086L151.891 157.232C151.922 157.232 151.953 157.232 151.969 157.232Z" fill="#8AA8FF"/>
<path d="M151.642 157.392L151.86 157.279C151.876 157.262 151.891 157.246 151.86 157.23L151.658 157.085C151.642 157.068 151.611 157.068 151.58 157.085L151.361 157.198C151.346 157.214 151.33 157.23 151.361 157.246L151.564 157.392C151.58 157.408 151.611 157.408 151.642 157.392Z" fill="#8AA8FF"/>
<path d="M153.617 156.73L153.835 156.617C153.851 156.601 153.867 156.585 153.835 156.569L153.633 156.423C153.617 156.407 153.586 156.407 153.555 156.423L153.336 156.536C153.321 156.553 153.305 156.569 153.336 156.585L153.539 156.73C153.57 156.747 153.601 156.747 153.617 156.73Z" fill="#8AA8FF"/>
<path d="M153.291 156.908L153.509 156.795C153.525 156.779 153.54 156.763 153.509 156.746L153.306 156.601C153.291 156.585 153.26 156.585 153.228 156.601L153.01 156.714C152.995 156.73 152.979 156.746 153.01 156.763L153.213 156.908C153.228 156.924 153.26 156.924 153.291 156.908Z" fill="#8AA8FF"/>
<path d="M152.948 157.087L153.166 156.974C153.182 156.958 153.198 156.942 153.166 156.926L152.964 156.78C152.948 156.764 152.917 156.764 152.886 156.78L152.667 156.893C152.652 156.909 152.636 156.926 152.667 156.942L152.87 157.087C152.901 157.103 152.933 157.103 152.948 157.087Z" fill="#8AA8FF"/>
<path d="M152.624 157.265L152.842 157.152C152.858 157.136 152.873 157.119 152.842 157.103L152.639 156.957C152.624 156.941 152.593 156.941 152.562 156.957L152.343 157.071C152.328 157.087 152.312 157.103 152.343 157.119L152.546 157.265C152.562 157.265 152.593 157.265 152.624 157.265Z" fill="#8AA8FF"/>
<path d="M152.28 157.442L152.498 157.329C152.514 157.312 152.529 157.296 152.498 157.28L152.295 157.134C152.28 157.118 152.248 157.118 152.217 157.134L151.999 157.247C151.983 157.264 151.968 157.28 151.999 157.296L152.202 157.442C152.233 157.442 152.264 157.442 152.28 157.442Z" fill="#8AA8FF"/>
<path d="M151.951 157.62L152.169 157.506C152.184 157.49 152.2 157.474 152.169 157.458L151.966 157.312C151.951 157.296 151.919 157.296 151.888 157.312L151.67 157.425C151.654 157.441 151.639 157.458 151.67 157.474L151.873 157.62C151.888 157.62 151.935 157.62 151.951 157.62Z" fill="#8AA8FF"/>
<path d="M153.929 156.94L154.147 156.827C154.163 156.811 154.179 156.794 154.147 156.778L153.945 156.633C153.929 156.617 153.898 156.617 153.867 156.633L153.648 156.746C153.633 156.762 153.617 156.778 153.648 156.794L153.851 156.94C153.882 156.956 153.913 156.956 153.929 156.94Z" fill="#8AA8FF"/>
<path d="M153.603 157.118L153.821 157.004C153.837 156.988 153.852 156.972 153.821 156.956L153.618 156.81C153.603 156.794 153.572 156.794 153.54 156.81L153.322 156.924C153.307 156.94 153.291 156.956 153.322 156.972L153.525 157.118C153.54 157.134 153.572 157.134 153.603 157.118Z" fill="#8AA8FF"/>
<path d="M153.26 157.296L153.478 157.183C153.494 157.166 153.51 157.15 153.478 157.134L153.276 156.989C153.26 156.973 153.229 156.973 153.198 156.989L152.979 157.102C152.964 157.118 152.948 157.134 152.979 157.15L153.182 157.296C153.213 157.312 153.245 157.312 153.26 157.296Z" fill="#8AA8FF"/>
<path d="M152.936 157.474L153.154 157.361C153.17 157.344 153.185 157.328 153.154 157.312L152.951 157.167C152.936 157.151 152.905 157.151 152.874 157.167L152.655 157.28C152.64 157.296 152.624 157.312 152.655 157.328L152.858 157.474C152.874 157.49 152.905 157.49 152.936 157.474Z" fill="#8AA8FF"/>
<path d="M152.592 157.651L152.81 157.538C152.826 157.522 152.841 157.506 152.81 157.489L152.607 157.343C152.592 157.327 152.56 157.327 152.529 157.343L152.311 157.457C152.295 157.473 152.28 157.489 152.311 157.506L152.514 157.651C152.545 157.651 152.576 157.651 152.592 157.651Z" fill="#8AA8FF"/>
<path d="M152.263 157.829L152.481 157.716C152.496 157.7 152.512 157.684 152.481 157.667L152.278 157.521C152.263 157.505 152.231 157.505 152.2 157.521L151.982 157.635C151.966 157.651 151.951 157.667 151.982 157.684L152.185 157.829C152.216 157.829 152.247 157.829 152.263 157.829Z" fill="#8AA8FF"/>
<path d="M154.242 157.151L154.46 157.038C154.476 157.021 154.492 157.005 154.46 156.989L154.258 156.844C154.242 156.828 154.211 156.828 154.18 156.844L153.961 156.957C153.946 156.973 153.93 156.989 153.961 157.005L154.164 157.151C154.195 157.167 154.226 157.167 154.242 157.151Z" fill="#8AA8FF"/>
<path d="M153.916 157.328L154.134 157.215C154.15 157.199 154.165 157.183 154.134 157.167L153.931 157.021C153.916 157.005 153.885 157.005 153.853 157.021L153.635 157.135C153.62 157.151 153.604 157.167 153.635 157.183L153.838 157.328C153.853 157.345 153.885 157.345 153.916 157.328Z" fill="#8AA8FF"/>
<path d="M153.573 157.507L153.791 157.394C153.807 157.378 153.823 157.361 153.791 157.345L153.589 157.2C153.573 157.184 153.542 157.184 153.511 157.2L153.292 157.313C153.277 157.329 153.261 157.345 153.292 157.361L153.495 157.507C153.526 157.523 153.558 157.523 153.573 157.507Z" fill="#8AA8FF"/>
<path d="M153.249 157.685L153.467 157.572C153.483 157.556 153.498 157.539 153.467 157.523L153.264 157.378C153.249 157.362 153.218 157.362 153.187 157.378L152.968 157.491C152.953 157.507 152.937 157.523 152.968 157.539L153.171 157.685C153.202 157.701 153.233 157.701 153.249 157.685Z" fill="#8AA8FF"/>
<path d="M152.918 157.861L153.136 157.748C153.152 157.732 153.167 157.716 153.136 157.7L152.933 157.554C152.918 157.538 152.887 157.538 152.855 157.554L152.637 157.668C152.622 157.684 152.606 157.7 152.637 157.716L152.84 157.861C152.855 157.878 152.887 157.878 152.918 157.861Z" fill="#8AA8FF"/>
<path d="M152.576 158.04L152.794 157.927C152.809 157.911 152.825 157.894 152.794 157.878L152.591 157.732C152.576 157.716 152.544 157.716 152.513 157.732L152.295 157.846C152.279 157.862 152.264 157.878 152.295 157.894L152.498 158.04C152.529 158.04 152.56 158.04 152.576 158.04Z" fill="#8AA8FF"/>
<path d="M154.55 157.377L154.768 157.264C154.784 157.248 154.8 157.231 154.768 157.215L154.566 157.069C154.55 157.053 154.519 157.053 154.488 157.069L154.269 157.183C154.254 157.199 154.238 157.215 154.269 157.231L154.472 157.377C154.503 157.377 154.535 157.377 154.55 157.377Z" fill="#8AA8FF"/>
<path d="M154.224 157.538L154.442 157.425C154.458 157.409 154.473 157.393 154.442 157.377L154.24 157.231C154.224 157.215 154.193 157.215 154.162 157.231L153.943 157.345C153.928 157.361 153.912 157.377 153.943 157.393L154.146 157.538C154.177 157.555 154.208 157.555 154.224 157.538Z" fill="#8AA8FF"/>
<path d="M153.898 157.716L154.117 157.603C154.132 157.587 154.148 157.571 154.117 157.555L153.914 157.409C153.898 157.393 153.867 157.393 153.836 157.409L153.618 157.522C153.602 157.539 153.586 157.555 153.618 157.571L153.82 157.716C153.836 157.733 153.867 157.733 153.898 157.716Z" fill="#8AA8FF"/>
<path d="M153.557 157.893L153.775 157.78C153.791 157.764 153.806 157.747 153.775 157.731L153.573 157.586C153.557 157.57 153.526 157.57 153.495 157.586L153.276 157.699C153.261 157.715 153.245 157.731 153.276 157.747L153.479 157.893C153.51 157.909 153.541 157.909 153.557 157.893Z" fill="#8AA8FF"/>
<path d="M153.226 158.071L153.444 157.958C153.46 157.942 153.475 157.925 153.444 157.909L153.242 157.764C153.226 157.748 153.195 157.748 153.164 157.764L152.945 157.877C152.93 157.893 152.914 157.909 152.945 157.925L153.148 158.071C153.164 158.087 153.195 158.087 153.226 158.071Z" fill="#8AA8FF"/>
<path d="M152.884 158.248L153.102 158.135C153.118 158.119 153.133 158.102 153.102 158.086L152.899 157.941C152.884 157.925 152.852 157.925 152.821 157.941L152.603 158.054C152.587 158.07 152.572 158.086 152.603 158.102L152.806 158.248C152.837 158.264 152.868 158.264 152.884 158.248Z" fill="#8AA8FF"/>
<path d="M154.537 157.748L154.755 157.635C154.771 157.619 154.786 157.603 154.755 157.587L154.553 157.441C154.537 157.425 154.506 157.425 154.475 157.441L154.256 157.554C154.241 157.57 154.225 157.587 154.256 157.603L154.459 157.748C154.49 157.764 154.521 157.764 154.537 157.748Z" fill="#8AA8FF"/>
<path d="M154.211 157.925L154.429 157.812C154.445 157.796 154.46 157.78 154.429 157.764L154.226 157.618C154.211 157.602 154.18 157.602 154.148 157.618L153.93 157.731C153.915 157.748 153.899 157.764 153.93 157.78L154.133 157.925C154.148 157.942 154.18 157.942 154.211 157.925Z" fill="#8AA8FF"/>
<path d="M153.869 158.104L154.088 157.991C154.103 157.975 154.119 157.958 154.088 157.942L153.885 157.797C153.869 157.781 153.838 157.781 153.807 157.797L153.589 157.91C153.573 157.926 153.558 157.942 153.589 157.958L153.792 158.104C153.823 158.12 153.854 158.12 153.869 158.104Z" fill="#8AA8FF"/>
<path d="M153.538 158.282L153.757 158.169C153.772 158.153 153.788 158.136 153.757 158.12L153.554 157.975C153.538 157.959 153.507 157.959 153.476 157.975L153.258 158.088C153.242 158.104 153.227 158.12 153.258 158.136L153.46 158.282C153.476 158.298 153.507 158.298 153.538 158.282Z" fill="#8AA8FF"/>
<path d="M153.196 158.459L153.414 158.346C153.43 158.33 153.446 158.313 153.414 158.297L153.212 158.152C153.196 158.136 153.165 158.136 153.134 158.152L152.915 158.265C152.9 158.281 152.884 158.297 152.915 158.313L153.118 158.459C153.149 158.475 153.181 158.475 153.196 158.459Z" fill="#8AA8FF"/>
<path d="M154.849 157.976L155.068 157.863C155.083 157.846 155.099 157.83 155.068 157.814L154.865 157.668C154.849 157.652 154.818 157.652 154.787 157.668L154.569 157.782C154.553 157.798 154.538 157.814 154.569 157.83L154.771 157.976C154.803 157.976 154.834 157.976 154.849 157.976Z" fill="#8AA8FF"/>
<path d="M154.524 158.137L154.742 158.024C154.758 158.008 154.773 157.992 154.742 157.976L154.539 157.83C154.524 157.814 154.493 157.814 154.461 157.83L154.243 157.943C154.228 157.96 154.212 157.976 154.243 157.992L154.446 158.137C154.461 158.153 154.493 158.153 154.524 158.137Z" fill="#8AA8FF"/>
<path d="M154.182 158.314L154.4 158.201C154.416 158.185 154.431 158.169 154.4 158.152L154.198 158.007C154.182 157.991 154.151 157.991 154.12 158.007L153.901 158.12C153.886 158.136 153.87 158.152 153.901 158.169L154.104 158.314C154.135 158.33 154.166 158.33 154.182 158.314Z" fill="#8AA8FF"/>
<path d="M153.851 158.492L154.069 158.379C154.085 158.363 154.1 158.347 154.069 158.33L153.867 158.185C153.851 158.169 153.82 158.169 153.789 158.185L153.57 158.298C153.555 158.314 153.539 158.33 153.57 158.347L153.773 158.492C153.804 158.508 153.835 158.508 153.851 158.492Z" fill="#8AA8FF"/>
<path d="M153.509 158.67L153.727 158.557C153.743 158.541 153.759 158.524 153.727 158.508L153.525 158.363C153.509 158.347 153.478 158.347 153.447 158.363L153.228 158.476C153.213 158.492 153.197 158.508 153.228 158.524L153.431 158.67C153.462 158.686 153.494 158.686 153.509 158.67Z" fill="#8AA8FF"/>
<path d="M155.165 158.168L155.383 158.055C155.399 158.039 155.414 158.022 155.383 158.006L155.18 157.861C155.165 157.845 155.134 157.845 155.102 157.861L154.884 157.974C154.869 157.99 154.853 158.006 154.884 158.022L155.087 158.168C155.118 158.184 155.149 158.184 155.165 158.168Z" fill="#8AA8FF"/>
<path d="M154.837 158.345L155.055 158.232C155.071 158.216 155.086 158.2 155.055 158.184L154.852 158.038C154.837 158.022 154.806 158.022 154.774 158.038L154.556 158.151C154.54 158.168 154.525 158.184 154.556 158.2L154.759 158.345C154.79 158.361 154.821 158.361 154.837 158.345Z" fill="#8AA8FF"/>
<path d="M154.512 158.526L154.73 158.413C154.746 158.396 154.762 158.38 154.73 158.364L154.528 158.218C154.512 158.202 154.481 158.202 154.45 158.218L154.231 158.331C154.216 158.348 154.2 158.364 154.231 158.38L154.434 158.526C154.45 158.526 154.481 158.526 154.512 158.526Z" fill="#8AA8FF"/>
<path d="M154.167 158.703L154.386 158.589C154.401 158.573 154.417 158.557 154.386 158.541L154.183 158.395C154.167 158.379 154.136 158.379 154.105 158.395L153.887 158.508C153.871 158.524 153.855 158.541 153.887 158.557L154.089 158.703C154.121 158.703 154.152 158.703 154.167 158.703Z" fill="#8AA8FF"/>
<path d="M153.84 158.863L154.058 158.75C154.074 158.734 154.089 158.717 154.058 158.701L153.855 158.556C153.84 158.54 153.808 158.54 153.777 158.556L153.559 158.669C153.543 158.685 153.528 158.701 153.559 158.717L153.762 158.863C153.777 158.879 153.808 158.879 153.84 158.863Z" fill="#8AA8FF"/>
<path d="M155.477 158.377L155.695 158.264C155.711 158.248 155.726 158.232 155.695 158.216L155.492 158.07C155.477 158.054 155.446 158.054 155.415 158.07L155.196 158.183C155.181 158.2 155.165 158.216 155.196 158.232L155.399 158.377C155.43 158.393 155.461 158.393 155.477 158.377Z" fill="#8AA8FF"/>
<path d="M155.149 158.555L155.367 158.442C155.383 158.426 155.398 158.41 155.367 158.393L155.164 158.248C155.149 158.232 155.118 158.232 155.086 158.248L154.868 158.361C154.853 158.377 154.837 158.393 154.868 158.41L155.071 158.555C155.102 158.571 155.133 158.571 155.149 158.555Z" fill="#8AA8FF"/>
<path d="M154.825 158.733L155.043 158.62C155.058 158.604 155.074 158.588 155.043 158.572L154.84 158.426C154.825 158.41 154.793 158.41 154.762 158.426L154.544 158.539C154.528 158.555 154.513 158.572 154.544 158.588L154.747 158.733C154.762 158.749 154.793 158.749 154.825 158.733Z" fill="#8AA8FF"/>
<path d="M154.479 158.912L154.698 158.799C154.713 158.783 154.729 158.766 154.698 158.75L154.495 158.604C154.479 158.588 154.448 158.588 154.417 158.604L154.199 158.718C154.183 158.734 154.167 158.75 154.199 158.766L154.401 158.912C154.433 158.912 154.464 158.912 154.479 158.912Z" fill="#8AA8FF"/>
<path d="M154.152 159.089L154.37 158.976C154.386 158.96 154.401 158.943 154.37 158.927L154.167 158.781C154.152 158.765 154.12 158.765 154.089 158.781L153.871 158.895C153.855 158.911 153.84 158.927 153.871 158.943L154.074 159.089C154.089 159.089 154.121 159.089 154.152 159.089Z" fill="#8AA8FF"/>
<path d="M155.803 158.589L156.021 158.476C156.036 158.46 156.052 158.444 156.021 158.428L155.818 158.282C155.803 158.266 155.771 158.266 155.74 158.282L155.522 158.396C155.506 158.412 155.491 158.428 155.522 158.444L155.725 158.589C155.74 158.606 155.771 158.606 155.803 158.589Z" fill="#8AA8FF"/>
<path d="M155.46 158.767L155.678 158.654C155.694 158.637 155.709 158.621 155.678 158.605L155.475 158.46C155.46 158.443 155.429 158.443 155.397 158.46L155.179 158.573C155.164 158.589 155.148 158.605 155.179 158.621L155.382 158.767C155.413 158.783 155.444 158.783 155.46 158.767Z" fill="#8AA8FF"/>
<path d="M155.136 158.946L155.354 158.833C155.369 158.817 155.385 158.801 155.354 158.785L155.151 158.639C155.136 158.623 155.104 158.623 155.073 158.639L154.855 158.752C154.839 158.768 154.824 158.785 154.855 158.801L155.058 158.946C155.073 158.962 155.104 158.962 155.136 158.946Z" fill="#8AA8FF"/>
<path d="M154.79 159.123L155.009 159.01C155.024 158.994 155.04 158.978 155.009 158.962L154.806 158.816C154.79 158.8 154.759 158.8 154.728 158.816L154.51 158.929C154.494 158.946 154.479 158.962 154.51 158.978L154.712 159.123C154.744 159.14 154.775 159.14 154.79 159.123Z" fill="#8AA8FF"/>
<path d="M154.463 159.301L154.681 159.188C154.697 159.172 154.712 159.155 154.681 159.139L154.478 158.993C154.463 158.977 154.432 158.977 154.4 158.993L154.182 159.107C154.166 159.123 154.151 159.139 154.182 159.155L154.385 159.301C154.416 159.301 154.447 159.301 154.463 159.301Z" fill="#8AA8FF"/>
<path d="M156.116 158.799L156.334 158.686C156.349 158.67 156.365 158.654 156.334 158.638L156.131 158.492C156.116 158.476 156.084 158.476 156.053 158.492L155.835 158.605C155.819 158.622 155.804 158.638 155.835 158.654L156.038 158.799C156.053 158.816 156.084 158.816 156.116 158.799Z" fill="#8AA8FF"/>
<path d="M155.772 158.977L155.991 158.864C156.006 158.848 156.022 158.831 155.991 158.815L155.788 158.67C155.772 158.654 155.741 158.654 155.71 158.67L155.492 158.783C155.476 158.799 155.46 158.815 155.492 158.831L155.694 158.977C155.726 158.993 155.757 158.993 155.772 158.977Z" fill="#8AA8FF"/>
<path d="M155.448 159.156L155.666 159.043C155.682 159.027 155.698 159.011 155.666 158.994L155.464 158.849C155.448 158.833 155.417 158.833 155.386 158.849L155.167 158.962C155.152 158.978 155.136 158.994 155.167 159.011L155.37 159.156C155.386 159.172 155.417 159.172 155.448 159.156Z" fill="#8AA8FF"/>
<path d="M155.103 159.333L155.321 159.22C155.337 159.204 155.352 159.188 155.321 159.172L155.118 159.026C155.103 159.01 155.072 159.01 155.041 159.026L154.822 159.139C154.807 159.156 154.791 159.172 154.822 159.188L155.025 159.333C155.056 159.35 155.087 159.35 155.103 159.333Z" fill="#8AA8FF"/>
<path d="M154.775 159.511L154.994 159.397C155.009 159.381 155.025 159.365 154.994 159.349L154.791 159.203C154.775 159.187 154.744 159.187 154.713 159.203L154.495 159.316C154.479 159.333 154.463 159.349 154.495 159.365L154.697 159.511C154.728 159.511 154.76 159.527 154.775 159.511Z" fill="#8AA8FF"/>
<path d="M156.428 159.008L156.646 158.895C156.661 158.879 156.677 158.863 156.646 158.847L156.443 158.701C156.428 158.685 156.396 158.685 156.365 158.701L156.147 158.814C156.131 158.831 156.116 158.847 156.147 158.863L156.35 159.008C156.365 159.025 156.396 159.025 156.428 159.008Z" fill="#8AA8FF"/>
<path d="M156.085 159.186L156.303 159.073C156.319 159.057 156.334 159.04 156.303 159.024L156.1 158.879C156.085 158.863 156.054 158.863 156.022 158.879L155.804 158.992C155.789 159.008 155.773 159.024 155.804 159.04L156.007 159.186C156.038 159.202 156.069 159.202 156.085 159.186Z" fill="#8AA8FF"/>
<path d="M155.761 159.364L155.979 159.251C155.994 159.235 156.01 159.219 155.979 159.203L155.776 159.057C155.761 159.041 155.729 159.041 155.698 159.057L155.48 159.17C155.464 159.187 155.449 159.203 155.48 159.219L155.683 159.364C155.714 159.381 155.745 159.381 155.761 159.364Z" fill="#8AA8FF"/>
<path d="M155.429 159.543L155.647 159.429C155.663 159.413 155.679 159.397 155.647 159.381L155.445 159.236C155.429 159.219 155.398 159.219 155.367 159.236L155.148 159.349C155.133 159.365 155.117 159.381 155.148 159.397L155.351 159.543C155.367 159.559 155.398 159.559 155.429 159.543Z" fill="#8AA8FF"/>
<path d="M155.088 159.719L155.306 159.606C155.322 159.59 155.337 159.574 155.306 159.558L155.103 159.412C155.088 159.396 155.057 159.396 155.025 159.412L154.807 159.525C154.791 159.542 154.776 159.558 154.807 159.574L155.01 159.719C155.041 159.736 155.072 159.736 155.088 159.719Z" fill="#8AA8FF"/>
<path d="M156.738 159.236L156.956 159.122C156.972 159.106 156.988 159.09 156.956 159.074L156.754 158.928C156.738 158.911 156.707 158.911 156.676 158.928L156.457 159.041C156.442 159.057 156.426 159.074 156.457 159.09L156.66 159.236C156.691 159.236 156.723 159.236 156.738 159.236Z" fill="#8AA8FF"/>
<path d="M156.412 159.397L156.631 159.284C156.646 159.268 156.662 159.252 156.631 159.236L156.428 159.09C156.412 159.074 156.381 159.074 156.35 159.09L156.132 159.203C156.116 159.22 156.101 159.236 156.132 159.252L156.334 159.397C156.35 159.413 156.381 159.413 156.412 159.397Z" fill="#8AA8FF"/>
<path d="M156.071 159.574L156.289 159.46C156.305 159.444 156.321 159.428 156.289 159.412L156.087 159.267C156.071 159.25 156.04 159.25 156.009 159.267L155.79 159.38C155.775 159.396 155.759 159.412 155.79 159.428L155.993 159.574C156.024 159.59 156.056 159.59 156.071 159.574Z" fill="#8AA8FF"/>
<path d="M155.74 159.751L155.958 159.638C155.973 159.622 155.989 159.606 155.958 159.59L155.755 159.444C155.74 159.428 155.708 159.428 155.677 159.444L155.459 159.557C155.443 159.574 155.428 159.59 155.459 159.606L155.662 159.751C155.677 159.767 155.708 159.767 155.74 159.751Z" fill="#8AA8FF"/>
<path d="M155.398 159.929L155.617 159.816C155.632 159.8 155.648 159.784 155.617 159.768L155.414 159.622C155.398 159.606 155.367 159.606 155.336 159.622L155.118 159.735C155.102 159.752 155.086 159.768 155.118 159.784L155.32 159.929C155.351 159.945 155.383 159.945 155.398 159.929Z" fill="#8AA8FF"/>
<path d="M157.051 159.446L157.269 159.333C157.285 159.317 157.3 159.301 157.269 159.284L157.066 159.138C157.051 159.122 157.019 159.122 156.988 159.138L156.77 159.252C156.754 159.268 156.739 159.284 156.77 159.301L156.973 159.446C157.004 159.446 157.035 159.446 157.051 159.446Z" fill="#8AA8FF"/>
<path d="M156.725 159.624L156.943 159.511C156.959 159.494 156.974 159.478 156.943 159.462L156.741 159.316C156.725 159.3 156.694 159.3 156.663 159.316L156.444 159.43C156.429 159.446 156.413 159.462 156.444 159.478L156.647 159.624C156.663 159.624 156.694 159.624 156.725 159.624Z" fill="#8AA8FF"/>
<path d="M156.384 159.786L156.602 159.672C156.618 159.656 156.633 159.64 156.602 159.624L156.399 159.478C156.384 159.462 156.352 159.462 156.321 159.478L156.103 159.592C156.087 159.608 156.072 159.624 156.103 159.64L156.306 159.786C156.337 159.802 156.368 159.802 156.384 159.786Z" fill="#8AA8FF"/>
<path d="M156.052 159.963L156.27 159.849C156.286 159.833 156.302 159.817 156.27 159.801L156.068 159.655C156.052 159.639 156.021 159.639 155.99 159.655L155.771 159.769C155.756 159.785 155.74 159.801 155.771 159.817L155.974 159.963C155.99 159.979 156.021 159.979 156.052 159.963Z" fill="#8AA8FF"/>
<path d="M155.711 160.14L155.929 160.027C155.945 160.011 155.96 159.995 155.929 159.979L155.726 159.833C155.711 159.817 155.68 159.817 155.648 159.833L155.43 159.947C155.415 159.963 155.399 159.979 155.43 159.995L155.633 160.14C155.664 160.157 155.695 160.157 155.711 160.14Z" fill="#8AA8FF"/>
<path d="M157.36 159.655L157.578 159.541C157.594 159.525 157.61 159.509 157.578 159.493L157.376 159.347C157.36 159.331 157.329 159.331 157.298 159.347L157.08 159.46C157.064 159.477 157.048 159.493 157.08 159.509L157.282 159.655C157.313 159.655 157.345 159.671 157.36 159.655Z" fill="#8AA8FF"/>
<path d="M157.032 159.833L157.25 159.719C157.266 159.703 157.282 159.687 157.25 159.671L157.048 159.525C157.032 159.508 157.001 159.508 156.97 159.525L156.751 159.638C156.736 159.654 156.72 159.671 156.751 159.687L156.954 159.833C156.97 159.833 157.001 159.833 157.032 159.833Z" fill="#8AA8FF"/>
<path d="M156.689 160.011L156.907 159.898C156.923 159.881 156.938 159.865 156.907 159.849L156.704 159.703C156.689 159.687 156.658 159.687 156.626 159.703L156.408 159.817C156.393 159.833 156.377 159.849 156.408 159.865L156.611 160.011C156.642 160.011 156.673 160.011 156.689 160.011Z" fill="#8AA8FF"/>
<path d="M156.363 160.171L156.581 160.058C156.597 160.042 156.613 160.026 156.581 160.009L156.379 159.864C156.363 159.848 156.332 159.848 156.301 159.864L156.082 159.977C156.067 159.993 156.051 160.009 156.082 160.026L156.285 160.171C156.316 160.187 156.348 160.187 156.363 160.171Z" fill="#8AA8FF"/>
<path d="M156.035 160.349L156.253 160.236C156.269 160.219 156.284 160.203 156.253 160.187L156.051 160.042C156.035 160.026 156.004 160.026 155.973 160.042L155.754 160.155C155.739 160.171 155.723 160.187 155.754 160.203L155.957 160.349C155.973 160.365 156.004 160.365 156.035 160.349Z" fill="#8AA8FF"/>
<path d="M158.012 159.688L158.23 159.575C158.246 159.559 158.262 159.542 158.23 159.526L158.028 159.381C158.012 159.365 157.981 159.365 157.95 159.381L157.731 159.494C157.716 159.51 157.7 159.526 157.731 159.542L157.934 159.688C157.95 159.704 157.981 159.704 158.012 159.688Z" fill="#8AA8FF"/>
<path d="M157.671 159.865L157.889 159.752C157.905 159.736 157.92 159.72 157.889 159.704L157.686 159.558C157.671 159.542 157.64 159.542 157.608 159.558L157.39 159.671C157.374 159.688 157.359 159.704 157.39 159.72L157.593 159.865C157.624 159.882 157.655 159.882 157.671 159.865Z" fill="#8AA8FF"/>
<path d="M157.343 160.046L157.561 159.932C157.577 159.916 157.592 159.9 157.561 159.884L157.358 159.738C157.343 159.722 157.311 159.722 157.28 159.738L157.062 159.851C157.046 159.867 157.031 159.884 157.062 159.9L157.265 160.046C157.296 160.046 157.327 160.046 157.343 160.046Z" fill="#8AA8FF"/>
<path d="M156.999 160.223L157.218 160.109C157.233 160.093 157.249 160.077 157.218 160.061L157.015 159.915C156.999 159.899 156.968 159.899 156.937 159.915L156.719 160.028C156.703 160.044 156.688 160.061 156.719 160.077L156.921 160.223C156.953 160.223 156.984 160.223 156.999 160.223Z" fill="#8AA8FF"/>
<path d="M156.674 160.4L156.892 160.286C156.908 160.27 156.923 160.254 156.892 160.238L156.689 160.092C156.674 160.076 156.642 160.076 156.611 160.092L156.393 160.205C156.377 160.221 156.362 160.238 156.393 160.254L156.596 160.4C156.627 160.4 156.658 160.4 156.674 160.4Z" fill="#8AA8FF"/>
<path d="M156.346 160.56L156.564 160.447C156.579 160.43 156.595 160.414 156.564 160.398L156.361 160.253C156.346 160.236 156.314 160.236 156.283 160.253L156.065 160.366C156.049 160.382 156.034 160.398 156.065 160.414L156.268 160.56C156.283 160.576 156.314 160.576 156.346 160.56Z" fill="#8AA8FF"/>
<path d="M158.325 159.899L158.543 159.786C158.559 159.77 158.575 159.753 158.543 159.737L158.341 159.592C158.325 159.576 158.294 159.576 158.263 159.592L158.044 159.705C158.029 159.721 158.013 159.737 158.044 159.753L158.247 159.899C158.263 159.915 158.309 159.915 158.325 159.899Z" fill="#8AA8FF"/>
<path d="M157.984 160.076L158.202 159.963C158.218 159.947 158.233 159.931 158.202 159.914L157.999 159.769C157.984 159.753 157.953 159.753 157.921 159.769L157.703 159.882C157.687 159.898 157.672 159.914 157.703 159.931L157.906 160.076C157.937 160.092 157.968 160.092 157.984 160.076Z" fill="#8AA8FF"/>
<path d="M157.656 160.255L157.874 160.141C157.889 160.125 157.905 160.109 157.874 160.093L157.671 159.947C157.656 159.931 157.624 159.931 157.593 159.947L157.375 160.061C157.359 160.077 157.344 160.093 157.375 160.109L157.578 160.255C157.609 160.271 157.64 160.271 157.656 160.255Z" fill="#8AA8FF"/>
<path d="M157.332 160.433L157.55 160.32C157.566 160.304 157.581 160.287 157.55 160.271L157.347 160.125C157.332 160.109 157.301 160.109 157.27 160.125L157.051 160.239C157.036 160.255 157.02 160.271 157.051 160.287L157.254 160.433C157.27 160.433 157.301 160.433 157.332 160.433Z" fill="#8AA8FF"/>
<path d="M156.987 160.61L157.205 160.497C157.221 160.481 157.236 160.465 157.205 160.448L157.002 160.302C156.987 160.286 156.955 160.286 156.924 160.302L156.706 160.416C156.69 160.432 156.675 160.448 156.706 160.465L156.909 160.61C156.94 160.61 156.971 160.61 156.987 160.61Z" fill="#8AA8FF"/>
<path d="M156.659 160.788L156.877 160.675C156.892 160.659 156.908 160.643 156.877 160.626L156.674 160.48C156.659 160.464 156.627 160.464 156.596 160.48L156.378 160.594C156.362 160.61 156.347 160.626 156.378 160.643L156.581 160.788C156.596 160.788 156.627 160.788 156.659 160.788Z" fill="#8AA8FF"/>
<path d="M158.638 160.11L158.856 159.996C158.871 159.98 158.887 159.964 158.856 159.948L158.653 159.802C158.638 159.786 158.606 159.786 158.575 159.802L158.357 159.915C158.341 159.932 158.326 159.948 158.357 159.964L158.56 160.11C158.575 160.11 158.606 160.11 158.638 160.11Z" fill="#8AA8FF"/>
<path d="M158.296 160.287L158.514 160.174C158.53 160.158 158.545 160.141 158.514 160.125L158.311 159.979C158.296 159.963 158.265 159.963 158.233 159.979L158.015 160.093C157.999 160.109 157.984 160.125 158.015 160.141L158.218 160.287C158.249 160.287 158.28 160.287 158.296 160.287Z" fill="#8AA8FF"/>
<path d="M157.97 160.466L158.188 160.352C158.204 160.336 158.22 160.32 158.188 160.304L157.986 160.158C157.97 160.141 157.939 160.141 157.908 160.158L157.689 160.271C157.674 160.287 157.658 160.304 157.689 160.32L157.892 160.466C157.908 160.466 157.939 160.466 157.97 160.466Z" fill="#8AA8FF"/>
<path d="M157.629 160.626L157.847 160.512C157.863 160.496 157.878 160.48 157.847 160.464L157.644 160.319C157.629 160.302 157.598 160.302 157.566 160.319L157.348 160.432C157.332 160.448 157.317 160.464 157.348 160.48L157.551 160.626C157.582 160.642 157.613 160.642 157.629 160.626Z" fill="#8AA8FF"/>
<path d="M157.298 160.804L157.516 160.69C157.532 160.674 157.547 160.658 157.516 160.642L157.313 160.496C157.298 160.48 157.267 160.48 157.235 160.496L157.017 160.61C157.001 160.626 156.986 160.642 157.017 160.658L157.22 160.804C157.235 160.82 157.267 160.82 157.298 160.804Z" fill="#8AA8FF"/>
<path d="M156.955 160.981L157.174 160.867C157.189 160.851 157.205 160.835 157.174 160.819L156.971 160.673C156.955 160.657 156.924 160.657 156.893 160.673L156.675 160.787C156.659 160.803 156.644 160.819 156.675 160.835L156.877 160.981C156.909 160.997 156.94 160.997 156.955 160.981Z" fill="#8AA8FF"/>
<path d="M158.95 160.319L159.168 160.206C159.184 160.19 159.2 160.173 159.168 160.157L158.966 160.012C158.95 159.996 158.919 159.996 158.888 160.012L158.669 160.125C158.654 160.141 158.638 160.157 158.669 160.173L158.872 160.319C158.888 160.335 158.919 160.335 158.95 160.319Z" fill="#8AA8FF"/>
<path d="M158.609 160.497L158.827 160.384C158.843 160.368 158.858 160.352 158.827 160.335L158.624 160.189C158.609 160.173 158.578 160.173 158.546 160.189L158.328 160.303C158.312 160.319 158.297 160.335 158.328 160.352L158.531 160.497C158.562 160.497 158.593 160.497 158.609 160.497Z" fill="#8AA8FF"/>
<path d="M158.281 160.675L158.499 160.562C158.514 160.546 158.53 160.53 158.499 160.513L158.296 160.367C158.281 160.351 158.249 160.351 158.218 160.367L158 160.481C157.984 160.497 157.969 160.513 158 160.53L158.203 160.675C158.218 160.675 158.249 160.675 158.281 160.675Z" fill="#8AA8FF"/>
<path d="M157.937 160.835L158.156 160.722C158.171 160.706 158.187 160.69 158.156 160.674L157.953 160.528C157.937 160.512 157.906 160.512 157.875 160.528L157.657 160.641C157.641 160.658 157.625 160.674 157.657 160.69L157.859 160.835C157.891 160.851 157.922 160.851 157.937 160.835Z" fill="#8AA8FF"/>
<path d="M157.612 161.013L157.83 160.9C157.846 160.884 157.861 160.868 157.83 160.852L157.627 160.706C157.612 160.69 157.58 160.69 157.549 160.706L157.331 160.819C157.315 160.836 157.3 160.852 157.331 160.868L157.534 161.013C157.565 161.029 157.596 161.029 157.612 161.013Z" fill="#8AA8FF"/>
<path d="M157.284 161.19L157.502 161.077C157.517 161.061 157.533 161.045 157.502 161.029L157.299 160.883C157.284 160.867 157.252 160.867 157.221 160.883L157.003 160.996C156.987 161.013 156.972 161.029 157.003 161.045L157.206 161.19C157.221 161.206 157.252 161.206 157.284 161.19Z" fill="#8AA8FF"/>
<path d="M159.261 160.527L159.479 160.414C159.494 160.398 159.51 160.382 159.479 160.366L159.276 160.22C159.261 160.204 159.229 160.204 159.198 160.22L158.98 160.334C158.964 160.35 158.949 160.366 158.98 160.382L159.183 160.527C159.198 160.544 159.229 160.544 159.261 160.527Z" fill="#8AA8FF"/>
<path d="M158.919 160.705L159.138 160.592C159.153 160.576 159.169 160.559 159.138 160.543L158.935 160.398C158.919 160.382 158.888 160.382 158.857 160.398L158.639 160.511C158.623 160.527 158.607 160.543 158.639 160.559L158.841 160.705C158.872 160.721 158.904 160.721 158.919 160.705Z" fill="#8AA8FF"/>
<path d="M158.591 160.885L158.809 160.772C158.825 160.756 158.841 160.739 158.809 160.723L158.607 160.577C158.591 160.561 158.56 160.561 158.529 160.577L158.31 160.691C158.295 160.707 158.279 160.723 158.31 160.739L158.513 160.885C158.544 160.885 158.576 160.885 158.591 160.885Z" fill="#8AA8FF"/>
<path d="M158.267 161.062L158.486 160.949C158.501 160.932 158.517 160.916 158.486 160.9L158.283 160.754C158.267 160.738 158.236 160.738 158.205 160.754L157.987 160.868C157.971 160.884 157.956 160.9 157.987 160.916L158.189 161.062C158.205 161.062 158.236 161.062 158.267 161.062Z" fill="#8AA8FF"/>
<path d="M157.922 161.222L158.14 161.109C158.156 161.093 158.172 161.077 158.14 161.061L157.938 160.915C157.922 160.899 157.891 160.899 157.86 160.915L157.642 161.028C157.626 161.044 157.61 161.061 157.642 161.077L157.844 161.222C157.875 161.238 157.907 161.238 157.922 161.222Z" fill="#8AA8FF"/>
<path d="M157.594 161.399L157.812 161.286C157.828 161.27 157.844 161.254 157.812 161.238L157.61 161.092C157.594 161.076 157.563 161.076 157.532 161.092L157.313 161.205C157.298 161.221 157.282 161.238 157.313 161.254L157.516 161.399C157.532 161.415 157.563 161.415 157.594 161.399Z" fill="#8AA8FF"/>
<path d="M159.571 160.738L159.789 160.625C159.805 160.609 159.821 160.593 159.789 160.577L159.587 160.431C159.571 160.415 159.54 160.415 159.509 160.431L159.29 160.544C159.275 160.561 159.259 160.577 159.29 160.593L159.493 160.738C159.509 160.755 159.556 160.755 159.571 160.738Z" fill="#8AA8FF"/>
<path d="M159.23 160.915L159.448 160.802C159.464 160.785 159.479 160.769 159.448 160.753L159.245 160.608C159.23 160.591 159.199 160.591 159.167 160.608L158.949 160.721C158.934 160.737 158.918 160.753 158.949 160.769L159.152 160.915C159.183 160.931 159.214 160.931 159.23 160.915Z" fill="#8AA8FF"/>
<path d="M158.902 161.094L159.12 160.981C159.136 160.965 159.151 160.949 159.12 160.932L158.917 160.787C158.902 160.771 158.87 160.771 158.839 160.787L158.621 160.9C158.605 160.916 158.59 160.932 158.621 160.949L158.824 161.094C158.855 161.11 158.886 161.11 158.902 161.094Z" fill="#8AA8FF"/>
<path d="M158.578 161.273L158.796 161.159C158.812 161.143 158.827 161.127 158.796 161.111L158.594 160.965C158.578 160.949 158.547 160.949 158.516 160.965L158.297 161.078C158.282 161.095 158.266 161.111 158.297 161.127L158.5 161.273C158.516 161.273 158.547 161.273 158.578 161.273Z" fill="#8AA8FF"/>
<path d="M158.233 161.45L158.451 161.337C158.467 161.32 158.482 161.304 158.451 161.288L158.248 161.142C158.233 161.126 158.202 161.126 158.17 161.142L157.952 161.256C157.936 161.272 157.921 161.288 157.952 161.304L158.155 161.45C158.186 161.45 158.217 161.45 158.233 161.45Z" fill="#8AA8FF"/>
<path d="M157.905 161.61L158.123 161.497C158.139 161.48 158.154 161.464 158.123 161.448L157.92 161.303C157.905 161.286 157.873 161.286 157.842 161.303L157.624 161.416C157.608 161.432 157.593 161.448 157.624 161.464L157.827 161.61C157.842 161.626 157.873 161.626 157.905 161.61Z" fill="#8AA8FF"/>
<path d="M159.886 160.949L160.104 160.836C160.12 160.82 160.136 160.804 160.104 160.787L159.902 160.642C159.886 160.626 159.855 160.626 159.824 160.642L159.605 160.755C159.59 160.771 159.574 160.787 159.605 160.804L159.808 160.949C159.839 160.965 159.87 160.965 159.886 160.949Z" fill="#8AA8FF"/>
<path d="M159.56 161.127L159.778 161.013C159.794 160.997 159.809 160.981 159.778 160.965L159.576 160.819C159.56 160.803 159.529 160.803 159.498 160.819L159.279 160.933C159.264 160.949 159.248 160.965 159.279 160.981L159.482 161.127C159.498 161.143 159.529 161.143 159.56 161.127Z" fill="#8AA8FF"/>
<path d="M159.217 161.305L159.435 161.192C159.451 161.175 159.466 161.159 159.435 161.143L159.232 160.998C159.217 160.982 159.185 160.982 159.154 160.998L158.936 161.111C158.92 161.127 158.905 161.143 158.936 161.159L159.139 161.305C159.17 161.321 159.201 161.321 159.217 161.305Z" fill="#8AA8FF"/>
<path d="M158.893 161.483L159.111 161.37C159.127 161.353 159.142 161.337 159.111 161.321L158.909 161.176C158.893 161.16 158.862 161.16 158.831 161.176L158.612 161.289C158.597 161.305 158.581 161.321 158.612 161.337L158.815 161.483C158.831 161.499 158.862 161.499 158.893 161.483Z" fill="#8AA8FF"/>
<path d="M158.547 161.661L158.765 161.548C158.781 161.531 158.797 161.515 158.765 161.499L158.563 161.353C158.547 161.337 158.516 161.337 158.485 161.353L158.267 161.466C158.251 161.483 158.235 161.499 158.267 161.515L158.469 161.661C158.5 161.661 158.532 161.661 158.547 161.661Z" fill="#8AA8FF"/>
<path d="M158.22 161.839L158.438 161.726C158.453 161.709 158.469 161.693 158.438 161.677L158.235 161.531C158.22 161.515 158.188 161.515 158.157 161.531L157.939 161.644C157.923 161.661 157.908 161.677 157.939 161.693L158.142 161.839C158.173 161.839 158.204 161.839 158.22 161.839Z" fill="#8AA8FF"/>
<path d="M157.923 159.331L154.898 157.278C154.883 157.262 154.851 157.262 154.82 157.278L154.602 157.392C154.586 157.408 154.571 157.424 154.602 157.44L157.627 159.493C157.643 159.509 157.674 159.509 157.705 159.493L157.923 159.38C157.939 159.363 157.939 159.347 157.923 159.331Z" fill="#8AA8FF"/>
<path d="M156.288 163.454L156.631 163.276L156.257 162.209H155.867L156.288 163.454Z" fill="#8AA8FF"/>
<path d="M168.622 158.703C168.622 158.703 166.61 161.693 161.215 159.527C155.82 157.361 156.881 155.535 156.881 155.535C156.881 155.535 156.35 144.593 156.881 142.039C157.411 139.486 158.066 137.821 159.266 137.062C159.266 137.062 165.192 139.292 166.377 140.601C167.078 141.377 167.359 147.421 167.873 152.189C168.201 155.422 168.622 158.703 168.622 158.703Z" fill="#FFC700"/>
<path d="M155.524 144.867L154.962 151.866L151.454 157.07L153.138 157.943L156.802 154.015L156.646 145.465L155.524 144.867Z" fill="#F89AB5"/>
<path d="M162.975 136.285L163.536 139.388C163.536 139.388 163.193 140.665 161.712 140.244C160.231 139.824 160.449 138.887 160.449 138.887L160.371 136.834L162.975 136.285Z" fill="#F89AB5"/>
<path d="M160.371 136.916C160.371 136.916 160.87 138.079 163.271 137.853L162.897 135.865L160.371 136.916Z" fill="#DB8FAA"/>
<path d="M158.36 133.586C158.937 136.398 160.09 137.869 161.572 137.546C163.069 137.206 164.721 135.784 164.082 132.681C163.63 130.483 162.055 128.98 160.558 129.319C158.017 129.869 157.907 131.388 158.36 133.586Z" fill="#F89AB5"/>
<path d="M158.064 131.517C157.768 131.372 157.627 131.016 157.737 130.677C157.955 130.03 158.469 129.028 159.639 128.721C160.98 128.366 164.145 127.428 164.738 133.037C164.738 133.037 164.738 133.134 164.738 133.732C164.738 133.732 163.459 132.697 163.178 132.261C162.898 131.824 162.321 131.517 161.557 131.501C160.902 131.485 160.59 131.566 160.075 131.97C159.795 132.196 159.421 132.229 159.109 132.067L158.064 131.517Z" fill="#0A1A4E"/>
<path d="M162.913 133.586C163.022 134.119 163.537 134.459 164.051 134.345C164.566 134.232 164.893 133.699 164.784 133.166C164.675 132.632 164.16 132.293 163.646 132.406C163.131 132.519 162.804 133.053 162.913 133.586Z" fill="#F89AB5"/>
<path d="M160.248 140.536C160.949 140.924 162.072 140.891 162.743 140.439C163.413 140.002 163.397 139.324 162.696 138.936C161.994 138.548 160.871 138.58 160.201 139.033C159.53 139.485 159.546 140.148 160.248 140.536Z" fill="#E9A71A"/>
<path d="M160.591 140.31C161.293 140.698 162.384 140.65 163.055 140.229C163.725 139.793 163.694 139.13 163.008 138.759C162.306 138.371 161.215 138.419 160.544 138.84C159.874 139.26 159.905 139.922 160.591 140.31Z" fill="#F89AB5"/>
<path d="M161.76 131.501L162.898 133.279L163.475 132.811L163.288 132.099L162.383 131.033L161.76 131.501Z" fill="#0A1A4E"/>
<path d="M163.055 146.516L161.839 154.339L162.291 153.579L157.691 158.266C157.317 158.654 157.302 159.284 157.676 159.689C158.019 160.044 158.565 160.093 158.939 159.802L164.131 155.842L164.412 155.632L164.599 155.066L167.078 147.567C167.452 146.436 166.876 145.207 165.784 144.819C164.693 144.431 163.507 145.029 163.133 146.161C163.102 146.274 163.071 146.403 163.055 146.516Z" fill="#F89AB5"/>
<path d="M166.671 148.875L166.53 149.263C166.53 149.263 164.924 150.104 162.757 148.488L162.913 147.696L166.671 148.875Z" fill="#E6E6E6"/>
<path d="M162.555 147.729C163.443 149.054 166.094 149.555 166.999 148.634L168.043 142.686C168.215 141.555 167.342 140.488 166.11 140.294C164.769 140.084 163.537 140.909 163.365 142.137L162.555 147.729Z" fill="#FFC700"/>
<path d="M158.295 157.974L157.016 158.814L157.11 160.01L157.281 160.835L157.484 161.61L159.464 159.671C159.636 159.493 159.76 159.283 159.792 159.024L159.948 158.135L158.295 157.974Z" fill="#F89AB5"/>
<path d="M155.897 160.578C156.022 160.578 156.146 160.497 156.209 160.368C156.458 159.834 157.456 159.349 157.799 159.22C157.986 159.155 158.064 158.945 158.002 158.751C157.94 158.557 157.737 158.477 157.55 158.541C157.394 158.606 155.99 159.172 155.569 160.06C155.491 160.238 155.554 160.465 155.741 160.545C155.788 160.561 155.835 160.578 155.897 160.578Z" fill="#F89AB5"/>
<path d="M156.643 159.01C156.659 159.01 156.659 159.01 156.674 159.01C157.672 158.913 158.467 158.671 158.499 158.671C158.686 158.622 158.795 158.412 158.732 158.218C158.686 158.024 158.483 157.911 158.296 157.976C158.296 157.976 157.516 158.202 156.596 158.299C156.409 158.315 156.269 158.493 156.284 158.687C156.3 158.865 156.456 159.01 156.643 159.01Z" fill="#F89AB5"/>
<path d="M156.129 161.37C156.27 161.37 156.41 161.273 156.457 161.127C156.628 160.562 157.564 159.947 157.891 159.77C158.063 159.673 158.125 159.463 158.032 159.285C157.938 159.107 157.735 159.042 157.564 159.139C157.408 159.22 156.098 159.98 155.802 160.917C155.74 161.111 155.849 161.305 156.02 161.37C156.051 161.37 156.098 161.37 156.129 161.37Z" fill="#F89AB5"/>
<path d="M156.758 161.662C156.898 161.662 157.038 161.565 157.085 161.419C157.257 160.854 158.177 160.239 158.52 160.062C158.691 159.965 158.754 159.755 158.66 159.577C158.567 159.399 158.364 159.334 158.192 159.431C158.036 159.512 156.727 160.272 156.43 161.209C156.368 161.403 156.477 161.597 156.649 161.662C156.68 161.662 156.711 161.662 156.758 161.662Z" fill="#F89AB5"/>
<path d="M157.454 161.887C157.625 161.887 157.781 161.758 157.797 161.58C157.875 161.015 158.592 160.417 158.857 160.239C159.013 160.126 159.06 159.899 158.966 159.738C158.857 159.576 158.654 159.528 158.483 159.625C158.358 159.706 157.251 160.481 157.111 161.483C157.08 161.677 157.22 161.871 157.407 161.887C157.423 161.887 157.438 161.887 157.454 161.887Z" fill="#F89AB5"/>
<path d="M156.628 163.277L154.57 157.248C154.523 157.135 154.445 157.022 154.351 156.957L147.054 152.109C146.992 152.076 146.929 152.076 146.883 152.125C146.836 152.173 146.805 152.238 146.836 152.303L148.676 158.121L156.628 163.277Z" fill="#8AA8FF"/>
<path d="M146.557 152.285L146.9 152.107C146.916 152.107 146.931 152.091 146.947 152.091C146.947 152.091 146.947 152.091 146.963 152.091C146.994 152.091 147.025 152.091 147.056 152.123L154.12 156.826L154.338 156.972C154.4 157.004 154.447 157.053 154.478 157.117L154.12 157.295L147.009 152.576L146.963 152.608L146.557 152.285Z" fill="#D2E4FF"/>
<path d="M156.287 163.453L154.228 157.424C154.182 157.311 154.104 157.198 154.01 157.133L146.713 152.284C146.65 152.252 146.588 152.252 146.541 152.301C146.494 152.349 146.463 152.414 146.494 152.478L148.334 158.297L156.287 163.453Z" fill="#AEC5FF"/>
<path d="M149.767 157.264C149.845 157.991 150.438 158.832 151.077 159.123C151.716 159.413 152.184 159.074 152.106 158.331C152.028 157.603 151.436 156.763 150.796 156.472C150.157 156.181 149.689 156.537 149.767 157.264Z" fill="#8AA8FF"/>
<path d="M149.539 132.295L154.189 135.079V104.965L149.539 102.181V132.295Z" fill="#A7D2E3"/>
<path d="M158.852 132.295L154.189 135.079V104.965L158.852 102.181V132.295Z" fill="#4596B4"/>
<path d="M149.54 102.18L154.19 104.965L158.852 102.18L154.19 99.3962L149.54 102.18Z" fill="#93C9DE"/>
<path d="M139.289 125.584L143.951 128.368V93.7888L139.289 91.0046V125.584Z" fill="#A7D2E3"/>
<path d="M148.601 125.584L143.951 128.368V93.7888L148.601 91.0046V125.584Z" fill="#4596B4"/>
<path d="M139.288 91.0044L143.951 93.7886L148.601 91.0044L143.951 88.2202L139.288 91.0044Z" fill="#93C9DE"/>
<path d="M128.925 118.636L133.588 121.42V81.3911L128.925 78.6069V118.636Z" fill="#A7D2E3"/>
<path d="M138.238 118.636L133.588 121.42V81.3911L138.238 78.6069V118.636Z" fill="#4596B4"/>
<path d="M128.925 78.6069L133.588 81.3911L138.238 78.6069L133.588 75.8228L128.925 78.6069Z" fill="#93C9DE"/>
<path d="M118.598 112.647L123.248 115.445V70.0703L118.598 67.2861V112.647Z" fill="#A7D2E3"/>
<path d="M127.898 112.647L123.248 115.445V70.0703L127.898 67.2861V112.647Z" fill="#4596B4"/>
<path d="M118.598 67.2864L123.248 70.0706L127.898 67.2864L123.248 64.5022L118.598 67.2864Z" fill="#93C9DE"/>
<path d="M108.361 106.685L113.023 109.469V58.6445L108.361 55.8604V106.685Z" fill="#A7D2E3"/>
<path d="M117.673 106.685L113.023 109.469V58.6445L117.673 55.8604V106.685Z" fill="#4596B4"/>
<path d="M108.361 55.8604L113.023 58.6446L117.673 55.8604L113.023 53.0762L108.361 55.8604Z" fill="#93C9DE"/>
<path d="M97.9199 100.368L102.583 103.153V46.9959L97.9199 44.2117V100.368Z" fill="#A7D2E3"/>
<path d="M107.232 100.368L102.582 103.153V46.9959L107.232 44.2117V100.368Z" fill="#4596B4"/>
<path d="M97.9204 44.2114L102.583 46.9956L107.233 44.2114L102.583 41.4141L97.9204 44.2114Z" fill="#93C9DE"/>
<ellipse cx="215.784" cy="199.647" rx="35.3778" ry="36.6698" fill="#00ADEE"/>
<defs>
<linearGradient id="paint0_linear" x1="20.48" y1="54.0282" x2="141.005" y2="223.295" gradientUnits="userSpaceOnUse">
<stop stop-color="#EFEFEF"/>
<stop offset="1" stop-color="#F8F8F8"/>
</linearGradient>
<linearGradient id="paint1_linear" x1="30.0343" y1="109.189" x2="32.3235" y2="109.126" gradientUnits="userSpaceOnUse">
<stop stop-color="#FCE559"/>
<stop offset="1" stop-color="#F6AA28"/>
</linearGradient>
<linearGradient id="paint2_linear" x1="71.2305" y1="108.667" x2="74.5151" y2="108.578" gradientUnits="userSpaceOnUse">
<stop stop-color="#FCE559"/>
<stop offset="1" stop-color="#F6AA28"/>
</linearGradient>
<linearGradient id="paint3_linear" x1="30.0779" y1="110.817" x2="74.5447" y2="109.611" gradientUnits="userSpaceOnUse">
<stop stop-color="#FCE559"/>
<stop offset="1" stop-color="#F6AA28"/>
</linearGradient>
<linearGradient id="paint4_linear" x1="36.207" y1="96.5775" x2="53.5639" y2="123.787" gradientUnits="userSpaceOnUse">
<stop stop-color="#FCE559"/>
<stop offset="1" stop-color="#F6AA28"/>
</linearGradient>
<linearGradient id="paint5_linear" x1="54.2193" y1="92.7928" x2="51.0782" y2="118.802" gradientUnits="userSpaceOnUse">
<stop stop-color="#FCE559"/>
<stop offset="1" stop-color="#F6AA28"/>
</linearGradient>
<linearGradient id="paint6_linear" x1="54.0273" y1="116.305" x2="54.1503" y2="93.9407" gradientUnits="userSpaceOnUse">
<stop stop-color="#FCD835"/>
<stop offset="1" stop-color="#FAA925"/>
</linearGradient>
<linearGradient id="paint7_linear" x1="53.8287" y1="115.143" x2="53.9384" y2="95.19" gradientUnits="userSpaceOnUse">
<stop stop-color="#FFC533"/>
<stop offset="1" stop-color="#F8BA26"/>
</linearGradient>
<linearGradient id="paint8_linear" x1="41.7483" y1="106.309" x2="62.6445" y2="105.742" gradientUnits="userSpaceOnUse">
<stop stop-color="#FCD835"/>
<stop offset="1" stop-color="#FAA925"/>
</linearGradient>
</defs>
</svg>
