<svg width="253" height="253" viewBox="0 0 253 253" fill="none" xmlns="http://www.w3.org/2000/svg">
<ellipse cx="84.2537" cy="219.192" rx="35.8987" ry="33.8085" fill="#005676"/>
<path d="M0.0753134 121.573C-2.44361 83.6169 58.8501 43.4863 89.8119 28.1656C198.284 -32.8932 231.501 18.7756 243.912 56.7398C250.047 75.5089 258.37 93.1059 248.294 170.995C238.218 248.884 175.525 249.247 145.438 239.692C85.6137 223.877 3.22396 169.018 0.0753134 121.573Z" fill="url(#paint0_linear)"/>
<path d="M113.439 188.75C118.663 188.75 122.897 186.447 122.897 183.607C122.897 180.766 118.663 178.464 113.439 178.464C108.216 178.464 103.981 180.766 103.981 183.607C103.981 186.447 108.216 188.75 113.439 188.75Z" fill="#D6DCEB"/>
<path d="M132.927 133.578L127.764 136.405C127.743 136.415 127.722 136.425 127.701 136.435L132.864 133.608C132.885 133.608 132.906 133.598 132.927 133.578Z" fill="#ED484F"/>
<path d="M108.861 89.0198L103.697 91.8467C99.6459 94.0608 83.9341 87.1417 83 86.7266L88.1638 83.8997C89.0979 84.3148 104.81 91.2339 108.861 89.0198Z" fill="#FB4B00"/>
<path d="M139.267 87.4579L134.103 90.2849C132.12 91.3722 119.766 87.5667 107.193 80.7365C101.882 77.8503 96.5294 74.4204 91.9219 70.5852L97.0856 67.7583C101.704 71.5935 107.046 75.0233 112.357 77.9096C124.93 84.7397 137.294 88.5353 139.267 87.4579Z" fill="#FB4B00"/>
<path d="M179.402 140.656L174.238 143.483C174.532 143.325 174.805 143.147 175.056 142.969L180.22 140.142C179.968 140.32 179.695 140.498 179.402 140.656Z" fill="#ED484F"/>
<path d="M122.401 71.346L127.565 68.519C128.3 69.1319 140.023 79.214 147.223 83.1381C149.375 84.3143 151.128 84.9272 152.062 84.5812C152.964 84.2353 154.234 84.5911 155.672 85.372C160.773 88.1495 167.584 95.7704 167.941 96.1756L162.778 99.0026C162.421 98.5973 155.609 90.9665 150.508 88.1989C149.07 87.418 147.8 87.0523 146.898 87.4082C145.964 87.7541 144.211 87.1413 142.059 85.965C134.86 82.0409 123.136 71.9588 122.401 71.346Z" fill="#FB4B00"/>
<path d="M122.401 71.3463C123.136 71.9591 134.859 82.0412 142.059 85.9653C144.211 87.1416 145.963 87.7544 146.897 87.4085C147.8 87.0625 149.07 87.4184 150.508 88.1992C155.609 90.9767 162.42 98.5976 162.777 99.0029C173.503 104.835 182.173 118.999 182.131 130.603C182.11 137.107 179.339 141.417 175.046 142.959C170.449 146.359 159.45 145.044 149.658 140.834C140.233 136.751 128.604 136.475 127.691 136.435C128.467 136.02 136.276 131.651 131.018 125.938C130.021 124.841 128.562 123.823 126.83 122.884C119.273 118.772 106.637 116.231 105.86 116.054C106.217 115.816 109.093 114.037 109.25 109.461C109.481 102.423 84.3127 87.5073 82.9902 86.7166C84.0293 87.1811 103.866 95.9091 104.611 90.5122C105.356 85.1153 92.5831 71.287 91.9114 70.5654C96.5294 74.4006 101.872 77.8305 107.182 80.7167C122.831 89.2272 138.176 93.0327 133.516 88.5551C127.491 82.7529 122.726 72.1074 122.401 71.3463Z" fill="#B73235"/>
<path d="M181.595 139.519L176.431 142.346C179.926 140.429 182.119 136.376 182.14 130.603C182.172 118.999 173.513 104.835 162.787 99.003L167.95 96.176C178.677 102.008 187.346 116.172 187.304 127.776C187.283 133.549 185.09 137.602 181.595 139.519Z" fill="#FB4B00"/>
<path d="M170.471 111.082C170.471 111.082 164.929 101.286 155.399 97.3425C145.869 93.3986 144.589 93.1614 139.331 89.682C139.331 89.682 143.886 98.4989 139.331 98.4989C134.776 98.4989 113.018 88.6738 113.018 88.6738C113.018 88.6738 126.106 99.0327 123.829 103.056C121.551 107.079 111.308 105.22 111.308 105.22C111.308 105.22 128.804 111.793 130.504 117.21C132.215 122.627 131.501 127.035 140.884 132.294C150.267 137.552 169.474 144.432 172.738 135.388C176.002 126.343 173.326 118.485 170.471 111.082Z" fill="#FFC700"/>
<path d="M171.069 123.852C171.069 123.852 171.069 113.503 162.274 107.306C153.479 101.108 155.21 107.385 149.438 105.507C143.665 103.629 136.318 103.55 136.318 103.55C136.318 103.55 149.879 112.021 147.276 115.312C144.683 118.604 137.609 111.784 139.058 116.805C139.058 116.805 148.283 132.64 156.795 132.719C165.307 132.798 171.835 140.844 171.069 123.852Z" fill="#F6D13A"/>
<path d="M190.8 141.536C190.8 148.603 188.333 153.713 184.272 156.372L184.219 156.402L182.676 157.242L178.468 159.584L177.743 158.428L142.835 103.836L141.775 102.186L147.443 99.0523L147.653 98.9238C152.208 96.3341 158.589 96.6504 165.621 100.486C179.538 108.027 190.8 126.412 190.8 141.536Z" fill="#4596B4"/>
<path d="M187.358 147.704C187.358 155.917 184.493 161.858 179.77 164.942L179.707 164.981L177.912 165.96L173.021 168.678L172.171 167.334L131.595 103.886L130.367 101.968L136.948 98.321L137.2 98.1727C142.489 95.1679 149.899 95.5237 158.086 99.9816C174.27 108.769 187.358 130.139 187.358 147.704Z" fill="#A7D2E3"/>
<ellipse rx="27.9345" ry="8.03254" transform="matrix(0.87853 0.477687 -0.522649 0.852548 151.613 167.026)" fill="#D7DCEB"/>
<path d="M172.448 169.012C183.868 162.802 183.867 142.665 172.445 124.034C161.023 105.403 142.505 95.3332 131.085 101.543C119.665 107.752 119.667 127.89 131.089 146.521C142.511 165.152 161.028 175.222 172.448 169.012Z" fill="#4596B4"/>
<path d="M178.689 149.898C178.689 166.068 166.64 172.612 151.778 164.546C149.836 163.498 147.926 162.223 146.1 160.81C145.197 160.098 144.305 159.357 143.445 158.576C141.87 157.163 140.37 155.64 138.942 154.009C136.476 151.222 134.23 148.118 132.319 144.876C127.701 137.137 124.868 128.468 124.868 120.64C124.868 104.489 136.917 97.9253 151.778 106.011C156.029 108.314 160.038 111.576 163.596 115.421C166.136 118.139 168.424 121.164 170.429 124.356C171.625 126.224 172.696 128.162 173.64 130.139C174.176 131.246 174.679 132.353 175.141 133.47C177.408 138.965 178.689 144.619 178.689 149.898Z" fill="#005676"/>
<path d="M151.788 107.949C137.902 100.397 126.672 106.525 126.672 121.609C126.672 136.702 137.913 155.058 151.788 162.6C165.652 170.141 176.903 164.023 176.903 148.919C176.903 133.846 165.652 115.49 151.788 107.949ZM151.788 161.166C138.637 154.01 127.973 136.623 127.973 122.321C127.973 108.038 138.637 102.235 151.788 109.392C164.939 116.548 175.581 133.925 175.581 148.208C175.581 162.511 164.939 168.323 151.788 161.166Z" fill="#00ADEE"/>
<path d="M153.709 138.422C152.639 139.005 150.917 138.066 149.847 136.327C148.776 134.587 148.776 132.709 149.847 132.126C150.917 131.543 152.639 132.482 153.709 134.221C154.769 135.961 154.769 137.839 153.709 138.422Z" fill="#FFC700"/>
<path d="M154.938 136.268L152.492 134.943V132.294L162.935 129.27L154.938 136.268Z" fill="#FFC700"/>
<path d="M152.366 114.264L151.19 113.631V110.033L152.366 110.666V114.264Z" fill="#FFC700"/>
<path d="M144.809 111.546L143.738 111.437L142.468 107.424L143.549 107.523L144.809 111.546Z" fill="#D7DAFF"/>
<path d="M135.975 108.61L135.148 109.06L137.488 112.877L138.316 112.428L135.975 108.61Z" fill="#FFC700"/>
<path d="M133.883 116.795L133.443 117.724L130.378 114.68L130.829 113.751L133.883 116.795Z" fill="#FFC700"/>
<path d="M132.172 123.981V125.246L128.855 123.447V122.172L132.172 123.981Z" fill="#FFC700"/>
<path d="M133.443 132.877L133.883 134.29L130.829 134.004L130.378 132.59L133.443 132.877Z" fill="#FFC700"/>
<path d="M137.491 142.149L135.146 143.424L135.97 144.768L138.315 143.493L137.491 142.149Z" fill="#FFC700"/>
<path d="M158.746 119.118L159.817 120.185L161.087 117.546L160.006 116.479L158.746 119.118Z" fill="#FFC700"/>
<path d="M167.571 125.798L165.226 127.073L166.05 128.417L168.395 127.142L167.571 125.798Z" fill="#FFC700"/>
<path d="M169.672 136.257L170.113 137.671L173.178 137.957L172.727 136.544L169.672 136.257Z" fill="#FFC700"/>
<path d="M171.384 145.302V146.567L174.7 148.376V147.101L171.384 145.302Z" fill="#FFC700"/>
<path d="M170.113 152.823L169.672 153.752L172.727 156.787L173.178 155.858L170.113 152.823Z" fill="#FFC700"/>
<path d="M166.045 157.667L165.218 158.117L167.558 161.934L168.385 161.485L166.045 157.667Z" fill="#FFC700"/>
<path d="M152.986 117.921C152.986 118.623 152.461 118.91 151.821 118.554C151.181 118.208 150.656 117.348 150.656 116.656C150.656 115.954 151.181 115.668 151.821 116.024C152.461 116.37 152.986 117.22 152.986 117.921Z" fill="#FFC700"/>
<path d="M140.914 115.707C141.365 116.449 141.365 117.249 140.914 117.496C140.463 117.744 139.718 117.338 139.266 116.597C138.815 115.856 138.815 115.055 139.266 114.808C139.728 114.561 140.463 114.966 140.914 115.707Z" fill="#D7DAFF"/>
<path d="M135.216 124.959C135.857 125.305 136.381 126.165 136.381 126.857C136.381 127.559 135.857 127.846 135.216 127.49C134.576 127.144 134.051 126.284 134.051 125.592C134.051 124.89 134.576 124.614 135.216 124.959Z" fill="#FFC700"/>
<path d="M139.215 140.25C139.667 140.003 140.412 140.409 140.863 141.15C141.315 141.891 141.315 142.692 140.863 142.939C140.412 143.186 139.667 142.781 139.215 142.04C138.764 141.298 138.764 140.498 139.215 140.25Z" fill="#FFC700"/>
<path d="M162.713 127.559C162.262 127.806 162.262 128.607 162.713 129.348C163.165 130.09 163.91 130.495 164.361 130.248C164.813 130.001 164.813 129.2 164.361 128.459C163.91 127.717 163.165 127.312 162.713 127.559Z" fill="#FFC700"/>
<path d="M168.413 143.008C167.772 142.662 167.248 142.939 167.248 143.641C167.248 144.343 167.772 145.193 168.413 145.539C169.053 145.885 169.578 145.608 169.578 144.906C169.578 144.214 169.053 143.364 168.413 143.008Z" fill="#FFC700"/>
<path d="M164.414 153.951C163.963 153.209 163.218 152.804 162.766 153.051C162.315 153.298 162.315 154.099 162.766 154.84C163.218 155.581 163.963 155.987 164.414 155.74C164.865 155.502 164.865 154.692 164.414 153.951Z" fill="#FFC700"/>
<path d="M157.719 152.477L145.922 146.062V138.194L157.719 144.609V152.477Z" fill="#2C353B"/>
<path d="M157.895 158.883L145.657 152.23C145.122 151.944 144.692 151.153 144.692 150.481V148.988C144.692 148.316 145.122 148.01 145.657 148.296L157.895 154.949C158.43 155.235 158.861 156.026 158.861 156.698V158.191C158.861 158.863 158.43 159.179 157.895 158.883Z" fill="#2C353B"/>
<path d="M153.92 148.484L149.721 146.201C148.84 145.717 148.126 144.432 148.126 143.325C148.126 142.218 148.84 141.704 149.721 142.188L153.92 144.471C154.801 144.955 155.515 146.24 155.515 147.348C155.515 148.455 154.801 148.969 153.92 148.484Z" fill="#D7DAFF"/>
<path opacity="0.3" d="M170.438 124.356L138.952 154.009C136.485 151.222 134.239 148.118 132.329 144.876L163.606 115.421C166.146 118.139 168.434 121.164 170.438 124.356Z" fill="white"/>
<path opacity="0.3" d="M175.151 133.47L146.109 160.81C145.207 160.099 144.315 159.357 143.454 158.577L173.65 130.139C174.185 131.246 174.689 132.343 175.151 133.47Z" fill="white"/>
<path d="M113.065 133.582C113.065 133.582 113.576 133.819 114.278 134.928C114.771 135.703 114.771 136.543 114.771 136.543H113.55L112.519 134.235L113.065 133.582Z" fill="#A3AAC6"/>
<path d="M111.891 134.186C110.409 134.936 107.967 136.176 107.109 136.527C106.944 136.592 106.762 136.503 106.728 136.331C106.416 134.675 105.619 127.651 105.16 126.672C104.926 126.174 101.218 127.977 101.218 127.977C101.01 128.206 100.898 128.5 100.933 128.801C100.959 129.103 100.716 129.479 100.933 129.642C101.773 133.598 103.67 141.251 105.55 141.577C106.901 141.814 111.484 138.803 113.641 137.327C112.887 136.78 111.925 135.197 111.891 134.186Z" fill="#00ADEE"/>
<path d="M113.061 133.582C113.061 133.582 112.576 133.827 111.883 134.186C111.917 135.197 112.879 136.78 113.624 137.343C114.317 136.87 114.759 136.552 114.759 136.552C114.014 136.34 112.61 134.324 113.061 133.582Z" fill="#A3AAC6"/>
<path d="M117.602 127.857L111.304 131.283C110.94 131.487 110.784 131.985 110.706 132.254C110.109 134.334 108.376 140.583 108.376 140.583C108.272 141.024 108.905 141.334 109.329 141.097L115.627 137.646C115.991 137.442 116.216 137.075 116.216 136.676L118.546 128.37C118.555 127.914 118.026 127.628 117.602 127.857Z" fill="#778CBF"/>
<path d="M117.982 127.995L111.684 131.421C111.321 131.625 111.165 132.123 111.087 132.392C110.489 134.472 108.756 140.722 108.756 140.722C108.653 141.17 109.285 141.472 109.709 141.236L115.816 137.883C116.302 137.613 116.518 137.083 116.596 136.814C117.194 134.742 118.277 130.883 118.874 128.762C119.039 128.174 118.398 127.766 117.982 127.995Z" fill="#A3B4DB"/>
<path d="M118.042 131.896L116.786 132.614C116.544 132.761 116.344 132.965 116.197 133.201L115.989 133.552C115.703 134.025 115.877 134.621 116.379 134.898L117.081 135.282L117.618 134.947C118.64 134.319 118.891 133.014 118.181 132.075L118.042 131.896Z" fill="#FCBAC0"/>
<path d="M93.1633 177.899C93.5358 176.757 94.48 176.023 95.277 176.26C96.0739 176.488 96.1692 177.54 96.0393 178.74C96.0133 178.96 95.8747 179.156 95.7707 179.335C95.5455 179.719 95.4415 180.151 95.4415 180.584C95.4415 180.918 95.3896 181.277 95.2683 181.644C95.0171 182.419 94.1941 182.933 93.5877 183.219C93.0766 183.455 92.4703 183.251 92.2277 182.762C91.8899 182.093 91.7253 181.073 92.2017 180.265C92.3923 179.923 93.094 178.112 93.1633 177.899Z" fill="#292D4C"/>
<path d="M102.621 177.271C102.812 177.402 103.089 177.712 103.297 177.907C103.765 178.372 104.423 178.642 105.082 178.862C106 179.164 106.745 179.229 107.273 179.107C107.784 178.984 108.001 178.413 107.698 177.997C107.403 177.597 106.866 177.075 106.138 176.472C105.723 176.129 105.333 175.819 105.03 175.566C104.588 175.215 104.311 174.718 104.259 174.171C104.233 173.877 104.189 173.608 104.137 173.592C103.011 173.192 101.417 173.412 101.123 173.926C101.123 173.926 100.802 175.501 100.802 175.884C100.802 176.129 100.88 176.545 101.365 176.716C101.677 176.839 102.162 176.969 102.621 177.271Z" fill="#292D4C"/>
<path d="M92.4957 148.962C92.487 158.964 92.4697 169.806 93.0501 177.279C93.1107 178.087 95.9694 178.356 96.2292 177.418C97.5026 172.898 98.7327 151.703 98.7327 151.703C98.7674 151.328 99.0013 151.002 99.3564 150.83L99.5903 150.716C100.24 150.39 100.344 150.814 100.344 151.508L100.101 159.274C100.101 159.274 100.049 169.766 100.959 174.334C101.106 175.069 104.372 175.069 104.459 174.22C105.342 165.85 105.455 147.11 105.455 147.11L105.334 143.137C105.334 142.99 104.381 142.958 103.003 142.974C101.34 143.007 99.0446 143.121 97.0522 143.235C94.6786 143.374 92.7209 143.521 92.7209 143.521C92.5563 144.989 92.4957 146.033 92.4957 148.962Z" fill="#343B65"/>
<path d="M99.2266 150.897L100.457 150.293C100.769 150.138 101.15 150.366 101.011 151.109L100.11 160.923L99.2266 150.897Z" fill="#292D4C"/>
<path d="M92.6609 134.987L92.4617 141.465L92.557 143.888L92.5743 144.279C92.5916 144.687 92.8082 145.062 93.172 145.274C94.5407 146.082 96.8623 146.539 99.9895 146.188C101.921 145.968 103.68 145.495 104.719 145.013C105.126 144.826 105.369 144.418 105.334 143.994L105.066 140.396C105.031 139.947 104.962 139.498 104.893 139.058C104.737 137.948 104.702 136.814 104.797 135.697L105.49 127.71C105.49 125.148 103.091 123.378 101.116 123.565C100.691 123.606 100.258 123.704 99.8422 123.875C99.6863 123.933 98.4822 123.313 98.3176 123.386L96.845 124.185L95.1125 125.132C95.0691 125.156 95.0172 125.181 94.9739 125.205C94.8006 125.295 94.636 125.393 94.4714 125.483C92.3664 126.682 90.3394 128.093 90.3394 130.435L92.6609 134.987Z" fill="#00ADEE"/>
<path d="M92.4624 141.464L92.549 143.741C94.6367 144.434 98.7428 145.919 101.29 145.527L100.276 143.512L92.4624 141.464Z" fill="#0096CE"/>
<path d="M96.2689 124.545L96.2862 124.488V119.585H99.8379V124.284C99.8379 124.284 100.054 124.349 100.158 124.39C100.86 124.659 100.444 126.046 100.167 126.242C99.7253 126.568 98.218 126.119 96.9273 125.744C96.3902 125.589 96.0956 125.051 96.2689 124.545Z" fill="#FCBAC0"/>
<path d="M96.8853 141.236C96.2529 141.163 95.274 141.873 94.7283 141.669L94.0093 139.923L94.5724 131.716L95.8457 138.373L96.8939 141.228L96.8853 141.236Z" fill="#0096CE"/>
<path d="M105.238 145.16C105.22 145.16 105.203 145.16 105.186 145.152C105.099 145.127 105.047 145.038 105.073 144.948L107.048 138.78C107.074 138.699 107.169 138.65 107.265 138.674C107.351 138.699 107.403 138.789 107.377 138.878L105.402 145.046C105.376 145.111 105.316 145.16 105.238 145.16Z" fill="#343B65"/>
<path d="M100.795 145.47C98.8026 144.727 93.2325 142.965 91.578 141.668C90.8157 141.072 90.755 130.059 90.755 130.059C90.7291 129.781 90.9456 129.545 91.2401 129.52L93.4491 129.373C93.7436 129.357 93.9862 129.561 94.0035 129.838C94.0642 130.956 94.2288 138.046 94.2634 139.335C94.2721 139.637 94.48 139.889 94.7831 139.979C96.1865 140.387 99.1404 142.614 101.462 143.316C101.679 143.381 101.809 143.397 101.93 143.414C103.073 143.569 105.637 141.464 105.889 142.525C105.889 142.525 108.167 143.667 106.807 144.85C106.573 145.054 104.771 145.674 104.217 145.657C103.099 145.641 101.055 145.568 100.795 145.47Z" fill="#FCBAC0"/>
<path d="M101.461 143.325C100.855 143.504 100.439 144.981 100.794 145.47C100.794 145.47 93.0757 144.116 91.2219 141.946C90.321 140.886 90.4336 133.853 90.3383 130.5C90.3037 129.399 91.2739 128.501 92.4433 128.55C93.4828 128.591 94.3231 129.374 94.3751 130.353C94.4964 132.556 94.6869 138.454 94.7129 139.327C94.7129 139.441 94.7995 139.515 94.9035 139.572C95.3713 139.809 101.461 143.325 101.461 143.325Z" fill="#00ADEE"/>
<path d="M101.548 139.849L102.267 138.536C102.102 137.002 100.318 128.574 99.5122 127.016C99.4602 126.918 99.4775 126.812 99.5468 126.731L99.9193 126.274L99.4516 125.54C99.0357 125.711 98.7152 125.768 98.5853 125.784L98.2734 126.837L98.8625 126.992C98.9578 127.016 99.0357 127.09 99.0617 127.179C99.6075 129.064 100.309 137.907 100.352 139.588C100.985 139.727 100.898 139.71 101.548 139.849Z" fill="white"/>
<path d="M98.4139 127.343L98.5785 125.784C98.5785 125.784 97.5823 125.548 97.1059 125.213C96.6295 124.879 96.3176 124.161 96.3176 124.161L95.5293 124.903C95.8671 126.519 98.4139 127.343 98.4139 127.343Z" fill="#0096CE"/>
<path d="M99.8778 126.984L99.436 125.54L99.6093 125.352C99.7566 125.197 99.8085 125.001 99.8172 124.797L99.8432 123.827L100.008 123.818C100.068 123.875 100.138 123.965 100.216 124.071C100.519 124.479 100.675 124.977 100.605 125.466C100.476 126.396 99.8778 126.984 99.8778 126.984Z" fill="#0096CE"/>
<path d="M99.8422 120.228V124.079C99.8422 124.478 98.9759 124.731 98.2656 124.462C97.1828 124.046 96.2905 123.247 96.2905 122.382V120.228H99.8422Z" fill="#EF9B9B"/>
<path d="M102.13 121.445C101.576 124.178 99.6613 124.455 97.8421 123.656C96.6207 123.117 95.5639 122.285 95.2867 121.078C95.1047 120.303 94.4724 119.56 94.4117 118.916C94.1952 116.436 95.8411 114.796 98.024 114.624C102.996 114.249 102.321 120.498 102.13 121.445Z" fill="#FCBAC0"/>
<path d="M93.4626 116.745C93.6619 114.616 96.3126 112.617 99.5265 113.4C101.216 113.808 102.706 114.053 102.957 115.236C103.295 116.794 102.047 117.7 102.047 117.7L101.995 117.496C101.909 117.137 101.536 116.925 101.146 116.957C100.332 117.022 99.1626 116.973 98.2791 117.357C97.8633 117.536 97.3782 117.463 97.0057 117.21L96.278 116.712L97.049 117.553C97.2655 117.789 97.3175 118.124 97.1962 118.409C97.1702 118.466 97.1529 118.54 97.1356 118.605L94.9613 117.357C94.4502 117.063 93.7918 117.414 93.7918 117.977V119.282C93.5233 118.703 93.3587 117.887 93.4626 116.745Z" fill="#343B65"/>
<path d="M94.9649 117.366L97.1392 118.614C97.0785 118.793 97.0352 118.989 97.0179 119.209C96.9832 119.609 96.5674 119.878 96.1603 119.756C95.9091 119.683 95.6752 119.576 95.5626 119.438C95.2854 119.103 94.8436 119.046 94.8003 119.291C94.679 119.935 94.6877 120.278 94.7396 120.458C94.4278 120.245 94.064 119.886 93.7954 119.299V117.994C93.7954 117.423 94.4538 117.072 94.9649 117.366Z" fill="#343B65"/>
<path d="M96.1578 119.536C96.6082 120.131 96.6342 120.841 96.2271 121.119C95.8112 121.396 95.1182 121.135 94.6678 120.531C94.2173 119.936 94.1914 119.226 94.5985 118.948C95.0056 118.671 95.7073 118.932 96.1578 119.536Z" fill="#FCBAC0"/>
<defs>
<linearGradient id="paint0_linear" x1="30.7629" y1="167.85" x2="247.626" y2="134.787" gradientUnits="userSpaceOnUse">
<stop stop-color="#EFEFEF"/>
<stop offset="1" stop-color="#F8F8F8"/>
</linearGradient>
</defs>
</svg>
