<svg xmlns="http://www.w3.org/2000/svg" viewBox="0 0 242 257">
  <circle cx="81.204" cy="222.204" r="34.204" fill="#005676"/>
  <path d="M1 123.444c-2.4-38.4 56-79 85.5-94.5 103.35-61.773 135-9.5 146.824 28.909 5.846 18.988 13.776 36.79 4.176 115.591-9.6 78.8-69.334 79.167-98 69.5-57-16-135.5-71.5-138.5-119.5z" fill="url(#Top_5_Health_USA__paint0_linear)"/>
  <path d="M109.011 191.406c4.977 0 9.012-2.329 9.012-5.203 0-2.873-4.035-5.203-9.012-5.203-4.976 0-9.011 2.33-9.011 5.203 0 2.874 4.035 5.203 9.011 5.203z" fill="#D6DCEB"/>
  <path d="M127.58 135.59l-4.92 2.86-.06.03 4.92-2.86c.02 0 .04-.01.06-.03z" fill="#ED484F"/>
  <path d="M104.65 90.51l-4.92 2.86c-3.86 2.24-18.83-4.76-19.72-5.18l4.92-2.86c.89.42 15.86 7.42 19.72 5.18zm28.97-1.58l-4.92 2.86c-1.89 1.1-13.66-2.75-25.64-9.66C98 79.21 92.9 75.74 88.51 71.86L93.43 69c4.4 3.88 9.49 7.35 14.55 10.27 11.98 6.91 23.76 10.75 25.64 9.66z" fill="#FB4B00"/>
  <path d="M171.859 142.75l-4.92 2.86c.28-.16.54-.34.78-.52l4.92-2.86c-.24.18-.5.36-.78.52z" fill="#ED484F"/>
  <path d="M117.551 72.63l4.92-2.86c.7.62 11.87 10.82 18.73 14.79 2.05 1.19 3.72 1.81 4.61 1.46.86-.35 2.07.01 3.44.8 4.86 2.81 11.35 10.52 11.69 10.93l-4.92 2.86c-.34-.41-6.83-8.13-11.69-10.93-1.37-.79-2.58-1.16-3.44-.8-.89.35-2.56-.27-4.61-1.46-6.86-3.97-18.03-14.17-18.73-14.79z" fill="#FB4B00"/>
  <path d="M117.55 72.63c.7.62 11.87 10.82 18.73 14.79 2.05 1.19 3.72 1.81 4.61 1.46.86-.35 2.07.01 3.44.8 4.86 2.81 11.35 10.52 11.69 10.93 10.22 5.9 18.48 20.23 18.44 31.97-.02 6.58-2.66 10.94-6.75 12.5-4.38 3.44-14.86 2.11-24.19-2.15-8.98-4.13-20.06-4.41-20.93-4.45.74-.42 8.18-4.84 3.17-10.62-.95-1.11-2.34-2.14-3.99-3.09-7.2-4.16-19.24-6.73-19.98-6.91.34-.24 3.08-2.04 3.23-6.67.22-7.12-23.76-22.21-25.02-23.01.99.47 19.89 9.3 20.6 3.84.71-5.46-11.46-19.45-12.1-20.18 4.4 3.88 9.49 7.35 14.55 10.27 14.91 8.61 29.53 12.46 25.09 7.93-5.74-5.87-10.28-16.64-10.59-17.41z" fill="#B73235"/>
  <path d="M173.949 141.6l-4.92 2.86c3.33-1.94 5.42-6.04 5.44-11.88.03-11.74-8.22-26.07-18.44-31.97l4.92-2.86c10.22 5.9 18.48 20.23 18.44 31.97-.02 5.84-2.11 9.94-5.44 11.88z" fill="#FB4B00"/>
  <path d="M163.35 112.83s-5.28-9.91-14.36-13.9c-9.08-3.99-10.3-4.23-15.31-7.75 0 0 4.34 8.92 0 8.92s-25.07-9.94-25.07-9.94 12.47 10.48 10.3 14.55-11.93 2.19-11.93 2.19 16.67 6.65 18.29 12.13c1.63 5.48.95 9.94 9.89 15.26 8.94 5.32 27.24 12.28 30.35 3.13 3.11-9.15.56-17.1-2.16-24.59z" fill="#FFC700"/>
  <path d="M163.921 125.75s0-10.47-8.38-16.74c-8.38-6.27-6.73.08-12.23-1.82-5.5-1.9-12.5-1.98-12.5-1.98s12.92 8.57 10.44 11.9c-2.47 3.33-9.21-3.57-7.83 1.51 0 0 8.79 16.02 16.9 16.1 8.11.08 14.33 8.22 13.6-8.97z" fill="#F6D13A"/>
  <path d="M182.72 143.64c0 7.15-2.35 12.32-6.22 15.01l-.05.03-1.47.85-4.01 2.37-.69-1.17-33.26-55.23-1.01-1.67 5.4-3.17.2-.13c4.34-2.62 10.42-2.3 17.12 1.58 13.26 7.63 23.99 26.23 23.99 41.53z" fill="#4596B4"/>
  <path d="M179.441 149.88c0 8.31-2.73 14.32-7.23 17.44l-.06.04-1.71.99-4.66 2.75-.81-1.36-38.66-64.19-1.17-1.94 6.27-3.69.24-.15c5.04-3.04 12.1-2.68 19.9 1.83 15.42 8.89 27.89 30.51 27.89 48.28z" fill="#A7D2E3"/>
  <ellipse cx="145.383" cy="169.428" rx="27" ry="8" transform="rotate(30 145.383 169.428)" fill="#D7DCEB"/>
  <path d="M165.235 171.438c10.88-6.282 10.879-26.655-.004-45.504-10.883-18.849-28.526-29.037-39.406-22.754-10.881 6.282-10.88 26.655.003 45.504 10.883 18.849 28.526 29.036 39.407 22.754z" fill="#4596B4"/>
  <path d="M171.18 152.1c0 16.36-11.48 22.98-25.64 14.82-1.85-1.06-3.67-2.35-5.41-3.78-.86-.72-1.71-1.47-2.53-2.26-1.5-1.43-2.93-2.97-4.29-4.62a59.993 59.993 0 01-6.31-9.24c-4.4-7.83-7.1-16.6-7.1-24.52 0-16.34 11.48-22.98 25.64-14.8 4.05 2.33 7.87 5.63 11.26 9.52 2.42 2.75 4.6 5.81 6.51 9.04 1.14 1.89 2.16 3.85 3.06 5.85.51 1.12.99 2.24 1.43 3.37 2.16 5.56 3.38 11.28 3.38 16.62z" fill="#005676"/>
  <path d="M145.549 109.66c-13.23-7.64-23.93-1.44-23.93 13.82 0 15.27 10.71 33.84 23.93 41.47 13.21 7.63 23.93 1.44 23.93-13.84 0-15.25-10.72-33.82-23.93-41.45zm0 53.84c-12.53-7.24-22.69-24.83-22.69-39.3 0-14.45 10.16-20.32 22.69-13.08 12.53 7.24 22.67 24.82 22.67 39.27 0 14.47-10.14 20.35-22.67 13.11z" fill="#00ADEE"/>
  <path d="M147.381 140.49c-1.02.59-2.66-.36-3.68-2.12-1.02-1.76-1.02-3.66 0-4.25 1.02-.59 2.66.36 3.68 2.12 1.01 1.76 1.01 3.66 0 4.25z" fill="#FFC700"/>
  <path d="M148.551 138.31l-2.33-1.34v-2.68l9.95-3.06-7.62 7.08zm-2.451-22.26l-1.12-.64v-3.64l1.12.64v3.64z" fill="#FFC700"/>
  <path d="M138.9 113.3l-1.02-.11-1.21-4.06 1.03.1 1.2 4.07z" fill="#D7DAFF"/>
  <path d="M130.483 110.329l-.788.455 2.23 3.863.788-.455-2.23-3.863zm-1.993 8.281l-.42.94-2.92-3.08.43-.94 2.91 3.08zm-1.631 7.27v1.28l-3.16-1.82v-1.29l3.16 1.83zm1.211 9l.42 1.43-2.91-.29-.43-1.43 2.92.29zm3.858 9.381l-2.235 1.29.785 1.359 2.235-1.29-.785-1.359zm20.252-23.301l1.02 1.08 1.21-2.67-1.03-1.08-1.2 2.67zm8.408 6.759l-2.234 1.29.785 1.359 2.234-1.29-.785-1.359zm2.002 10.581l.42 1.43 2.92.29-.43-1.43-2.91-.29zm1.631 9.15v1.28l3.16 1.83v-1.29l-3.16-1.82zm-1.211 7.61l-.42.94 2.91 3.07.43-.94-2.92-3.07zm-3.876 4.9l-.788.455 2.23 3.862.788-.455-2.23-3.862zm-12.443-40.21c0 .71-.5 1-1.11.64-.61-.35-1.11-1.22-1.11-1.92 0-.71.5-1 1.11-.64.61.35 1.11 1.21 1.11 1.92z" fill="#FFC700"/>
  <path d="M135.189 117.51c.43.75.43 1.56 0 1.81s-1.14-.16-1.57-.91c-.43-.75-.43-1.56 0-1.81.44-.25 1.14.16 1.57.91z" fill="#D7DAFF"/>
  <path d="M129.76 126.87c.61.35 1.11 1.22 1.11 1.92 0 .71-.5 1-1.11.64-.61-.35-1.11-1.22-1.11-1.92 0-.71.5-.99 1.11-.64zm3.811 15.47c.43-.25 1.14.16 1.57.91.43.75.43 1.56 0 1.81s-1.14-.16-1.57-.91c-.43-.75-.43-1.56 0-1.81zm22.388-12.84c-.43.25-.43 1.06 0 1.81s1.14 1.16 1.57.91c.43-.25.43-1.06 0-1.81s-1.14-1.16-1.57-.91zm5.43 15.63c-.61-.35-1.11-.07-1.11.64s.5 1.57 1.11 1.92c.61.35 1.11.07 1.11-.64 0-.7-.5-1.56-1.11-1.92zm-3.809 11.07c-.43-.75-1.14-1.16-1.57-.91-.43.25-.43 1.06 0 1.81s1.14 1.16 1.57.91c.43-.24.43-1.06 0-1.81z" fill="#FFC700"/>
  <path d="M151.201 154.71l-11.24-6.49v-7.96l11.24 6.49v7.96zm.168 6.48l-11.66-6.73c-.51-.29-.92-1.09-.92-1.77v-1.51c0-.68.41-.99.92-.7l11.66 6.73c.51.29.92 1.09.92 1.77v1.51c0 .68-.41 1-.92.7z" fill="#2C353B"/>
  <path d="M147.581 150.67l-4-2.31c-.84-.49-1.52-1.79-1.52-2.91s.68-1.64 1.52-1.15l4 2.31c.84.49 1.52 1.79 1.52 2.91s-.68 1.64-1.52 1.15z" fill="#D7DAFF"/>
  <path opacity=".3" d="M163.32 126.26l-30 30a59.993 59.993 0 01-6.31-9.24l29.8-29.8c2.42 2.75 4.6 5.81 6.51 9.04zm4.489 9.22l-27.67 27.66c-.86-.72-1.71-1.47-2.53-2.26l28.77-28.77c.51 1.12.99 2.23 1.43 3.37z" fill="#fff"/>
  <path d="M108.655 135.594s.487.239 1.155 1.361c.471.784.471 1.635.471 1.635h-1.164l-.982-2.336.52-.66z" fill="#A3AAC6"/>
  <path d="M107.536 136.204c-1.411.76-3.739 2.014-4.556 2.369a.262.262 0 01-.363-.198c-.297-1.675-1.057-8.782-1.494-9.772-.223-.504-3.755 1.32-3.755 1.32a1.103 1.103 0 00-.273.834c.025.305-.206.685 0 .85.8 4.003 2.608 11.745 4.399 12.075 1.288.24 5.654-2.806 7.709-4.3-.718-.553-1.634-2.154-1.667-3.178z" fill="#00ADEE"/>
  <path d="M108.652 135.594s-.462.247-1.123.61c.033 1.024.949 2.625 1.659 3.194a53.22 53.22 0 001.081-.8c-.709-.215-2.046-2.253-1.617-3.004z" fill="#A3AAC6"/>
  <path d="M112.978 129.801l-6.001 3.467c-.346.206-.495.709-.569.982-.57 2.104-2.22 8.427-2.22 8.427-.099.445.503.759.907.52l6.001-3.492a1.14 1.14 0 00.561-.982l2.22-8.402c.009-.462-.495-.751-.899-.52z" fill="#778CBF"/>
  <path d="M113.34 129.941l-6 3.467c-.347.206-.496.71-.57.982-.569 2.105-2.22 8.427-2.22 8.427-.099.454.503.759.908.52l5.819-3.392c.462-.273.668-.809.742-1.082.57-2.096 1.602-6 2.171-8.146.157-.594-.454-1.007-.85-.776z" fill="#A3B4DB"/>
  <path d="M113.398 133.888l-1.197.726a1.757 1.757 0 00-.561.595l-.198.354a1 1 0 00.371 1.362l.669.388.511-.338a2.046 2.046 0 00.537-2.905l-.132-.182z" fill="#FCBAC0"/>
  <path d="M89.693 180.429c.355-1.155 1.254-1.898 2.014-1.659.759.231.85 1.296.726 2.509-.025.223-.157.421-.256.603a2.603 2.603 0 00-.314 1.263c0 .338-.05.701-.165 1.073-.239.784-1.023 1.304-1.6 1.593a.957.957 0 01-1.297-.463c-.322-.676-.478-1.708-.024-2.525.181-.347.85-2.179.916-2.394zm9.011-.636c.182.132.446.446.644.644.445.471 1.073.743 1.7.966.875.305 1.585.371 2.088.247.487-.123.693-.701.405-1.122-.281-.405-.793-.933-1.486-1.544-.396-.346-.768-.66-1.057-.916a2.084 2.084 0 01-.734-1.411c-.025-.297-.066-.57-.116-.586-1.073-.405-2.591-.182-2.872.338 0 0-.305 1.593-.305 1.981 0 .248.074.669.536.842.297.124.76.256 1.197.561z" fill="#292D4C"/>
  <path d="M89.057 151.154c-.008 10.119-.025 21.088.528 28.648.058.817 2.782 1.089 3.03.14C93.827 175.37 95 153.927 95 153.927c.033-.38.255-.71.594-.883l.223-.116c.619-.33.718.099.718.801l-.231 7.857s-.05 10.614.817 15.236c.14.743 3.252.743 3.334-.115.842-8.468.949-27.427.949-27.427l-.115-4.02c0-.148-.908-.181-2.22-.165-1.585.033-3.772.149-5.67.265-2.262.14-4.127.288-4.127.288-.157 1.486-.215 2.543-.215 5.506z" fill="#343B65"/>
  <path d="M95.469 153.11l1.172-.61c.297-.157.66.074.528.825l-.858 9.929-.842-10.144z" fill="#292D4C"/>
  <path d="M89.214 137.015l-.19 6.553.09 2.451.017.397c.017.412.223.792.57 1.007 1.304.817 3.516 1.279 6.496.924 1.84-.223 3.516-.702 4.506-1.189.388-.189.619-.602.586-1.031l-.256-3.64a18.395 18.395 0 00-.165-1.354 16.102 16.102 0 01-.091-3.4l.661-8.08c0-2.592-2.287-4.383-4.169-4.193-.404.041-.817.14-1.213.313-.148.058-1.296-.569-1.452-.495l-1.404.809-1.65.957c-.042.025-.091.05-.132.075-.165.09-.322.189-.48.28-2.005 1.214-3.936 2.641-3.936 5.01l2.212 4.606z" fill="#00ADEE"/>
  <path d="M89.024 143.568l.083 2.303c1.99.701 5.901 2.204 8.328 1.807l-.966-2.038-7.445-2.072z" fill="#0096CE"/>
  <path d="M92.652 126.451l.016-.058v-4.96h3.384v4.754s.207.066.306.107c.668.272.272 1.675.008 1.874-.421.33-1.857-.124-3.087-.504a.957.957 0 01-.627-1.213z" fill="#FCBAC0"/>
  <path d="M93.24 143.337c-.603-.074-1.536.644-2.056.438l-.685-1.767.537-8.303 1.213 6.735.999 2.889-.009.008z" fill="#0096CE"/>
  <path d="M101.197 147.307c-.016 0-.033 0-.049-.008a.167.167 0 01-.107-.207l1.881-6.239a.168.168 0 01.207-.108.168.168 0 01.107.207l-1.882 6.239c-.025.067-.082.116-.157.116z" fill="#343B65"/>
  <path d="M96.965 147.62c-1.899-.751-7.206-2.534-8.782-3.846-.727-.602-.785-11.745-.785-11.745a.502.502 0 01.463-.545l2.104-.148a.495.495 0 01.529.47c.057 1.131.214 8.303.247 9.608a.7.7 0 00.495.652c1.337.412 4.152 2.666 6.364 3.375.206.066.33.083.446.099 1.09.157 3.532-1.972 3.772-.899 0 0 2.17 1.155.874 2.352-.222.206-1.939.834-2.467.817-1.065-.016-3.013-.091-3.26-.19z" fill="#FCBAC0"/>
  <path d="M97.599 145.45c-.578.182-.974 1.676-.636 2.171 0 0-7.354-1.37-9.12-3.566-.859-1.073-.751-8.187-.842-11.579a1.926 1.926 0 013.846-.149c.116 2.228.297 8.196.322 9.079 0 .116.082.19.181.248.446.239 6.249 3.796 6.249 3.796z" fill="#00ADEE"/>
  <path d="M97.681 141.934l.685-1.329c-.156-1.552-1.857-10.078-2.624-11.654a.264.264 0 01.033-.289l.355-.462-.446-.743a3.255 3.255 0 01-.825.248l-.297 1.064.56.157a.272.272 0 01.19.19c.52 1.907 1.19 10.854 1.23 12.554.603.14.52.124 1.14.264z" fill="#fff"/>
  <path d="M94.695 129.281l.157-1.576s-.95-.24-1.404-.578c-.453-.338-.75-1.065-.75-1.065l-.752.751c.322 1.635 2.749 2.468 2.749 2.468zm1.395-.363l-.421-1.461.165-.19c.14-.157.19-.355.198-.561l.025-.982.157-.008c.058.057.124.148.198.255.289.413.437.917.371 1.412-.124.941-.693 1.535-.693 1.535z" fill="#0096CE"/>
  <path d="M96.056 122.083v3.896c0 .405-.825.66-1.502.388-1.032-.421-1.882-1.23-1.882-2.105v-2.179h3.384z" fill="#EF9B9B"/>
  <path d="M98.236 123.314c-.529 2.765-2.353 3.046-4.086 2.237-1.164-.545-2.17-1.387-2.435-2.608-.173-.784-.776-1.535-.834-2.187-.206-2.51 1.362-4.169 3.442-4.342 4.738-.38 4.094 5.943 3.913 6.9z" fill="#FCBAC0"/>
  <path d="M89.978 118.56c.19-2.155 2.716-4.177 5.778-3.384 1.61.412 3.029.66 3.268 1.857.322 1.576-.866 2.492-.866 2.492l-.05-.206c-.083-.363-.437-.578-.809-.545-.776.066-1.89.017-2.732.405-.396.181-.858.107-1.213-.149l-.693-.503.734.85a.85.85 0 01.14.866c-.024.058-.04.132-.057.198l-2.072-1.262a.734.734 0 00-1.114.627v1.321c-.256-.586-.413-1.412-.314-2.567z" fill="#343B65"/>
  <path d="M91.41 119.187l2.072 1.263c-.058.182-.1.38-.116.603a.63.63 0 01-.817.553c-.24-.075-.462-.182-.57-.322-.263-.339-.684-.396-.726-.149-.115.652-.107.999-.058 1.181-.297-.215-.643-.578-.9-1.173v-1.32a.736.736 0 011.115-.636z" fill="#343B65"/>
  <path d="M92.546 121.383c.43.603.454 1.321.066 1.601-.396.281-1.056.017-1.486-.594-.429-.602-.453-1.321-.066-1.601.388-.281 1.057-.017 1.486.594z" fill="#FCBAC0"/>
  <defs>
    <linearGradient id="Top_5_Health_USA__paint0_linear" x1="30.238" y1="170.262" x2="237.395" y2="140.518" gradientUnits="userSpaceOnUse">
      <stop stop-color="#EFEFEF"/>
      <stop offset="1" stop-color="#F8F8F8"/>
    </linearGradient>
  </defs>
</svg>
