<svg width="242" height="257" viewBox="0 0 242 257" fill="none" xmlns="http://www.w3.org/2000/svg">
<circle cx="81.2039" cy="222.204" r="34.2039" fill="#005676"/>
<path d="M0.999492 123.444C-1.40051 85.0439 56.9995 44.4441 86.4995 28.9441C189.85 -32.8287 221.5 19.4443 233.324 57.8526C239.17 76.8411 247.1 94.6439 237.5 173.444C227.9 252.244 168.166 252.611 139.5 242.944C82.4995 226.944 3.99949 171.444 0.999492 123.444Z" fill="url(#paint0_linear)"/>
<path d="M109.011 191.406C113.988 191.406 118.023 189.077 118.023 186.203C118.023 183.33 113.988 181 109.011 181C104.035 181 100 183.33 100 186.203C100 189.077 104.035 191.406 109.011 191.406Z" fill="#D6DCEB"/>
<path d="M127.58 135.59L122.66 138.45C122.64 138.46 122.62 138.47 122.6 138.48L127.52 135.62C127.54 135.62 127.56 135.61 127.58 135.59Z" fill="#ED484F"/>
<path d="M104.65 90.5101L99.7298 93.3701C95.8698 95.6101 80.8998 88.6101 80.0098 88.1901L84.9297 85.3301C85.8197 85.7501 100.79 92.7501 104.65 90.5101Z" fill="#FB4B00"/>
<path d="M133.62 88.93L128.7 91.79C126.81 92.89 115.04 89.04 103.06 82.13C97.9998 79.21 92.8998 75.74 88.5098 71.86L93.4297 69C97.8297 72.88 102.92 76.35 107.98 79.27C119.96 86.18 131.74 90.02 133.62 88.93Z" fill="#FB4B00"/>
<path d="M171.859 142.75L166.939 145.61C167.219 145.45 167.479 145.27 167.719 145.09L172.639 142.23C172.399 142.41 172.139 142.59 171.859 142.75Z" fill="#ED484F"/>
<path d="M117.551 72.6295L122.471 69.7695C123.171 70.3895 134.341 80.5895 141.201 84.5595C143.251 85.7495 144.921 86.3695 145.811 86.0195C146.671 85.6695 147.881 86.0295 149.251 86.8195C154.111 89.6295 160.601 97.3395 160.941 97.7495L156.021 100.61C155.681 100.2 149.191 92.4795 144.331 89.6795C142.961 88.8895 141.751 88.5195 140.891 88.8795C140.001 89.2295 138.331 88.6095 136.281 87.4195C129.421 83.4495 118.251 73.2495 117.551 72.6295Z" fill="#FB4B00"/>
<path d="M117.55 72.6298C118.25 73.2498 129.42 83.4498 136.28 87.4198C138.33 88.6098 140 89.2298 140.89 88.8798C141.75 88.5298 142.96 88.8898 144.33 89.6798C149.19 92.4898 155.68 100.2 156.02 100.61C166.24 106.51 174.5 120.84 174.46 132.58C174.44 139.16 171.8 143.52 167.71 145.08C163.33 148.52 152.85 147.19 143.52 142.93C134.54 138.8 123.46 138.52 122.59 138.48C123.33 138.06 130.77 133.64 125.76 127.86C124.81 126.75 123.42 125.72 121.77 124.77C114.57 120.61 102.53 118.04 101.79 117.86C102.13 117.62 104.87 115.82 105.02 111.19C105.24 104.07 81.26 88.9798 80 88.1798C80.99 88.6498 99.89 97.4798 100.6 92.0198C101.31 86.5598 89.14 72.5698 88.5 71.8398C92.9 75.7198 97.99 79.1898 103.05 82.1098C117.96 90.7198 132.58 94.5698 128.14 90.0398C122.4 84.1698 117.86 73.3998 117.55 72.6298Z" fill="#B73235"/>
<path d="M173.949 141.6L169.029 144.46C172.359 142.52 174.449 138.42 174.469 132.58C174.499 120.84 166.249 106.51 156.029 100.61L160.949 97.75C171.169 103.65 179.429 117.98 179.389 129.72C179.369 135.56 177.279 139.66 173.949 141.6Z" fill="#FB4B00"/>
<path d="M163.35 112.83C163.35 112.83 158.07 102.92 148.99 98.9302C139.91 94.9402 138.69 94.7002 133.68 91.1802C133.68 91.1802 138.02 100.1 133.68 100.1C129.34 100.1 108.61 90.1602 108.61 90.1602C108.61 90.1602 121.08 100.64 118.91 104.71C116.74 108.78 106.98 106.9 106.98 106.9C106.98 106.9 123.65 113.55 125.27 119.03C126.9 124.51 126.22 128.97 135.16 134.29C144.1 139.61 162.4 146.57 165.51 137.42C168.62 128.27 166.07 120.32 163.35 112.83Z" fill="#FFC700"/>
<path d="M163.921 125.75C163.921 125.75 163.921 115.28 155.541 109.01C147.161 102.74 148.811 109.09 143.311 107.19C137.811 105.29 130.811 105.21 130.811 105.21C130.811 105.21 143.731 113.78 141.251 117.11C138.781 120.44 132.041 113.54 133.421 118.62C133.421 118.62 142.211 134.64 150.321 134.72C158.431 134.8 164.651 142.94 163.921 125.75Z" fill="#F6D13A"/>
<path d="M182.72 143.64C182.72 150.79 180.37 155.96 176.5 158.65L176.45 158.68L174.98 159.53L170.97 161.9L170.28 160.73L137.02 105.5L136.01 103.83L141.41 100.66L141.61 100.53C145.95 97.9099 152.03 98.2299 158.73 102.11C171.99 109.74 182.72 128.34 182.72 143.64Z" fill="#4596B4"/>
<path d="M179.441 149.88C179.441 158.19 176.711 164.2 172.211 167.32L172.151 167.36L170.441 168.35L165.781 171.1L164.971 169.74L126.311 105.55L125.141 103.61L131.411 99.92L131.651 99.77C136.691 96.73 143.751 97.09 151.551 101.6C166.971 110.49 179.441 132.11 179.441 149.88Z" fill="#A7D2E3"/>
<ellipse cx="145.383" cy="169.428" rx="27" ry="8" transform="rotate(30 145.383 169.428)" fill="#D7DCEB"/>
<path d="M165.235 171.438C176.115 165.156 176.114 144.783 165.231 125.934C154.348 107.085 136.705 96.8974 125.825 103.18C114.944 109.462 114.945 129.835 125.828 148.684C136.711 167.533 154.354 177.72 165.235 171.438Z" fill="#4596B4"/>
<path d="M171.18 152.1C171.18 168.46 159.7 175.08 145.54 166.92C143.69 165.86 141.87 164.57 140.13 163.14C139.27 162.42 138.42 161.67 137.6 160.88C136.1 159.45 134.67 157.91 133.31 156.26C130.96 153.44 128.82 150.3 127 147.02C122.6 139.19 119.9 130.42 119.9 122.5C119.9 106.16 131.38 99.5197 145.54 107.7C149.59 110.03 153.41 113.33 156.8 117.22C159.22 119.97 161.4 123.03 163.31 126.26C164.45 128.15 165.47 130.11 166.37 132.11C166.88 133.23 167.36 134.35 167.8 135.48C169.96 141.04 171.18 146.76 171.18 152.1Z" fill="#005676"/>
<path d="M145.549 109.66C132.319 102.02 121.619 108.22 121.619 123.48C121.619 138.75 132.329 157.32 145.549 164.95C158.759 172.58 169.479 166.39 169.479 151.11C169.479 135.86 158.759 117.29 145.549 109.66ZM145.549 163.5C133.019 156.26 122.859 138.67 122.859 124.2C122.859 109.75 133.019 103.88 145.549 111.12C158.079 118.36 168.219 135.94 168.219 150.39C168.219 164.86 158.079 170.74 145.549 163.5Z" fill="#00ADEE"/>
<path d="M147.381 140.49C146.361 141.08 144.721 140.13 143.701 138.37C142.681 136.61 142.681 134.71 143.701 134.12C144.721 133.53 146.361 134.48 147.381 136.24C148.391 138 148.391 139.9 147.381 140.49Z" fill="#FFC700"/>
<path d="M148.551 138.31L146.221 136.97V134.29L156.171 131.23L148.551 138.31Z" fill="#FFC700"/>
<path d="M146.1 116.05L144.98 115.41V111.77L146.1 112.41V116.05Z" fill="#FFC700"/>
<path d="M138.9 113.3L137.88 113.19L136.67 109.13L137.7 109.23L138.9 113.3Z" fill="#D7DAFF"/>
<path d="M130.483 110.329L129.695 110.784L131.925 114.647L132.713 114.192L130.483 110.329Z" fill="#FFC700"/>
<path d="M128.49 118.61L128.07 119.55L125.15 116.47L125.58 115.53L128.49 118.61Z" fill="#FFC700"/>
<path d="M126.859 125.88V127.16L123.699 125.34V124.05L126.859 125.88Z" fill="#FFC700"/>
<path d="M128.07 134.88L128.49 136.31L125.58 136.02L125.15 134.59L128.07 134.88Z" fill="#FFC700"/>
<path d="M131.928 144.261L129.693 145.551L130.478 146.91L132.713 145.62L131.928 144.261Z" fill="#FFC700"/>
<path d="M152.18 120.96L153.2 122.04L154.41 119.37L153.38 118.29L152.18 120.96Z" fill="#FFC700"/>
<path d="M160.588 127.719L158.354 129.009L159.139 130.368L161.373 129.078L160.588 127.719Z" fill="#FFC700"/>
<path d="M162.59 138.3L163.01 139.73L165.93 140.02L165.5 138.59L162.59 138.3Z" fill="#FFC700"/>
<path d="M164.221 147.45V148.73L167.381 150.56V149.27L164.221 147.45Z" fill="#FFC700"/>
<path d="M163.01 155.06L162.59 156L165.5 159.07L165.93 158.13L163.01 155.06Z" fill="#FFC700"/>
<path d="M159.134 159.96L158.346 160.415L160.576 164.277L161.364 163.822L159.134 159.96Z" fill="#FFC700"/>
<path d="M146.691 119.75C146.691 120.46 146.191 120.75 145.581 120.39C144.971 120.04 144.471 119.17 144.471 118.47C144.471 117.76 144.971 117.47 145.581 117.83C146.191 118.18 146.691 119.04 146.691 119.75Z" fill="#FFC700"/>
<path d="M135.189 117.51C135.619 118.26 135.619 119.07 135.189 119.32C134.759 119.57 134.049 119.16 133.619 118.41C133.189 117.66 133.189 116.85 133.619 116.6C134.059 116.35 134.759 116.76 135.189 117.51Z" fill="#D7DAFF"/>
<path d="M129.76 126.87C130.37 127.22 130.87 128.09 130.87 128.79C130.87 129.5 130.37 129.79 129.76 129.43C129.15 129.08 128.65 128.21 128.65 127.51C128.65 126.8 129.15 126.52 129.76 126.87Z" fill="#FFC700"/>
<path d="M133.571 142.34C134.001 142.09 134.711 142.5 135.141 143.25C135.571 144 135.571 144.81 135.141 145.06C134.711 145.31 134.001 144.9 133.571 144.15C133.141 143.4 133.141 142.59 133.571 142.34Z" fill="#FFC700"/>
<path d="M155.959 129.5C155.529 129.75 155.529 130.56 155.959 131.31C156.389 132.06 157.099 132.47 157.529 132.22C157.959 131.97 157.959 131.16 157.529 130.41C157.099 129.66 156.389 129.25 155.959 129.5Z" fill="#FFC700"/>
<path d="M161.389 145.13C160.779 144.78 160.279 145.06 160.279 145.77C160.279 146.48 160.779 147.34 161.389 147.69C161.999 148.04 162.499 147.76 162.499 147.05C162.499 146.35 161.999 145.49 161.389 145.13Z" fill="#FFC700"/>
<path d="M157.58 156.2C157.15 155.45 156.44 155.04 156.01 155.29C155.58 155.54 155.58 156.35 156.01 157.1C156.44 157.85 157.15 158.26 157.58 158.01C158.01 157.77 158.01 156.95 157.58 156.2Z" fill="#FFC700"/>
<path d="M151.201 154.71L139.961 148.22V140.26L151.201 146.75V154.71Z" fill="#2C353B"/>
<path d="M151.369 161.19L139.709 154.46C139.199 154.17 138.789 153.37 138.789 152.69V151.18C138.789 150.5 139.199 150.19 139.709 150.48L151.369 157.21C151.879 157.5 152.289 158.3 152.289 158.98V160.49C152.289 161.17 151.879 161.49 151.369 161.19Z" fill="#2C353B"/>
<path d="M147.581 150.67L143.581 148.36C142.741 147.87 142.061 146.57 142.061 145.45C142.061 144.33 142.741 143.81 143.581 144.3L147.581 146.61C148.421 147.1 149.101 148.4 149.101 149.52C149.101 150.64 148.421 151.16 147.581 150.67Z" fill="#D7DAFF"/>
<path opacity="0.3" d="M163.32 126.26L133.32 156.26C130.97 153.44 128.83 150.3 127.01 147.02L156.81 117.22C159.23 119.97 161.41 123.03 163.32 126.26Z" fill="white"/>
<path opacity="0.3" d="M167.809 135.48L140.139 163.14C139.279 162.42 138.429 161.67 137.609 160.88L166.379 132.11C166.889 133.23 167.369 134.34 167.809 135.48Z" fill="white"/>
<path d="M108.655 135.594C108.655 135.594 109.142 135.833 109.81 136.955C110.281 137.739 110.281 138.59 110.281 138.59H109.117L108.135 136.254L108.655 135.594Z" fill="#A3AAC6"/>
<path d="M107.536 136.204C106.125 136.964 103.797 138.218 102.98 138.573C102.823 138.639 102.65 138.548 102.617 138.375C102.32 136.7 101.56 129.593 101.123 128.603C100.9 128.099 97.3676 129.923 97.3676 129.923C97.1695 130.154 97.0622 130.452 97.0952 130.757C97.12 131.062 96.8889 131.442 97.0952 131.607C97.8958 135.61 99.7034 143.352 101.494 143.682C102.782 143.922 107.148 140.876 109.203 139.382C108.485 138.829 107.569 137.228 107.536 136.204Z" fill="#00ADEE"/>
<path d="M108.652 135.594C108.652 135.594 108.19 135.841 107.529 136.204C107.562 137.228 108.478 138.829 109.188 139.398C109.849 138.92 110.269 138.598 110.269 138.598C109.56 138.383 108.223 136.345 108.652 135.594Z" fill="#A3AAC6"/>
<path d="M112.978 129.801L106.977 133.268C106.631 133.474 106.482 133.977 106.408 134.25C105.838 136.354 104.188 142.677 104.188 142.677C104.089 143.122 104.691 143.436 105.095 143.197L111.096 139.705C111.443 139.499 111.657 139.128 111.657 138.723L113.877 130.321C113.886 129.859 113.382 129.57 112.978 129.801Z" fill="#778CBF"/>
<path d="M113.34 129.941L107.34 133.408C106.993 133.614 106.844 134.118 106.77 134.39C106.201 136.495 104.55 142.817 104.55 142.817C104.451 143.271 105.053 143.576 105.458 143.337L111.277 139.945C111.739 139.672 111.945 139.136 112.019 138.863C112.589 136.767 113.621 132.863 114.19 130.717C114.347 130.123 113.736 129.71 113.34 129.941Z" fill="#A3B4DB"/>
<path d="M113.398 133.888L112.201 134.614C111.97 134.763 111.78 134.969 111.64 135.209L111.442 135.563C111.169 136.042 111.334 136.645 111.813 136.925L112.482 137.313L112.993 136.975C113.967 136.339 114.207 135.019 113.53 134.07L113.398 133.888Z" fill="#FCBAC0"/>
<path d="M89.6928 180.429C90.0477 179.274 90.9473 178.531 91.7066 178.77C92.466 179.001 92.5568 180.066 92.433 181.279C92.4082 181.502 92.2761 181.7 92.1771 181.882C91.9625 182.27 91.8635 182.707 91.8635 183.145C91.8635 183.483 91.8139 183.846 91.6984 184.218C91.459 185.002 90.6749 185.522 90.0972 185.811C89.6102 186.05 89.0325 185.844 88.8014 185.348C88.4795 184.672 88.3227 183.64 88.7766 182.823C88.9582 182.476 89.6267 180.644 89.6928 180.429Z" fill="#292D4C"/>
<path d="M98.704 179.793C98.8856 179.925 99.1497 180.239 99.3478 180.437C99.7934 180.908 100.421 181.18 101.048 181.403C101.923 181.708 102.633 181.774 103.136 181.65C103.623 181.527 103.829 180.949 103.541 180.528C103.26 180.123 102.748 179.595 102.055 178.984C101.659 178.638 101.287 178.324 100.998 178.068C100.578 177.713 100.313 177.21 100.264 176.657C100.239 176.36 100.198 176.087 100.148 176.071C99.0754 175.666 97.5567 175.889 97.2761 176.409C97.2761 176.409 96.9707 178.002 96.9707 178.39C96.9707 178.638 97.045 179.059 97.5072 179.232C97.8043 179.356 98.2665 179.488 98.704 179.793Z" fill="#292D4C"/>
<path d="M89.0571 151.154C89.0488 161.273 89.0323 172.242 89.5853 179.802C89.6431 180.619 92.3668 180.891 92.6144 179.942C93.8277 175.37 94.9997 153.927 94.9997 153.927C95.0327 153.547 95.2555 153.217 95.5939 153.044L95.8168 152.928C96.4358 152.598 96.5348 153.027 96.5348 153.729L96.3037 161.586C96.3037 161.586 96.2542 172.2 97.1209 176.822C97.2612 177.565 100.373 177.565 100.455 176.707C101.297 168.239 101.404 149.28 101.404 149.28L101.289 145.26C101.289 145.112 100.381 145.079 99.0687 145.095C97.484 145.128 95.2968 145.244 93.3985 145.36C91.137 145.5 89.2716 145.648 89.2716 145.648C89.1148 147.134 89.0571 148.191 89.0571 151.154Z" fill="#343B65"/>
<path d="M95.4688 153.11L96.6408 152.5C96.9379 152.343 97.3011 152.574 97.169 153.325L96.3106 163.254L95.4688 153.11Z" fill="#292D4C"/>
<path d="M89.2139 137.015L89.0241 143.568L89.1149 146.019L89.1314 146.416C89.1479 146.828 89.3542 147.208 89.7009 147.423C91.005 148.24 93.2169 148.702 96.1965 148.347C98.0371 148.124 99.7126 147.645 100.703 147.158C101.091 146.969 101.322 146.556 101.289 146.127L101.033 142.487C101 142.033 100.934 141.579 100.868 141.133C100.719 140.011 100.686 138.864 100.777 137.733L101.438 129.653C101.438 127.061 99.1513 125.27 97.2695 125.46C96.865 125.501 96.4524 125.6 96.0562 125.773C95.9076 125.831 94.7604 125.204 94.6036 125.278L93.2004 126.087L91.5497 127.044C91.5084 127.069 91.4589 127.094 91.4177 127.119C91.2526 127.209 91.0958 127.308 90.9389 127.399C88.9333 128.613 87.002 130.04 87.002 132.409L89.2139 137.015Z" fill="#00ADEE"/>
<path d="M89.0244 143.568L89.1069 145.871C91.0961 146.572 95.0083 148.075 97.4349 147.678L96.4692 145.64L89.0244 143.568Z" fill="#0096CE"/>
<path d="M92.6518 126.451L92.6683 126.393V121.433H96.0523V126.187C96.0523 126.187 96.2586 126.253 96.3577 126.294C97.0262 126.566 96.6301 127.969 96.3659 128.168C95.945 128.498 94.5089 128.044 93.2791 127.664C92.7674 127.507 92.4867 126.963 92.6518 126.451Z" fill="#FCBAC0"/>
<path d="M93.2392 143.337C92.6367 143.263 91.7041 143.981 91.1841 143.775L90.499 142.008L91.0355 133.705L92.2488 140.44L93.2475 143.329L93.2392 143.337Z" fill="#0096CE"/>
<path d="M101.197 147.307C101.181 147.307 101.164 147.307 101.148 147.299C101.065 147.274 101.016 147.183 101.041 147.092L102.922 140.853C102.947 140.77 103.038 140.721 103.129 140.745C103.211 140.77 103.261 140.861 103.236 140.952L101.354 147.191C101.329 147.258 101.272 147.307 101.197 147.307Z" fill="#343B65"/>
<path d="M96.9645 147.62C95.0661 146.869 89.759 145.086 88.1826 143.774C87.4563 143.172 87.3985 132.029 87.3985 132.029C87.3737 131.749 87.5801 131.509 87.8607 131.484L89.9654 131.336C90.246 131.319 90.4771 131.526 90.4936 131.806C90.5514 132.937 90.7082 140.109 90.7412 141.414C90.7495 141.719 90.9476 141.975 91.2364 142.066C92.5735 142.478 95.388 144.732 97.6 145.441C97.8063 145.507 97.9301 145.524 98.0457 145.54C99.1352 145.697 101.578 143.568 101.818 144.641C101.818 144.641 103.988 145.796 102.692 146.993C102.47 147.199 100.753 147.827 100.225 147.81C99.1599 147.794 97.2121 147.719 96.9645 147.62Z" fill="#FCBAC0"/>
<path d="M97.5985 145.45C97.0208 145.632 96.6246 147.126 96.963 147.621C96.963 147.621 89.609 146.251 87.8427 144.055C86.9844 142.982 87.0916 135.868 87.0009 132.476C86.9678 131.361 87.8923 130.453 89.0065 130.503C89.9969 130.544 90.7975 131.337 90.8471 132.327C90.9626 134.555 91.1442 140.523 91.1689 141.406C91.1689 141.522 91.2515 141.596 91.3505 141.654C91.7962 141.893 97.5985 145.45 97.5985 145.45Z" fill="#00ADEE"/>
<path d="M97.6814 141.934L98.3664 140.605C98.2096 139.053 96.5094 130.527 95.7418 128.951C95.6923 128.852 95.7088 128.745 95.7748 128.662L96.1297 128.2L95.684 127.457C95.2878 127.63 94.9825 127.688 94.8587 127.705L94.5615 128.769L95.1228 128.926C95.2136 128.951 95.2878 129.025 95.3126 129.116C95.8326 131.023 96.5011 139.97 96.5424 141.67C97.1449 141.81 97.0624 141.794 97.6814 141.934Z" fill="white"/>
<path d="M94.6947 129.281L94.8516 127.705C94.8516 127.705 93.9024 127.465 93.4485 127.127C92.9945 126.789 92.6974 126.062 92.6974 126.062L91.9463 126.813C92.2682 128.448 94.6947 129.281 94.6947 129.281Z" fill="#0096CE"/>
<path d="M96.0899 128.918L95.6689 127.457L95.834 127.267C95.9743 127.11 96.0239 126.912 96.0321 126.706L96.0569 125.724L96.2137 125.716C96.2715 125.773 96.3375 125.864 96.4118 125.971C96.7007 126.384 96.8492 126.888 96.7832 127.383C96.6594 128.324 96.0899 128.918 96.0899 128.918Z" fill="#0096CE"/>
<path d="M96.0559 122.083V125.979C96.0559 126.384 95.2305 126.639 94.5537 126.367C93.522 125.946 92.6719 125.137 92.6719 124.262V122.083H96.0559Z" fill="#EF9B9B"/>
<path d="M98.2355 123.314C97.7073 126.079 95.8832 126.36 94.15 125.551C92.9862 125.006 91.9793 124.164 91.7151 122.943C91.5418 122.159 90.9393 121.408 90.8815 120.756C90.6752 118.246 92.2434 116.587 94.3233 116.414C99.0609 116.034 98.4171 122.357 98.2355 123.314Z" fill="#FCBAC0"/>
<path d="M89.9782 118.56C90.1681 116.405 92.6937 114.383 95.7558 115.176C97.3652 115.588 98.7849 115.836 99.0242 117.033C99.3461 118.609 98.1576 119.525 98.1576 119.525L98.1081 119.319C98.0255 118.956 97.6706 118.741 97.2992 118.774C96.5234 118.84 95.4091 118.791 94.5673 119.179C94.1711 119.36 93.7089 119.286 93.354 119.03L92.6607 118.527L93.3953 119.377C93.6016 119.616 93.6511 119.955 93.5356 120.243C93.5108 120.301 93.4943 120.375 93.4778 120.441L91.4061 119.179C90.9192 118.882 90.2919 119.236 90.2919 119.806V121.127C90.036 120.541 89.8792 119.715 89.9782 118.56Z" fill="#343B65"/>
<path d="M91.4101 119.187L93.4818 120.45C93.424 120.632 93.3828 120.83 93.3663 121.053C93.3332 121.457 92.9371 121.729 92.5491 121.606C92.3098 121.531 92.0869 121.424 91.9796 121.284C91.7155 120.945 91.2946 120.888 91.2533 121.135C91.1378 121.787 91.146 122.134 91.1955 122.316C90.8984 122.101 90.5518 121.738 90.2959 121.143V119.823C90.2959 119.245 90.9232 118.89 91.4101 119.187Z" fill="#343B65"/>
<path d="M92.5461 121.383C92.9753 121.986 93.0001 122.704 92.6122 122.984C92.216 123.265 91.5557 123.001 91.1265 122.39C90.6973 121.788 90.6726 121.069 91.0605 120.789C91.4484 120.508 92.1169 120.772 92.5461 121.383Z" fill="#FCBAC0"/>
<defs>
<linearGradient id="paint0_linear" x1="30.2382" y1="170.262" x2="237.395" y2="140.518" gradientUnits="userSpaceOnUse">
<stop stop-color="#EFEFEF"/>
<stop offset="1" stop-color="#F8F8F8"/>
</linearGradient>
</defs>
</svg>
