<svg width="541" height="555" viewBox="0 0 541 555" fill="none" xmlns="http://www.w3.org/2000/svg">
<circle cx="429.893" cy="478.717" r="75" fill="#00ADEE"/>
<path d="M20.8073 424.976C88.6049 679.911 362.893 495.605 491.563 371.586C512.18 348.545 539.351 304.429 534.829 249.927C532.893 226.596 516.234 189.191 481.619 153.298C407.381 84.4272 275.173 -3.17508 132.145 1.26646C-29.597 6.28918 -11.2679 293.031 20.8073 424.976Z" fill="url(#paint0_linear)"/>
<path opacity="0.4" fill-rule="evenodd" clip-rule="evenodd" d="M337.02 449.566L376.154 438.686L358.239 372.882L299.527 287.288L202.132 188.707L25.3852 179.143H2.94531L54.5261 250.071L69.1665 264.157L97.5459 316.481L78.3776 328.397L93.505 346.886L131.132 336.25C133.958 338.735 137.648 343.06 141.526 348.044C138.984 348.754 136.639 349.489 135.426 350.445C132.53 352.73 130.572 353.305 127.267 353.725C124.028 354.136 123.097 353.955 119.648 353.284L119.434 353.243C117.366 352.841 116.164 353.16 114.989 353.472C114.102 353.707 113.231 353.939 112.015 353.854C109.187 353.657 108.741 354.559 108.741 354.559C108.741 354.559 105.918 355.937 103.478 355.683C102.179 355.493 100.853 355.656 99.6387 356.154C99.8835 356.109 100.137 356.152 100.352 356.278C100.567 356.404 100.729 356.602 100.81 356.838C100.978 357.189 100.872 357.525 100.765 357.864C100.589 358.421 100.411 358.986 101.452 359.63C108.451 364.801 122.169 358.802 123.578 357.708C124.988 356.615 128.199 356.993 128.324 358.47C128.324 360.417 130.732 360.463 137.821 360.598C140.581 360.651 144.05 360.718 148.362 360.915C149.29 360.958 150.2 360.99 151.093 361.014C158.054 370.851 163.733 379.607 163.733 379.607L202.945 372.1C212.918 385.409 224.232 415.099 224.232 415.099L263.89 410.058C272.966 437.283 272.78 451.358 272.78 451.358L337.02 449.566ZM149.244 358.418C149.231 358.4 149.217 358.382 149.204 358.363C149.098 358.379 149.041 358.387 149.041 358.387C149.041 358.387 149.111 358.398 149.244 358.418Z" fill="#9EA9C5"/>
<path d="M311.474 412.094L311.402 440.997C311.402 440.997 300.869 316.196 150.751 226.126V76.0024C150.751 76.0024 190.787 103.185 202.132 113.795V143.371C202.132 143.371 233.05 171.004 244.406 184.598V214.646C244.406 214.646 266.812 239.658 276.966 258.515V288.708C276.966 288.708 293.404 314.404 299.528 334.867V364.143C299.528 364.143 308.195 387.15 311.474 412.094Z" fill="#DADBE6"/>
<path style="mix-blend-mode:multiply" opacity="0.25" d="M311.474 412.094L311.402 440.997C311.402 440.997 300.869 316.196 150.751 226.126V76.0024C150.751 76.0024 190.787 103.185 202.132 113.795V143.371C202.132 143.371 233.05 171.004 244.406 184.598V214.646C244.406 214.646 266.812 239.658 276.966 258.515V288.708C276.966 288.708 293.404 314.404 299.528 334.867V364.143C299.528 364.143 308.195 387.15 311.474 412.094Z" fill="url(#paint1_linear)"/>
<path d="M311.401 440.997C310.708 435.267 309.67 429.584 308.293 423.979C306.982 418.363 305.387 412.815 303.63 407.318C300.104 396.332 295.884 385.582 290.995 375.131C281.229 354.217 268.822 334.603 254.674 316.393C252.881 314.134 251.047 311.917 249.224 309.658C248.307 308.544 247.426 307.405 246.473 306.322L243.618 303.068L240.769 299.815C239.821 298.732 238.878 297.639 237.878 296.603L231.957 290.293L230.48 288.739L228.926 287.216L225.849 284.17L222.777 281.129L221.223 279.606L219.632 278.134C215.374 274.249 211.203 270.26 206.758 266.581C189.203 251.589 170.451 238.059 150.688 226.126C170.552 237.913 189.374 251.372 206.95 266.359C211.41 270.027 215.596 274.005 219.865 277.891L221.456 279.357L223.01 280.875L226.118 283.916L229.201 286.957L230.755 288.475L232.242 290.029L238.184 296.334C239.189 297.37 240.132 298.463 241.08 299.551L243.929 302.809L246.773 306.073C247.726 307.156 248.607 308.301 249.524 309.415C251.343 311.663 253.182 313.886 254.974 316.15C269.102 334.401 281.489 354.056 291.238 375.006C296.126 385.475 300.324 396.251 303.807 407.266C305.532 412.773 307.101 418.332 308.386 423.963C309.732 429.575 310.739 435.264 311.401 440.997Z" fill="#778599"/>
<path d="M376.154 408.805V438.686L311.401 440.997L311.474 412.094L376.154 408.805Z" fill="#D2D6E2"/>
<path d="M376.154 408.805L311.474 412.094C309.215 394.941 304.413 378.7 301.631 370.23C300.367 366.386 299.527 364.143 299.527 364.143L363.005 356.418C363.005 356.418 371.968 377.887 376.154 408.805Z" fill="#F0F2F5"/>
<path d="M363.005 326.5V356.419L299.527 364.148V334.867L363.005 326.5Z" fill="#D2D6E2"/>
<path d="M363.005 326.5L299.527 334.867C294.922 319.465 284.467 301.105 279.587 292.966C277.971 290.288 276.966 288.708 276.966 288.708L338.289 275.642C338.289 275.642 355.696 305.146 363.005 326.5Z" fill="#F0F2F5"/>
<path d="M338.289 246.18V275.642L276.966 288.708V258.495L338.289 246.18Z" fill="#D2D6E2"/>
<path d="M338.284 246.185L276.966 258.495C270.034 245.616 257.389 229.877 250.063 221.194C248.286 219.086 246.825 217.392 245.831 216.257L245.52 215.9C244.81 215.081 244.411 214.63 244.411 214.63L289.861 201.207L297.528 198.943L301.994 197.622C301.994 197.622 317.561 212.786 338.284 246.185Z" fill="#F0F2F5"/>
<path d="M301.989 167.642V197.612L244.406 214.625V184.598L301.989 167.642Z" fill="#D2D6E2"/>
<path d="M255.456 92.3214V122.384L202.132 143.376V113.795L255.456 92.3214Z" fill="#D2D6E2"/>
<path style="mix-blend-mode:multiply" opacity="0.2" d="M376.154 408.805V438.686L311.401 440.997L311.474 412.094L376.154 408.805Z" fill="url(#paint2_linear)"/>
<path style="mix-blend-mode:multiply" opacity="0.2" d="M363.005 326.5V356.419L299.527 364.148V334.867L363.005 326.5Z" fill="url(#paint3_linear)"/>
<path style="mix-blend-mode:multiply" opacity="0.2" d="M338.289 246.18V275.642L276.966 288.708V258.495L338.289 246.18Z" fill="url(#paint4_linear)"/>
<path style="mix-blend-mode:multiply" opacity="0.2" d="M301.989 167.642V197.612L244.406 214.625V184.598L301.989 167.642Z" fill="url(#paint5_linear)"/>
<path style="mix-blend-mode:multiply" opacity="0.2" d="M255.456 92.3214V122.384L202.132 143.376V113.795L255.456 92.3214Z" fill="url(#paint6_linear)"/>
<path d="M255.456 122.384C255.456 122.384 286.084 147.951 301.993 167.637L244.406 184.593C233.05 170.999 202.132 143.366 202.132 143.366L255.456 122.384Z" fill="#F0F2F5"/>
<path d="M199.444 51.3583C227.082 68.3869 255.456 92.3214 255.456 92.3214L202.132 113.795C190.787 103.185 150.751 76.0024 150.751 76.0024L199.444 51.3583Z" fill="#F0F2F5"/>
<path d="M358.24 394.092L325.819 395.739L336.279 372.095L358.24 394.092Z" fill="#FFC700"/>
<path d="M318.577 239.15L283.623 246.175L287.467 220.982L318.577 239.15Z" fill="#0DA800"/>
<path d="M233.801 87.6381L200.64 100.989L194.029 74.7384L233.801 87.6381Z" fill="#FB4B00"/>
<path d="M299.527 364.143C310.096 362.754 320.675 361.49 331.253 360.159L347.127 358.263C352.418 357.624 357.711 357.009 363.005 356.418C357.725 357.109 352.439 357.783 347.147 358.439L331.264 360.402C320.695 361.651 310.117 362.946 299.527 364.143Z" fill="#778599"/>
<path d="M276.966 288.708C287.166 286.439 297.393 284.268 307.604 282.056L322.939 278.813C328.052 277.735 333.165 276.668 338.289 275.642C333.191 276.792 328.088 277.901 322.98 279.005L307.651 282.289C297.424 284.434 287.229 286.625 276.966 288.708Z" fill="#778599"/>
<path d="M244.406 214.625C253.98 211.709 263.575 208.885 273.169 206.02L287.571 201.788C292.372 200.379 297.179 198.987 301.994 197.612C297.207 199.083 292.415 200.527 287.618 201.943L273.241 206.222C263.621 209.025 254.032 211.874 244.406 214.625Z" fill="#778599"/>
<path d="M202.132 143.371C210.98 139.776 219.875 136.294 228.745 132.756C233.179 130.984 237.64 129.275 242.09 127.534C246.54 125.793 250.99 124.068 255.456 122.384C251.037 124.198 246.602 125.964 242.162 127.726C237.723 129.487 233.298 131.274 228.843 132.999C219.938 136.46 211.074 139.973 202.132 143.371Z" fill="#778599"/>
<path d="M311.401 440.997C316.796 440.755 322.191 440.531 327.586 440.324L343.775 439.697L359.964 439.179C365.356 438.999 370.752 438.842 376.154 438.707C370.759 438.966 365.364 439.194 359.97 439.391L343.785 440.008L327.596 440.526C322.198 440.709 316.8 440.866 311.401 440.997Z" fill="#778599"/>
<g style="mix-blend-mode:multiply" opacity="0.75">
<path d="M363.005 356.418L326.798 367.132L301.631 370.24C300.367 366.396 299.527 364.153 299.527 364.153L363.005 356.418Z" fill="#B3B6CE"/>
</g>
<g style="mix-blend-mode:multiply" opacity="0.75">
<path d="M338.289 275.642L311.401 285.574L279.587 292.966C277.971 290.288 276.966 288.708 276.966 288.708L338.289 275.642Z" fill="#B3B6CE"/>
</g>
<g style="mix-blend-mode:multiply" opacity="0.75">
<path d="M301.994 197.612L245.831 216.262C244.929 215.226 244.406 214.641 244.406 214.641L301.994 197.612Z" fill="#B3B6CE"/>
</g>
<path d="M317.338 295.344L308.785 319.911L311.21 319.584L344.5 315.119L317.338 295.344Z" fill="#00ADEE"/>
<path d="M247.669 148.184L247.659 170.238L280.965 160.322L247.669 148.184Z" fill="#005676"/>
<path d="M325.467 395.983L336.211 371.706L358.757 394.289L325.467 395.983ZM336.346 372.489L326.161 395.496L357.716 393.895L336.346 372.489Z" fill="#FFC700"/>
<path d="M308.469 320.123L308.588 319.781L317.276 295.002L317.519 295.178L345.142 315.284L308.469 320.123ZM317.493 295.717L309.132 319.584L343.977 314.994L317.493 295.717Z" fill="#2E81F4"/>
<path d="M247.462 170.492V147.878L281.768 160.384L247.462 170.492ZM247.913 148.515V169.896L280.338 160.348L247.913 148.515Z" fill="#2E81F4"/>
<path d="M251.161 169.005L249.017 169.59L257.192 158.711L260.844 154.566H262.813C261.616 156.582 259.326 160.068 251.161 169.005Z" fill="#131950"/>
<path d="M258.486 159.617C258.144 161.819 253.466 179.822 244.436 179.081C236.697 178.449 236.096 164.409 236.08 160.431C236.598 160.949 237.163 161.425 237.717 161.912C237.748 165.539 238.365 177.107 244.856 177.636C252.56 178.262 256.559 162.897 256.849 161.021L258.486 159.617Z" fill="#131950"/>
<path d="M261.616 154.556C260.937 155.556 258.813 158.276 256.435 161.198L256.357 161.296C253.715 164.508 250.762 167.938 249.042 169.585C246.364 168.445 241.841 165.477 237.748 161.912C237.194 161.425 236.645 160.933 236.111 160.431C233.951 158.472 232.05 156.246 230.454 153.805C231.615 152.09 233.164 150.225 236.153 146.096L236.215 146.018C237.588 144.133 239.266 141.781 241.354 138.766L248.633 145.236C248.882 145.454 249.151 145.661 249.415 145.858L261.616 154.556Z" fill="#1C2975"/>
<path d="M256.409 161.198L256.331 161.296C249.56 159.224 240.111 152.131 236.127 146.101L236.189 146.024C240.173 151.997 249.69 159.136 256.409 161.198Z" fill="white"/>
<path d="M249.076 157.123L246.748 155.243L246.17 155.958L248.498 157.838L249.076 157.123Z" fill="white"/>
<path d="M242.676 138.299C242.111 138.299 241.282 138.491 241.282 138.988C241.282 140.853 259.767 155.116 261.01 155.116C261.626 155.116 263.201 154.732 262.74 154.323C260.134 152.007 244.23 138.299 242.676 138.299Z" fill="#131950"/>
<path d="M257 150.733C257.28 149.101 256.798 143.48 253.446 141.04C250.094 138.6 245.411 141.423 245.411 141.423L246.354 142.164C246.354 142.164 250.296 139.796 253.058 141.807C255.819 143.817 256.166 148.588 255.928 149.935L257 150.733Z" fill="#131950"/>
<path d="M288.058 217.459H288.006C286.97 217.578 270.252 219.428 258.87 220.407C255.161 220.728 252.332 220.925 250.063 221.179C248.286 219.07 246.825 217.376 245.83 216.242L245.52 215.884C259.802 215.625 274.847 215.413 280.489 215.335H280.81L282.804 215.304L286.016 216.62L288.058 217.459Z" fill="#B3B6CE"/>
<path d="M291.228 210.771C291.228 210.771 291.601 210.159 294.544 210.056C297.305 209.957 297.756 211.258 297.756 211.258L294.849 213.33L290.575 212.558L291.228 210.771Z" fill="#131950"/>
<path d="M297.191 212.19L295.119 212.6L291.984 211.869C292.052 211.159 292.078 210.45 292.093 209.735C292.093 209.491 292.093 209.248 292.093 209.004L297.004 208.683C297.004 209.092 297.004 209.502 297.004 209.906C297.015 210.671 297.077 211.434 297.191 212.19Z" fill="url(#paint7_linear)"/>
<path d="M297.01 209.88C294.083 210.74 292.487 209.957 292.083 209.709C292.083 209.465 292.083 209.222 292.083 208.978L296.994 208.657C296.999 209.082 296.999 209.476 297.01 209.88Z" fill="#CC7691"/>
<path d="M281.509 178.796L280.546 179.521L280.883 181.303L281.364 182.552L282.52 182.314L282.131 179.713L281.509 178.796Z" fill="#131950"/>
<path d="M287.384 181.542L286.032 182.697L282.074 182.744C281.829 181.781 281.678 180.798 281.623 179.806C281.623 179.527 281.623 179.345 281.623 179.345L283.177 178.174L285.581 177.884L287.135 179.376V179.438L287.384 181.542Z" fill="url(#paint8_linear)"/>
<path d="M287.104 179.438C286.808 179.662 286.477 179.837 286.125 179.957C283.628 180.925 282.167 180.19 281.623 179.786C281.623 179.506 281.623 179.324 281.623 179.324L283.177 178.154L285.581 177.864L287.135 179.356L287.104 179.438Z" fill="#CC7691"/>
<path d="M287.275 184.8C286.923 186.494 286.379 187.816 284.493 187.816C282.131 187.816 281.768 185.261 280.494 183.64C279.427 182.288 277.593 181.086 277.593 179.138C277.598 178.836 277.665 178.538 277.79 178.263C277.914 177.988 278.093 177.741 278.316 177.538C278.539 177.334 278.802 177.178 279.087 177.079C279.372 176.98 279.675 176.94 279.976 176.962H280.282L282.11 178.988C281.802 179.133 281.537 179.358 281.344 179.639C281.151 179.921 281.037 180.248 281.012 180.589C281.012 181.682 282.172 182.272 283.302 182.272C283.87 182.253 284.428 182.12 284.943 181.881C285.459 181.641 285.921 181.3 286.301 180.879L287.275 184.8Z" fill="#131950"/>
<path d="M286.612 186.287C286.438 186.527 286.218 186.73 285.964 186.884C285.711 187.038 285.429 187.14 285.136 187.184C284.552 187.287 283.951 187.213 283.41 186.971C282.893 186.687 282.459 186.273 282.152 185.769C281.83 185.282 281.577 184.764 281.302 184.256C281.036 183.749 280.721 183.27 280.359 182.827C279.996 182.386 279.582 181.977 279.193 181.552C278.798 181.134 278.451 180.674 278.157 180.179C277.862 179.678 277.703 179.108 277.696 178.527C277.732 179.104 277.91 179.662 278.214 180.153C278.523 180.638 278.882 181.087 279.287 181.495C279.686 181.91 280.1 182.309 280.483 182.749C280.852 183.197 281.171 183.683 281.437 184.199C281.716 184.718 281.955 185.236 282.286 185.702C282.581 186.187 282.997 186.586 283.493 186.862C284.014 187.092 284.591 187.163 285.151 187.064C285.431 187.027 285.7 186.934 285.943 186.791C286.186 186.647 286.397 186.457 286.565 186.23L286.612 186.287Z" fill="white"/>
<path d="M283.136 164.788C284.416 169.543 285.453 174.36 286.245 179.221C285.71 179.59 285.099 179.836 284.457 179.941C284.266 179.963 284.074 179.976 283.882 179.977C282.491 179.9 281.173 179.326 280.168 178.361C276.624 161.389 267.734 155.447 267.734 149.324C267.734 144.956 277.256 141.268 283.167 139.252C283.722 139.061 284.24 138.879 284.721 138.734L287.219 141.325L288.296 150.857C286.82 151.049 285.369 151.287 283.929 151.567C281.96 151.945 280.023 152.385 278.08 152.862C278.121 152.934 278.158 153.007 278.204 153.079C279.417 155.204 281.152 157.701 283.136 164.788Z" fill="#4C4E6E"/>
<g style="mix-blend-mode:multiply" opacity="0.25">
<path d="M283.136 164.788C284.415 169.543 285.453 174.36 286.244 179.221C285.709 179.591 285.099 179.837 284.457 179.941C283.224 173.921 283.1 171.797 283.1 166.233C283.12 165.788 283.126 165.301 283.136 164.788Z" fill="#131950"/>
</g>
<g style="mix-blend-mode:multiply" opacity="0.25">
<path d="M284.69 143.117C284.26 142.081 283.737 140.729 283.183 139.252C283.737 139.061 284.255 138.879 284.737 138.734L287.234 141.325L288.311 150.857C286.835 151.049 285.384 151.287 283.944 151.567C284.322 146.878 284.69 143.117 284.69 143.117Z" fill="#131950"/>
</g>
<g style="mix-blend-mode:multiply" opacity="0.25">
<path d="M278.214 153.08L275.862 153.525L278.095 152.862C278.137 152.934 278.178 153.002 278.214 153.08Z" fill="#131950"/>
</g>
<path d="M294.611 144.257C293.342 144.324 292.088 144.386 290.84 144.407H289.736C288.449 144.413 287.162 144.349 285.882 144.216C284.877 141.832 282.774 136.445 281.411 131.912C280.883 130.261 280.479 128.572 280.204 126.86L294.611 144.257Z" fill="white"/>
<path opacity="0.65" d="M294.611 144.257C293.342 144.324 292.088 144.386 290.84 144.407C287.4 140.755 284.048 137.04 281.411 131.927C280.883 130.276 280.479 128.588 280.204 126.876L294.611 144.257Z" fill="#B3B6CE"/>
<path d="M304.542 143.889C304.566 145.309 304.47 146.728 304.258 148.132C303.739 151.323 302.496 152.023 301.009 153.38L299.812 142.77L300.108 140.978L300.294 139.879L302.605 139.584L304.527 141.656C304.527 142.34 304.542 143.091 304.542 143.889Z" fill="#13529E"/>
<g style="mix-blend-mode:multiply" opacity="0.25">
<path d="M304.543 143.889C304.566 145.309 304.471 146.728 304.258 148.132L300.113 140.983L300.3 139.885L302.61 139.589L304.532 141.661C304.527 142.34 304.543 143.091 304.543 143.889Z" fill="#131950"/>
</g>
<path d="M312.613 146.153C312.613 147.997 311.51 149.816 310.738 149.816H310.666C310.649 149.847 310.63 149.876 310.608 149.904C310.406 150.225 310.158 150.5 309.888 150.5C309.828 150.498 309.768 150.485 309.713 150.46C309.658 150.435 309.608 150.399 309.567 150.355L309.458 150.427C309.325 150.52 309.17 150.576 309.008 150.588C308.847 150.588 308.723 150.489 308.697 150.235C308.657 150.24 308.617 150.24 308.578 150.235V150.235C308.293 150.235 308.184 149.878 308.184 149.598C308.184 148.723 309.106 147.557 309.106 146.397C309.11 145.919 308.936 145.458 308.619 145.101C308.588 145.06 308.547 145.019 308.516 144.982C307.127 146.086 308.189 148.365 306.842 148.365C306.324 148.365 306.257 147.282 306.257 146.702C306.257 143.423 307.671 142.319 308.132 141.004C308.212 140.791 308.261 140.567 308.277 140.34L311.287 140.372C311.329 140.615 311.386 140.89 311.448 141.123C311.847 142.77 312.613 144.48 312.613 146.153Z" fill="url(#paint9_linear)"/>
<path d="M311.438 141.143C310.338 141.36 309.203 141.32 308.122 141.024C308.202 140.811 308.251 140.588 308.267 140.361L311.277 140.392C311.318 140.636 311.375 140.889 311.438 141.143Z" fill="#CC7691"/>
<path d="M311.458 140.745C310.989 140.825 310.514 140.866 310.039 140.869C309.31 140.87 308.585 140.762 307.889 140.548C307.889 139.978 307.889 139.408 307.889 138.843C307.889 138.621 307.889 138.398 307.889 138.18L311.391 138.724C311.391 138.957 311.391 139.19 311.391 139.424C311.437 139.864 311.453 140.304 311.458 140.745Z" fill="white"/>
<path opacity="0.65" d="M311.427 139.424C311.075 139.536 310.708 139.592 310.339 139.589C309.477 139.561 308.639 139.303 307.909 138.843C307.909 138.621 307.909 138.398 307.909 138.18L311.411 138.724C311.416 138.957 311.422 139.19 311.427 139.424Z" fill="#B3B6CE"/>
<path d="M256.575 137.636L256.057 140.988C255.86 141.116 255.674 141.262 255.503 141.423C254.332 142.459 253.332 144.086 251.778 144.086C251.6 144.102 251.421 144.083 251.252 144.029C251.082 143.975 250.925 143.887 250.79 143.771C250.654 143.655 250.544 143.513 250.464 143.354C250.385 143.194 250.338 143.021 250.327 142.843C250.335 142.527 250.444 142.222 250.638 141.972L250.7 141.9C250.485 141.665 250.367 141.358 250.369 141.04C250.366 140.878 250.402 140.717 250.473 140.571C250.544 140.426 250.649 140.299 250.778 140.201L250.882 140.133C250.712 139.958 250.616 139.724 250.612 139.48C250.621 139.298 250.676 139.121 250.772 138.966C250.868 138.811 251.002 138.683 251.161 138.595L251.27 138.527C251.154 138.465 251.055 138.375 250.982 138.266C250.909 138.157 250.864 138.031 250.85 137.9C250.85 137.382 251.622 136.921 252.436 136.921C252.736 136.921 253.052 136.963 253.358 136.963C254.446 136.963 254.508 136.403 255.145 136.403C255.637 136.403 255.876 136.812 256.145 137.18C256.261 137.356 256.407 137.51 256.575 137.636V137.636Z" fill="url(#paint10_linear)"/>
<path d="M256.575 137.636L256.057 140.988C255.86 141.116 255.674 141.262 255.503 141.423C255.216 139.977 255.443 138.476 256.145 137.18C256.262 137.356 256.407 137.51 256.575 137.636V137.636Z" fill="#CC7691"/>
<path d="M258.368 136.092L258.072 140.708C257.714 140.881 257.346 141.032 256.969 141.159C256.65 141.269 256.325 141.359 255.995 141.428C255.75 140.968 255.627 140.453 255.637 139.931C255.669 138.979 255.946 138.051 256.44 137.237L257.062 136.895C257.502 136.636 257.938 136.377 258.368 136.092Z" fill="white"/>
<path opacity="0.65" d="M258.368 136.092L258.072 140.708C257.714 140.881 257.346 141.032 256.969 141.159C256.705 140.582 256.571 139.954 256.575 139.32C256.596 138.49 256.761 137.669 257.062 136.895C257.503 136.636 257.938 136.377 258.368 136.092Z" fill="#B3B6CE"/>
<path d="M292.134 101.678C291.946 101.554 291.725 101.488 291.5 101.488C291.274 101.488 291.054 101.554 290.865 101.678C290.13 102.097 291.383 103.232 291.383 103.232L292.186 103.071L292.134 101.678Z" fill="#B3B6CE"/>
<path d="M291.373 100.512C291.154 100.334 290.882 100.235 290.601 100.23C290.319 100.226 290.044 100.316 289.819 100.486C288.855 101.03 289.658 102.703 289.658 102.703L290.493 102.667L291.373 100.512Z" fill="#B3B6CE"/>
<path d="M290.606 101.071C290.606 101.5 290.685 101.925 290.839 102.325L290.078 103.133L282.602 105.693C281.96 101.724 281.203 102.18 281.203 101.03C281.203 100.564 281.281 100.227 281.281 99.7918C281.281 97.5123 276.675 98.3257 276.675 94.2278C276.675 93.7875 276.706 93.3419 276.727 92.9223C276.727 92.8291 276.727 92.741 276.727 92.6477C276.561 92.312 276.467 91.9447 276.453 91.5702C276.494 91.0679 276.696 90.5922 277.028 90.2129L277.121 90.073C276.629 89.441 275.935 88.5706 275.935 88.1303C275.935 87.291 277.67 86.8196 278.349 85.8301C278.714 84.495 279.448 83.29 280.468 82.3539L291.347 98.678C290.894 99.397 290.639 100.222 290.606 101.071V101.071Z" fill="url(#paint11_linear)"/>
<path d="M282.374 97.3051C282.48 97.5858 282.644 97.8409 282.856 98.0534C283.067 98.266 283.322 98.4311 283.602 98.538C283.88 98.6271 284.178 98.6324 284.459 98.5531C284.74 98.4739 284.991 98.3137 285.182 98.0925C285.552 97.6375 285.754 97.0681 285.752 96.4813C285.742 95.8884 285.671 95.2981 285.539 94.7199L285.866 94.663C285.974 95.2679 286.018 95.8827 285.995 96.4969C285.97 97.1302 285.725 97.7349 285.301 98.2065C285.085 98.436 284.807 98.597 284.5 98.6698C284.193 98.7425 283.872 98.7237 283.576 98.6158C283.294 98.4957 283.04 98.3166 282.833 98.0905C282.626 97.8644 282.469 97.5966 282.374 97.3051V97.3051Z" fill="#CC7691"/>
<path d="M283.426 97.1445C283.498 97.2356 283.591 97.3072 283.698 97.3525C283.805 97.3978 283.922 97.4153 284.037 97.4035C284.137 97.3978 284.231 97.3554 284.301 97.2844C284.331 97.2494 284.353 97.2089 284.366 97.1653C284.379 97.1217 284.384 97.0759 284.379 97.0305C284.379 96.8492 284.161 96.6627 284.084 96.3829C284.056 96.2434 284.078 96.0987 284.146 95.9737C284.208 95.8592 284.297 95.7614 284.405 95.6887C284.34 95.7901 284.29 95.8999 284.255 96.0151C284.222 96.1179 284.222 96.2283 284.255 96.3311C284.299 96.4347 284.357 96.5322 284.426 96.6212C284.513 96.7342 284.568 96.8683 284.586 97.0098C284.594 97.0877 284.584 97.1665 284.557 97.24C284.53 97.3136 284.487 97.3801 284.431 97.4346C284.376 97.4835 284.312 97.5211 284.243 97.5451C284.173 97.5691 284.1 97.5791 284.027 97.5745C283.895 97.5698 283.768 97.5266 283.661 97.4501C283.555 97.3736 283.473 97.2673 283.426 97.1445V97.1445Z" fill="#CC7691"/>
<path d="M279.146 78.9088C279.193 80.0589 279.5 81.1836 280.043 82.1985C280.603 83.1959 281.276 84.1258 282.048 84.9701L281.701 85.2551C280.972 84.3417 280.348 83.3494 279.841 82.2969C279.358 81.234 279.12 80.076 279.146 78.9088Z" fill="black"/>
<path d="M277.489 90.6895L277.033 90.2129L277.126 90.073L277.489 90.6895Z" fill="#CC7691"/>
<path d="M277.266 93.7097C277.085 93.4507 276.893 93.1917 276.748 92.9223C276.748 92.829 276.748 92.741 276.748 92.6477C276.867 93.0363 277.08 93.3574 277.266 93.7097Z" fill="#CC7691"/>
<path d="M279.903 77.8674C279.838 78.4419 279.805 79.0196 279.805 79.5978C279.805 84.0686 281.758 87.4516 281.758 91.881C281.759 92.9576 281.642 94.0311 281.411 95.0826C281.597 95.2787 281.798 95.4605 282.012 95.6266C282.194 95.2766 282.463 94.9793 282.793 94.7634C283.124 94.5474 288.552 100.885 288.945 100.858C291.815 100.858 293.446 99.8582 297.445 99.8582C301.807 99.8582 298.248 92.6529 298.248 88.2908C298.248 81.4006 291.513 78.8051 284.695 78.8051C284.177 78.8051 283.659 78.8051 283.234 78.8051C282.048 78.8932 280.869 78.5613 279.903 77.8674Z" fill="#131950"/>
<path d="M291.819 103.315C287.156 107.532 284.67 106.107 281.509 108.93L281.473 108.967C281.422 108.655 281.396 108.34 281.395 108.024C281.393 107.991 281.393 107.958 281.395 107.925C281.417 106.772 281.654 105.634 282.095 104.568C285.897 104.283 289.084 103.682 291.363 100.522C291.499 100.977 291.608 101.438 291.689 101.905C291.765 102.372 291.808 102.842 291.819 103.315V103.315Z" fill="white"/>
<path opacity="0.65" d="M291.819 103.315C287.156 107.532 284.67 106.107 281.509 108.93H281.473C281.422 108.619 281.396 108.303 281.396 107.988C285.478 103.879 288.825 106.107 291.684 101.869C291.763 102.347 291.808 102.83 291.819 103.315V103.315Z" fill="#B3B6CE"/>
<path d="M309.143 144.749C308.959 144.852 308.786 144.971 308.625 145.107C308.593 145.065 308.559 145.025 308.521 144.987C308.717 144.88 308.926 144.8 309.143 144.749V144.749Z" fill="#CC7691"/>
<path d="M311.339 147.339C311.268 147.553 311.174 147.758 311.06 147.951C310.951 148.153 310.837 148.35 310.738 148.557C310.631 148.758 310.554 148.975 310.51 149.199C310.49 149.307 310.49 149.418 310.51 149.526C310.526 149.628 310.58 149.72 310.661 149.785C310.645 149.817 310.628 149.848 310.609 149.878C310.519 149.784 310.457 149.668 310.428 149.541C310.407 149.423 310.407 149.302 310.428 149.184C310.482 148.957 310.57 148.738 310.687 148.536C310.79 148.334 310.915 148.137 311.029 147.935C311.154 147.749 311.259 147.549 311.339 147.339V147.339Z" fill="#CC7691"/>
<path d="M309.458 148.013C309.404 148.273 309.313 148.524 309.189 148.759C309.07 148.997 308.935 149.23 308.842 149.469C308.741 149.708 308.69 149.965 308.691 150.225C308.652 150.23 308.612 150.23 308.572 150.225C308.594 149.947 308.66 149.674 308.769 149.417C308.873 149.173 309.018 148.945 309.142 148.718C309.272 148.489 309.37 148.243 309.432 147.987C309.479 147.727 309.479 147.46 309.432 147.2C309.49 147.467 309.499 147.742 309.458 148.013V148.013Z" fill="#CC7691"/>
<path d="M310.236 148.36C310.171 148.595 310.077 148.822 309.956 149.034C309.83 149.24 309.721 149.457 309.63 149.681C309.59 149.792 309.56 149.906 309.542 150.023C309.542 150.08 309.542 150.137 309.542 150.199C309.536 150.25 309.547 150.301 309.573 150.344L309.469 150.417C309.443 150.346 309.432 150.27 309.438 150.194C309.433 150.132 309.433 150.07 309.438 150.007C309.459 149.885 309.494 149.765 309.542 149.65C309.643 149.426 309.761 149.209 309.894 149.002C310.024 148.799 310.127 148.58 310.2 148.35C310.269 148.118 310.292 147.875 310.267 147.635C310.306 147.876 310.295 148.123 310.236 148.36V148.36Z" fill="#CC7691"/>
<path d="M295.207 174.947C295.378 184.847 297.797 193.514 297.797 206.792C297.797 207.476 297.797 208.149 297.797 208.823C296.879 209.518 295.752 209.883 294.601 209.859C293.473 209.904 292.367 209.536 291.492 208.823C284.276 175.056 283.846 176.594 283.846 166.243C283.846 159.094 284.576 151.903 285.472 144.873C285.486 144.819 285.495 144.764 285.498 144.708L295.585 144.64L299.45 147.158L302.486 149.137C302.252 160.529 294.922 157.654 295.207 174.947Z" fill="#4C4E6E"/>
<g style="mix-blend-mode:multiply" opacity="0.25">
<path d="M299.963 148.06C298.782 150.897 296.967 153.426 294.658 155.452C291.803 151.386 288.586 148.199 285.478 144.863C285.491 144.809 285.5 144.753 285.503 144.697L295.59 144.63L299.455 147.148C299.626 147.433 299.797 147.754 299.963 148.06Z" fill="#131950"/>
</g>
<path d="M250.768 140.206C250.801 140.177 250.837 140.153 250.876 140.133V140.133C251 140.281 251.154 140.401 251.327 140.485C251.127 140.422 250.938 140.327 250.768 140.206V140.206Z" fill="#CC7691"/>
<path d="M251.001 142.19C250.87 142.135 250.746 142.064 250.633 141.977L250.69 141.9C250.775 142.014 250.88 142.113 251.001 142.19V142.19Z" fill="#CC7691"/>
<path d="M252.062 138.859C251.743 138.83 251.433 138.742 251.146 138.6C251.183 138.574 251.223 138.552 251.265 138.532C251.506 138.694 251.777 138.805 252.062 138.859Z" fill="#CC7691"/>
<path d="M298.538 214.713C298.538 214.983 298.538 215.231 298.501 215.516C298.504 215.565 298.504 215.613 298.501 215.661C298.501 215.936 298.439 216.21 298.403 216.485C294.108 217.003 289.757 217.521 285.452 217.521C283.379 217.521 280.509 217.547 280.509 215.449C280.503 215.191 280.56 214.935 280.675 214.703V214.703C281.633 212.771 286.7 213.734 291.254 210.786C291.86 211.667 293.264 211.993 294.637 211.993C296.227 211.993 297.134 211.709 297.776 211.268C298.31 212.336 298.571 213.52 298.538 214.713V214.713Z" fill="#131950"/>
<path d="M298.501 215.516C298.504 215.565 298.504 215.613 298.501 215.661C295.393 216.055 292.285 216.413 289.176 216.599C287.605 216.682 286.037 216.704 284.472 216.666C283.683 216.663 282.897 216.555 282.136 216.345C281.757 216.23 281.411 216.028 281.126 215.755C280.884 215.503 280.731 215.179 280.69 214.832C280.746 215.17 280.905 215.481 281.146 215.723C281.441 215.99 281.797 216.18 282.183 216.278C282.937 216.474 283.714 216.57 284.493 216.563C286.047 216.563 287.601 216.532 289.187 216.423C292.254 216.252 295.398 215.848 298.501 215.516Z" fill="white"/>
<path d="M292.523 143.392C291.585 143.444 290.207 143.558 288.845 143.558C287.687 143.606 286.529 143.457 285.421 143.117C285.284 143.78 285.201 144.452 285.172 145.127C285.898 145.226 286.63 145.271 287.363 145.262C288.399 145.262 289.099 145.215 290.321 145.215C291.705 145.215 293.083 145.272 294.466 145.277L292.523 143.392Z" fill="#131950"/>
<path d="M311.821 136.45C311.821 137.289 311.821 138.128 311.821 138.968C311.354 139.158 310.855 139.258 310.35 139.263C309.401 139.224 308.482 138.919 307.698 138.382V138.108C307.698 136.398 307.765 134.678 307.765 132.963C307.776 131.57 307.708 130.178 307.563 128.793C307.563 128.679 307.563 128.575 307.527 128.461C303.9 121.296 302.724 119.608 302.237 118.965C302.144 118.83 302.071 118.742 302.014 118.66C301.781 122.327 300.978 127.171 300.978 132.129C300.978 132.466 300.978 132.803 300.978 133.139C301.025 133.196 301.082 133.248 301.139 133.305C302.737 134.868 304.439 136.322 306.231 137.657C306.255 139.463 305.959 141.259 305.356 142.962C303.899 142.249 302.483 141.457 301.113 140.589C302.549 142.458 303.842 144.432 304.983 146.495C303.804 149.333 301.989 151.862 299.678 153.888C294.337 146.288 287.763 141.718 282.96 133.74C281.181 130.778 279.789 127.601 278.816 124.286C278.816 124.286 278.816 124.286 278.816 124.286C278.816 124.286 278.769 124.12 278.743 124.037C269.361 137.139 263.802 137.968 257.819 141.361C257.399 140.665 257.181 139.868 257.187 139.056C257.219 138.089 257.432 137.136 257.813 136.248C273.625 123.296 267.569 118.737 280.608 109.759L283.784 108.252L288.317 106.516L291.943 104.522L293.653 102.89C293.782 102.89 293.912 102.89 294.052 102.89C295.29 102.89 296.896 102.372 298.227 102.372C300.958 102.372 302.538 105.48 310.718 123.897C311.406 125.436 311.77 127.101 311.785 128.788C311.79 131.373 311.821 133.901 311.821 136.45Z" fill="#00ADEE"/>
<path d="M302.252 117.385V118.986C302.149 118.851 302.081 118.763 302.024 118.68L302.092 117.385C302.092 116.955 302.092 116.52 302.123 116.085C302.154 115.65 302.123 115.22 302.159 114.784L302.221 113.484V114.795C302.221 115.23 302.221 115.66 302.221 116.095C302.221 116.53 302.252 116.95 302.252 117.385Z" fill="#275291"/>
<path d="M301.216 135.414L301.009 133.165L301.174 133.331L301.216 135.414Z" fill="#275291"/>
<path d="M308.189 129.959L307.557 128.814C307.557 128.705 307.557 128.591 307.516 128.482L308.189 129.959Z" fill="#275291"/>
<path d="M294.331 102.967C293.554 102.618 292.818 102.185 292.134 101.677C288.813 107.604 284.819 103.434 279.742 110.542C284.524 106.879 288.301 110.93 294.331 102.967Z" fill="#2E81F4"/>
<path d="M279.742 110.542L280.607 109.925C280.918 109.754 281.224 109.578 281.545 109.407C282.196 109.123 282.875 108.908 283.571 108.765C284.959 108.459 286.384 108.376 287.715 107.956C289.054 107.552 290.298 106.882 291.373 105.988C292.451 105.08 293.44 104.07 294.326 102.973C293.517 104.14 292.569 105.205 291.502 106.143C290.422 107.083 289.151 107.779 287.777 108.184C286.399 108.513 285.003 108.764 283.597 108.936C282.204 109.163 280.884 109.713 279.742 110.542V110.542Z" fill="#275291"/>
<g style="mix-blend-mode:multiply" opacity="0.4">
<path d="M282.976 133.766C281.197 130.804 279.804 127.627 278.831 124.312L278.992 123.939L279.934 122.498L280.416 121.825L280.634 121.504L280.851 121.193C281.099 125.449 281.811 129.665 282.976 133.766V133.766Z" fill="#2E81F4"/>
</g>
<path d="M280.841 121.167L278.826 124.306L278.748 124.042L280.841 121.167Z" fill="#275291"/>
<defs>
<linearGradient id="paint0_linear" x1="7.44586" y1="131.858" x2="553.654" y2="387.75" gradientUnits="userSpaceOnUse">
<stop stop-color="#DAF2FF"/>
<stop offset="1" stop-color="white"/>
</linearGradient>
<linearGradient id="paint1_linear" x1="421728" y1="279662" x2="478357" y2="254725" gradientUnits="userSpaceOnUse">
<stop stop-color="#7E89A3"/>
<stop offset="0.05" stop-color="#8993AB"/>
<stop offset="0.26" stop-color="#B3B9C9"/>
<stop offset="0.47" stop-color="#D4D8E0"/>
<stop offset="0.66" stop-color="#ECEDF1"/>
<stop offset="0.85" stop-color="#FAFAFB"/>
<stop offset="1" stop-color="white"/>
</linearGradient>
<linearGradient id="paint2_linear" x1="190629" y1="33234" x2="190629" y2="31233.6" gradientUnits="userSpaceOnUse">
<stop stop-color="#7E89A3"/>
<stop offset="0.05" stop-color="#8993AB"/>
<stop offset="0.26" stop-color="#B3B9C9"/>
<stop offset="0.47" stop-color="#D4D8E0"/>
<stop offset="0.66" stop-color="#ECEDF1"/>
<stop offset="0.85" stop-color="#FAFAFB"/>
<stop offset="1" stop-color="white"/>
</linearGradient>
<linearGradient id="paint3_linear" x1="185448" y1="33004.9" x2="185371" y2="30513.8" gradientUnits="userSpaceOnUse">
<stop stop-color="#7E89A3"/>
<stop offset="0.05" stop-color="#8993AB"/>
<stop offset="0.26" stop-color="#B3B9C9"/>
<stop offset="0.47" stop-color="#D4D8E0"/>
<stop offset="0.66" stop-color="#ECEDF1"/>
<stop offset="0.85" stop-color="#FAFAFB"/>
<stop offset="1" stop-color="white"/>
</linearGradient>
<linearGradient id="paint4_linear" x1="176458" y1="30827.8" x2="176243" y2="27881.4" gradientUnits="userSpaceOnUse">
<stop stop-color="#7E89A3"/>
<stop offset="0.05" stop-color="#8993AB"/>
<stop offset="0.26" stop-color="#B3B9C9"/>
<stop offset="0.47" stop-color="#D4D8E0"/>
<stop offset="0.66" stop-color="#ECEDF1"/>
<stop offset="0.85" stop-color="#FAFAFB"/>
<stop offset="1" stop-color="white"/>
</linearGradient>
<linearGradient id="paint5_linear" x1="161912" y1="27196.9" x2="161553" y2="23613.6" gradientUnits="userSpaceOnUse">
<stop stop-color="#7E89A3"/>
<stop offset="0.05" stop-color="#8993AB"/>
<stop offset="0.26" stop-color="#B3B9C9"/>
<stop offset="0.47" stop-color="#D4D8E0"/>
<stop offset="0.66" stop-color="#ECEDF1"/>
<stop offset="0.85" stop-color="#FAFAFB"/>
<stop offset="1" stop-color="white"/>
</linearGradient>
<linearGradient id="paint6_linear" x1="145433" y1="22352.8" x2="144811" y2="18248.3" gradientUnits="userSpaceOnUse">
<stop stop-color="#7E89A3"/>
<stop offset="0.05" stop-color="#8993AB"/>
<stop offset="0.26" stop-color="#B3B9C9"/>
<stop offset="0.47" stop-color="#D4D8E0"/>
<stop offset="0.66" stop-color="#ECEDF1"/>
<stop offset="0.85" stop-color="#FAFAFB"/>
<stop offset="1" stop-color="white"/>
</linearGradient>
<linearGradient id="paint7_linear" x1="291.974" y1="210.615" x2="297.191" y2="210.615" gradientUnits="userSpaceOnUse">
<stop stop-color="#F6BDCE"/>
<stop offset="1" stop-color="#F696B5"/>
</linearGradient>
<linearGradient id="paint8_linear" x1="16522.4" y1="2687.62" x2="16586.7" y2="2687.62" gradientUnits="userSpaceOnUse">
<stop stop-color="#F6BDCE"/>
<stop offset="1" stop-color="#F696B5"/>
</linearGradient>
<linearGradient id="paint9_linear" x1="18528.8" y1="4743.5" x2="18606.9" y2="4743.5" gradientUnits="userSpaceOnUse">
<stop stop-color="#F6BDCE"/>
<stop offset="1" stop-color="#F696B5"/>
</linearGradient>
<linearGradient id="paint10_linear" x1="17486.6" y1="3512.55" x2="17562" y2="3512.55" gradientUnits="userSpaceOnUse">
<stop stop-color="#F6BDCE"/>
<stop offset="1" stop-color="#F696B5"/>
</linearGradient>
<linearGradient id="paint11_linear" x1="43556.9" y1="8248.54" x2="44014.8" y2="8248.54" gradientUnits="userSpaceOnUse">
<stop stop-color="#F6BDCE"/>
<stop offset="1" stop-color="#F696B5"/>
</linearGradient>
</defs>
</svg>
