<svg width="64" height="64" viewBox="0 0 64 64" fill="none" xmlns="http://www.w3.org/2000/svg">
<path d="M32.0982 63.6674C49.4502 63.6674 63.5167 49.415 63.5167 31.8337C63.5167 14.2524 49.4502 0 32.0982 0C14.7462 0 0.679688 14.2524 0.679688 31.8337C0.679688 49.415 14.7462 63.6674 32.0982 63.6674Z" fill="#00ADEE"/>
<path d="M51.3445 22.8736C49.9981 23.4785 48.5498 23.8877 47.0309 24.0704C48.5817 23.129 49.7718 21.6394 50.3336 19.8615C48.8825 20.7337 47.2745 21.3664 45.5646 21.7075C44.1947 20.2292 42.2429 19.3054 40.0816 19.3054C35.9349 19.3054 32.5717 22.713 32.5717 26.9145C32.5717 27.511 32.6383 28.0915 32.7671 28.6487C26.5258 28.3315 20.9918 25.3024 17.2875 20.6974C16.6412 21.821 16.2704 23.129 16.2704 24.5232C16.2704 27.1625 17.5972 29.4925 19.6112 30.8567C18.3807 30.8176 17.222 30.4754 16.2099 29.904C16.2094 29.9363 16.2094 29.9686 16.2094 30.0004C16.2094 33.6873 18.7991 36.7624 22.234 37.4609C21.6045 37.6357 20.9397 37.7282 20.2558 37.7282C19.7708 37.7282 19.3009 37.6811 18.8428 37.5926C19.7983 40.6149 22.5711 42.8149 25.8582 42.8768C23.2875 44.918 20.0497 46.1341 16.5303 46.1341C15.9254 46.1341 15.3261 46.0983 14.7397 46.0274C18.0615 48.1871 22.01 49.4464 26.2508 49.4464C40.0642 49.4464 47.6184 37.8519 47.6184 27.7958C47.6184 27.4661 47.6111 27.1376 47.5965 26.8118C49.065 25.7393 50.3381 24.3995 51.3445 22.8736Z" fill="white"/>
</svg>
