<svg width="546" height="564" viewBox="0 0 546 564" fill="none" xmlns="http://www.w3.org/2000/svg">
<circle cx="417.084" cy="489.122" r="75" fill="#00ADEE"/>
<path d="M91.9208 18.2749C163.315 -30.3528 308.843 36.3424 372.683 75.7684C610.765 205.339 546.201 326.545 485.624 393.449C455.675 426.525 430.411 462.282 267.208 533.918C104.005 605.554 34.6377 490.199 20.3543 423.567C-14.2662 294.767 2.67773 79.0595 91.9208 18.2749Z" fill="url(#paint0_linear)"/>
<path opacity="0.1" d="M119.348 289.289L162.548 264.389C163.248 263.989 163.148 263.189 162.348 262.689L119.548 237.989C118.648 237.489 117.448 237.489 116.648 237.889L73.4475 262.789C72.7475 263.189 72.8475 263.989 73.6475 264.489L116.448 289.189C117.348 289.589 118.648 289.689 119.348 289.289Z" fill="#242993"/>
<path d="M118.147 300.489C118.847 300.489 119.647 300.289 120.147 299.989L180.647 264.989C181.247 264.689 181.547 264.089 181.547 263.589C181.547 262.989 181.147 262.289 180.347 261.889L120.347 227.289C119.047 226.489 117.047 226.489 115.847 227.089L55.3469 262.089C54.7469 262.389 54.4469 262.989 54.4469 263.489C54.4469 264.089 54.8469 264.789 55.6469 265.189L115.647 299.789C116.347 300.189 117.247 300.489 118.147 300.489ZM117.947 227.589C118.647 227.589 119.447 227.789 120.047 228.089L180.047 262.689C180.547 262.989 180.847 263.289 180.847 263.589C180.847 263.889 180.547 264.089 180.347 264.189L119.847 299.189C118.947 299.689 117.347 299.589 116.247 298.989L56.2469 264.389C55.7469 264.089 55.4469 263.789 55.4469 263.489C55.4469 263.189 55.7469 262.989 55.9469 262.889L116.447 227.889C116.847 227.689 117.347 227.589 117.947 227.589Z" fill="#FFC700"/>
<path d="M73.0465 246.989V238.689H86.6465L116.746 221.289C117.446 220.889 118.746 220.889 119.646 221.389L149.646 238.689H163.146V247.089C163.146 247.389 162.946 247.589 162.646 247.789L119.446 272.689C118.746 273.089 117.446 273.089 116.546 272.589L73.7465 247.889C73.2465 247.589 73.0465 247.289 73.0465 246.989Z" fill="url(#paint1_linear)"/>
<path d="M119.346 264.389L162.546 239.489C163.246 239.089 163.146 238.289 162.346 237.789L119.546 213.089C118.646 212.589 117.446 212.589 116.646 212.989L73.4456 237.889C72.7456 238.289 72.8456 239.089 73.6456 239.589L116.446 264.289C117.346 264.789 118.646 264.789 119.346 264.389Z" fill="url(#paint2_linear)"/>
<path d="M119.346 264.389L162.546 239.489C163.246 239.089 163.146 238.289 162.346 237.789L119.546 213.089C118.646 212.589 117.446 212.589 116.646 212.989L73.4456 237.889C72.7456 238.289 72.8456 239.089 73.6456 239.589L116.446 264.289C117.346 264.789 118.646 264.789 119.346 264.389Z" fill="url(#paint3_linear)"/>
<path d="M119.246 261.489L157.546 239.389C158.246 238.989 158.146 238.389 157.346 237.889L119.446 215.989C118.646 215.589 117.546 215.489 116.846 215.889L78.5456 237.989C77.8456 238.389 77.9456 238.989 78.7456 239.489L116.646 261.389C117.446 261.789 118.546 261.789 119.246 261.489Z" fill="#242993"/>
<path d="M119.146 259.589L154.346 239.289C154.946 238.989 154.846 238.289 154.146 237.889L119.346 217.789C118.646 217.389 117.646 217.389 117.046 217.689L81.8463 237.989C81.2463 238.289 81.3463 238.989 82.0463 239.389L116.846 259.489C117.446 259.889 118.546 259.989 119.146 259.589Z" fill="#4553C7"/>
<path d="M118.845 237.289L122.945 234.989L120.745 233.689L116.645 236.089L118.845 237.289Z" fill="#42FFFF"/>
<path d="M111.247 236.989L115.347 239.389L117.547 238.089L113.447 235.689L111.247 236.989Z" fill="#42FFFF"/>
<path d="M119.746 237.889L122.046 239.189L124.246 237.889L122.046 236.589L119.746 237.889Z" fill="#42FFFF"/>
<path d="M112.046 242.389L114.246 243.689L120.746 239.889L118.546 238.589L112.046 242.389Z" fill="#42FFFF"/>
<path opacity="0.4" d="M73.0465 227.489L91.4465 227.589L116.746 212.989C117.446 212.589 118.746 212.589 119.646 213.089L145.346 227.889L163.146 227.989V238.789C163.146 238.989 162.946 239.189 162.646 239.389L119.446 264.289C118.746 264.689 117.446 264.689 116.546 264.189L73.7465 239.489C73.3465 239.289 73.1465 238.989 73.0465 238.689V227.489Z" fill="#42FFFF"/>
<path d="M73.0465 228.489V220.189H86.6465L116.746 202.789C117.446 202.389 118.746 202.389 119.646 202.889L149.646 220.189H163.146V228.589C163.146 228.889 162.946 229.089 162.646 229.289L119.446 254.189C118.746 254.589 117.446 254.589 116.546 254.089L73.7465 229.389C73.2465 229.189 73.0465 228.889 73.0465 228.489Z" fill="url(#paint4_linear)"/>
<path d="M119.346 245.889L162.546 220.989C163.246 220.589 163.146 219.789 162.346 219.289L119.546 194.589C118.646 194.089 117.446 194.089 116.646 194.489L73.4456 219.389C72.7456 219.789 72.8456 220.589 73.6456 221.089L116.446 245.789C117.346 246.289 118.646 246.289 119.346 245.889Z" fill="url(#paint5_linear)"/>
<path d="M119.246 242.989L157.546 220.889C158.246 220.489 158.146 219.889 157.346 219.389L119.446 197.489C118.646 197.089 117.546 196.989 116.846 197.389L78.5456 219.489C77.8456 219.889 77.9456 220.489 78.7456 220.989L116.646 242.889C117.446 243.289 118.546 243.389 119.246 242.989Z" fill="#005676"/>
<path d="M119.146 241.089L154.346 220.789C154.946 220.489 154.846 219.789 154.146 219.389L119.346 199.289C118.646 198.889 117.646 198.889 117.046 199.189L81.8463 219.489C81.2463 219.789 81.3463 220.489 82.0463 220.889L116.846 240.989C117.446 241.489 118.546 241.489 119.146 241.089Z" fill="#005676"/>
<path d="M118.845 218.889L122.945 216.489L120.745 215.189L116.645 217.589L118.845 218.889Z" fill="#FFC700"/>
<path d="M111.247 218.489L115.347 220.889L117.547 219.589L113.447 217.289L111.247 218.489Z" fill="#FFC700"/>
<path d="M119.746 219.389L122.046 220.689L124.246 219.389L122.046 218.089L119.746 219.389Z" fill="#FFC700"/>
<path d="M112.046 223.889L114.246 225.189L120.746 221.489L118.546 220.189L112.046 223.889Z" fill="#FFC700"/>
<path opacity="0.1" d="M420.646 292.289L463.846 267.389C464.546 266.989 464.446 266.189 463.646 265.689L420.846 240.989C419.946 240.489 418.746 240.489 417.946 240.889L374.746 265.789C374.046 266.189 374.146 266.989 374.946 267.489L417.746 292.189C418.546 292.689 419.846 292.689 420.646 292.289Z" fill="#242993"/>
<path d="M419.446 303.489C420.146 303.489 420.946 303.289 421.446 302.989L481.946 267.989C482.546 267.689 482.846 267.089 482.846 266.589C482.846 265.989 482.446 265.289 481.646 264.889L421.646 230.289C420.346 229.489 418.346 229.389 417.146 230.089L356.646 265.089C356.046 265.389 355.746 265.989 355.746 266.489C355.746 267.089 356.146 267.789 356.946 268.189L416.946 302.789C417.646 303.289 418.546 303.489 419.446 303.489ZM420.946 302.189C420.046 302.689 418.446 302.589 417.346 301.989L357.346 267.389C356.846 267.089 356.546 266.789 356.546 266.489C356.546 266.189 356.846 265.989 357.046 265.889L417.546 230.889C418.446 230.389 420.046 230.489 421.146 231.089L481.146 265.689C481.646 265.989 481.946 266.289 481.946 266.589C481.946 266.889 481.646 267.089 481.446 267.189L420.946 302.189Z" fill="#0DA800"/>
<path d="M374.246 249.989V241.689H387.846L417.946 224.289C418.646 223.889 419.946 223.889 420.846 224.389L450.846 241.689H464.346V250.089C464.346 250.389 464.146 250.589 463.846 250.789L420.646 275.689C419.946 276.089 418.646 276.089 417.746 275.589L374.946 250.889C374.546 250.689 374.246 250.289 374.246 249.989Z" fill="url(#paint6_linear)"/>
<path d="M420.646 267.389L463.846 242.489C464.546 242.089 464.446 241.289 463.646 240.789L420.846 216.089C419.946 215.589 418.746 215.589 417.946 215.989L374.746 240.889C374.046 241.289 374.146 242.089 374.946 242.589L417.746 267.289C418.546 267.789 419.846 267.789 420.646 267.389Z" fill="url(#paint7_linear)"/>
<path d="M420.646 267.389L463.846 242.489C464.546 242.089 464.446 241.289 463.646 240.789L420.846 216.089C419.946 215.589 418.746 215.589 417.946 215.989L374.746 240.889C374.046 241.289 374.146 242.089 374.946 242.589L417.746 267.289C418.546 267.789 419.846 267.789 420.646 267.389Z" fill="url(#paint8_linear)"/>
<path d="M420.445 264.489L458.745 242.389C459.445 241.989 459.345 241.389 458.545 240.889L420.645 218.989C419.845 218.589 418.745 218.489 418.045 218.889L379.745 240.989C379.045 241.389 379.145 241.989 379.945 242.489L417.845 264.389C418.645 264.789 419.845 264.889 420.445 264.489Z" fill="#242993"/>
<path d="M420.345 262.589L455.545 242.289C456.145 241.989 456.045 241.289 455.345 240.889L420.545 220.789C419.845 220.389 418.845 220.389 418.245 220.689L383.045 240.989C382.445 241.289 382.545 241.989 383.245 242.389L418.045 262.489C418.745 262.889 419.745 262.989 420.345 262.589Z" fill="#4553C7"/>
<path d="M420.044 240.389L424.244 237.989L421.944 236.689L417.844 239.089L420.044 240.389Z" fill="#42FFFF"/>
<path d="M412.446 239.989L416.546 242.389L418.846 241.089L414.646 238.689L412.446 239.989Z" fill="#42FFFF"/>
<path d="M421.045 240.889L423.245 242.189L425.545 240.889L423.245 239.589L421.045 240.889Z" fill="#42FFFF"/>
<path d="M413.245 245.389L415.545 246.689L421.945 242.889L419.745 241.689L413.245 245.389Z" fill="#42FFFF"/>
<path opacity="0.4" d="M374.246 230.489L392.646 230.589L417.946 215.989C418.646 215.589 419.946 215.589 420.846 216.089L446.546 230.889L464.346 230.989V241.789C464.346 241.989 464.146 242.189 463.846 242.389L420.646 267.289C419.946 267.689 418.646 267.689 417.746 267.189L374.946 242.489C374.546 242.289 374.346 241.989 374.246 241.689V230.489V230.489Z" fill="#42FFFF"/>
<path d="M374.246 231.589V223.289H387.846L417.946 205.889C418.646 205.489 419.946 205.489 420.846 205.989L450.846 223.289H464.346V231.689C464.346 231.989 464.146 232.189 463.846 232.389L420.646 257.289C419.946 257.689 418.646 257.689 417.746 257.189L374.946 232.489C374.546 232.189 374.246 231.889 374.246 231.589Z" fill="url(#paint9_linear)"/>
<path d="M420.646 248.889L463.846 223.989C464.546 223.589 464.446 222.789 463.646 222.289L420.846 197.589C419.946 197.089 418.746 197.089 417.946 197.489L374.746 222.389C374.046 222.789 374.146 223.589 374.946 224.089L417.746 248.789C418.546 249.289 419.846 249.389 420.646 248.889Z" fill="url(#paint10_linear)"/>
<path d="M420.445 245.989L458.745 223.889C459.445 223.489 459.345 222.889 458.545 222.389L420.645 200.489C419.845 200.089 418.745 199.989 418.045 200.389L379.745 222.489C379.045 222.889 379.145 223.489 379.945 223.989L417.845 245.889C418.645 246.389 419.845 246.389 420.445 245.989Z" fill="#005676"/>
<path d="M420.345 244.189L455.545 223.889C456.145 223.589 456.045 222.889 455.345 222.489L420.545 202.389C419.845 201.989 418.845 201.989 418.245 202.289L383.045 222.589C382.445 222.889 382.545 223.589 383.245 223.989L418.045 244.089C418.745 244.489 419.745 244.489 420.345 244.189Z" fill="#005676"/>
<path d="M420.044 221.889L424.244 219.489L421.944 218.189L417.844 220.589L420.044 221.889Z" fill="#0DA800"/>
<path d="M412.446 221.589L416.546 223.889L418.846 222.589L414.646 220.289L412.446 221.589Z" fill="#0DA800"/>
<path d="M421.045 222.389L423.245 223.689L425.545 222.389L423.245 221.089L421.045 222.389Z" fill="#0DA800"/>
<path d="M413.245 226.889L415.545 228.189L421.945 224.489L419.745 223.189L413.245 226.889Z" fill="#0DA800"/>
<path d="M172.447 420.489C173.147 420.489 173.847 420.289 174.447 419.989L209.947 399.489L209.447 398.689L173.947 419.189C173.047 419.689 171.847 419.689 170.947 419.189L12.2473 327.589C12.0473 327.489 11.9473 327.189 11.9473 327.089C11.9473 326.989 11.9473 326.789 12.2473 326.589L87.4473 283.189L86.9473 282.389L11.7473 325.789C11.2473 326.089 11.0473 326.489 11.0473 327.089C11.0473 327.689 11.3473 328.089 11.7473 328.389L170.447 419.989C171.047 420.289 171.747 420.489 172.447 420.489Z" fill="#FFC700"/>
<path d="M358.347 430.289L358.547 430.189L531.047 330.889L530.347 330.389L451.647 284.989L451.247 285.789L529.147 330.889L358.347 429.189L309.647 401.189L309.147 401.989L358.347 430.289Z" fill="#0DA800"/>
<path opacity="0.1" d="M264.246 412.789L343.046 367.289C344.346 366.489 344.246 365.189 342.646 364.289L264.546 319.189C262.946 318.289 260.646 318.189 259.246 318.989L180.346 364.589C179.046 365.389 179.146 366.689 180.746 367.589L258.946 412.589C260.446 413.489 262.846 413.589 264.246 412.789Z" fill="#242993"/>
<path d="M261.946 428.489C263.146 428.489 264.346 428.189 265.146 427.689L368.346 368.089C369.246 367.589 369.746 366.789 369.746 365.889C369.746 364.889 369.046 363.889 367.846 363.189L265.646 304.189C263.446 302.889 260.146 302.789 258.246 303.889L155.146 363.589C154.246 364.089 153.746 364.889 153.746 365.789C153.746 366.789 154.446 367.789 155.646 368.489L257.846 427.489C259.046 428.089 260.546 428.489 261.946 428.489ZM261.546 304.189C262.846 304.189 264.146 304.489 265.146 305.089L367.346 364.089C368.246 364.589 368.746 365.289 368.746 365.889C368.746 366.489 368.246 366.889 367.846 367.189L264.646 426.789C263.046 427.689 260.146 427.589 258.246 426.489L156.046 367.489C155.146 366.989 154.646 366.289 154.646 365.689C154.646 365.089 155.146 364.689 155.546 364.389L258.746 304.789C259.546 304.389 260.546 304.189 261.546 304.189Z" fill="#00ADEE"/>
<path d="M179.546 341.29V326.09H204.346L259.346 294.29C260.646 293.49 263.046 293.59 264.646 294.49L319.446 326.09H344.146V341.39C344.146 341.89 343.846 342.29 343.246 342.69L264.346 388.29C263.046 389.09 260.646 388.99 259.046 388.09L180.946 342.99C179.946 342.49 179.546 341.89 179.546 341.29Z" fill="url(#paint11_linear)"/>
<path d="M264.246 373.089L343.046 327.489C344.346 326.689 344.246 325.389 342.646 324.489L264.546 279.389C262.946 278.489 260.646 278.389 259.246 279.189L180.346 324.789C179.046 325.589 179.146 326.889 180.746 327.789L258.846 372.889C260.446 373.789 262.846 373.789 264.246 373.089Z" fill="url(#paint12_linear)"/>
<path d="M263.946 367.69L333.846 327.29C335.046 326.59 334.846 325.39 333.546 324.59L264.246 284.59C262.846 283.79 260.746 283.689 259.546 284.389L189.646 324.79C188.446 325.49 188.646 326.69 189.946 327.49L259.246 367.49C260.646 368.29 262.746 368.39 263.946 367.69Z" fill="#242993" fill-opacity="0.18"/>
<path d="M263.746 364.389L328.046 327.289C329.146 326.689 329.046 325.589 327.746 324.789L264.146 288.089C262.846 287.389 260.946 287.289 259.846 287.889L195.546 324.989C194.446 325.589 194.546 326.689 195.846 327.489L259.446 364.189C260.746 364.889 262.646 364.989 263.746 364.389Z" fill="#00ADEE"/>
<path d="M263.246 323.69L270.746 319.389L266.646 316.99L259.146 321.29L263.246 323.69Z" fill="#42FFFF"/>
<path d="M249.246 323.089L256.746 327.389L260.846 324.989L253.346 320.689L249.246 323.089Z" fill="#42FFFF"/>
<path d="M264.946 324.69L269.046 326.99L273.146 324.69L269.046 322.29L264.946 324.69Z" fill="#42FFFF"/>
<path d="M250.746 332.889L254.846 335.189L266.646 328.389L262.546 325.989L250.746 332.889Z" fill="#42FFFF"/>
<path d="M261.745 201.789L325.945 164.689L261.745 127.689L197.545 164.689L261.745 201.789Z" fill="#BCD5FF"/>
<path d="M261.745 344.09L325.945 307.09L261.745 269.99L197.545 307.09L261.745 344.09Z" fill="white"/>
<path d="M197.546 164.689V307.089L261.746 344.089V201.789L197.546 164.689Z" fill="url(#paint13_linear)"/>
<path d="M325.945 164.689V307.089L261.745 344.089V201.789L325.945 164.689Z" fill="#005676"/>
<g opacity="0.51">
<path d="M321.645 174.189V302.089L266.145 334.189V206.189L321.645 174.189Z" fill="#00ADEE"/>
</g>
<path d="M207.145 199.089V202.889L252.145 228.789V225.089L207.145 199.089Z" fill="#00ADEE"/>
<path d="M207.145 214.99V218.79L252.145 244.69V240.99L207.145 214.99Z" fill="#00ADEE"/>
<path d="M207.145 230.889V234.689L252.145 260.689V256.889L207.145 230.889Z" fill="#00ADEE"/>
<path d="M207.145 246.79V250.59L252.145 276.59V272.79L207.145 246.79Z" fill="#00ADEE"/>
<path d="M207.145 262.689V266.489L252.145 292.489V288.689L207.145 262.689Z" fill="#00ADEE"/>
<path d="M207.145 278.689V282.389L252.145 308.389V304.589L207.145 278.689Z" fill="#00ADEE"/>
<path d="M261.745 200.489L324.845 164.089L325.945 164.689L261.745 201.789L197.545 164.689L198.645 164.089L261.745 200.489Z" fill="white"/>
<path d="M261.746 188.789L308.346 161.89L261.746 134.99L215.146 161.89L261.746 188.789Z" fill="url(#paint14_linear)"/>
<path d="M215.146 161.889V165.189L261.746 192.089V188.789L215.146 161.889Z" fill="url(#paint15_linear)"/>
<path d="M308.346 161.889V165.189L261.746 192.089V188.789L308.346 161.889Z" fill="#8AACE4"/>
<path d="M279.845 162.289L281.945 161.09L281.745 160.19L262.545 148.99L259.945 150.289L260.445 151.09L279.845 162.289Z" fill="#00ADEE"/>
<path d="M262.446 149.889L260.446 151.089L259.046 150.289L262.446 148.389L283.246 160.389L281.846 161.089L262.446 149.889Z" fill="url(#paint16_linear)"/>
<path d="M273.545 165.89L275.645 164.69L275.445 163.79L256.345 152.59L253.645 153.89L254.145 154.69L273.545 165.89Z" fill="#00ADEE"/>
<path d="M256.245 153.49L254.145 154.69L252.845 153.99L256.245 151.99L276.945 163.99L275.645 164.69L256.245 153.49Z" fill="url(#paint17_linear)"/>
<path d="M267.346 169.489L269.346 168.289L269.246 167.389L250.046 156.189L247.346 157.489L247.846 158.289L267.346 169.489Z" fill="#00ADEE"/>
<path d="M249.946 157.089L247.846 158.289L246.546 157.589L249.946 155.589L270.646 167.589L269.346 168.289L249.946 157.089Z" fill="url(#paint18_linear)"/>
<path d="M261.045 173.09L263.145 171.89L262.945 170.99L243.745 159.79L241.145 161.09L241.645 161.89L261.045 173.09Z" fill="#00ADEE"/>
<path d="M243.645 160.689L241.645 161.889L240.345 161.189L243.645 159.189L264.445 171.189L263.145 171.889L243.645 160.689Z" fill="url(#paint19_linear)"/>
<path d="M264.345 208.189C264.345 206.589 265.445 204.589 266.945 203.789C267.645 203.389 268.345 203.389 268.745 203.589L270.545 204.689H269.445C269.445 204.889 269.545 205.089 269.545 205.289C269.545 206.889 268.445 208.889 266.945 209.689C266.745 209.789 266.545 209.889 266.445 209.889L266.945 210.889L265.145 209.889C264.545 209.589 264.345 208.989 264.345 208.189Z" fill="url(#paint20_linear)"/>
<path d="M266.146 209.289C266.146 210.889 267.246 211.589 268.746 210.789C270.146 209.989 271.346 207.989 271.346 206.389C271.346 204.789 270.246 204.089 268.746 204.889C267.246 205.689 266.146 207.589 266.146 209.289Z" fill="url(#paint21_linear)"/>
<path d="M267.246 208.689C267.246 209.589 267.946 209.989 268.746 209.489C269.546 208.989 270.246 207.889 270.246 206.989C270.246 206.089 269.546 205.689 268.746 206.189C267.846 206.589 267.246 207.689 267.246 208.689Z" fill="#FB4B00"/>
<path d="M318.144 175.09C318.144 173.49 319.244 171.49 320.744 170.69C321.444 170.29 322.144 170.29 322.544 170.49L324.344 171.59H323.244C323.244 171.79 323.344 171.99 323.344 172.19C323.344 173.79 322.244 175.79 320.744 176.59C320.544 176.69 320.344 176.79 320.244 176.79L320.744 177.79L318.944 176.79C318.444 176.49 318.144 175.89 318.144 175.09Z" fill="url(#paint22_linear)"/>
<path d="M319.945 176.189C319.945 177.789 321.045 178.489 322.545 177.689C324.045 176.889 325.145 174.889 325.145 173.289C325.145 171.689 324.045 170.989 322.545 171.789C321.145 172.589 319.945 174.589 319.945 176.189Z" fill="url(#paint23_linear)"/>
<path d="M321.045 175.589C321.045 176.489 321.745 176.889 322.545 176.389C323.345 175.889 324.045 174.789 324.045 173.889C324.045 172.989 323.345 172.589 322.545 173.089C321.745 173.489 321.045 174.589 321.045 175.589Z" fill="#FB4B00"/>
<path d="M264.345 335.689C264.345 334.089 265.445 332.089 266.945 331.289C267.645 330.889 268.345 330.889 268.745 331.089L270.545 332.189H269.445C269.445 332.389 269.545 332.589 269.545 332.789C269.545 334.389 268.445 336.389 266.945 337.189C266.745 337.289 266.545 337.389 266.445 337.389L266.945 338.389L265.145 337.389C264.545 337.089 264.345 336.489 264.345 335.689Z" fill="url(#paint24_linear)"/>
<path d="M266.146 336.689C266.146 338.289 267.246 338.989 268.746 338.189C270.146 337.389 271.346 335.389 271.346 333.789C271.346 332.189 270.246 331.489 268.746 332.289C267.246 333.089 266.146 335.089 266.146 336.689Z" fill="url(#paint25_linear)"/>
<path d="M267.246 336.089C267.246 336.989 267.946 337.389 268.746 336.889C269.546 336.389 270.246 335.289 270.246 334.389C270.246 333.489 269.546 333.089 268.746 333.589C267.846 333.989 267.246 335.189 267.246 336.089Z" fill="#FB4B00"/>
<path d="M318.144 302.59C318.144 300.99 319.244 298.99 320.744 298.19C321.444 297.79 322.144 297.79 322.544 297.99L324.344 299.09H323.244C323.244 299.29 323.344 299.49 323.344 299.69C323.344 301.29 322.244 303.29 320.744 304.09C320.544 304.19 320.344 304.29 320.244 304.29L320.744 305.29L318.944 304.29C318.444 303.99 318.144 303.39 318.144 302.59Z" fill="url(#paint26_linear)"/>
<path d="M319.945 303.689C319.945 305.289 321.045 305.989 322.545 305.189C323.945 304.389 325.145 302.389 325.145 300.789C325.145 299.189 324.045 298.489 322.545 299.289C321.045 300.089 319.945 301.989 319.945 303.689Z" fill="url(#paint27_linear)"/>
<path d="M321.045 302.99C321.045 303.89 321.745 304.29 322.545 303.79C323.345 303.29 324.045 302.19 324.045 301.29C324.045 300.39 323.345 299.99 322.545 300.49C321.745 300.89 321.045 302.09 321.045 302.99Z" fill="#FB4B00"/>
<path d="M429.946 368.989L461.746 350.589L429.946 332.289L398.146 350.589L429.946 368.989ZM459.946 350.589L429.946 367.889L399.946 350.589L429.946 333.289L459.946 350.589Z" fill="#C2D6FF"/>
<path d="M147.747 350.589L179.547 332.289L147.747 313.989L115.947 332.289L147.747 350.589ZM177.847 332.189L147.847 349.489L117.847 332.189L147.847 314.889L177.847 332.189Z" fill="#C2D6FF"/>
<path d="M101.048 475.289L132.848 456.989L101.048 438.689L69.2477 456.989L101.048 475.289ZM131.048 456.989L101.048 474.289L71.0477 456.989L101.048 439.689L131.048 456.989Z" fill="#C2D6FF"/>
<defs>
<linearGradient id="paint0_linear" x1="374.314" y1="650.877" x2="27.5631" y2="125.969" gradientUnits="userSpaceOnUse">
<stop stop-color="white"/>
<stop offset="1" stop-color="#D9EFFB"/>
</linearGradient>
<linearGradient id="paint1_linear" x1="92.2651" y1="222.409" x2="162.354" y2="278.69" gradientUnits="userSpaceOnUse">
<stop stop-color="#BCD5FF"/>
<stop offset="1" stop-color="#B3BFF0"/>
</linearGradient>
<linearGradient id="paint2_linear" x1="79.0014" y1="239.526" x2="176.616" y2="209.039" gradientUnits="userSpaceOnUse">
<stop stop-color="#C0D6FF"/>
<stop offset="0.2978" stop-color="#C5DBFF"/>
<stop offset="0.6488" stop-color="#D3E9FF"/>
<stop offset="1" stop-color="#E9FFFF"/>
</linearGradient>
<linearGradient id="paint3_linear" x1="79.0014" y1="239.526" x2="176.616" y2="209.039" gradientUnits="userSpaceOnUse">
<stop stop-color="#C0D6FF"/>
<stop offset="0.2978" stop-color="#C5DBFF"/>
<stop offset="0.6488" stop-color="#D3E9FF"/>
<stop offset="1" stop-color="#E9FFFF"/>
</linearGradient>
<linearGradient id="paint4_linear" x1="92.2651" y1="203.909" x2="162.354" y2="260.19" gradientUnits="userSpaceOnUse">
<stop stop-color="#BCD5FF"/>
<stop offset="1" stop-color="#B3BFF0"/>
</linearGradient>
<linearGradient id="paint5_linear" x1="79.0014" y1="221.063" x2="176.616" y2="190.575" gradientUnits="userSpaceOnUse">
<stop stop-color="#C0D6FF"/>
<stop offset="0.2978" stop-color="#C5DBFF"/>
<stop offset="0.6488" stop-color="#D3E9FF"/>
<stop offset="1" stop-color="#E9FFFF"/>
</linearGradient>
<linearGradient id="paint6_linear" x1="393.464" y1="225.409" x2="463.553" y2="281.69" gradientUnits="userSpaceOnUse">
<stop stop-color="#BCD5FF"/>
<stop offset="1" stop-color="#B3BFF0"/>
</linearGradient>
<linearGradient id="paint7_linear" x1="380.237" y1="242.548" x2="477.852" y2="212.06" gradientUnits="userSpaceOnUse">
<stop stop-color="#C0D6FF"/>
<stop offset="0.2978" stop-color="#C5DBFF"/>
<stop offset="0.6488" stop-color="#D3E9FF"/>
<stop offset="1" stop-color="#E9FFFF"/>
</linearGradient>
<linearGradient id="paint8_linear" x1="380.237" y1="242.548" x2="477.852" y2="212.06" gradientUnits="userSpaceOnUse">
<stop stop-color="#C0D6FF"/>
<stop offset="0.2978" stop-color="#C5DBFF"/>
<stop offset="0.6488" stop-color="#D3E9FF"/>
<stop offset="1" stop-color="#E9FFFF"/>
</linearGradient>
<linearGradient id="paint9_linear" x1="393.464" y1="207.009" x2="463.553" y2="263.289" gradientUnits="userSpaceOnUse">
<stop stop-color="#BCD5FF"/>
<stop offset="1" stop-color="#B3BFF0"/>
</linearGradient>
<linearGradient id="paint10_linear" x1="380.237" y1="224.085" x2="477.852" y2="193.597" gradientUnits="userSpaceOnUse">
<stop stop-color="#C0D6FF"/>
<stop offset="0.2978" stop-color="#C5DBFF"/>
<stop offset="0.6488" stop-color="#D3E9FF"/>
<stop offset="1" stop-color="#E9FFFF"/>
</linearGradient>
<linearGradient id="paint11_linear" x1="214.656" y1="296.323" x2="342.836" y2="399.109" gradientUnits="userSpaceOnUse">
<stop stop-color="#BCD5FF"/>
<stop offset="1" stop-color="#B3BFF0"/>
</linearGradient>
<linearGradient id="paint12_linear" x1="190.43" y1="327.68" x2="368.724" y2="271.993" gradientUnits="userSpaceOnUse">
<stop stop-color="#C0D6FF"/>
<stop offset="0.2978" stop-color="#C5DBFF"/>
<stop offset="0.6488" stop-color="#D3E9FF"/>
<stop offset="1" stop-color="#E9FFFF"/>
</linearGradient>
<linearGradient id="paint13_linear" x1="229.648" y1="304.061" x2="229.648" y2="168.527" gradientUnits="userSpaceOnUse">
<stop stop-color="#C0D6FF"/>
<stop offset="0.2978" stop-color="#C5DBFF"/>
<stop offset="0.6488" stop-color="#D3E9FF"/>
<stop offset="1" stop-color="#E9FFFF"/>
</linearGradient>
<linearGradient id="paint14_linear" x1="308.361" y1="161.88" x2="215.16" y2="161.88" gradientUnits="userSpaceOnUse">
<stop stop-color="#C0D6FF"/>
<stop offset="0.2978" stop-color="#C5DBFF"/>
<stop offset="0.6488" stop-color="#D3E9FF"/>
<stop offset="1" stop-color="#E9FFFF"/>
</linearGradient>
<linearGradient id="paint15_linear" x1="232.445" y1="187.471" x2="243.775" y2="167.689" gradientUnits="userSpaceOnUse">
<stop stop-color="#C0D6FF"/>
<stop offset="0.2978" stop-color="#C5DBFF"/>
<stop offset="0.6488" stop-color="#D3E9FF"/>
<stop offset="1" stop-color="#E9FFFF"/>
</linearGradient>
<linearGradient id="paint16_linear" x1="283.224" y1="154.749" x2="259.09" y2="154.749" gradientUnits="userSpaceOnUse">
<stop stop-color="#5778FF"/>
<stop offset="0.1779" stop-color="#5C7DFF"/>
<stop offset="0.3876" stop-color="#6A8AFF"/>
<stop offset="0.6134" stop-color="#82A0FF"/>
<stop offset="0.849" stop-color="#A3BEFF"/>
<stop offset="1" stop-color="#BCD5FF"/>
</linearGradient>
<linearGradient id="paint17_linear" x1="276.959" y1="158.355" x2="252.825" y2="158.355" gradientUnits="userSpaceOnUse">
<stop stop-color="#5778FF"/>
<stop offset="0.1779" stop-color="#5C7DFF"/>
<stop offset="0.3876" stop-color="#6A8AFF"/>
<stop offset="0.6134" stop-color="#82A0FF"/>
<stop offset="0.849" stop-color="#A3BEFF"/>
<stop offset="1" stop-color="#BCD5FF"/>
</linearGradient>
<linearGradient id="paint18_linear" x1="270.696" y1="161.96" x2="246.562" y2="161.96" gradientUnits="userSpaceOnUse">
<stop stop-color="#5778FF"/>
<stop offset="0.1779" stop-color="#5C7DFF"/>
<stop offset="0.3876" stop-color="#6A8AFF"/>
<stop offset="0.6134" stop-color="#82A0FF"/>
<stop offset="0.849" stop-color="#A3BEFF"/>
<stop offset="1" stop-color="#BCD5FF"/>
</linearGradient>
<linearGradient id="paint19_linear" x1="264.43" y1="165.566" x2="240.296" y2="165.566" gradientUnits="userSpaceOnUse">
<stop stop-color="#5778FF"/>
<stop offset="0.1779" stop-color="#5C7DFF"/>
<stop offset="0.3876" stop-color="#6A8AFF"/>
<stop offset="0.6134" stop-color="#82A0FF"/>
<stop offset="0.849" stop-color="#A3BEFF"/>
<stop offset="1" stop-color="#BCD5FF"/>
</linearGradient>
<linearGradient id="paint20_linear" x1="270.483" y1="207.162" x2="264.303" y2="207.162" gradientUnits="userSpaceOnUse">
<stop stop-color="#C0D6FF"/>
<stop offset="0.2978" stop-color="#C5DBFF"/>
<stop offset="0.6488" stop-color="#D3E9FF"/>
<stop offset="1" stop-color="#E9FFFF"/>
</linearGradient>
<linearGradient id="paint21_linear" x1="271.236" y1="207.792" x2="266.125" y2="207.792" gradientUnits="userSpaceOnUse">
<stop stop-color="#5778FF"/>
<stop offset="0.1779" stop-color="#5C7DFF"/>
<stop offset="0.3876" stop-color="#6A8AFF"/>
<stop offset="0.6134" stop-color="#82A0FF"/>
<stop offset="0.849" stop-color="#A3BEFF"/>
<stop offset="1" stop-color="#BCD5FF"/>
</linearGradient>
<linearGradient id="paint22_linear" x1="324.346" y1="174.067" x2="318.166" y2="174.067" gradientUnits="userSpaceOnUse">
<stop stop-color="#C0D6FF"/>
<stop offset="0.2978" stop-color="#C5DBFF"/>
<stop offset="0.6488" stop-color="#D3E9FF"/>
<stop offset="1" stop-color="#E9FFFF"/>
</linearGradient>
<linearGradient id="paint23_linear" x1="325.099" y1="174.696" x2="319.988" y2="174.696" gradientUnits="userSpaceOnUse">
<stop stop-color="#5778FF"/>
<stop offset="0.1779" stop-color="#5C7DFF"/>
<stop offset="0.3876" stop-color="#6A8AFF"/>
<stop offset="0.6134" stop-color="#82A0FF"/>
<stop offset="0.849" stop-color="#A3BEFF"/>
<stop offset="1" stop-color="#BCD5FF"/>
</linearGradient>
<linearGradient id="paint24_linear" x1="270.483" y1="334.633" x2="264.303" y2="334.633" gradientUnits="userSpaceOnUse">
<stop stop-color="#C0D6FF"/>
<stop offset="0.2978" stop-color="#C5DBFF"/>
<stop offset="0.6488" stop-color="#D3E9FF"/>
<stop offset="1" stop-color="#E9FFFF"/>
</linearGradient>
<linearGradient id="paint25_linear" x1="271.236" y1="335.263" x2="266.125" y2="335.263" gradientUnits="userSpaceOnUse">
<stop stop-color="#5778FF"/>
<stop offset="0.1779" stop-color="#5C7DFF"/>
<stop offset="0.3876" stop-color="#6A8AFF"/>
<stop offset="0.6134" stop-color="#82A0FF"/>
<stop offset="0.849" stop-color="#A3BEFF"/>
<stop offset="1" stop-color="#BCD5FF"/>
</linearGradient>
<linearGradient id="paint26_linear" x1="324.346" y1="301.538" x2="318.166" y2="301.538" gradientUnits="userSpaceOnUse">
<stop stop-color="#C0D6FF"/>
<stop offset="0.2978" stop-color="#C5DBFF"/>
<stop offset="0.6488" stop-color="#D3E9FF"/>
<stop offset="1" stop-color="#E9FFFF"/>
</linearGradient>
<linearGradient id="paint27_linear" x1="325.099" y1="302.167" x2="319.988" y2="302.167" gradientUnits="userSpaceOnUse">
<stop stop-color="#5778FF"/>
<stop offset="0.1779" stop-color="#5C7DFF"/>
<stop offset="0.3876" stop-color="#6A8AFF"/>
<stop offset="0.6134" stop-color="#82A0FF"/>
<stop offset="0.849" stop-color="#A3BEFF"/>
<stop offset="1" stop-color="#BCD5FF"/>
</linearGradient>
</defs>
</svg>
