<svg width="48" height="72" viewBox="0 0 48 72" fill="none" xmlns="http://www.w3.org/2000/svg">
<path d="M47.3232 69.4516L43.6515 62.4753L45.4545 60.829C45.8455 60.4719 45.9057 59.878 45.5942 59.4497L38.9409 50.3016C38.7453 50.0325 38.4327 49.8734 38.1002 49.8734H37.6843L37.6845 37.2252C37.6845 36.7687 37.6459 36.3213 37.5748 35.8846L40.7345 34.9488C41.2416 34.7986 41.5854 34.3004 41.5 33.7786C41.3966 33.1476 40.7703 32.7694 40.1777 32.9452L36.9846 33.8911C36.8998 33.698 36.8084 33.5085 36.7095 33.3234L41.013 30.2868C41.482 29.9558 41.594 29.3071 41.263 28.838C40.932 28.3689 40.2837 28.2568 39.8142 28.5879L35.5103 31.6248C35.2039 31.289 34.8692 30.98 34.5121 30.6978L37.8946 25.0758C38.1906 24.5839 38.0317 23.945 37.5397 23.649C37.0476 23.353 36.4089 23.5118 36.1129 24.0038L32.7324 29.6222C32.0058 29.2994 31.2249 29.0784 30.4075 28.9758V21.0515C30.4075 20.4822 29.9687 19.9857 29.3997 19.9688C28.811 19.9511 28.3282 20.4231 28.3282 21.008V28.976C27.5105 29.0784 26.7297 29.2996 26.0031 29.6225L22.6227 24.004C22.3264 23.512 21.6878 23.3532 21.1959 23.6492C20.7038 23.9452 20.5451 24.5839 20.841 25.076L24.2234 30.698C23.8663 30.9799 23.5316 31.289 23.2252 31.6248L18.9214 28.5879C18.452 28.2569 17.8037 28.3689 17.4726 28.838C17.1414 29.3072 17.2535 29.9558 17.7226 30.2868L22.0261 33.3234C21.9272 33.5085 21.8359 33.6979 21.7511 33.8911L18.558 32.9452C17.9969 32.7791 17.4075 33.1081 17.2574 33.6775C17.1122 34.228 17.4635 34.7895 18.0093 34.9511L21.1608 35.8845C21.0897 36.3212 21.0511 36.7685 21.0511 37.225L21.0517 48.1972L19.0029 47.2829L12.007 23.4226V17.0227H13.9301C14.5042 17.0227 14.9697 16.5572 14.9697 15.9831V12.6566C14.9697 12.0825 14.5042 11.617 13.9301 11.617H12.5889L13.4564 4.20344C13.4955 3.86902 13.3876 3.5264 13.1412 3.29684C12.7591 2.94041 12.1942 2.92455 11.7979 3.22561L10.0389 4.56288L9.02497 1.72318C8.91286 1.40941 8.6699 1.15059 8.35216 1.04983C7.85614 0.892325 7.33988 1.12051 7.11128 1.56089L5.36029 4.93503L3.20598 3.25254C2.93581 3.04145 2.57911 2.95668 2.25057 3.05498C1.74306 3.20674 1.4435 3.69648 1.51241 4.19578L2.53891 11.6173H1.03963C0.465535 11.6173 0 12.0828 0 12.6569V15.9836C0 16.5577 0.465535 17.0232 1.03963 17.0232H2.96275V20.2171C2.96275 22.4582 4.64934 24.3116 6.81979 24.578L8.54234 38.7667C8.61152 39.3367 9.1297 39.7428 9.69969 39.6734C10.2697 39.6043 10.6757 39.0861 10.6064 38.5161L8.91846 24.6121H10.189L16.9909 47.8109L12.4286 53.526L11.2051 43.4484C11.1359 42.8785 10.6178 42.4724 10.0478 42.5417C9.47779 42.6109 9.07186 43.1291 9.14104 43.6991L10.6107 55.8034L7.7633 59.3703C7.45787 59.7529 7.46074 60.2967 7.77014 60.676L12.319 66.2534V69.9618C12.319 70.5359 12.7845 71.0015 13.3586 71.0015H24.0922C24.0925 71.0015 24.0927 71.0015 24.093 71.0015C24.0934 71.0015 24.0938 71.0015 24.0942 71.0015H46.4167C46.8593 71.0015 47.2627 70.7201 47.4064 70.2815C47.4964 70.0074 47.4574 69.707 47.3232 69.4516ZM5.06702 7.3442C5.31053 7.53438 5.62635 7.6063 5.92823 7.54067C6.23025 7.47477 6.48728 7.27816 6.62975 7.00363L7.85778 4.63698L8.55875 6.59975C8.67031 6.91189 8.92407 7.15224 9.24167 7.24672C9.55927 7.34119 9.90299 7.27844 10.167 7.07773L11.1109 6.36022L10.4957 11.6174H4.63813L3.92349 6.45127L5.06702 7.3442ZM9.92787 22.5328H7.35793C6.08095 22.5328 5.04201 21.494 5.04201 20.2171V17.0232H9.92787V22.5328ZM4.00251 14.9441H2.07926V13.6967H12.8906V14.9441H10.9675H4.00251ZM29.368 30.9882C32.3388 30.9882 34.8295 33.0766 35.4533 35.8619C33.9338 34.2295 31.7688 33.2057 29.368 33.2057C26.9672 33.2057 24.8019 34.2295 23.2825 35.8619C23.9064 33.0764 26.3972 30.9882 29.368 30.9882ZM23.131 46.2529C24.6563 47.9825 26.8862 49.0766 29.368 49.0766C29.9422 49.0766 30.4076 48.611 30.4076 48.0369C30.4076 47.4629 29.9422 46.9973 29.368 46.9973C26.0567 46.9973 23.341 44.4034 23.1433 41.141C23.3412 37.8787 26.0567 35.2848 29.368 35.2848C32.8056 35.2848 35.6022 38.0799 35.6052 41.5168V49.8735H24.8074L23.131 49.1254V46.2529ZM23.568 68.9221H14.3982V66.2295L19.6978 59.1632C20.0422 58.7038 19.9491 58.0522 19.4899 57.7076C19.0305 57.3632 18.379 57.4562 18.0344 57.9156L13.3243 64.1959L9.91161 60.0117L18.4513 49.3139L22.9724 51.3315L21.2781 53.5908C20.9337 54.0502 21.0268 54.7018 21.486 55.0464C21.6732 55.1866 21.8919 55.2543 22.1089 55.2543C22.425 55.2543 22.7372 55.1108 22.9414 54.8384L25.1056 51.9526H36.0455L23.568 68.9221ZM26.1488 68.9221L38.0956 52.6743L43.3658 59.9206L39.2707 63.6598C38.8466 64.047 38.8169 64.7045 39.2039 65.1286C39.4091 65.3531 39.69 65.4673 39.972 65.4673C40.2223 65.4673 40.4733 65.3774 40.6726 65.1955L42.0646 63.9245L44.6949 68.9222H26.1488V68.9221Z" fill="#00ADEE"/>
<path d="M24 70L38 51H24.5L22 54.5" stroke="#FFC700" stroke-width="2" stroke-linecap="round" stroke-linejoin="round"/>
<path d="M33.5602 38.9073L29.6051 37.9806C29.4491 37.9439 29.2867 37.9439 29.1308 37.9806L25.1756 38.9073C24.6166 39.0382 24.2696 39.5976 24.4004 40.1566C24.5314 40.7157 25.0904 41.0627 25.6499 40.9318L28.3284 40.3043V41.8603C28.3284 42.4344 28.7938 42.8999 29.368 42.8999C29.9423 42.8999 30.4077 42.4344 30.4077 41.8603V40.3043L33.086 40.9318C33.1657 40.9506 33.2454 40.9595 33.3242 40.9595C33.7959 40.9595 34.2231 40.6361 34.3355 40.1568C34.4661 39.5976 34.1192 39.0382 33.5602 38.9073Z" fill="#00ADEE"/>
<path d="M2.40849 11.6364C2.48385 12.2393 3.03362 12.6669 3.63644 12.5915C4.23926 12.5162 4.66686 11.9664 4.59151 11.3636L2.40849 11.6364ZM2.5 3.5L3.27782 2.72218C2.94553 2.3899 2.43885 2.30539 2.01671 2.51185C1.59457 2.71832 1.35021 3.17014 1.40849 3.63644L2.5 3.5ZM5.5 6.5L4.72218 7.27782C4.97221 7.52784 5.32718 7.64243 5.6762 7.5858C6.02522 7.52916 6.32574 7.30819 6.48387 6.99193L5.5 6.5ZM8 1.5L9.04355 1.15215C8.90286 0.730072 8.52177 0.434307 8.07798 0.402767C7.63419 0.371228 7.2151 0.610127 7.01613 1.00807L8 1.5ZM9.5 6L8.45645 6.34785C8.57141 6.69274 8.84935 6.95855 9.19902 7.05802C9.54869 7.15749 9.92492 7.07778 10.2042 6.84504L9.5 6ZM12.5 3.5L13.5915 3.63644C13.6475 3.18826 13.4239 2.75139 13.0276 2.53477C12.6312 2.31815 12.1428 2.36581 11.7958 2.65496L12.5 3.5ZM10.4085 11.3636C10.3331 11.9664 10.7607 12.5162 11.3636 12.5915C11.9664 12.6669 12.5162 12.2393 12.5915 11.6364L10.4085 11.3636ZM4.59151 11.3636L3.59151 3.36356L1.40849 3.63644L2.40849 11.6364L4.59151 11.3636ZM1.72218 4.27782L4.72218 7.27782L6.27782 5.72218L3.27782 2.72218L1.72218 4.27782ZM6.48387 6.99193L8.98387 1.99193L7.01613 1.00807L4.51613 6.00807L6.48387 6.99193ZM6.95645 1.84785L8.45645 6.34785L10.5436 5.65215L9.04355 1.15215L6.95645 1.84785ZM10.2042 6.84504L13.2042 4.34504L11.7958 2.65496L8.7958 5.15496L10.2042 6.84504ZM11.4085 3.36356L10.4085 11.3636L12.5915 11.6364L13.5915 3.63644L11.4085 3.36356Z" fill="#FFC700"/>
</svg>
