<svg width="23" height="17" viewBox="0 0 23 17" fill="none" xmlns="http://www.w3.org/2000/svg">
<path d="M21.0454 7.57402H4.25865L9.3111 2.61183C9.40227 2.52535 9.47499 2.4219 9.52502 2.30752C9.57505 2.19315 9.60138 2.07013 9.60248 1.94565C9.60358 1.82117 9.57943 1.69772 9.53144 1.5825C9.48344 1.46729 9.41256 1.36261 9.32294 1.27459C9.23331 1.18656 9.12673 1.11695 9.00942 1.06981C8.89211 1.02267 8.76641 0.998954 8.63967 1.00004C8.51292 1.00112 8.38767 1.02698 8.27121 1.07611C8.15475 1.12525 8.04942 1.19667 7.96136 1.28621L1.27948 7.84871C1.10053 8.02452 1 8.26293 1 8.51152C1 8.76011 1.10053 8.99853 1.27948 9.17433L7.96136 15.7368C8.1414 15.9076 8.38252 16.0021 8.6328 16C8.88308 15.9978 9.12249 15.8992 9.29948 15.7254C9.47646 15.5516 9.57685 15.3165 9.57902 15.0706C9.5812 14.8248 9.48498 14.588 9.3111 14.4112L4.25865 9.44902H21.0454C21.2986 9.44902 21.5414 9.35025 21.7204 9.17443C21.8994 8.99862 22 8.76016 22 8.51152C22 8.26288 21.8994 8.02442 21.7204 7.84861C21.5414 7.67279 21.2986 7.57402 21.0454 7.57402Z" fill="#005676" stroke="#005676"/>
</svg>
