<svg width="15" height="16" viewBox="0 0 15 16" fill="none" xmlns="http://www.w3.org/2000/svg">
<path d="M13.0664 1.67188H11.7188V0.96875C11.7188 0.709883 11.5089 0.5 11.25 0.5C10.9911 0.5 10.7812 0.709883 10.7812 0.96875V1.67188H4.21875V0.96875C4.21875 0.709883 4.0089 0.5 3.75 0.5C3.4911 0.5 3.28125 0.709883 3.28125 0.96875V1.67188H1.93359C0.867393 1.67188 0 2.53927 0 3.60547V13.5664C0 14.6326 0.867393 15.5 1.93359 15.5H13.0664C14.1326 15.5 15 14.6326 15 13.5664V3.60547C15 2.53927 14.1326 1.67188 13.0664 1.67188ZM1.93359 2.60938H3.28125V3.07812C3.28125 3.33699 3.4911 3.54688 3.75 3.54688C4.0089 3.54688 4.21875 3.33699 4.21875 3.07812V2.60938H10.7812V3.07812C10.7812 3.33699 10.9911 3.54688 11.25 3.54688C11.5089 3.54688 11.7188 3.33699 11.7188 3.07812V2.60938H13.0664C13.6157 2.60938 14.0625 3.05621 14.0625 3.60547V4.71875H0.9375V3.60547C0.9375 3.05621 1.38434 2.60938 1.93359 2.60938ZM13.0664 14.5625H1.93359C1.38434 14.5625 0.9375 14.1157 0.9375 13.5664V5.65625H14.0625V13.5664C14.0625 14.1157 13.6157 14.5625 13.0664 14.5625Z" fill="#00ADEE"/>
</svg>
