<svg width="549" height="581" viewBox="0 0 549 581" fill="none" xmlns="http://www.w3.org/2000/svg">
<g filter="url(#filter0_d)">
<circle cx="165" cy="275" r="13" fill="white"/>
</g>
<g filter="url(#filter1_d)">
<circle cx="216" cy="167" r="7" fill="white"/>
</g>
<g filter="url(#filter2_d)">
<circle cx="440" cy="385" r="7" fill="white"/>
</g>
<g filter="url(#filter3_d)">
<circle cx="431" cy="188" r="7" fill="white"/>
</g>
<g filter="url(#filter4_d)">
<circle cx="265" cy="371" r="7" fill="white"/>
</g>
<circle cx="170.656" cy="506" r="75" fill="#FFC700"/>
<path d="M531.088 143.714C489.182 -116.732 197.803 39.1545 57.3516 149.654C34.5286 170.512 3.07338 211.683 2.11 266.364C1.6976 289.771 14.5236 328.657 45.3674 367.839C112.329 443.803 235.092 544.215 377.844 554.131C539.275 565.344 549.777 278.209 531.088 143.714Z" fill="url(#paint0_linear)"/>
<path d="M115.188 395.828L239.698 467.828C246.698 471.898 258.148 471.898 265.188 467.828L389.708 395.828C396.708 391.758 396.708 385.168 389.708 381.098L265.308 309.278C258.308 305.208 246.848 305.208 239.808 309.278L115.208 381.108C108.148 385.168 108.148 391.768 115.188 395.828Z" fill="#C1E8F6"/>
<path d="M115.188 385.828L239.698 457.828C246.698 461.898 258.148 461.898 265.188 457.828L389.708 385.828C396.708 381.758 396.708 375.168 389.708 371.098L265.308 299.278C258.308 295.208 246.848 295.208 239.808 299.278L115.208 371.108C108.148 375.168 108.148 381.768 115.188 385.828Z" fill="url(#paint1_linear)"/>
<path d="M299 513.864L299.56 514.194L478.47 412.004L478.83 411.684V353.884L468.83 348.144C468.699 348.071 468.554 348.025 468.405 348.007C468.256 347.99 468.105 348.003 467.96 348.044C467.816 348.085 467.681 348.155 467.564 348.248C467.446 348.342 467.348 348.457 467.275 348.589C467.202 348.72 467.156 348.864 467.139 349.014C467.122 349.163 467.134 349.314 467.175 349.458C467.217 349.603 467.286 349.738 467.38 349.855C467.473 349.973 467.589 350.071 467.72 350.144L476.8 355.274V410.444L299.55 511.584L158.43 429.324L171.85 418.624L172.39 418.304L170.22 416.984L154 429.334L299 513.864Z" fill="url(#paint2_linear)"/>
<path d="M100.639 302.268L142.639 326.548C143.97 327.228 145.444 327.583 146.939 327.583C148.434 327.583 149.908 327.228 151.239 326.548L193.239 302.268C195.619 300.898 195.609 298.678 193.239 297.268L151.239 273.038C149.907 272.36 148.433 272.007 146.939 272.007C145.444 272.007 143.971 272.36 142.639 273.038L100.639 297.278C98.2688 298.678 98.2688 300.938 100.639 302.268Z" fill="url(#paint3_linear)"/>
<path d="M412.368 134.138V240.138C412.362 240.8 412.172 241.448 411.819 242.008C411.466 242.568 410.963 243.018 410.368 243.308V243.308L410.198 243.388L407.368 244.738C407.767 244.477 408.107 244.137 408.368 243.738V243.738C408.368 243.738 408.948 242.528 409.368 241.788V135.738C409.194 134.309 408.7 132.937 407.923 131.725C407.146 130.513 406.105 129.492 404.878 128.738L255.638 42.5382L254.688 41.9882C254.259 41.7408 253.779 41.5951 253.285 41.5622C252.791 41.5292 252.296 41.61 251.838 41.7982L254.768 40.3182H254.868C255.339 40.0915 255.859 39.983 256.382 40.0022C256.904 40.0213 257.414 40.1675 257.868 40.4282L408.098 127.088C410.618 128.548 412.368 134.138 412.368 134.138Z" fill="#00ADEE"/>
<path d="M409.369 135.749V241.749C409.377 242.459 409.172 243.156 408.779 243.749C408.52 244.148 408.179 244.489 407.779 244.749V244.749C407.229 245.12 406.584 245.327 405.92 245.347C405.256 245.366 404.601 245.197 404.029 244.859L399.609 242.309L254.709 158.609C253.39 157.846 252.294 156.749 251.533 155.429C250.771 154.109 250.37 152.612 250.369 151.089V44.8785C250.37 44.4537 250.451 44.0328 250.609 43.6385C250.931 42.8843 251.523 42.2778 252.269 41.9385L252.389 41.8785C252.847 41.688 253.343 41.6069 253.838 41.6416C254.332 41.6763 254.812 41.8259 255.239 42.0785L256.179 42.6285L405.309 128.719C406.543 129.432 407.567 130.457 408.279 131.69C408.992 132.924 409.368 134.324 409.369 135.749V135.749Z" fill="white"/>
<path d="M264.648 194.928L221.248 245.038L322.508 303.538L365.918 253.398L264.648 194.928Z" fill="white"/>
<path fill-rule="evenodd" clip-rule="evenodd" d="M221.369 319.288V245.218L322.369 303.568V303.658L365.369 253.968V353.268L322.369 378.088V378.488L221.369 319.288Z" fill="url(#paint4_linear)"/>
<path d="M247.569 236.498C247.519 236.508 247.468 236.508 247.419 236.498C247.373 236.48 247.332 236.452 247.297 236.417C247.263 236.382 247.236 236.34 247.218 236.294C247.2 236.248 247.192 236.199 247.194 236.15C247.196 236.101 247.208 236.053 247.229 236.008C249.649 230.642 252.737 225.602 256.419 221.008C261.929 214.398 267.079 213.428 269.539 215.328C269.577 215.358 269.609 215.396 269.632 215.438C269.656 215.481 269.671 215.527 269.677 215.576C269.682 215.624 269.678 215.673 269.665 215.72C269.652 215.766 269.629 215.81 269.599 215.848C269.57 215.888 269.534 215.922 269.492 215.947C269.45 215.973 269.403 215.989 269.354 215.996C269.305 216.002 269.256 215.999 269.208 215.985C269.161 215.972 269.117 215.949 269.079 215.918C266.899 214.238 262.189 215.268 256.999 221.488C253.365 226.029 250.314 231.008 247.919 236.308C247.885 236.37 247.834 236.421 247.772 236.454C247.71 236.488 247.639 236.503 247.569 236.498V236.498Z" fill="#FF0007"/>
<path d="M257.909 246.808C257.852 246.817 257.795 246.817 257.739 246.808C257.651 246.763 257.584 246.686 257.55 246.593C257.517 246.5 257.52 246.398 257.559 246.308C259.324 242.893 261.677 239.816 264.509 237.218L265.149 236.588C267.023 234.944 268.65 233.037 269.979 230.928C271.779 227.788 271.929 224.178 270.369 221.728C269.914 220.962 269.25 220.343 268.454 219.944C267.658 219.546 266.764 219.384 265.879 219.478C265.778 219.483 265.68 219.45 265.604 219.385C265.527 219.32 265.479 219.228 265.469 219.128C265.465 219.079 265.47 219.03 265.485 218.984C265.5 218.937 265.524 218.894 265.555 218.857C265.587 218.82 265.626 218.789 265.669 218.767C265.713 218.745 265.76 218.731 265.809 218.728C266.832 218.628 267.863 218.82 268.783 219.28C269.703 219.74 270.474 220.449 271.009 221.328C272.709 223.998 272.569 227.918 270.639 231.328C269.261 233.505 267.577 235.471 265.639 237.168L265.009 237.788C262.241 240.321 259.942 243.324 258.219 246.658C258.183 246.706 258.136 246.745 258.082 246.771C258.028 246.797 257.969 246.81 257.909 246.808V246.808Z" fill="#FF0007"/>
<path d="M245.369 248.988C245.32 249.003 245.268 249.003 245.219 248.988C245.173 248.97 245.132 248.942 245.097 248.907C245.062 248.872 245.034 248.831 245.016 248.785C244.997 248.74 244.988 248.691 244.988 248.641C244.989 248.592 244.999 248.543 245.019 248.498C245.369 247.248 248.739 235.888 255.199 226.748C259.339 220.898 262.919 219.558 263.069 219.508C263.117 219.483 263.17 219.469 263.224 219.466C263.279 219.464 263.333 219.473 263.383 219.493C263.434 219.513 263.48 219.543 263.517 219.582C263.555 219.622 263.584 219.668 263.602 219.72C263.62 219.771 263.627 219.825 263.622 219.88C263.617 219.934 263.601 219.986 263.574 220.033C263.547 220.081 263.51 220.122 263.466 220.153C263.422 220.185 263.372 220.207 263.319 220.218C263.319 220.218 259.799 221.548 255.809 227.218C249.419 236.218 246.089 247.498 245.739 248.748V248.828C245.698 248.887 245.642 248.933 245.577 248.961C245.511 248.99 245.439 248.999 245.369 248.988V248.988Z" fill="#FF0007"/>
<path d="M268.578 236.678C268.52 236.679 268.462 236.666 268.41 236.64C268.357 236.614 268.312 236.576 268.278 236.528C268.217 236.45 268.188 236.35 268.2 236.251C268.211 236.152 268.261 236.061 268.338 235.998C270.088 234.628 274.248 230.918 275.008 225.998C275.538 222.558 274.578 218.498 271.698 217.408C271.644 217.397 271.594 217.374 271.55 217.341C271.505 217.308 271.469 217.266 271.443 217.218C271.417 217.169 271.401 217.116 271.398 217.061C271.394 217.006 271.402 216.951 271.422 216.899C271.442 216.848 271.473 216.802 271.512 216.763C271.552 216.725 271.599 216.696 271.651 216.678C271.703 216.659 271.758 216.653 271.813 216.658C271.868 216.663 271.921 216.68 271.968 216.708C274.878 217.808 276.438 221.708 275.758 226.118C274.948 231.338 270.628 235.208 268.808 236.638C268.737 236.674 268.657 236.688 268.578 236.678V236.678Z" fill="#FF0007"/>
<path d="M248.149 249.409H248.059C247.962 249.383 247.88 249.32 247.83 249.234C247.779 249.148 247.764 249.045 247.789 248.949C249.28 244.038 251.256 239.288 253.689 234.769C257.289 227.819 262.059 222.769 265.289 222.569C265.798 222.52 266.311 222.61 266.772 222.83C267.234 223.051 267.627 223.392 267.909 223.819C269.709 226.309 268.459 229.819 266.699 232.319C265.841 233.461 264.851 234.498 263.749 235.409L262.689 236.409C261.109 237.899 259.719 239.578 258.549 241.409C257.415 243.155 256.412 244.983 255.549 246.879C255.502 246.96 255.426 247.022 255.337 247.051C255.247 247.081 255.149 247.075 255.063 247.037C254.977 246.998 254.908 246.929 254.871 246.842C254.833 246.755 254.829 246.658 254.859 246.569C255.744 244.643 256.764 242.782 257.909 240.999C259.114 239.136 260.545 237.43 262.169 235.919L263.249 234.919C264.308 234.034 265.258 233.027 266.079 231.919C267.619 229.759 268.869 226.469 267.299 224.299C267.093 223.976 266.802 223.718 266.457 223.552C266.113 223.386 265.729 223.319 265.349 223.359C262.409 223.569 257.789 228.529 254.349 235.149C251.94 239.609 249.984 244.299 248.509 249.149C248.484 249.224 248.435 249.29 248.371 249.337C248.306 249.383 248.229 249.408 248.149 249.409Z" fill="#FF0007"/>
<path d="M249.879 249.498C249.829 249.507 249.778 249.507 249.729 249.498C249.683 249.479 249.641 249.452 249.607 249.417C249.572 249.382 249.544 249.341 249.525 249.295C249.507 249.249 249.498 249.201 249.498 249.151C249.499 249.102 249.509 249.053 249.529 249.008C250.379 246.928 251.269 244.798 252.189 242.668L252.789 241.238C253.842 238.44 255.182 235.759 256.789 233.238C258.315 231.089 260.117 229.149 262.149 227.468C262.339 227.298 264.049 225.898 265.149 226.288C265.345 226.36 265.517 226.485 265.646 226.649C265.775 226.813 265.856 227.01 265.879 227.218C266.079 228.288 265.209 229.768 264.669 230.548C263.851 231.649 262.877 232.626 261.779 233.448L260.879 234.188C259.179 235.874 257.776 237.835 256.729 239.988L256.469 240.448C255.189 242.718 253.959 245.188 252.709 247.988C252.667 248.079 252.591 248.15 252.498 248.186C252.404 248.221 252.3 248.219 252.209 248.178C252.117 248.137 252.046 248.061 252.011 247.967C251.975 247.873 251.978 247.77 252.019 247.678C253.279 244.858 254.519 242.368 255.819 240.078L256.069 239.618C257.156 237.387 258.617 235.357 260.389 233.618C260.689 233.358 260.999 233.108 261.299 232.868C262.345 232.091 263.272 231.165 264.049 230.118C264.711 229.347 265.091 228.374 265.129 227.358C265.079 227.058 264.949 227.018 264.899 226.998C264.439 226.838 263.369 227.418 262.629 227.998C260.65 229.642 258.893 231.534 257.399 233.628C255.797 236.092 254.456 238.716 253.399 241.458C253.199 241.938 252.989 242.458 252.789 242.888C251.879 245.018 250.979 247.148 250.139 249.218C250.124 249.283 250.092 249.344 250.046 249.393C250.001 249.442 249.943 249.478 249.879 249.498Z" fill="#FF0007"/>
<path d="M274.599 233.138C274.502 233.136 274.408 233.096 274.339 233.028C274.304 232.993 274.276 232.952 274.256 232.907C274.237 232.861 274.227 232.812 274.227 232.763C274.227 232.713 274.237 232.664 274.256 232.619C274.276 232.573 274.304 232.532 274.339 232.498C274.399 232.438 280.389 225.958 277.759 219.078C275.759 213.858 271.549 213.078 271.499 213.078C271.45 213.069 271.403 213.051 271.362 213.024C271.32 212.998 271.284 212.963 271.256 212.921C271.228 212.88 271.208 212.834 271.199 212.785C271.189 212.737 271.189 212.686 271.199 212.638C271.206 212.589 271.223 212.543 271.249 212.501C271.275 212.459 271.309 212.423 271.349 212.395C271.39 212.367 271.435 212.347 271.483 212.337C271.531 212.328 271.581 212.328 271.629 212.338C271.819 212.338 276.319 213.198 278.459 218.818C281.259 226.148 274.949 232.958 274.879 233.028C274.843 233.065 274.8 233.094 274.751 233.113C274.703 233.132 274.651 233.141 274.599 233.138Z" fill="#FF0007"/>
<path d="M276.599 212.488C276.547 212.488 276.495 212.477 276.447 212.456C276.399 212.436 276.355 212.405 276.319 212.368C275.486 211.459 274.488 210.717 273.379 210.178C272.451 209.776 271.45 209.572 270.439 209.578C270.389 209.582 270.338 209.576 270.291 209.56C270.243 209.543 270.199 209.518 270.162 209.484C270.124 209.45 270.094 209.409 270.073 209.363C270.052 209.318 270.04 209.268 270.039 209.218C270.036 209.118 270.072 209.02 270.139 208.946C270.206 208.871 270.299 208.825 270.399 208.818C271.528 208.807 272.645 209.036 273.679 209.488C274.883 210.073 275.968 210.877 276.879 211.858C276.949 211.93 276.988 212.027 276.988 212.128C276.988 212.228 276.949 212.325 276.879 212.398C276.799 212.46 276.7 212.492 276.599 212.488V212.488Z" fill="#FF0007"/>
<path d="M278.309 231.718C278.233 231.721 278.158 231.696 278.099 231.648C278.057 231.622 278.021 231.587 277.992 231.546C277.964 231.506 277.944 231.46 277.934 231.411C277.924 231.363 277.923 231.313 277.933 231.264C277.942 231.215 277.961 231.169 277.989 231.128C279.803 228.387 280.885 225.226 281.129 221.948C281.227 220.508 281.026 219.063 280.537 217.705C280.048 216.347 279.282 215.105 278.289 214.058C278.219 213.985 278.18 213.889 278.18 213.788C278.18 213.687 278.219 213.591 278.289 213.518C278.324 213.482 278.366 213.454 278.413 213.435C278.459 213.415 278.509 213.405 278.559 213.405C278.609 213.405 278.659 213.415 278.705 213.435C278.752 213.454 278.794 213.482 278.829 213.518C279.884 214.644 280.695 215.975 281.211 217.43C281.728 218.884 281.938 220.429 281.829 221.968C281.582 225.382 280.459 228.674 278.569 231.528C278.543 231.577 278.506 231.62 278.461 231.653C278.416 231.686 278.364 231.708 278.309 231.718Z" fill="#FF0007"/>
<path d="M272.938 237.338C272.878 237.339 272.82 237.325 272.767 237.297C272.715 237.269 272.67 237.228 272.638 237.178C272.609 237.138 272.589 237.093 272.578 237.045C272.567 236.997 272.565 236.947 272.574 236.899C272.582 236.851 272.6 236.804 272.627 236.763C272.653 236.721 272.687 236.686 272.728 236.658C273.431 236.164 274.099 235.623 274.728 235.038C275.568 234.208 276.968 232.488 276.978 232.478C277.042 232.4 277.135 232.35 277.236 232.338C277.336 232.327 277.438 232.356 277.518 232.418C277.594 232.482 277.642 232.574 277.651 232.673C277.66 232.772 277.631 232.871 277.568 232.948C277.508 233.028 276.128 234.718 275.258 235.578C274.611 236.191 273.923 236.759 273.198 237.278C273.12 237.325 273.029 237.346 272.938 237.338V237.338Z" fill="#FF0007"/>
<path d="M262.448 247.748C262.379 247.747 262.311 247.73 262.248 247.698C262.164 247.644 262.104 247.561 262.08 247.464C262.056 247.367 262.07 247.265 262.118 247.178C263.087 245.508 264.166 243.904 265.348 242.378C266.147 241.382 267.075 240.498 268.108 239.748C268.468 239.498 268.838 239.278 269.198 239.058C269.806 238.727 270.376 238.332 270.898 237.878C270.971 237.808 271.068 237.77 271.168 237.77C271.269 237.77 271.366 237.808 271.438 237.878C271.474 237.913 271.502 237.954 271.521 237.999C271.54 238.045 271.55 238.094 271.55 238.143C271.55 238.193 271.54 238.241 271.521 238.287C271.502 238.332 271.474 238.374 271.438 238.408C270.878 238.897 270.268 239.326 269.618 239.688C269.268 239.898 268.919 240.098 268.569 240.348C267.593 241.057 266.719 241.894 265.968 242.838C264.803 244.332 263.743 245.906 262.798 247.548C262.766 247.612 262.715 247.664 262.653 247.7C262.591 247.735 262.52 247.752 262.448 247.748V247.748Z" fill="#FF0007"/>
<path d="M260.309 246.728C260.241 246.727 260.175 246.706 260.119 246.668C260.075 246.645 260.037 246.612 260.007 246.573C259.977 246.534 259.955 246.489 259.943 246.442C259.931 246.394 259.928 246.344 259.936 246.295C259.944 246.246 259.962 246.2 259.989 246.158C261.209 244.02 262.618 241.996 264.199 240.108C265.289 238.958 266.639 237.678 266.649 237.668C266.72 237.599 266.816 237.562 266.916 237.564C267.015 237.565 267.11 237.607 267.179 237.678C267.248 237.75 267.285 237.846 267.283 237.945C267.281 238.045 267.24 238.139 267.169 238.208C267.169 238.208 265.829 239.498 264.739 240.628C263.203 242.476 261.831 244.453 260.639 246.538C260.604 246.596 260.556 246.643 260.498 246.676C260.441 246.71 260.375 246.727 260.309 246.728V246.728Z" fill="#FF0007"/>
<path d="M259.177 215.829C259.103 215.827 259.03 215.804 258.969 215.761C258.907 215.719 258.86 215.659 258.832 215.59C258.804 215.52 258.797 215.444 258.813 215.371C258.828 215.298 258.864 215.231 258.917 215.179C259.047 215.059 262.127 212.179 264.917 211.429C267.917 210.649 269.497 211.649 269.567 211.689C269.642 211.748 269.691 211.833 269.706 211.927C269.72 212.021 269.699 212.117 269.646 212.196C269.594 212.275 269.513 212.332 269.421 212.354C269.328 212.377 269.231 212.364 269.147 212.319C269.147 212.319 267.777 211.469 265.147 212.159C262.517 212.849 259.497 215.699 259.467 215.729C259.43 215.766 259.384 215.795 259.334 215.812C259.284 215.829 259.23 215.835 259.177 215.829Z" fill="#FF0007"/>
<path d="M293.369 234.488L315.519 247.268C315.84 247.453 316.114 247.708 316.321 248.015C316.528 248.322 316.662 248.672 316.713 249.039C316.764 249.405 316.731 249.779 316.616 250.13C316.501 250.482 316.307 250.803 316.049 251.068L301.049 266.648C300.639 267.072 300.1 267.346 299.516 267.428C298.933 267.509 298.339 267.393 297.829 267.098L276.369 254.708C276.03 254.517 275.739 254.251 275.516 253.932C275.294 253.612 275.147 253.247 275.085 252.862C275.024 252.478 275.05 252.085 275.161 251.712C275.273 251.339 275.467 250.996 275.729 250.708L289.729 235.018C290.177 234.518 290.788 234.19 291.453 234.093C292.118 233.997 292.796 234.136 293.369 234.488Z" fill="#D4DFFC"/>
<path d="M330.579 255.628L327.139 259.518L339.279 266.588L342.699 262.618L330.579 255.628Z" fill="url(#paint5_linear)"/>
<path d="M323.829 264.059L320.389 267.949L332.539 275.019L335.949 271.059L323.829 264.059Z" fill="url(#paint6_linear)"/>
<path opacity="0.1" d="M409.368 135.739V241.739C409.378 242.45 409.172 243.147 408.778 243.739C408.515 244.135 408.175 244.475 407.778 244.739V244.739C407.225 245.11 406.579 245.317 405.914 245.336C405.248 245.356 404.591 245.187 404.018 244.849L399.598 242.299C328.838 172.299 268.078 73.2986 250.508 43.5286C250.827 42.7727 251.42 42.1654 252.168 41.8286L252.288 41.7686C252.746 41.5804 253.241 41.4996 253.735 41.5326C254.229 41.5655 254.709 41.7112 255.138 41.9586L256.078 42.5086L405.308 128.709C406.542 129.421 407.567 130.446 408.279 131.68C408.992 132.914 409.367 134.314 409.368 135.739V135.739Z" fill="url(#paint7_linear)"/>
<path d="M317.628 272.428L314.188 276.318L326.327 283.398L329.747 279.428L317.628 272.428Z" fill="url(#paint8_linear)"/>
<path d="M353.369 134.468C353.172 134.467 352.98 134.415 352.809 134.318L323.869 117.618C323.604 117.468 323.409 117.219 323.327 116.926C323.246 116.632 323.284 116.319 323.434 116.053C323.584 115.788 323.833 115.593 324.126 115.512C324.42 115.43 324.734 115.468 324.999 115.618L353.939 132.318C354.155 132.443 354.324 132.635 354.42 132.866C354.516 133.096 354.532 133.352 354.467 133.593C354.402 133.834 354.259 134.047 354.06 134.198C353.862 134.349 353.618 134.43 353.369 134.428V134.468Z" fill="#D4DFFC"/>
<path d="M367.819 159.528C367.619 159.527 367.423 159.476 367.249 159.378L323.849 134.378C323.59 134.226 323.402 133.978 323.325 133.688C323.248 133.397 323.289 133.089 323.439 132.828C323.589 132.57 323.835 132.382 324.124 132.306C324.413 132.229 324.72 132.269 324.979 132.418L368.389 157.418C368.646 157.569 368.834 157.815 368.911 158.104C368.988 158.392 368.948 158.7 368.799 158.958C368.699 159.131 368.556 159.274 368.384 159.374C368.212 159.474 368.017 159.527 367.819 159.528Z" fill="#D4DFFC"/>
<path d="M367.819 176.228C367.622 176.235 367.427 176.182 367.259 176.078L323.849 151.078C323.584 150.928 323.389 150.679 323.308 150.386C323.226 150.092 323.264 149.778 323.414 149.513C323.564 149.248 323.813 149.053 324.107 148.972C324.4 148.89 324.714 148.928 324.979 149.078L368.369 174.118C368.586 174.243 368.755 174.435 368.851 174.666C368.946 174.896 368.963 175.152 368.898 175.393C368.832 175.634 368.689 175.847 368.491 175.998C368.292 176.149 368.049 176.23 367.799 176.228H367.819Z" fill="#D4DFFC"/>
<path d="M353.368 184.588C353.167 184.589 352.969 184.534 352.798 184.428L323.858 167.728C323.6 167.576 323.412 167.327 323.335 167.037C323.258 166.747 323.299 166.438 323.448 166.178C323.599 165.92 323.845 165.732 324.134 165.655C324.422 165.578 324.73 165.619 324.988 165.768L353.928 182.478C354.188 182.627 354.378 182.872 354.457 183.161C354.535 183.45 354.496 183.758 354.348 184.018C354.249 184.19 354.106 184.333 353.934 184.433C353.762 184.533 353.567 184.587 353.368 184.588Z" fill="#D4DFFC"/>
<path d="M368.367 202.049V209.049C368.368 209.589 368.51 210.121 368.781 210.589C369.051 211.058 369.439 211.447 369.907 211.719L395.457 226.449C395.652 226.558 395.871 226.616 396.095 226.614C396.318 226.613 396.537 226.553 396.73 226.441C396.924 226.329 397.084 226.168 397.196 225.975C397.307 225.781 397.367 225.562 397.367 225.339V217.799C397.367 217.367 397.253 216.943 397.038 216.569C396.822 216.195 396.511 215.884 396.137 215.669L370.457 200.869C370.249 200.74 370.009 200.669 369.764 200.664C369.519 200.659 369.277 200.721 369.064 200.841C368.85 200.962 368.673 201.137 368.55 201.35C368.428 201.562 368.365 201.803 368.367 202.049Z" fill="#FFC700"/>
<path d="M274.009 260.548C274.139 261.468 273.259 262.848 272.009 263.638C270.759 264.428 269.729 264.328 269.599 263.408C269.469 262.488 270.349 261.108 271.599 260.318C272.849 259.528 273.879 259.628 274.009 260.548Z" fill="url(#paint9_linear)"/>
<path d="M283.809 266.028C283.939 266.948 283.059 268.328 281.859 269.118C280.659 269.908 279.569 269.808 279.449 268.888C279.329 267.968 280.189 266.588 281.399 265.798C282.609 265.008 283.689 265.108 283.809 266.028Z" fill="url(#paint10_linear)"/>
<path d="M294.169 271.499C294.289 272.419 293.419 273.809 292.169 274.599C290.919 275.389 289.889 275.279 289.759 274.369C289.629 273.459 290.509 272.059 291.759 271.269C293.009 270.479 294.039 270.579 294.169 271.499Z" fill="url(#paint11_linear)"/>
<path d="M292.369 324.928V347.058L311.369 358.028V335.998L292.369 324.928Z" fill="#D4DFFC"/>
<path d="M416.948 140.938C416.568 144.398 415.178 147.018 413.068 148.488C409.858 150.978 405.068 150.978 399.938 148.068C391.458 143.218 385.298 132.208 386.228 123.468C387.078 115.038 394.228 111.788 402.308 115.878C402.598 116.008 402.938 116.178 403.238 116.338C411.718 121.148 417.878 132.168 416.948 140.938Z" fill="#0DA800"/>
<path d="M399.077 140.739L395.367 129.939C395.273 129.748 395.252 129.529 395.309 129.324C395.366 129.119 395.498 128.942 395.677 128.829C396.007 128.699 396.417 128.979 396.577 129.459L399.147 136.959L404.797 125.179C404.832 125.09 404.89 125.013 404.965 124.955C405.039 124.897 405.128 124.859 405.222 124.847C405.316 124.835 405.412 124.848 405.499 124.885C405.586 124.922 405.661 124.982 405.717 125.059C405.879 125.223 405.989 125.43 406.036 125.655C406.082 125.881 406.062 126.114 405.977 126.329L399.077 140.739Z" fill="#F3F6FF"/>
<path d="M435.369 158.178V335.998L512.369 380.448V202.638L435.369 158.178Z" fill="#C9ECFB"/>
<path d="M435.459 180.629L512.369 225.029V202.809L435.369 158.349L435.459 180.629Z" fill="#0380AF"/>
<path d="M486.918 198.529C486.573 199.087 486.448 199.753 486.568 200.399C486.659 201.016 486.877 201.609 487.208 202.139C487.369 202.401 487.556 202.645 487.768 202.869C488.998 204.189 490.608 204.359 491.368 203.269C492.128 202.179 491.738 200.269 490.518 198.929C489.298 197.589 487.678 197.439 486.918 198.529Z" fill="#F3F6FF"/>
<path d="M495.298 203.578C494.954 204.14 494.829 204.809 494.948 205.458C495.042 206.075 495.259 206.667 495.588 207.198C495.754 207.456 495.942 207.701 496.149 207.928C497.379 209.238 498.988 209.418 499.738 208.328C500.488 207.238 500.118 205.328 498.888 203.978C497.658 202.628 496.058 202.488 495.298 203.578Z" fill="#00ADEE"/>
<path d="M503.677 208.458C503.333 209.02 503.208 209.69 503.327 210.338C503.421 210.956 503.638 211.548 503.967 212.078C504.131 212.339 504.318 212.583 504.527 212.808C505.757 214.118 507.357 214.298 508.117 213.208C508.877 212.118 508.497 210.208 507.267 208.858C506.037 207.508 504.437 207.378 503.677 208.458Z" fill="#00ADEE"/>
<path d="M444.369 197.498V224.468L503.369 257.368V230.568L444.369 197.498Z" fill="#F2FBFF"/>
<path d="M444.369 229.498V256.468L503.369 289.368V262.568L444.369 229.498Z" fill="#F2FBFF"/>
<path d="M444.369 260.498V287.468L503.369 320.368V293.568L444.369 260.498Z" fill="#F2FBFF"/>
<path d="M489.688 319.458C489.586 319.461 489.485 319.433 489.398 319.378L457.678 301.088C457.559 301.005 457.475 300.88 457.443 300.738C457.412 300.596 457.435 300.447 457.508 300.321C457.581 300.195 457.699 300.102 457.838 300.058C457.977 300.015 458.127 300.026 458.258 300.088L489.978 318.388C490.112 318.464 490.21 318.589 490.252 318.738C490.293 318.886 490.274 319.044 490.198 319.178C490.145 319.265 490.07 319.336 489.98 319.385C489.891 319.434 489.79 319.46 489.688 319.458V319.458Z" fill="url(#paint12_linear)"/>
<path d="M489.728 328.638C489.626 328.637 489.527 328.609 489.438 328.558L457.678 310.248C457.559 310.165 457.475 310.04 457.443 309.898C457.412 309.756 457.435 309.607 457.508 309.481C457.581 309.355 457.699 309.262 457.838 309.218C457.977 309.175 458.127 309.186 458.258 309.248L490.018 327.568C490.15 327.646 490.247 327.772 490.286 327.92C490.325 328.068 490.305 328.226 490.228 328.358C490.176 328.444 490.102 328.514 490.015 328.563C489.927 328.612 489.828 328.638 489.728 328.638V328.638Z" fill="url(#paint13_linear)"/>
<path d="M489.688 337.779C489.586 337.777 489.486 337.749 489.398 337.699L457.678 319.399C457.611 319.361 457.553 319.311 457.506 319.251C457.46 319.191 457.425 319.122 457.406 319.048C457.386 318.974 457.382 318.897 457.392 318.822C457.403 318.747 457.429 318.674 457.468 318.609C457.545 318.476 457.671 318.38 457.819 318.341C457.967 318.301 458.125 318.322 458.258 318.399L489.978 336.689C490.112 336.766 490.211 336.894 490.252 337.043C490.293 337.193 490.274 337.353 490.198 337.489C490.144 337.576 490.069 337.648 489.98 337.699C489.891 337.75 489.79 337.777 489.688 337.779Z" fill="url(#paint14_linear)"/>
<path d="M481.759 342.378C481.657 342.374 481.558 342.347 481.469 342.298L465.609 333.138C465.536 333.104 465.472 333.055 465.419 332.994C465.367 332.934 465.327 332.863 465.303 332.786C465.28 332.71 465.272 332.629 465.281 332.549C465.29 332.47 465.315 332.393 465.356 332.323C465.396 332.254 465.45 332.194 465.515 332.146C465.579 332.099 465.653 332.065 465.732 332.048C465.81 332.031 465.891 332.03 465.97 332.045C466.048 332.061 466.123 332.092 466.189 332.138L482.049 341.288C482.183 341.366 482.282 341.493 482.323 341.643C482.364 341.793 482.345 341.953 482.269 342.088C482.215 342.176 482.14 342.248 482.051 342.299C481.962 342.349 481.861 342.377 481.759 342.378Z" fill="url(#paint15_linear)"/>
<g opacity="0.5">
<path d="M303.059 149.017H302.929C302.733 148.978 302.56 148.865 302.446 148.7C302.333 148.536 302.287 148.334 302.319 148.137C302.319 147.967 305.529 130.317 303.669 113.027C301.929 96.7371 295.159 89.7371 289.599 90.1171C289.401 90.1281 289.206 90.061 289.057 89.9302C288.907 89.7994 288.815 89.6152 288.799 89.4171C288.791 89.3177 288.803 89.2178 288.834 89.123C288.865 89.0282 288.914 88.9406 288.979 88.8652C289.045 88.7897 289.124 88.7281 289.213 88.6838C289.303 88.6395 289.4 88.6134 289.499 88.6071C292.759 88.3771 296.199 90.3371 298.919 93.9571C302.149 98.2671 304.309 104.807 305.169 112.867C307.049 130.377 303.839 148.227 303.799 148.407C303.769 148.58 303.677 148.736 303.542 148.848C303.406 148.96 303.235 149.02 303.059 149.017V149.017Z" fill="#FF0007"/>
<path d="M274.129 154.777H274.019C273.92 154.763 273.825 154.73 273.739 154.68C273.653 154.629 273.578 154.561 273.519 154.481C273.459 154.401 273.416 154.31 273.392 154.213C273.368 154.116 273.364 154.015 273.379 153.917C274.289 147.697 273.809 140.327 271.909 131.387C271.789 130.797 271.659 130.217 271.529 129.637C270.459 124.707 269.359 119.637 269.729 114.247C270.269 106.397 274.419 99.6567 280.289 97.0667C282.169 96.1856 284.259 95.8542 286.319 96.1107C288.379 96.3673 290.324 97.2014 291.929 98.5167C292.085 98.6423 292.184 98.8238 292.207 99.0221C292.229 99.2205 292.173 99.4197 292.049 99.5767C291.988 99.6547 291.912 99.7197 291.825 99.768C291.738 99.8163 291.643 99.8469 291.544 99.8581C291.446 99.8692 291.346 99.8607 291.251 99.833C291.156 99.8053 291.067 99.759 290.989 99.6967C289.602 98.5484 287.914 97.8206 286.127 97.5992C284.339 97.3777 282.526 97.6718 280.899 98.4467C275.529 100.807 271.739 107.057 271.229 114.357C270.879 119.507 271.959 124.487 273.009 129.357C273.129 129.937 273.259 130.527 273.379 131.107C275.379 140.227 275.809 147.777 274.869 154.177C274.835 154.347 274.742 154.5 274.607 154.609C274.472 154.719 274.303 154.778 274.129 154.777V154.777Z" fill="#FF0007"/>
<path d="M292.85 172.547H292.71C292.512 172.508 292.337 172.393 292.223 172.227C292.109 172.06 292.064 171.856 292.1 171.657L292.15 171.497C292.95 168.987 299.97 146.327 299.35 123.977C298.96 109.977 294.58 103.897 294.53 103.837C294.427 103.674 294.39 103.479 294.425 103.29C294.461 103.102 294.566 102.933 294.721 102.819C294.876 102.705 295.068 102.654 295.258 102.676C295.449 102.698 295.625 102.791 295.75 102.937C295.94 103.197 300.45 109.447 300.85 123.937C301.48 146.527 294.39 169.417 293.58 171.937C293.553 172.11 293.464 172.267 293.33 172.38C293.195 172.492 293.025 172.551 292.85 172.547V172.547Z" fill="#FF0007"/>
<path d="M267.55 125.757C267.391 125.757 267.236 125.706 267.107 125.613C266.977 125.52 266.881 125.388 266.83 125.237C265.37 120.807 262.44 109.447 266.94 99.7671C270.77 91.5371 277.72 86.7671 283.86 88.1971C284.055 88.2421 284.224 88.3628 284.33 88.5325C284.436 88.7023 284.47 88.9071 284.425 89.102C284.38 89.297 284.26 89.466 284.09 89.572C283.92 89.6779 283.715 89.7121 283.52 89.6671C277.46 88.2771 271.28 94.0071 268.31 100.397C264.04 109.587 266.86 120.507 268.31 124.767C268.342 124.861 268.354 124.96 268.347 125.059C268.339 125.157 268.313 125.254 268.268 125.342C268.223 125.43 268.162 125.509 268.087 125.573C268.012 125.638 267.924 125.686 267.83 125.717C267.741 125.75 267.646 125.764 267.55 125.757Z" fill="#FF0007"/>
<path d="M287.619 170.067C287.536 170.081 287.452 170.081 287.369 170.067C287.271 170.035 287.18 169.983 287.103 169.914C287.026 169.845 286.964 169.761 286.921 169.667C286.877 169.574 286.854 169.472 286.852 169.368C286.85 169.265 286.87 169.162 286.909 169.067C286.909 168.957 290.749 157.707 292.819 138.927C294.469 123.927 292.259 110.407 287.559 106.757C286.959 106.27 286.236 105.959 285.47 105.858C284.704 105.758 283.925 105.871 283.219 106.187C278.139 108.087 276.539 115.017 276.709 120.377C276.874 123.15 277.357 125.894 278.149 128.557C278.389 129.497 278.629 130.437 278.859 131.417C279.885 135.781 280.372 140.254 280.309 144.737C280.256 149.004 279.892 153.262 279.219 157.477C279.181 157.676 279.065 157.851 278.897 157.965C278.729 158.078 278.523 158.12 278.324 158.082C278.125 158.043 277.95 157.928 277.836 157.76C277.723 157.592 277.681 157.386 277.719 157.187C278.381 153.032 278.742 148.834 278.799 144.627C278.855 140.269 278.381 135.921 277.389 131.677C277.159 130.677 276.919 129.777 276.689 128.847C275.874 126.093 275.381 123.254 275.219 120.387C274.919 111.027 278.889 106.167 282.709 104.737C283.659 104.339 284.699 104.206 285.719 104.353C286.738 104.499 287.699 104.918 288.499 105.567C293.669 109.567 296.069 123.367 294.339 139.087C292.249 158.087 288.389 169.447 288.339 169.557C288.287 169.706 288.19 169.836 288.061 169.927C287.932 170.019 287.777 170.067 287.619 170.067V170.067Z" fill="#FF0007"/>
<path d="M284.62 168.287H284.47C284.275 168.246 284.103 168.129 283.993 167.963C283.882 167.796 283.842 167.593 283.88 167.397C284.78 162.967 285.66 158.397 286.51 153.767C286.7 152.767 286.9 151.767 287.1 150.687C288.2 144.907 289.34 138.927 289.22 133.077C289.061 127.877 288.224 122.72 286.73 117.737C286.19 115.857 285.02 113.677 284.07 113.437C283.97 113.437 283.7 113.337 283.27 113.777C282.43 114.627 281.95 116.777 281.99 119.647C282.127 122.275 282.65 124.87 283.54 127.347C283.78 128.107 284.01 128.867 284.22 129.637C285.54 134.377 285.14 139.557 284.76 144.567L284.68 145.567C284.28 150.877 283.58 156.457 282.53 162.617C282.497 162.813 282.388 162.988 282.225 163.103C282.063 163.219 281.862 163.265 281.665 163.232C281.469 163.199 281.294 163.089 281.179 162.927C281.063 162.764 281.017 162.563 281.05 162.367C282.05 156.247 282.78 150.717 283.18 145.457L283.25 144.397C283.63 139.517 284.01 134.477 282.77 129.997C282.56 129.237 282.33 128.487 282.1 127.747C281.169 125.13 280.623 122.391 280.48 119.617C280.48 117.697 280.65 114.247 282.2 112.667C282.47 112.347 282.824 112.109 283.221 111.978C283.618 111.848 284.044 111.83 284.45 111.927C286.76 112.507 288.04 116.787 288.18 117.267C289.708 122.377 290.565 127.665 290.73 132.997C290.85 138.997 289.73 145.057 288.58 150.917C288.38 151.917 288.18 152.977 288 153.997C287.15 158.607 286.26 163.207 285.36 167.647C285.33 167.823 285.24 167.983 285.105 168.099C284.97 168.216 284.799 168.282 284.62 168.287V168.287Z" fill="#FF0007"/>
<path d="M261.39 113.047C261.212 113.048 261.039 112.986 260.902 112.873C260.765 112.76 260.672 112.602 260.64 112.427C260.64 112.237 257.64 93.7074 270.56 84.5274C280.46 77.5274 288.95 81.1274 289.3 81.2874C289.392 81.3261 289.475 81.3827 289.545 81.454C289.615 81.5253 289.67 81.6099 289.706 81.7027C289.743 81.7955 289.761 81.8947 289.759 81.9945C289.757 82.0943 289.735 82.1927 289.694 82.2839C289.654 82.3751 289.595 82.4572 289.522 82.5256C289.45 82.5939 289.364 82.647 289.27 82.6818C289.177 82.7166 289.077 82.7323 288.978 82.7281C288.878 82.724 288.78 82.6999 288.69 82.6574C288.61 82.6574 280.6 79.2374 271.43 85.7574C259.29 94.3874 262.1 111.997 262.13 112.177C262.161 112.374 262.114 112.574 261.998 112.736C261.881 112.897 261.706 113.005 261.51 113.037L261.39 113.047Z" fill="#FF0007"/>
<path d="M294.84 78.1175C294.674 78.1221 294.512 78.0691 294.38 77.9675C292.679 76.83 290.763 76.054 288.75 75.6875C286.281 75.3603 283.773 75.4891 281.35 76.0675C281.157 76.1166 280.951 76.0868 280.78 75.9846C280.608 75.8823 280.484 75.7162 280.435 75.5225C280.386 75.3289 280.416 75.1238 280.518 74.9522C280.62 74.7806 280.787 74.6566 280.98 74.6075C283.597 73.9673 286.312 73.8316 288.98 74.2075C291.23 74.6004 293.368 75.4736 295.25 76.7675C295.376 76.862 295.469 76.9937 295.516 77.1439C295.563 77.2942 295.561 77.4554 295.512 77.6047C295.462 77.7541 295.366 77.8839 295.239 77.976C295.111 78.068 294.958 78.1175 294.8 78.1175H294.84Z" fill="#FF0007"/>
<path d="M256.75 106.978C256.55 106.975 256.359 106.894 256.219 106.752C256.079 106.609 256 106.417 256 106.218C256.03 99.3068 257.827 92.5184 261.22 86.4977C262.776 83.7872 264.877 81.4283 267.39 79.5696C269.902 77.7109 272.773 76.3926 275.82 75.6977C275.917 75.6755 276.017 75.6728 276.114 75.6895C276.212 75.7062 276.305 75.7421 276.389 75.7951C276.472 75.8481 276.545 75.9171 276.602 75.9982C276.659 76.0794 276.699 76.1709 276.72 76.2677C276.762 76.4624 276.726 76.6659 276.619 76.8342C276.512 77.0026 276.344 77.1223 276.15 77.1677C273.305 77.8186 270.626 79.0511 268.28 80.7875C265.934 82.5239 263.973 84.7268 262.52 87.2577C259.259 93.0605 257.538 99.6014 257.52 106.258C257.512 106.455 257.427 106.641 257.283 106.776C257.139 106.911 256.947 106.983 256.75 106.978V106.978Z" fill="#FF0007"/>
<path d="M259.45 121.987C259.299 121.987 259.151 121.941 259.026 121.856C258.901 121.77 258.805 121.649 258.75 121.507C258.116 119.823 257.605 118.095 257.22 116.337C256.73 113.927 256.3 109.527 256.28 109.337C256.263 109.139 256.325 108.942 256.452 108.788C256.58 108.635 256.762 108.537 256.96 108.517C257.059 108.508 257.158 108.518 257.253 108.547C257.348 108.576 257.436 108.623 257.512 108.686C257.588 108.75 257.651 108.827 257.697 108.915C257.743 109.003 257.771 109.099 257.78 109.197C257.78 109.197 258.22 113.697 258.7 116.037C259.077 117.711 259.575 119.355 260.19 120.957C260.229 121.051 260.248 121.152 260.248 121.253C260.247 121.354 260.226 121.455 260.186 121.548C260.146 121.641 260.088 121.725 260.014 121.796C259.941 121.866 259.855 121.921 259.76 121.957C259.659 121.985 259.554 121.995 259.45 121.987Z" fill="#FF0007"/>
<path d="M265.439 150.977C265.24 150.969 265.051 150.883 264.914 150.737C264.778 150.591 264.704 150.397 264.709 150.197C264.979 146.375 264.979 142.539 264.709 138.717C264.508 136.286 263.977 133.894 263.129 131.607C262.819 130.807 262.459 130.057 262.129 129.317C261.409 128.004 260.826 126.62 260.389 125.187C260.355 125.087 260.342 124.981 260.35 124.876C260.359 124.77 260.39 124.668 260.44 124.575C260.491 124.482 260.56 124.401 260.644 124.337C260.728 124.272 260.824 124.226 260.927 124.201C261.03 124.175 261.136 124.172 261.241 124.19C261.345 124.209 261.444 124.249 261.532 124.308C261.619 124.367 261.694 124.444 261.75 124.533C261.807 124.622 261.844 124.723 261.859 124.827C262.231 126.174 262.744 127.478 263.389 128.717C263.749 129.477 264.129 130.257 264.459 131.107C265.352 133.527 265.914 136.057 266.129 138.627C266.432 142.497 266.462 146.383 266.219 150.257C266.209 150.455 266.122 150.641 265.976 150.776C265.83 150.91 265.638 150.983 265.439 150.977V150.977Z" fill="#FF0007"/>
<path d="M270.22 151.927C270.021 151.912 269.836 151.82 269.703 151.671C269.571 151.521 269.501 151.327 269.51 151.127C269.51 151.027 270.1 141.377 269.24 136.587C268.68 133.467 267.88 129.827 267.87 129.797C267.826 129.602 267.862 129.398 267.968 129.229C268.075 129.06 268.245 128.941 268.44 128.897C268.635 128.853 268.839 128.889 269.008 128.996C269.177 129.103 269.296 129.272 269.34 129.467C269.34 129.467 270.16 133.167 270.73 136.317C271.62 141.317 271.04 150.817 271.02 151.217C271.007 151.417 270.916 151.604 270.766 151.737C270.616 151.87 270.42 151.938 270.22 151.927V151.927Z" fill="#FF0007"/>
<path d="M306.719 101.708C306.548 101.71 306.382 101.653 306.247 101.548C306.113 101.442 306.018 101.294 305.979 101.128C305.979 101.038 304.069 92.7976 300.439 88.7576C296.809 84.7176 293.439 84.4875 293.439 84.4875C293.24 84.4849 293.049 84.4037 292.909 84.2614C292.768 84.1192 292.689 83.9274 292.689 83.7275C292.689 83.5286 292.768 83.3379 292.909 83.1972C293.05 83.0566 293.241 82.9775 293.439 82.9775V82.9775C293.619 82.9775 297.319 83.0375 301.549 87.7475C305.439 92.0875 307.349 100.438 307.429 100.748C307.452 100.844 307.454 100.944 307.438 101.042C307.421 101.139 307.385 101.233 307.332 101.316C307.279 101.4 307.21 101.472 307.129 101.529C307.048 101.586 306.956 101.626 306.859 101.648C306.817 101.676 306.769 101.696 306.719 101.708V101.708Z" fill="#FF0007"/>
</g>
<path d="M180.688 101.588C180.115 101.307 179.473 101.196 178.838 101.268C178.358 101.312 177.893 101.462 177.478 101.708L175.138 103.058L104.078 144.058C101.788 145.378 100.378 147.828 99.3684 150.468L100.368 223.228V225.338C100.503 226.222 100.784 227.077 101.198 227.868C101.535 228.308 101.957 228.675 102.438 228.948L99.8384 227.628C99.5279 227.515 99.2323 227.364 98.9584 227.178H99.3884C99.3884 227.178 97.0484 225.178 97.3884 223.698V148.838C97.2511 147.554 97.4992 146.257 98.1011 145.114C98.703 143.97 99.6315 143.032 100.768 142.418L173.618 100.358L174.168 100.038C174.928 99.7577 175.742 99.6517 176.548 99.7282V99.7282L177.168 99.8282L177.638 100.058L180.688 101.588Z" fill="#CAD8FC"/>
<path d="M182.367 104.938V180.938C182.367 182.177 182.04 183.393 181.42 184.466C180.801 185.538 179.91 186.429 178.837 187.048L106.637 228.748C106.059 229.085 105.407 229.277 104.738 229.307C104.069 229.337 103.403 229.203 102.797 228.918L102.437 228.738C101.963 228.459 101.546 228.092 101.207 227.658C100.657 226.93 100.362 226.041 100.367 225.128V223.028V150.538C100.367 149.245 100.707 147.975 101.353 146.855C101.999 145.735 102.928 144.805 104.047 144.158L174.847 103.278L177.207 101.938C177.624 101.695 178.087 101.545 178.567 101.498C179.196 101.429 179.832 101.544 180.397 101.828V101.828C180.99 102.103 181.49 102.542 181.84 103.093C182.189 103.645 182.372 104.285 182.367 104.938V104.938Z" fill="#F3F6FF"/>
<path d="M107.367 153.388V181.758C107.366 182.147 107.467 182.53 107.661 182.868C107.854 183.205 108.134 183.485 108.471 183.68C108.808 183.875 109.19 183.978 109.579 183.977C109.968 183.977 110.351 183.874 110.687 183.678L135.137 169.558C135.814 169.176 136.377 168.621 136.768 167.95C137.16 167.278 137.367 166.515 137.367 165.738V137.738C137.361 137.326 137.246 136.923 137.035 136.569C136.825 136.215 136.525 135.922 136.166 135.72C135.807 135.518 135.401 135.413 134.989 135.416C134.577 135.419 134.173 135.53 133.817 135.738L109.477 149.738C108.836 150.108 108.304 150.64 107.934 151.281C107.563 151.921 107.368 152.648 107.367 153.388V153.388Z" fill="url(#paint16_linear)"/>
<path d="M145.269 142.679C145.135 142.678 145.004 142.642 144.889 142.576C144.773 142.509 144.677 142.414 144.609 142.299C144.52 142.127 144.5 141.929 144.552 141.743C144.604 141.558 144.724 141.399 144.889 141.299L159.889 132.659C160.061 132.577 160.258 132.564 160.439 132.62C160.621 132.677 160.775 132.8 160.871 132.965C160.966 133.129 160.996 133.324 160.955 133.51C160.914 133.696 160.805 133.859 160.649 133.969L145.649 142.609C145.532 142.668 145.4 142.692 145.269 142.679Z" fill="url(#paint17_linear)"/>
<path d="M145.268 151.298C145.102 151.3 144.94 151.246 144.808 151.146C144.676 151.046 144.581 150.905 144.538 150.745C144.495 150.585 144.505 150.415 144.569 150.262C144.632 150.109 144.744 149.981 144.888 149.898L167.368 136.938C167.538 136.847 167.738 136.825 167.924 136.877C168.11 136.93 168.269 137.052 168.368 137.218C168.456 137.39 168.477 137.588 168.425 137.774C168.373 137.959 168.252 138.118 168.088 138.218L145.638 151.158C145.531 151.24 145.402 151.289 145.268 151.298V151.298Z" fill="url(#paint18_linear)"/>
<path d="M145.248 159.938C145.084 159.935 144.924 159.879 144.794 159.777C144.664 159.676 144.571 159.535 144.528 159.376C144.485 159.217 144.495 159.048 144.557 158.895C144.618 158.742 144.727 158.613 144.868 158.528L174.818 141.258C174.992 141.158 175.198 141.132 175.391 141.185C175.584 141.237 175.749 141.364 175.848 141.538C175.948 141.712 175.974 141.918 175.922 142.111C175.869 142.304 175.742 142.468 175.568 142.568L145.628 159.838C145.511 159.9 145.381 159.934 145.248 159.938V159.938Z" fill="url(#paint19_linear)"/>
<path d="M108.367 196.378V214.688C108.366 215.175 108.494 215.654 108.738 216.076C108.981 216.498 109.331 216.848 109.753 217.091C110.175 217.335 110.653 217.463 111.141 217.462C111.628 217.461 112.106 217.332 112.527 217.088L173.027 182.178C173.74 181.767 174.331 181.175 174.742 180.462C175.153 179.749 175.368 178.941 175.367 178.118V158.808C175.364 158.424 175.26 158.047 175.065 157.715C174.87 157.384 174.591 157.11 174.257 156.92C173.923 156.731 173.544 156.633 173.16 156.636C172.775 156.639 172.399 156.743 172.067 156.938L110.677 192.398C109.977 192.801 109.395 193.381 108.99 194.079C108.585 194.778 108.37 195.57 108.367 196.378V196.378Z" fill="#FFC700"/>
<path d="M265.969 249.228C265.969 249.228 266.309 245.718 267.249 245.758C268.189 245.798 271.359 240.208 272.199 240.518C273.039 240.828 269.859 245.288 270.959 245.838C272.059 246.388 274.809 248.538 273.339 249.998C271.954 251.205 270.438 252.251 268.819 253.118L265.629 251.528L265.969 249.228Z" fill="url(#paint20_linear)"/>
<path d="M233.609 378.838C233.609 378.838 231.679 385.098 237.609 385.268C241.439 385.368 249.409 379.918 249.069 378.758C248.729 377.598 240.479 378.688 240.479 378.688L237.159 377.008L233.609 378.838Z" fill="url(#paint21_linear)"/>
<path d="M222.109 374.378C222.109 374.378 220.179 380.628 226.109 380.798C229.939 380.908 237.899 375.458 237.569 374.298C237.239 373.138 228.979 374.218 228.979 374.218L225.659 372.538L222.109 374.378Z" fill="url(#paint22_linear)"/>
<path d="M230.219 332.278L233.099 378.728C233.099 378.728 233.989 379.808 237.959 379.478C241.059 379.218 241.599 378.478 241.599 378.478L242.599 333.258L240.019 327.938L230.219 332.278Z" fill="url(#paint23_linear)"/>
<path d="M218.719 327.818L221.599 374.258C221.599 374.258 222.479 375.338 226.449 375.008C229.559 374.748 230.089 374.068 230.089 374.068L231.089 328.838L228.539 323.498L218.719 327.818Z" fill="url(#paint24_linear)"/>
<path d="M218.228 263.938C218.228 263.938 209.918 274.648 209.558 280.488C209.198 286.328 215.558 289.788 215.558 289.788C215.558 289.788 218.248 287.788 218.498 287.598C218.748 287.408 228.218 270.348 228.148 270.058C228.078 269.768 218.228 263.938 218.228 263.938Z" fill="url(#paint25_linear)"/>
<path d="M230.169 254.549L229.809 260.459L237.029 260.049C237.029 260.049 237.349 254.049 237.849 253.619L238.339 253.199L237.779 252.279L229.539 250.979L230.169 254.549Z" fill="url(#paint26_linear)"/>
<path d="M240.768 242.728C241.696 245.021 242.191 247.465 242.228 249.938C242.263 251.998 241.76 254.032 240.768 255.838C240.768 255.838 235.538 256.968 233.408 254.988C232.809 254.495 232.354 253.849 232.09 253.119C231.826 252.389 231.763 251.601 231.908 250.838L232.908 247.588L235.638 241.268L237.858 241.028L240.768 242.728Z" fill="url(#paint27_linear)"/>
<path d="M271.368 253.288C271.368 253.288 257.028 277.048 254.868 279.398C253.788 280.568 251.488 279.998 249.458 279.128L249.318 279.058C249.269 279.044 249.222 279.024 249.178 278.998C247.935 278.437 246.735 277.785 245.588 277.048C245.518 278.808 245.418 280.608 245.398 282.368C245.398 282.688 245.398 283.008 245.398 283.318C245.518 291.939 246.126 300.546 247.218 309.098C248.218 318.338 247.218 333.518 247.218 333.518C247.218 333.518 245.838 334.698 238.398 335.738C233.626 336.26 228.809 335.281 224.618 332.938L222.368 326.518L221.308 331.428C220.015 331.539 218.712 331.372 217.488 330.938C216.056 330.589 214.7 329.979 213.488 329.138C213.488 329.138 214.148 297.318 215.548 288.658C216.011 285.734 216.301 282.786 216.418 279.828C216.499 275.398 216.813 270.975 217.358 266.578C217.481 265.665 217.766 264.781 218.198 263.968C219.586 261.693 221.76 260.006 224.308 259.228C226.984 258.22 229.849 257.817 232.699 258.049C235.548 258.281 238.311 259.141 240.788 260.568C241.258 260.848 241.738 261.148 242.198 261.488L242.378 261.608C243.308 262.228 247.608 265.108 250.098 266.838C250.528 267.138 250.908 267.398 251.198 267.618C251.808 268.058 253.128 266.818 254.728 264.788C258.938 259.428 265.048 248.588 265.048 248.588C266.539 248.565 268.012 248.909 269.338 249.588C271.078 250.698 271.368 253.288 271.368 253.288Z" fill="url(#paint28_linear)"/>
<path d="M249.128 278.998C247.886 278.437 246.686 277.785 245.538 277.048C245.468 278.808 245.368 280.608 245.348 282.368C245.348 282.368 241.988 274.268 243.968 274.788C245.948 275.308 247.648 278.278 249.128 278.998Z" fill="url(#paint29_linear)"/>
<path d="M254.759 264.788C254.689 265.048 253.389 269.248 251.949 269.318C250.509 269.388 250.129 266.838 250.129 266.838C250.559 267.138 250.939 267.398 251.229 267.618C251.839 268.058 253.159 266.818 254.759 264.788Z" fill="url(#paint30_linear)"/>
<path d="M219.179 321.058C216.069 324.188 221.299 331.428 221.299 331.428C220.005 331.539 218.702 331.372 217.479 330.938C216.046 330.589 214.69 329.978 213.479 329.138C213.479 329.138 214.139 297.318 215.539 288.658C216.001 285.734 216.291 282.786 216.409 279.828C216.49 275.398 216.803 270.975 217.349 266.578C217.472 265.665 217.756 264.781 218.189 263.968C218.189 263.968 217.949 281.768 221.469 283.028C225.529 284.488 222.469 285.908 220.269 288.898C217.869 292.238 214.879 310.328 219.419 313.098C223.499 315.568 222.289 317.938 219.179 321.058Z" fill="url(#paint31_linear)"/>
<path d="M240.198 235.468C240.198 235.468 242.608 240.518 240.768 242.728C238.928 244.938 236.468 245.728 236.338 247.208C236.208 248.688 237.278 248.438 237.628 249.458C237.818 250.17 237.732 250.927 237.388 251.578C237.388 251.578 235.388 249.428 234.388 250.798C233.388 252.168 233.388 253.528 234.388 254.018C235.388 254.508 236.268 254.018 236.338 254.728C236.408 255.438 234.738 257.558 231.558 256.638C228.378 255.718 226.968 254.268 226.558 252.108C226.407 250.458 226.701 248.797 227.408 247.298C227.408 247.298 225.198 242.298 227.878 240.368C230.558 238.438 232.308 239.368 233.588 238.908C234.868 238.448 233.958 236.738 235.138 236.408C236.318 236.078 237.028 238.818 237.968 238.578C238.908 238.338 238.048 235.378 238.768 234.108C239.488 232.838 240.198 235.468 240.198 235.468Z" fill="#012860"/>
<path fill-rule="evenodd" clip-rule="evenodd" d="M139.367 353.818V352.588L150.367 358.938L161.367 352.588V353.818L150.367 360.168L139.367 353.818Z" fill="#048BBD"/>
<path d="M121.109 295.578C121.109 295.808 121.109 296.028 121.109 296.258C121.136 296.711 121.193 297.162 121.279 297.608C121.411 298.338 121.619 299.052 121.899 299.738C122.019 300.018 122.139 300.308 122.279 300.578C123.123 302.274 124.268 303.803 125.659 305.088C127.648 306.915 129.912 308.417 132.369 309.538C138.154 312.164 144.447 313.482 150.799 313.398C164.799 313.398 176.499 307.578 179.619 299.738V299.688C179.887 299.016 180.088 298.319 180.219 297.608C180.31 297.163 180.367 296.712 180.389 296.258V294.838C179.749 285.338 166.729 277.748 150.779 277.748H149.929H149.249H148.679H148.309L147.099 277.818H146.639H146.419L145.899 277.868C145.699 277.868 145.509 277.868 145.309 277.928L144.799 277.988L144.079 278.078H144.019L143.369 278.178L142.659 278.288L141.279 278.548L140.729 278.668H140.529L140.159 278.748C140.029 278.748 139.909 278.818 139.779 278.838L139.339 278.958L138.269 279.238L137.779 279.378C137.449 279.468 137.129 279.578 136.779 279.678L136.469 279.778L136.149 279.888L135.489 280.118H135.419L134.909 280.318L134.689 280.398L133.929 280.708C133.403 280.928 132.883 281.158 132.369 281.398L131.939 281.608C131.389 281.888 130.849 282.168 130.339 282.468L129.849 282.748H129.789L129.429 282.968L129.229 283.098L128.869 283.328L128.619 283.498L128.319 283.698C127.909 283.988 127.519 284.278 127.139 284.578L126.849 284.818L126.229 285.348L126.069 285.488L125.829 285.708L125.729 285.808C125.649 285.868 125.579 285.948 125.509 286.008L125.459 286.068L125.269 286.258L125.179 286.338L124.939 286.588L124.819 286.718L124.699 286.848C124.509 287.058 124.339 287.258 124.169 287.468C124.119 287.528 124.079 287.588 124.029 287.638L123.799 287.938L123.549 288.278C123.379 288.518 123.209 288.768 123.049 289.028C123.009 289.086 122.972 289.146 122.939 289.208C122.719 289.568 122.529 289.928 122.349 290.288L122.269 290.458C122.221 290.548 122.181 290.641 122.149 290.738C122.059 290.918 121.989 291.098 121.919 291.278L121.799 291.628C121.701 291.9 121.618 292.177 121.549 292.458V292.618L121.459 292.988L121.399 293.308C121.394 293.331 121.394 293.355 121.399 293.378C121.395 293.418 121.395 293.458 121.399 293.498C121.399 293.608 121.399 293.718 121.399 293.828C121.394 293.861 121.394 293.895 121.399 293.928V294.268C121.399 294.318 121.399 294.368 121.399 294.408C121.395 294.495 121.395 294.581 121.399 294.668C121.395 294.711 121.395 294.755 121.399 294.798V295.218L121.109 295.578Z" fill="#F3F6FF"/>
<path d="M141.508 294.599L148.658 298.729L155.808 294.599L148.658 290.479L141.508 294.599Z" fill="url(#paint32_linear)"/>
<path d="M141.367 294.658V295.438L148.367 299.478V298.698L141.367 294.658Z" fill="url(#paint33_linear)"/>
<path d="M155.367 294.658V295.438L148.367 299.478V298.698L155.367 294.658Z" fill="url(#paint34_linear)"/>
<path d="M148.138 353.329V353.379C148.138 353.379 148.138 353.449 148.138 353.489C148.15 353.543 148.167 353.597 148.188 353.649V353.719C148.253 353.847 148.341 353.962 148.448 354.059C148.6 354.199 148.772 354.317 148.958 354.409C149.405 354.604 149.889 354.703 150.378 354.699C151.138 354.61 151.835 354.235 152.328 353.649V353.649C152.328 353.649 152.638 353.549 152.648 353.499C152.871 353.443 153.098 353.407 153.328 353.389V317.389C152.508 317.389 151.688 317.449 150.848 317.449C150.008 317.449 149.158 317.449 148.328 317.389V353.289H148.098L148.138 353.329Z" fill="#005676"/>
<path d="M131.367 275.488V300.608L160.367 283.858V258.748L131.367 275.488Z" fill="#BDD0FF"/>
<path fill-rule="evenodd" clip-rule="evenodd" d="M159.067 257.998L130.147 274.698L130.367 274.808V299.748L132.367 300.548V275.498L132.001 275.352L160.677 258.798L159.067 257.998ZM122.177 303.808C121.641 302.493 121.366 301.087 121.367 299.668C121.367 299.583 121.397 299.457 121.415 299.384C121.422 299.355 121.427 299.334 121.427 299.328V299.258V299.118C121.432 299.078 121.432 299.038 121.427 298.998V296.298C121.459 296.751 121.515 297.201 121.597 297.648C121.73 298.374 121.938 299.084 122.217 299.768L122.218 299.769C122.338 300.049 122.457 300.328 122.587 300.608C123.432 302.292 124.574 303.809 125.957 305.088C127.916 306.907 130.15 308.406 132.577 309.528C137.632 311.838 143.093 313.126 148.647 313.318C149.397 313.368 150.177 313.368 150.937 313.368H150.937C151.32 313.368 151.7 313.355 152.077 313.343C152.45 313.33 152.82 313.318 153.187 313.318C166.107 312.768 176.697 307.148 179.637 299.768V299.718C179.904 299.049 180.105 298.356 180.237 297.648C180.328 297.203 180.385 296.752 180.407 296.298V298.978V299.668C180.408 301.087 180.133 302.493 179.597 303.808C176.657 311.188 166.067 316.778 153.147 317.358C152.407 317.418 151.667 317.418 150.897 317.418H150.897C150.51 317.418 150.122 317.403 149.737 317.388C149.357 317.373 148.98 317.358 148.607 317.358C143.053 317.17 137.59 315.882 132.537 313.568C130.113 312.446 127.879 310.951 125.917 309.138C124.299 307.653 123.023 305.834 122.177 303.808ZM150.217 359.048L161.687 352.428L150.217 345.798L138.737 352.428L150.217 359.048Z" fill="#00ADEE"/>
<path d="M133.367 275.918V298.438L159.367 283.428V260.908L133.367 275.918Z" fill="#00ADEE"/>
<path d="M151.367 289.028V293.928L146.367 296.868V291.908L151.367 289.028Z" fill="#BDD0FF"/>
<path d="M146.367 296.619L145.367 296.149V292.379L146.367 291.979V296.619Z" fill="url(#paint35_linear)"/>
<path d="M168.659 299.348L161.819 295.398L148.139 303.298L154.979 307.248L168.659 299.348Z" fill="white"/>
<path d="M168.367 299.208V300.008L154.367 308.118V307.298L168.367 299.208Z" fill="url(#paint36_linear)"/>
<path d="M155.367 308.068L148.367 304.068V303.208L155.367 307.248V308.068Z" fill="url(#paint37_linear)"/>
<path d="M392.129 274.729C392.129 274.729 393.129 347.369 393.619 415.609C393.619 415.609 394.669 305.689 395.099 274.729H392.129Z" fill="#C6E0ED"/>
<path d="M401.147 273.511C405.443 269.215 405.443 262.251 401.147 257.955C396.851 253.659 389.886 253.659 385.591 257.955C381.295 262.251 381.295 269.215 385.591 273.511C389.886 277.807 396.851 277.807 401.147 273.511Z" fill="#94B9FF"/>
<path d="M191.758 228.729C191.758 228.729 192.758 272.529 193.238 313.729C193.238 313.729 194.288 247.439 194.718 228.729H191.758Z" fill="#C6E0ED"/>
<path d="M193.369 230.729C199.444 230.729 204.369 225.804 204.369 219.729C204.369 213.653 199.444 208.729 193.369 208.729C187.294 208.729 182.369 213.653 182.369 219.729C182.369 225.804 187.294 230.729 193.369 230.729Z" fill="url(#paint38_linear)"/>
<defs>
<filter id="filter0_d" x="112" y="222" width="106" height="106" filterUnits="userSpaceOnUse" color-interpolation-filters="sRGB">
<feFlood flood-opacity="0" result="BackgroundImageFix"/>
<feColorMatrix in="SourceAlpha" type="matrix" values="0 0 0 0 0 0 0 0 0 0 0 0 0 0 0 0 0 0 127 0"/>
<feMorphology radius="15" operator="dilate" in="SourceAlpha" result="effect1_dropShadow"/>
<feOffset/>
<feGaussianBlur stdDeviation="12.5"/>
<feColorMatrix type="matrix" values="0 0 0 0 1 0 0 0 0 1 0 0 0 0 1 0 0 0 0.99 0"/>
<feBlend mode="normal" in2="BackgroundImageFix" result="effect1_dropShadow"/>
<feBlend mode="normal" in="SourceGraphic" in2="effect1_dropShadow" result="shape"/>
</filter>
<filter id="filter1_d" x="183" y="134" width="66" height="66" filterUnits="userSpaceOnUse" color-interpolation-filters="sRGB">
<feFlood flood-opacity="0" result="BackgroundImageFix"/>
<feColorMatrix in="SourceAlpha" type="matrix" values="0 0 0 0 0 0 0 0 0 0 0 0 0 0 0 0 0 0 127 0"/>
<feMorphology radius="10" operator="dilate" in="SourceAlpha" result="effect1_dropShadow"/>
<feOffset/>
<feGaussianBlur stdDeviation="8"/>
<feColorMatrix type="matrix" values="0 0 0 0 1 0 0 0 0 1 0 0 0 0 1 0 0 0 0.69 0"/>
<feBlend mode="normal" in2="BackgroundImageFix" result="effect1_dropShadow"/>
<feBlend mode="normal" in="SourceGraphic" in2="effect1_dropShadow" result="shape"/>
</filter>
<filter id="filter2_d" x="407" y="352" width="66" height="66" filterUnits="userSpaceOnUse" color-interpolation-filters="sRGB">
<feFlood flood-opacity="0" result="BackgroundImageFix"/>
<feColorMatrix in="SourceAlpha" type="matrix" values="0 0 0 0 0 0 0 0 0 0 0 0 0 0 0 0 0 0 127 0"/>
<feMorphology radius="10" operator="dilate" in="SourceAlpha" result="effect1_dropShadow"/>
<feOffset/>
<feGaussianBlur stdDeviation="8"/>
<feColorMatrix type="matrix" values="0 0 0 0 1 0 0 0 0 1 0 0 0 0 1 0 0 0 0.69 0"/>
<feBlend mode="normal" in2="BackgroundImageFix" result="effect1_dropShadow"/>
<feBlend mode="normal" in="SourceGraphic" in2="effect1_dropShadow" result="shape"/>
</filter>
<filter id="filter3_d" x="398" y="155" width="66" height="66" filterUnits="userSpaceOnUse" color-interpolation-filters="sRGB">
<feFlood flood-opacity="0" result="BackgroundImageFix"/>
<feColorMatrix in="SourceAlpha" type="matrix" values="0 0 0 0 0 0 0 0 0 0 0 0 0 0 0 0 0 0 127 0"/>
<feMorphology radius="10" operator="dilate" in="SourceAlpha" result="effect1_dropShadow"/>
<feOffset/>
<feGaussianBlur stdDeviation="8"/>
<feColorMatrix type="matrix" values="0 0 0 0 1 0 0 0 0 1 0 0 0 0 1 0 0 0 0.69 0"/>
<feBlend mode="normal" in2="BackgroundImageFix" result="effect1_dropShadow"/>
<feBlend mode="normal" in="SourceGraphic" in2="effect1_dropShadow" result="shape"/>
</filter>
<filter id="filter4_d" x="232" y="338" width="66" height="66" filterUnits="userSpaceOnUse" color-interpolation-filters="sRGB">
<feFlood flood-opacity="0" result="BackgroundImageFix"/>
<feColorMatrix in="SourceAlpha" type="matrix" values="0 0 0 0 0 0 0 0 0 0 0 0 0 0 0 0 0 0 127 0"/>
<feMorphology radius="10" operator="dilate" in="SourceAlpha" result="effect1_dropShadow"/>
<feOffset/>
<feGaussianBlur stdDeviation="8"/>
<feColorMatrix type="matrix" values="0 0 0 0 1 0 0 0 0 1 0 0 0 0 1 0 0 0 0.69 0"/>
<feBlend mode="normal" in2="BackgroundImageFix" result="effect1_dropShadow"/>
<feBlend mode="normal" in="SourceGraphic" in2="effect1_dropShadow" result="shape"/>
</filter>
<linearGradient id="paint0_linear" x1="54.6868" y1="277.59" x2="548.376" y2="123.922" gradientUnits="userSpaceOnUse">
<stop stop-color="#D6F4FF"/>
<stop offset="1" stop-color="#FBFEFF"/>
</linearGradient>
<linearGradient id="paint1_linear" x1="109.908" y1="378.548" x2="394.988" y2="378.548" gradientUnits="userSpaceOnUse">
<stop stop-color="white"/>
<stop offset="0.44" stop-color="#FDFEFF"/>
<stop offset="0.67" stop-color="#F5F9FF"/>
<stop offset="0.84" stop-color="#E8F2FF"/>
<stop offset="0.99" stop-color="#D5E8FF"/>
<stop offset="1" stop-color="#D4E7FF"/>
</linearGradient>
<linearGradient id="paint2_linear" x1="241.042" y1="456.82" x2="373.006" y2="396.752" gradientUnits="userSpaceOnUse">
<stop stop-color="#C1E8F6"/>
<stop offset="1" stop-color="#00ADEE"/>
</linearGradient>
<linearGradient id="paint3_linear" x1="17550.7" y1="14714.6" x2="26798.3" y2="14714.6" gradientUnits="userSpaceOnUse">
<stop stop-color="#D4E7FF"/>
<stop offset="0.01" stop-color="#D5E8FF"/>
<stop offset="0.16" stop-color="#E8F2FF"/>
<stop offset="0.33" stop-color="#F5F9FF"/>
<stop offset="0.56" stop-color="#FDFEFF"/>
<stop offset="1" stop-color="white"/>
</linearGradient>
<linearGradient id="paint4_linear" x1="305.83" y1="311.847" x2="286.422" y2="311.847" gradientUnits="userSpaceOnUse">
<stop stop-color="#1E7799"/>
<stop offset="1" stop-color="#038ABD"/>
</linearGradient>
<linearGradient id="paint5_linear" x1="6703.16" y1="2679.65" x2="6945.27" y2="2679.65" gradientUnits="userSpaceOnUse">
<stop stop-color="#6AAEFF"/>
<stop offset="1" stop-color="#005EFF"/>
</linearGradient>
<linearGradient id="paint6_linear" x1="6591.53" y1="2780.48" x2="6833.49" y2="2780.48" gradientUnits="userSpaceOnUse">
<stop stop-color="#6AAEFF"/>
<stop offset="1" stop-color="#005EFF"/>
</linearGradient>
<linearGradient id="paint7_linear" x1="250.478" y1="143.459" x2="409.368" y2="143.459" gradientUnits="userSpaceOnUse">
<stop stop-color="#E9EFFF"/>
<stop offset="1" stop-color="#E9F2FF"/>
</linearGradient>
<linearGradient id="paint8_linear" x1="6488.71" y1="2883.07" x2="6730.82" y2="2883.07" gradientUnits="userSpaceOnUse">
<stop stop-color="#6AAEFF"/>
<stop offset="1" stop-color="#005EFF"/>
</linearGradient>
<linearGradient id="paint9_linear" x1="1960.51" y1="189.254" x2="1978.07" y2="172.421" gradientUnits="userSpaceOnUse">
<stop stop-color="#6AAEFF"/>
<stop offset="1" stop-color="#005EFF"/>
</linearGradient>
<linearGradient id="paint10_linear" x1="2004.28" y1="219.921" x2="2021.64" y2="203.284" gradientUnits="userSpaceOnUse">
<stop stop-color="#6AAEFF"/>
<stop offset="1" stop-color="#005EFF"/>
</linearGradient>
<linearGradient id="paint11_linear" x1="2071.95" y1="232.539" x2="2089.54" y2="215.682" gradientUnits="userSpaceOnUse">
<stop stop-color="#6AAEFF"/>
<stop offset="1" stop-color="#005EFF"/>
</linearGradient>
<linearGradient id="paint12_linear" x1="18193.5" y1="5541.02" x2="19273.4" y2="5541.02" gradientUnits="userSpaceOnUse">
<stop stop-color="#BFD6FF"/>
<stop offset="1" stop-color="#7FA7FF"/>
</linearGradient>
<linearGradient id="paint13_linear" x1="18211" y1="5733.83" x2="19293.3" y2="5733.83" gradientUnits="userSpaceOnUse">
<stop stop-color="#BFD6FF"/>
<stop offset="1" stop-color="#7FA7FF"/>
</linearGradient>
<linearGradient id="paint14_linear" x1="18216.8" y1="5924.16" x2="19298.1" y2="5924.16" gradientUnits="userSpaceOnUse">
<stop stop-color="#BFD6FF"/>
<stop offset="1" stop-color="#7FA7FF"/>
</linearGradient>
<linearGradient id="paint15_linear" x1="9817.12" y1="3407.12" x2="10107.6" y2="3407.12" gradientUnits="userSpaceOnUse">
<stop stop-color="#BFD6FF"/>
<stop offset="1" stop-color="#7FA7FF"/>
</linearGradient>
<linearGradient id="paint16_linear" x1="107.367" y1="159.678" x2="137.367" y2="159.678" gradientUnits="userSpaceOnUse">
<stop stop-color="#E9EFFF"/>
<stop offset="1" stop-color="#D4E3FF"/>
</linearGradient>
<linearGradient id="paint17_linear" x1="3880.9" y1="1118.57" x2="4151.83" y2="1118.57" gradientUnits="userSpaceOnUse">
<stop stop-color="#E9F2FF"/>
<stop offset="0.28" stop-color="#C7DBFF"/>
<stop offset="0.56" stop-color="#ABC8FF"/>
<stop offset="0.81" stop-color="#9ABDFF"/>
<stop offset="1" stop-color="#94B9FF"/>
</linearGradient>
<linearGradient id="paint18_linear" x1="5582.57" y1="1641.55" x2="6156.21" y2="1641.55" gradientUnits="userSpaceOnUse">
<stop stop-color="#E9F2FF"/>
<stop offset="0.28" stop-color="#C7DBFF"/>
<stop offset="0.56" stop-color="#ABC8FF"/>
<stop offset="0.81" stop-color="#9ABDFF"/>
<stop offset="1" stop-color="#94B9FF"/>
</linearGradient>
<linearGradient id="paint19_linear" x1="7286.86" y1="2218.57" x2="8275.84" y2="2218.57" gradientUnits="userSpaceOnUse">
<stop stop-color="#E9F2FF"/>
<stop offset="0.28" stop-color="#C7DBFF"/>
<stop offset="0.56" stop-color="#ABC8FF"/>
<stop offset="0.81" stop-color="#9ABDFF"/>
<stop offset="1" stop-color="#94B9FF"/>
</linearGradient>
<linearGradient id="paint20_linear" x1="3097.9" y1="2849.76" x2="3164.09" y2="2849.76" gradientUnits="userSpaceOnUse">
<stop stop-color="#FF7F83"/>
<stop offset="1" stop-color="#FFD4D5"/>
</linearGradient>
<linearGradient id="paint21_linear" x1="5215.87" y1="3195.78" x2="5463.94" y2="3195.78" gradientUnits="userSpaceOnUse">
<stop stop-color="#6AAEFF"/>
<stop offset="1" stop-color="#005EFF"/>
</linearGradient>
<linearGradient id="paint22_linear" x1="5022.83" y1="3154.47" x2="5270.89" y2="3154.47" gradientUnits="userSpaceOnUse">
<stop stop-color="#6AAEFF"/>
<stop offset="1" stop-color="#005EFF"/>
</linearGradient>
<linearGradient id="paint23_linear" x1="230.219" y1="353.748" x2="242.559" y2="353.748" gradientUnits="userSpaceOnUse">
<stop stop-color="#002255"/>
<stop offset="1" stop-color="#003A7F"/>
</linearGradient>
<linearGradient id="paint24_linear" x1="3946.42" y1="16277.5" x2="4099.06" y2="16277.5" gradientUnits="userSpaceOnUse">
<stop stop-color="#002255"/>
<stop offset="1" stop-color="#003A7F"/>
</linearGradient>
<linearGradient id="paint25_linear" x1="209.548" y1="276.898" x2="228.158" y2="276.898" gradientUnits="userSpaceOnUse">
<stop stop-color="#E9EFFF"/>
<stop offset="0.16" stop-color="#DAE6FF"/>
<stop offset="0.48" stop-color="#C0D6FF"/>
<stop offset="0.77" stop-color="#B0CCFF"/>
<stop offset="1" stop-color="#AAC9FF"/>
</linearGradient>
<linearGradient id="paint26_linear" x1="2976.63" y1="2296.58" x2="3054.07" y2="2296.58" gradientUnits="userSpaceOnUse">
<stop stop-color="#FF7F83"/>
<stop offset="1" stop-color="#FFD4D5"/>
</linearGradient>
<linearGradient id="paint27_linear" x1="3501.42" y1="3398.27" x2="3609.66" y2="3398.27" gradientUnits="userSpaceOnUse">
<stop stop-color="#FF7F83"/>
<stop offset="1" stop-color="#FFD4D5"/>
</linearGradient>
<linearGradient id="paint28_linear" x1="17354.7" y1="22271.3" x2="20700.1" y2="22271.3" gradientUnits="userSpaceOnUse">
<stop stop-color="#E9EFFF"/>
<stop offset="1" stop-color="#D4E3FF"/>
</linearGradient>
<linearGradient id="paint29_linear" x1="2129.03" y1="2089.3" x2="2162.46" y2="2089.3" gradientUnits="userSpaceOnUse">
<stop stop-color="#E9F2FF"/>
<stop offset="0.28" stop-color="#C7DBFF"/>
<stop offset="0.56" stop-color="#ABC8FF"/>
<stop offset="0.81" stop-color="#9ABDFF"/>
<stop offset="1" stop-color="#94B9FF"/>
</linearGradient>
<linearGradient id="paint30_linear" x1="1790.81" y1="1293.92" x2="1812.25" y2="1293.92" gradientUnits="userSpaceOnUse">
<stop stop-color="#E9F2FF"/>
<stop offset="0.28" stop-color="#C7DBFF"/>
<stop offset="0.56" stop-color="#ABC8FF"/>
<stop offset="0.81" stop-color="#9ABDFF"/>
<stop offset="1" stop-color="#94B9FF"/>
</linearGradient>
<linearGradient id="paint31_linear" x1="213.519" y1="297.718" x2="223.489" y2="297.718" gradientUnits="userSpaceOnUse">
<stop stop-color="#BFCCFF"/>
<stop offset="0.54" stop-color="#D4DFFF"/>
<stop offset="1" stop-color="#E9F2FF"/>
</linearGradient>
<linearGradient id="paint32_linear" x1="141.508" y1="294.599" x2="155.808" y2="294.599" gradientUnits="userSpaceOnUse">
<stop stop-color="#E9F2FF"/>
<stop offset="1" stop-color="#D4E3FF"/>
</linearGradient>
<linearGradient id="paint33_linear" x1="1709.37" y1="1534.03" x2="1758.37" y2="1534.03" gradientUnits="userSpaceOnUse">
<stop stop-color="#6AAEFF"/>
<stop offset="1" stop-color="#005EFF"/>
</linearGradient>
<linearGradient id="paint34_linear" x1="1765.37" y1="1534.03" x2="1814.37" y2="1534.03" gradientUnits="userSpaceOnUse">
<stop stop-color="#6AAEFF"/>
<stop offset="1" stop-color="#005EFF"/>
</linearGradient>
<linearGradient id="paint35_linear" x1="373.367" y1="1472.21" x2="374.367" y2="1472.21" gradientUnits="userSpaceOnUse">
<stop stop-color="#6AAEFF"/>
<stop offset="1" stop-color="#005EFF"/>
</linearGradient>
<linearGradient id="paint36_linear" x1="3472.37" y1="2649.04" x2="3668.37" y2="2649.04" gradientUnits="userSpaceOnUse">
<stop stop-color="#6AAEFF"/>
<stop offset="1" stop-color="#005EFF"/>
</linearGradient>
<linearGradient id="paint37_linear" x1="1765.37" y1="1594.51" x2="1814.37" y2="1594.51" gradientUnits="userSpaceOnUse">
<stop stop-color="#6AAEFF"/>
<stop offset="1" stop-color="#005EFF"/>
</linearGradient>
<linearGradient id="paint38_linear" x1="6496.37" y1="4164.11" x2="6012.37" y2="4164.11" gradientUnits="userSpaceOnUse">
<stop stop-color="#E9F2FF"/>
<stop offset="0.28" stop-color="#C7DBFF"/>
<stop offset="0.56" stop-color="#ABC8FF"/>
<stop offset="0.81" stop-color="#9ABDFF"/>
<stop offset="1" stop-color="#94B9FF"/>
</linearGradient>
</defs>
</svg>
