<?xml version="1.0" encoding="UTF-8"?>
<svg xmlns="http://www.w3.org/2000/svg" width="44" height="42" viewBox="0 0 44 42" fill="none">
  <path fill-rule="evenodd" clip-rule="evenodd" d="M42.8883 42H13.2067C12.6064 42 12.1172 41.521 12.1172 40.9331V35.5552C12.1172 34.9673 12.6064 34.4883 13.2067 34.4883H42.9106C43.5109 34.4883 44 34.9673 44 35.5552V40.9331C44 41.521 43.5109 42 42.8883 42ZM42.8883 30.1555H13.2067C12.6064 30.1555 12.1172 29.6765 12.1172 29.0886V24.451L8.98231 21.381C8.75998 21.1633 8.75998 20.8367 8.98231 20.6843L12.095 17.6143V12.9331C12.095 12.3453 12.5841 11.8663 13.1844 11.8663H42.8883C43.4886 11.8663 43.9778 12.3453 43.9778 12.9331V29.0886C44 29.6765 43.5109 30.1555 42.8883 30.1555ZM42.8883 7.53344H13.2067C12.6064 7.53344 12.1172 7.05443 12.1172 6.46656V1.06687C12.1172 0.479005 12.6064 0 13.2067 0H42.9106C43.5109 0 44 0.479005 44 1.06687V6.44479C44 7.05443 43.5109 7.53344 42.8883 7.53344ZM3.84639 42C1.71198 42 0 40.3235 0 38.2333C0 36.1431 1.71198 34.4666 3.84639 34.4666C5.9808 34.4666 7.69277 36.1431 7.69277 38.2333C7.69277 40.3235 6.00303 42 3.84639 42ZM4.95806 33.3997H2.75695V25.8663H4.95806V33.3997ZM3.84639 24.7776C1.71198 24.7776 0 23.1011 0 21.0109C0 18.9207 1.71198 17.2442 3.84639 17.2442C5.9808 17.2442 7.69277 18.9207 7.69277 21.0109C7.69277 23.1011 6.00303 24.7776 3.84639 24.7776ZM4.95806 16.1555H2.75695V8.62208H4.95806V16.1555ZM3.84639 7.53344C1.71198 7.53344 0 5.85692 0 3.76672C0 1.67652 1.71198 0 3.84639 0C5.9808 0 7.69277 1.67652 7.69277 3.76672C7.69277 5.85692 6.00303 7.53344 3.84639 7.53344Z" fill="#000"></path>
</svg>
