<svg width="85" height="32" viewBox="0 0 85 32" fill="none" xmlns="http://www.w3.org/2000/svg">
<path d="M49.3536 16.3539C49.5488 16.1586 49.5488 15.842 49.3536 15.6468L46.1716 12.4648C45.9763 12.2695 45.6597 12.2695 45.4645 12.4648C45.2692 12.66 45.2692 12.9766 45.4645 13.1719L48.2929 16.0003L45.4645 18.8287C45.2692 19.024 45.2692 19.3406 45.4645 19.5358C45.6597 19.7311 45.9763 19.7311 46.1716 19.5358L49.3536 16.3539ZM35 16.5003H49V15.5003H35V16.5003Z" fill="#164600"/>
<path fill-rule="evenodd" clip-rule="evenodd" d="M4.26528 21.0291L0.0190266 9.22182C-0.0419628 9.04988 0.0485762 8.85941 0.220518 8.79659C5.80331 6.78867 12.0942 4.92119 17.4717 2.62665C17.712 2.47506 17.9006 2.62483 18.0041 2.91137L24.6758 20.1084L26.4875 25.1467C26.5484 25.3187 26.4597 25.511 26.2878 25.572L13.5213 30.1629L8.54481 31.9527C8.37287 32.0156 8.18246 31.925 8.11965 31.753L4.26528 21.0291Z" fill="white"/>
<path fill-rule="evenodd" clip-rule="evenodd" d="M7.80544 17.1112L5.68511 4.7455C5.65367 4.5643 5.77572 4.39235 5.95503 4.36091L20.5572 1.85745L23.9013 1.30647C24.0844 1.22696 24.382 1.31938 24.4522 1.72804L28.0644 19.7663L28.9684 25.0432C28.9998 25.2226 28.8778 25.3964 28.6984 25.4278L15.3274 27.7205L10.1143 28.6154C9.93503 28.645 9.76126 28.523 9.72982 28.3436L7.80544 17.1112Z" fill="white"/>
<path fill-rule="evenodd" clip-rule="evenodd" d="M11.8963 13.4652V25.3539C11.8963 25.5443 12.0516 25.7015 12.242 25.7015H17.7601H25.9291H27.103H31.9131C32.1035 25.7015 32.2588 25.5443 32.2588 25.3539V19.7682V4.33882V4.17797H28.7464C28.4082 4.17797 27.7056 4.22604 27.7056 3.45876L27.6982 0.0289307H12.242C12.0515 0.0289307 11.8962 0.184239 11.8962 0.374705V3.34227V4.59771V13.4652H11.8963Z" fill="white"/>
<path fill-rule="evenodd" clip-rule="evenodd" d="M6.03624 6.79596C4.05825 7.46161 2.09871 8.12166 0.220518 8.79651C0.0485762 8.85939 -0.0419628 9.04979 0.0190266 9.22174L4.26528 21.0291L8.11965 31.7529C8.18252 31.9249 8.37293 32.0155 8.54481 31.9526L13.5213 30.1628L24.8607 26.0859L6.03624 6.79596Z" fill="#B5C4CF"/>
<path fill-rule="evenodd" clip-rule="evenodd" d="M11.8965 3.34222L5.95503 4.36096C5.77572 4.3924 5.65367 4.56434 5.68511 4.74555L6.03637 6.796L7.8055 17.1113L9.72988 28.3436C9.76132 28.5229 9.93509 28.6449 10.1144 28.6154L15.3275 27.7205L24.8608 26.086L27.1031 25.7014H25.9293L11.8965 3.34222Z" fill="#D7E7EC"/>
<path fill-rule="evenodd" clip-rule="evenodd" d="M32.2587 19.7682V4.33882V4.17797V4.12435C32.2587 4.02449 32.2162 4.00786 32.0628 3.85809L28.2713 0.241574C28.092 0.0714594 28.0625 0.0289307 27.957 0.0289307H27.6982H12.242C12.0515 0.0289307 11.8962 0.184239 11.8962 0.374705V25.3539C11.8962 25.5443 12.0515 25.7015 12.242 25.7015H31.913C32.1034 25.7015 32.2587 25.5443 32.2587 25.3539V19.7682Z" fill="#EDF3F4"/>
<path fill-rule="evenodd" clip-rule="evenodd" d="M11.8964 3.34222L10.5044 3.58076V26.6315C10.5044 26.8238 10.6597 26.9791 10.8501 26.9791H16.3682H19.6513L24.8607 26.0861L27.1031 25.7015H25.9292H24.4854H17.7602H12.2421C12.0517 25.7015 11.8964 25.5444 11.8964 25.3539C11.8964 18.0172 11.8964 10.6788 11.8964 3.34222Z" fill="#B5C4CF"/>
<path fill-rule="evenodd" clip-rule="evenodd" d="M7.80546 17.1112L6.03632 6.79596C5.55755 6.95681 5.08059 7.11767 4.60547 7.27852L4.82548 8.55986L6.59462 18.8751L8.52088 30.1074C8.55043 30.2867 8.7242 30.4088 8.90352 30.3792L14.1166 29.4844L16.5901 29.061L24.04 26.38L23.9513 26.2414L19.6514 26.9791L15.3275 27.7205L10.1144 28.6154C9.93511 28.645 9.76134 28.523 9.7299 28.3436L7.80546 17.1112Z" fill="#9AAFB7"/>
<path fill-rule="evenodd" clip-rule="evenodd" d="M32.2588 19.7682V4.33882V4.17797C32.2588 3.99122 32.1979 3.98939 32.0629 3.85809L28.2714 0.241574C28.0921 0.0714594 28.0625 0.0289307 27.9571 0.0289307H27.6983H23.8513C28.5523 6.32274 28.8204 17.6678 25.3321 24.7493C25.1712 25.0784 25.003 25.3946 24.8274 25.7015H25.9292H27.103H31.9131C32.1035 25.7015 32.2588 25.5443 32.2588 25.3539V19.7682Z" fill="#D7E7EC"/>
<path fill-rule="evenodd" clip-rule="evenodd" d="M27.7056 3.45864C27.7056 4.22592 28.4081 4.17785 28.7464 4.17785H32.2588V4.12423C32.2588 4.02437 32.2162 4.00773 32.0628 3.85797L28.2713 0.241452C28.092 0.0713373 28.0625 0.0288086 27.9571 0.0288086H27.6982L27.7056 3.45864Z" fill="white"/>
<path fill-rule="evenodd" clip-rule="evenodd" d="M32.0628 3.85809L28.2713 0.241574C28.092 0.0714594 28.0625 0.0289307 27.9571 0.0289307H27.6982L27.7056 3.4587C27.7056 4.22598 28.4081 4.17791 28.7464 4.17791H32.2588V4.12429C32.2588 4.02449 32.2162 4.00786 32.0628 3.85809Z" fill="#B5C4CF"/>
<path d="M29.1347 7.58991H15.2165C14.9477 7.58991 14.7297 7.37191 14.7297 7.10294C14.7297 6.83397 14.9477 6.61597 15.2165 6.61597H29.1347C29.4035 6.61597 29.6215 6.83397 29.6215 7.10294C29.6215 7.37191 29.4036 7.58991 29.1347 7.58991Z" fill="#00ADEE"/>
<path d="M29.1347 11.0492H15.2165C14.9477 11.0492 14.7297 10.8312 14.7297 10.5622C14.7297 10.2933 14.9477 10.0753 15.2165 10.0753H29.1347C29.4035 10.0753 29.6215 10.2933 29.6215 10.5622C29.6215 10.8312 29.4036 11.0492 29.1347 11.0492Z" fill="#00ADEE"/>
<path d="M29.1347 14.5086H15.2165C14.9477 14.5086 14.7297 14.2906 14.7297 14.0216C14.7297 13.7527 14.9477 13.5347 15.2165 13.5347H29.1347C29.4035 13.5347 29.6215 13.7527 29.6215 14.0216C29.6215 14.2906 29.4036 14.5086 29.1347 14.5086Z" fill="#00ADEE"/>
<path d="M29.1347 17.968H15.2165C14.9477 17.968 14.7297 17.75 14.7297 17.481C14.7297 17.212 14.9477 16.994 15.2165 16.994H29.1347C29.4035 16.994 29.6215 17.212 29.6215 17.481C29.6215 17.75 29.4036 17.968 29.1347 17.968Z" fill="#00ADEE"/>
<path d="M29.1347 21.4274H15.2165C14.9477 21.4274 14.7297 21.2094 14.7297 20.9405C14.7297 20.6715 14.9477 20.4535 15.2165 20.4535H29.1347C29.4035 20.4535 29.6215 20.6715 29.6215 20.9405C29.6215 21.2094 29.4036 21.4274 29.1347 21.4274Z" fill="#00ADEE"/>
<path fill-rule="evenodd" clip-rule="evenodd" d="M56.3825 21.0291L52.1362 9.22182C52.0752 9.04988 52.1658 8.85941 52.3377 8.79659C57.9205 6.78867 64.2113 4.92119 69.5889 2.62665C69.8292 2.47506 70.0178 2.62483 70.1213 2.91137L76.793 20.1084L78.6046 25.1467C78.6656 25.3187 78.5769 25.511 78.405 25.572L65.6385 30.1629L60.662 31.9527C60.4901 32.0156 60.2997 31.925 60.2368 31.753L56.3825 21.0291Z" fill="white"/>
<path fill-rule="evenodd" clip-rule="evenodd" d="M59.9226 17.1112L57.8023 4.7455C57.7709 4.5643 57.8929 4.39235 58.0722 4.36091L72.6744 1.85745L76.0185 1.30647C76.2016 1.22696 76.4992 1.31938 76.5694 1.72804L80.1815 19.7663L81.0856 25.0432C81.117 25.2226 80.9949 25.3964 80.8156 25.4278L67.4446 27.7205L62.2315 28.6154C62.0522 28.645 61.8784 28.523 61.847 28.3436L59.9226 17.1112Z" fill="white"/>
<path fill-rule="evenodd" clip-rule="evenodd" d="M64.0135 13.4652V25.3539C64.0135 25.5443 64.1688 25.7015 64.3592 25.7015H69.8773H78.0463H79.2202H84.0303C84.2207 25.7015 84.376 25.5443 84.376 25.3539V19.7682V4.33882V4.17797H80.8636C80.5253 4.17797 79.8228 4.22604 79.8228 3.45876L79.8154 0.0289307H64.3591C64.1687 0.0289307 64.0134 0.184239 64.0134 0.374705V3.34227V4.59771V13.4652H64.0135Z" fill="white"/>
<path fill-rule="evenodd" clip-rule="evenodd" d="M58.1534 6.79596C56.1754 7.46161 54.2159 8.12166 52.3377 8.79651C52.1658 8.85939 52.0752 9.04979 52.1362 9.22174L56.3825 21.0291L60.2368 31.7529C60.2997 31.9249 60.4901 32.0155 60.662 31.9526L65.6385 30.1628L76.9779 26.0859L58.1534 6.79596Z" fill="#B5C4CF"/>
<path fill-rule="evenodd" clip-rule="evenodd" d="M64.0136 3.34222L58.0722 4.36096C57.8929 4.3924 57.7709 4.56434 57.8023 4.74555L58.1536 6.796L59.9227 17.1113L61.8471 28.3436C61.8785 28.5229 62.0523 28.6449 62.2316 28.6154L67.4447 27.7205L76.978 26.086L79.2203 25.7014H78.0465L64.0136 3.34222Z" fill="#D7E7EC"/>
<path fill-rule="evenodd" clip-rule="evenodd" d="M84.3759 19.7682V4.33882V4.17797V4.12435C84.3759 4.02449 84.3334 4.00786 84.18 3.85809L80.3885 0.241574C80.2092 0.0714594 80.1796 0.0289307 80.0742 0.0289307H79.8154H64.3591C64.1687 0.0289307 64.0134 0.184239 64.0134 0.374705V25.3539C64.0134 25.5443 64.1687 25.7015 64.3591 25.7015H84.0302C84.2206 25.7015 84.3759 25.5443 84.3759 25.3539V19.7682Z" fill="#EDF3F4"/>
<path fill-rule="evenodd" clip-rule="evenodd" d="M64.0136 3.34222L62.6216 3.58076V26.6315C62.6216 26.8238 62.7769 26.9791 62.9673 26.9791H68.4854H71.7685L76.9779 26.0861L79.2203 25.7015H78.0464H76.6026H69.8774H64.3593C64.1689 25.7015 64.0136 25.5444 64.0136 25.3539C64.0136 18.0172 64.0136 10.6788 64.0136 3.34222Z" fill="#B5C4CF"/>
<path fill-rule="evenodd" clip-rule="evenodd" d="M59.9226 17.1112L58.1535 6.79596C57.6747 6.95681 57.1978 7.11767 56.7227 7.27852L56.9427 8.55986L58.7118 18.8751L60.6381 30.1074C60.6676 30.2867 60.8414 30.4088 61.0207 30.3792L66.2338 29.4844L68.7073 29.061L76.1572 26.38L76.0684 26.2414L71.7686 26.9791L67.4447 27.7205L62.2316 28.6154C62.0523 28.645 61.8785 28.523 61.8471 28.3436L59.9226 17.1112Z" fill="#9AAFB7"/>
<path fill-rule="evenodd" clip-rule="evenodd" d="M84.376 19.7682V4.33882V4.17797C84.376 3.99122 84.315 3.98939 84.1801 3.85809L80.3886 0.241574C80.2093 0.0714594 80.1797 0.0289307 80.0743 0.0289307H79.8155H75.9685C80.6695 6.32274 80.9376 17.6678 77.4493 24.7493C77.2884 25.0784 77.1202 25.3946 76.9446 25.7015H78.0464H79.2202H84.0303C84.2207 25.7015 84.376 25.5443 84.376 25.3539V19.7682Z" fill="#D7E7EC"/>
<path fill-rule="evenodd" clip-rule="evenodd" d="M79.8228 3.45864C79.8228 4.22592 80.5252 4.17785 80.8636 4.17785H84.376V4.12423C84.376 4.02437 84.3334 4.00773 84.18 3.85797L80.3885 0.241452C80.2092 0.0713373 80.1797 0.0288086 80.0743 0.0288086H79.8154L79.8228 3.45864Z" fill="white"/>
<path fill-rule="evenodd" clip-rule="evenodd" d="M84.18 3.85809L80.3885 0.241574C80.2092 0.0714594 80.1797 0.0289307 80.0743 0.0289307H79.8154L79.8228 3.4587C79.8228 4.22598 80.5252 4.17791 80.8636 4.17791H84.376V4.12429C84.376 4.02449 84.3334 4.00786 84.18 3.85809Z" fill="#B5C4CF"/>
<path d="M81.2519 7.58991H67.3337C67.0649 7.58991 66.8469 7.37191 66.8469 7.10294C66.8469 6.83397 67.0649 6.61597 67.3337 6.61597H81.2519C81.5207 6.61597 81.7387 6.83397 81.7387 7.10294C81.7387 7.37191 81.5208 7.58991 81.2519 7.58991Z" fill="#00ADEE"/>
<path d="M81.2519 11.0492H67.3337C67.0649 11.0492 66.8469 10.8312 66.8469 10.5622C66.8469 10.2933 67.0649 10.0753 67.3337 10.0753H81.2519C81.5207 10.0753 81.7387 10.2933 81.7387 10.5622C81.7387 10.8312 81.5208 11.0492 81.2519 11.0492Z" fill="#00ADEE"/>
<path d="M81.2519 14.5086H67.3337C67.0649 14.5086 66.8469 14.2906 66.8469 14.0216C66.8469 13.7527 67.0649 13.5347 67.3337 13.5347H81.2519C81.5207 13.5347 81.7387 13.7527 81.7387 14.0216C81.7387 14.2906 81.5208 14.5086 81.2519 14.5086Z" fill="#00ADEE"/>
<path d="M81.2519 17.968H67.3337C67.0649 17.968 66.8469 17.75 66.8469 17.481C66.8469 17.212 67.0649 16.994 67.3337 16.994H81.2519C81.5207 16.994 81.7387 17.212 81.7387 17.481C81.7387 17.75 81.5208 17.968 81.2519 17.968Z" fill="#00ADEE"/>
<path d="M81.2519 21.4274H67.3337C67.0649 21.4274 66.8469 21.2094 66.8469 20.9405C66.8469 20.6715 67.0649 20.4535 67.3337 20.4535H81.2519C81.5207 20.4535 81.7387 20.6715 81.7387 20.9405C81.7387 21.2094 81.5208 21.4274 81.2519 21.4274Z" fill="#00ADEE"/>
</svg>
