<svg width="18" height="18" viewBox="0 0 18 18" fill="none" xmlns="http://www.w3.org/2000/svg">
<path d="M9 1.5C4.85775 1.5 1.5 4.85775 1.5 9C1.5 13.1423 4.85775 16.5 9 16.5C13.1423 16.5 16.5 13.1423 16.5 9C16.5 4.85775 13.1423 1.5 9 1.5ZM13.2803 7.28025L8.03025 12.5303C7.884 12.6765 7.692 12.75 7.5 12.75C7.308 12.75 7.116 12.6765 6.96975 12.5303L4.71975 10.2802C4.4265 9.987 4.4265 9.513 4.71975 9.21975C5.013 8.9265 5.487 8.9265 5.78025 9.21975L7.5 10.9395L12.2197 6.21975C12.513 5.9265 12.987 5.9265 13.2803 6.21975C13.5735 6.513 13.5735 6.987 13.2803 7.28025Z" fill="#0051D3"/>
</svg>
