<?xml version="1.0" encoding="utf-8"?>
<!-- Generator: Adobe Illustrator 25.0.1, SVG Export Plug-In . SVG Version: 6.00 Build 0)  -->
<svg version="1.1" id="Layer_1" xmlns="http://www.w3.org/2000/svg" xmlns:xlink="http://www.w3.org/1999/xlink" x="0px" y="0px"
	 viewBox="0 0 300 300" style="enable-background:new 0 0 300 300;" xml:space="preserve">
<style type="text/css">
	.st0{fill:#2BAEE4;}
</style>
<g>
	<path class="st0" d="M154.1,224.6c-29.59,0-59.17,0.04-88.76-0.02c-15.5-0.03-29.05-4.95-39.83-16.01
		c-16.66-17.09-15.42-43.16,2.63-58.97c5.3-4.64,11.27-8.14,18.03-10.34c1.23-0.4,1.77-0.9,1.83-2.27
		c1.24-29.42,22.94-54.23,52.88-60.15c23.97-4.75,45.22,0.79,63.4,16.86c1.71,1.51,3.27,3.21,4.74,4.95c0.86,1.01,1.59,1.1,2.87,0.8
		c21.72-5.14,40.74-0.63,56.41,15.27c5.56,5.64,9.19,12.44,11.3,19.97c0.33,1.19,0.71,1.69,2.1,1.62
		c17.28-0.84,32.86,8.03,40.19,23.35c7.94,16.59,6.9,32.83-4.06,47.83c-8.66,11.86-20.89,17.46-35.96,17.09
		c-6.7-0.16-13.4-0.06-20.1-0.06c-22.56,0-45.11,0-67.66,0C154.1,224.54,154.1,224.57,154.1,224.6z M59.53,147.06
		c-1.41,0.31-2.63,0.59-3.85,0.84c-7.48,1.54-14.16,4.58-19.88,9.61c-14.14,12.45-14.55,32.1-0.83,44.86
		c8.6,8.01,19.07,11.36,30.81,11.36c43.25-0.01,86.5-0.04,129.75-0.05c16.18,0,32.37,0.05,48.55,0.03
		c6.86-0.01,13.05-2.08,18.43-6.23c13.39-10.33,17.12-29.38,8.79-44.11c-6.89-12.17-20.85-19.41-35.86-15.07
		c-1.52,0.44-3.07,0.77-4.93,1.24c-0.37-15.8-7.1-28.08-21.3-35.76c-14.06-7.61-28.54-7.16-43-0.74c-1.73-2.28-3.29-4.53-5.06-6.6
		c-19.41-22.8-54.7-27.18-79.31-9.73c-12.53,8.88-20.42,20.7-22.23,35.86C59.05,137.26,59.53,142.08,59.53,147.06z"/>
	<path class="st0" d="M75.97,143.83c-1.75,0.28-3.42,0.55-5.08,0.81c-3.72-14.1,8.53-38.12,23.72-46.6
		c0.99,1.33,1.99,2.68,3.11,4.19C83.57,112.58,75.11,125.75,75.97,143.83z"/>
	<path class="st0" d="M264.65,171.14c1.14-0.48,2.22-0.93,3.29-1.38c4.95,8.77,0.8,26.78-8.01,34.94c-0.9-0.72-1.81-1.45-2.83-2.27
		C264.9,193.19,268.35,183.02,264.65,171.14z"/>
</g>
</svg>
