<?xml version="1.0" encoding="utf-8"?>
<!-- Generator: Adobe Illustrator 25.0.1, SVG Export Plug-In . SVG Version: 6.00 Build 0)  -->
<svg version="1.1" id="Layer_1" xmlns="http://www.w3.org/2000/svg" xmlns:xlink="http://www.w3.org/1999/xlink" x="0px" y="0px"
	 viewBox="0 0 300 300" style="enable-background:new 0 0 300 300;" xml:space="preserve">
<style type="text/css">
	.st0{clip-path:url(#SVGID_3_);}
	.st1{clip-path:url(#SVGID_4_);}
	.st2{clip-path:url(#SVGID_6_);fill:#2BAEE4;}
</style>
<g>
	<g>
		<defs>
			<polygon id="SVGID_1_" points="44.99,251.95 255.42,251.95 255.42,47.31 44.99,47.31 44.99,251.95 			"/>
		</defs>
		<defs>
			<polygon id="SVGID_2_" points="44.99,47.31 255.42,47.31 255.42,251.95 44.99,251.95 44.99,47.31 			"/>
		</defs>
		<clipPath id="SVGID_3_">
			<use xlink:href="#SVGID_1_"  style="overflow:visible;"/>
		</clipPath>
		<clipPath id="SVGID_4_" class="st0">
			<use xlink:href="#SVGID_2_"  style="overflow:visible;"/>
		</clipPath>
		<g class="st1">
			<defs>
				<polygon id="SVGID_5_" points="44.99,251.95 255.42,251.95 255.42,47.31 44.99,47.31 44.99,251.95 				"/>
			</defs>
			<clipPath id="SVGID_6_">
				<use xlink:href="#SVGID_5_"  style="overflow:visible;"/>
			</clipPath>
			<path class="st2" d="M150.38,206.43c-24.32,0-47.2-1.83-64.47-5.22c-18.5-3.63-27.89-8.33-27.89-14.08
				c0-4.51,5.95-7.3,11.77-9.41c0.86-0.32,1.8,0.12,2.09,0.92c0.33,0.84-0.12,1.75-0.94,2.03c-6.48,2.35-9.64,4.47-9.64,6.42
				c0,2.91,6.64,7.34,25.26,10.97c17.02,3.31,39.7,5.14,63.81,5.14s46.79-1.83,63.81-5.14c18.62-3.63,25.26-8.06,25.26-10.97
				c0-2.11-2.95-4.07-9.88-6.46c-0.86-0.28-1.31-1.2-0.98-2.03c0.29-0.84,1.23-1.28,2.09-0.96c7.26,2.51,12.1,5.06,12.1,9.45
				c0,5.74-9.39,10.49-27.89,14.08C197.58,204.56,174.7,206.43,150.38,206.43L150.38,206.43z"/>
			<path class="st2" d="M150.38,248.26c-24.32,0-47.2-1.83-64.47-5.22c-18.5-3.63-27.89-8.33-27.89-14.08v-41.87h3.28v41.83
				c0,2.91,6.64,7.34,25.26,10.97c17.02,3.31,39.7,5.14,63.81,5.14s46.79-1.83,63.81-5.14c18.62-3.63,25.26-8.06,25.26-10.97v-41.83
				h3.28v41.83c0,5.74-9.39,10.49-27.89,14.08C197.58,246.39,174.7,248.26,150.38,248.26L150.38,248.26z"/>
			<path class="st2" d="M150.38,148.17c-24.32,0-47.2-1.83-64.47-5.22c-18.5-3.63-27.89-8.33-27.89-14.08
				c0-4.63,5.74-7.38,11.36-9.41c0.86-0.32,1.8,0.12,2.09,0.92c0.33,0.84-0.12,1.75-0.94,2.03c-6.19,2.27-9.23,4.35-9.23,6.42
				c0,2.91,6.64,7.34,25.26,10.97c17.02,3.31,39.7,5.14,63.81,5.14s46.79-1.83,63.81-5.14c18.62-3.63,25.26-8.06,25.26-10.97
				c0-1.95-3.16-4.07-9.64-6.42c-0.86-0.32-1.27-1.24-0.94-2.03c0.33-0.84,1.27-1.24,2.09-0.92c5.82,2.11,11.77,4.91,11.77,9.41
				c0,5.74-9.39,10.49-27.89,14.08C197.58,146.29,174.7,148.17,150.38,148.17L150.38,148.17z"/>
			<path class="st2" d="M150.38,190c-24.32,0-47.2-1.83-64.47-5.22c-18.5-3.63-27.89-8.33-27.89-14.08v-41.87
				c0-0.88,0.74-1.6,1.64-1.6s1.64,0.72,1.64,1.6v41.83c0,2.91,6.64,7.34,25.26,10.97c17.02,3.31,39.7,5.14,63.81,5.14
				s46.79-1.83,63.81-5.14c18.62-3.63,25.26-8.06,25.26-10.97v-41.83c0-0.88,0.74-1.6,1.64-1.6c0.9,0,1.64,0.72,1.64,1.6v41.83
				c0,5.74-9.39,10.49-27.89,14.08C197.58,188.13,174.7,190,150.38,190L150.38,190z"/>
			<path class="st2" d="M150.38,89.98c-24.32,0-47.2-1.83-64.47-5.22c-18.5-3.63-27.89-8.33-27.89-14.08
				c0-5.74,9.39-10.49,27.89-14.08c17.22-3.35,40.11-5.22,64.47-5.22c24.32,0,47.2,1.83,64.47,5.22
				c18.5,3.63,27.89,8.33,27.89,14.08c0,5.74-9.39,10.49-27.89,14.08C197.58,88.11,174.7,89.98,150.38,89.98L150.38,89.98z
				 M150.38,54.53c-24.11,0-46.79,1.83-63.81,5.14c-18.62,3.67-25.26,8.06-25.26,10.97c0,2.91,6.64,7.34,25.26,10.97
				c17.02,3.35,39.7,5.18,63.81,5.18s46.79-1.83,63.81-5.14c18.62-3.63,25.26-8.06,25.26-10.97c0-2.91-6.64-7.34-25.26-10.97
				C197.17,56.37,174.49,54.53,150.38,54.53L150.38,54.53z"/>
			<path class="st2" d="M150.38,131.82c-24.32,0-47.2-1.83-64.47-5.22c-18.5-3.63-27.89-8.33-27.89-14.08V70.64
				c0-0.88,0.74-1.6,1.64-1.6s1.64,0.72,1.64,1.6v41.83c0,2.91,6.64,7.34,25.26,10.97c17.02,3.31,39.7,5.14,63.81,5.14
				s46.79-1.83,63.81-5.14c18.62-3.63,25.26-8.06,25.26-10.97V70.64c0-0.88,0.74-1.6,1.64-1.6c0.9,0,1.64,0.72,1.64,1.6v41.83
				c0,5.74-9.39,10.49-27.89,14.08C197.58,129.94,174.7,131.82,150.38,131.82L150.38,131.82z"/>
			<path class="st2" d="M65.53,229.8l0.04-30.71l11.11,3.51c4.18,1.16,8.45,2.07,12.75,2.67l10.95,1.6l-0.04,32.3l-11.32-1.83
				c-4.68-0.76-9.27-1.87-13.7-3.39L65.53,229.8L65.53,229.8L65.53,229.8z"/>
			<path class="st2" d="M65.53,171.18l0.04-30.71l11.11,3.51c4.18,1.16,8.45,2.07,12.75,2.67l10.95,1.6l-0.04,32.3l-11.32-1.83
				c-4.68-0.76-9.27-1.87-13.7-3.39L65.53,171.18L65.53,171.18L65.53,171.18z"/>
			<path class="st2" d="M65.53,112.95l0.04-30.71l11.11,3.51c4.18,1.16,8.45,2.07,12.75,2.67l10.95,1.6l-0.04,32.3l-11.32-1.83
				c-4.68-0.76-9.27-1.87-13.7-3.39L65.53,112.95L65.53,112.95L65.53,112.95z"/>
			<path class="st2" d="M123.03,104.18V92.1c-9.84-0.52-17.35-1.08-17.35-1.08v12.08C109.54,103.34,115.81,103.78,123.03,104.18
				L123.03,104.18z"/>
			<path class="st2" d="M105.68,109.53v13.04c0,0,6.68,1.12,17.35,2.03v-13.76C115.36,110.4,109.37,109.88,105.68,109.53
				L105.68,109.53z"/>
			<path class="st2" d="M196.43,103.5V90.38c0,0-6.64,0.8-17.35,1.52v12.68C186.14,104.26,192.05,103.86,196.43,103.5L196.43,103.5z
				"/>
			<path class="st2" d="M179.13,111.12v13.28c10.79-0.92,17.35-2.07,17.35-2.07v-12.36C192.05,110.32,186.18,110.76,179.13,111.12
				L179.13,111.12z"/>
			<path class="st2" d="M147.22,105.1V92.98c-5.37-0.08-11.11-0.28-16.57-0.52v12.08C136.11,104.82,141.81,105.02,147.22,105.1
				L147.22,105.1z"/>
			<path class="st2" d="M130.66,111.24v13.96c5.04,0.32,10.62,0.56,16.57,0.64v-14.12C141.32,111.64,135.74,111.44,130.66,111.24
				L130.66,111.24z"/>
			<path class="st2" d="M171.46,104.86V92.3c-5,0.24-10.58,0.4-16.57,0.44v12.4C160.76,105.14,166.33,105.06,171.46,104.86
				L171.46,104.86z"/>
			<path class="st2" d="M154.89,111.72v13.84c6.03-0.08,11.61-0.32,16.57-0.6V111.4C166.33,111.6,160.8,111.72,154.89,111.72
				L154.89,111.72z"/>
			<path class="st2" d="M122.33,162.52v-12.08c-9.84-0.52-17.35-1.08-17.35-1.08v12.08C108.84,161.69,115.11,162.12,122.33,162.52
				L122.33,162.52z"/>
			<path class="st2" d="M104.98,167.83v13.04c0,0,6.68,1.12,17.35,2.03v-13.76C114.7,168.7,108.67,168.19,104.98,167.83
				L104.98,167.83z"/>
			<path class="st2" d="M195.78,161.85v-13.12c0,0-6.64,0.8-17.35,1.52v12.68C185.44,162.6,191.35,162.16,195.78,161.85
				L195.78,161.85z"/>
			<path class="st2" d="M178.43,169.46v13.28c10.79-0.92,17.35-2.07,17.35-2.07v-12.36C191.39,168.66,185.49,169.1,178.43,169.46
				L178.43,169.46z"/>
			<path class="st2" d="M146.57,163.44v-12.12c-5.37-0.08-11.11-0.28-16.57-0.52v12.08C135.45,163.16,141.15,163.36,146.57,163.44
				L146.57,163.44z"/>
			<path class="st2" d="M130,169.54v13.96c5.04,0.32,10.62,0.56,16.57,0.64v-14.12C140.62,169.94,135.08,169.78,130,169.54
				L130,169.54z"/>
			<path class="st2" d="M170.76,163.2v-12.56c-5,0.24-10.58,0.4-16.57,0.44v12.4C160.1,163.48,165.64,163.36,170.76,163.2
				L170.76,163.2z"/>
			<path class="st2" d="M154.19,170.06v13.84c6.03-0.08,11.61-0.32,16.57-0.6v-13.56C165.68,169.94,160.1,170.06,154.19,170.06
				L154.19,170.06z"/>
			<path class="st2" d="M122.33,220.59V208.5c-9.84-0.52-17.35-1.08-17.35-1.08v12.08C108.84,219.75,115.11,220.19,122.33,220.59
				L122.33,220.59z"/>
			<path class="st2" d="M104.98,225.89v13.04c0,0,6.68,1.12,17.35,2.03v-13.76C114.7,226.77,108.67,226.25,104.98,225.89
				L104.98,225.89z"/>
			<path class="st2" d="M195.78,219.91v-13.12c0,0-6.64,0.8-17.35,1.52v12.68C185.44,220.63,191.35,220.23,195.78,219.91
				L195.78,219.91z"/>
			<path class="st2" d="M178.43,227.49v13.28c10.79-0.92,17.35-2.07,17.35-2.07v-12.36C191.39,226.73,185.49,227.17,178.43,227.49
				L178.43,227.49z"/>
			<path class="st2" d="M146.57,221.5v-12.12c-5.37-0.08-11.11-0.28-16.57-0.52v12.08C135.45,221.22,141.15,221.42,146.57,221.5
				L146.57,221.5z"/>
			<path class="st2" d="M130,227.61v13.96c5.04,0.32,10.62,0.56,16.57,0.64v-14.12C140.62,228,135.08,227.84,130,227.61L130,227.61z
				"/>
			<path class="st2" d="M170.76,221.26V208.7c-5,0.24-10.58,0.4-16.57,0.44v12.4C160.1,221.54,165.64,221.42,170.76,221.26
				L170.76,221.26z"/>
			<path class="st2" d="M154.19,228.12v13.84c6.03-0.08,11.61-0.32,16.57-0.6V227.8C165.68,228,160.1,228.12,154.19,228.12
				L154.19,228.12z"/>
		</g>
	</g>
</g>
</svg>
