<?xml version="1.0" encoding="utf-8"?>
<!-- Generator: Adobe Illustrator 25.0.1, SVG Export Plug-In . SVG Version: 6.00 Build 0)  -->
<svg version="1.1" id="Layer_1" xmlns="http://www.w3.org/2000/svg" xmlns:xlink="http://www.w3.org/1999/xlink" x="0px" y="0px"
	 viewBox="0 0 300 300" style="enable-background:new 0 0 300 300;" xml:space="preserve">
<style type="text/css">
	.st0{fill:none;stroke:#2BAEE4;stroke-width:3;stroke-miterlimit:10;stroke-dasharray:7.8899,7.8899;}
	.st1{fill-rule:evenodd;clip-rule:evenodd;fill:none;stroke:#2BAEE4;stroke-width:3;stroke-miterlimit:10;}
	.st2{fill:#FFFFFF;}
	.st3{fill:#2BAEE4;}
	.st4{fill-rule:evenodd;clip-rule:evenodd;fill:none;stroke:#2BAEE4;stroke-width:3;stroke-miterlimit:10;stroke-dasharray:7.8807;}
	.st5{fill-rule:evenodd;clip-rule:evenodd;fill:#FFFFFF;}
</style>
<g>
	<g>
		<circle class="st0" cx="134" cy="155.1" r="95.43"/>
	</g>
	<circle class="st1" cx="134" cy="155.1" r="84.71"/>
	<circle class="st1" cx="134" cy="155.1" r="102.42"/>
	<circle class="st2" cx="68.75" cy="89.84" r="31.37"/>
	<circle class="st2" cx="50.94" cy="198.32" r="31.37"/>
	<circle class="st2" cx="143.39" cy="233.86" r="31.37"/>
	<circle class="st2" cx="226.77" cy="159.52" r="31.37"/>
	<circle class="st2" cx="166.07" cy="63.92" r="29.15"/>
	<g>
		<path class="st3" d="M83.54,80.5c-1.48-1.49-4.4-0.87-6.29-0.4c-1.23-1.31-2.63-2.47-4.11-3.34c-3.69-2.17-8.81-2.73-13.01-2.3
			c-2.22,0.23-3.76,1.35-4.95,2.87c-3.55,3.48-4.67,8.6-4.48,13.6c-1.78,1.42-4.5,3.69-4.55,6.05c-0.04,1.94,1.97,2.69,3.63,2.89
			c0.84,0.1,1.69,0.07,2.54-0.04c0.91,2.59,2.31,4.96,4.69,6.52c3,1.97,6.7,2.49,10.21,2.03c6.84-0.89,14.03-4.82,14.88-12.22
			c0.33-2.86,0.3-5.91-0.49-8.71c0.71-0.54,1.34-1.14,1.8-1.81C84.27,84.42,84.72,81.68,83.54,80.5z M80.11,83.26
			c-0.04,0.14-0.09,0.28-0.16,0.42c-0.52-0.88-1.13-1.74-1.8-2.55C79.28,81.13,80.62,81.41,80.11,83.26z M53.12,81.05
			c0.19-0.3,0.39-0.59,0.59-0.87c0.72-1.02,1.52-1.97,2.37-2.88c1.01-1.08,2.29-1.97,3.78-2.22c0.75-0.13,1.55-0.05,2.31-0.04
			c0.82,0.01,1.65,0.02,2.47,0.07c2.02,0.12,4.03,0.46,5.92,1.17c2.3,0.86,4.33,2.35,6.04,4.14c-0.07,0.21,0.1,0.49,0.39,0.42
			c-0.06,0.15,0.01,0.35,0.22,0.34c0.02,0,0.05,0,0.07,0c0.59,0.68,1.14,1.39,1.63,2.12c0.23,0.34,0.44,0.69,0.64,1.04
			c-0.44,0.57-1.04,1.05-1.57,1.43c-1.1,0.78-2.28,1.47-3.45,2.14c-2.56,1.48-5.22,2.78-7.96,3.89c-2.65,1.07-5.36,1.94-8.12,2.69
			c-1.31,0.36-2.63,0.69-3.95,1.02c-0.39,0.1-0.78,0.2-1.18,0.29c-0.56,0.18-1.06,0.15-1.5-0.07c-0.25-1.25-0.43-2.54-0.52-3.84
			c0.13-0.1,0.26-0.2,0.37-0.29c0.27-0.22-0.1-0.7-0.38-0.49c-0.01,0.01-0.03,0.02-0.04,0.03c0-0.01,0-0.01,0-0.02
			c0.04-0.03,0.08-0.07,0.11-0.1c0.16-0.14,0.04-0.34-0.13-0.37c-0.03-1.12,0-2.24,0.12-3.36c0.16-1.56,0.48-3.11,1.02-4.59
			c0.15-0.41,0.26-0.85,0.49-1.23C52.95,81.31,53.04,81.18,53.12,81.05z M50.79,92.29c0.08,0.98,0.2,1.94,0.36,2.88
			c-0.41-0.47-0.76-1.15-1.04-2.07C50.25,92.81,50.51,92.54,50.79,92.29z M50.51,99.35c-1.73-0.05-3.7-0.67-3.72-2.8
			c-0.01-1.68,2.22-3.58,3.76-4.87c-0.85,0.75-1.62,1.68-1.47,2.87c0.15,1.22,1.19,1.93,2.34,2.07c0.01,0,0.01,0,0.02,0
			c0.08,0.38,0.16,0.75,0.26,1.12c0.13,0.51,0.27,1.01,0.43,1.5C51.58,99.33,51.05,99.37,50.51,99.35z M52.54,98.65
			c-0.19-0.64-0.36-1.31-0.52-1.99c2.14,0.03,4.64-1.04,6.6-1.58c2.75-0.76,5.47-1.64,8.11-2.71c4.18-1.7,8.94-3.78,12.39-6.75
			c0.24-0.2,0.48-0.46,0.72-0.75c0.39,0.76,0.71,1.54,0.96,2.33c-0.65,0.46-1.35,0.88-2.03,1.29c-3.7,2.23-7.68,4.02-11.65,5.72
			c-4.24,1.82-8.57,3.57-13.06,4.66c-0.45,0.11-0.9,0.21-1.36,0.29C52.65,98.99,52.59,98.83,52.54,98.65z M81.63,93.43
			c-0.03,3.45-0.6,6.84-3.21,9.33c-2.39,2.28-5.72,3.76-8.88,4.57c-3.23,0.83-6.73,0.93-9.89-0.27c-3.47-1.32-5.54-3.99-6.74-7.3
			c1.62-0.28,3.23-0.82,4.72-1.29c3.34-1.05,6.58-2.37,9.8-3.74c3.18-1.36,6.33-2.8,9.37-4.43c1.27-0.68,2.84-1.45,4.21-2.39
			C81.47,89.67,81.64,91.51,81.63,93.43z M81.39,86.76c-0.19-0.56-0.41-1.12-0.67-1.65c-0.14-0.28-0.29-0.57-0.44-0.85
			c0.51-0.84,0.81-1.83,0.44-2.68c-0.44-1.02-1.71-1.05-2.77-0.98c2.34-0.5,5.6-0.83,5.56,2.21C83.49,84.57,82.59,85.78,81.39,86.76
			z"/>
		<path class="st3" d="M76.32,100.56c-3.3,3.8-8.14,4.63-12.94,4.83c-0.29,0.01-0.29,0.46,0,0.45c4.87-0.14,10.04-0.93,13.3-4.92
			C76.89,100.67,76.54,100.31,76.32,100.56z"/>
		<path class="st3" d="M70.54,78.28c-4.39-1.5-9.58-2.69-13.42,0.68c-0.21,0.19,0.09,0.47,0.3,0.3c3.88-3.09,8.68-1.79,12.98-0.5
			C70.72,78.85,70.84,78.38,70.54,78.28z"/>
	</g>
	<g>
		<path class="st3" d="M188.98,69.59c-0.27-0.1-0.61-0.05-0.89-0.05c-0.47,0-0.93,0.01-1.4,0.01c-0.21,0-0.3,0.19-0.28,0.36
			c-0.09,0.09-0.12,0.23-0.03,0.37c0.07,0.11,0.13,0.22,0.2,0.32c0.01,0.03,0.03,0.07,0.04,0.1c-1.27,0.4-2.53,0.79-3.8,1.18
			c-0.09-0.34-0.19-0.68-0.31-1.01c-0.13-0.36-0.67-0.18-0.56,0.18c0.11,0.34,0.19,0.68,0.25,1.02c-1.51,0.46-3.02,0.91-4.53,1.35
			c-0.08-0.18-0.17-0.36-0.25-0.54c-0.14-0.31-0.63-0.16-0.51,0.17c0.06,0.18,0.13,0.36,0.19,0.54c-1.74,0.51-3.49,1.01-5.23,1.51
			c-0.06-0.23-0.11-0.47-0.12-0.73c-0.03-0.38-0.6-0.34-0.59,0.03c0.01,0.28,0.05,0.58,0.11,0.87c-2.53,0.71-5.06,1.41-7.6,2.08
			c-0.06-0.18-0.13-0.35-0.19-0.53c-0.11-0.36-0.66-0.18-0.56,0.18c0.05,0.17,0.1,0.34,0.15,0.5c-2.02,0.53-4.04,1.05-6.06,1.56
			c-0.07-0.18-0.12-0.37-0.13-0.59c-0.03-0.4-0.65-0.37-0.63,0.04c0.01,0.23,0.05,0.48,0.12,0.72c-1.56,0.39-3.13,0.77-4.7,1.14
			c-1.38-8.95-3.68-17.83-6.3-26.49c0.14-0.09,0.22-0.29,0.13-0.43c0.11-0.05,0.22-0.1,0.32-0.15c0.2-0.1,0.19-0.46-0.03-0.54
			c-0.72-0.27-1.34-0.69-1.83-1.29c-0.13-0.17-0.47-0.23-0.56,0.03c-0.2,0.53-0.37,1.08-0.48,1.64c-0.07,0.35-0.26,0.91,0.02,1.21
			c0.25,0.27,0.67,0.17,0.98,0.1c0.32-0.07,0.64-0.17,0.94-0.31c2.52,8.71,4.4,17.51,6.2,26.4c-0.02,0-0.04,0.01-0.06,0.01
			c-0.34,0.08-0.17,0.59,0.17,0.52c0.03-0.01,0.05-0.01,0.08-0.02c0.14,0.08,0.35,0.04,0.44-0.1c1.64-0.36,3.28-0.74,4.92-1.12
			c0.14,0.25,0.31,0.47,0.53,0.64c0.26,0.2,0.72-0.11,0.47-0.4c-0.11-0.14-0.22-0.27-0.31-0.41c2-0.47,3.99-0.97,5.98-1.47
			c0.14,0.37,0.29,0.74,0.47,1.09c0.16,0.3,0.67,0.06,0.54-0.26c-0.14-0.33-0.27-0.66-0.4-0.99c2.53-0.65,5.06-1.34,7.58-2.04
			c0.13,0.33,0.29,0.65,0.51,0.92c0.24,0.3,0.7,0.01,0.5-0.32c-0.15-0.26-0.28-0.51-0.39-0.77c1.75-0.49,3.5-1,5.24-1.52
			c0.07,0.18,0.15,0.36,0.24,0.53c0.16,0.31,0.62,0.06,0.53-0.25c-0.04-0.15-0.1-0.31-0.16-0.46c1.45-0.44,2.91-0.88,4.35-1.33
			c0.06,0.5,0.1,1,0.13,1.52c0.02,0.34,0.59,0.41,0.62,0.05c0.05-0.59,0.01-1.19-0.1-1.77c1.32-0.42,2.64-0.84,3.95-1.27
			c0,0,0,0.01,0.01,0.01c0,0,0,0.01,0,0.01c0.16,0.53,0.46,1.12,1.1,1.12c0.66,0,0.86-0.7,1.03-1.21
			C189.21,70.75,189.62,69.84,188.98,69.59z"/>
		<path class="st3" d="M178.6,49.84c-0.24-0.78-0.44-1.61-0.74-2.38c-0.14-0.36-0.34-0.7-0.78-0.68c-0.45,0.02-0.78,0.5-1.06,0.79
			c-0.14,0.14-0.28,0.27-0.42,0.4c-0.31,0.17-0.62,0.34-0.93,0.51c-0.1,0.05-0.15,0.15-0.16,0.24c-0.18,0.08-0.36,0.15-0.56,0.2
			c-0.36,0.09-0.25,0.71,0.12,0.65c0.21-0.04,0.41-0.07,0.62-0.09c0.39,0.08,0.77,0.17,1.16,0.26c-1.35,2.93-1.88,6.24-3.66,8.96
			c-1.44,2.19-3.72,3.64-6.33,3.94c-1.7,0.2-3.42-0.13-5.12,0.17c-6.08,1.1-9.2,7.48-7,13.06c0.13,0.33,0.65,0.16,0.53-0.17
			c-1.58-4.18-0.26-8.92,3.73-11.2c3.24-1.85,6.73-0.5,10.08-1.69c5.61-2,6.3-8.11,8.46-12.91c0.56,0.12,1.12,0.25,1.68,0.37
			C178.47,50.31,178.67,50.07,178.6,49.84z"/>
	</g>
	<path class="st3" d="M99.45,174.17c-2.03-3.93-3.72-8.02-5.73-11.95c-1.89-3.67-4.16-7.69-5.59-11.63c0.1-0.09,0.2-0.18,0.29-0.29
		c0.72-0.86,0.39-2.42-0.73-2.83c-0.7-0.25-1.48,0.2-2.09,0.47c-1.43,0.62-2.85,1.25-4.28,1.87c-1.19,0.52-3.38,1.24-2.37,2.91
		c0.08,0.13,0.18,0.18,0.3,0.19c0.18,0.44,0.31,0.85,0.85,1.06c0.21,0.08,0.42,0.1,0.62,0.09c4.37,7.21,7.23,15,10.9,22.57
		c0.07,0.14,0.16,0.21,0.27,0.24c1.12,2.3,3.29,4.53,6.01,3.38c1.21-0.51,2.13-1.68,2.46-2.95
		C100.66,176.08,100.12,175.12,99.45,174.17z M80.45,152.73c-0.28-0.13-0.56-0.35-0.81-0.7c0,0-0.01-0.01-0.01-0.01
		c0.18-0.92,3.21-1.9,3.68-2.1c0.62-0.27,3.81-2.09,4.29-1.23c0.16,0.29-0.04,0.67-0.31,0.99c-0.06,0.04-0.11,0.1-0.15,0.17
		c-0.17,0.18-0.35,0.34-0.47,0.42c-0.47,0.36-1.24,0.53-1.79,0.77c-1.35,0.58-2.7,1.16-4.04,1.74
		C80.72,152.71,80.58,152.69,80.45,152.73z M81.88,153.71c1.24-0.52,2.44-1.17,3.65-1.75c0.51-0.24,1.04-0.47,1.53-0.74
		c0.11-0.05,0.21-0.1,0.31-0.15c0.6,1.83,1.65,3.51,2.38,5.29c0.75,1.83,1.51,3.52,2.45,5.28c0.02,0.04,0.04,0.08,0.06,0.13
		c-0.01,0-0.01,0-0.02,0c-1.69,0.63-3.29,1.55-4.85,2.45c-1.67-3.63-3.53-7.16-5.8-10.39C81.69,153.79,81.79,153.74,81.88,153.71z
		 M97.42,179.33c-2.71,0.96-4.27-1.83-5.21-3.86c-1.48-3.47-2.91-7.04-4.49-10.54c0,0,0.01,0,0.01,0c1.61-0.79,3.29-1.48,4.87-2.33
		c0.03-0.02,0.05-0.04,0.07-0.06c1.83,3.59,3.2,7.34,5.19,10.84c-0.05,0.13-0.05,0.28,0.05,0.44c0.41,0.68,1.18,1.43,1.43,2.18
		C99.76,177.28,98.56,178.92,97.42,179.33z"/>
	<g>
		<path class="st3" d="M259.15,86.42c-1.87,0.89-5.53,2.47-6.7-0.35c-1.3-3.13,3.38-3.7,5.32-3.74c0.5-0.01,0.51-0.78,0-0.79
			c-1.67-0.01-3.53-0.01-4.92,1.05c-1.1,0.84-1.79,2.22-1.34,3.59c1.18,3.59,5.73,2.31,8.09,0.99
			C260.09,86.9,259.65,86.19,259.15,86.42z"/>
		<path class="st3" d="M253.25,65.55c-0.05-0.5-0.83-0.51-0.79,0c0.28,4.02,0.56,8.05,0.96,12.06c0.06,0.55,0.92,0.57,0.88,0
			C254.03,73.59,253.63,69.56,253.25,65.55z"/>
		<path class="st3" d="M255.68,62.29c-0.31-0.67-0.61-1.34-0.9-2.01c0.1-0.04,0.21-0.06,0.31-0.11c0.48-0.2,0.31-0.96-0.22-0.8
			c-0.14,0.04-0.28,0.08-0.42,0.12c-0.61-1.44-1.16-2.89-1.55-4.44c-0.13-0.5-0.89-0.29-0.77,0.21c0.35,1.5,0.79,3.02,1.36,4.49
			c-1.04,0.26-2.07,0.44-3.16,0.49c-0.14-0.76-0.28-1.53-0.41-2.29c-0.09-0.51-0.85-0.29-0.77,0.21c0.26,1.63,0.49,3.28,0.79,4.9
			c0.1,0.55,0.9,0.31,0.82-0.23c-0.09-0.6-0.19-1.19-0.3-1.78c1.13-0.04,2.28-0.17,3.37-0.47c0.33,0.74,0.69,1.46,1.1,2.13
			C255.22,63.21,255.9,62.79,255.68,62.29z"/>
		<path class="st3" d="M247.35,86.3c-3.03,0.77-6.06,1.46-9.15,1.97c-0.48,0.08-0.27,0.79,0.2,0.72c3.09-0.45,6.16-1.03,9.19-1.83
			C248.16,87.02,247.92,86.16,247.35,86.3z"/>
		<path class="st3" d="M235.15,92.98c-1.43-2.02-2.38-3.92-2.41-6.45c-0.01-0.53-0.82-0.53-0.82,0c-0.01,1,0.12,2.02,0.38,3.02
			c-0.49,0.12-0.97,0.3-1.45,0.48c-0.44-1.06-0.78-2.15-0.99-3.34c-0.1-0.53-0.89-0.3-0.8,0.22c0.19,1.17,0.5,2.34,0.92,3.46
			c-0.05,0.02-0.09,0.04-0.14,0.05c-0.46,0.17-0.28,0.91,0.21,0.75c0.08-0.02,0.15-0.05,0.23-0.07c0.41,0.92,0.9,1.81,1.49,2.62
			c0.34,0.46,1.1,0.05,0.78-0.46c-0.51-0.81-0.96-1.61-1.35-2.44c0.46-0.14,0.91-0.29,1.34-0.48c0.42,1.18,1.05,2.28,1.92,3.17
			C234.8,93.86,235.45,93.4,235.15,92.98z"/>
		<path class="st3" d="M260.34,101.72c-0.97-3.56-1.95-7.09-2.72-10.69c-0.11-0.53-0.9-0.3-0.8,0.22c0.68,3.61,1.5,7.23,2.65,10.71
			C259.65,102.51,260.49,102.29,260.34,101.72z"/>
		<path class="st3" d="M263.73,110.57c-0.84-2.04-1.52-4-1.77-6.21c-0.06-0.53-0.89-0.54-0.84,0c0.07,0.76,0.18,1.52,0.34,2.27
			c-0.81,0.32-1.61,0.7-2.39,1.07c-0.04,0.02-0.08,0.05-0.11,0.08c-0.16-0.75-0.3-1.51-0.39-2.28c-0.06-0.51-0.87-0.53-0.82,0
			c0.22,2.16,0.55,4.43,1.36,6.46c0.2,0.5,0.97,0.32,0.83-0.23c-0.29-1.13-0.58-2.24-0.84-3.35c0.08,0.04,0.17,0.06,0.27,0.02
			c0.76-0.29,1.54-0.58,2.29-0.91c0.29,1.19,0.71,2.34,1.28,3.42C263.16,111.34,263.93,111.04,263.73,110.57z"/>
		<path class="st3" d="M271.55,81.27c-2.76,0.91-5.48,1.76-8.34,2.31c-0.46,0.09-0.26,0.78,0.19,0.7c2.83-0.52,5.68-1.17,8.37-2.19
			C272.27,81.89,272.08,81.1,271.55,81.27z"/>
		<path class="st3" d="M280.41,82.68c-0.99-2.48-1.6-4.97-1.69-7.65c-0.02-0.53-0.83-0.53-0.82,0c0.02,1.08,0.11,2.15,0.28,3.2
			c-0.46,0.26-0.9,0.54-1.34,0.84c-0.23-1.19-0.46-2.39-0.69-3.58c-0.1-0.51-0.85-0.29-0.77,0.21c0.22,1.3,0.44,2.6,0.67,3.9
			c-0.29,0.21-0.15,0.62,0.12,0.69c0.15,0.88,0.3,1.76,0.47,2.63c0.11,0.57,0.96,0.32,0.87-0.24c-0.16-0.92-0.33-1.84-0.51-2.75
			c0.45-0.26,0.9-0.53,1.34-0.81c0.27,1.34,0.67,2.65,1.22,3.93C279.76,83.52,280.6,83.18,280.41,82.68z"/>
	</g>
	<g>
		<g>
			<path class="st3" d="M253.17,147.32c-0.45-0.07-0.96-0.17-1.41-0.08c-0.03,0.01-0.05,0.02-0.07,0.03
				c-14.46,0.96-28.92,1.4-43.4,1.63c-0.31,0-0.35,0.41-0.13,0.53c-1.27,8.91-2.79,17.74-4.39,26.59c-0.01,0.08,0,0.14,0.04,0.19
				c0,0-0.01,0-0.01,0.01c-0.23,0.1-0.16,0.35,0.01,0.46c0.04,0.04,0.09,0.06,0.15,0.06c0.06,0,0.11-0.02,0.14-0.05
				c5.22-2.25,10.11-5.29,14.93-8.4c0.05-0.02,0.09-0.04,0.12-0.08c2.92-1.88,5.82-3.78,8.76-5.54c8.22-4.92,16.6-9.57,24.91-14.36
				c0.12-0.07,0.15-0.17,0.15-0.27c0.09-0.06,0.18-0.12,0.27-0.18C253.41,147.72,253.45,147.36,253.17,147.32z M251.89,148.07
				c-0.02,0.01-0.04,0.03-0.05,0.05c-8.15,4.53-16.24,9.19-24.23,14c-2.89,1.74-5.74,3.62-8.61,5.47c-0.46-0.6-0.74-1.28-0.87-2.04
				c-0.05-0.26-0.49-0.2-0.47,0.06c0.06,0.84,0.37,1.62,0.87,2.28c-4.6,2.97-9.26,5.88-14.21,8.09c1.96-8.71,3.37-17.64,4.35-26.51
				c0-0.01,0-0.01,0-0.02c14.38,0.02,28.77-0.59,43.11-1.55c0.12,0.01,0.24,0.01,0.36,0.01
				C252.05,147.97,251.97,148.02,251.89,148.07z"/>
			<path class="st3" d="M212.15,154.15c-0.3-0.66-0.66-1.29-0.99-1.94c-0.14-0.27-0.54-0.03-0.41,0.24
				c0.32,0.65,0.62,1.32,0.98,1.95C211.88,154.68,212.28,154.43,212.15,154.15z"/>
			<path class="st3" d="M213.81,157.44c-0.3-0.57-0.63-1.12-0.94-1.68c-0.15-0.27-0.56-0.03-0.41,0.24c0.31,0.57,0.6,1.14,0.92,1.7
				C213.53,157.97,213.96,157.72,213.81,157.44z"/>
			<path class="st3" d="M215.7,160.89c-0.28-0.56-0.59-1.11-0.89-1.66c-0.15-0.27-0.55-0.03-0.41,0.24
				c0.29,0.56,0.57,1.12,0.87,1.67C215.43,161.42,215.84,161.18,215.7,160.89z"/>
			<path class="st3" d="M217.35,163.83c-0.37-0.41-0.61-0.83-0.7-1.38c-0.05-0.31-0.51-0.18-0.47,0.13c0.09,0.6,0.36,1.2,0.81,1.61
				C217.23,164.42,217.57,164.08,217.35,163.83z"/>
		</g>
		<path class="st3" d="M203.95,162.2c-0.29-0.74-0.66-1.47-1.14-2.11c-0.92-1.22-2.51-0.62-3.54,0.17c-0.5,0.39-0.04,1.25,0.51,0.88
			c0.55-0.38,1.51-0.96,2.11-0.39c0.12,0.11,0.23,0.25,0.33,0.41c-0.03,0.01-0.05,0.01-0.08,0.03c-1,0.61-2.04,1.87-1.21,3.05
			c0.37,0.52,0.95,0.61,1.54,0.56c0.58-0.05,1.5-0.01,1.82-0.61C204.59,163.61,204.16,162.73,203.95,162.2z M202.34,163.64
			c-1.18-0.12-0.11-1.06,0.37-1.47c0.09,0.22,0.16,0.43,0.23,0.61c0.04,0.11,0.28,0.68,0.29,0.89
			C203.14,163.55,202.37,163.64,202.34,163.64z"/>
		<path class="st3" d="M228.54,145.28c-0.09-0.56-0.48-1.12-1.09-1.15c-0.55-0.03-1.18,0.3-1.68,0.62
			c-0.25-0.52-0.51-1.04-0.77-1.54c-0.3-0.59-1.12-0.07-0.87,0.51c0.48,1.09,0.83,2.24,1.31,3.33c0.1,0.22,0.28,0.3,0.47,0.29
			c0.06,0.05,0.12,0.1,0.19,0.13c0.6,0.22,1.41-0.08,1.85-0.5C228.41,146.53,228.65,145.9,228.54,145.28z M226.4,146.34
			c-0.07-0.22-0.14-0.45-0.23-0.67c0.24-0.13,0.47-0.25,0.73-0.34c0.32-0.11,0.56-0.22,0.52,0.23
			C227.38,146.18,226.87,146.26,226.4,146.34z"/>
		<path class="st3" d="M230.56,167c-0.72,0.28-1.34,0.49-2.11,0.54c-0.01,0-0.01,0-0.01,0c0-0.02,0-0.05,0-0.07
			c0.06-0.19,0.02-0.48,0.06-0.67c0.06-0.36,0.2-0.75,0.57-0.89c0.6-0.22,0.36-1.17-0.27-0.98c-0.57,0.18-0.98,0.57-1.23,1.11
			c-0.26,0.55-0.45,1.47-0.22,2.05c0.5,1.28,2.88,0.54,3.65-0.05C231.46,167.69,231.22,166.74,230.56,167z"/>
	</g>
	<path class="st3" d="M70.09,189.32c-1.26-0.21-2.52-0.37-3.79-0.47c-0.53-0.04-0.93,0.65-0.62,1.09c0.03,0.04,0.04,0.08,0.07,0.12
		c0.11,0.36,0.23,0.71,0.36,1.07c-3.36,0.7-6.71,1.47-10.06,2.27c-0.07-0.39-0.17-0.79-0.32-1.17c-1.43-3.84-4.68-5.69-8.21-4.9
		c-0.57-2.38-1.09-4.77-1.57-7.18c0.58-0.21,1.16-0.42,1.73-0.65c0.7-0.29,0.69-1.43-0.19-1.42c-1.32,0.02-1.89-2.5-3.24-1.73
		c-0.62,0.35-0.88,1.35-1.16,1.95c-0.24,0.51-0.68,1.15-0.84,1.76c-0.68,0.3-0.38,1.39,0.39,1.18c0.02-0.01,0.05-0.02,0.07-0.02
		c0.12,0.04,0.25,0.05,0.38,0c0.02-0.01,0.03-0.01,0.05-0.02c0.12-0.04,0.22-0.12,0.31-0.21c0.42-0.13,0.84-0.25,1.26-0.39
		c0.4,2.42,0.86,4.82,1.39,7.2c-0.31,0.13-0.62,0.27-0.92,0.44c-0.49,0.27-0.48,0.87-0.19,1.24c-1.82,1.51-2.86,3.84-2.46,6.49
		c0.04,0.27,0.1,0.52,0.17,0.78c-2.54,0.65-5.09,1.3-7.63,1.96c-0.11-0.43-0.23-0.86-0.37-1.27c-0.12-0.33-0.41-0.45-0.68-0.41
		c-0.23-0.18-0.56-0.22-0.78,0.06c-0.85,1.09-1.46,2.24-1.94,3.53c-0.12,0.33,0.09,0.64,0.34,0.83c0.42,0.31,0.89,0.55,1.4,0.67
		c0.48,0.11,1.15-0.03,1.57,0.22c0.63,0.38,1.21-0.29,1.07-0.84c0.1-0.19,0.13-0.43-0.02-0.67c-0.09-0.15-0.2-0.28-0.3-0.43
		c-0.01-0.14-0.01-0.28-0.03-0.42c2.65-0.58,5.32-1.18,7.98-1.78c1.31,2.4,3.99,3.93,6.76,3.63c1.08,3.21,2.26,6.39,3.56,9.53
		c-0.57,0.21-1.14,0.41-1.71,0.63c-0.53,0.21-0.54,0.84-0.22,1.12c0.04,0.16,0.13,0.32,0.3,0.44c0.98,0.69,2.53,2.33,3.84,1.64
		c0.53-0.28,0.69-0.78,0.74-1.34c0.08-0.89,0.24-1.7,0.59-2.53c0.21-0.51-0.41-1.06-0.9-0.9c-0.36,0.12-0.72,0.25-1.09,0.38
		c-1.3-3.09-2.47-6.21-3.55-9.36c2.66-0.99,4.36-3.5,4.54-6.21c3.51-0.85,7.02-1.72,10.5-2.66c0.11,0.27,0.22,0.55,0.34,0.82
		c0,0,0,0,0,0c0,0,0,0,0,0c0.03,0.06,0.05,0.12,0.07,0.18c0.21,0.47,0.88,0.44,1.2,0.12c0.3,0.02,0.59-0.13,0.7-0.53
		c0.28-0.97,0.75-1.83,1.44-2.59C70.76,190.18,70.68,189.42,70.09,189.32z M53.4,191.46c0.46,0.73,0.76,1.54,0.9,2.35
		c-1.58,0.38-3.16,0.75-4.74,1.15c-0.55-1.87-1.05-3.76-1.53-5.65c0.29-0.11,0.58-0.2,0.88-0.27
		C50.63,188.93,52.15,189.5,53.4,191.46z M43.99,195.04c-0.11-2.18,1-3.93,2.64-5.02c0.43,1.78,0.88,3.56,1.39,5.33
		c-1.27,0.32-2.53,0.65-3.8,0.98C44.1,195.92,44.02,195.49,43.99,195.04z M44.93,197.81c1.2-0.27,2.39-0.53,3.59-0.8
		c0.32,1.06,0.65,2.12,0.99,3.17C47.66,200.27,45.94,199.31,44.93,197.81z M51.08,199.83c-0.35-1.05-0.69-2.11-1.01-3.17
		c1.42-0.33,2.84-0.67,4.26-1.01C54.08,197.47,52.99,199.1,51.08,199.83z"/>
	<circle class="st4" cx="134" cy="155.1" r="59.69"/>
	<ellipse class="st5" cx="142.81" cy="105.57" rx="41.2" ry="20.39"/>
	<g>
		<path class="st3" d="M126.2,137.33c-0.06-0.56-0.26-1.11-0.59-1.57c-0.55-1.13-1.87-1.54-3-1.16c-0.48,0.04-0.93,0.15-1.27,0.38
			c-1.68,1.12-1.76,4.27-0.13,5.43c0.93,0.66,1.97,0.65,2.78,0.22C125.36,140.24,126.36,138.9,126.2,137.33z"/>
		<path class="st3" d="M127.95,129.86c-0.3-2.31-0.71-4.62-1.28-6.88c-0.03-0.11-0.05-0.22-0.08-0.33c0.47-0.21,0.71-0.69,0.74-1.21
			c0.01-0.02,0.02-0.03,0.02-0.05c0.23-0.73-0.16-1.31-0.76-1.45c-0.17-0.15-0.39-0.24-0.62-0.24c-0.27-0.01-0.48,0.09-0.66,0.23
			c-0.09-0.08-0.19-0.16-0.3-0.23c-1.86-1.16-3.96,0.25-4.93,1.86c-1.92,3.19-2.23,7.88-2.45,11.52c-0.27,4.42,0.04,8.87,0.63,13.25
			c0.34,2.55,0.69,5.11,1.73,7.4c-1.03,0.24-1.15,1.79-0.78,2.64c0.46,1.07,2.26,1.65,3.2,0.89c0.24-0.19,0.42-0.47,0.54-0.78
			c4.24,0.33,5.06-11.17,5.27-13.55C128.6,138.59,128.5,134.19,127.95,129.86z M127.04,146.81c-0.27,1.76-1.15,8.75-3.92,8.89
			c0.02-0.61-0.19-1.22-0.67-1.56c-0.01-0.01-0.02-0.01-0.03-0.02c-0.07-0.13-0.17-0.24-0.29-0.31c-0.2-0.11-0.46-0.1-0.7-0.09
			c-0.26-0.05-0.53-0.07-0.78-0.05c-2.09-4.31-2.21-10.02-2.4-14.52c-0.13-3.02-0.04-6.05,0.34-9.04
			c0.25-1.96,1.18-10.27,4.21-10.02c0.54,0.05,1.18,0.37,1.74,0.79c-0.1,0.65,0.16,1.49,0.66,1.7c0.1,0.04,0.21,0.05,0.32,0.05
			c0.13,0.07,0.27,0.11,0.42,0.12c0.12,0.46,0.19,0.97,0.28,1.38c0.3,1.3,0.55,2.61,0.76,3.93c0.5,3.1,0.74,6.24,0.75,9.37
			C127.75,140.58,127.52,143.72,127.04,146.81z"/>
		<path class="st3" d="M134.68,126.12c-3.71,0.26-7.73,2.71-10.84,4.62c-1.78,1.1-3.49,2.3-5.15,3.59
			c-1.34,1.04-2.65,2.14-3.92,3.27c-1.24,1.11-2.37,2.35-3.57,3.5c-0.15,0.14-0.3,0.29-0.45,0.43c-0.25-0.12-0.55-0.11-0.83-0.07
			c-0.41,0.07-0.78,0.42-0.74,0.85c-0.06,0.26,0.02,0.52,0.17,0.73c-0.47,0.57-0.9,1.16-1.25,1.81c-0.01,0.01-0.02,0.03-0.02,0.04
			c-0.49,0.92-0.91,2.24-0.53,3.26c0.19,0.5,0.52,0.93,0.99,1.19c1.31,0.75,3.1,0.33,4.45-0.07c1.84-0.54,3.61-1.35,5.31-2.23
			c1.21-0.62,2.4-1.3,3.58-1.99c3.78-2.19,7.31-4.8,10.54-7.74c1.72-1.57,3.37-3.24,4.89-5.01c0.8-0.93,1.81-1.91,1.73-3.24
			C138.91,126.89,136.55,125.99,134.68,126.12z M137.41,131.11c-0.28,0.54-0.91,1.06-1.31,1.51c-0.89,0.99-1.82,1.95-2.77,2.89
			c-2.25,2.19-4.67,4.19-7.23,6.01c-2.56,1.81-5.26,3.43-8.07,4.82c-1.85,0.92-9.97,5.25-9.98,0.37c0-0.06-0.01-0.11-0.04-0.16
			c0.44-1.11,1.06-2.16,1.79-3.16c0.38,0.15,0.81,0.03,1.09-0.27c0.3-0.32,0.41-0.82,0.23-1.22c-0.01-0.03-0.03-0.05-0.05-0.08
			c2.42-2.73,5.56-5.07,8.16-7.07c2.4-1.84,4.92-3.51,7.59-4.92c1.75-0.92,9.08-4.95,10.61-2.32
			C137.97,128.42,137.86,130.27,137.41,131.11z"/>
		<path class="st3" d="M138.42,143.98c-1.71-3.31-5.54-6.03-8.53-8.13c-3.63-2.55-7.57-4.61-11.62-6.41
			c-2.75-1.22-5.52-2.44-8.5-2.5c-0.02-0.12-0.05-0.24-0.08-0.36c-0.12-0.52-0.35-0.74-0.89-0.77c-0.42-0.02-0.9,0.03-1.21,0.34
			c-0.4,0.4-0.37,1.08-0.09,1.57c-3.6,3.29,6.44,10.5,8.44,11.98c3.51,2.6,7.3,4.82,11.28,6.62c1.77,0.8,3.57,1.51,5.41,2.14
			c-0.01,0.31,0.06,0.71,0.14,0.97c0.05,0.17,0.16,0.28,0.3,0.37c0.09,0.36,0.28,0.64,0.76,0.69c0.6,0.07,1.21-0.05,1.48-0.64
			c0.07-0.16,0.13-0.33,0.18-0.52c0.65,0.12,1.3,0.13,1.93-0.19C139.39,148.17,139.28,145.65,138.42,143.98z M135.57,148.42
			c-0.02-0.16-0.06-0.31-0.13-0.45c-0.24-0.5-0.75-0.82-1.31-0.7c-0.32,0.06-0.6,0.25-0.88,0.43c-0.08,0.05-0.17,0.1-0.25,0.16
			c-1.26-0.43-2.51-0.89-3.73-1.4c-2.9-1.2-5.7-2.63-8.38-4.27c-2.68-1.64-5.23-3.47-7.62-5.51c-1.44-1.22-7.54-6.11-5.2-8.42
			c0.09,0.04,0.17,0.07,0.27,0.09c0.05,0.01,0.1,0,0.15,0c0.11,0.02,0.23,0.01,0.34-0.02c0.29-0.02,0.57-0.11,0.78-0.35
			c0.11-0.12,0.17-0.25,0.2-0.39c5.06,0.15,10.38,3.28,14.59,5.63c2.64,1.47,5.17,3.13,7.52,5.03c1.54,1.24,8.13,6.39,6.33,8.83
			C137.74,147.74,136.52,148.27,135.57,148.42z"/>
	</g>
	<path class="st3" d="M183.3,175.1c-0.03,0.01-0.07,0.02-0.1,0.03c-0.38-1.51-0.84-3.03-1.45-4.46c0.03-0.01,0.06-0.02,0.08-0.03
		c0.35-0.14,0.1-0.66-0.25-0.52c-0.02,0.01-0.05,0.02-0.07,0.03c-0.53-1.14-1.17-2.2-1.97-3.15c0.02,0,0.04-0.01,0.07-0.02
		c0.32-0.07,0.23-0.56-0.09-0.5c-0.12,0.02-0.24,0.05-0.36,0.07c-0.6-0.64-1.28-1.23-2.06-1.72c-0.03-0.04-0.07-0.07-0.12-0.08
		c-0.07-0.05-0.14-0.1-0.22-0.14c-1.4-0.82-2.96-1.3-4.49-1.83c1.05-1.76,2.43-3.38,3.33-5.21c0.89-1.82,0.43-3.79,0.06-5.7
		c-0.04-0.19-0.08-0.37-0.12-0.56c0.17-0.13,0.11-0.44-0.11-0.48c-0.36-1.56-0.9-3.11-1.91-4.37c-0.89-1.12-2.07-1.86-3.31-2.52
		c1.77-1.53,3.63-3.02,4.9-4.9c2.41-3.58,2.73-8.28,0.96-12.19c-0.11-0.25-0.48-0.07-0.38,0.18c0.43,1.05,0.7,2.08,0.85,3.08
		c-5.27,0.73-10.57,1.69-15.72,3.06c-0.11-0.56-0.19-1.13-0.23-1.72c-0.02-0.28-0.44-0.2-0.42,0.07c0.04,0.61,0.11,1.21,0.22,1.81
		c-0.1,0.11-0.07,0.3,0.07,0.36c0.11,0.51,0.24,1.01,0.4,1.51c-0.05,0.11-0.01,0.26,0.11,0.32c0.84,2.39,2.3,4.55,4.3,6.19
		c1.22,1,2.62,1.65,4,2.36c-2.73,2.52-4.85,5.2-4.59,9.36c0.14,2.28,0.46,4.85,1.98,6.66c1.23,1.47,2.98,2.3,4.74,2.97
		c-0.64,1.16-1.22,2.36-1.7,3.6c-0.38,0.99-0.69,2.02-0.91,3.07c-0.02,0.01-0.05,0.02-0.07,0.03c-0.19,0.08-0.14,0.29-0.01,0.38
		c-0.29,1.5-0.4,3.02-0.29,4.53c-0.01,0.05-0.01,0.1,0.01,0.14c0.11,1.32,0.39,2.62,0.87,3.88c-0.11,0.12-0.04,0.36,0.15,0.37
		c0.09,0.21,0.18,0.42,0.28,0.62c0.15,0.31,0.62,0.09,0.48-0.23c-0.06-0.15-0.12-0.31-0.18-0.46c4.35-0.57,8.62-1.64,12.75-3.09
		c0.14,0.6,0.27,1.19,0.4,1.79c0.08,0.37,0.66,0.27,0.58-0.1c-0.14-0.62-0.28-1.25-0.43-1.88c0.07-0.03,0.14-0.05,0.21-0.07
		C183.91,175.51,183.65,174.98,183.3,175.1z M160.93,133.64c5.22-1.07,10.42-2.13,15.69-2.97c0.06,0.59,0.07,1.17,0.04,1.75
		c-0.05-0.05-0.13-0.07-0.22-0.05c-5,1.18-10.03,1.88-15.1,2.67C161.18,134.59,161.04,134.12,160.93,133.64z M162.3,137.18
		c-0.3-0.53-0.56-1.08-0.79-1.66c5.05-0.38,10.1-1.43,15.02-2.59c0.03-0.01,0.06-0.02,0.08-0.04c-0.06,0.65-0.18,1.29-0.35,1.92
		c-0.06-0.07-0.14-0.12-0.25-0.1c-4.57,0.69-9.17,1.4-13.68,2.45C162.32,137.17,162.31,137.18,162.3,137.18z M163.77,139.3
		c-0.45-0.54-0.86-1.1-1.23-1.7c4.52-0.77,9.02-1.65,13.57-2.33c0.01,0,0.01-0.01,0.02-0.01c-0.17,0.54-0.39,1.08-0.63,1.6
		c-3.83,0.97-7.7,1.71-11.59,2.36C163.85,139.23,163.8,139.26,163.77,139.3z M164.1,139.67c3.74-0.5,7.43-1.26,11.08-2.17
		c-0.36,0.68-0.78,1.33-1.26,1.97c-2.72,0.66-5.46,1.19-8.2,1.75C165.14,140.73,164.6,140.21,164.1,139.67z M166.24,141.61
		c2.4-0.36,4.78-0.88,7.14-1.45c-0.38,0.45-0.79,0.89-1.22,1.32c-1.58,0.33-3.19,0.58-4.77,0.93
		C166.99,142.16,166.61,141.89,166.24,141.61z M168.99,143.32c-0.34-0.17-0.67-0.35-0.99-0.54c1.14-0.14,2.27-0.35,3.4-0.58
		c-0.08,0.07-0.17,0.15-0.25,0.22c-0.49,0.42-0.97,0.84-1.44,1.26C169.47,143.56,169.23,143.44,168.99,143.32z M169.78,144.33
		c0.41,0.22,0.81,0.44,1.2,0.69c0.63,0.39,1.15,0.84,1.61,1.34c-0.01,0-0.01,0-0.02,0c-1.89,0.23-3.77,0.62-5.64,0.96
		C167.72,146.22,168.72,145.26,169.78,144.33z M166.52,147.9c0.02,0,0.03,0,0.05,0c2.02-0.34,4.08-0.61,6.08-1.06
		c0.11-0.03,0.17-0.1,0.19-0.19c0.61,0.74,1.06,1.57,1.42,2.46c-3.01,0.41-6,0.97-8.92,1.79
		C165.54,149.78,165.96,148.79,166.52,147.9z M165.21,151.95c0.01-0.18,0.03-0.36,0.05-0.54c3.02-0.69,6.04-1.32,9.11-1.75
		c0.03,0,0.06-0.02,0.09-0.03c0.15,0.42,0.27,0.85,0.38,1.3c-3.22,0.62-6.43,1.32-9.64,2.02
		C165.19,152.61,165.19,152.28,165.21,151.95z M165.2,153.4c0.01,0,0.02,0,0.02,0c3.25-0.63,6.5-1.24,9.74-1.95
		c0.09,0.39,0.17,0.79,0.24,1.19c0.02,0.11,0.04,0.22,0.05,0.32c-3.3,0.72-6.61,1.41-9.9,2.17
		C165.26,154.57,165.21,153.98,165.2,153.4z M165.43,155.63c3.32-0.62,6.62-1.36,9.9-2.12c0.11,0.73,0.17,1.43,0.12,2.13
		c-3.14,0.81-6.3,1.42-9.51,1.82C165.72,156.87,165.55,156.26,165.43,155.63z M166.12,157.89c3.13-0.3,6.22-0.85,9.26-1.67
		c-0.1,0.53-0.29,1.05-0.6,1.57c-0.08,0.14-0.17,0.27-0.25,0.4c-2.42,0.72-4.81,1.25-7.32,1.52
		C166.76,159.16,166.4,158.54,166.12,157.89z M169.45,161.58c-0.08-0.04-0.15-0.08-0.23-0.12c-0.63-0.36-1.16-0.8-1.62-1.29
		c2.18-0.15,4.36-0.54,6.43-1.24c-0.36,0.51-0.73,1.02-1.07,1.55c-0.09,0.13-0.17,0.27-0.26,0.41c-0.07-0.05-0.16-0.07-0.25-0.04
		c-0.98,0.33-1.96,0.58-2.98,0.73C169.46,161.57,169.46,161.58,169.45,161.58z M171.11,162.34
		C171.11,162.34,171.1,162.34,171.11,162.34c-0.32-0.12-0.63-0.25-0.94-0.39c0.74-0.11,1.48-0.28,2.19-0.51
		c-0.23,0.37-0.46,0.75-0.68,1.13c-0.13-0.05-0.25-0.1-0.38-0.15C171.27,162.36,171.2,162.32,171.11,162.34z M171.97,163.27
		c0.1,0.04,0.2,0.07,0.3,0.11c1.29,0.46,2.51,0.94,3.62,1.54c-1.89,0.37-3.72,0.93-5.48,1.7
		C170.85,165.48,171.37,164.36,171.97,163.27z M170.18,167.24c2.07-0.89,4.19-1.53,6.4-1.92c0.66,0.4,1.27,0.86,1.84,1.39
		c-3.04,0.64-6.01,1.57-8.89,2.74C169.71,168.7,169.92,167.96,170.18,167.24z M169.41,169.98c3.1-1.17,6.24-2.08,9.46-2.82
		c0.41,0.44,0.79,0.92,1.15,1.47c-3.67,0.96-7.31,2.05-10.9,3.29C169.18,171.26,169.28,170.62,169.41,169.98z M169.08,172.43
		c3.73-1.19,7.46-2.31,11.24-3.33c0.24,0.41,0.46,0.83,0.66,1.25c-3.91,1.52-7.88,2.85-11.92,4
		C169.03,173.71,169.03,173.07,169.08,172.43z M169.09,174.83c4.12-1.08,8.16-2.4,12.12-3.95c0.29,0.67,0.54,1.36,0.76,2.06
		c-0.06-0.02-0.12-0.03-0.19,0c-4.08,1.49-8.2,2.78-12.45,3.68C169.23,176.02,169.14,175.43,169.09,174.83z M169.87,178.54
		c-0.17-0.49-0.31-0.99-0.43-1.48c4.29-0.85,8.51-2,12.58-3.64c0.04-0.02,0.07-0.04,0.1-0.06c0.2,0.65,0.37,1.3,0.53,1.96
		C178.45,176.71,174.21,177.74,169.87,178.54z"/>
	<ellipse class="st5" cx="159.07" cy="207.23" rx="41.2" ry="20.39"/>
	<path class="st3" d="M156.47,238.77c1.39-2.55,1.82-8.36-1.54-9.11c0.27-0.19,0.52-0.38,0.74-0.6c2.22-2.13,2.39-6.49,0.92-9.09
		c-1.72-3.05-6.27-2.36-9.04-1.38c-3.26,1.16-5.68,3.83-5.51,7.4c-1.37-0.04-2.7,0.32-3.84,1.19c-2.54,1.62-3.48,3.85-3.06,6.37
		c-2.49,0.03-4.96,2.7-6.34,4.5c-1.55,2.02-1.5,5.27,0.31,7.1c1.93,1.95,5.11,2.62,7.58,1.37c0.46-0.23,0.85-0.51,1.2-0.81
		c0.21,3.92,5.16,5.47,8.4,3.19c0.67-0.47,1.22-1.09,1.67-1.78c1.78,2.79,7.13,3.52,9.34,0.98
		C159.7,245.36,159.88,240.58,156.47,238.77z M143.2,226.01c-0.16-4.96,8-9.57,11.56-5.62c1.71,1.9,1.98,5.76-0.06,7.69
		c-1.25,1.18-3.96,2.03-5.83,1.54c-0.29-0.48-0.67-0.93-1.17-1.34c-1.37-1.12-2.94-1.88-4.51-2.17
		C143.18,226.08,143.2,226.05,143.2,226.01z M136.59,245c-1.84,1.22-4.28,0.91-5.97-0.43c-2.23-1.76-1.64-4.55,0.05-6.47
		c1.03-1.17,3.03-3.44,4.79-3.34c0.21,0.62,0.49,1.26,0.85,1.9c0.64,1.15,1.49,2.03,2.44,2.63
		C138.59,241.48,138.64,243.65,136.59,245z M146.73,246.66c-2.18,2.93-8.28,2.79-7.63-1.93c0.02-0.13-0.01-0.24-0.06-0.34
		c0.77-1.29,1-2.86,0.93-4.51c1.8,0.63,3.85,0.37,5.7-0.85c0.2,0.16,0.4,0.32,0.62,0.47C148.24,241.41,148.39,244.42,146.73,246.66z
		 M156.08,235.24c-0.06,1.69-0.73,3.49-2.27,4.38c-1.98,1.14-4.2,0.52-6.06-0.57c-0.29-0.32-0.61-0.62-1-0.87
		c1.95-1.79,3.26-4.6,2.71-7.07c1.54,0.14,3.23-0.24,4.62-0.96c-0.04,0.27,0.08,0.57,0.43,0.7
		C155.98,231.42,156.13,234.03,156.08,235.24z"/>
	<g>
		<path class="st3" d="M131.94,189.32c-3.88-3.98-8.47-1.95-12.25,1.12c-1.49,1.21-2.67,2.66-3.2,4.52
			c-0.93,3.25,0.24,6.82-1.41,9.85c0,0-0.01,0-0.01,0c-0.47,0.18-0.85,0.55-1.05,0.99c-0.1-0.01-0.19,0.03-0.26,0.12
			c-0.79,1.01-2.12,2.24-2.31,3.58c-0.07,0.51,0.06,1.02,0.31,1.48c-0.58,0.41-0.61,1.25-0.16,1.78c0.51,0.59,1.44,0.55,2.07,0.17
			c2.7,1.56,3.86-2.79,5.59-3.91c0.17-0.11,0.22-0.27,0.19-0.42c3.66-3.56,9.77-3.27,13.05-7.47
			C135.26,197.59,135.09,192.53,131.94,189.32z M112.34,212.2c-0.12-0.09-0.21-0.36-0.06-0.46c0.17,0.2,0.35,0.38,0.54,0.55
			C112.64,212.32,112.48,212.31,112.34,212.2z M115.89,211.84c-1.74,1.48-4.07-1.22-3.33-2.99c0.28-0.66,0.86-1.31,1.36-1.91
			c0.03,0.1,0.06,0.21,0.11,0.31c0.29,0.59,0.95,0.93,1.49,1.24c0.66,0.38,1.35,0.73,2.06,1.01
			C117.05,210.29,116.65,211.19,115.89,211.84z M125.91,204.17c-2.96,1.1-5.85,2-7.88,4.56c-0.01,0.01-0.01,0.03-0.02,0.05
			c-0.73-0.34-1.47-0.66-2.18-1.06c-0.4-0.22-0.98-0.47-1.13-0.94c-0.1-0.29-0.03-0.61,0.14-0.86c0.17,0.1,0.4,0.09,0.55-0.11
			c2.26-3.12,1.01-6.59,1.82-10.11c1.41-6.12,11.48-10.49,15.23-4.28C135.95,197.25,131.14,202.22,125.91,204.17z"/>
		<path class="st3" d="M123.39,197.39c-2.06,2.98-4.34,5.77-6.9,8.35c-0.33,0.34,0.18,0.85,0.52,0.52c2.61-2.61,4.97-5.43,7.03-8.49
			C124.32,197.36,123.67,196.99,123.39,197.39z"/>
		<path class="st3" d="M126.83,198.72c-3.37,2.35-6.52,5.02-9.49,7.87c-0.36,0.34,0.18,0.87,0.54,0.54c2.96-2.77,6.1-5.29,9.37-7.68
			C127.68,199.13,127.28,198.41,126.83,198.72z"/>
	</g>
</g>
</svg>
