<?xml version="1.0" encoding="utf-8"?>
<!-- Generator: Adobe Illustrator 25.0.1, SVG Export Plug-In . SVG Version: 6.00 Build 0)  -->
<svg version="1.1" id="Layer_1" xmlns="http://www.w3.org/2000/svg" xmlns:xlink="http://www.w3.org/1999/xlink" x="0px" y="0px"
	 viewBox="0 0 300 300" style="enable-background:new 0 0 300 300;" xml:space="preserve">
<style type="text/css">
	.st0{clip-path:url(#SVGID_3_);}
	.st1{clip-path:url(#SVGID_4_);}
	.st2{clip-path:url(#SVGID_6_);fill:#2BAEE4;}
</style>
<g>
	<g>
		<defs>
			<polygon id="SVGID_1_" points="51.71,247.12 249.56,247.12 249.56,48.79 51.71,48.79 51.71,247.12 			"/>
		</defs>
		<defs>
			<polygon id="SVGID_2_" points="51.71,48.79 249.56,48.79 249.56,247.12 51.71,247.12 51.71,48.79 			"/>
		</defs>
		<clipPath id="SVGID_3_">
			<use xlink:href="#SVGID_1_"  style="overflow:visible;"/>
		</clipPath>
		<clipPath id="SVGID_4_" class="st0">
			<use xlink:href="#SVGID_2_"  style="overflow:visible;"/>
		</clipPath>
		<g class="st1">
			<defs>
				<polygon id="SVGID_5_" points="51.71,247.12 249.56,247.12 249.56,48.79 51.71,48.79 51.71,247.12 				"/>
			</defs>
			<clipPath id="SVGID_6_">
				<use xlink:href="#SVGID_5_"  style="overflow:visible;"/>
			</clipPath>
			<path class="st2" d="M77.54,214.45l18.43-16.62C84.19,184.3,78.3,169.33,76.9,152.31H52.48
				C47.49,107.24,86.43,47.02,154.57,49.13v24.95c18.77,1.82,34.87,8.63,48,21.75c13.13,13.12,20.19,29.19,21.89,48.1h24.76
				c2.69,31.82-14.74,74.67-57.21,94.18C152.94,256.05,105.64,246.54,77.54,214.45L77.54,214.45z M150.99,108.31
				c-22.45-0.04-39.36,17.1-40.13,39.34c-0.7,20.25,16.91,40.31,39.31,40.42c24.93,0.12,40.98-21.35,40.37-40.4
				C189.84,125.67,173.07,108.35,150.99,108.31L150.99,108.31z M90.65,215.44c21.86,21.83,62.81,31.4,98.18,14.8
				c30.67-14.41,55.68-51.83,51.61-77.82h-15.4c-5.72,61.85-75.9,91.22-123.8,51.06L90.65,215.44L90.65,215.44L90.65,215.44z
				 M74.44,98.89l36.73,21.16c8.87-12.11,20.75-18.72,35.08-20.77V57.32C115.49,59.62,92.06,73.57,74.44,98.89L74.44,98.89z
				 M199.33,152.53c-3.16,18.82-12.57,32.85-30.23,40.22c-17.72,7.39-34.19,3.88-49.16-7.08l-11.67,11.36
				c17.59,17.36,48.73,20.92,72.44,8.82c19.44-9.92,35.44-33.54,34.17-53.32H199.33L199.33,152.53L199.33,152.53z M155.27,99.1
				c28.09,7.81,33.83,13.56,44.49,44.38h15.43c1.08-28.1-27.24-60.35-59.92-60.13V99.1L155.27,99.1L155.27,99.1z M106.07,127.28
				L70.22,106.6c-5.53,8.82-10.4,28.2-9.36,36.93h40.89C103.23,137.99,104.6,132.83,106.07,127.28L106.07,127.28z M100.62,190.08
				l11.05-10.56c-3.76-9.02-7.39-17.74-11.2-26.85H85.53C86.5,167.32,92.03,179.54,100.62,190.08L100.62,190.08z"/>
		</g>
	</g>
</g>
</svg>
