<?xml version="1.0" encoding="utf-8"?>
<!-- Generator: Adobe Illustrator 25.0.1, SVG Export Plug-In . SVG Version: 6.00 Build 0)  -->
<svg version="1.1" id="Layer_1" xmlns="http://www.w3.org/2000/svg" xmlns:xlink="http://www.w3.org/1999/xlink" x="0px" y="0px"
	 viewBox="0 0 300 300" style="enable-background:new 0 0 300 300;" xml:space="preserve">
<style type="text/css">
	.st0{fill:#2BAEE4;}
	.st1{fill:#FFFFFF;}
</style>
<g>
	<g>
		<path id="XMLID_87_" class="st0" d="M150.2,68.09v-3.1c0-5.03-4.19-9.11-9.36-9.11H43.2c-5.17,0-9.36,4.08-9.36,9.11v164.2h232.73
			v-152c0-5.03-4.19-9.11-9.36-9.11H150.2z"/>
		<rect id="XMLID_86_" x="44.17" y="81.21" class="st1" width="214.25" height="149.65"/>
		<path id="XMLID_85_" class="st0" d="M146.88,99.92l-3.45,9.31H43.2c-5.17,0-9.36,4.08-9.36,9.11v115.94
			c0,5.03,4.19,9.11,9.36,9.11H257.2c5.17,0,9.36-4.08,9.36-9.11V103.01c0-5.03-4.19-9.11-9.36-9.11H155.69
			C151.74,93.9,148.22,96.31,146.88,99.92z"/>
	</g>
</g>
</svg>
