<?xml version="1.0" encoding="utf-8"?>
<!-- Generator: Adobe Illustrator 25.0.1, SVG Export Plug-In . SVG Version: 6.00 Build 0)  -->
<svg version="1.1" id="Layer_1" xmlns="http://www.w3.org/2000/svg" xmlns:xlink="http://www.w3.org/1999/xlink" x="0px" y="0px"
	 viewBox="0 0 300 300" style="enable-background:new 0 0 300 300;" xml:space="preserve">
<style type="text/css">
	.st0{fill:none;stroke:#29ABE2;stroke-width:5.3258;stroke-miterlimit:10;}
	.st1{fill:#29ABE2;}
</style>
<g>
	<g>
		<path class="st0" d="M228.47,85.94v157.4c0,5.88-4.9,10.64-10.94,10.64H82.88c-6.04,0-10.94-4.76-10.94-10.64V55.93
			c0-5.88,4.9-10.64,10.94-10.64h81.99L228.47,85.94z"/>
		<path class="st0" d="M163.28,45.47l60.23,37.86c1.58,1,1.21,3.35-0.61,3.85L173.7,98.3l-10.93-51.69
			C162.77,46.61,162.29,45.35,163.28,45.47z"/>
	</g>
	<g>
		<g>
			<path class="st1" d="M191.55,145.03c-7.48,0-8.53,4.41-8.53,7.58c0,2.77,0.42,5.53,0.84,8.3c0.42,2.77,0.84,5.64,0.84,8.4
				c0,10.35-6.64,14.04-15.28,14.04h-2.21v-5.64h1.79c5.9-0.1,8.43-3.18,8.43-8.91c0-2.46-0.42-4.82-0.74-7.38
				c-0.42-2.46-0.84-5.02-0.84-7.79c0-6.56,2.95-10.04,7.59-11.17v-0.21c-4.64-1.23-7.59-4.51-7.59-11.06
				c0-2.77,0.42-5.22,0.84-7.79c0.32-2.46,0.74-4.92,0.74-7.27c0-5.53-2.21-8.71-8.32-8.81h-1.9v-5.64h2.11
				c8.95,0,15.38,4,15.38,13.42c0,2.87-0.42,5.64-0.84,8.5c-0.42,2.87-0.84,5.74-0.84,8.61c0,3.59,1.05,7.58,8.53,7.58V145.03z"/>
		</g>
		<g>
			<path class="st1" d="M108.85,139.81c7.48,0,8.53-4,8.53-7.58c0-2.87-0.42-5.74-0.84-8.61c-0.42-2.87-0.84-5.63-0.84-8.5
				c0-9.43,6.43-13.42,15.38-13.42h2.11v5.64h-1.9c-6.11,0.1-8.32,3.28-8.32,8.81c0,2.36,0.42,4.82,0.74,7.27
				c0.42,2.56,0.84,5.02,0.84,7.79c0,6.56-2.95,9.84-7.59,11.06v0.21c4.64,1.13,7.59,4.61,7.59,11.17c0,2.77-0.42,5.33-0.84,7.79
				c-0.32,2.56-0.74,4.92-0.74,7.38c0,5.74,2.53,8.81,8.43,8.91h1.79v5.64h-2.21c-8.64,0-15.28-3.69-15.28-14.04
				c0-2.77,0.42-5.63,0.84-8.4c0.42-2.77,0.84-5.53,0.84-8.3c0-3.18-1.05-7.58-8.53-7.58V139.81z"/>
		</g>
		<g>
			<ellipse class="st1" cx="150.2" cy="121.96" rx="5.94" ry="5.77"/>
			<path class="st1" d="M150.27,168.86h-0.13c-2.6,0-4.71-2.11-4.71-4.71v-22.31c0-2.6,2.11-4.71,4.71-4.71h0.13
				c2.6,0,4.71,2.11,4.71,4.71v22.31C154.98,166.75,152.87,168.86,150.27,168.86z"/>
		</g>
	</g>
	<rect x="71.6" y="201.74" class="st1" width="157.19" height="4.6"/>
	<g>
		<path class="st1" d="M105.69,212.82h6.42v19.64c0,2.57-0.23,4.54-0.7,5.92c-0.62,1.81-1.76,3.25-3.39,4.35
			c-1.64,1.09-3.8,1.64-6.48,1.64c-3.15,0-5.57-0.86-7.27-2.57c-1.7-1.71-2.55-4.23-2.57-7.54l6.07-0.68
			c0.07,1.78,0.34,3.03,0.81,3.77c0.7,1.11,1.76,1.67,3.18,1.67c1.44,0,2.45-0.4,3.05-1.2c0.59-0.8,0.89-2.45,0.89-4.96V212.82z"/>
		<path class="st1" d="M117.33,233.74l6.27-0.59c0.38,2.04,1.14,3.55,2.3,4.51c1.15,0.96,2.71,1.44,4.67,1.44
			c2.07,0,3.64-0.43,4.69-1.28c1.05-0.85,1.58-1.85,1.58-2.99c0-0.73-0.22-1.36-0.66-1.87c-0.44-0.51-1.21-0.96-2.32-1.34
			c-0.75-0.25-2.47-0.71-5.16-1.35c-3.45-0.83-5.87-1.85-7.27-3.07c-1.96-1.71-2.94-3.79-2.94-6.24c0-1.58,0.46-3.06,1.38-4.43
			c0.92-1.38,2.25-2.42,3.98-3.14c1.73-0.72,3.83-1.08,6.28-1.08c4,0,7.02,0.85,9.04,2.56c2.02,1.71,3.09,3.99,3.19,6.83l-6.44,0.27
			c-0.28-1.59-0.87-2.74-1.77-3.44c-0.91-0.7-2.27-1.05-4.08-1.05c-1.87,0-3.34,0.37-4.4,1.12c-0.68,0.48-1.02,1.12-1.02,1.93
			c0,0.73,0.32,1.36,0.96,1.88c0.81,0.66,2.79,1.35,5.92,2.07c3.13,0.72,5.45,1.46,6.95,2.23c1.5,0.77,2.68,1.82,3.52,3.15
			c0.85,1.33,1.27,2.98,1.27,4.94c0,1.78-0.51,3.44-1.52,4.99c-1.02,1.55-2.45,2.71-4.31,3.46c-1.86,0.76-4.17,1.13-6.94,1.13
			c-4.03,0-7.13-0.91-9.29-2.72C119.04,239.86,117.75,237.21,117.33,233.74z"/>
		<path class="st1" d="M147.37,228.52c0-3.16,0.49-5.81,1.46-7.96c0.73-1.58,1.72-3,2.97-4.25c1.25-1.26,2.63-2.19,4.12-2.79
			c1.99-0.82,4.28-1.23,6.88-1.23c4.7,0,8.46,1.42,11.28,4.25c2.82,2.83,4.23,6.78,4.23,11.83c0,5.01-1.4,8.93-4.2,11.75
			c-2.8,2.83-6.54,4.24-11.23,4.24c-4.74,0-8.51-1.41-11.31-4.22C148.77,237.33,147.37,233.45,147.37,228.52z M154.01,228.31
			c0,3.51,0.83,6.18,2.5,7.99c1.67,1.81,3.79,2.72,6.35,2.72c2.57,0,4.67-0.9,6.32-2.7c1.65-1.8,2.47-4.5,2.47-8.09
			c0-3.55-0.8-6.21-2.4-7.96c-1.6-1.75-3.73-2.62-6.39-2.62c-2.65,0-4.79,0.89-6.42,2.66C154.82,222.07,154.01,224.74,154.01,228.31
			z"/>
		<path class="st1" d="M183.4,243.84v-31.02h6.27l13.05,20.71v-20.71h5.98v31.02h-6.46l-12.86-20.23v20.23H183.4z"/>
	</g>
</g>
</svg>
