<svg width="180" height="39" viewBox="0 0 180 39" fill="none" xmlns="http://www.w3.org/2000/svg">
<path d="M0 7.07799H7.72388V10.5912C8.938 9.22207 10.4363 8.11128 12.1154 7.36214C13.7687 6.63884 15.5511 6.27718 17.3594 6.27718C19.1935 6.25135 20.9759 6.74216 22.5258 7.69796C24.1274 8.70542 25.3932 10.1262 26.2199 11.8053C27.3565 10.0745 28.9064 8.67959 30.7405 7.69796C32.523 6.74216 34.5379 6.27718 36.5528 6.27718C38.5677 6.22552 40.5568 6.768 42.2876 7.80129C43.8634 8.73126 45.1033 10.1004 45.8525 11.7536C46.6016 13.3811 46.9374 16.016 46.9374 19.71V37.6118H39.2135V22.1124C39.2135 18.6509 38.7744 16.3001 37.9219 15.086C37.0695 13.8719 35.752 13.2519 34.0471 13.2519C32.7813 13.2261 31.5413 13.6394 30.508 14.3627C29.4489 15.1377 28.6223 16.2226 28.1831 17.4626C27.6665 18.7801 27.434 20.8983 27.434 23.8174V37.6118H19.6843V22.8099C19.6843 20.0717 19.4776 18.0826 19.0901 16.8685C18.6768 15.6543 18.0827 14.7244 17.2819 14.1302C16.3777 13.5619 15.3444 13.2519 14.3111 13.2778C13.0454 13.2778 11.8312 13.6652 10.8238 14.4144C9.73881 15.2152 8.938 16.326 8.49885 17.5918C7.9822 18.9609 7.72388 21.105 7.72388 24.0499V37.6377H0V7.07799Z" fill="#00ADEE"/>
<path d="M114.954 0V37.6378H111.492V32.9621C110.149 34.6412 108.47 36.0103 106.558 36.992C104.698 37.8961 102.632 38.3611 100.565 38.3352C96.7163 38.3352 93.4355 36.9403 90.6973 34.1504C87.9591 31.3605 86.6158 27.9765 86.6158 23.9983C86.5641 20.2267 88.0624 16.6102 90.749 13.9753C93.4872 11.2113 96.8196 9.8163 100.669 9.79047C102.787 9.76464 104.853 10.2555 106.739 11.2112C108.625 12.2445 110.278 13.717 111.492 15.4736V0H114.954ZM100.953 13.1487C97.0779 13.1228 93.4872 15.2153 91.6273 18.6251C89.664 22.035 89.664 26.2199 91.6273 29.6039C92.5572 31.283 93.9264 32.7038 95.6055 33.6854C97.2071 34.6412 99.067 35.1579 100.953 35.132C102.864 35.132 104.75 34.6412 106.403 33.6854C108.057 32.7813 109.426 31.4122 110.356 29.7589C111.312 28.054 111.777 26.1424 111.751 24.2049C111.751 21.0534 110.717 18.4443 108.625 16.3261C106.533 14.2336 104.001 13.1745 100.953 13.1487ZM150.008 10.4879V37.6378H146.547V32.9621C145.204 34.6412 143.525 36.0103 141.613 36.992C139.753 37.8961 137.686 38.3611 135.62 38.3352C131.771 38.3352 128.49 36.9403 125.752 34.1504C123.014 31.3605 121.67 27.9765 121.67 23.9983C121.619 20.2267 123.117 16.6102 125.804 13.9753C128.542 11.1854 131.848 9.79047 135.723 9.79047C137.841 9.76464 139.908 10.2555 141.794 11.2112C143.705 12.2445 145.333 13.717 146.573 15.4736V10.4879H150.008ZM136.007 13.1487C132.132 13.1228 128.542 15.2153 126.656 18.6251C124.693 22.035 124.693 26.194 126.656 29.6039C127.586 31.283 128.955 32.7038 130.634 33.6854C132.236 34.6412 134.096 35.1579 135.981 35.132C137.893 35.132 139.779 34.6412 141.432 33.6854C143.085 32.7813 144.454 31.4122 145.384 29.7589C146.34 28.054 146.805 26.1424 146.779 24.2049C146.779 21.0534 145.746 18.4443 143.654 16.3261C141.587 14.2336 139.03 13.1745 136.007 13.1487ZM157.861 0H161.375V21.4409L173.955 10.5138H179.122L164.19 23.4558L180 37.6636H175.04L161.375 25.4449V37.6636H157.861V0Z" fill="#4E4841"/>
<path fill-rule="evenodd" clip-rule="evenodd" d="M56.3146 24.7733C56.6762 30.4822 61.4294 34.9254 67.1642 34.9512C73.1573 34.9512 78.0137 30.0431 78.0137 23.9983C78.0396 18.341 73.7256 13.6137 68.0941 13.097V9.76465C75.4822 10.2555 81.3203 16.4552 81.3203 24.0241C81.3203 31.903 74.9655 38.3094 67.1383 38.3094C59.5694 38.3094 53.3697 32.3163 52.9822 24.7733H56.3146Z" fill="#4E4841"/>
<path fill-rule="evenodd" clip-rule="evenodd" d="M53.0339 22.8874C53.6022 15.8352 59.2079 10.2554 66.2084 9.79041V13.1228C61.0161 13.6136 56.883 17.6951 56.3663 22.8874H53.0339Z" fill="#00ADEE"/>
</svg>
